<?xml version="1.0" encoding="UTF-8" standalone="no"?><svg xmlns="http://www.w3.org/2000/svg" xmlns:xlink="http://www.w3.org/1999/xlink" contentStyleType="text/css" height="295px" preserveAspectRatio="none" style="width:792px;height:295px;background:#FFFFFF;" version="1.1" viewBox="0 0 792 295" width="792px" zoomAndPan="magnify"><defs/><g><!--MD5=[346d99b39270fc9da6b587baaa1d0e86]
class BooleanLiteral--><a href="#BooleanLiteral" target="_top" title="#BooleanLiteral" xlink:actuate="onRequest" xlink:href="#BooleanLiteral" xlink:show="new" xlink:title="#BooleanLiteral" xlink:type="simple"><g ><rect codeLine="6" fill="#FFFFFF" height="56.4883"  rx="2.5" ry="2.5" style="stroke:#000000;stroke-width:0.5;" width="129" x="7" y="215.5"/><ellipse cx="22" cy="231.5" fill="#ADD1B2" rx="11" ry="11" style="stroke:#181818;stroke-width:1.0;"/><path d="M24.4731,237.6431 Q23.8921,237.9419 23.2529,238.0913 Q22.6138,238.2407 21.9082,238.2407 Q19.4014,238.2407 18.0815,236.5889 Q16.7617,234.937 16.7617,231.8159 Q16.7617,228.6865 18.0815,227.0347 Q19.4014,225.3828 21.9082,225.3828 Q22.6138,225.3828 23.2612,225.5322 Q23.9087,225.6816 24.4731,225.9805 L24.4731,228.7031 Q23.8423,228.1221 23.2488,227.8523 Q22.6553,227.5825 22.0244,227.5825 Q20.6797,227.5825 19.9949,228.6492 Q19.3101,229.7158 19.3101,231.8159 Q19.3101,233.9077 19.9949,234.9744 Q20.6797,236.041 22.0244,236.041 Q22.6553,236.041 23.2488,235.7712 Q23.8423,235.5015 24.4731,234.9204 Z " fill="#000000"/><text fill="#000000" font-family="sans-serif" font-size="14" lengthAdjust="spacing" textLength="97" x="36" y="236.791">BooleanLiteral</text><line style="stroke:#000000;stroke-width:0.5;" x1="8" x2="135" y1="247.5" y2="247.5"/><text fill="#000000" font-family="sans-serif" font-size="14" lengthAdjust="spacing" textLength="103" x="13" y="265.0352">value : Boolean</text></g></a><!--MD5=[27bfdb9e128171e0e365013b6b91e809]
class Literal--><a href="#Literal" target="_top" title="#Literal" xlink:actuate="onRequest" xlink:href="#Literal" xlink:show="new" xlink:title="#Literal" xlink:type="simple"><g ><rect codeLine="22" fill="#FFFFFF" height="40"  rx="2.5" ry="2.5" style="stroke:#000000;stroke-width:0.5;" width="74" x="359.5" y="99"/><ellipse cx="374.5" cy="115" fill="#A9DCDF" rx="11" ry="11" style="stroke:#181818;stroke-width:1.0;"/><path d="M374.3633,110.3481 L373.2095,115.4199 L375.5254,115.4199 Z M372.8691,108.1069 L375.8657,108.1069 L379.2109,120.5 L376.7622,120.5 L375.9985,117.437 L372.7197,117.437 L371.9727,120.5 L369.5239,120.5 Z " fill="#000000"/><text fill="#000000" font-family="sans-serif" font-size="14" font-style="italic" lengthAdjust="spacing" textLength="42" x="388.5" y="120.291">Literal</text><line style="stroke:#000000;stroke-width:0.5;" x1="360.5" x2="432.5" y1="131" y2="131"/></g></a><!--MD5=[baf7612d41bcecf190896c6ba0d13e70]
class DecimalLiteral--><a href="#DecimalLiteral" target="_top" title="#DecimalLiteral" xlink:actuate="onRequest" xlink:href="#DecimalLiteral" xlink:show="new" xlink:title="#DecimalLiteral" xlink:type="simple"><g ><rect codeLine="10" fill="#FFFFFF" height="56.4883"  rx="2.5" ry="2.5" style="stroke:#000000;stroke-width:0.5;" width="128" x="171.5" y="215.5"/><ellipse cx="186.5" cy="231.5" fill="#ADD1B2" rx="11" ry="11" style="stroke:#181818;stroke-width:1.0;"/><path d="M188.9731,237.6431 Q188.3921,237.9419 187.7529,238.0913 Q187.1138,238.2407 186.4082,238.2407 Q183.9014,238.2407 182.5815,236.5889 Q181.2617,234.937 181.2617,231.8159 Q181.2617,228.6865 182.5815,227.0347 Q183.9014,225.3828 186.4082,225.3828 Q187.1138,225.3828 187.7612,225.5322 Q188.4087,225.6816 188.9731,225.9805 L188.9731,228.7031 Q188.3423,228.1221 187.7488,227.8523 Q187.1553,227.5825 186.5244,227.5825 Q185.1797,227.5825 184.4949,228.6492 Q183.8101,229.7158 183.8101,231.8159 Q183.8101,233.9077 184.4949,234.9744 Q185.1797,236.041 186.5244,236.041 Q187.1553,236.041 187.7488,235.7712 Q188.3423,235.5015 188.9731,234.9204 Z " fill="#000000"/><text fill="#000000" font-family="sans-serif" font-size="14" lengthAdjust="spacing" textLength="96" x="200.5" y="236.791">DecimalLiteral</text><line style="stroke:#000000;stroke-width:0.5;" x1="172.5" x2="298.5" y1="247.5" y2="247.5"/><text fill="#000000" font-family="sans-serif" font-size="14" lengthAdjust="spacing" textLength="102" x="177.5" y="265.0352">value : Decimal</text></g></a><!--MD5=[5b3d970de895389b15b00d94f1049bb7]
class DoubleLiteral--><a href="#DoubleLiteral" target="_top" title="#DoubleLiteral" xlink:actuate="onRequest" xlink:href="#DoubleLiteral" xlink:show="new" xlink:title="#DoubleLiteral" xlink:type="simple"><g ><rect codeLine="14" fill="#FFFFFF" height="56.4883"  rx="2.5" ry="2.5" style="stroke:#000000;stroke-width:0.5;" width="123" x="335" y="215.5"/><ellipse cx="350" cy="231.5" fill="#ADD1B2" rx="11" ry="11" style="stroke:#181818;stroke-width:1.0;"/><path d="M352.4731,237.6431 Q351.8921,237.9419 351.2529,238.0913 Q350.6138,238.2407 349.9082,238.2407 Q347.4014,238.2407 346.0815,236.5889 Q344.7617,234.937 344.7617,231.8159 Q344.7617,228.6865 346.0815,227.0347 Q347.4014,225.3828 349.9082,225.3828 Q350.6138,225.3828 351.2612,225.5322 Q351.9087,225.6816 352.4731,225.9805 L352.4731,228.7031 Q351.8423,228.1221 351.2488,227.8523 Q350.6553,227.5825 350.0244,227.5825 Q348.6797,227.5825 347.9949,228.6492 Q347.3101,229.7158 347.3101,231.8159 Q347.3101,233.9077 347.9949,234.9744 Q348.6797,236.041 350.0244,236.041 Q350.6553,236.041 351.2488,235.7712 Q351.8423,235.5015 352.4731,234.9204 Z " fill="#000000"/><text fill="#000000" font-family="sans-serif" font-size="14" lengthAdjust="spacing" textLength="91" x="364" y="236.791">DoubleLiteral</text><line style="stroke:#000000;stroke-width:0.5;" x1="336" x2="457" y1="247.5" y2="247.5"/><text fill="#000000" font-family="sans-serif" font-size="14" lengthAdjust="spacing" textLength="97" x="341" y="265.0352">value : Double</text></g></a><!--MD5=[fb4ac2ef79415f07b7272298fce73ab1]
class IntegerLiteral--><a href="#IntegerLiteral" target="_top" title="#IntegerLiteral" xlink:actuate="onRequest" xlink:href="#IntegerLiteral" xlink:show="new" xlink:title="#IntegerLiteral" xlink:type="simple"><g ><rect codeLine="18" fill="#FFFFFF" height="56.4883"  rx="2.5" ry="2.5" style="stroke:#000000;stroke-width:0.5;" width="123" x="493" y="215.5"/><ellipse cx="508" cy="231.5" fill="#ADD1B2" rx="11" ry="11" style="stroke:#181818;stroke-width:1.0;"/><path d="M510.4731,237.6431 Q509.8921,237.9419 509.2529,238.0913 Q508.6138,238.2407 507.9082,238.2407 Q505.4014,238.2407 504.0815,236.5889 Q502.7617,234.937 502.7617,231.8159 Q502.7617,228.6865 504.0815,227.0347 Q505.4014,225.3828 507.9082,225.3828 Q508.6138,225.3828 509.2612,225.5322 Q509.9087,225.6816 510.4731,225.9805 L510.4731,228.7031 Q509.8423,228.1221 509.2488,227.8523 Q508.6553,227.5825 508.0244,227.5825 Q506.6797,227.5825 505.9949,228.6492 Q505.3101,229.7158 505.3101,231.8159 Q505.3101,233.9077 505.9949,234.9744 Q506.6797,236.041 508.0244,236.041 Q508.6553,236.041 509.2488,235.7712 Q509.8423,235.5015 510.4731,234.9204 Z " fill="#000000"/><text fill="#000000" font-family="sans-serif" font-size="14" lengthAdjust="spacing" textLength="91" x="522" y="236.791">IntegerLiteral</text><line style="stroke:#000000;stroke-width:0.5;" x1="494" x2="615" y1="247.5" y2="247.5"/><text fill="#000000" font-family="sans-serif" font-size="14" lengthAdjust="spacing" textLength="97" x="499" y="265.0352">value : Integer</text></g></a><!--MD5=[95174e42ee347a14b6cb78d6855f19b5]
class Element--><a href="#Element" target="_top" title="#Element" xlink:actuate="onRequest" xlink:href="#Element" xlink:show="new" xlink:title="#Element" xlink:type="simple"><g ><rect codeLine="24" fill="#D3D3D3" height="32"  rx="2.5" ry="2.5" style="stroke:#000000;stroke-width:0.5;" width="87" x="353" y="7"/><ellipse cx="368" cy="23" fill="#A9DCDF" rx="11" ry="11" style="stroke:#181818;stroke-width:1.0;"/><path d="M367.8633,18.3481 L366.7095,23.4199 L369.0254,23.4199 Z M366.3691,16.1069 L369.3657,16.1069 L372.7109,28.5 L370.2622,28.5 L369.4985,25.437 L366.2197,25.437 L365.4727,28.5 L363.0239,28.5 Z " fill="#000000"/><text fill="#000000" font-family="sans-serif" font-size="14" font-style="italic" lengthAdjust="spacing" textLength="55" x="382" y="28.291">Element</text></g></a><!--MD5=[533048c0bed2bbe186c9f9559373d202]
class QuotedLiteral--><a href="#QuotedLiteral" target="_top" title="#QuotedLiteral" xlink:actuate="onRequest" xlink:href="#QuotedLiteral" xlink:show="new" xlink:title="#QuotedLiteral" xlink:type="simple"><g ><rect codeLine="27" fill="#FFFFFF" height="89.4648"  rx="2.5" ry="2.5" style="stroke:#000000;stroke-width:0.5;" width="134" x="651.5" y="199"/><ellipse cx="670.55" cy="215" fill="#ADD1B2" rx="11" ry="11" style="stroke:#181818;stroke-width:1.0;"/><path d="M673.0231,221.1431 Q672.4421,221.4419 671.8029,221.5913 Q671.1638,221.7407 670.4582,221.7407 Q667.9514,221.7407 666.6315,220.0889 Q665.3117,218.437 665.3117,215.3159 Q665.3117,212.1865 666.6315,210.5347 Q667.9514,208.8828 670.4582,208.8828 Q671.1638,208.8828 671.8112,209.0322 Q672.4587,209.1816 673.0231,209.4805 L673.0231,212.2031 Q672.3923,211.6221 671.7988,211.3523 Q671.2053,211.0825 670.5744,211.0825 Q669.2297,211.0825 668.5449,212.1492 Q667.8601,213.2158 667.8601,215.3159 Q667.8601,217.4077 668.5449,218.4744 Q669.2297,219.541 670.5744,219.541 Q671.2053,219.541 671.7988,219.2712 Q672.3923,219.0015 673.0231,218.4204 Z " fill="#000000"/><text fill="#000000" font-family="sans-serif" font-size="14" lengthAdjust="spacing" textLength="93" x="685.45" y="220.291">QuotedLiteral</text><line style="stroke:#000000;stroke-width:0.5;" x1="652.5" x2="784.5" y1="231" y2="231"/><text fill="#000000" font-family="sans-serif" font-size="14" lengthAdjust="spacing" textLength="89" x="657.5" y="248.5352">value : String</text><text fill="#000000" font-family="sans-serif" font-size="14" lengthAdjust="spacing" textLength="109" x="657.5" y="265.0234">langTag : String</text><text fill="#000000" font-family="sans-serif" font-size="14" lengthAdjust="spacing" textLength="122" x="657.5" y="281.5117">type : Scalar [0..1]</text></g></a><!--MD5=[0bb58e2e663bd8f52cbb3a64f7f519e2]
reverse link Literal to BooleanLiteral--><g ><a href="#Literal" target="_top" title="#Literal" xlink:actuate="onRequest" xlink:href="#Literal" xlink:show="new" xlink:title="#Literal" xlink:type="simple"><path codeLine="9" d="M338.65,135.73 C288.76,150.02 215.23,172.83 153.5,199 C142.37,203.72 130.73,209.41 119.82,215.09 " fill="none"  style="stroke:#000000;stroke-width:1.0;"/><polygon fill="none" points="336.53,129.06,357.68,130.37,340.32,142.54,336.53,129.06" style="stroke:#000000;stroke-width:1.0;"/></a></g><!--MD5=[2a49919656d7501e32856347b7c16b5b]
reverse link Literal to DecimalLiteral--><g ><a href="#Literal" target="_top" title="#Literal" xlink:actuate="onRequest" xlink:href="#Literal" xlink:show="new" xlink:title="#Literal" xlink:type="simple"><path codeLine="13" d="M354.04,152.31 C328.3,171.89 295.82,196.61 271.37,215.21 " fill="none"  style="stroke:#000000;stroke-width:1.0;"/><polygon fill="none" points="349.63,146.87,369.78,140.33,358.11,158.01,349.63,146.87" style="stroke:#000000;stroke-width:1.0;"/></a></g><!--MD5=[a1a8ffc91d409eb769f36dab0150ed21]
reverse link Literal to DoubleLiteral--><g ><a href="#Literal" target="_top" title="#Literal" xlink:actuate="onRequest" xlink:href="#Literal" xlink:show="new" xlink:title="#Literal" xlink:type="simple"><path codeLine="17" d="M396.5,160.89 C396.5,178.84 396.5,199.43 396.5,215.44 " fill="none"  style="stroke:#000000;stroke-width:1.0;"/><polygon fill="none" points="389.5,160.92,396.5,140.92,403.5,160.92,389.5,160.92" style="stroke:#000000;stroke-width:1.0;"/></a></g><!--MD5=[6a25895d4ecd2c8a4afd3c96e86e6c1c]
reverse link Literal to IntegerLiteral--><g ><a href="#Literal" target="_top" title="#Literal" xlink:actuate="onRequest" xlink:href="#Literal" xlink:show="new" xlink:title="#Literal" xlink:type="simple"><path codeLine="21" d="M438.17,152.31 C463.43,171.89 495.31,196.61 519.3,215.21 " fill="none"  style="stroke:#000000;stroke-width:1.0;"/><polygon fill="none" points="434.25,158.12,422.73,140.34,442.83,147.06,434.25,158.12" style="stroke:#000000;stroke-width:1.0;"/></a></g><!--MD5=[b5640beb1769b417107308fb2766c10a]
reverse link Element to Literal--><g ><a href="#Element" target="_top" title="#Element" xlink:actuate="onRequest" xlink:href="#Element" xlink:show="new" xlink:title="#Element" xlink:type="simple"><path codeLine="26" d="M396.5,60.42 C396.5,73.47 396.5,87.67 396.5,98.7 " fill="none"  style="stroke:#000000;stroke-width:1.0;"/><polygon fill="none" points="389.5,60.62,396.5,40.62,403.5,60.62,389.5,60.62" style="stroke:#000000;stroke-width:1.0;"/></a></g><!--MD5=[fee8631045d4cb3a59fcac38373cf397]
reverse link Literal to QuotedLiteral--><g ><a href="#Literal" target="_top" title="#Literal" xlink:actuate="onRequest" xlink:href="#Literal" xlink:show="new" xlink:title="#Literal" xlink:type="simple"><path codeLine="32" d="M454.29,136.59 C502.84,151.15 573.68,173.89 633.5,199 C639.31,201.44 645.27,204.11 651.2,206.89 " fill="none"  style="stroke:#000000;stroke-width:1.0;"/><polygon fill="none" points="452.32,143.3,435.13,130.92,456.29,129.88,452.32,143.3" style="stroke:#000000;stroke-width:1.0;"/></a></g><!--MD5=[2618e88762a8e21db76d9c7dc76f92de]
@startuml
skinparam classBackgroundColor LightGray
skinparam classBorderColor Black
skinparam enumBorderColor Black
skinparam ArrowColor Black
hide methods
class BooleanLiteral [[#BooleanLiteral]] #white {
	value : Boolean
}
BooleanLiteral -up-|> Literal [[#Literal]]
class DecimalLiteral [[#DecimalLiteral]] #white {
	value : Decimal
}
DecimalLiteral -up-|> Literal [[#Literal]]
class DoubleLiteral [[#DoubleLiteral]] #white {
	value : Double
}
DoubleLiteral -up-|> Literal [[#Literal]]
class IntegerLiteral [[#IntegerLiteral]] #white {
	value : Integer
}
IntegerLiteral -up-|> Literal [[#Literal]]
abstract class Literal [[#Literal]] #white {
}
abstract class Element [[#Element]]
hide Element members
Literal -up-|> Element [[#Element]]
class QuotedLiteral [[#QuotedLiteral]] #white {
	value : String
	langTag : String
	type : Scalar [0..1]
}
QuotedLiteral -up-|> Literal [[#Literal]]
@enduml

PlantUML version 1.2022.12(Sun Oct 23 11:12:26 PDT 2022)
(GPL source distribution)
Java Runtime: OpenJDK Runtime Environment
JVM: OpenJDK 64-Bit Server VM
Default Encoding: UTF-8
Language: en
Country: US
--></g></svg>
