<?xml version="1.0" encoding="UTF-8" standalone="no"?><svg xmlns="http://www.w3.org/2000/svg" xmlns:xlink="http://www.w3.org/1999/xlink" contentStyleType="text/css" height="572px" preserveAspectRatio="none" style="width:1056px;height:572px;background:#FFFFFF;" version="1.1" viewBox="0 0 1056 572" width="1056px" zoomAndPan="magnify"><defs/><g><!--MD5=[3a34d783aa08cf9dd21282e5580a7bd0]
class ConceptInstance--><a href="#ConceptInstance" target="_top" title="#ConceptInstance" xlink:actuate="onRequest" xlink:href="#ConceptInstance" xlink:show="new" xlink:title="#ConceptInstance" xlink:type="simple"><g ><rect codeLine="6" fill="#FFFFFF" height="40"  rx="2.5" ry="2.5" style="stroke:#000000;stroke-width:0.5;" width="146" x="27.5" y="399.5"/><ellipse cx="42.5" cy="415.5" fill="#ADD1B2" rx="11" ry="11" style="stroke:#181818;stroke-width:1.0;"/><path d="M44.9731,421.6431 Q44.3921,421.9419 43.7529,422.0913 Q43.1138,422.2407 42.4082,422.2407 Q39.9014,422.2407 38.5815,420.5889 Q37.2617,418.937 37.2617,415.8159 Q37.2617,412.6865 38.5815,411.0347 Q39.9014,409.3828 42.4082,409.3828 Q43.1138,409.3828 43.7612,409.5322 Q44.4087,409.6816 44.9731,409.9805 L44.9731,412.7031 Q44.3423,412.1221 43.7488,411.8523 Q43.1553,411.5825 42.5244,411.5825 Q41.1797,411.5825 40.4949,412.6492 Q39.8101,413.7158 39.8101,415.8159 Q39.8101,417.9077 40.4949,418.9744 Q41.1797,420.041 42.5244,420.041 Q43.1553,420.041 43.7488,419.7712 Q44.3423,419.5015 44.9731,418.9204 Z " fill="#000000"/><text fill="#000000" font-family="sans-serif" font-size="14" lengthAdjust="spacing" textLength="114" x="56.5" y="420.791">ConceptInstance</text><line style="stroke:#000000;stroke-width:0.5;" x1="28.5" x2="172.5" y1="431.5" y2="431.5"/></g></a><!--MD5=[03541eacc58da9eb05859a474e5e3193]
class ConceptTypeAssertion--><a href="#ConceptTypeAssertion" target="_top" title="#ConceptTypeAssertion" xlink:actuate="onRequest" xlink:href="#ConceptTypeAssertion" xlink:show="new" xlink:title="#ConceptTypeAssertion" xlink:type="simple"><g ><rect codeLine="8" fill="#D3D3D3" height="32"  rx="2.5" ry="2.5" style="stroke:#000000;stroke-width:0.5;" width="187" x="7" y="533"/><ellipse cx="22" cy="549" fill="#ADD1B2" rx="11" ry="11" style="stroke:#181818;stroke-width:1.0;"/><path d="M24.4731,555.1431 Q23.8921,555.4419 23.2529,555.5913 Q22.6138,555.7407 21.9082,555.7407 Q19.4014,555.7407 18.0815,554.0889 Q16.7617,552.437 16.7617,549.3159 Q16.7617,546.1865 18.0815,544.5347 Q19.4014,542.8828 21.9082,542.8828 Q22.6138,542.8828 23.2612,543.0322 Q23.9087,543.1816 24.4731,543.4805 L24.4731,546.2031 Q23.8423,545.6221 23.2488,545.3523 Q22.6553,545.0825 22.0244,545.0825 Q20.6797,545.0825 19.9949,546.1492 Q19.3101,547.2158 19.3101,549.3159 Q19.3101,551.4077 19.9949,552.4744 Q20.6797,553.541 22.0244,553.541 Q22.6553,553.541 23.2488,553.2712 Q23.8423,553.0015 24.4731,552.4204 Z " fill="#000000"/><text fill="#000000" font-family="sans-serif" font-size="14" lengthAdjust="spacing" textLength="155" x="36" y="554.291">ConceptTypeAssertion</text></g></a><!--MD5=[8b44ae978416842b2af96e0d240d76a4]
class NamedInstance--><a href="#NamedInstance" target="_top" title="#NamedInstance" xlink:actuate="onRequest" xlink:href="#NamedInstance" xlink:show="new" xlink:title="#NamedInstance" xlink:type="simple"><g ><rect codeLine="20" fill="#FFFFFF" height="40"  rx="2.5" ry="2.5" style="stroke:#000000;stroke-width:0.5;" width="137" x="203" y="241.5"/><ellipse cx="218" cy="257.5" fill="#A9DCDF" rx="11" ry="11" style="stroke:#181818;stroke-width:1.0;"/><path d="M217.8633,252.8481 L216.7095,257.9199 L219.0254,257.9199 Z M216.3691,250.6069 L219.3657,250.6069 L222.7109,263 L220.2622,263 L219.4985,259.937 L216.2197,259.937 L215.4727,263 L213.0239,263 Z " fill="#000000"/><text fill="#000000" font-family="sans-serif" font-size="14" font-style="italic" lengthAdjust="spacing" textLength="105" x="232" y="262.791">NamedInstance</text><line style="stroke:#000000;stroke-width:0.5;" x1="204" x2="339" y1="273.5" y2="273.5"/></g></a><!--MD5=[dbfd7680984eb54d794e10dee7f3936a]
class Instance--><a href="#Instance" target="_top" title="#Instance" xlink:actuate="onRequest" xlink:href="#Instance" xlink:show="new" xlink:title="#Instance" xlink:type="simple"><g ><rect codeLine="12" fill="#FFFFFF" height="40"  rx="2.5" ry="2.5" style="stroke:#000000;stroke-width:0.5;" width="89" x="427" y="100"/><ellipse cx="442" cy="116" fill="#A9DCDF" rx="11" ry="11" style="stroke:#181818;stroke-width:1.0;"/><path d="M441.8633,111.3481 L440.7095,116.4199 L443.0254,116.4199 Z M440.3691,109.1069 L443.3657,109.1069 L446.7109,121.5 L444.2622,121.5 L443.4985,118.437 L440.2197,118.437 L439.4727,121.5 L437.0239,121.5 Z " fill="#000000"/><text fill="#000000" font-family="sans-serif" font-size="14" font-style="italic" lengthAdjust="spacing" textLength="57" x="456" y="121.291">Instance</text><line style="stroke:#000000;stroke-width:0.5;" x1="428" x2="515" y1="132" y2="132"/></g></a><!--MD5=[95174e42ee347a14b6cb78d6855f19b5]
class Element--><a href="#Element" target="_top" title="#Element" xlink:actuate="onRequest" xlink:href="#Element" xlink:show="new" xlink:title="#Element" xlink:type="simple"><g ><rect codeLine="14" fill="#D3D3D3" height="32"  rx="2.5" ry="2.5" style="stroke:#000000;stroke-width:0.5;" width="87" x="428" y="7"/><ellipse cx="443" cy="23" fill="#A9DCDF" rx="11" ry="11" style="stroke:#181818;stroke-width:1.0;"/><path d="M442.8633,18.3481 L441.7095,23.4199 L444.0254,23.4199 Z M441.3691,16.1069 L444.3657,16.1069 L447.7109,28.5 L445.2622,28.5 L444.4985,25.437 L441.2197,25.437 L440.4727,28.5 L438.0239,28.5 Z " fill="#000000"/><text fill="#000000" font-family="sans-serif" font-size="14" font-style="italic" lengthAdjust="spacing" textLength="55" x="457" y="28.291">Element</text></g></a><!--MD5=[6d0a02ee44a7895dbe334527783d800c]
class PropertyValueAssertion--><a href="#PropertyValueAssertion" target="_top" title="#PropertyValueAssertion" xlink:actuate="onRequest" xlink:href="#PropertyValueAssertion" xlink:show="new" xlink:title="#PropertyValueAssertion" xlink:type="simple"><g ><rect codeLine="16" fill="#D3D3D3" height="32"  rx="2.5" ry="2.5" style="stroke:#000000;stroke-width:0.5;" width="193" x="375" y="245.5"/><ellipse cx="390" cy="261.5" fill="#A9DCDF" rx="11" ry="11" style="stroke:#181818;stroke-width:1.0;"/><path d="M389.8633,256.8481 L388.7095,261.9199 L391.0254,261.9199 Z M388.3691,254.6069 L391.3657,254.6069 L394.7109,267 L392.2622,267 L391.4985,263.937 L388.2197,263.937 L387.4727,267 L385.0239,267 Z " fill="#000000"/><text fill="#000000" font-family="sans-serif" font-size="14" font-style="italic" lengthAdjust="spacing" textLength="161" x="404" y="266.791">PropertyValueAssertion</text></g></a><!--MD5=[f58fd777f29c17413488bea9e7cfcca3]
class Member--><a href="#Member" target="_top" title="#Member" xlink:actuate="onRequest" xlink:href="#Member" xlink:show="new" xlink:title="#Member" xlink:type="simple"><g ><rect codeLine="22" fill="#D3D3D3" height="32"  rx="2.5" ry="2.5" style="stroke:#000000;stroke-width:0.5;" width="88" x="265.5" y="104"/><ellipse cx="280.5" cy="120" fill="#A9DCDF" rx="11" ry="11" style="stroke:#181818;stroke-width:1.0;"/><path d="M280.3633,115.3481 L279.2095,120.4199 L281.5254,120.4199 Z M278.8691,113.1069 L281.8657,113.1069 L285.2109,125.5 L282.7622,125.5 L281.9985,122.437 L278.7197,122.437 L277.9727,125.5 L275.5239,125.5 Z " fill="#000000"/><text fill="#000000" font-family="sans-serif" font-size="14" font-style="italic" lengthAdjust="spacing" textLength="56" x="294.5" y="125.291">Member</text></g></a><!--MD5=[7fd9f8b5a256c0fcfd7e466c0d831b0f]
class DescriptionStatement--><a href="#DescriptionStatement" target="_top" title="#DescriptionStatement" xlink:actuate="onRequest" xlink:href="#DescriptionStatement" xlink:show="new" xlink:title="#DescriptionStatement" xlink:type="simple"><g ><rect codeLine="24" fill="#D3D3D3" height="32"  rx="2.5" ry="2.5" style="stroke:#000000;stroke-width:0.5;" width="179" x="51" y="104"/><ellipse cx="66" cy="120" fill="#A9DCDF" rx="11" ry="11" style="stroke:#181818;stroke-width:1.0;"/><path d="M65.8633,115.3481 L64.7095,120.4199 L67.0254,120.4199 Z M64.3691,113.1069 L67.3657,113.1069 L70.7109,125.5 L68.2622,125.5 L67.4985,122.437 L64.2197,122.437 L63.4727,125.5 L61.0239,125.5 Z " fill="#000000"/><text fill="#000000" font-family="sans-serif" font-size="14" font-style="italic" lengthAdjust="spacing" textLength="147" x="80" y="125.291">DescriptionStatement</text></g></a><!--MD5=[1d4c83110fab86e623c5cd99c66ce333]
class LinkAssertion--><a href="#LinkAssertion" target="_top" title="#LinkAssertion" xlink:actuate="onRequest" xlink:href="#LinkAssertion" xlink:show="new" xlink:title="#LinkAssertion" xlink:type="simple"><g ><rect codeLine="26" fill="#D3D3D3" height="32"  rx="2.5" ry="2.5" style="stroke:#000000;stroke-width:0.5;" width="125" x="209" y="403.5"/><ellipse cx="224" cy="419.5" fill="#ADD1B2" rx="11" ry="11" style="stroke:#181818;stroke-width:1.0;"/><path d="M226.4731,425.6431 Q225.8921,425.9419 225.2529,426.0913 Q224.6138,426.2407 223.9082,426.2407 Q221.4014,426.2407 220.0815,424.5889 Q218.7617,422.937 218.7617,419.8159 Q218.7617,416.6865 220.0815,415.0347 Q221.4014,413.3828 223.9082,413.3828 Q224.6138,413.3828 225.2612,413.5322 Q225.9087,413.6816 226.4731,413.9805 L226.4731,416.7031 Q225.8423,416.1221 225.2488,415.8523 Q224.6553,415.5825 224.0244,415.5825 Q222.6797,415.5825 221.9949,416.6492 Q221.3101,417.7158 221.3101,419.8159 Q221.3101,421.9077 221.9949,422.9744 Q222.6797,424.041 224.0244,424.041 Q224.6553,424.041 225.2488,423.7712 Q225.8423,423.5015 226.4731,422.9204 Z " fill="#000000"/><text fill="#000000" font-family="sans-serif" font-size="14" lengthAdjust="spacing" textLength="93" x="238" y="424.791">LinkAssertion</text></g></a><!--MD5=[053f99caad121b701c3c19776ce91cf3]
class RelationInstance--><a href="#RelationInstance" target="_top" title="#RelationInstance" xlink:actuate="onRequest" xlink:href="#RelationInstance" xlink:show="new" xlink:title="#RelationInstance" xlink:type="simple"><g ><rect codeLine="32" fill="#FFFFFF" height="72.9766"  rx="2.5" ry="2.5" style="stroke:#000000;stroke-width:0.5;" width="203" x="369" y="383"/><ellipse cx="410.1" cy="399" fill="#ADD1B2" rx="11" ry="11" style="stroke:#181818;stroke-width:1.0;"/><path d="M412.5731,405.1431 Q411.9921,405.4419 411.3529,405.5913 Q410.7138,405.7407 410.0082,405.7407 Q407.5014,405.7407 406.1815,404.0889 Q404.8617,402.437 404.8617,399.3159 Q404.8617,396.1865 406.1815,394.5347 Q407.5014,392.8828 410.0082,392.8828 Q410.7138,392.8828 411.3612,393.0322 Q412.0087,393.1816 412.5731,393.4805 L412.5731,396.2031 Q411.9423,395.6221 411.3488,395.3523 Q410.7553,395.0825 410.1244,395.0825 Q408.7797,395.0825 408.0949,396.1492 Q407.4101,397.2158 407.4101,399.3159 Q407.4101,401.4077 408.0949,402.4744 Q408.7797,403.541 410.1244,403.541 Q410.7553,403.541 411.3488,403.2712 Q411.9423,403.0015 412.5731,402.4204 Z " fill="#000000"/><text fill="#000000" font-family="sans-serif" font-size="14" lengthAdjust="spacing" textLength="113" x="429.9" y="404.291">RelationInstance</text><line style="stroke:#000000;stroke-width:0.5;" x1="370" x2="571" y1="415" y2="415"/><text fill="#000000" font-family="sans-serif" font-size="14" lengthAdjust="spacing" textLength="191" x="375" y="432.5352">sources : NamedInstance [*]</text><text fill="#000000" font-family="sans-serif" font-size="14" lengthAdjust="spacing" textLength="186" x="375" y="449.0234">targets : NamedInstance [*]</text></g></a><!--MD5=[e53970aaa929ddb260a07d7f00a7515f]
class RelationTypeAssertion--><a href="#RelationTypeAssertion" target="_top" title="#RelationTypeAssertion" xlink:actuate="onRequest" xlink:href="#RelationTypeAssertion" xlink:show="new" xlink:title="#RelationTypeAssertion" xlink:type="simple"><g ><rect codeLine="36" fill="#D3D3D3" height="32"  rx="2.5" ry="2.5" style="stroke:#000000;stroke-width:0.5;" width="186" x="377.5" y="533"/><ellipse cx="392.5" cy="549" fill="#ADD1B2" rx="11" ry="11" style="stroke:#181818;stroke-width:1.0;"/><path d="M394.9731,555.1431 Q394.3921,555.4419 393.7529,555.5913 Q393.1138,555.7407 392.4082,555.7407 Q389.9014,555.7407 388.5815,554.0889 Q387.2617,552.437 387.2617,549.3159 Q387.2617,546.1865 388.5815,544.5347 Q389.9014,542.8828 392.4082,542.8828 Q393.1138,542.8828 393.7612,543.0322 Q394.4087,543.1816 394.9731,543.4805 L394.9731,546.2031 Q394.3423,545.6221 393.7488,545.3523 Q393.1553,545.0825 392.5244,545.0825 Q391.1797,545.0825 390.4949,546.1492 Q389.8101,547.2158 389.8101,549.3159 Q389.8101,551.4077 390.4949,552.4744 Q391.1797,553.541 392.5244,553.541 Q393.1553,553.541 393.7488,553.2712 Q394.3423,553.0015 394.9731,552.4204 Z " fill="#000000"/><text fill="#000000" font-family="sans-serif" font-size="14" lengthAdjust="spacing" textLength="154" x="406.5" y="554.291">RelationTypeAssertion</text></g></a><!--MD5=[0b2f13c70971adaa910dfa4227793f6d]
class StructureInstance--><a href="#StructureInstance" target="_top" title="#StructureInstance" xlink:actuate="onRequest" xlink:href="#StructureInstance" xlink:show="new" xlink:title="#StructureInstance" xlink:type="simple"><g ><rect codeLine="40" fill="#FFFFFF" height="89.4648"  rx="2.5" ry="2.5" style="stroke:#000000;stroke-width:0.5;" width="446" x="603.5" y="217"/><ellipse cx="762.25" cy="233" fill="#ADD1B2" rx="11" ry="11" style="stroke:#181818;stroke-width:1.0;"/><path d="M764.7231,239.1431 Q764.1421,239.4419 763.5029,239.5913 Q762.8638,239.7407 762.1582,239.7407 Q759.6514,239.7407 758.3315,238.0889 Q757.0117,236.437 757.0117,233.3159 Q757.0117,230.1865 758.3315,228.5347 Q759.6514,226.8828 762.1582,226.8828 Q762.8638,226.8828 763.5112,227.0322 Q764.1587,227.1816 764.7231,227.4805 L764.7231,230.2031 Q764.0923,229.6221 763.4988,229.3523 Q762.9053,229.0825 762.2744,229.0825 Q760.9297,229.0825 760.2449,230.1492 Q759.5601,231.2158 759.5601,233.3159 Q759.5601,235.4077 760.2449,236.4744 Q760.9297,237.541 762.2744,237.541 Q762.9053,237.541 763.4988,237.2712 Q764.0923,237.0015 764.7231,236.4204 Z " fill="#000000"/><text fill="#000000" font-family="sans-serif" font-size="14" lengthAdjust="spacing" textLength="120" x="782.75" y="238.291">StructureInstance</text><line style="stroke:#000000;stroke-width:0.5;" x1="604.5" x2="1048.5" y1="249" y2="249"/><text fill="#000000" font-family="sans-serif" font-size="14" lengthAdjust="spacing" textLength="127" x="609.5" y="266.5352">type : Structure [1]</text><text fill="#000000" font-family="sans-serif" font-size="14" lengthAdjust="spacing" textLength="434" x="609.5" y="283.0234">owningAxiom : StructuredPropertyValueRestrictionAxiom [0..1]</text><text fill="#000000" font-family="sans-serif" font-size="14" lengthAdjust="spacing" textLength="401" x="609.5" y="299.5117">owningAssertion : StructuredPropertyValueAssertion [0..1]</text></g></a><!--MD5=[1c1434d90e23c339b3d591ac31258284]
reverse link NamedInstance to ConceptInstance--><g ><a href="#NamedInstance" target="_top" title="#NamedInstance" xlink:actuate="onRequest" xlink:href="#NamedInstance" xlink:show="new" xlink:title="#NamedInstance" xlink:type="simple"><path codeLine="10" d="M234.72,296.05 C200.3,327.46 150.05,373.3 121.81,399.06 " fill="none"  style="stroke:#000000;stroke-width:1.0;"/><polygon fill="none" points="229.58,291.27,249.07,282.96,239.01,301.61,229.58,291.27" style="stroke:#000000;stroke-width:1.0;"/></a></g><!--MD5=[871de01d74c748fc4f4a83bcceebbb31]
link ConceptInstance to ConceptTypeAssertion--><g ><path codeLine="11" d="M100.5,453.38 C100.5,453.38 100.5,499.37 100.5,518.62 " fill="none"  style="stroke:#000000;stroke-width:1.0;"/><polygon fill="#000000" points="100.5,531.34,104.5,522.34,100.5,526.34,96.5,522.34,100.5,531.34" style="stroke:#000000;stroke-width:1.0;"/><line style="stroke:#000000;stroke-width:1.0;" x1="100.5" x2="100.5" y1="526.34" y2="518.34"/><polygon fill="#000000" points="100.5,441.38,96.5,447.38,100.5,453.38,104.5,447.38,100.5,441.38" style="stroke:#000000;stroke-width:1.0;"/><text fill="#000000" font-family="sans-serif" font-size="13" lengthAdjust="spacing" textLength="78" x="101.5" y="499.5684">ownedTypes</text><text fill="#000000" font-family="sans-serif" font-size="13" lengthAdjust="spacing" textLength="6" x="93.4688" y="522.3555">*</text></g><!--MD5=[fc6209097715aeabb754f46301d46c5f]
reverse link Element to Instance--><g ><a href="#Element" target="_top" title="#Element" xlink:actuate="onRequest" xlink:href="#Element" xlink:show="new" xlink:title="#Element" xlink:type="simple"><path codeLine="18" d="M471.5,60.46 C471.5,73.88 471.5,88.54 471.5,99.84 " fill="none"  style="stroke:#000000;stroke-width:1.0;"/><polygon fill="none" points="464.5,60.78,471.5,40.78,478.5,60.78,464.5,60.78" style="stroke:#000000;stroke-width:1.0;"/></a></g><!--MD5=[64667091ea42c9765ca5cac727ec9674]
link Instance to PropertyValueAssertion--><g ><path codeLine="19" d="M471.5,153.91 C471.5,153.91 471.5,208.54 471.5,230.88 " fill="none"  style="stroke:#000000;stroke-width:1.0;"/><polygon fill="#000000" points="471.5,243.62,475.5,234.62,471.5,238.62,467.5,234.62,471.5,243.62" style="stroke:#000000;stroke-width:1.0;"/><line style="stroke:#000000;stroke-width:1.0;" x1="471.5" x2="471.5" y1="238.62" y2="230.62"/><polygon fill="#000000" points="471.5,141.91,467.5,147.91,471.5,153.91,475.5,147.91,471.5,141.91" style="stroke:#000000;stroke-width:1.0;"/><text fill="#000000" font-family="sans-serif" font-size="13" lengthAdjust="spacing" textLength="134" x="472.5" y="183.5684">ownedPropertyValues</text><text fill="#000000" font-family="sans-serif" font-size="13" lengthAdjust="spacing" textLength="6" x="464.5063" y="234.8429">*</text></g><!--MD5=[bd9da2e95824ae3eda044452d04db0d0]
reverse link Member to NamedInstance--><g ><a href="#Member" target="_top" title="#Member" xlink:actuate="onRequest" xlink:href="#Member" xlink:show="new" xlink:title="#Member" xlink:type="simple"><path codeLine="28" d="M299.72,156.89 C292.38,183.85 282.61,219.73 276.7,241.41 " fill="none"  style="stroke:#000000;stroke-width:1.0;"/><polygon fill="none" points="292.88,155.38,304.89,137.92,306.39,159.06,292.88,155.38" style="stroke:#000000;stroke-width:1.0;"/></a></g><!--MD5=[37b772948c4ae55209ad7ea83efa8939]
reverse link Instance to NamedInstance--><g ><a href="#Instance" target="_top" title="#Instance" xlink:actuate="onRequest" xlink:href="#Instance" xlink:show="new" xlink:title="#Instance" xlink:type="simple"><path codeLine="29" d="M426.27,152.55 C387.29,179.74 332.25,218.13 299.39,241.04 " fill="none"  style="stroke:#000000;stroke-width:1.0;"/><polygon fill="none" points="422.04,146.96,442.45,141.26,430.05,158.45,422.04,146.96" style="stroke:#000000;stroke-width:1.0;"/></a></g><!--MD5=[5540b512a53bc9c0895778b2307c2541]
reverse link DescriptionStatement to NamedInstance--><g ><a href="#DescriptionStatement" target="_top" title="#DescriptionStatement" xlink:actuate="onRequest" xlink:href="#DescriptionStatement" xlink:show="new" xlink:title="#DescriptionStatement" xlink:type="simple"><path codeLine="30" d="M169.72,152.12 C195.41,179.48 231.98,218.42 253.57,241.41 " fill="none"  style="stroke:#000000;stroke-width:1.0;"/><polygon fill="none" points="164.64,156.94,156.06,137.57,174.85,147.35,164.64,156.94" style="stroke:#000000;stroke-width:1.0;"/></a></g><!--MD5=[2650f3923582a09573cabe45df86fd67]
link NamedInstance to LinkAssertion--><g ><path codeLine="31" d="M271.5,295.46 C271.5,295.46 271.5,362.36 271.5,388.74 " fill="none"  style="stroke:#000000;stroke-width:1.0;"/><polygon fill="#000000" points="271.5,401.53,275.5,392.53,271.5,396.53,267.5,392.53,271.5,401.53" style="stroke:#000000;stroke-width:1.0;"/><line style="stroke:#000000;stroke-width:1.0;" x1="271.5" x2="271.5" y1="396.53" y2="388.53"/><polygon fill="#000000" points="271.5,283.46,267.5,289.46,271.5,295.46,275.5,289.46,271.5,283.46" style="stroke:#000000;stroke-width:1.0;"/><text fill="#000000" font-family="sans-serif" font-size="13" lengthAdjust="spacing" textLength="75" x="272.5" y="349.5684">ownedLinks</text><text fill="#000000" font-family="sans-serif" font-size="13" lengthAdjust="spacing" textLength="6" x="264.5063" y="392.723">*</text></g><!--MD5=[4fcbe9e3882b3ec34eb83034c6ebaba7]
reverse link NamedInstance to RelationInstance--><g ><a href="#NamedInstance" target="_top" title="#NamedInstance" xlink:actuate="onRequest" xlink:href="#NamedInstance" xlink:show="new" xlink:title="#NamedInstance" xlink:type="simple"><path codeLine="38" d="M312.98,295.01 C345.65,320.63 391.15,356.3 424.86,382.72 " fill="none"  style="stroke:#000000;stroke-width:1.0;"/><polygon fill="none" points="308.91,300.72,297.49,282.88,317.55,289.71,308.91,300.72" style="stroke:#000000;stroke-width:1.0;"/></a></g><!--MD5=[e65165174ae4f38588e6ae7c94ec53f6]
link RelationInstance to RelationTypeAssertion--><g ><path codeLine="39" d="M470.5,469.87 C470.5,469.87 470.5,504.23 470.5,518.36 " fill="none"  style="stroke:#000000;stroke-width:1.0;"/><polygon fill="#000000" points="470.5,531.22,474.5,522.22,470.5,526.22,466.5,522.22,470.5,531.22" style="stroke:#000000;stroke-width:1.0;"/><line style="stroke:#000000;stroke-width:1.0;" x1="470.5" x2="470.5" y1="526.22" y2="518.22"/><polygon fill="#000000" points="470.5,457.87,466.5,463.87,470.5,469.87,474.5,463.87,470.5,457.87" style="stroke:#000000;stroke-width:1.0;"/><text fill="#000000" font-family="sans-serif" font-size="13" lengthAdjust="spacing" textLength="78" x="471.5" y="499.5684">ownedTypes</text><text fill="#000000" font-family="sans-serif" font-size="13" lengthAdjust="spacing" textLength="6" x="463.4688" y="522.1808">*</text></g><!--MD5=[9dacfcaabec8872b27cbe6b973e572dc]
reverse link Instance to StructureInstance--><g ><a href="#Instance" target="_top" title="#Instance" xlink:actuate="onRequest" xlink:href="#Instance" xlink:show="new" xlink:title="#Instance" xlink:type="simple"><path codeLine="45" d="M536.56,141.95 C561.41,150.27 589.92,160.18 615.5,170 C652.71,184.29 693.05,201.22 728.39,216.55 " fill="none"  style="stroke:#000000;stroke-width:1.0;"/><polygon fill="none" points="534.48,148.64,517.69,135.72,538.88,135.35,534.48,148.64" style="stroke:#000000;stroke-width:1.0;"/></a></g><!--MD5=[cdab83226f257cf0e6507d0351ce8909]
@startuml
skinparam classBackgroundColor LightGray
skinparam classBorderColor Black
skinparam enumBorderColor Black
skinparam ArrowColor Black
hide methods
class ConceptInstance [[#ConceptInstance]] #white {
}
class ConceptTypeAssertion [[#ConceptTypeAssertion]]
hide ConceptTypeAssertion members
ConceptInstance -up-|> NamedInstance [[#NamedInstance]]
ConceptInstance *- -> "*" ConceptTypeAssertion : ownedTypes
abstract class Instance [[#Instance]] #white {
}
abstract class Element [[#Element]]
hide Element members
abstract class PropertyValueAssertion [[#PropertyValueAssertion]]
hide PropertyValueAssertion members
Instance -up-|> Element [[#Element]]
Instance *- -> "*" PropertyValueAssertion : ownedPropertyValues
abstract class NamedInstance [[#NamedInstance]] #white {
}
abstract class Member [[#Member]]
hide Member members
abstract class DescriptionStatement [[#DescriptionStatement]]
hide DescriptionStatement members
class LinkAssertion [[#LinkAssertion]]
hide LinkAssertion members
NamedInstance -up-|> Member [[#Member]]
NamedInstance -up-|> Instance [[#Instance]]
NamedInstance -up-|> DescriptionStatement [[#DescriptionStatement]]
NamedInstance *- -> "*" LinkAssertion : ownedLinks
class RelationInstance [[#RelationInstance]] #white {
	sources : NamedInstance [*]
	targets : NamedInstance [*]
}
class RelationTypeAssertion [[#RelationTypeAssertion]]
hide RelationTypeAssertion members
RelationInstance -up-|> NamedInstance [[#NamedInstance]]
RelationInstance *- -> "*" RelationTypeAssertion : ownedTypes
class StructureInstance [[#StructureInstance]] #white {
	type : Structure [1]
	owningAxiom : StructuredPropertyValueRestrictionAxiom [0..1]
	owningAssertion : StructuredPropertyValueAssertion [0..1]
}
StructureInstance -up-|> Instance [[#Instance]]
@enduml

PlantUML version 1.2022.12(Sun Oct 23 11:12:26 PDT 2022)
(GPL source distribution)
Java Runtime: OpenJDK Runtime Environment
JVM: OpenJDK 64-Bit Server VM
Default Encoding: UTF-8
Language: en
Country: US
--></g></svg>
