<?xml version="1.0" encoding="UTF-8" standalone="no"?><svg xmlns="http://www.w3.org/2000/svg" xmlns:xlink="http://www.w3.org/1999/xlink" contentStyleType="text/css" height="821px" preserveAspectRatio="none" style="width:1571px;height:821px;background:#FFFFFF;" version="1.1" viewBox="0 0 1571 821" width="1571px" zoomAndPan="magnify"><defs/><g><!--MD5=[c89de6697dc6d01dc60be682576a34d4]
class Aspect--><a href="#Aspect" target="_top" title="#Aspect" xlink:actuate="onRequest" xlink:href="#Aspect" xlink:show="new" xlink:title="#Aspect" xlink:type="simple"><g ><rect codeLine="6" fill="#FFFFFF" height="40"  rx="2.5" ry="2.5" style="stroke:#000000;stroke-width:0.5;" width="78" x="7" y="591"/><ellipse cx="22" cy="607" fill="#ADD1B2" rx="11" ry="11" style="stroke:#181818;stroke-width:1.0;"/><path d="M24.4731,613.1431 Q23.8921,613.4419 23.2529,613.5913 Q22.6138,613.7407 21.9082,613.7407 Q19.4014,613.7407 18.0815,612.0889 Q16.7617,610.437 16.7617,607.3159 Q16.7617,604.1865 18.0815,602.5347 Q19.4014,600.8828 21.9082,600.8828 Q22.6138,600.8828 23.2612,601.0322 Q23.9087,601.1816 24.4731,601.4805 L24.4731,604.2031 Q23.8423,603.6221 23.2488,603.3523 Q22.6553,603.0825 22.0244,603.0825 Q20.6797,603.0825 19.9949,604.1492 Q19.3101,605.2158 19.3101,607.3159 Q19.3101,609.4077 19.9949,610.4744 Q20.6797,611.541 22.0244,611.541 Q22.6553,611.541 23.2488,611.2712 Q23.8423,611.0015 24.4731,610.4204 Z " fill="#000000"/><text fill="#000000" font-family="sans-serif" font-size="14" lengthAdjust="spacing" textLength="46" x="36" y="612.291">Aspect</text><line style="stroke:#000000;stroke-width:0.5;" x1="8" x2="84" y1="623" y2="623"/></g></a><!--MD5=[be996cdb8e6bf2fc7cb89c555f2cd144]
class Entity--><a href="#Entity" target="_top" title="#Entity" xlink:actuate="onRequest" xlink:href="#Entity" xlink:show="new" xlink:title="#Entity" xlink:type="simple"><g ><rect codeLine="19" fill="#FFFFFF" height="40"  rx="2.5" ry="2.5" style="stroke:#000000;stroke-width:0.5;" width="70" x="519" y="359"/><ellipse cx="534" cy="375" fill="#A9DCDF" rx="11" ry="11" style="stroke:#181818;stroke-width:1.0;"/><path d="M533.8633,370.3481 L532.7095,375.4199 L535.0254,375.4199 Z M532.3691,368.1069 L535.3657,368.1069 L538.7109,380.5 L536.2622,380.5 L535.4985,377.437 L532.2197,377.437 L531.4727,380.5 L529.0239,380.5 Z " fill="#000000"/><text fill="#000000" font-family="sans-serif" font-size="14" font-style="italic" lengthAdjust="spacing" textLength="38" x="548" y="380.291">Entity</text><line style="stroke:#000000;stroke-width:0.5;" x1="520" x2="588" y1="391" y2="391"/></g></a><!--MD5=[e5192d39c070dac6a79b288c93719d10]
class Classifier--><a href="#Classifier" target="_top" title="#Classifier" xlink:actuate="onRequest" xlink:href="#Classifier" xlink:show="new" xlink:title="#Classifier" xlink:type="simple"><g ><rect codeLine="9" fill="#FFFFFF" height="40"  rx="2.5" ry="2.5" style="stroke:#000000;stroke-width:0.5;" width="95" x="777.5" y="201"/><ellipse cx="792.5" cy="217" fill="#A9DCDF" rx="11" ry="11" style="stroke:#181818;stroke-width:1.0;"/><path d="M792.3633,212.3481 L791.2095,217.4199 L793.5254,217.4199 Z M790.8691,210.1069 L793.8657,210.1069 L797.2109,222.5 L794.7622,222.5 L793.9985,219.437 L790.7197,219.437 L789.9727,222.5 L787.5239,222.5 Z " fill="#000000"/><text fill="#000000" font-family="sans-serif" font-size="14" font-style="italic" lengthAdjust="spacing" textLength="63" x="806.5" y="222.291">Classifier</text><line style="stroke:#000000;stroke-width:0.5;" x1="778.5" x2="871.5" y1="233" y2="233"/></g></a><!--MD5=[25b87728d4df6106c58eefd79f338c2d]
class PropertyRestrictionAxiom--><a href="#PropertyRestrictionAxiom" target="_top" title="#PropertyRestrictionAxiom" xlink:actuate="onRequest" xlink:href="#PropertyRestrictionAxiom" xlink:show="new" xlink:title="#PropertyRestrictionAxiom" xlink:type="simple"><g ><rect codeLine="11" fill="#D3D3D3" height="32"  rx="2.5" ry="2.5" style="stroke:#000000;stroke-width:0.5;" width="208" x="624" y="363"/><ellipse cx="639" cy="379" fill="#A9DCDF" rx="11" ry="11" style="stroke:#181818;stroke-width:1.0;"/><path d="M638.8633,374.3481 L637.7095,379.4199 L640.0254,379.4199 Z M637.3691,372.1069 L640.3657,372.1069 L643.7109,384.5 L641.2622,384.5 L640.4985,381.437 L637.2197,381.437 L636.4727,384.5 L634.0239,384.5 Z " fill="#000000"/><text fill="#000000" font-family="sans-serif" font-size="14" font-style="italic" lengthAdjust="spacing" textLength="176" x="653" y="384.291">PropertyRestrictionAxiom</text></g></a><!--MD5=[4296a1ab0576a383a1a509d52c22ebf0]
class Type--><a href="#Type" target="_top" title="#Type" xlink:actuate="onRequest" xlink:href="#Type" xlink:show="new" xlink:title="#Type" xlink:type="simple"><g ><rect codeLine="78" fill="#FFFFFF" height="40"  rx="2.5" ry="2.5" style="stroke:#000000;stroke-width:0.5;" width="65" x="872.5" y="100"/><ellipse cx="887.5" cy="116" fill="#A9DCDF" rx="11" ry="11" style="stroke:#181818;stroke-width:1.0;"/><path d="M887.3633,111.3481 L886.2095,116.4199 L888.5254,116.4199 Z M885.8691,109.1069 L888.8657,109.1069 L892.2109,121.5 L889.7622,121.5 L888.9985,118.437 L885.7197,118.437 L884.9727,121.5 L882.5239,121.5 Z " fill="#000000"/><text fill="#000000" font-family="sans-serif" font-size="14" font-style="italic" lengthAdjust="spacing" textLength="33" x="901.5" y="121.291">Type</text><line style="stroke:#000000;stroke-width:0.5;" x1="873.5" x2="936.5" y1="132" y2="132"/></g></a><!--MD5=[9d451b2f92d848a8e2d1a4dab2b1c6bf]
class Concept--><a href="#Concept" target="_top" title="#Concept" xlink:actuate="onRequest" xlink:href="#Concept" xlink:show="new" xlink:title="#Concept" xlink:type="simple"><g ><rect codeLine="15" fill="#FFFFFF" height="56.4883"  rx="2.5" ry="2.5" style="stroke:#000000;stroke-width:0.5;" width="306" x="120" y="583"/><ellipse cx="240.25" cy="599" fill="#ADD1B2" rx="11" ry="11" style="stroke:#181818;stroke-width:1.0;"/><path d="M242.7231,605.1431 Q242.1421,605.4419 241.5029,605.5913 Q240.8638,605.7407 240.1582,605.7407 Q237.6514,605.7407 236.3315,604.0889 Q235.0117,602.437 235.0117,599.3159 Q235.0117,596.1865 236.3315,594.5347 Q237.6514,592.8828 240.1582,592.8828 Q240.8638,592.8828 241.5112,593.0322 Q242.1587,593.1816 242.7231,593.4805 L242.7231,596.2031 Q242.0923,595.6221 241.4988,595.3523 Q240.9053,595.0825 240.2744,595.0825 Q238.9297,595.0825 238.2449,596.1492 Q237.5601,597.2158 237.5601,599.3159 Q237.5601,601.4077 238.2449,602.4744 Q238.9297,603.541 240.2744,603.541 Q240.9053,603.541 241.4988,603.2712 Q242.0923,603.0015 242.7231,602.4204 Z " fill="#000000"/><text fill="#000000" font-family="sans-serif" font-size="14" lengthAdjust="spacing" textLength="57" x="260.75" y="604.291">Concept</text><line style="stroke:#000000;stroke-width:0.5;" x1="121" x2="425" y1="615" y2="615"/><text fill="#000000" font-family="sans-serif" font-size="14" lengthAdjust="spacing" textLength="294" x="126" y="632.5352">enumeratedInstances : ConceptInstance [*]</text></g></a><!--MD5=[4e242244013ff556631fd27e0a130c99]
class RelationRestrictionAxiom--><a href="#RelationRestrictionAxiom" target="_top" title="#RelationRestrictionAxiom" xlink:actuate="onRequest" xlink:href="#RelationRestrictionAxiom" xlink:show="new" xlink:title="#RelationRestrictionAxiom" xlink:type="simple"><g ><rect codeLine="21" fill="#D3D3D3" height="32"  rx="2.5" ry="2.5" style="stroke:#000000;stroke-width:0.5;" width="206" x="461" y="595"/><ellipse cx="476" cy="611" fill="#A9DCDF" rx="11" ry="11" style="stroke:#181818;stroke-width:1.0;"/><path d="M475.8633,606.3481 L474.7095,611.4199 L477.0254,611.4199 Z M474.3691,604.1069 L477.3657,604.1069 L480.7109,616.5 L478.2622,616.5 L477.4985,613.437 L474.2197,613.437 L473.4727,616.5 L471.0239,616.5 Z " fill="#000000"/><text fill="#000000" font-family="sans-serif" font-size="14" font-style="italic" lengthAdjust="spacing" textLength="174" x="490" y="616.291">RelationRestrictionAxiom</text></g></a><!--MD5=[0a55d74c0dcca380b5c4c14816504637]
class KeyAxiom--><a href="#KeyAxiom" target="_top" title="#KeyAxiom" xlink:actuate="onRequest" xlink:href="#KeyAxiom" xlink:show="new" xlink:title="#KeyAxiom" xlink:type="simple"><g ><rect codeLine="23" fill="#D3D3D3" height="32"  rx="2.5" ry="2.5" style="stroke:#000000;stroke-width:0.5;" width="101" x="712.5" y="595"/><ellipse cx="727.5" cy="611" fill="#ADD1B2" rx="11" ry="11" style="stroke:#181818;stroke-width:1.0;"/><path d="M729.9731,617.1431 Q729.3921,617.4419 728.7529,617.5913 Q728.1138,617.7407 727.4082,617.7407 Q724.9014,617.7407 723.5815,616.0889 Q722.2617,614.437 722.2617,611.3159 Q722.2617,608.1865 723.5815,606.5347 Q724.9014,604.8828 727.4082,604.8828 Q728.1138,604.8828 728.7612,605.0322 Q729.4087,605.1816 729.9731,605.4805 L729.9731,608.2031 Q729.3423,607.6221 728.7488,607.3523 Q728.1553,607.0825 727.5244,607.0825 Q726.1797,607.0825 725.4949,608.1492 Q724.8101,609.2158 724.8101,611.3159 Q724.8101,613.4077 725.4949,614.4744 Q726.1797,615.541 727.5244,615.541 Q728.1553,615.541 728.7488,615.2712 Q729.3423,615.0015 729.9731,614.4204 Z " fill="#000000"/><text fill="#000000" font-family="sans-serif" font-size="14" lengthAdjust="spacing" textLength="69" x="741.5" y="616.291">KeyAxiom</text></g></a><!--MD5=[ef3b7903466650ba5f08061aaf9d23c0]
class EnumeratedScalar--><a href="#EnumeratedScalar" target="_top" title="#EnumeratedScalar" xlink:actuate="onRequest" xlink:href="#EnumeratedScalar" xlink:show="new" xlink:title="#EnumeratedScalar" xlink:type="simple"><g ><rect codeLine="28" fill="#FFFFFF" height="40"  rx="2.5" ry="2.5" style="stroke:#000000;stroke-width:0.5;" width="156" x="1004" y="359"/><ellipse cx="1019" cy="375" fill="#ADD1B2" rx="11" ry="11" style="stroke:#181818;stroke-width:1.0;"/><path d="M1021.4731,381.1431 Q1020.8921,381.4419 1020.2529,381.5913 Q1019.6138,381.7407 1018.9082,381.7407 Q1016.4014,381.7407 1015.0815,380.0889 Q1013.7617,378.437 1013.7617,375.3159 Q1013.7617,372.1865 1015.0815,370.5347 Q1016.4014,368.8828 1018.9082,368.8828 Q1019.6138,368.8828 1020.2612,369.0322 Q1020.9087,369.1816 1021.4731,369.4805 L1021.4731,372.2031 Q1020.8423,371.6221 1020.2488,371.3523 Q1019.6553,371.0825 1019.0244,371.0825 Q1017.6797,371.0825 1016.9949,372.1492 Q1016.3101,373.2158 1016.3101,375.3159 Q1016.3101,377.4077 1016.9949,378.4744 Q1017.6797,379.541 1019.0244,379.541 Q1019.6553,379.541 1020.2488,379.2712 Q1020.8423,379.0015 1021.4731,378.4204 Z " fill="#000000"/><text fill="#000000" font-family="sans-serif" font-size="14" lengthAdjust="spacing" textLength="124" x="1033" y="380.291">EnumeratedScalar</text><line style="stroke:#000000;stroke-width:0.5;" x1="1005" x2="1159" y1="391" y2="391"/></g></a><!--MD5=[27bfdb9e128171e0e365013b6b91e809]
class Literal--><a href="#Literal" target="_top" title="#Literal" xlink:actuate="onRequest" xlink:href="#Literal" xlink:show="new" xlink:title="#Literal" xlink:type="simple"><g ><rect codeLine="47" fill="#D3D3D3" height="32"  rx="2.5" ry="2.5" style="stroke:#000000;stroke-width:0.5;" width="74" x="1252" y="595"/><ellipse cx="1267" cy="611" fill="#A9DCDF" rx="11" ry="11" style="stroke:#181818;stroke-width:1.0;"/><path d="M1266.8633,606.3481 L1265.7095,611.4199 L1268.0254,611.4199 Z M1265.3691,604.1069 L1268.3657,604.1069 L1271.7109,616.5 L1269.2622,616.5 L1268.4985,613.437 L1265.2197,613.437 L1264.4727,616.5 L1262.0239,616.5 Z " fill="#000000"/><text fill="#000000" font-family="sans-serif" font-size="14" font-style="italic" lengthAdjust="spacing" textLength="42" x="1281" y="616.291">Literal</text></g></a><!--MD5=[8df1fea275d58a2acc76681eea45b180]
class Scalar--><a href="#Scalar" target="_top" title="#Scalar" xlink:actuate="onRequest" xlink:href="#Scalar" xlink:show="new" xlink:title="#Scalar" xlink:type="simple"><g ><rect codeLine="72" fill="#FFFFFF" height="40"  rx="2.5" ry="2.5" style="stroke:#000000;stroke-width:0.5;" width="73" x="1045.5" y="201"/><ellipse cx="1060.5" cy="217" fill="#A9DCDF" rx="11" ry="11" style="stroke:#181818;stroke-width:1.0;"/><path d="M1060.3633,212.3481 L1059.2095,217.4199 L1061.5254,217.4199 Z M1058.8691,210.1069 L1061.8657,210.1069 L1065.2109,222.5 L1062.7622,222.5 L1061.9985,219.437 L1058.7197,219.437 L1057.9727,222.5 L1055.5239,222.5 Z " fill="#000000"/><text fill="#000000" font-family="sans-serif" font-size="14" font-style="italic" lengthAdjust="spacing" textLength="41" x="1074.5" y="222.291">Scalar</text><line style="stroke:#000000;stroke-width:0.5;" x1="1046.5" x2="1117.5" y1="233" y2="233"/></g></a><!--MD5=[b457e535d236c428f05afb59cbebeff6]
class FacetedScalar--><a href="#FacetedScalar" target="_top" title="#FacetedScalar" xlink:actuate="onRequest" xlink:href="#FacetedScalar" xlink:show="new" xlink:title="#FacetedScalar" xlink:type="simple"><g ><rect codeLine="34" fill="#FFFFFF" height="122.4414"  rx="2.5" ry="2.5" style="stroke:#000000;stroke-width:0.5;" width="215" x="1195.5" y="318"/><ellipse cx="1251.75" cy="334" fill="#ADD1B2" rx="11" ry="11" style="stroke:#181818;stroke-width:1.0;"/><path d="M1254.2231,340.1431 Q1253.6421,340.4419 1253.0029,340.5913 Q1252.3638,340.7407 1251.6582,340.7407 Q1249.1514,340.7407 1247.8315,339.0889 Q1246.5117,337.437 1246.5117,334.3159 Q1246.5117,331.1865 1247.8315,329.5347 Q1249.1514,327.8828 1251.6582,327.8828 Q1252.3638,327.8828 1253.0112,328.0322 Q1253.6587,328.1816 1254.2231,328.4805 L1254.2231,331.2031 Q1253.5923,330.6221 1252.9988,330.3523 Q1252.4053,330.0825 1251.7744,330.0825 Q1250.4297,330.0825 1249.7449,331.1492 Q1249.0601,332.2158 1249.0601,334.3159 Q1249.0601,336.4077 1249.7449,337.4744 Q1250.4297,338.541 1251.7744,338.541 Q1252.4053,338.541 1252.9988,338.2712 Q1253.5923,338.0015 1254.2231,337.4204 Z " fill="#000000"/><text fill="#000000" font-family="sans-serif" font-size="14" lengthAdjust="spacing" textLength="94" x="1272.25" y="339.291">FacetedScalar</text><line style="stroke:#000000;stroke-width:0.5;" x1="1196.5" x2="1409.5" y1="350" y2="350"/><text fill="#000000" font-family="sans-serif" font-size="14" lengthAdjust="spacing" textLength="170" x="1201.5" y="367.5352">length : UnsignedInteger</text><text fill="#000000" font-family="sans-serif" font-size="14" lengthAdjust="spacing" textLength="199" x="1201.5" y="384.0234">minLength : UnsignedInteger</text><text fill="#000000" font-family="sans-serif" font-size="14" lengthAdjust="spacing" textLength="203" x="1201.5" y="400.5117">maxLength : UnsignedInteger</text><text fill="#000000" font-family="sans-serif" font-size="14" lengthAdjust="spacing" textLength="103" x="1201.5" y="417">pattern : String</text><text fill="#000000" font-family="sans-serif" font-size="14" lengthAdjust="spacing" textLength="117" x="1201.5" y="433.4883">language : String</text></g></a><!--MD5=[aab7500fd9d770c3f442ebfe1c6f0d62]
class RelationEntity--><a href="#RelationEntity" target="_top" title="#RelationEntity" xlink:actuate="onRequest" xlink:href="#RelationEntity" xlink:show="new" xlink:title="#RelationEntity" xlink:type="simple"><g ><rect codeLine="54" fill="#FFFFFF" height="188.3945"  rx="2.5" ry="2.5" style="stroke:#000000;stroke-width:0.5;" width="200" x="849" y="517"/><ellipse cx="897.75" cy="533" fill="#ADD1B2" rx="11" ry="11" style="stroke:#181818;stroke-width:1.0;"/><path d="M900.2231,539.1431 Q899.6421,539.4419 899.0029,539.5913 Q898.3638,539.7407 897.6582,539.7407 Q895.1514,539.7407 893.8315,538.0889 Q892.5117,536.437 892.5117,533.3159 Q892.5117,530.1865 893.8315,528.5347 Q895.1514,526.8828 897.6582,526.8828 Q898.3638,526.8828 899.0112,527.0322 Q899.6587,527.1816 900.2231,527.4805 L900.2231,530.2031 Q899.5923,529.6221 898.9988,529.3523 Q898.4053,529.0825 897.7744,529.0825 Q896.4297,529.0825 895.7449,530.1492 Q895.0601,531.2158 895.0601,533.3159 Q895.0601,535.4077 895.7449,536.4744 Q896.4297,537.541 897.7744,537.541 Q898.4053,537.541 898.9988,537.2712 Q899.5923,537.0015 900.2231,536.4204 Z " fill="#000000"/><text fill="#000000" font-family="sans-serif" font-size="14" lengthAdjust="spacing" textLength="94" x="918.25" y="538.291">RelationEntity</text><line style="stroke:#000000;stroke-width:0.5;" x1="850" x2="1048" y1="549" y2="549"/><text fill="#000000" font-family="sans-serif" font-size="14" lengthAdjust="spacing" textLength="136" x="855" y="566.5352">functional : Boolean</text><text fill="#000000" font-family="sans-serif" font-size="14" lengthAdjust="spacing" textLength="188" x="855" y="583.0234">inverseFunctional : Boolean</text><text fill="#000000" font-family="sans-serif" font-size="14" lengthAdjust="spacing" textLength="137" x="855" y="599.5117">symmetric : Boolean</text><text fill="#000000" font-family="sans-serif" font-size="14" lengthAdjust="spacing" textLength="145" x="855" y="616">asymmetric : Boolean</text><text fill="#000000" font-family="sans-serif" font-size="14" lengthAdjust="spacing" textLength="126" x="855" y="632.4883">reflexive : Boolean</text><text fill="#000000" font-family="sans-serif" font-size="14" lengthAdjust="spacing" textLength="136" x="855" y="648.9766">irreflexive : Boolean</text><text fill="#000000" font-family="sans-serif" font-size="14" lengthAdjust="spacing" textLength="130" x="855" y="665.4648">transitive : Boolean</text><text fill="#000000" font-family="sans-serif" font-size="14" lengthAdjust="spacing" textLength="119" x="855" y="681.9531">source : Entity [1]</text><text fill="#000000" font-family="sans-serif" font-size="14" lengthAdjust="spacing" textLength="114" x="855" y="698.4414">target : Entity [1]</text></g></a><!--MD5=[dc339a869eaac90210cd41e61d476bcb]
class ForwardRelation--><a href="#ForwardRelation" target="_top" title="#ForwardRelation" xlink:actuate="onRequest" xlink:href="#ForwardRelation" xlink:show="new" xlink:title="#ForwardRelation" xlink:type="simple"><g ><rect codeLine="65" fill="#D3D3D3" height="32"  rx="2.5" ry="2.5" style="stroke:#000000;stroke-width:0.5;" width="145" x="787.5" y="782"/><ellipse cx="802.5" cy="798" fill="#ADD1B2" rx="11" ry="11" style="stroke:#181818;stroke-width:1.0;"/><path d="M804.9731,804.1431 Q804.3921,804.4419 803.7529,804.5913 Q803.1138,804.7407 802.4082,804.7407 Q799.9014,804.7407 798.5815,803.0889 Q797.2617,801.437 797.2617,798.3159 Q797.2617,795.1865 798.5815,793.5347 Q799.9014,791.8828 802.4082,791.8828 Q803.1138,791.8828 803.7612,792.0322 Q804.4087,792.1816 804.9731,792.4805 L804.9731,795.2031 Q804.3423,794.6221 803.7488,794.3523 Q803.1553,794.0825 802.5244,794.0825 Q801.1797,794.0825 800.4949,795.1492 Q799.8101,796.2158 799.8101,798.3159 Q799.8101,800.4077 800.4949,801.4744 Q801.1797,802.541 802.5244,802.541 Q803.1553,802.541 803.7488,802.2712 Q804.3423,802.0015 804.9731,801.4204 Z " fill="#000000"/><text fill="#000000" font-family="sans-serif" font-size="14" lengthAdjust="spacing" textLength="113" x="816.5" y="803.291">ForwardRelation</text></g></a><!--MD5=[ea8230de58a0a355a330f3be22216fed]
class ReverseRelation--><a href="#ReverseRelation" target="_top" title="#ReverseRelation" xlink:actuate="onRequest" xlink:href="#ReverseRelation" xlink:show="new" xlink:title="#ReverseRelation" xlink:type="simple"><g ><rect codeLine="67" fill="#D3D3D3" height="32"  rx="2.5" ry="2.5" style="stroke:#000000;stroke-width:0.5;" width="141" x="967.5" y="782"/><ellipse cx="982.5" cy="798" fill="#ADD1B2" rx="11" ry="11" style="stroke:#181818;stroke-width:1.0;"/><path d="M984.9731,804.1431 Q984.3921,804.4419 983.7529,804.5913 Q983.1138,804.7407 982.4082,804.7407 Q979.9014,804.7407 978.5815,803.0889 Q977.2617,801.437 977.2617,798.3159 Q977.2617,795.1865 978.5815,793.5347 Q979.9014,791.8828 982.4082,791.8828 Q983.1138,791.8828 983.7612,792.0322 Q984.4087,792.1816 984.9731,792.4805 L984.9731,795.2031 Q984.3423,794.6221 983.7488,794.3523 Q983.1553,794.0825 982.5244,794.0825 Q981.1797,794.0825 980.4949,795.1492 Q979.8101,796.2158 979.8101,798.3159 Q979.8101,800.4077 980.4949,801.4744 Q981.1797,802.541 982.5244,802.541 Q983.1553,802.541 983.7488,802.2712 Q984.3423,802.0015 984.9731,801.4204 Z " fill="#000000"/><text fill="#000000" font-family="sans-serif" font-size="14" lengthAdjust="spacing" textLength="109" x="996.5" y="803.291">ReverseRelation</text></g></a><!--MD5=[3915787db80ab162e3259f8f86339844]
class Structure--><a href="#Structure" target="_top" title="#Structure" xlink:actuate="onRequest" xlink:href="#Structure" xlink:show="new" xlink:title="#Structure" xlink:type="simple"><g ><rect codeLine="75" fill="#FFFFFF" height="40"  rx="2.5" ry="2.5" style="stroke:#000000;stroke-width:0.5;" width="95" x="873.5" y="359"/><ellipse cx="888.5" cy="375" fill="#ADD1B2" rx="11" ry="11" style="stroke:#181818;stroke-width:1.0;"/><path d="M890.9731,381.1431 Q890.3921,381.4419 889.7529,381.5913 Q889.1138,381.7407 888.4082,381.7407 Q885.9014,381.7407 884.5815,380.0889 Q883.2617,378.437 883.2617,375.3159 Q883.2617,372.1865 884.5815,370.5347 Q885.9014,368.8828 888.4082,368.8828 Q889.1138,368.8828 889.7612,369.0322 Q890.4087,369.1816 890.9731,369.4805 L890.9731,372.2031 Q890.3423,371.6221 889.7488,371.3523 Q889.1553,371.0825 888.5244,371.0825 Q887.1797,371.0825 886.4949,372.1492 Q885.8101,373.2158 885.8101,375.3159 Q885.8101,377.4077 886.4949,378.4744 Q887.1797,379.541 888.5244,379.541 Q889.1553,379.541 889.7488,379.2712 Q890.3423,379.0015 890.9731,378.4204 Z " fill="#000000"/><text fill="#000000" font-family="sans-serif" font-size="14" lengthAdjust="spacing" textLength="63" x="902.5" y="380.291">Structure</text><line style="stroke:#000000;stroke-width:0.5;" x1="874.5" x2="967.5" y1="391" y2="391"/></g></a><!--MD5=[a052ffd04a2a5cd2f202acb632be8a32]
class SpecializableTerm--><a href="#SpecializableTerm" target="_top" title="#SpecializableTerm" xlink:actuate="onRequest" xlink:href="#SpecializableTerm" xlink:show="new" xlink:title="#SpecializableTerm" xlink:type="simple"><g ><rect codeLine="80" fill="#D3D3D3" height="32"  rx="2.5" ry="2.5" style="stroke:#000000;stroke-width:0.5;" width="157" x="826.5" y="7"/><ellipse cx="841.5" cy="23" fill="#A9DCDF" rx="11" ry="11" style="stroke:#181818;stroke-width:1.0;"/><path d="M841.3633,18.3481 L840.2095,23.4199 L842.5254,23.4199 Z M839.8691,16.1069 L842.8657,16.1069 L846.2109,28.5 L843.7622,28.5 L842.9985,25.437 L839.7197,25.437 L838.9727,28.5 L836.5239,28.5 Z " fill="#000000"/><text fill="#000000" font-family="sans-serif" font-size="14" font-style="italic" lengthAdjust="spacing" textLength="125" x="855.5" y="28.291">SpecializableTerm</text></g></a><!--MD5=[0abf851eea2009ab8e245bc302625de3]
reverse link Entity to Aspect--><g ><a href="#Entity" target="_top" title="#Entity" xlink:actuate="onRequest" xlink:href="#Entity" xlink:show="new" xlink:title="#Entity" xlink:type="simple"><path codeLine="8" d="M497.39,384.18 C405.48,393.59 222.04,423.54 102,517 C77.31,536.22 61.1,569.62 52.74,590.73 " fill="none"  style="stroke:#000000;stroke-width:1.0;"/><polygon fill="none" points="496.62,377.22,517.18,382.35,497.91,391.16,496.62,377.22" style="stroke:#000000;stroke-width:1.0;"/></a></g><!--MD5=[0d3949cae1fd8482e1cbd479cbe08885]
reverse link Type to Classifier--><g ><a href="#Type" target="_top" title="#Type" xlink:actuate="onRequest" xlink:href="#Type" xlink:show="new" xlink:title="#Type" xlink:type="simple"><path codeLine="13" d="M876.42,156.37 C864.37,171.28 850.82,188.05 840.65,200.63 " fill="none"  style="stroke:#000000;stroke-width:1.0;"/><polygon fill="none" points="870.61,152.42,888.62,141.27,881.5,161.22,870.61,152.42" style="stroke:#000000;stroke-width:1.0;"/></a></g><!--MD5=[f7ce2e3c3abb92329d246d3e7650ce51]
link Classifier to PropertyRestrictionAxiom--><g ><path codeLine="14" d="M764.5008,237.186 C764.5008,237.186 730.83,255.51 721,271 C706.28,294.21 710.87,326.24 717.39,349.2 " fill="none"  style="stroke:#000000;stroke-width:1.0;"/><polygon fill="#000000" points="721.31,361.35,722.3574,351.557,719.7768,356.5909,714.7429,354.0102,721.31,361.35" style="stroke:#000000;stroke-width:1.0;"/><line style="stroke:#000000;stroke-width:1.0;" x1="719.7768" x2="717.32" y1="356.5909" y2="348.975"/><polygon fill="#000000" points="775.69,232.85,768.65,231.2883,764.5008,237.186,771.5407,238.7477,775.69,232.85" style="stroke:#000000;stroke-width:1.0;"/><text fill="#000000" font-family="sans-serif" font-size="13" lengthAdjust="spacing" textLength="168" x="722" y="284.5684">ownedPropertyRestrictions</text><text fill="#000000" font-family="sans-serif" font-size="13" lengthAdjust="spacing" textLength="6" x="712.5972" y="352.2614">*</text></g><!--MD5=[ce0521f33bac9a60c2dc1cddde561f51]
reverse link Entity to Concept--><g ><a href="#Entity" target="_top" title="#Entity" xlink:actuate="onRequest" xlink:href="#Entity" xlink:show="new" xlink:title="#Entity" xlink:type="simple"><path codeLine="18" d="M514.13,412.64 C458.45,458.21 358.43,540.07 306.44,582.63 " fill="none"  style="stroke:#000000;stroke-width:1.0;"/><polygon fill="none" points="509.44,407.42,529.35,400.17,518.31,418.26,509.44,407.42" style="stroke:#000000;stroke-width:1.0;"/></a></g><!--MD5=[7a97ffb6ab9ea2c0361d9098f8e56954]
reverse link Classifier to Entity--><g ><a href="#Classifier" target="_top" title="#Classifier" xlink:actuate="onRequest" xlink:href="#Classifier" xlink:show="new" xlink:title="#Classifier" xlink:type="simple"><path codeLine="25" d="M757.04,242.55 C711.43,258.46 651.6,283.61 606,318 C590.92,329.37 577.09,345.75 567.49,358.53 " fill="none"  style="stroke:#000000;stroke-width:1.0;"/><polygon fill="none" points="754.58,235.99,775.77,236.27,759.03,249.26,754.58,235.99" style="stroke:#000000;stroke-width:1.0;"/></a></g><!--MD5=[e398db1197e6c5bdd946960046feaa11]
link Entity to RelationRestrictionAxiom--><g ><path codeLine="26" d="M552.6351,412.8106 C552.6351,412.8106 551.31,451.33 551,470 C550.87,477.55 550.6,479.45 551,487 C552.69,518.99 556.82,555.47 559.98,580.34 " fill="none"  style="stroke:#000000;stroke-width:1.0;"/><polygon fill="#000000" points="561.64,593.01,564.4388,583.5672,560.9914,588.0522,556.5064,584.6049,561.64,593.01" style="stroke:#000000;stroke-width:1.0;"/><line style="stroke:#000000;stroke-width:1.0;" x1="560.9914" x2="559.95" y1="588.0522" y2="580.12"/><polygon fill="#000000" points="553.11,400.82,548.8757,406.657,552.6351,412.8106,556.8694,406.9736,553.11,400.82" style="stroke:#000000;stroke-width:1.0;"/><text fill="#000000" font-family="sans-serif" font-size="13" lengthAdjust="spacing" textLength="167" x="552" y="483.5684">ownedRelationRestrictions</text><text fill="#000000" font-family="sans-serif" font-size="13" lengthAdjust="spacing" textLength="6" x="554.1174" y="584.1831">*</text></g><!--MD5=[db23ab7cdfc400530cdecb4e86d3af31]
link Entity to KeyAxiom--><g ><path codeLine="27" d="M574.1352,410.0911 C574.1352,410.0911 593.98,432.58 606,440 C652.05,468.41 685.3,432.17 724,470 C753.79,499.12 761.38,548.91 763.01,580.6 " fill="none"  style="stroke:#000000;stroke-width:1.0;"/><polygon fill="#000000" points="763.36,593.41,767.1113,584.3035,763.2227,588.4119,759.1143,584.5232,763.36,593.41" style="stroke:#000000;stroke-width:1.0;"/><line style="stroke:#000000;stroke-width:1.0;" x1="763.2227" x2="763" y1="588.4119" y2="580.415"/><polygon fill="#000000" points="566.95,400.48,567.3389,407.6806,574.1352,410.0911,573.7463,402.8905,566.95,400.48" style="stroke:#000000;stroke-width:1.0;"/><text fill="#000000" font-family="sans-serif" font-size="13" lengthAdjust="spacing" textLength="70" x="738" y="483.5684">ownedKeys</text><text fill="#000000" font-family="sans-serif" font-size="13" lengthAdjust="spacing" textLength="6" x="756.4738" y="584.1433">*</text></g><!--MD5=[d34601941b18db560d39ba6cfde1f444]
reverse link Scalar to EnumeratedScalar--><g ><a href="#Scalar" target="_top" title="#Scalar" xlink:actuate="onRequest" xlink:href="#Scalar" xlink:show="new" xlink:title="#Scalar" xlink:type="simple"><path codeLine="32" d="M1082,262.68 C1082,293.68 1082,334.97 1082,358.8 " fill="none"  style="stroke:#000000;stroke-width:1.0;"/><polygon fill="none" points="1075,262.96,1082,242.96,1089,262.96,1075,262.96" style="stroke:#000000;stroke-width:1.0;"/></a></g><!--MD5=[587999de1a2f7ed3d8db6eeb8c6ecc99]
link EnumeratedScalar to Literal--><g ><path codeLine="33" d="M1083.12,412.9484 C1083.12,412.9484 1091.24,465.42 1106,487 C1138.76,534.9 1196.89,569.2 1238.86,589.21 " fill="none"  style="stroke:#000000;stroke-width:1.0;"/><polygon fill="#000000" points="1250.49,594.57,1243.9929,587.1681,1245.9497,592.4758,1240.6421,594.4326,1250.49,594.57" style="stroke:#000000;stroke-width:1.0;"/><line style="stroke:#000000;stroke-width:1.0;" x1="1245.9497" x2="1238.685" y1="592.4758" y2="589.13"/><polygon fill="#000000" points="1082.25,400.98,1078.6955,407.2542,1083.12,412.9484,1086.6745,406.6742,1082.25,400.98" style="stroke:#000000;stroke-width:1.0;"/><text fill="#000000" font-family="sans-serif" font-size="13" lengthAdjust="spacing" textLength="43" x="1107" y="483.5684">literals</text><text fill="#000000" font-family="sans-serif" font-size="13" lengthAdjust="spacing" textLength="6" x="1237.9574" y="588.2237">*</text></g><!--MD5=[972544b9b2216cb60217d4d5ecdc7cf9]
reverse link Scalar to FacetedScalar--><g ><a href="#Scalar" target="_top" title="#Scalar" xlink:actuate="onRequest" xlink:href="#Scalar" xlink:show="new" xlink:title="#Scalar" xlink:type="simple"><path codeLine="49" d="M1127.05,253.8 C1153.15,272.22 1186.86,296.02 1217.78,317.84 " fill="none"  style="stroke:#000000;stroke-width:1.0;"/><polygon fill="none" points="1123.08,259.57,1110.78,242.31,1131.16,248.13,1123.08,259.57" style="stroke:#000000;stroke-width:1.0;"/></a></g><!--MD5=[ac888ded481ed088dd1064eafc8a628d]
link FacetedScalar to Literal--><g ><path codeLine="50" d="M1185.1988,442.2255 C1185.1988,442.2255 1169.41,460.06 1164,470 C1138.23,517.39 1198.06,562.03 1243.56,587.67 " fill="none"  style="stroke:#000000;stroke-width:1.0;"/><polygon fill="#000000" points="1254.89,593.81,1248.879,586.0082,1250.4928,591.43,1245.071,593.0438,1254.89,593.81" style="stroke:#000000;stroke-width:1.0;"/><line style="stroke:#000000;stroke-width:1.0;" x1="1250.4928" x2="1243.465" y1="591.43" y2="587.61"/><polygon fill="#000000" points="1194.02,434.09,1186.8976,435.2174,1185.1988,442.2255,1192.3213,441.0982,1194.02,434.09" style="stroke:#000000;stroke-width:1.0;"/><text fill="#000000" font-family="sans-serif" font-size="13" lengthAdjust="spacing" textLength="80" x="1165" y="483.5684">minInclusive</text><text fill="#000000" font-family="sans-serif" font-size="13" lengthAdjust="spacing" textLength="24" x="1249.3366" y="584.2097">0..1</text></g><!--MD5=[ac888ded481ed088dd1064eafc8a628d]
link FacetedScalar to Literal--><g ><path codeLine="51" d="M1287.9464,453.6491 C1287.9464,453.6491 1286.48,464.87 1286,470 C1282.44,508.01 1284.38,552.08 1286.41,580.46 " fill="none"  style="stroke:#000000;stroke-width:1.0;"/><polygon fill="#000000" points="1287.42,593.33,1290.7062,584.0456,1287.0302,588.3452,1282.7306,584.6692,1287.42,593.33" style="stroke:#000000;stroke-width:1.0;"/><line style="stroke:#000000;stroke-width:1.0;" x1="1287.0302" x2="1286.4" y1="588.3452" y2="580.365"/><polygon fill="#000000" points="1289.78,441.79,1284.9102,447.1083,1287.9464,453.6491,1292.8162,448.3307,1289.78,441.79" style="stroke:#000000;stroke-width:1.0;"/><text fill="#000000" font-family="sans-serif" font-size="13" lengthAdjust="spacing" textLength="83" x="1287" y="483.5684">minExclusive</text><text fill="#000000" font-family="sans-serif" font-size="13" lengthAdjust="spacing" textLength="24" x="1291.1631" y="584.3286">0..1</text></g><!--MD5=[ac888ded481ed088dd1064eafc8a628d]
link FacetedScalar to Literal--><g ><path codeLine="52" d="M1373.1671,452.4162 C1373.1671,452.4162 1378.63,475.46 1375,487 C1363.15,524.63 1335.23,560.78 1314.4,584.03 " fill="none"  style="stroke:#000000;stroke-width:1.0;"/><polygon fill="#000000" points="1305.59,593.55,1314.6381,589.66,1308.9855,589.8798,1308.7657,584.2272,1305.59,593.55" style="stroke:#000000;stroke-width:1.0;"/><line style="stroke:#000000;stroke-width:1.0;" x1="1308.9855" x2="1314.42" y1="589.8798" y2="584.01"/><polygon fill="#000000" points="1367.97,441.6,1366.9631,448.7405,1373.1671,452.4162,1374.1739,445.2758,1367.97,441.6" style="stroke:#000000;stroke-width:1.0;"/><text fill="#000000" font-family="sans-serif" font-size="13" lengthAdjust="spacing" textLength="83" x="1379" y="483.5684">maxInclusive</text><text fill="#000000" font-family="sans-serif" font-size="13" lengthAdjust="spacing" textLength="24" x="1313.6893" y="584.3828">0..1</text></g><!--MD5=[ac888ded481ed088dd1064eafc8a628d]
link FacetedScalar to Literal--><g ><path codeLine="53" d="M1423.2656,412.4925 C1423.2656,412.4925 1488.56,453.94 1471,487 C1443.42,538.93 1383.04,572.92 1339.38,591.75 " fill="none"  style="stroke:#000000;stroke-width:1.0;"/><polygon fill="#000000" points="1327.54,596.64,1337.3856,596.8949,1332.1601,594.7282,1334.3267,589.5028,1327.54,596.64" style="stroke:#000000;stroke-width:1.0;"/><line style="stroke:#000000;stroke-width:1.0;" x1="1332.1601" x2="1339.55" y1="594.7282" y2="591.675"/><polygon fill="#000000" points="1412.2,407.85,1416.1853,413.8598,1423.2656,412.4925,1419.2803,406.4827,1412.2,407.85" style="stroke:#000000;stroke-width:1.0;"/><text fill="#000000" font-family="sans-serif" font-size="13" lengthAdjust="spacing" textLength="86" x="1477" y="483.5684">maxExclusive</text><text fill="#000000" font-family="sans-serif" font-size="13" lengthAdjust="spacing" textLength="24" x="1333.9717" y="608.8122">0..1</text></g><!--MD5=[769665a087eec7164dd7e62a839028f3]
reverse link Entity to RelationEntity--><g ><a href="#Entity" target="_top" title="#Entity" xlink:actuate="onRequest" xlink:href="#Entity" xlink:show="new" xlink:title="#Entity" xlink:type="simple"><path codeLine="69" d="M578.26,416.37 C586.06,425.47 595.45,434.25 606,440 C689.17,485.33 732.9,426.43 817,470 C839.39,481.6 860.06,498.54 878.07,516.65 " fill="none"  style="stroke:#000000;stroke-width:1.0;"/><polygon fill="none" points="572.7,420.63,566.25,400.45,583.88,412.2,572.7,420.63" style="stroke:#000000;stroke-width:1.0;"/></a></g><!--MD5=[a5fb297f76ff2e75ae61d7928a3e9c9c]
link RelationEntity to ForwardRelation--><g ><path codeLine="70" d="M898.2529,717.4962 C898.2529,717.4962 880.38,754.63 873.64,768.64 " fill="none"  style="stroke:#000000;stroke-width:1.0;"/><polygon fill="#000000" points="868.01,780.35,875.5195,773.9776,870.1799,775.8454,868.3121,770.5058,868.01,780.35" style="stroke:#000000;stroke-width:1.0;"/><line style="stroke:#000000;stroke-width:1.0;" x1="870.1799" x2="873.65" y1="775.8454" y2="768.635"/><polygon fill="#000000" points="903.45,706.68,897.2461,710.3558,898.2529,717.4962,904.4569,713.8205,903.45,706.68" style="stroke:#000000;stroke-width:1.0;"/><text fill="#000000" font-family="sans-serif" font-size="13" lengthAdjust="spacing" textLength="99" x="890" y="748.5684">forwardRelation</text><text fill="#000000" font-family="sans-serif" font-size="13" lengthAdjust="spacing" textLength="24" x="841.7516" y="771.1539">0..1</text></g><!--MD5=[473be8f3a13b95f4854ae12e37866249]
link RelationEntity to ReverseRelation--><g ><path codeLine="71" d="M999.7471,717.4962 C999.7471,717.4962 1017.62,754.63 1024.36,768.64 " fill="none"  style="stroke:#000000;stroke-width:1.0;"/><polygon fill="#000000" points="1029.99,780.35,1029.6879,770.5058,1027.8201,775.8454,1022.4805,773.9776,1029.99,780.35" style="stroke:#000000;stroke-width:1.0;"/><line style="stroke:#000000;stroke-width:1.0;" x1="1027.8201" x2="1024.35" y1="775.8454" y2="768.635"/><polygon fill="#000000" points="994.55,706.68,993.5431,713.8205,999.7471,717.4962,1000.7539,710.3558,994.55,706.68" style="stroke:#000000;stroke-width:1.0;"/><text fill="#000000" font-family="sans-serif" font-size="13" lengthAdjust="spacing" textLength="96" x="1016" y="748.5684">reverseRelation</text><text fill="#000000" font-family="sans-serif" font-size="13" lengthAdjust="spacing" textLength="24" x="999.9984" y="771.1539">0..1</text></g><!--MD5=[8a7fe0c796e206ec2d738c1808358d2f]
reverse link Type to Scalar--><g ><a href="#Type" target="_top" title="#Type" xlink:actuate="onRequest" xlink:href="#Type" xlink:show="new" xlink:title="#Type" xlink:type="simple"><path codeLine="74" d="M956.37,149.73 C985.54,166.05 1021.29,186.04 1047.18,200.52 " fill="none"  style="stroke:#000000;stroke-width:1.0;"/><polygon fill="none" points="953.24,156,939.2,140.13,960.07,143.78,953.24,156" style="stroke:#000000;stroke-width:1.0;"/></a></g><!--MD5=[922d876f033ed0737806170cbb54f612]
reverse link Classifier to Structure--><g ><a href="#Classifier" target="_top" title="#Classifier" xlink:actuate="onRequest" xlink:href="#Classifier" xlink:show="new" xlink:title="#Classifier" xlink:type="simple"><path codeLine="77" d="M883.62,254.04 C889.46,259.09 894.77,264.75 899,271 C916.95,297.55 920.79,335.68 921.32,358.53 " fill="none"  style="stroke:#000000;stroke-width:1.0;"/><polygon fill="none" points="879.52,259.71,867.49,242.27,887.77,248.4,879.52,259.71" style="stroke:#000000;stroke-width:1.0;"/></a></g><!--MD5=[390e593eb08e5c364c6f56fa2b328cb9]
reverse link SpecializableTerm to Type--><g ><a href="#SpecializableTerm" target="_top" title="#SpecializableTerm" xlink:actuate="onRequest" xlink:href="#SpecializableTerm" xlink:show="new" xlink:title="#SpecializableTerm" xlink:type="simple"><path codeLine="82" d="M905,60.46 C905,73.88 905,88.54 905,99.84 " fill="none"  style="stroke:#000000;stroke-width:1.0;"/><polygon fill="none" points="898,60.78,905,40.78,912,60.78,898,60.78" style="stroke:#000000;stroke-width:1.0;"/></a></g><!--MD5=[45736aa6a9ca0d30f417644e9ac1b2fa]
@startuml
skinparam classBackgroundColor LightGray
skinparam classBorderColor Black
skinparam enumBorderColor Black
skinparam ArrowColor Black
hide methods
class Aspect [[#Aspect]] #white {
}
Aspect -up-|> Entity [[#Entity]]
abstract class Classifier [[#Classifier]] #white {
}
abstract class PropertyRestrictionAxiom [[#PropertyRestrictionAxiom]]
hide PropertyRestrictionAxiom members
Classifier -up-|> Type [[#Type]]
Classifier *- -> "*" PropertyRestrictionAxiom : ownedPropertyRestrictions
class Concept [[#Concept]] #white {
	enumeratedInstances : ConceptInstance [*]
}
Concept -up-|> Entity [[#Entity]]
abstract class Entity [[#Entity]] #white {
}
abstract class RelationRestrictionAxiom [[#RelationRestrictionAxiom]]
hide RelationRestrictionAxiom members
class KeyAxiom [[#KeyAxiom]]
hide KeyAxiom members
Entity -up-|> Classifier [[#Classifier]]
Entity *- -> "*" RelationRestrictionAxiom : ownedRelationRestrictions
Entity *- -> "*" KeyAxiom : ownedKeys
class EnumeratedScalar [[#EnumeratedScalar]] #white {
}
abstract class Literal [[#Literal]]
hide Literal members
EnumeratedScalar -up-|> Scalar [[#Scalar]]
EnumeratedScalar *- -> "*" Literal : literals
class FacetedScalar [[#FacetedScalar]] #white {
	length : UnsignedInteger
	minLength : UnsignedInteger
	maxLength : UnsignedInteger
	pattern : String
	language : String
}
abstract class Literal [[#Literal]]
hide Literal members
abstract class Literal [[#Literal]]
hide Literal members
abstract class Literal [[#Literal]]
hide Literal members
abstract class Literal [[#Literal]]
hide Literal members
FacetedScalar -up-|> Scalar [[#Scalar]]
FacetedScalar *- -> "0..1" Literal : minInclusive
FacetedScalar *- -> "0..1" Literal : minExclusive
FacetedScalar *- -> "0..1" Literal : maxInclusive
FacetedScalar *- -> "0..1" Literal : maxExclusive
class RelationEntity [[#RelationEntity]] #white {
	functional : Boolean
	inverseFunctional : Boolean
	symmetric : Boolean
	asymmetric : Boolean
	reflexive : Boolean
	irreflexive : Boolean
	transitive : Boolean
	source : Entity [1]
	target : Entity [1]
}
class ForwardRelation [[#ForwardRelation]]
hide ForwardRelation members
class ReverseRelation [[#ReverseRelation]]
hide ReverseRelation members
RelationEntity -up-|> Entity [[#Entity]]
RelationEntity *- -> "0..1" ForwardRelation : forwardRelation
RelationEntity *- -> "0..1" ReverseRelation : reverseRelation
abstract class Scalar [[#Scalar]] #white {
}
Scalar -up-|> Type [[#Type]]
class Structure [[#Structure]] #white {
}
Structure -up-|> Classifier [[#Classifier]]
abstract class Type [[#Type]] #white {
}
abstract class SpecializableTerm [[#SpecializableTerm]]
hide SpecializableTerm members
Type -up-|> SpecializableTerm [[#SpecializableTerm]]
@enduml

PlantUML version 1.2022.12(Sun Oct 23 11:12:26 PDT 2022)
(GPL source distribution)
Java Runtime: OpenJDK Runtime Environment
JVM: OpenJDK 64-Bit Server VM
Default Encoding: UTF-8
Language: en
Country: US
--></g></svg>
