<?xml version="1.0" encoding="UTF-8" standalone="no"?><svg xmlns="http://www.w3.org/2000/svg" xmlns:xlink="http://www.w3.org/1999/xlink" contentStyleType="text/css" height="519px" preserveAspectRatio="none" style="width:830px;height:519px;background:#FFFFFF;" version="1.1" viewBox="0 0 830 519" width="830px" zoomAndPan="magnify"><defs/><g><!--MD5=[e1c3715559a2edda762ca815942f74af]
class AnnotatedElement--><a href="#AnnotatedElement" target="_top" title="#AnnotatedElement" xlink:actuate="onRequest" xlink:href="#AnnotatedElement" xlink:show="new" xlink:title="#AnnotatedElement" xlink:type="simple"><g ><rect codeLine="6" fill="#FFFFFF" height="40"  rx="2.5" ry="2.5" style="stroke:#000000;stroke-width:0.5;" width="161" x="248" y="141"/><ellipse cx="263" cy="157" fill="#A9DCDF" rx="11" ry="11" style="stroke:#181818;stroke-width:1.0;"/><path d="M263.1094,152.3438 L261.9531,157.4219 L264.2813,157.4219 L263.1094,152.3438 Z M261.625,150.1094 L264.6094,150.1094 L267.9688,162.5 L265.5156,162.5 L264.75,159.4375 L261.4688,159.4375 L260.7188,162.5 L258.2813,162.5 L261.625,150.1094 Z " fill="#000000"/><text fill="#000000" font-family="sans-serif" font-size="14" font-style="italic" lengthAdjust="spacing" textLength="129" x="277" y="161.8467">AnnotatedElement</text><line style="stroke:#000000;stroke-width:0.5;" x1="249" x2="408" y1="173" y2="173"/></g></a><!--MD5=[95174e42ee347a14b6cb78d6855f19b5]
class Element--><a href="#Element" target="_top" title="#Element" xlink:actuate="onRequest" xlink:href="#Element" xlink:show="new" xlink:title="#Element" xlink:type="simple"><g ><rect codeLine="20" fill="#FFFFFF" height="40"  rx="2.5" ry="2.5" style="stroke:#000000;stroke-width:0.5;" width="89" x="284" y="23.5"/><ellipse cx="299" cy="39.5" fill="#A9DCDF" rx="11" ry="11" style="stroke:#181818;stroke-width:1.0;"/><path d="M299.1094,34.8438 L297.9531,39.9219 L300.2813,39.9219 L299.1094,34.8438 Z M297.625,32.6094 L300.6094,32.6094 L303.9688,45 L301.5156,45 L300.75,41.9375 L297.4688,41.9375 L296.7188,45 L294.2813,45 L297.625,32.6094 Z " fill="#000000"/><text fill="#000000" font-family="sans-serif" font-size="14" font-style="italic" lengthAdjust="spacing" textLength="57" x="313" y="44.3467">Element</text><line style="stroke:#000000;stroke-width:0.5;" x1="285" x2="372" y1="55.5" y2="55.5"/></g></a><!--MD5=[faebc81c07309c527f2fda51bf6b78ab]
class Annotation--><a href="#Annotation" target="_top" title="#Annotation" xlink:actuate="onRequest" xlink:href="#Annotation" xlink:show="new" xlink:title="#Annotation" xlink:type="simple"><g ><rect codeLine="10" fill="#FFFFFF" height="105.1875"  rx="2.5" ry="2.5" style="stroke:#000000;stroke-width:0.5;" width="301" x="7" y="258"/><ellipse cx="115.75" cy="274" fill="#ADD1B2" rx="11" ry="11" style="stroke:#181818;stroke-width:1.0;"/><path d="M118.7188,279.6406 Q118.1406,279.9375 117.5,280.0781 Q116.8594,280.2344 116.1563,280.2344 Q113.6563,280.2344 112.3281,278.5938 Q111.0156,276.9375 111.0156,273.8125 Q111.0156,270.6875 112.3281,269.0313 Q113.6563,267.375 116.1563,267.375 Q116.8594,267.375 117.5,267.5313 Q118.1563,267.6875 118.7188,267.9844 L118.7188,270.7031 Q118.0938,270.125 117.5,269.8594 Q116.9063,269.5781 116.2813,269.5781 Q114.9375,269.5781 114.25,270.6563 Q113.5625,271.7188 113.5625,273.8125 Q113.5625,275.9063 114.25,276.9844 Q114.9375,278.0469 116.2813,278.0469 Q116.9063,278.0469 117.5,277.7813 Q118.0938,277.5 118.7188,276.9219 L118.7188,279.6406 Z " fill="#000000"/><text fill="#000000" font-family="sans-serif" font-size="14" lengthAdjust="spacing" textLength="75" x="136.25" y="278.8467">Annotation</text><line style="stroke:#000000;stroke-width:0.5;" x1="8" x2="307" y1="290" y2="290"/><text fill="#000000" font-family="sans-serif" font-size="14" lengthAdjust="spacing" textLength="227" x="13" y="306.9951">property : AnnotationProperty [1]</text><text fill="#000000" font-family="sans-serif" font-size="14" lengthAdjust="spacing" textLength="215" x="13" y="323.292">referenceValue : Member [0..1]</text><text fill="#000000" font-family="sans-serif" font-size="14" lengthAdjust="spacing" textLength="289" x="13" y="339.5889">owningElement : AnnotatedElement [0..1]</text><text fill="#000000" font-family="sans-serif" font-size="14" lengthAdjust="spacing" textLength="247" x="13" y="355.8857">owningReference : Reference [0..1]</text></g></a><!--MD5=[27bfdb9e128171e0e365013b6b91e809]
class Literal--><a href="#Literal" target="_top" title="#Literal" xlink:actuate="onRequest" xlink:href="#Literal" xlink:show="new" xlink:title="#Literal" xlink:type="simple"><g ><rect codeLine="16" fill="#D3D3D3" height="32"  rx="2.5" ry="2.5" style="stroke:#000000;stroke-width:0.5;" width="72" x="121.5" y="460.5"/><ellipse cx="136.5" cy="476.5" fill="#A9DCDF" rx="11" ry="11" style="stroke:#181818;stroke-width:1.0;"/><path d="M136.6094,471.8438 L135.4531,476.9219 L137.7813,476.9219 L136.6094,471.8438 Z M135.125,469.6094 L138.1094,469.6094 L141.4688,482 L139.0156,482 L138.25,478.9375 L134.9688,478.9375 L134.2188,482 L131.7813,482 L135.125,469.6094 Z " fill="#000000"/><text fill="#000000" font-family="sans-serif" font-size="14" font-style="italic" lengthAdjust="spacing" textLength="40" x="150.5" y="481.3467">Literal</text></g></a><!--MD5=[251ec3a4a9cd3bf00caf27dd200c2db9]
class IdentifiedElement--><a href="#IdentifiedElement" target="_top" title="#IdentifiedElement" xlink:actuate="onRequest" xlink:href="#IdentifiedElement" xlink:show="new" xlink:title="#IdentifiedElement" xlink:type="simple"><g ><rect codeLine="22" fill="#FFFFFF" height="40"  rx="2.5" ry="2.5" style="stroke:#000000;stroke-width:0.5;" width="152" x="566.5" y="290.5"/><ellipse cx="581.5" cy="306.5" fill="#A9DCDF" rx="11" ry="11" style="stroke:#181818;stroke-width:1.0;"/><path d="M581.6094,301.8438 L580.4531,306.9219 L582.7813,306.9219 L581.6094,301.8438 Z M580.125,299.6094 L583.1094,299.6094 L586.4688,312 L584.0156,312 L583.25,308.9375 L579.9688,308.9375 L579.2188,312 L576.7813,312 L580.125,299.6094 Z " fill="#000000"/><text fill="#000000" font-family="sans-serif" font-size="14" font-style="italic" lengthAdjust="spacing" textLength="120" x="595.5" y="311.3467">IdentifiedElement</text><line style="stroke:#000000;stroke-width:0.5;" x1="567.5" x2="717.5" y1="322.5" y2="322.5"/></g></a><!--MD5=[f9bb3094b6d6f786926c56d9e97ecd1b]
class Import--><a href="#Import" target="_top" title="#Import" xlink:actuate="onRequest" xlink:href="#Import" xlink:show="new" xlink:title="#Import" xlink:type="simple"><g ><rect codeLine="25" fill="#FFFFFF" height="72.5938"  rx="2.5" ry="2.5" style="stroke:#000000;stroke-width:0.5;" width="188" x="343.5" y="274"/><ellipse cx="411.25" cy="290" fill="#A9DCDF" rx="11" ry="11" style="stroke:#181818;stroke-width:1.0;"/><path d="M411.3594,285.3438 L410.2031,290.4219 L412.5313,290.4219 L411.3594,285.3438 Z M409.875,283.1094 L412.8594,283.1094 L416.2188,295.5 L413.7656,295.5 L413,292.4375 L409.7188,292.4375 L408.9688,295.5 L406.5313,295.5 L409.875,283.1094 Z " fill="#000000"/><text fill="#000000" font-family="sans-serif" font-size="14" font-style="italic" lengthAdjust="spacing" textLength="44" x="431.75" y="294.8467">Import</text><line style="stroke:#000000;stroke-width:0.5;" x1="344.5" x2="530.5" y1="306" y2="306"/><text fill="#000000" font-family="sans-serif" font-size="14" lengthAdjust="spacing" textLength="176" x="349.5" y="322.9951">namespace : Namespace</text><text fill="#000000" font-family="sans-serif" font-size="14" lengthAdjust="spacing" textLength="64" x="349.5" y="339.292">prefix : ID</text></g></a><!--MD5=[f58fd777f29c17413488bea9e7cfcca3]
class Member--><a href="#Member" target="_top" title="#Member" xlink:actuate="onRequest" xlink:href="#Member" xlink:show="new" xlink:title="#Member" xlink:type="simple"><g ><rect codeLine="30" fill="#FFFFFF" height="56.2969"  rx="2.5" ry="2.5" style="stroke:#000000;stroke-width:0.5;" width="89" x="511" y="448.5"/><ellipse cx="526" cy="464.5" fill="#A9DCDF" rx="11" ry="11" style="stroke:#181818;stroke-width:1.0;"/><path d="M526.1094,459.8438 L524.9531,464.9219 L527.2813,464.9219 L526.1094,459.8438 Z M524.625,457.6094 L527.6094,457.6094 L530.9688,470 L528.5156,470 L527.75,466.9375 L524.4688,466.9375 L523.7188,470 L521.2813,470 L524.625,457.6094 Z " fill="#000000"/><text fill="#000000" font-family="sans-serif" font-size="14" font-style="italic" lengthAdjust="spacing" textLength="57" x="540" y="469.3467">Member</text><line style="stroke:#000000;stroke-width:0.5;" x1="512" x2="599" y1="480.5" y2="480.5"/><text fill="#000000" font-family="sans-serif" font-size="14" lengthAdjust="spacing" textLength="66" x="517" y="497.4951">name : ID</text></g></a><!--MD5=[5dfd8d6a6d713da886d1ef2bfe78f203]
class Ontology--><a href="#Ontology" target="_top" title="#Ontology" xlink:actuate="onRequest" xlink:href="#Ontology" xlink:show="new" xlink:title="#Ontology" xlink:type="simple"><g ><rect codeLine="34" fill="#FFFFFF" height="72.5938"  rx="2.5" ry="2.5" style="stroke:#000000;stroke-width:0.5;" width="188" x="635.5" y="440"/><ellipse cx="694.25" cy="456" fill="#A9DCDF" rx="11" ry="11" style="stroke:#181818;stroke-width:1.0;"/><path d="M694.3594,451.3438 L693.2031,456.4219 L695.5313,456.4219 L694.3594,451.3438 Z M692.875,449.1094 L695.8594,449.1094 L699.2188,461.5 L696.7656,461.5 L696,458.4375 L692.7188,458.4375 L691.9688,461.5 L689.5313,461.5 L692.875,449.1094 Z " fill="#000000"/><text fill="#000000" font-family="sans-serif" font-size="14" font-style="italic" lengthAdjust="spacing" textLength="62" x="714.75" y="460.8467">Ontology</text><line style="stroke:#000000;stroke-width:0.5;" x1="636.5" x2="822.5" y1="472" y2="472"/><text fill="#000000" font-family="sans-serif" font-size="14" lengthAdjust="spacing" textLength="176" x="641.5" y="488.9951">namespace : Namespace</text><text fill="#000000" font-family="sans-serif" font-size="14" lengthAdjust="spacing" textLength="64" x="641.5" y="505.292">prefix : ID</text></g></a><!--MD5=[4cdd8bb3602eda9dc01b2a794c230a31]
class SeparatorKind--><a href="#SeparatorKind" target="_top" title="#SeparatorKind" xlink:actuate="onRequest" xlink:href="#SeparatorKind" xlink:show="new" xlink:title="#SeparatorKind" xlink:type="simple"><g ><rect codeLine="39" fill="#FFFFFF" height="72.5938"  rx="2.5" ry="2.5" style="stroke:#000000;stroke-width:0.5;" width="129" x="408" y="7"/><ellipse cx="423" cy="23" fill="#EB937F" rx="11" ry="11" style="stroke:#181818;stroke-width:1.0;"/><path d="M427.1094,29 L419.3906,29 L419.3906,16.6094 L427.1094,16.6094 L427.1094,18.7656 L421.8438,18.7656 L421.8438,21.4375 L426.6094,21.4375 L426.6094,23.5938 L421.8438,23.5938 L421.8438,26.8438 L427.1094,26.8438 L427.1094,29 Z " fill="#000000"/><text fill="#000000" font-family="sans-serif" font-size="14" lengthAdjust="spacing" textLength="97" x="437" y="27.8467">SeparatorKind</text><line style="stroke:#000000;stroke-width:0.5;" x1="409" x2="536" y1="39" y2="39"/><text fill="#000000" font-family="sans-serif" font-size="14" lengthAdjust="spacing" textLength="34" x="414" y="55.9951">hash</text><text fill="#000000" font-family="sans-serif" font-size="14" lengthAdjust="spacing" textLength="36" x="414" y="72.292">slash</text></g></a><!--MD5=[a61a298976b7d1d94498f45c2ebfa10b]
class Statement--><a href="#Statement" target="_top" title="#Statement" xlink:actuate="onRequest" xlink:href="#Statement" xlink:show="new" xlink:title="#Statement" xlink:type="simple"><g ><rect codeLine="43" fill="#FFFFFF" height="40"  rx="2.5" ry="2.5" style="stroke:#000000;stroke-width:0.5;" width="104" x="444.5" y="141"/><ellipse cx="459.5" cy="157" fill="#A9DCDF" rx="11" ry="11" style="stroke:#181818;stroke-width:1.0;"/><path d="M459.6094,152.3438 L458.4531,157.4219 L460.7813,157.4219 L459.6094,152.3438 Z M458.125,150.1094 L461.1094,150.1094 L464.4688,162.5 L462.0156,162.5 L461.25,159.4375 L457.9688,159.4375 L457.2188,162.5 L454.7813,162.5 L458.125,150.1094 Z " fill="#000000"/><text fill="#000000" font-family="sans-serif" font-size="14" font-style="italic" lengthAdjust="spacing" textLength="72" x="473.5" y="161.8467">Statement</text><line style="stroke:#000000;stroke-width:0.5;" x1="445.5" x2="547.5" y1="173" y2="173"/></g></a><!--MD5=[6464c0f69c9d0adfe5795e9b9606172c]
reverse link Element to AnnotatedElement--><g ><a href="#Element" target="_top" title="#Element" xlink:actuate="onRequest" xlink:href="#Element" xlink:show="new" xlink:title="#Element" xlink:type="simple"><path codeLine="8" d="M328.5,83.845 C328.5,103.11 328.5,125.426 328.5,140.899 " fill="none"  style="stroke:#000000;stroke-width:1.0;"/><polygon fill="none" points="321.5,83.573,328.5,63.572,335.5,83.572,321.5,83.573" style="stroke:#000000;stroke-width:1.0;"/></a></g><!--MD5=[a26c1273de1504270c63108c3ad05cea]
link AnnotatedElement to Annotation--><g ><path codeLine="9" d="M288.3796,187.9077 C288.3796,187.9077 266.808,203.303 257.5,211 C243.522,222.559 229.218,235.724 215.96,248.583 " fill="none"  style="stroke:#000000;stroke-width:1.0;"/><polygon fill="#000000" points="206.51,257.865,215.7336,254.4117,210.077,254.3612,210.1275,248.7046,206.51,257.865" style="stroke:#000000;stroke-width:1.0;"/><line style="stroke:#000000;stroke-width:1.0;" x1="210.077" x2="215.7845" y1="254.3612" y2="248.755"/><polygon fill="#000000" points="298.3,181.156,291.0892,181.225,288.3796,187.9077,295.5903,187.8386,298.3,181.156" style="stroke:#000000;stroke-width:1.0;"/><text fill="#000000" font-family="sans-serif" font-size="13" lengthAdjust="spacing" textLength="118" x="258.5" y="224.0669">ownedAnnotations</text><text fill="#000000" font-family="sans-serif" font-size="13" lengthAdjust="spacing" textLength="7" x="205.6254" y="246.8476">*</text></g><!--MD5=[f0832d5e213e87fee8a27a129e7e5340]
reverse link Element to Annotation--><g ><a href="#Element" target="_top" title="#Element" xlink:actuate="onRequest" xlink:href="#Element" xlink:show="new" xlink:title="#Element" xlink:type="simple"><path codeLine="18" d="M288.781,77.122 C269.365,94.568 246.744,117.305 230.5,141 C205.713,177.156 186.493,223.082 174.011,257.853 " fill="none"  style="stroke:#000000;stroke-width:1.0;"/><polygon fill="none" points="284.433,71.627,304.127,63.807,293.608,82.201,284.433,71.627" style="stroke:#000000;stroke-width:1.0;"/></a></g><!--MD5=[f90a4d10888fc5da8aefdcfb02bff89f]
link Annotation to Literal--><g ><path codeLine="19" d="M157.5,375.391 C157.5,375.391 157.5,427.8581 157.5,447.2778 " fill="none"  style="stroke:#000000;stroke-width:1.0;"/><polygon fill="#000000" points="157.5,460.292,161.5,451.292,157.5,455.292,153.5,451.292,157.5,460.292" style="stroke:#000000;stroke-width:1.0;"/><line style="stroke:#000000;stroke-width:1.0;" x1="157.5" x2="157.5" y1="455.292" y2="447.292"/><polygon fill="#000000" points="157.5,363.391,153.5,369.391,157.5,375.391,161.5,369.391,157.5,363.391" style="stroke:#000000;stroke-width:1.0;"/><text fill="#000000" font-family="sans-serif" font-size="13" lengthAdjust="spacing" textLength="34" x="158.5" y="406.0669">value</text><text fill="#000000" font-family="sans-serif" font-size="13" lengthAdjust="spacing" textLength="24" x="129.525" y="449.5276">0..1</text></g><!--MD5=[1f417f60d64e01ad5046b156431c9cf6]
reverse link AnnotatedElement to IdentifiedElement--><g ><a href="#AnnotatedElement" target="_top" title="#AnnotatedElement" xlink:actuate="onRequest" xlink:href="#AnnotatedElement" xlink:show="new" xlink:title="#AnnotatedElement" xlink:type="simple"><path codeLine="24" d="M393.926,188.734 C438.054,207.207 497.34,232.886 548.5,258 C569.046,268.086 591.549,280.369 609.384,290.409 " fill="none"  style="stroke:#000000;stroke-width:1.0;"/><polygon fill="none" points="391.185,195.175,375.407,181.032,396.562,182.249,391.185,195.175" style="stroke:#000000;stroke-width:1.0;"/></a></g><!--MD5=[753d190af89447a56cb0bca0c0b20fd3]
reverse link AnnotatedElement to Import--><g ><a href="#AnnotatedElement" target="_top" title="#AnnotatedElement" xlink:actuate="onRequest" xlink:href="#AnnotatedElement" xlink:show="new" xlink:title="#AnnotatedElement" xlink:type="simple"><path codeLine="29" d="M370.259,194.617 C375.712,199.79 380.969,205.319 385.5,211 C400.692,230.049 413.526,254.208 422.644,273.832 " fill="none"  style="stroke:#000000;stroke-width:1.0;"/><polygon fill="none" points="365.286,199.568,354.814,181.147,374.488,189.017,365.286,199.568" style="stroke:#000000;stroke-width:1.0;"/></a></g><!--MD5=[33752fb4a47bbfc919e466094f723143]
reverse link IdentifiedElement to Member--><g ><a href="#IdentifiedElement" target="_top" title="#IdentifiedElement" xlink:actuate="onRequest" xlink:href="#IdentifiedElement" xlink:show="new" xlink:title="#IdentifiedElement" xlink:type="simple"><path codeLine="33" d="M622.834,348.572 C606.748,378.895 584.372,421.0743 569.912,448.3325 " fill="none"  style="stroke:#000000;stroke-width:1.0;"/><polygon fill="none" points="616.793,345.021,632.35,330.634,629.161,351.582,616.793,345.021" style="stroke:#000000;stroke-width:1.0;"/></a></g><!--MD5=[fd3ff5f198460cf7758d1240200908b0]
reverse link IdentifiedElement to Ontology--><g ><a href="#IdentifiedElement" target="_top" title="#IdentifiedElement" xlink:actuate="onRequest" xlink:href="#IdentifiedElement" xlink:show="new" xlink:title="#IdentifiedElement" xlink:type="simple"><path codeLine="38" d="M662.15,348.542 C676.642,375.859 696.244,412.811 710.564,439.8039 " fill="none"  style="stroke:#000000;stroke-width:1.0;"/><polygon fill="none" points="655.839,351.582,652.65,330.634,668.207,345.021,655.839,351.582" style="stroke:#000000;stroke-width:1.0;"/></a></g><!--MD5=[74cc68ff81e9898842fdff0d8733f894]
reverse link Element to Statement--><g ><a href="#Element" target="_top" title="#Element" xlink:actuate="onRequest" xlink:href="#Element" xlink:show="new" xlink:title="#Element" xlink:type="simple"><path codeLine="45" d="M372.934,75.049 C403.329,95.945 442.682,123 468.717,140.899 " fill="none"  style="stroke:#000000;stroke-width:1.0;"/><polygon fill="none" points="368.757,80.671,356.242,63.572,376.688,69.135,368.757,80.671" style="stroke:#000000;stroke-width:1.0;"/></a></g><!--MD5=[6f4eb3e89fd2daaf89198a655938f985]
@startuml
skinparam classBackgroundColor LightGray
skinparam classBorderColor Black
skinparam enumBorderColor Black
skinparam ArrowColor Black
hide methods
abstract class AnnotatedElement [[#AnnotatedElement]] #white {
}
AnnotatedElement -up-|> Element [[#Element]]
AnnotatedElement *- -> "*" Annotation : ownedAnnotations
class Annotation [[#Annotation]] #white {
	property : AnnotationProperty [1]
	referenceValue : Member [0..1]
	owningElement : AnnotatedElement [0..1]
	owningReference : Reference [0..1]
}
abstract class Literal [[#Literal]]
hide Literal members
Annotation -up-|> Element [[#Element]]
Annotation *- -> "0..1" Literal : value
abstract class Element [[#Element]] #white {
}
abstract class IdentifiedElement [[#IdentifiedElement]] #white {
}
IdentifiedElement -up-|> AnnotatedElement [[#AnnotatedElement]]
abstract class Import [[#Import]] #white {
	namespace : Namespace
	prefix : ID
}
Import -up-|> AnnotatedElement [[#AnnotatedElement]]
abstract class Member [[#Member]] #white {
	name : ID
}
Member -up-|> IdentifiedElement [[#IdentifiedElement]]
abstract class Ontology [[#Ontology]] #white {
	namespace : Namespace
	prefix : ID
}
Ontology -up-|> IdentifiedElement [[#IdentifiedElement]]
enum SeparatorKind [[#SeparatorKind]] #white {
	hash
	slash
}
abstract class Statement [[#Statement]] #white {
}
Statement -up-|> Element [[#Element]]
@enduml

PlantUML version 1.2022.12(Sun Oct 23 18:12:26 UTC 2022)
(GPL source distribution)
Java Runtime: OpenJDK Runtime Environment
JVM: OpenJDK 64-Bit Server VM
Default Encoding: UTF-8
Language: en
Country: US
--></g></svg>
