<?xml version="1.0" encoding="UTF-8" standalone="no"?><svg xmlns="http://www.w3.org/2000/svg" xmlns:xlink="http://www.w3.org/1999/xlink" contentScriptType="application/ecmascript" contentStyleType="text/css" height="775px" preserveAspectRatio="none" style="width:1308px;height:775px;" version="1.1" viewBox="0 0 1308 775" width="1308px" zoomAndPan="magnify"><defs><filter height="300%" id="fdc152wyw2arj" width="300%" x="-1" y="-1"><feGaussianBlur result="blurOut" stdDeviation="2.0"/><feColorMatrix in="blurOut" result="blurOut2" type="matrix" values="0 0 0 0 0 0 0 0 0 0 0 0 0 0 0 0 0 0 .4 0"/><feOffset dx="4.0" dy="4.0" in="blurOut2" result="blurOut3"/><feBlend in="SourceGraphic" in2="blurOut3" mode="normal"/></filter></defs><g><!--class Aspect--><a target="_top" xlink:actuate="onRequest" xlink:href="#Aspect" xlink:show="new" xlink:title="#Aspect" xlink:type="simple"><rect fill="#FFFFFF" filter="url(#fdc152wyw2arj)" height="40"  style="stroke: #000000; stroke-width: 1.5;" width="75" x="6" y="557.5"/><rect fill="#FFFFFF" height="32" style="stroke: #000000; stroke-width: 1.5;" width="75" x="6" y="557.5"/><ellipse cx="21" cy="573.5" fill="#ADD1B2" rx="11" ry="11" style="stroke: #000000; stroke-width: 1.0;"/><path d="M23.9688,579.1406 Q23.3906,579.4375 22.75,579.5781 Q22.1094,579.7344 21.4063,579.7344 Q18.9063,579.7344 17.5781,578.0938 Q16.2656,576.4375 16.2656,573.3125 Q16.2656,570.1875 17.5781,568.5313 Q18.9063,566.875 21.4063,566.875 Q22.1094,566.875 22.75,567.0313 Q23.4063,567.1875 23.9688,567.4844 L23.9688,570.2031 Q23.3438,569.625 22.75,569.3594 Q22.1563,569.0781 21.5313,569.0781 Q20.1875,569.0781 19.5,570.1563 Q18.8125,571.2188 18.8125,573.3125 Q18.8125,575.4063 19.5,576.4844 Q20.1875,577.5469 21.5313,577.5469 Q22.1563,577.5469 22.75,577.2813 Q23.3438,577 23.9688,576.4219 L23.9688,579.1406 Z "/><text fill="#000000" font-family="sans-serif" font-size="12" lengthAdjust="spacingAndGlyphs" textLength="43" x="35" y="577.6543">Aspect</text><line style="stroke: #000000; stroke-width: 1.5;" x1="7" x2="80" y1="589.5" y2="589.5"/></a><!--class Entity--><a target="_top" xlink:actuate="onRequest" xlink:href="#Entity" xlink:show="new" xlink:title="#Entity" xlink:type="simple"><rect fill="#FFFFFF" filter="url(#fdc152wyw2arj)" height="40"  style="stroke: #000000; stroke-width: 1.5;" width="67" x="276" y="351"/><rect fill="#FFFFFF" height="32" style="stroke: #000000; stroke-width: 1.5;" width="67" x="276" y="351"/><ellipse cx="291" cy="367" fill="#A9DCDF" rx="11" ry="11" style="stroke: #000000; stroke-width: 1.0;"/><path d="M291.1094,362.3438 L289.9531,367.4219 L292.2813,367.4219 L291.1094,362.3438 Z M289.625,360.1094 L292.6094,360.1094 L295.9688,372.5 L293.5156,372.5 L292.75,369.4375 L289.4688,369.4375 L288.7188,372.5 L286.2813,372.5 L289.625,360.1094 Z "/><text fill="#000000" font-family="sans-serif" font-size="12" font-style="italic" lengthAdjust="spacingAndGlyphs" textLength="35" x="305" y="371.1543">Entity</text><line style="stroke: #000000; stroke-width: 1.5;" x1="277" x2="342" y1="383" y2="383"/></a><!--class Classifier--><a target="_top" xlink:actuate="onRequest" xlink:href="#Classifier" xlink:show="new" xlink:title="#Classifier" xlink:type="simple"><rect fill="#FFFFFF" filter="url(#fdc152wyw2arj)" height="40"  style="stroke: #000000; stroke-width: 1.5;" width="88" x="466.5" y="202"/><rect fill="#FFFFFF" height="32" style="stroke: #000000; stroke-width: 1.5;" width="88" x="466.5" y="202"/><ellipse cx="481.5" cy="218" fill="#A9DCDF" rx="11" ry="11" style="stroke: #000000; stroke-width: 1.0;"/><path d="M481.6094,213.3438 L480.4531,218.4219 L482.7813,218.4219 L481.6094,213.3438 Z M480.125,211.1094 L483.1094,211.1094 L486.4688,223.5 L484.0156,223.5 L483.25,220.4375 L479.9688,220.4375 L479.2188,223.5 L476.7813,223.5 L480.125,211.1094 Z "/><text fill="#000000" font-family="sans-serif" font-size="12" font-style="italic" lengthAdjust="spacingAndGlyphs" textLength="56" x="495.5" y="222.1543">Classifier</text><line style="stroke: #000000; stroke-width: 1.5;" x1="467.5" x2="553.5" y1="234" y2="234"/></a><!--class PropertyRestrictionAxiom--><a target="_top" xlink:actuate="onRequest" xlink:href="#PropertyRestrictionAxiom" xlink:show="new" xlink:title="#PropertyRestrictionAxiom" xlink:type="simple"><rect fill="#D3D3D3" filter="url(#fdc152wyw2arj)" height="32"  style="stroke: #000000; stroke-width: 1.5;" width="188" x="378.5" y="355"/><ellipse cx="393.5" cy="371" fill="#A9DCDF" rx="11" ry="11" style="stroke: #000000; stroke-width: 1.0;"/><path d="M393.6094,366.3438 L392.4531,371.4219 L394.7813,371.4219 L393.6094,366.3438 Z M392.125,364.1094 L395.1094,364.1094 L398.4688,376.5 L396.0156,376.5 L395.25,373.4375 L391.9688,373.4375 L391.2188,376.5 L388.7813,376.5 L392.125,364.1094 Z "/><text fill="#000000" font-family="sans-serif" font-size="12" font-style="italic" lengthAdjust="spacingAndGlyphs" textLength="156" x="407.5" y="375.1543">PropertyRestrictionAxiom</text></a><!--class Type--><a target="_top" xlink:actuate="onRequest" xlink:href="#Type" xlink:show="new" xlink:title="#Type" xlink:type="simple"><rect fill="#FFFFFF" filter="url(#fdc152wyw2arj)" height="40"  style="stroke: #000000; stroke-width: 1.5;" width="61" x="693" y="101"/><rect fill="#FFFFFF" height="32" style="stroke: #000000; stroke-width: 1.5;" width="61" x="693" y="101"/><ellipse cx="708" cy="117" fill="#A9DCDF" rx="11" ry="11" style="stroke: #000000; stroke-width: 1.0;"/><path d="M708.1094,112.3438 L706.9531,117.4219 L709.2813,117.4219 L708.1094,112.3438 Z M706.625,110.1094 L709.6094,110.1094 L712.9688,122.5 L710.5156,122.5 L709.75,119.4375 L706.4688,119.4375 L705.7188,122.5 L703.2813,122.5 L706.625,110.1094 Z "/><text fill="#000000" font-family="sans-serif" font-size="12" font-style="italic" lengthAdjust="spacingAndGlyphs" textLength="29" x="722" y="121.1543">Type</text><line style="stroke: #000000; stroke-width: 1.5;" x1="694" x2="753" y1="133" y2="133"/></a><!--class Concept--><a target="_top" xlink:actuate="onRequest" xlink:href="#Concept" xlink:show="new" xlink:title="#Concept" xlink:type="simple"><rect fill="#FFFFFF" filter="url(#fdc152wyw2arj)" height="40"  style="stroke: #000000; stroke-width: 1.5;" width="84" x="115.5" y="557.5"/><rect fill="#FFFFFF" height="32" style="stroke: #000000; stroke-width: 1.5;" width="84" x="115.5" y="557.5"/><ellipse cx="130.5" cy="573.5" fill="#ADD1B2" rx="11" ry="11" style="stroke: #000000; stroke-width: 1.0;"/><path d="M133.4688,579.1406 Q132.8906,579.4375 132.25,579.5781 Q131.6094,579.7344 130.9063,579.7344 Q128.4063,579.7344 127.0781,578.0938 Q125.7656,576.4375 125.7656,573.3125 Q125.7656,570.1875 127.0781,568.5313 Q128.4063,566.875 130.9063,566.875 Q131.6094,566.875 132.25,567.0313 Q132.9063,567.1875 133.4688,567.4844 L133.4688,570.2031 Q132.8438,569.625 132.25,569.3594 Q131.6563,569.0781 131.0313,569.0781 Q129.6875,569.0781 129,570.1563 Q128.3125,571.2188 128.3125,573.3125 Q128.3125,575.4063 129,576.4844 Q129.6875,577.5469 131.0313,577.5469 Q131.6563,577.5469 132.25,577.2813 Q132.8438,577 133.4688,576.4219 L133.4688,579.1406 Z "/><text fill="#000000" font-family="sans-serif" font-size="12" lengthAdjust="spacingAndGlyphs" textLength="52" x="144.5" y="577.6543">Concept</text><line style="stroke: #000000; stroke-width: 1.5;" x1="116.5" x2="198.5" y1="589.5" y2="589.5"/></a><!--class RelationRestrictionAxiom--><a target="_top" xlink:actuate="onRequest" xlink:href="#RelationRestrictionAxiom" xlink:show="new" xlink:title="#RelationRestrictionAxiom" xlink:type="simple"><rect fill="#D3D3D3" filter="url(#fdc152wyw2arj)" height="32"  style="stroke: #000000; stroke-width: 1.5;" width="186" x="234.5" y="561.5"/><ellipse cx="249.5" cy="577.5" fill="#A9DCDF" rx="11" ry="11" style="stroke: #000000; stroke-width: 1.0;"/><path d="M249.6094,572.8438 L248.4531,577.9219 L250.7813,577.9219 L249.6094,572.8438 Z M248.125,570.6094 L251.1094,570.6094 L254.4688,583 L252.0156,583 L251.25,579.9375 L247.9688,579.9375 L247.2188,583 L244.7813,583 L248.125,570.6094 Z "/><text fill="#000000" font-family="sans-serif" font-size="12" font-style="italic" lengthAdjust="spacingAndGlyphs" textLength="154" x="263.5" y="581.6543">RelationRestrictionAxiom</text></a><!--class KeyAxiom--><a target="_top" xlink:actuate="onRequest" xlink:href="#KeyAxiom" xlink:show="new" xlink:title="#KeyAxiom" xlink:type="simple"><rect fill="#D3D3D3" filter="url(#fdc152wyw2arj)" height="32"  style="stroke: #000000; stroke-width: 1.5;" width="89" x="473" y="561.5"/><ellipse cx="488" cy="577.5" fill="#ADD1B2" rx="11" ry="11" style="stroke: #000000; stroke-width: 1.0;"/><path d="M490.9688,583.1406 Q490.3906,583.4375 489.75,583.5781 Q489.1094,583.7344 488.4063,583.7344 Q485.9063,583.7344 484.5781,582.0938 Q483.2656,580.4375 483.2656,577.3125 Q483.2656,574.1875 484.5781,572.5313 Q485.9063,570.875 488.4063,570.875 Q489.1094,570.875 489.75,571.0313 Q490.4063,571.1875 490.9688,571.4844 L490.9688,574.2031 Q490.3438,573.625 489.75,573.3594 Q489.1563,573.0781 488.5313,573.0781 Q487.1875,573.0781 486.5,574.1563 Q485.8125,575.2188 485.8125,577.3125 Q485.8125,579.4063 486.5,580.4844 Q487.1875,581.5469 488.5313,581.5469 Q489.1563,581.5469 489.75,581.2813 Q490.3438,581 490.9688,580.4219 L490.9688,583.1406 Z "/><text fill="#000000" font-family="sans-serif" font-size="12" lengthAdjust="spacingAndGlyphs" textLength="57" x="502" y="581.6543">KeyAxiom</text></a><!--class EnumeratedScalar--><a target="_top" xlink:actuate="onRequest" xlink:href="#EnumeratedScalar" xlink:show="new" xlink:title="#EnumeratedScalar" xlink:type="simple"><rect fill="#FFFFFF" filter="url(#fdc152wyw2arj)" height="40"  style="stroke: #000000; stroke-width: 1.5;" width="148" x="747.5" y="351"/><rect fill="#FFFFFF" height="32" style="stroke: #000000; stroke-width: 1.5;" width="148" x="747.5" y="351"/><ellipse cx="762.5" cy="367" fill="#ADD1B2" rx="11" ry="11" style="stroke: #000000; stroke-width: 1.0;"/><path d="M765.4688,372.6406 Q764.8906,372.9375 764.25,373.0781 Q763.6094,373.2344 762.9063,373.2344 Q760.4063,373.2344 759.0781,371.5938 Q757.7656,369.9375 757.7656,366.8125 Q757.7656,363.6875 759.0781,362.0313 Q760.4063,360.375 762.9063,360.375 Q763.6094,360.375 764.25,360.5313 Q764.9063,360.6875 765.4688,360.9844 L765.4688,363.7031 Q764.8438,363.125 764.25,362.8594 Q763.6563,362.5781 763.0313,362.5781 Q761.6875,362.5781 761,363.6563 Q760.3125,364.7188 760.3125,366.8125 Q760.3125,368.9063 761,369.9844 Q761.6875,371.0469 763.0313,371.0469 Q763.6563,371.0469 764.25,370.7813 Q764.8438,370.5 765.4688,369.9219 L765.4688,372.6406 Z "/><text fill="#000000" font-family="sans-serif" font-size="12" lengthAdjust="spacingAndGlyphs" textLength="116" x="776.5" y="371.1543">EnumeratedScalar</text><line style="stroke: #000000; stroke-width: 1.5;" x1="748.5" x2="894.5" y1="383" y2="383"/></a><!--class Literal--><a target="_top" xlink:actuate="onRequest" xlink:href="#Literal" xlink:show="new" xlink:title="#Literal" xlink:type="simple"><rect fill="#D3D3D3" filter="url(#fdc152wyw2arj)" height="32"  style="stroke: #000000; stroke-width: 1.5;" width="70" x="987.5" y="561.5"/><ellipse cx="1002.5" cy="577.5" fill="#A9DCDF" rx="11" ry="11" style="stroke: #000000; stroke-width: 1.0;"/><path d="M1002.6094,572.8438 L1001.4531,577.9219 L1003.7813,577.9219 L1002.6094,572.8438 Z M1001.125,570.6094 L1004.1094,570.6094 L1007.4688,583 L1005.0156,583 L1004.25,579.9375 L1000.9688,579.9375 L1000.2188,583 L997.7813,583 L1001.125,570.6094 Z "/><text fill="#000000" font-family="sans-serif" font-size="12" font-style="italic" lengthAdjust="spacingAndGlyphs" textLength="38" x="1016.5" y="581.6543">Literal</text></a><!--class Scalar--><a target="_top" xlink:actuate="onRequest" xlink:href="#Scalar" xlink:show="new" xlink:title="#Scalar" xlink:type="simple"><rect fill="#FFFFFF" filter="url(#fdc152wyw2arj)" height="40"  style="stroke: #000000; stroke-width: 1.5;" width="71" x="786" y="202"/><rect fill="#FFFFFF" height="32" style="stroke: #000000; stroke-width: 1.5;" width="71" x="786" y="202"/><ellipse cx="801" cy="218" fill="#A9DCDF" rx="11" ry="11" style="stroke: #000000; stroke-width: 1.0;"/><path d="M801.1094,213.3438 L799.9531,218.4219 L802.2813,218.4219 L801.1094,213.3438 Z M799.625,211.1094 L802.6094,211.1094 L805.9688,223.5 L803.5156,223.5 L802.75,220.4375 L799.4688,220.4375 L798.7188,223.5 L796.2813,223.5 L799.625,211.1094 Z "/><text fill="#000000" font-family="sans-serif" font-size="12" font-style="italic" lengthAdjust="spacingAndGlyphs" textLength="39" x="815" y="222.1543">Scalar</text><line style="stroke: #000000; stroke-width: 1.5;" x1="787" x2="856" y1="234" y2="234"/></a><!--class FacetedScalar--><a target="_top" xlink:actuate="onRequest" xlink:href="#FacetedScalar" xlink:show="new" xlink:title="#FacetedScalar" xlink:type="simple"><rect fill="#FFFFFF" filter="url(#fdc152wyw2arj)" height="104.0234"  style="stroke: #000000; stroke-width: 1.5;" width="179" x="933" y="319"/><rect fill="#FFFFFF" height="32" style="stroke: #000000; stroke-width: 1.5;" width="179" x="933" y="319"/><ellipse cx="973.65" cy="335" fill="#ADD1B2" rx="11" ry="11" style="stroke: #000000; stroke-width: 1.0;"/><path d="M976.6188,340.6406 Q976.0406,340.9375 975.4,341.0781 Q974.7594,341.2344 974.0563,341.2344 Q971.5563,341.2344 970.2281,339.5938 Q968.9156,337.9375 968.9156,334.8125 Q968.9156,331.6875 970.2281,330.0313 Q971.5563,328.375 974.0563,328.375 Q974.7594,328.375 975.4,328.5313 Q976.0563,328.6875 976.6188,328.9844 L976.6188,331.7031 Q975.9938,331.125 975.4,330.8594 Q974.8063,330.5781 974.1813,330.5781 Q972.8375,330.5781 972.15,331.6563 Q971.4625,332.7188 971.4625,334.8125 Q971.4625,336.9063 972.15,337.9844 Q972.8375,339.0469 974.1813,339.0469 Q974.8063,339.0469 975.4,338.7813 Q975.9938,338.5 976.6188,337.9219 L976.6188,340.6406 Z "/><text fill="#000000" font-family="sans-serif" font-size="12" lengthAdjust="spacingAndGlyphs" textLength="90" x="993.35" y="339.1543">FacetedScalar</text><line style="stroke: #000000; stroke-width: 1.5;" x1="934" x2="1111" y1="351" y2="351"/><text fill="#000000" font-family="sans-serif" font-size="11" lengthAdjust="spacingAndGlyphs" textLength="140" x="939" y="365.2104">length : UnsignedInteger</text><text fill="#000000" font-family="sans-serif" font-size="11" lengthAdjust="spacingAndGlyphs" textLength="164" x="939" y="378.0151">minLength : UnsignedInteger</text><text fill="#000000" font-family="sans-serif" font-size="11" lengthAdjust="spacingAndGlyphs" textLength="167" x="939" y="390.8198">maxLength : UnsignedInteger</text><text fill="#000000" font-family="sans-serif" font-size="11" lengthAdjust="spacingAndGlyphs" textLength="87" x="939" y="403.6245">pattern : String</text><text fill="#000000" font-family="sans-serif" font-size="11" lengthAdjust="spacingAndGlyphs" textLength="98" x="939" y="416.4292">language : String</text></a><!--class RelationEntity--><a target="_top" xlink:actuate="onRequest" xlink:href="#RelationEntity" xlink:show="new" xlink:title="#RelationEntity" xlink:type="simple"><rect fill="#FFFFFF" filter="url(#fdc152wyw2arj)" height="155.2422"  style="stroke: #000000; stroke-width: 1.5;" width="169" x="597" y="500"/><rect fill="#FFFFFF" height="32" style="stroke: #000000; stroke-width: 1.5;" width="169" x="597" y="500"/><ellipse cx="634.95" cy="516" fill="#ADD1B2" rx="11" ry="11" style="stroke: #000000; stroke-width: 1.0;"/><path d="M637.9188,521.6406 Q637.3406,521.9375 636.7,522.0781 Q636.0594,522.2344 635.3563,522.2344 Q632.8563,522.2344 631.5281,520.5938 Q630.2156,518.9375 630.2156,515.8125 Q630.2156,512.6875 631.5281,511.0313 Q632.8563,509.375 635.3563,509.375 Q636.0594,509.375 636.7,509.5313 Q637.3563,509.6875 637.9188,509.9844 L637.9188,512.7031 Q637.2938,512.125 636.7,511.8594 Q636.1063,511.5781 635.4813,511.5781 Q634.1375,511.5781 633.45,512.6563 Q632.7625,513.7188 632.7625,515.8125 Q632.7625,517.9063 633.45,518.9844 Q634.1375,520.0469 635.4813,520.0469 Q636.1063,520.0469 636.7,519.7813 Q637.2938,519.5 637.9188,518.9219 L637.9188,521.6406 Z "/><text fill="#000000" font-family="sans-serif" font-size="12" lengthAdjust="spacingAndGlyphs" textLength="86" x="654.05" y="520.1543">RelationEntity</text><line style="stroke: #000000; stroke-width: 1.5;" x1="598" x2="765" y1="532" y2="532"/><text fill="#000000" font-family="sans-serif" font-size="11" lengthAdjust="spacingAndGlyphs" textLength="113" x="603" y="546.2104">functional : Boolean</text><text fill="#000000" font-family="sans-serif" font-size="11" lengthAdjust="spacingAndGlyphs" textLength="157" x="603" y="559.0151">inverseFunctional : Boolean</text><text fill="#000000" font-family="sans-serif" font-size="11" lengthAdjust="spacingAndGlyphs" textLength="118" x="603" y="571.8198">symmetric : Boolean</text><text fill="#000000" font-family="sans-serif" font-size="11" lengthAdjust="spacingAndGlyphs" textLength="125" x="603" y="584.6245">asymmetric : Boolean</text><text fill="#000000" font-family="sans-serif" font-size="11" lengthAdjust="spacingAndGlyphs" textLength="106" x="603" y="597.4292">reflexive : Boolean</text><text fill="#000000" font-family="sans-serif" font-size="11" lengthAdjust="spacingAndGlyphs" textLength="114" x="603" y="610.2339">irreflexive : Boolean</text><text fill="#000000" font-family="sans-serif" font-size="11" lengthAdjust="spacingAndGlyphs" textLength="111" x="603" y="623.0386">transitive : Boolean</text><text fill="#000000" font-family="sans-serif" font-size="11" lengthAdjust="spacingAndGlyphs" textLength="101" x="603" y="635.8433">source : Entity [1]</text><text fill="#000000" font-family="sans-serif" font-size="11" lengthAdjust="spacingAndGlyphs" textLength="96" x="603" y="648.6479">target : Entity [1]</text></a><!--class ForwardRelation--><a target="_top" xlink:actuate="onRequest" xlink:href="#ForwardRelation" xlink:show="new" xlink:title="#ForwardRelation" xlink:type="simple"><rect fill="#D3D3D3" filter="url(#fdc152wyw2arj)" height="32"  style="stroke: #000000; stroke-width: 1.5;" width="133" x="531" y="732"/><ellipse cx="546" cy="748" fill="#ADD1B2" rx="11" ry="11" style="stroke: #000000; stroke-width: 1.0;"/><path d="M548.9688,753.6406 Q548.3906,753.9375 547.75,754.0781 Q547.1094,754.2344 546.4063,754.2344 Q543.9063,754.2344 542.5781,752.5938 Q541.2656,750.9375 541.2656,747.8125 Q541.2656,744.6875 542.5781,743.0313 Q543.9063,741.375 546.4063,741.375 Q547.1094,741.375 547.75,741.5313 Q548.4063,741.6875 548.9688,741.9844 L548.9688,744.7031 Q548.3438,744.125 547.75,743.8594 Q547.1563,743.5781 546.5313,743.5781 Q545.1875,743.5781 544.5,744.6563 Q543.8125,745.7188 543.8125,747.8125 Q543.8125,749.9063 544.5,750.9844 Q545.1875,752.0469 546.5313,752.0469 Q547.1563,752.0469 547.75,751.7813 Q548.3438,751.5 548.9688,750.9219 L548.9688,753.6406 Z "/><text fill="#000000" font-family="sans-serif" font-size="12" lengthAdjust="spacingAndGlyphs" textLength="101" x="560" y="752.1543">ForwardRelation</text></a><!--class ReverseRelation--><a target="_top" xlink:actuate="onRequest" xlink:href="#ReverseRelation" xlink:show="new" xlink:title="#ReverseRelation" xlink:type="simple"><rect fill="#D3D3D3" filter="url(#fdc152wyw2arj)" height="32"  style="stroke: #000000; stroke-width: 1.5;" width="133" x="699" y="732"/><ellipse cx="714" cy="748" fill="#ADD1B2" rx="11" ry="11" style="stroke: #000000; stroke-width: 1.0;"/><path d="M716.9688,753.6406 Q716.3906,753.9375 715.75,754.0781 Q715.1094,754.2344 714.4063,754.2344 Q711.9063,754.2344 710.5781,752.5938 Q709.2656,750.9375 709.2656,747.8125 Q709.2656,744.6875 710.5781,743.0313 Q711.9063,741.375 714.4063,741.375 Q715.1094,741.375 715.75,741.5313 Q716.4063,741.6875 716.9688,741.9844 L716.9688,744.7031 Q716.3438,744.125 715.75,743.8594 Q715.1563,743.5781 714.5313,743.5781 Q713.1875,743.5781 712.5,744.6563 Q711.8125,745.7188 711.8125,747.8125 Q711.8125,749.9063 712.5,750.9844 Q713.1875,752.0469 714.5313,752.0469 Q715.1563,752.0469 715.75,751.7813 Q716.3438,751.5 716.9688,750.9219 L716.9688,753.6406 Z "/><text fill="#000000" font-family="sans-serif" font-size="12" lengthAdjust="spacingAndGlyphs" textLength="101" x="728" y="752.1543">ReverseRelation</text></a><!--class Structure--><a target="_top" xlink:actuate="onRequest" xlink:href="#Structure" xlink:show="new" xlink:title="#Structure" xlink:type="simple"><rect fill="#FFFFFF" filter="url(#fdc152wyw2arj)" height="40"  style="stroke: #000000; stroke-width: 1.5;" width="91" x="621" y="351"/><rect fill="#FFFFFF" height="32" style="stroke: #000000; stroke-width: 1.5;" width="91" x="621" y="351"/><ellipse cx="636" cy="367" fill="#ADD1B2" rx="11" ry="11" style="stroke: #000000; stroke-width: 1.0;"/><path d="M638.9688,372.6406 Q638.3906,372.9375 637.75,373.0781 Q637.1094,373.2344 636.4063,373.2344 Q633.9063,373.2344 632.5781,371.5938 Q631.2656,369.9375 631.2656,366.8125 Q631.2656,363.6875 632.5781,362.0313 Q633.9063,360.375 636.4063,360.375 Q637.1094,360.375 637.75,360.5313 Q638.4063,360.6875 638.9688,360.9844 L638.9688,363.7031 Q638.3438,363.125 637.75,362.8594 Q637.1563,362.5781 636.5313,362.5781 Q635.1875,362.5781 634.5,363.6563 Q633.8125,364.7188 633.8125,366.8125 Q633.8125,368.9063 634.5,369.9844 Q635.1875,371.0469 636.5313,371.0469 Q637.1563,371.0469 637.75,370.7813 Q638.3438,370.5 638.9688,369.9219 L638.9688,372.6406 Z "/><text fill="#000000" font-family="sans-serif" font-size="12" lengthAdjust="spacingAndGlyphs" textLength="59" x="650" y="371.1543">Structure</text><line style="stroke: #000000; stroke-width: 1.5;" x1="622" x2="711" y1="383" y2="383"/></a><!--class SpecializableTerm--><a target="_top" xlink:actuate="onRequest" xlink:href="#SpecializableTerm" xlink:show="new" xlink:title="#SpecializableTerm" xlink:type="simple"><rect fill="#D3D3D3" filter="url(#fdc152wyw2arj)" height="32"  style="stroke: #000000; stroke-width: 1.5;" width="143" x="652" y="8"/><ellipse cx="667" cy="24" fill="#A9DCDF" rx="11" ry="11" style="stroke: #000000; stroke-width: 1.0;"/><path d="M667.1094,19.3438 L665.9531,24.4219 L668.2813,24.4219 L667.1094,19.3438 Z M665.625,17.1094 L668.6094,17.1094 L671.9688,29.5 L669.5156,29.5 L668.75,26.4375 L665.4688,26.4375 L664.7188,29.5 L662.2813,29.5 L665.625,17.1094 Z "/><text fill="#000000" font-family="sans-serif" font-size="12" font-style="italic" lengthAdjust="spacingAndGlyphs" textLength="111" x="681" y="28.1543">SpecializableTerm</text></a><!--link Entity to Aspect--><a target="_top" xlink:actuate="onRequest" xlink:href="#Entity" xlink:show="new" xlink:title="#Entity" xlink:type="simple"><path d="M257.653,395.666 C212.076,418.151 145.686,455.141 97.5,500 C79.4141,516.837 63.7681,540.65 54.0406,557.218 " fill="none"  style="stroke: #000000; stroke-width: 1.0;"/><polygon fill="none" points="254.741,389.299,275.798,386.937,260.81,401.915,254.741,389.299" style="stroke: #000000; stroke-width: 1.0;"/></a><!--link Type to Classifier--><a target="_top" xlink:actuate="onRequest" xlink:href="#Type" xlink:show="new" xlink:title="#Type" xlink:type="simple"><path d="M674.633,144.713 C637.394,162.021 586.704,185.581 551.551,201.92 " fill="none"  style="stroke: #000000; stroke-width: 1.0;"/><polygon fill="none" points="671.895,138.266,692.982,136.184,677.796,150.962,671.895,138.266" style="stroke: #000000; stroke-width: 1.0;"/></a><!--link Classifier to PropertyRestrictionAxiom--><path d="M480.451,252.469 C475.965,258.479 472.009,265.093 469.5,272 C461.325,294.51 463.042,321.879 466.247,341.966 " fill="none"  style="stroke: #000000; stroke-width: 1.0;"/><polygon fill="#000000" points="468.662,354.846,470.9349,345.263,467.7406,349.9316,463.0719,346.7373,468.662,354.846" style="stroke: #000000; stroke-width: 1.0;"/><line style="stroke: #000000; stroke-width: 1.0;" x1="467.7406" x2="466.266" y1="349.9316" y2="342.0685"/><polygon fill="#000000" points="488.901,242.372,481.9825,244.4054,481.1986,251.5738,488.117,249.5404,488.901,242.372" style="stroke: #000000; stroke-width: 1.0;"/><text fill="#000000" font-family="sans-serif" font-size="13" lengthAdjust="spacingAndGlyphs" textLength="169" x="470.5" y="285.0669">ownedPropertyRestrictions</text><text fill="#000000" font-family="sans-serif" font-size="13" lengthAdjust="spacingAndGlyphs" textLength="7" x="459.1396" y="343.8047">*</text><!--link Entity to Concept--><a target="_top" xlink:actuate="onRequest" xlink:href="#Entity" xlink:show="new" xlink:title="#Entity" xlink:type="simple"><path d="M283.172,407.422 C250.81,450.962 197.068,523.266 171.651,557.461 " fill="none"  style="stroke: #000000; stroke-width: 1.0;"/><polygon fill="none" points="277.651,403.115,295.2,391.239,288.887,411.466,277.651,403.115" style="stroke: #000000; stroke-width: 1.0;"/></a><!--link Classifier to Entity--><a target="_top" xlink:actuate="onRequest" xlink:href="#Classifier" xlink:show="new" xlink:title="#Classifier" xlink:type="simple"><path d="M458.88,252.248 C429.049,270.062 391.425,294.127 360.5,319 C348.596,328.574 336.455,340.606 327.007,350.578 " fill="none"  style="stroke: #000000; stroke-width: 1.0;"/><polygon fill="none" points="455.525,246.1,476.317,242.012,462.612,258.174,455.525,246.1" style="stroke: #000000; stroke-width: 1.0;"/></a><!--link Entity to RelationRestrictionAxiom--><path d="M308.024,404.441 C307.421,419.246 306.796,437.007 306.5,453 C306.36,460.554 305.766,462.48 306.5,470 C309.132,496.951 315.425,527.199 320.44,548.552 " fill="none"  style="stroke: #000000; stroke-width: 1.0;"/><polygon fill="#000000" points="323.574,561.47,325.34,551.7808,322.3955,556.6109,317.5654,553.6664,323.574,561.47" style="stroke: #000000; stroke-width: 1.0;"/><line style="stroke: #000000; stroke-width: 1.0;" x1="322.3955" x2="320.509" y1="556.6109" y2="548.8365"/><polygon fill="#000000" points="308.584,391.306,304.3325,397.1305,308.0737,403.2951,312.3252,397.4707,308.584,391.306" style="stroke: #000000; stroke-width: 1.0;"/><text fill="#000000" font-family="sans-serif" font-size="13" lengthAdjust="spacingAndGlyphs" textLength="166" x="307.5" y="466.0669">ownedRelationRestrictions</text><text fill="#000000" font-family="sans-serif" font-size="13" lengthAdjust="spacingAndGlyphs" textLength="7" x="314.0213" y="550.4713">*</text><!--link Entity to KeyAxiom--><path d="M333.037,400.849 C340.998,409.04 350.441,417.278 360.5,423 C407.536,449.755 439.163,415.841 478.5,453 C504.667,477.719 513.359,519.82 516.198,547.895 " fill="none"  style="stroke: #000000; stroke-width: 1.0;"/><polygon fill="#000000" points="517.211,561.132,520.513,551.8532,516.8297,556.1466,512.5363,552.4632,517.211,561.132" style="stroke: #000000; stroke-width: 1.0;"/><line style="stroke: #000000; stroke-width: 1.0;" x1="516.8297" x2="516.219" y1="556.1466" y2="548.17"/><polygon fill="#000000" points="324.119,391.053,325.2003,398.1826,332.1974,399.9266,331.116,392.797,324.119,391.053" style="stroke: #000000; stroke-width: 1.0;"/><text fill="#000000" font-family="sans-serif" font-size="13" lengthAdjust="spacingAndGlyphs" textLength="71" x="493.5" y="466.0669">ownedKeys</text><text fill="#000000" font-family="sans-serif" font-size="13" lengthAdjust="spacingAndGlyphs" textLength="7" x="508.9559" y="550.3146">*</text><!--link Scalar to EnumeratedScalar--><a target="_top" xlink:actuate="onRequest" xlink:href="#Scalar" xlink:show="new" xlink:title="#Scalar" xlink:type="simple"><path d="M821.5,262.38 C821.5,290.979 821.5,328.436 821.5,350.778 " fill="none"  style="stroke: #000000; stroke-width: 1.0;"/><polygon fill="none" points="814.5,262.218,821.5,242.218,828.5,262.218,814.5,262.218" style="stroke: #000000; stroke-width: 1.0;"/></a><!--link EnumeratedScalar to Literal--><path d="M821.948,404.263 C823.699,424.772 828.791,450.952 842.5,470 C875.177,515.404 933.714,544.731 975.151,560.887 " fill="none"  style="stroke: #000000; stroke-width: 1.0;"/><polygon fill="#000000" points="987.415,565.481,980.3899,558.5783,982.7327,563.7272,977.5838,566.07,987.415,565.481" style="stroke: #000000; stroke-width: 1.0;"/><line style="stroke: #000000; stroke-width: 1.0;" x1="982.7327" x2="975.241" y1="563.7272" y2="560.92"/><polygon fill="#000000" points="821.206,391.128,817.5513,397.3444,821.8838,403.1088,825.5385,396.8925,821.206,391.128" style="stroke: #000000; stroke-width: 1.0;"/><text fill="#000000" font-family="sans-serif" font-size="13" lengthAdjust="spacingAndGlyphs" textLength="42" x="843.5" y="466.0669">literals</text><text fill="#000000" font-family="sans-serif" font-size="13" lengthAdjust="spacingAndGlyphs" textLength="7" x="972.4568" y="576.6295">*</text><!--link Scalar to FacetedScalar--><a target="_top" xlink:actuate="onRequest" xlink:href="#Scalar" xlink:show="new" xlink:title="#Scalar" xlink:type="simple"><path d="M864.181,254.214 C889.837,272.978 923.112,297.313 952.531,318.828 " fill="none"  style="stroke: #000000; stroke-width: 1.0;"/><polygon fill="none" points="859.788,259.674,847.777,242.218,868.053,248.374,859.788,259.674" style="stroke: #000000; stroke-width: 1.0;"/></a><!--link FacetedScalar to Literal--><path d="M922.73,423.803 C913.488,432.35 905.396,442.058 899.5,453 C876.277,496.1 931.534,534.05 975.351,556.144 " fill="none"  style="stroke: #000000; stroke-width: 1.0;"/><polygon fill="#000000" points="987.331,561.947,980.9741,554.4244,982.8309,559.7678,977.4874,561.6246,987.331,561.947" style="stroke: #000000; stroke-width: 1.0;"/><line style="stroke: #000000; stroke-width: 1.0;" x1="982.8309" x2="975.631" y1="559.7678" y2="556.28"/><polygon fill="#000000" points="932.733,415.313,925.5702,416.1462,923.5843,423.0784,930.7471,422.2453,932.733,415.313" style="stroke: #000000; stroke-width: 1.0;"/><text fill="#000000" font-family="sans-serif" font-size="13" lengthAdjust="spacingAndGlyphs" textLength="78" x="900.5" y="466.0669">minInclusive</text><text fill="#000000" font-family="sans-serif" font-size="13" lengthAdjust="spacingAndGlyphs" textLength="24" x="955.5186" y="555.2067">0..1</text><!--link FacetedScalar to Literal--><path d="M1019.9,436.435 C1019.74,442.037 1019.6,447.618 1019.5,453 C1018.9,485.624 1020.07,523.091 1021.12,548.121 " fill="none"  style="stroke: #000000; stroke-width: 1.0;"/><polygon fill="#000000" points="1021.71,561.291,1025.3024,552.1207,1021.4858,556.296,1017.3105,552.4794,1021.71,561.291" style="stroke: #000000; stroke-width: 1.0;"/><line style="stroke: #000000; stroke-width: 1.0;" x1="1021.4858" x2="1021.125" y1="556.296" y2="548.304"/><polygon fill="#000000" points="1020.31,423.412,1016.1222,429.2825,1019.9304,435.406,1024.1182,429.5355,1020.31,423.412" style="stroke: #000000; stroke-width: 1.0;"/><text fill="#000000" font-family="sans-serif" font-size="13" lengthAdjust="spacingAndGlyphs" textLength="82" x="1020.5" y="466.0669">minExclusive</text><text fill="#000000" font-family="sans-serif" font-size="13" lengthAdjust="spacingAndGlyphs" textLength="24" x="993.476" y="550.5263">0..1</text><!--link FacetedScalar to Literal--><path d="M1103.53,433.945 C1109.67,445.087 1111.97,457.246 1107.5,470 C1096.13,502.471 1070.25,532.419 1050.01,552.232 " fill="none"  style="stroke: #000000; stroke-width: 1.0;"/><polygon fill="#000000" points="1040.33,561.369,1049.6192,558.0963,1043.9646,557.9354,1044.1255,552.2809,1040.33,561.369" style="stroke: #000000; stroke-width: 1.0;"/><line style="stroke: #000000; stroke-width: 1.0;" x1="1043.9646" x2="1049.785" y1="557.9354" y2="552.444"/><polygon fill="#000000" points="1096.23,423.157,1096.2803,430.3679,1102.9559,433.0949,1102.9056,425.884,1096.23,423.157" style="stroke: #000000; stroke-width: 1.0;"/><text fill="#000000" font-family="sans-serif" font-size="13" lengthAdjust="spacingAndGlyphs" textLength="82" x="1111.5" y="466.0669">maxInclusive</text><text fill="#000000" font-family="sans-serif" font-size="13" lengthAdjust="spacingAndGlyphs" textLength="24" x="1050.5841" y="550.3356">0..1</text><!--link FacetedScalar to Literal--><path d="M1124.8,395.072 C1154.98,407.153 1184.67,425.432 1202.5,453 C1239.56,510.315 1135.4,548.109 1070.37,565.482 " fill="none"  style="stroke: #000000; stroke-width: 1.0;"/><polygon fill="#000000" points="1057.54,568.782,1067.2533,570.4107,1062.382,567.5348,1065.2578,562.6635,1057.54,568.782" style="stroke: #000000; stroke-width: 1.0;"/><line style="stroke: #000000; stroke-width: 1.0;" x1="1062.382" x2="1070.135" y1="567.5348" y2="565.5425"/><polygon fill="#000000" points="1112.33,390.424,1116.5541,396.2684,1123.5736,394.6171,1119.3495,388.7727,1112.33,390.424" style="stroke: #000000; stroke-width: 1.0;"/><text fill="#000000" font-family="sans-serif" font-size="13" lengthAdjust="spacingAndGlyphs" textLength="86" x="1210.5" y="466.0669">maxExclusive</text><text fill="#000000" font-family="sans-serif" font-size="13" lengthAdjust="spacingAndGlyphs" textLength="24" x="1065.625" y="580.651">0..1</text><!--link Entity to RelationEntity--><a target="_top" xlink:actuate="onRequest" xlink:href="#Entity" xlink:show="new" xlink:title="#Entity" xlink:type="simple"><path d="M336.968,405.802 C343.964,412.481 351.949,418.735 360.5,423 C446.05,465.67 489.424,407.495 573.5,453 C594.667,464.456 613.627,481.805 629.531,499.908 " fill="none"  style="stroke: #000000; stroke-width: 1.0;"/><polygon fill="none" points="331.826,410.552,323.394,391.113,342.109,401.051,331.826,410.552" style="stroke: #000000; stroke-width: 1.0;"/></a><!--link RelationEntity to ForwardRelation--><path d="M631.44,666.9385 C628.334,673.0094 625.325,679.0695 622.5,685 C617.177,696.1735 611.95,708.7967 607.664,719.7228 " fill="none"  style="stroke: #000000; stroke-width: 1.0;"/><polygon fill="#000000" points="602.958,731.9972,609.9148,725.0256,604.7479,727.3286,602.445,722.1617,602.958,731.9972" style="stroke: #000000; stroke-width: 1.0;"/><line style="stroke: #000000; stroke-width: 1.0;" x1="604.7479" x2="607.6115" y1="727.3286" y2="719.8588"/><polygon fill="#000000" points="637.511,655.282,631.1918,658.7559,631.968,665.9251,638.2872,662.4512,637.511,655.282" style="stroke: #000000; stroke-width: 1.0;"/><text fill="#000000" font-family="sans-serif" font-size="13" lengthAdjust="spacingAndGlyphs" textLength="98" x="623.5" y="698.0669">forwardRelation</text><text fill="#000000" font-family="sans-serif" font-size="13" lengthAdjust="spacingAndGlyphs" textLength="24" x="576.7092" y="721.0078">0..1</text><!--link RelationEntity to ReverseRelation--><path d="M725.756,667.2748 C735.328,686.4772 744.744,705.3653 752.007,719.9335 " fill="none"  style="stroke: #000000; stroke-width: 1.0;"/><polygon fill="#000000" points="758.014,731.9831,757.5783,722.1439,755.7832,727.5084,750.4187,725.7132,758.014,731.9831" style="stroke: #000000; stroke-width: 1.0;"/><line style="stroke: #000000; stroke-width: 1.0;" x1="755.7832" x2="752.214" y1="727.5084" y2="720.3487"/><polygon fill="#000000" points="719.813,655.354,718.9102,662.5084,725.167,666.0934,726.0698,658.939,719.813,655.354" style="stroke: #000000; stroke-width: 1.0;"/><text fill="#000000" font-family="sans-serif" font-size="13" lengthAdjust="spacingAndGlyphs" textLength="99" x="744.5" y="698.0669">reverseRelation</text><text fill="#000000" font-family="sans-serif" font-size="13" lengthAdjust="spacingAndGlyphs" textLength="24" x="727.3157" y="720.9889">0..1</text><!--link Type to Scalar--><a target="_top" xlink:actuate="onRequest" xlink:href="#Type" xlink:show="new" xlink:title="#Type" xlink:type="simple"><path d="M756.695,155.534 C772.023,171.018 789.661,188.836 802.663,201.97 " fill="none"  style="stroke: #000000; stroke-width: 1.0;"/><polygon fill="none" points="751.491,160.227,742.395,141.088,761.44,150.377,751.491,160.227" style="stroke: #000000; stroke-width: 1.0;"/></a><!--link Classifier to Structure--><a target="_top" xlink:actuate="onRequest" xlink:href="#Classifier" xlink:show="new" xlink:title="#Classifier" xlink:type="simple"><path d="M574.219,232.715 C599.413,239.668 626.575,251.584 644.5,272 C663.713,293.883 667.221,328.919 667.338,350.636 " fill="none"  style="stroke: #000000; stroke-width: 1.0;"/><polygon fill="none" points="572.528,239.509,554.649,228.136,575.718,225.877,572.528,239.509" style="stroke: #000000; stroke-width: 1.0;"/></a><!--link SpecializableTerm to Type--><a target="_top" xlink:actuate="onRequest" xlink:href="#SpecializableTerm" xlink:show="new" xlink:title="#SpecializableTerm" xlink:type="simple"><path d="M723.5,60.472 C723.5,74.156 723.5,89.266 723.5,100.838 " fill="none"  style="stroke: #000000; stroke-width: 1.0;"/><polygon fill="none" points="716.5,60.263,723.5,40.263,730.5,60.263,716.5,60.263" style="stroke: #000000; stroke-width: 1.0;"/></a><!--
@startuml
skinparam classBackgroundColor LightGray
skinparam classBorderColor Black
skinparam enumBorderColor Black
skinparam ArrowColor Black
hide methods
class Aspect [[#Aspect]] #white {
}
Aspect -up-|> Entity [[#Entity]]
abstract class Classifier [[#Classifier]] #white {
}
abstract class PropertyRestrictionAxiom [[#PropertyRestrictionAxiom]]
hide PropertyRestrictionAxiom members
Classifier -up-|> Type [[#Type]]
Classifier *- -> "*" PropertyRestrictionAxiom : ownedPropertyRestrictions
class Concept [[#Concept]] #white {
}
Concept -up-|> Entity [[#Entity]]
abstract class Entity [[#Entity]] #white {
}
abstract class RelationRestrictionAxiom [[#RelationRestrictionAxiom]]
hide RelationRestrictionAxiom members
class KeyAxiom [[#KeyAxiom]]
hide KeyAxiom members
Entity -up-|> Classifier [[#Classifier]]
Entity *- -> "*" RelationRestrictionAxiom : ownedRelationRestrictions
Entity *- -> "*" KeyAxiom : ownedKeys
class EnumeratedScalar [[#EnumeratedScalar]] #white {
}
abstract class Literal [[#Literal]]
hide Literal members
EnumeratedScalar -up-|> Scalar [[#Scalar]]
EnumeratedScalar *- -> "*" Literal : literals
class FacetedScalar [[#FacetedScalar]] #white {
	length : UnsignedInteger
	minLength : UnsignedInteger
	maxLength : UnsignedInteger
	pattern : String
	language : String
}
abstract class Literal [[#Literal]]
hide Literal members
abstract class Literal [[#Literal]]
hide Literal members
abstract class Literal [[#Literal]]
hide Literal members
abstract class Literal [[#Literal]]
hide Literal members
FacetedScalar -up-|> Scalar [[#Scalar]]
FacetedScalar *- -> "0..1" Literal : minInclusive
FacetedScalar *- -> "0..1" Literal : minExclusive
FacetedScalar *- -> "0..1" Literal : maxInclusive
FacetedScalar *- -> "0..1" Literal : maxExclusive
class RelationEntity [[#RelationEntity]] #white {
	functional : Boolean
	inverseFunctional : Boolean
	symmetric : Boolean
	asymmetric : Boolean
	reflexive : Boolean
	irreflexive : Boolean
	transitive : Boolean
	source : Entity [1]
	target : Entity [1]
}
class ForwardRelation [[#ForwardRelation]]
hide ForwardRelation members
class ReverseRelation [[#ReverseRelation]]
hide ReverseRelation members
RelationEntity -up-|> Entity [[#Entity]]
RelationEntity *- -> "0..1" ForwardRelation : forwardRelation
RelationEntity *- -> "0..1" ReverseRelation : reverseRelation
abstract class Scalar [[#Scalar]] #white {
}
Scalar -up-|> Type [[#Type]]
class Structure [[#Structure]] #white {
}
Structure -up-|> Classifier [[#Classifier]]
abstract class Type [[#Type]] #white {
}
abstract class SpecializableTerm [[#SpecializableTerm]]
hide SpecializableTerm members
Type -up-|> SpecializableTerm [[#SpecializableTerm]]
@enduml

PlantUML version 1.2019.00(Sun Jan 13 15:46:42 UTC 2019)
(GPL source distribution)
Java Runtime: OpenJDK Runtime Environment
JVM: OpenJDK 64-Bit Server VM
Java Version: 11.0.2+9
Operating System: Linux
OS Version: 4.15.0-1098-gcp
Default Encoding: UTF-8
Language: en
Country: US
--></g></svg>
