<?xml version="1.0" encoding="UTF-8" standalone="no"?><svg xmlns="http://www.w3.org/2000/svg" xmlns:xlink="http://www.w3.org/1999/xlink" contentStyleType="text/css" height="639px" preserveAspectRatio="none" style="width:1429px;height:639px;background:#FFFFFF;" version="1.1" viewBox="0 0 1429 639" width="1429px" zoomAndPan="magnify"><defs/><g><!--MD5=[c89de6697dc6d01dc60be682576a34d4]
class Aspect--><a href="#Aspect" target="_top" title="#Aspect" xlink:actuate="onRequest" xlink:href="#Aspect" xlink:show="new" xlink:title="#Aspect" xlink:type="simple"><g ><rect codeLine="6" fill="#FFFFFF" height="56.2969"  rx="2.5" ry="2.5" style="stroke:#000000;stroke-width:0.5;" width="131" x="7" y="467"/><ellipse cx="44.95" cy="483" fill="#ADD1B2" rx="11" ry="11" style="stroke:#181818;stroke-width:1.0;"/><path d="M47.9188,488.6406 Q47.3406,488.9375 46.7,489.0781 Q46.0594,489.2344 45.3563,489.2344 Q42.8563,489.2344 41.5281,487.5938 Q40.2156,485.9375 40.2156,482.8125 Q40.2156,479.6875 41.5281,478.0313 Q42.8563,476.375 45.3563,476.375 Q46.0594,476.375 46.7,476.5313 Q47.3563,476.6875 47.9188,476.9844 L47.9188,479.7031 Q47.2938,479.125 46.7,478.8594 Q46.1063,478.5781 45.4813,478.5781 Q44.1375,478.5781 43.45,479.6563 Q42.7625,480.7188 42.7625,482.8125 Q42.7625,484.9063 43.45,485.9844 Q44.1375,487.0469 45.4813,487.0469 Q46.1063,487.0469 46.7,486.7813 Q47.2938,486.5 47.9188,485.9219 L47.9188,488.6406 Z " fill="#000000"/><text fill="#000000" font-family="sans-serif" font-size="14" lengthAdjust="spacing" textLength="48" x="64.05" y="487.8467">Aspect</text><line style="stroke:#000000;stroke-width:0.5;" x1="8" x2="137" y1="499" y2="499"/><text fill="#000000" font-family="sans-serif" font-size="14" lengthAdjust="spacing" textLength="119" x="13" y="515.9951">ref : Aspect [0..1]</text></g></a><!--MD5=[be996cdb8e6bf2fc7cb89c555f2cd144]
class Entity--><a href="#Entity" target="_top" title="#Entity" xlink:actuate="onRequest" xlink:href="#Entity" xlink:show="new" xlink:title="#Entity" xlink:type="simple"><g ><rect codeLine="26" fill="#FFFFFF" height="40"  rx="2.5" ry="2.5" style="stroke:#000000;stroke-width:0.5;" width="70" x="209.5" y="342"/><ellipse cx="224.5" cy="358" fill="#A9DCDF" rx="11" ry="11" style="stroke:#181818;stroke-width:1.0;"/><path d="M224.6094,353.3438 L223.4531,358.4219 L225.7813,358.4219 L224.6094,353.3438 Z M223.125,351.1094 L226.1094,351.1094 L229.4688,363.5 L227.0156,363.5 L226.25,360.4375 L222.9688,360.4375 L222.2188,363.5 L219.7813,363.5 L223.125,351.1094 Z " fill="#000000"/><text fill="#000000" font-family="sans-serif" font-size="14" font-style="italic" lengthAdjust="spacing" textLength="38" x="238.5" y="362.8467">Entity</text><line style="stroke:#000000;stroke-width:0.5;" x1="210.5" x2="278.5" y1="374" y2="374"/></g></a><!--MD5=[e5192d39c070dac6a79b288c93719d10]
class Classifier--><a href="#Classifier" target="_top" title="#Classifier" xlink:actuate="onRequest" xlink:href="#Classifier" xlink:show="new" xlink:title="#Classifier" xlink:type="simple"><g ><rect codeLine="10" fill="#FFFFFF" height="40"  rx="2.5" ry="2.5" style="stroke:#000000;stroke-width:0.5;" width="93" x="623" y="209"/><ellipse cx="638" cy="225" fill="#A9DCDF" rx="11" ry="11" style="stroke:#181818;stroke-width:1.0;"/><path d="M638.1094,220.3438 L636.9531,225.4219 L639.2813,225.4219 L638.1094,220.3438 Z M636.625,218.1094 L639.6094,218.1094 L642.9688,230.5 L640.5156,230.5 L639.75,227.4375 L636.4688,227.4375 L635.7188,230.5 L633.2813,230.5 L636.625,218.1094 Z " fill="#000000"/><text fill="#000000" font-family="sans-serif" font-size="14" font-style="italic" lengthAdjust="spacing" textLength="61" x="652" y="229.8467">Classifier</text><line style="stroke:#000000;stroke-width:0.5;" x1="624" x2="715" y1="241" y2="241"/></g></a><!--MD5=[eb168ca87557bdcc21e383782124da33]
class ClassifierEquivalenceAxiom--><a href="#ClassifierEquivalenceAxiom" target="_top" title="#ClassifierEquivalenceAxiom" xlink:actuate="onRequest" xlink:href="#ClassifierEquivalenceAxiom" xlink:show="new" xlink:title="#ClassifierEquivalenceAxiom" xlink:type="simple"><g ><rect codeLine="12" fill="#D3D3D3" height="32"  rx="2.5" ry="2.5" style="stroke:#000000;stroke-width:0.5;" width="217" x="315" y="346"/><ellipse cx="330" cy="362" fill="#ADD1B2" rx="11" ry="11" style="stroke:#181818;stroke-width:1.0;"/><path d="M332.9688,367.6406 Q332.3906,367.9375 331.75,368.0781 Q331.1094,368.2344 330.4063,368.2344 Q327.9063,368.2344 326.5781,366.5938 Q325.2656,364.9375 325.2656,361.8125 Q325.2656,358.6875 326.5781,357.0313 Q327.9063,355.375 330.4063,355.375 Q331.1094,355.375 331.75,355.5313 Q332.4063,355.6875 332.9688,355.9844 L332.9688,358.7031 Q332.3438,358.125 331.75,357.8594 Q331.1563,357.5781 330.5313,357.5781 Q329.1875,357.5781 328.5,358.6563 Q327.8125,359.7188 327.8125,361.8125 Q327.8125,363.9063 328.5,364.9844 Q329.1875,366.0469 330.5313,366.0469 Q331.1563,366.0469 331.75,365.7813 Q332.3438,365.5 332.9688,364.9219 L332.9688,367.6406 Z " fill="#000000"/><text fill="#000000" font-family="sans-serif" font-size="14" lengthAdjust="spacing" textLength="185" x="344" y="366.8467">ClassifierEquivalenceAxiom</text></g></a><!--MD5=[25b87728d4df6106c58eefd79f338c2d]
class PropertyRestrictionAxiom--><a href="#PropertyRestrictionAxiom" target="_top" title="#PropertyRestrictionAxiom" xlink:actuate="onRequest" xlink:href="#PropertyRestrictionAxiom" xlink:show="new" xlink:title="#PropertyRestrictionAxiom" xlink:type="simple"><g ><rect codeLine="14" fill="#D3D3D3" height="32"  rx="2.5" ry="2.5" style="stroke:#000000;stroke-width:0.5;" width="205" x="567" y="346"/><ellipse cx="582" cy="362" fill="#A9DCDF" rx="11" ry="11" style="stroke:#181818;stroke-width:1.0;"/><path d="M582.1094,357.3438 L580.9531,362.4219 L583.2813,362.4219 L582.1094,357.3438 Z M580.625,355.1094 L583.6094,355.1094 L586.9688,367.5 L584.5156,367.5 L583.75,364.4375 L580.4688,364.4375 L579.7188,367.5 L577.2813,367.5 L580.625,355.1094 Z " fill="#000000"/><text fill="#000000" font-family="sans-serif" font-size="14" font-style="italic" lengthAdjust="spacing" textLength="173" x="596" y="366.8467">PropertyRestrictionAxiom</text></g></a><!--MD5=[4296a1ab0576a383a1a509d52c22ebf0]
class Type--><a href="#Type" target="_top" title="#Type" xlink:actuate="onRequest" xlink:href="#Type" xlink:show="new" xlink:title="#Type" xlink:type="simple"><g ><rect codeLine="46" fill="#FFFFFF" height="40"  rx="2.5" ry="2.5" style="stroke:#000000;stroke-width:0.5;" width="66" x="893.5" y="100"/><ellipse cx="908.5" cy="116" fill="#A9DCDF" rx="11" ry="11" style="stroke:#181818;stroke-width:1.0;"/><path d="M908.6094,111.3438 L907.4531,116.4219 L909.7813,116.4219 L908.6094,111.3438 Z M907.125,109.1094 L910.1094,109.1094 L913.4688,121.5 L911.0156,121.5 L910.25,118.4375 L906.9688,118.4375 L906.2188,121.5 L903.7813,121.5 L907.125,109.1094 Z " fill="#000000"/><text fill="#000000" font-family="sans-serif" font-size="14" font-style="italic" lengthAdjust="spacing" textLength="34" x="922.5" y="120.8467">Type</text><line style="stroke:#000000;stroke-width:0.5;" x1="894.5" x2="958.5" y1="132" y2="132"/></g></a><!--MD5=[9d451b2f92d848a8e2d1a4dab2b1c6bf]
class Concept--><a href="#Concept" target="_top" title="#Concept" xlink:actuate="onRequest" xlink:href="#Concept" xlink:show="new" xlink:title="#Concept" xlink:type="simple"><g ><rect codeLine="19" fill="#FFFFFF" height="56.2969"  rx="2.5" ry="2.5" style="stroke:#000000;stroke-width:0.5;" width="142" x="173.5" y="467"/><ellipse cx="211.45" cy="483" fill="#ADD1B2" rx="11" ry="11" style="stroke:#181818;stroke-width:1.0;"/><path d="M214.4188,488.6406 Q213.8406,488.9375 213.2,489.0781 Q212.5594,489.2344 211.8563,489.2344 Q209.3563,489.2344 208.0281,487.5938 Q206.7156,485.9375 206.7156,482.8125 Q206.7156,479.6875 208.0281,478.0313 Q209.3563,476.375 211.8563,476.375 Q212.5594,476.375 213.2,476.5313 Q213.8563,476.6875 214.4188,476.9844 L214.4188,479.7031 Q213.7938,479.125 213.2,478.8594 Q212.6063,478.5781 211.9813,478.5781 Q210.6375,478.5781 209.95,479.6563 Q209.2625,480.7188 209.2625,482.8125 Q209.2625,484.9063 209.95,485.9844 Q210.6375,487.0469 211.9813,487.0469 Q212.6063,487.0469 213.2,486.7813 Q213.7938,486.5 214.4188,485.9219 L214.4188,488.6406 Z " fill="#000000"/><text fill="#000000" font-family="sans-serif" font-size="14" lengthAdjust="spacing" textLength="59" x="230.55" y="487.8467">Concept</text><line style="stroke:#000000;stroke-width:0.5;" x1="174.5" x2="314.5" y1="499" y2="499"/><text fill="#000000" font-family="sans-serif" font-size="14" lengthAdjust="spacing" textLength="130" x="179.5" y="515.9951">ref : Concept [0..1]</text></g></a><!--MD5=[7053e9859f017afcc95161742056f1ac]
class InstanceEnumerationAxiom--><a href="#InstanceEnumerationAxiom" target="_top" title="#InstanceEnumerationAxiom" xlink:actuate="onRequest" xlink:href="#InstanceEnumerationAxiom" xlink:show="new" xlink:title="#InstanceEnumerationAxiom" xlink:type="simple"><g ><rect codeLine="22" fill="#D3D3D3" height="32"  rx="2.5" ry="2.5" style="stroke:#000000;stroke-width:0.5;" width="220" x="134.5" y="600"/><ellipse cx="149.5" cy="616" fill="#ADD1B2" rx="11" ry="11" style="stroke:#181818;stroke-width:1.0;"/><path d="M152.4688,621.6406 Q151.8906,621.9375 151.25,622.0781 Q150.6094,622.2344 149.9063,622.2344 Q147.4063,622.2344 146.0781,620.5938 Q144.7656,618.9375 144.7656,615.8125 Q144.7656,612.6875 146.0781,611.0313 Q147.4063,609.375 149.9063,609.375 Q150.6094,609.375 151.25,609.5313 Q151.9063,609.6875 152.4688,609.9844 L152.4688,612.7031 Q151.8438,612.125 151.25,611.8594 Q150.6563,611.5781 150.0313,611.5781 Q148.6875,611.5781 148,612.6563 Q147.3125,613.7188 147.3125,615.8125 Q147.3125,617.9063 148,618.9844 Q148.6875,620.0469 150.0313,620.0469 Q150.6563,620.0469 151.25,619.7813 Q151.8438,619.5 152.4688,618.9219 L152.4688,621.6406 Z " fill="#000000"/><text fill="#000000" font-family="sans-serif" font-size="14" lengthAdjust="spacing" textLength="188" x="163.5" y="620.8467">InstanceEnumerationAxiom</text></g></a><!--MD5=[0a55d74c0dcca380b5c4c14816504637]
class KeyAxiom--><a href="#KeyAxiom" target="_top" title="#KeyAxiom" xlink:actuate="onRequest" xlink:href="#KeyAxiom" xlink:show="new" xlink:title="#KeyAxiom" xlink:type="simple"><g ><rect codeLine="28" fill="#D3D3D3" height="32"  rx="2.5" ry="2.5" style="stroke:#000000;stroke-width:0.5;" width="98" x="350.5" y="479"/><ellipse cx="365.5" cy="495" fill="#ADD1B2" rx="11" ry="11" style="stroke:#181818;stroke-width:1.0;"/><path d="M368.4688,500.6406 Q367.8906,500.9375 367.25,501.0781 Q366.6094,501.2344 365.9063,501.2344 Q363.4063,501.2344 362.0781,499.5938 Q360.7656,497.9375 360.7656,494.8125 Q360.7656,491.6875 362.0781,490.0313 Q363.4063,488.375 365.9063,488.375 Q366.6094,488.375 367.25,488.5313 Q367.9063,488.6875 368.4688,488.9844 L368.4688,491.7031 Q367.8438,491.125 367.25,490.8594 Q366.6563,490.5781 366.0313,490.5781 Q364.6875,490.5781 364,491.6563 Q363.3125,492.7188 363.3125,494.8125 Q363.3125,496.9063 364,497.9844 Q364.6875,499.0469 366.0313,499.0469 Q366.6563,499.0469 367.25,498.7813 Q367.8438,498.5 368.4688,497.9219 L368.4688,500.6406 Z " fill="#000000"/><text fill="#000000" font-family="sans-serif" font-size="14" lengthAdjust="spacing" textLength="66" x="379.5" y="499.8467">KeyAxiom</text></g></a><!--MD5=[8df1fea275d58a2acc76681eea45b180]
class Scalar--><a href="#Scalar" target="_top" title="#Scalar" xlink:actuate="onRequest" xlink:href="#Scalar" xlink:show="new" xlink:title="#Scalar" xlink:type="simple"><g ><rect codeLine="32" fill="#FFFFFF" height="56.2969"  rx="2.5" ry="2.5" style="stroke:#000000;stroke-width:0.5;" width="124" x="1027.5" y="201"/><ellipse cx="1065.45" cy="217" fill="#ADD1B2" rx="11" ry="11" style="stroke:#181818;stroke-width:1.0;"/><path d="M1068.4188,222.6406 Q1067.8406,222.9375 1067.2,223.0781 Q1066.5594,223.2344 1065.8563,223.2344 Q1063.3563,223.2344 1062.0281,221.5938 Q1060.7156,219.9375 1060.7156,216.8125 Q1060.7156,213.6875 1062.0281,212.0313 Q1063.3563,210.375 1065.8563,210.375 Q1066.5594,210.375 1067.2,210.5313 Q1067.8563,210.6875 1068.4188,210.9844 L1068.4188,213.7031 Q1067.7938,213.125 1067.2,212.8594 Q1066.6063,212.5781 1065.9813,212.5781 Q1064.6375,212.5781 1063.95,213.6563 Q1063.2625,214.7188 1063.2625,216.8125 Q1063.2625,218.9063 1063.95,219.9844 Q1064.6375,221.0469 1065.9813,221.0469 Q1066.6063,221.0469 1067.2,220.7813 Q1067.7938,220.5 1068.4188,219.9219 L1068.4188,222.6406 Z " fill="#000000"/><text fill="#000000" font-family="sans-serif" font-size="14" lengthAdjust="spacing" textLength="41" x="1084.55" y="221.8467">Scalar</text><line style="stroke:#000000;stroke-width:0.5;" x1="1028.5" x2="1150.5" y1="233" y2="233"/><text fill="#000000" font-family="sans-serif" font-size="14" lengthAdjust="spacing" textLength="112" x="1033.5" y="249.9951">ref : Scalar [0..1]</text></g></a><!--MD5=[057f9d7a88870fc2e31e05f3f4c4c4bc]
class LiteralEnumerationAxiom--><a href="#LiteralEnumerationAxiom" target="_top" title="#LiteralEnumerationAxiom" xlink:actuate="onRequest" xlink:href="#LiteralEnumerationAxiom" xlink:show="new" xlink:title="#LiteralEnumerationAxiom" xlink:type="simple"><g ><rect codeLine="35" fill="#D3D3D3" height="32"  rx="2.5" ry="2.5" style="stroke:#000000;stroke-width:0.5;" width="201" x="989" y="346"/><ellipse cx="1004" cy="362" fill="#ADD1B2" rx="11" ry="11" style="stroke:#181818;stroke-width:1.0;"/><path d="M1006.9688,367.6406 Q1006.3906,367.9375 1005.75,368.0781 Q1005.1094,368.2344 1004.4063,368.2344 Q1001.9063,368.2344 1000.5781,366.5938 Q999.2656,364.9375 999.2656,361.8125 Q999.2656,358.6875 1000.5781,357.0313 Q1001.9063,355.375 1004.4063,355.375 Q1005.1094,355.375 1005.75,355.5313 Q1006.4063,355.6875 1006.9688,355.9844 L1006.9688,358.7031 Q1006.3438,358.125 1005.75,357.8594 Q1005.1563,357.5781 1004.5313,357.5781 Q1003.1875,357.5781 1002.5,358.6563 Q1001.8125,359.7188 1001.8125,361.8125 Q1001.8125,363.9063 1002.5,364.9844 Q1003.1875,366.0469 1004.5313,366.0469 Q1005.1563,366.0469 1005.75,365.7813 Q1006.3438,365.5 1006.9688,364.9219 L1006.9688,367.6406 Z " fill="#000000"/><text fill="#000000" font-family="sans-serif" font-size="14" lengthAdjust="spacing" textLength="169" x="1018" y="366.8467">LiteralEnumerationAxiom</text></g></a><!--MD5=[4c14c02cf9649986ab1ef46b3e75319d]
class ScalarEquivalenceAxiom--><a href="#ScalarEquivalenceAxiom" target="_top" title="#ScalarEquivalenceAxiom" xlink:actuate="onRequest" xlink:href="#ScalarEquivalenceAxiom" xlink:show="new" xlink:title="#ScalarEquivalenceAxiom" xlink:type="simple"><g ><rect codeLine="37" fill="#D3D3D3" height="32"  rx="2.5" ry="2.5" style="stroke:#000000;stroke-width:0.5;" width="197" x="1225" y="346"/><ellipse cx="1240" cy="362" fill="#ADD1B2" rx="11" ry="11" style="stroke:#181818;stroke-width:1.0;"/><path d="M1242.9688,367.6406 Q1242.3906,367.9375 1241.75,368.0781 Q1241.1094,368.2344 1240.4063,368.2344 Q1237.9063,368.2344 1236.5781,366.5938 Q1235.2656,364.9375 1235.2656,361.8125 Q1235.2656,358.6875 1236.5781,357.0313 Q1237.9063,355.375 1240.4063,355.375 Q1241.1094,355.375 1241.75,355.5313 Q1242.4063,355.6875 1242.9688,355.9844 L1242.9688,358.7031 Q1242.3438,358.125 1241.75,357.8594 Q1241.1563,357.5781 1240.5313,357.5781 Q1239.1875,357.5781 1238.5,358.6563 Q1237.8125,359.7188 1237.8125,361.8125 Q1237.8125,363.9063 1238.5,364.9844 Q1239.1875,366.0469 1240.5313,366.0469 Q1241.1563,366.0469 1241.75,365.7813 Q1242.3438,365.5 1242.9688,364.9219 L1242.9688,367.6406 Z " fill="#000000"/><text fill="#000000" font-family="sans-serif" font-size="14" lengthAdjust="spacing" textLength="165" x="1254" y="366.8467">ScalarEquivalenceAxiom</text></g></a><!--MD5=[3915787db80ab162e3259f8f86339844]
class Structure--><a href="#Structure" target="_top" title="#Structure" xlink:actuate="onRequest" xlink:href="#Structure" xlink:show="new" xlink:title="#Structure" xlink:type="simple"><g ><rect codeLine="42" fill="#FFFFFF" height="56.2969"  rx="2.5" ry="2.5" style="stroke:#000000;stroke-width:0.5;" width="147" x="807" y="334"/><ellipse cx="844.95" cy="350" fill="#ADD1B2" rx="11" ry="11" style="stroke:#181818;stroke-width:1.0;"/><path d="M847.9188,355.6406 Q847.3406,355.9375 846.7,356.0781 Q846.0594,356.2344 845.3563,356.2344 Q842.8563,356.2344 841.5281,354.5938 Q840.2156,352.9375 840.2156,349.8125 Q840.2156,346.6875 841.5281,345.0313 Q842.8563,343.375 845.3563,343.375 Q846.0594,343.375 846.7,343.5313 Q847.3563,343.6875 847.9188,343.9844 L847.9188,346.7031 Q847.2938,346.125 846.7,345.8594 Q846.1063,345.5781 845.4813,345.5781 Q844.1375,345.5781 843.45,346.6563 Q842.7625,347.7188 842.7625,349.8125 Q842.7625,351.9063 843.45,352.9844 Q844.1375,354.0469 845.4813,354.0469 Q846.1063,354.0469 846.7,353.7813 Q847.2938,353.5 847.9188,352.9219 L847.9188,355.6406 Z " fill="#000000"/><text fill="#000000" font-family="sans-serif" font-size="14" lengthAdjust="spacing" textLength="64" x="864.05" y="354.8467">Structure</text><line style="stroke:#000000;stroke-width:0.5;" x1="808" x2="953" y1="366" y2="366"/><text fill="#000000" font-family="sans-serif" font-size="14" lengthAdjust="spacing" textLength="135" x="813" y="382.9951">ref : Structure [0..1]</text></g></a><!--MD5=[a052ffd04a2a5cd2f202acb632be8a32]
class SpecializableTerm--><a href="#SpecializableTerm" target="_top" title="#SpecializableTerm" xlink:actuate="onRequest" xlink:href="#SpecializableTerm" xlink:show="new" xlink:title="#SpecializableTerm" xlink:type="simple"><g ><rect codeLine="48" fill="#D3D3D3" height="32"  rx="2.5" ry="2.5" style="stroke:#000000;stroke-width:0.5;" width="157" x="848" y="7"/><ellipse cx="863" cy="23" fill="#A9DCDF" rx="11" ry="11" style="stroke:#181818;stroke-width:1.0;"/><path d="M863.1094,18.3438 L861.9531,23.4219 L864.2813,23.4219 L863.1094,18.3438 Z M861.625,16.1094 L864.6094,16.1094 L867.9688,28.5 L865.5156,28.5 L864.75,25.4375 L861.4688,25.4375 L860.7188,28.5 L858.2813,28.5 L861.625,16.1094 Z " fill="#000000"/><text fill="#000000" font-family="sans-serif" font-size="14" font-style="italic" lengthAdjust="spacing" textLength="125" x="877" y="27.8467">SpecializableTerm</text></g></a><!--MD5=[0abf851eea2009ab8e245bc302625de3]
reverse link Entity to Aspect--><g ><a href="#Entity" target="_top" title="#Entity" xlink:actuate="onRequest" xlink:href="#Entity" xlink:show="new" xlink:title="#Entity" xlink:type="simple"><path codeLine="9" d="M203.215,394.444 C174.163,416.571 135.68,445.881 108.002,466.96 " fill="none"  style="stroke:#000000;stroke-width:1.0;"/><polygon fill="none" points="199.338,388.598,219.49,382.049,207.82,399.735,199.338,388.598" style="stroke:#000000;stroke-width:1.0;"/></a></g><!--MD5=[0d3949cae1fd8482e1cbd479cbe08885]
reverse link Type to Classifier--><g ><a href="#Type" target="_top" title="#Type" xlink:actuate="onRequest" xlink:href="#Type" xlink:show="new" xlink:title="#Type" xlink:type="simple"><path codeLine="16" d="M874.88,142.492 C828.247,161.907 760.252,190.216 715.458,208.866 " fill="none"  style="stroke:#000000;stroke-width:1.0;"/><polygon fill="none" points="872.274,135.994,893.428,134.769,877.655,148.919,872.274,135.994" style="stroke:#000000;stroke-width:1.0;"/></a></g><!--MD5=[c99a22fb0252ef7f49a51b30a489f584]
link Classifier to ClassifierEquivalenceAxiom--><g ><path codeLine="17" d="M611.8154,251.8579 C611.8154,251.8579 559.49,274.11 535.5,287 C507.004,302.311 476.483,322.773 454.51,338.3 " fill="none"  style="stroke:#000000;stroke-width:1.0;"/><polygon fill="#000000" points="443.855,345.916,453.5028,343.9362,447.9226,343.0083,448.8505,337.4281,443.855,345.916" style="stroke:#000000;stroke-width:1.0;"/><line style="stroke:#000000;stroke-width:1.0;" x1="447.9226" x2="454.431" y1="343.0083" y2="338.3565"/><polygon fill="#000000" points="622.949,247.381,615.8899,245.9083,611.8154,251.8579,618.8745,253.3307,622.949,247.381" style="stroke:#000000;stroke-width:1.0;"/><text fill="#000000" font-family="sans-serif" font-size="13" lengthAdjust="spacing" textLength="124" x="536.5" y="300.0669">ownedEquivalences</text><text fill="#000000" font-family="sans-serif" font-size="13" lengthAdjust="spacing" textLength="7" x="442.6489" y="334.8987">*</text></g><!--MD5=[f7ce2e3c3abb92329d246d3e7650ce51]
link Classifier to PropertyRestrictionAxiom--><g ><path codeLine="18" d="M669.5,261.049 C669.5,261.049 669.5,311.644 669.5,332.326 " fill="none"  style="stroke:#000000;stroke-width:1.0;"/><polygon fill="#000000" points="669.5,345.612,673.5,336.612,669.5,340.612,665.5,336.612,669.5,345.612" style="stroke:#000000;stroke-width:1.0;"/><line style="stroke:#000000;stroke-width:1.0;" x1="669.5" x2="669.5" y1="340.612" y2="332.612"/><polygon fill="#000000" points="669.5,249.049,665.5,255.049,669.5,261.049,673.5,255.049,669.5,249.049" style="stroke:#000000;stroke-width:1.0;"/><text fill="#000000" font-family="sans-serif" font-size="13" lengthAdjust="spacing" textLength="169" x="670.5" y="300.0669">ownedPropertyRestrictions</text><text fill="#000000" font-family="sans-serif" font-size="13" lengthAdjust="spacing" textLength="7" x="661.3406" y="334.788">*</text></g><!--MD5=[ce0521f33bac9a60c2dc1cddde561f51]
reverse link Entity to Concept--><g ><a href="#Entity" target="_top" title="#Entity" xlink:actuate="onRequest" xlink:href="#Entity" xlink:show="new" xlink:title="#Entity" xlink:type="simple"><path codeLine="24" d="M244.5,402.105 C244.5,422.925 244.5,448.018 244.5,466.719 " fill="none"  style="stroke:#000000;stroke-width:1.0;"/><polygon fill="none" points="237.5,402.049,244.5,382.049,251.5,402.048,237.5,402.049" style="stroke:#000000;stroke-width:1.0;"/></a></g><!--MD5=[61bc753c943a07d2e3d96402a298ff59]
link Concept to InstanceEnumerationAxiom--><g ><path codeLine="25" d="M244.5,535.003 C244.5,535.003 244.5,571.5902 244.5,586.6396 " fill="none"  style="stroke:#000000;stroke-width:1.0;"/><polygon fill="#000000" points="244.5,599.7414,248.5,590.7414,244.5,594.7414,240.5,590.7414,244.5,599.7414" style="stroke:#000000;stroke-width:1.0;"/><line style="stroke:#000000;stroke-width:1.0;" x1="244.5" x2="244.5" y1="594.7414" y2="586.7415"/><polygon fill="#000000" points="244.5,523.003,240.5,529.003,244.5,535.003,248.5,529.003,244.5,523.003" style="stroke:#000000;stroke-width:1.0;"/><text fill="#000000" font-family="sans-serif" font-size="13" lengthAdjust="spacing" textLength="123" x="245.5" y="566.0669">ownedEnumeration</text><text fill="#000000" font-family="sans-serif" font-size="13" lengthAdjust="spacing" textLength="24" x="216.525" y="588.9603">0..1</text></g><!--MD5=[7a97ffb6ab9ea2c0361d9098f8e56954]
reverse link Classifier to Entity--><g ><a href="#Classifier" target="_top" title="#Classifier" xlink:actuate="onRequest" xlink:href="#Classifier" xlink:show="new" xlink:title="#Classifier" xlink:type="simple"><path codeLine="30" d="M602.839,244.413 C527.38,261.692 401.434,293.462 297.5,334 C291.535,336.327 285.351,339.11 279.403,341.992 " fill="none"  style="stroke:#000000;stroke-width:1.0;"/><polygon fill="none" points="601.673,237.5,622.723,239.929,604.753,251.157,601.673,237.5" style="stroke:#000000;stroke-width:1.0;"/></a></g><!--MD5=[db23ab7cdfc400530cdecb4e86d3af31]
link Entity to KeyAxiom--><g ><path codeLine="31" d="M276.203,389.7951 C276.203,389.7951 344.597,447.599 371.134,470.026 " fill="none"  style="stroke:#000000;stroke-width:1.0;"/><polygon fill="#000000" points="381.292,478.612,377.0003,469.7474,377.4732,475.3845,371.8362,475.8574,381.292,478.612" style="stroke:#000000;stroke-width:1.0;"/><line style="stroke:#000000;stroke-width:1.0;" x1="377.4732" x2="371.363" y1="475.3845" y2="470.22"/><polygon fill="#000000" points="267.038,382.049,269.0385,388.9771,276.203,389.7951,274.2026,382.867,267.038,382.049" style="stroke:#000000;stroke-width:1.0;"/><text fill="#000000" font-family="sans-serif" font-size="13" lengthAdjust="spacing" textLength="71" x="332.5" y="433.0669">ownedKeys</text><text fill="#000000" font-family="sans-serif" font-size="13" lengthAdjust="spacing" textLength="7" x="367.1012" y="467.788">*</text></g><!--MD5=[8a7fe0c796e206ec2d738c1808358d2f]
reverse link Type to Scalar--><g ><a href="#Type" target="_top" title="#Type" xlink:actuate="onRequest" xlink:href="#Type" xlink:show="new" xlink:title="#Type" xlink:type="simple"><path codeLine="39" d="M972.705,151.331 C996.521,166.965 1025.32,185.871 1048.36,200.997 " fill="none"  style="stroke:#000000;stroke-width:1.0;"/><polygon fill="none" points="968.519,156.957,955.641,140.129,976.202,145.253,968.519,156.957" style="stroke:#000000;stroke-width:1.0;"/></a></g><!--MD5=[85125e11c03765a3f09529cfec01be61]
link Scalar to LiteralEnumerationAxiom--><g ><path codeLine="40" d="M1089.5,269.143 C1089.5,269.143 1089.5,314.3 1089.5,332.529 " fill="none"  style="stroke:#000000;stroke-width:1.0;"/><polygon fill="#000000" points="1089.5,345.746,1093.5,336.746,1089.5,340.746,1085.5,336.746,1089.5,345.746" style="stroke:#000000;stroke-width:1.0;"/><line style="stroke:#000000;stroke-width:1.0;" x1="1089.5" x2="1089.5" y1="340.746" y2="332.746"/><polygon fill="#000000" points="1089.5,257.143,1085.5,263.143,1089.5,269.143,1093.5,263.143,1089.5,257.143" style="stroke:#000000;stroke-width:1.0;"/><text fill="#000000" font-family="sans-serif" font-size="13" lengthAdjust="spacing" textLength="123" x="1090.5" y="300.0669">ownedEnumeration</text><text fill="#000000" font-family="sans-serif" font-size="13" lengthAdjust="spacing" textLength="24" x="1061.525" y="334.9664">0..1</text></g><!--MD5=[24b7972ba66f463be6fadd05b02217de]
link Scalar to ScalarEquivalenceAxiom--><g ><path codeLine="41" d="M1162.8805,257.9307 C1162.8805,257.9307 1204.16,276.532 1222.5,287 C1248.34,301.75 1275.43,321.885 1295.04,337.429 " fill="none"  style="stroke:#000000;stroke-width:1.0;"/><polygon fill="#000000" points="1305.38,345.751,1300.872,336.9944,1301.4832,342.6181,1295.8594,343.2293,1305.38,345.751" style="stroke:#000000;stroke-width:1.0;"/><line style="stroke:#000000;stroke-width:1.0;" x1="1301.4832" x2="1295.25" y1="342.6181" y2="337.601"/><polygon fill="#000000" points="1151.82,253.276,1155.7987,259.2902,1162.8805,257.9307,1158.9018,251.9165,1151.82,253.276" style="stroke:#000000;stroke-width:1.0;"/><text fill="#000000" font-family="sans-serif" font-size="13" lengthAdjust="spacing" textLength="124" x="1250.5" y="300.0669">ownedEquivalences</text><text fill="#000000" font-family="sans-serif" font-size="13" lengthAdjust="spacing" textLength="7" x="1291.2184" y="334.973">*</text></g><!--MD5=[922d876f033ed0737806170cbb54f612]
reverse link Classifier to Structure--><g ><a href="#Classifier" target="_top" title="#Classifier" xlink:actuate="onRequest" xlink:href="#Classifier" xlink:show="new" xlink:title="#Classifier" xlink:type="simple"><path codeLine="45" d="M736.19,237.573 C773.122,244.846 817.658,259.094 848.5,287 C861.993,299.208 870.034,318.1 874.681,333.739 " fill="none"  style="stroke:#000000;stroke-width:1.0;"/><polygon fill="none" points="734.845,244.445,716.314,234.168,737.209,230.646,734.845,244.445" style="stroke:#000000;stroke-width:1.0;"/></a></g><!--MD5=[390e593eb08e5c364c6f56fa2b328cb9]
reverse link SpecializableTerm to Type--><g ><a href="#SpecializableTerm" target="_top" title="#SpecializableTerm" xlink:actuate="onRequest" xlink:href="#SpecializableTerm" xlink:show="new" xlink:title="#SpecializableTerm" xlink:type="simple"><path codeLine="50" d="M926.5,59.472 C926.5,73.156 926.5,88.266 926.5,99.838 " fill="none"  style="stroke:#000000;stroke-width:1.0;"/><polygon fill="none" points="919.5,59.263,926.5,39.263,933.5,59.263,919.5,59.263" style="stroke:#000000;stroke-width:1.0;"/></a></g><!--MD5=[7c03decd86e2754b42c3a5ddef7a1397]
@startuml
skinparam classBackgroundColor LightGray
skinparam classBorderColor Black
skinparam enumBorderColor Black
skinparam ArrowColor Black
hide methods
class Aspect [[#Aspect]] #white {
	ref : Aspect [0..1]
}
Aspect -up-|> Entity [[#Entity]]
abstract class Classifier [[#Classifier]] #white {
}
class ClassifierEquivalenceAxiom [[#ClassifierEquivalenceAxiom]]
hide ClassifierEquivalenceAxiom members
abstract class PropertyRestrictionAxiom [[#PropertyRestrictionAxiom]]
hide PropertyRestrictionAxiom members
Classifier -up-|> Type [[#Type]]
Classifier *- -> "*" ClassifierEquivalenceAxiom : ownedEquivalences
Classifier *- -> "*" PropertyRestrictionAxiom : ownedPropertyRestrictions
class Concept [[#Concept]] #white {
	ref : Concept [0..1]
}
class InstanceEnumerationAxiom [[#InstanceEnumerationAxiom]]
hide InstanceEnumerationAxiom members
Concept -up-|> Entity [[#Entity]]
Concept *- -> "0..1" InstanceEnumerationAxiom : ownedEnumeration
abstract class Entity [[#Entity]] #white {
}
class KeyAxiom [[#KeyAxiom]]
hide KeyAxiom members
Entity -up-|> Classifier [[#Classifier]]
Entity *- -> "*" KeyAxiom : ownedKeys
class Scalar [[#Scalar]] #white {
	ref : Scalar [0..1]
}
class LiteralEnumerationAxiom [[#LiteralEnumerationAxiom]]
hide LiteralEnumerationAxiom members
class ScalarEquivalenceAxiom [[#ScalarEquivalenceAxiom]]
hide ScalarEquivalenceAxiom members
Scalar -up-|> Type [[#Type]]
Scalar *- -> "0..1" LiteralEnumerationAxiom : ownedEnumeration
Scalar *- -> "*" ScalarEquivalenceAxiom : ownedEquivalences
class Structure [[#Structure]] #white {
	ref : Structure [0..1]
}
Structure -up-|> Classifier [[#Classifier]]
abstract class Type [[#Type]] #white {
}
abstract class SpecializableTerm [[#SpecializableTerm]]
hide SpecializableTerm members
Type -up-|> SpecializableTerm [[#SpecializableTerm]]
@enduml

PlantUML version 1.2022.12(Sun Oct 23 18:12:26 UTC 2022)
(GPL source distribution)
Java Runtime: OpenJDK Runtime Environment
JVM: OpenJDK 64-Bit Server VM
Default Encoding: UTF-8
Language: en
Country: US
--></g></svg>
