<?xml version="1.0" encoding="UTF-8" standalone="no"?><svg xmlns="http://www.w3.org/2000/svg" xmlns:xlink="http://www.w3.org/1999/xlink" contentStyleType="text/css" height="487px" preserveAspectRatio="none" style="width:1292px;height:487px;background:#FFFFFF;" version="1.1" viewBox="0 0 1292 487" width="1292px" zoomAndPan="magnify"><defs/><g><!--MD5=[7be4accb63ef2d7032b8e65d0d7d84e2]
class AnnotationProperty--><a href="#AnnotationProperty" target="_top" title="#AnnotationProperty" xlink:actuate="onRequest" xlink:href="#AnnotationProperty" xlink:show="new" xlink:title="#AnnotationProperty" xlink:type="simple"><g ><rect codeLine="6" fill="#FFFFFF" height="56.2969"  rx="2.5" ry="2.5" style="stroke:#000000;stroke-width:0.5;" width="216" x="7" y="399.5"/><ellipse cx="44.95" cy="415.5" fill="#ADD1B2" rx="11" ry="11" style="stroke:#181818;stroke-width:1.0;"/><path d="M47.9188,421.1406 Q47.3406,421.4375 46.7,421.5781 Q46.0594,421.7344 45.3563,421.7344 Q42.8563,421.7344 41.5281,420.0938 Q40.2156,418.4375 40.2156,415.3125 Q40.2156,412.1875 41.5281,410.5313 Q42.8563,408.875 45.3563,408.875 Q46.0594,408.875 46.7,409.0313 Q47.3563,409.1875 47.9188,409.4844 L47.9188,412.2031 Q47.2938,411.625 46.7,411.3594 Q46.1063,411.0781 45.4813,411.0781 Q44.1375,411.0781 43.45,412.1563 Q42.7625,413.2188 42.7625,415.3125 Q42.7625,417.4063 43.45,418.4844 Q44.1375,419.5469 45.4813,419.5469 Q46.1063,419.5469 46.7,419.2813 Q47.2938,419 47.9188,418.4219 L47.9188,421.1406 Z " fill="#000000"/><text fill="#000000" font-family="sans-serif" font-size="14" lengthAdjust="spacing" textLength="133" x="64.05" y="420.3467">AnnotationProperty</text><line style="stroke:#000000;stroke-width:0.5;" x1="8" x2="222" y1="431.5" y2="431.5"/><text fill="#000000" font-family="sans-serif" font-size="14" lengthAdjust="spacing" textLength="204" x="13" y="448.4951">ref : AnnotationProperty [0..1]</text></g></a><!--MD5=[55daf1dc0d260d9c669478f58aaef103]
class SpecializableProperty--><a href="#SpecializableProperty" target="_top" title="#SpecializableProperty" xlink:actuate="onRequest" xlink:href="#SpecializableProperty" xlink:show="new" xlink:title="#SpecializableProperty" xlink:type="simple"><g ><rect codeLine="38" fill="#FFFFFF" height="40"  rx="2.5" ry="2.5" style="stroke:#000000;stroke-width:0.5;" width="179" x="524.5" y="258"/><ellipse cx="539.5" cy="274" fill="#A9DCDF" rx="11" ry="11" style="stroke:#181818;stroke-width:1.0;"/><path d="M539.6094,269.3438 L538.4531,274.4219 L540.7813,274.4219 L539.6094,269.3438 Z M538.125,267.1094 L541.1094,267.1094 L544.4688,279.5 L542.0156,279.5 L541.25,276.4375 L537.9688,276.4375 L537.2188,279.5 L534.7813,279.5 L538.125,267.1094 Z " fill="#000000"/><text fill="#000000" font-family="sans-serif" font-size="14" font-style="italic" lengthAdjust="spacing" textLength="147" x="553.5" y="278.8467">SpecializableProperty</text><line style="stroke:#000000;stroke-width:0.5;" x1="525.5" x2="702.5" y1="290" y2="290"/></g></a><!--MD5=[b9df8f705b5094b48e4ad7fbc6172f13]
class CardinalityRestrictionKind--><a href="#CardinalityRestrictionKind" target="_top" title="#CardinalityRestrictionKind" xlink:actuate="onRequest" xlink:href="#CardinalityRestrictionKind" xlink:show="new" xlink:title="#CardinalityRestrictionKind" xlink:type="simple"><g ><rect codeLine="10" fill="#FFFFFF" height="88.8906"  rx="2.5" ry="2.5" style="stroke:#000000;stroke-width:0.5;" width="206" x="863" y="7"/><ellipse cx="878" cy="23" fill="#EB937F" rx="11" ry="11" style="stroke:#181818;stroke-width:1.0;"/><path d="M882.1094,29 L874.3906,29 L874.3906,16.6094 L882.1094,16.6094 L882.1094,18.7656 L876.8438,18.7656 L876.8438,21.4375 L881.6094,21.4375 L881.6094,23.5938 L876.8438,23.5938 L876.8438,26.8438 L882.1094,26.8438 L882.1094,29 Z " fill="#000000"/><text fill="#000000" font-family="sans-serif" font-size="14" lengthAdjust="spacing" textLength="174" x="892" y="27.8467">CardinalityRestrictionKind</text><line style="stroke:#000000;stroke-width:0.5;" x1="864" x2="1068" y1="39" y2="39"/><text fill="#000000" font-family="sans-serif" font-size="14" lengthAdjust="spacing" textLength="47" x="869" y="55.9951">exactly</text><text fill="#000000" font-family="sans-serif" font-size="14" lengthAdjust="spacing" textLength="25" x="869" y="72.292">min</text><text fill="#000000" font-family="sans-serif" font-size="14" lengthAdjust="spacing" textLength="28" x="869" y="88.5889">max</text></g></a><!--MD5=[6b626634f3bb0842bebd5e499c80b711]
class Property--><a href="#Property" target="_top" title="#Property" xlink:actuate="onRequest" xlink:href="#Property" xlink:show="new" xlink:title="#Property" xlink:type="simple"><g ><rect codeLine="15" fill="#FFFFFF" height="40"  rx="2.5" ry="2.5" style="stroke:#000000;stroke-width:0.5;" width="90" x="749" y="157"/><ellipse cx="764" cy="173" fill="#A9DCDF" rx="11" ry="11" style="stroke:#181818;stroke-width:1.0;"/><path d="M764.1094,168.3438 L762.9531,173.4219 L765.2813,173.4219 L764.1094,168.3438 Z M762.625,166.1094 L765.6094,166.1094 L768.9688,178.5 L766.5156,178.5 L765.75,175.4375 L762.4688,175.4375 L761.7188,178.5 L759.2813,178.5 L762.625,166.1094 Z " fill="#000000"/><text fill="#000000" font-family="sans-serif" font-size="14" font-style="italic" lengthAdjust="spacing" textLength="58" x="778" y="177.8467">Property</text><line style="stroke:#000000;stroke-width:0.5;" x1="750" x2="838" y1="189" y2="189"/></g></a><!--MD5=[9d35236b92952560f647498cf8a29acb]
class Term--><a href="#Term" target="_top" title="#Term" xlink:actuate="onRequest" xlink:href="#Term" xlink:show="new" xlink:title="#Term" xlink:type="simple"><g ><rect codeLine="17" fill="#D3D3D3" height="32"  rx="2.5" ry="2.5" style="stroke:#000000;stroke-width:0.5;" width="68" x="760" y="35.5"/><ellipse cx="775" cy="51.5" fill="#A9DCDF" rx="11" ry="11" style="stroke:#181818;stroke-width:1.0;"/><path d="M775.1094,46.8438 L773.9531,51.9219 L776.2813,51.9219 L775.1094,46.8438 Z M773.625,44.6094 L776.6094,44.6094 L779.9688,57 L777.5156,57 L776.75,53.9375 L773.4688,53.9375 L772.7188,57 L770.2813,57 L773.625,44.6094 Z " fill="#000000"/><text fill="#000000" font-family="sans-serif" font-size="14" font-style="italic" lengthAdjust="spacing" textLength="36" x="789" y="56.3467">Term</text></g></a><!--MD5=[07ec5174949cf3d1a10d06664e8a23f3]
class RangeRestrictionKind--><a href="#RangeRestrictionKind" target="_top" title="#RangeRestrictionKind" xlink:actuate="onRequest" xlink:href="#RangeRestrictionKind" xlink:show="new" xlink:title="#RangeRestrictionKind" xlink:type="simple"><g ><rect codeLine="20" fill="#FFFFFF" height="72.5938"  rx="2.5" ry="2.5" style="stroke:#000000;stroke-width:0.5;" width="181" x="1104.5" y="15"/><ellipse cx="1119.5" cy="31" fill="#EB937F" rx="11" ry="11" style="stroke:#181818;stroke-width:1.0;"/><path d="M1123.6094,37 L1115.8906,37 L1115.8906,24.6094 L1123.6094,24.6094 L1123.6094,26.7656 L1118.3438,26.7656 L1118.3438,29.4375 L1123.1094,29.4375 L1123.1094,31.5938 L1118.3438,31.5938 L1118.3438,34.8438 L1123.6094,34.8438 L1123.6094,37 Z " fill="#000000"/><text fill="#000000" font-family="sans-serif" font-size="14" lengthAdjust="spacing" textLength="149" x="1133.5" y="35.8467">RangeRestrictionKind</text><line style="stroke:#000000;stroke-width:0.5;" x1="1105.5" x2="1284.5" y1="47" y2="47"/><text fill="#000000" font-family="sans-serif" font-size="14" lengthAdjust="spacing" textLength="14" x="1110.5" y="63.9951">all</text><text fill="#000000" font-family="sans-serif" font-size="14" lengthAdjust="spacing" textLength="39" x="1110.5" y="80.292">some</text></g></a><!--MD5=[534474e9f05b14d7c70186ae077f30e0]
class Relation--><a href="#Relation" target="_top" title="#Relation" xlink:actuate="onRequest" xlink:href="#Relation" xlink:show="new" xlink:title="#Relation" xlink:type="simple"><g ><rect codeLine="24" fill="#FFFFFF" height="40"  rx="2.5" ry="2.5" style="stroke:#000000;stroke-width:0.5;" width="88" x="973" y="407.5"/><ellipse cx="988" cy="423.5" fill="#A9DCDF" rx="11" ry="11" style="stroke:#181818;stroke-width:1.0;"/><path d="M988.1094,418.8438 L986.9531,423.9219 L989.2813,423.9219 L988.1094,418.8438 Z M986.625,416.6094 L989.6094,416.6094 L992.9688,429 L990.5156,429 L989.75,425.9375 L986.4688,425.9375 L985.7188,429 L983.2813,429 L986.625,416.6094 Z " fill="#000000"/><text fill="#000000" font-family="sans-serif" font-size="14" font-style="italic" lengthAdjust="spacing" textLength="56" x="1002" y="428.3467">Relation</text><line style="stroke:#000000;stroke-width:0.5;" x1="974" x2="1060" y1="439.5" y2="439.5"/></g></a><!--MD5=[20d34aacf7daeed7e68fc4fc3bb2a664]
class SemanticProperty--><a href="#SemanticProperty" target="_top" title="#SemanticProperty" xlink:actuate="onRequest" xlink:href="#SemanticProperty" xlink:show="new" xlink:title="#SemanticProperty" xlink:type="simple"><g ><rect codeLine="35" fill="#FFFFFF" height="40"  rx="2.5" ry="2.5" style="stroke:#000000;stroke-width:0.5;" width="154" x="754" y="258"/><ellipse cx="769" cy="274" fill="#A9DCDF" rx="11" ry="11" style="stroke:#181818;stroke-width:1.0;"/><path d="M769.1094,269.3438 L767.9531,274.4219 L770.2813,274.4219 L769.1094,269.3438 Z M767.625,267.1094 L770.6094,267.1094 L773.9688,279.5 L771.5156,279.5 L770.75,276.4375 L767.4688,276.4375 L766.7188,279.5 L764.2813,279.5 L767.625,267.1094 Z " fill="#000000"/><text fill="#000000" font-family="sans-serif" font-size="14" font-style="italic" lengthAdjust="spacing" textLength="122" x="783" y="278.8467">SemanticProperty</text><line style="stroke:#000000;stroke-width:0.5;" x1="755" x2="907" y1="290" y2="290"/></g></a><!--MD5=[45b96a1d30d0a9ca347644650f99c7e5]
class ScalarProperty--><a href="#ScalarProperty" target="_top" title="#ScalarProperty" xlink:actuate="onRequest" xlink:href="#ScalarProperty" xlink:show="new" xlink:title="#ScalarProperty" xlink:type="simple"><g ><rect codeLine="27" fill="#FFFFFF" height="105.1875"  rx="2.5" ry="2.5" style="stroke:#000000;stroke-width:0.5;" width="182" x="756" y="375"/><ellipse cx="793.95" cy="391" fill="#ADD1B2" rx="11" ry="11" style="stroke:#181818;stroke-width:1.0;"/><path d="M796.9188,396.6406 Q796.3406,396.9375 795.7,397.0781 Q795.0594,397.2344 794.3563,397.2344 Q791.8563,397.2344 790.5281,395.5938 Q789.2156,393.9375 789.2156,390.8125 Q789.2156,387.6875 790.5281,386.0313 Q791.8563,384.375 794.3563,384.375 Q795.0594,384.375 795.7,384.5313 Q796.3563,384.6875 796.9188,384.9844 L796.9188,387.7031 Q796.2938,387.125 795.7,386.8594 Q795.1063,386.5781 794.4813,386.5781 Q793.1375,386.5781 792.45,387.6563 Q791.7625,388.7188 791.7625,390.8125 Q791.7625,392.9063 792.45,393.9844 Q793.1375,395.0469 794.4813,395.0469 Q795.1063,395.0469 795.7,394.7813 Q796.2938,394.5 796.9188,393.9219 L796.9188,396.6406 Z " fill="#000000"/><text fill="#000000" font-family="sans-serif" font-size="14" lengthAdjust="spacing" textLength="99" x="813.05" y="395.8467">ScalarProperty</text><line style="stroke:#000000;stroke-width:0.5;" x1="757" x2="937" y1="407" y2="407"/><text fill="#000000" font-family="sans-serif" font-size="14" lengthAdjust="spacing" textLength="137" x="762" y="423.9951">functional : Boolean</text><text fill="#000000" font-family="sans-serif" font-size="14" lengthAdjust="spacing" textLength="170" x="762" y="440.292">ref : ScalarProperty [0..1]</text><text fill="#000000" font-family="sans-serif" font-size="14" lengthAdjust="spacing" textLength="154" x="762" y="456.5889">domains : Classifier [*]</text><text fill="#000000" font-family="sans-serif" font-size="14" lengthAdjust="spacing" textLength="123" x="762" y="472.8857">ranges : Scalar [*]</text></g></a><!--MD5=[a052ffd04a2a5cd2f202acb632be8a32]
class SpecializableTerm--><a href="#SpecializableTerm" target="_top" title="#SpecializableTerm" xlink:actuate="onRequest" xlink:href="#SpecializableTerm" xlink:show="new" xlink:title="#SpecializableTerm" xlink:type="simple"><g ><rect codeLine="40" fill="#D3D3D3" height="32"  rx="2.5" ry="2.5" style="stroke:#000000;stroke-width:0.5;" width="157" x="535.5" y="161"/><ellipse cx="550.5" cy="177" fill="#A9DCDF" rx="11" ry="11" style="stroke:#181818;stroke-width:1.0;"/><path d="M550.6094,172.3438 L549.4531,177.4219 L551.7813,177.4219 L550.6094,172.3438 Z M549.125,170.1094 L552.1094,170.1094 L555.4688,182.5 L553.0156,182.5 L552.25,179.4375 L548.9688,179.4375 L548.2188,182.5 L545.7813,182.5 L549.125,170.1094 Z " fill="#000000"/><text fill="#000000" font-family="sans-serif" font-size="14" font-style="italic" lengthAdjust="spacing" textLength="125" x="564.5" y="181.8467">SpecializableTerm</text></g></a><!--MD5=[3d3bd59ea0a44b396c2f2874e7c2babf]
class PropertyEquivalenceAxiom--><a href="#PropertyEquivalenceAxiom" target="_top" title="#PropertyEquivalenceAxiom" xlink:actuate="onRequest" xlink:href="#PropertyEquivalenceAxiom" xlink:show="new" xlink:title="#PropertyEquivalenceAxiom" xlink:type="simple"><g ><rect codeLine="42" fill="#D3D3D3" height="32"  rx="2.5" ry="2.5" style="stroke:#000000;stroke-width:0.5;" width="214" x="258" y="411.5"/><ellipse cx="273" cy="427.5" fill="#ADD1B2" rx="11" ry="11" style="stroke:#181818;stroke-width:1.0;"/><path d="M275.9688,433.1406 Q275.3906,433.4375 274.75,433.5781 Q274.1094,433.7344 273.4063,433.7344 Q270.9063,433.7344 269.5781,432.0938 Q268.2656,430.4375 268.2656,427.3125 Q268.2656,424.1875 269.5781,422.5313 Q270.9063,420.875 273.4063,420.875 Q274.1094,420.875 274.75,421.0313 Q275.4063,421.1875 275.9688,421.4844 L275.9688,424.2031 Q275.3438,423.625 274.75,423.3594 Q274.1563,423.0781 273.5313,423.0781 Q272.1875,423.0781 271.5,424.1563 Q270.8125,425.2188 270.8125,427.3125 Q270.8125,429.4063 271.5,430.4844 Q272.1875,431.5469 273.5313,431.5469 Q274.1563,431.5469 274.75,431.2813 Q275.3438,431 275.9688,430.4219 L275.9688,433.1406 Z " fill="#000000"/><text fill="#000000" font-family="sans-serif" font-size="14" lengthAdjust="spacing" textLength="182" x="287" y="432.3467">PropertyEquivalenceAxiom</text></g></a><!--MD5=[a52628c9fc4849a00ea2b39db6a19908]
class StructuredProperty--><a href="#StructuredProperty" target="_top" title="#StructuredProperty" xlink:actuate="onRequest" xlink:href="#StructuredProperty" xlink:show="new" xlink:title="#StructuredProperty" xlink:type="simple"><g ><rect codeLine="47" fill="#FFFFFF" height="105.1875"  rx="2.5" ry="2.5" style="stroke:#000000;stroke-width:0.5;" width="214" x="507" y="375"/><ellipse cx="544.95" cy="391" fill="#ADD1B2" rx="11" ry="11" style="stroke:#181818;stroke-width:1.0;"/><path d="M547.9188,396.6406 Q547.3406,396.9375 546.7,397.0781 Q546.0594,397.2344 545.3563,397.2344 Q542.8563,397.2344 541.5281,395.5938 Q540.2156,393.9375 540.2156,390.8125 Q540.2156,387.6875 541.5281,386.0313 Q542.8563,384.375 545.3563,384.375 Q546.0594,384.375 546.7,384.5313 Q547.3563,384.6875 547.9188,384.9844 L547.9188,387.7031 Q547.2938,387.125 546.7,386.8594 Q546.1063,386.5781 545.4813,386.5781 Q544.1375,386.5781 543.45,387.6563 Q542.7625,388.7188 542.7625,390.8125 Q542.7625,392.9063 543.45,393.9844 Q544.1375,395.0469 545.4813,395.0469 Q546.1063,395.0469 546.7,394.7813 Q547.2938,394.5 547.9188,393.9219 L547.9188,396.6406 Z " fill="#000000"/><text fill="#000000" font-family="sans-serif" font-size="14" lengthAdjust="spacing" textLength="131" x="564.05" y="395.8467">StructuredProperty</text><line style="stroke:#000000;stroke-width:0.5;" x1="508" x2="720" y1="407" y2="407"/><text fill="#000000" font-family="sans-serif" font-size="14" lengthAdjust="spacing" textLength="137" x="513" y="423.9951">functional : Boolean</text><text fill="#000000" font-family="sans-serif" font-size="14" lengthAdjust="spacing" textLength="202" x="513" y="440.292">ref : StructuredProperty [0..1]</text><text fill="#000000" font-family="sans-serif" font-size="14" lengthAdjust="spacing" textLength="154" x="513" y="456.5889">domains : Classifier [*]</text><text fill="#000000" font-family="sans-serif" font-size="14" lengthAdjust="spacing" textLength="146" x="513" y="472.8857">ranges : Structure [*]</text></g></a><!--MD5=[57442298f6d93dfa749f7e32d85a1237]
reverse link SpecializableProperty to AnnotationProperty--><g ><a href="#SpecializableProperty" target="_top" title="#SpecializableProperty" xlink:actuate="onRequest" xlink:href="#SpecializableProperty" xlink:show="new" xlink:title="#SpecializableProperty" xlink:type="simple"><path codeLine="9" d="M505.822,302.549 C430.51,319.965 328.173,345.679 240,375 C218.73,382.073 195.934,391.0358 175.711,399.4941 " fill="none"  style="stroke:#000000;stroke-width:1.0;"/><polygon fill="none" points="504.278,295.721,525.336,298.082,507.402,309.368,504.278,295.721" style="stroke:#000000;stroke-width:1.0;"/></a></g><!--MD5=[2de2bc12fdb70dbbc1095d278e05f9a7]
reverse link Term to Property--><g ><a href="#Term" target="_top" title="#Term" xlink:actuate="onRequest" xlink:href="#Term" xlink:show="new" xlink:title="#Term" xlink:type="simple"><path codeLine="19" d="M794,87.9 C794,110.266 794,138.309 794,156.669 " fill="none"  style="stroke:#000000;stroke-width:1.0;"/><polygon fill="none" points="787,87.644,794,67.644,801,87.643,787,87.644" style="stroke:#000000;stroke-width:1.0;"/></a></g><!--MD5=[d89392dc3dc84358747580524daaa6f0]
reverse link SemanticProperty to Relation--><g ><a href="#SemanticProperty" target="_top" title="#SemanticProperty" xlink:actuate="onRequest" xlink:href="#SemanticProperty" xlink:show="new" xlink:title="#SemanticProperty" xlink:type="simple"><path codeLine="26" d="M872.29,310.402 C896.54,328.984 927.695,353.1 955,375 C968.208,385.5933 982.782,397.678 994.479,407.4776 " fill="none"  style="stroke:#000000;stroke-width:1.0;"/><polygon fill="none" points="868.014,315.943,856.372,298.238,876.514,304.819,868.014,315.943" style="stroke:#000000;stroke-width:1.0;"/></a></g><!--MD5=[96429e18abd7f227097678cc9428ca0e]
reverse link SemanticProperty to ScalarProperty--><g ><a href="#SemanticProperty" target="_top" title="#SemanticProperty" xlink:actuate="onRequest" xlink:href="#SemanticProperty" xlink:show="new" xlink:title="#SemanticProperty" xlink:type="simple"><path codeLine="33" d="M835.275,318.409 C837.154,335.73 839.386,356.306 841.396,374.834 " fill="none"  style="stroke:#000000;stroke-width:1.0;"/><polygon fill="none" points="828.289,318.921,833.092,298.283,842.208,317.411,828.289,318.921" style="stroke:#000000;stroke-width:1.0;"/></a></g><!--MD5=[31966e54b5368c924e92798777b86cd9]
reverse link SpecializableProperty to ScalarProperty--><g ><a href="#SpecializableProperty" target="_top" title="#SpecializableProperty" xlink:actuate="onRequest" xlink:href="#SpecializableProperty" xlink:show="new" xlink:title="#SpecializableProperty" xlink:type="simple"><path codeLine="34" d="M661.733,309.217 C691.626,328.141 730.928,353.021 765.638,374.994 " fill="none"  style="stroke:#000000;stroke-width:1.0;"/><polygon fill="none" points="657.615,314.895,644.461,298.283,665.103,303.066,657.615,314.895" style="stroke:#000000;stroke-width:1.0;"/></a></g><!--MD5=[4e47519bbeba0530445417ce65e8f778]
reverse link Property to SemanticProperty--><g ><a href="#Property" target="_top" title="#Property" xlink:actuate="onRequest" xlink:href="#Property" xlink:show="new" xlink:title="#Property" xlink:type="simple"><path codeLine="37" d="M808.181,215.945 C813.553,230.318 819.439,246.068 823.888,257.97 " fill="none"  style="stroke:#000000;stroke-width:1.0;"/><polygon fill="none" points="801.579,218.273,801.134,197.088,814.693,213.372,801.579,218.273" style="stroke:#000000;stroke-width:1.0;"/></a></g><!--MD5=[3717be01de9e40106900a943a59bdb7c]
reverse link SpecializableTerm to SpecializableProperty--><g ><a href="#SpecializableTerm" target="_top" title="#SpecializableTerm" xlink:actuate="onRequest" xlink:href="#SpecializableTerm" xlink:show="new" xlink:title="#SpecializableTerm" xlink:type="simple"><path codeLine="44" d="M614,213.211 C614,228.199 614,245.098 614,257.736 " fill="none"  style="stroke:#000000;stroke-width:1.0;"/><polygon fill="none" points="607,213.036,614,193.036,621,213.036,607,213.036" style="stroke:#000000;stroke-width:1.0;"/></a></g><!--MD5=[7e55730f155f17f642a3e454f5cbe11a]
reverse link Property to SpecializableProperty--><g ><a href="#Property" target="_top" title="#Property" xlink:actuate="onRequest" xlink:href="#Property" xlink:show="new" xlink:title="#Property" xlink:type="simple"><path codeLine="45" d="M741.674,206.779 C711.718,223.255 674.967,243.468 648.599,257.97 " fill="none"  style="stroke:#000000;stroke-width:1.0;"/><polygon fill="none" points="738.396,200.593,759.294,197.088,745.143,212.86,738.396,200.593" style="stroke:#000000;stroke-width:1.0;"/></a></g><!--MD5=[6e104d8961b96f605e0692ceffc85317]
link SpecializableProperty to PropertyEquivalenceAxiom--><g ><path codeLine="46" d="M536.1905,302.1373 C536.1905,302.1373 497.018,318.042 480,328 C444.977,348.493 410.379,380.0843 388.427,401.9395 " fill="none"  style="stroke:#000000;stroke-width:1.0;"/><polygon fill="#000000" points="379.274,411.2211,388.4413,407.6209,382.7846,407.6608,382.7447,402.0041,379.274,411.2211" style="stroke:#000000;stroke-width:1.0;"/><line style="stroke:#000000;stroke-width:1.0;" x1="382.7846" x2="388.402" y1="407.6608" y2="401.9645"/><polygon fill="#000000" points="547.478,298.064,540.4765,296.3381,536.1905,302.1373,543.192,303.8631,547.478,298.064" style="stroke:#000000;stroke-width:1.0;"/><text fill="#000000" font-family="sans-serif" font-size="13" lengthAdjust="spacing" textLength="124" x="481" y="341.0669">ownedEquivalences</text><text fill="#000000" font-family="sans-serif" font-size="13" lengthAdjust="spacing" textLength="7" x="375.8429" y="400.4332">*</text></g><!--MD5=[7f6baec6d71bc68f5b24ca314e99a90f]
reverse link SemanticProperty to StructuredProperty--><g ><a href="#SemanticProperty" target="_top" title="#SemanticProperty" xlink:actuate="onRequest" xlink:href="#SemanticProperty" xlink:show="new" xlink:title="#SemanticProperty" xlink:type="simple"><path codeLine="53" d="M785.792,309.729 C758.114,328.542 721.988,353.098 690.01,374.834 " fill="none"  style="stroke:#000000;stroke-width:1.0;"/><polygon fill="none" points="782.155,303.737,802.631,298.283,790.025,315.315,782.155,303.737" style="stroke:#000000;stroke-width:1.0;"/></a></g><!--MD5=[cc4d663019219e00a7e0061b2a2f422c]
reverse link SpecializableProperty to StructuredProperty--><g ><a href="#SpecializableProperty" target="_top" title="#SpecializableProperty" xlink:actuate="onRequest" xlink:href="#SpecializableProperty" xlink:show="new" xlink:title="#SpecializableProperty" xlink:type="simple"><path codeLine="54" d="M614,318.409 C614,335.73 614,356.306 614,374.834 " fill="none"  style="stroke:#000000;stroke-width:1.0;"/><polygon fill="none" points="607,318.283,614,298.283,621,318.283,607,318.283" style="stroke:#000000;stroke-width:1.0;"/></a></g><!--MD5=[fc27325e5b8ed3fb20be7a92ac10e091]
@startuml
skinparam classBackgroundColor LightGray
skinparam classBorderColor Black
skinparam enumBorderColor Black
skinparam ArrowColor Black
hide methods
class AnnotationProperty [[#AnnotationProperty]] #white {
	ref : AnnotationProperty [0..1]
}
AnnotationProperty -up-|> SpecializableProperty [[#SpecializableProperty]]
enum CardinalityRestrictionKind [[#CardinalityRestrictionKind]] #white {
	exactly
	min
	max
}
abstract class Property [[#Property]] #white {
}
abstract class Term [[#Term]]
hide Term members
Property -up-|> Term [[#Term]]
enum RangeRestrictionKind [[#RangeRestrictionKind]] #white {
	all
	some
}
abstract class Relation [[#Relation]] #white {
}
Relation -up-|> SemanticProperty [[#SemanticProperty]]
class ScalarProperty [[#ScalarProperty]] #white {
	functional : Boolean
	ref : ScalarProperty [0..1]
	domains : Classifier [*]
	ranges : Scalar [*]
}
ScalarProperty -up-|> SemanticProperty [[#SemanticProperty]]
ScalarProperty -up-|> SpecializableProperty [[#SpecializableProperty]]
abstract class SemanticProperty [[#SemanticProperty]] #white {
}
SemanticProperty -up-|> Property [[#Property]]
abstract class SpecializableProperty [[#SpecializableProperty]] #white {
}
abstract class SpecializableTerm [[#SpecializableTerm]]
hide SpecializableTerm members
class PropertyEquivalenceAxiom [[#PropertyEquivalenceAxiom]]
hide PropertyEquivalenceAxiom members
SpecializableProperty -up-|> SpecializableTerm [[#SpecializableTerm]]
SpecializableProperty -up-|> Property [[#Property]]
SpecializableProperty *- -> "*" PropertyEquivalenceAxiom : ownedEquivalences
class StructuredProperty [[#StructuredProperty]] #white {
	functional : Boolean
	ref : StructuredProperty [0..1]
	domains : Classifier [*]
	ranges : Structure [*]
}
StructuredProperty -up-|> SemanticProperty [[#SemanticProperty]]
StructuredProperty -up-|> SpecializableProperty [[#SpecializableProperty]]
@enduml

PlantUML version 1.2022.12(Sun Oct 23 18:12:26 UTC 2022)
(GPL source distribution)
Java Runtime: OpenJDK Runtime Environment
JVM: OpenJDK 64-Bit Server VM
Default Encoding: UTF-8
Language: en
Country: US
--></g></svg>
