<?xml version="1.0" encoding="UTF-8" standalone="no"?><svg xmlns="http://www.w3.org/2000/svg" xmlns:xlink="http://www.w3.org/1999/xlink" contentScriptType="application/ecmascript" contentStyleType="text/css" height="527px" preserveAspectRatio="none" style="width:912px;height:527px;" version="1.1" viewBox="0 0 912 527" width="912px" zoomAndPan="magnify"><defs><filter height="300%" id="fn6hrg0pvd4br" width="300%" x="-1" y="-1"><feGaussianBlur result="blurOut" stdDeviation="2.0"/><feColorMatrix in="blurOut" result="blurOut2" type="matrix" values="0 0 0 0 0 0 0 0 0 0 0 0 0 0 0 0 0 0 .4 0"/><feOffset dx="4.0" dy="4.0" in="blurOut2" result="blurOut3"/><feBlend in="SourceGraphic" in2="blurOut3" mode="normal"/></filter></defs><g><!--class AnnotationProperty--><a target="_top" xlink:actuate="onRequest" xlink:href="#AnnotationProperty" xlink:show="new" xlink:title="#AnnotationProperty" xlink:type="simple"><rect fill="#FFFFFF" filter="url(#fn6hrg0pvd4br)" height="40"  style="stroke: #000000; stroke-width: 1.5;" width="154" x="261" y="351"/><rect fill="#FFFFFF" height="32" style="stroke: #000000; stroke-width: 1.5;" width="154" x="261" y="351"/><ellipse cx="276" cy="367" fill="#ADD1B2" rx="11" ry="11" style="stroke: #000000; stroke-width: 1.0;"/><path d="M278.9688,372.6406 Q278.3906,372.9375 277.75,373.0781 Q277.1094,373.2344 276.4063,373.2344 Q273.9063,373.2344 272.5781,371.5938 Q271.2656,369.9375 271.2656,366.8125 Q271.2656,363.6875 272.5781,362.0313 Q273.9063,360.375 276.4063,360.375 Q277.1094,360.375 277.75,360.5313 Q278.4063,360.6875 278.9688,360.9844 L278.9688,363.7031 Q278.3438,363.125 277.75,362.8594 Q277.1563,362.5781 276.5313,362.5781 Q275.1875,362.5781 274.5,363.6563 Q273.8125,364.7188 273.8125,366.8125 Q273.8125,368.9063 274.5,369.9844 Q275.1875,371.0469 276.5313,371.0469 Q277.1563,371.0469 277.75,370.7813 Q278.3438,370.5 278.9688,369.9219 L278.9688,372.6406 Z "/><text fill="#000000" font-family="sans-serif" font-size="12" lengthAdjust="spacingAndGlyphs" textLength="122" x="290" y="371.1543">AnnotationProperty</text><line style="stroke: #000000; stroke-width: 1.5;" x1="262" x2="414" y1="383" y2="383"/></a><!--class Property--><a target="_top" xlink:actuate="onRequest" xlink:href="#Property" xlink:show="new" xlink:title="#Property" xlink:type="simple"><rect fill="#FFFFFF" filter="url(#fn6hrg0pvd4br)" height="40"  style="stroke: #000000; stroke-width: 1.5;" width="85" x="295.5" y="219"/><rect fill="#FFFFFF" height="32" style="stroke: #000000; stroke-width: 1.5;" width="85" x="295.5" y="219"/><ellipse cx="310.5" cy="235" fill="#A9DCDF" rx="11" ry="11" style="stroke: #000000; stroke-width: 1.0;"/><path d="M310.6094,230.3438 L309.4531,235.4219 L311.7813,235.4219 L310.6094,230.3438 Z M309.125,228.1094 L312.1094,228.1094 L315.4688,240.5 L313.0156,240.5 L312.25,237.4375 L308.9688,237.4375 L308.2188,240.5 L305.7813,240.5 L309.125,228.1094 Z "/><text fill="#000000" font-family="sans-serif" font-size="12" font-style="italic" lengthAdjust="spacingAndGlyphs" textLength="53" x="324.5" y="239.1543">Property</text><line style="stroke: #000000; stroke-width: 1.5;" x1="296.5" x2="379.5" y1="251" y2="251"/></a><!--class Feature--><a target="_top" xlink:actuate="onRequest" xlink:href="#Feature" xlink:show="new" xlink:title="#Feature" xlink:type="simple"><rect fill="#FFFFFF" filter="url(#fn6hrg0pvd4br)" height="40"  style="stroke: #000000; stroke-width: 1.5;" width="81" x="478.5" y="100"/><rect fill="#FFFFFF" height="32" style="stroke: #000000; stroke-width: 1.5;" width="81" x="478.5" y="100"/><ellipse cx="493.5" cy="116" fill="#A9DCDF" rx="11" ry="11" style="stroke: #000000; stroke-width: 1.0;"/><path d="M493.6094,111.3438 L492.4531,116.4219 L494.7813,116.4219 L493.6094,111.3438 Z M492.125,109.1094 L495.1094,109.1094 L498.4688,121.5 L496.0156,121.5 L495.25,118.4375 L491.9688,118.4375 L491.2188,121.5 L488.7813,121.5 L492.125,109.1094 Z "/><text fill="#000000" font-family="sans-serif" font-size="12" font-style="italic" lengthAdjust="spacingAndGlyphs" textLength="49" x="507.5" y="120.1543">Feature</text><line style="stroke: #000000; stroke-width: 1.5;" x1="479.5" x2="558.5" y1="132" y2="132"/></a><!--class Term--><a target="_top" xlink:actuate="onRequest" xlink:href="#Term" xlink:show="new" xlink:title="#Term" xlink:type="simple"><rect fill="#D3D3D3" filter="url(#fn6hrg0pvd4br)" height="32"  style="stroke: #000000; stroke-width: 1.5;" width="63" x="487.5" y="8"/><ellipse cx="502.5" cy="24" fill="#A9DCDF" rx="11" ry="11" style="stroke: #000000; stroke-width: 1.0;"/><path d="M502.6094,19.3438 L501.4531,24.4219 L503.7813,24.4219 L502.6094,19.3438 Z M501.125,17.1094 L504.1094,17.1094 L507.4688,29.5 L505.0156,29.5 L504.25,26.4375 L500.9688,26.4375 L500.2188,29.5 L497.7813,29.5 L501.125,17.1094 Z "/><text fill="#000000" font-family="sans-serif" font-size="12" font-style="italic" lengthAdjust="spacingAndGlyphs" textLength="31" x="516.5" y="28.1543">Term</text></a><!--class ForwardRelation--><a target="_top" xlink:actuate="onRequest" xlink:href="#ForwardRelation" xlink:show="new" xlink:title="#ForwardRelation" xlink:type="simple"><rect fill="#FFFFFF" filter="url(#fn6hrg0pvd4br)" height="52.8047"  style="stroke: #000000; stroke-width: 1.5;" width="208" x="450" y="344.5"/><rect fill="#FFFFFF" height="32" style="stroke: #000000; stroke-width: 1.5;" width="208" x="450" y="344.5"/><ellipse cx="499.25" cy="360.5" fill="#ADD1B2" rx="11" ry="11" style="stroke: #000000; stroke-width: 1.0;"/><path d="M502.2188,366.1406 Q501.6406,366.4375 501,366.5781 Q500.3594,366.7344 499.6563,366.7344 Q497.1563,366.7344 495.8281,365.0938 Q494.5156,363.4375 494.5156,360.3125 Q494.5156,357.1875 495.8281,355.5313 Q497.1563,353.875 499.6563,353.875 Q500.3594,353.875 501,354.0313 Q501.6563,354.1875 502.2188,354.4844 L502.2188,357.2031 Q501.5938,356.625 501,356.3594 Q500.4063,356.0781 499.7813,356.0781 Q498.4375,356.0781 497.75,357.1563 Q497.0625,358.2188 497.0625,360.3125 Q497.0625,362.4063 497.75,363.4844 Q498.4375,364.5469 499.7813,364.5469 Q500.4063,364.5469 501,364.2813 Q501.5938,364 502.2188,363.4219 L502.2188,366.1406 Z "/><text fill="#000000" font-family="sans-serif" font-size="12" lengthAdjust="spacingAndGlyphs" textLength="101" x="519.75" y="364.6543">ForwardRelation</text><line style="stroke: #000000; stroke-width: 1.5;" x1="451" x2="657" y1="376.5" y2="376.5"/><text fill="#000000" font-family="sans-serif" font-size="11" lengthAdjust="spacingAndGlyphs" textLength="196" x="456" y="390.7104">relationEntity : RelationEntity [0..1]</text></a><!--class Relation--><a target="_top" xlink:actuate="onRequest" xlink:href="#Relation" xlink:show="new" xlink:title="#Relation" xlink:type="simple"><rect fill="#FFFFFF" filter="url(#fn6hrg0pvd4br)" height="78.4141"  style="stroke: #000000; stroke-width: 1.5;" width="145" x="481.5" y="200"/><rect fill="#FFFFFF" height="32" style="stroke: #000000; stroke-width: 1.5;" width="145" x="481.5" y="200"/><ellipse cx="524.4" cy="216" fill="#A9DCDF" rx="11" ry="11" style="stroke: #000000; stroke-width: 1.0;"/><path d="M524.5094,211.3438 L523.3531,216.4219 L525.6813,216.4219 L524.5094,211.3438 Z M523.025,209.1094 L526.0094,209.1094 L529.3688,221.5 L526.9156,221.5 L526.15,218.4375 L522.8688,218.4375 L522.1188,221.5 L519.6813,221.5 L523.025,209.1094 Z "/><text fill="#000000" font-family="sans-serif" font-size="12" font-style="italic" lengthAdjust="spacingAndGlyphs" textLength="51" x="544.6" y="220.1543">Relation</text><line style="stroke: #000000; stroke-width: 1.5;" x1="482.5" x2="625.5" y1="232" y2="232"/><text fill="#000000" font-family="sans-serif" font-size="11" lengthAdjust="spacingAndGlyphs" textLength="104" x="487.5" y="246.2104">domain : Entity [1]</text><text fill="#000000" font-family="sans-serif" font-size="11" lengthAdjust="spacingAndGlyphs" textLength="95" x="487.5" y="259.0151">range : Entity [1]</text><text fill="#000000" font-family="sans-serif" font-size="11" lengthAdjust="spacingAndGlyphs" textLength="133" x="487.5" y="271.8198">inverse : Relation [0..1]</text></a><!--class SpecializableTerm--><a target="_top" xlink:actuate="onRequest" xlink:href="#SpecializableTerm" xlink:show="new" xlink:title="#SpecializableTerm" xlink:type="simple"><rect fill="#D3D3D3" filter="url(#fn6hrg0pvd4br)" height="32"  style="stroke: #000000; stroke-width: 1.5;" width="143" x="266.5" y="104"/><ellipse cx="281.5" cy="120" fill="#A9DCDF" rx="11" ry="11" style="stroke: #000000; stroke-width: 1.0;"/><path d="M281.6094,115.3438 L280.4531,120.4219 L282.7813,120.4219 L281.6094,115.3438 Z M280.125,113.1094 L283.1094,113.1094 L286.4688,125.5 L284.0156,125.5 L283.25,122.4375 L279.9688,122.4375 L279.2188,125.5 L276.7813,125.5 L280.125,113.1094 Z "/><text fill="#000000" font-family="sans-serif" font-size="12" font-style="italic" lengthAdjust="spacingAndGlyphs" textLength="111" x="295.5" y="124.1543">SpecializableTerm</text></a><!--class ReverseRelation--><a target="_top" xlink:actuate="onRequest" xlink:href="#ReverseRelation" xlink:show="new" xlink:title="#ReverseRelation" xlink:type="simple"><rect fill="#FFFFFF" filter="url(#fn6hrg0pvd4br)" height="52.8047"  style="stroke: #000000; stroke-width: 1.5;" width="208" x="693" y="344.5"/><rect fill="#FFFFFF" height="32" style="stroke: #000000; stroke-width: 1.5;" width="208" x="693" y="344.5"/><ellipse cx="742.25" cy="360.5" fill="#ADD1B2" rx="11" ry="11" style="stroke: #000000; stroke-width: 1.0;"/><path d="M745.2188,366.1406 Q744.6406,366.4375 744,366.5781 Q743.3594,366.7344 742.6563,366.7344 Q740.1563,366.7344 738.8281,365.0938 Q737.5156,363.4375 737.5156,360.3125 Q737.5156,357.1875 738.8281,355.5313 Q740.1563,353.875 742.6563,353.875 Q743.3594,353.875 744,354.0313 Q744.6563,354.1875 745.2188,354.4844 L745.2188,357.2031 Q744.5938,356.625 744,356.3594 Q743.4063,356.0781 742.7813,356.0781 Q741.4375,356.0781 740.75,357.1563 Q740.0625,358.2188 740.0625,360.3125 Q740.0625,362.4063 740.75,363.4844 Q741.4375,364.5469 742.7813,364.5469 Q743.4063,364.5469 744,364.2813 Q744.5938,364 745.2188,363.4219 L745.2188,366.1406 Z "/><text fill="#000000" font-family="sans-serif" font-size="12" lengthAdjust="spacingAndGlyphs" textLength="101" x="762.75" y="364.6543">ReverseRelation</text><line style="stroke: #000000; stroke-width: 1.5;" x1="694" x2="900" y1="376.5" y2="376.5"/><text fill="#000000" font-family="sans-serif" font-size="11" lengthAdjust="spacingAndGlyphs" textLength="196" x="699" y="390.7104">relationEntity : RelationEntity [0..1]</text></a><!--class ScalarProperty--><a target="_top" xlink:actuate="onRequest" xlink:href="#ScalarProperty" xlink:show="new" xlink:title="#ScalarProperty" xlink:type="simple"><rect fill="#FFFFFF" filter="url(#fn6hrg0pvd4br)" height="52.8047"  style="stroke: #000000; stroke-width: 1.5;" width="124" x="6" y="464"/><rect fill="#FFFFFF" height="32" style="stroke: #000000; stroke-width: 1.5;" width="124" x="6" y="464"/><ellipse cx="21" cy="480" fill="#ADD1B2" rx="11" ry="11" style="stroke: #000000; stroke-width: 1.0;"/><path d="M23.9688,485.6406 Q23.3906,485.9375 22.75,486.0781 Q22.1094,486.2344 21.4063,486.2344 Q18.9063,486.2344 17.5781,484.5938 Q16.2656,482.9375 16.2656,479.8125 Q16.2656,476.6875 17.5781,475.0313 Q18.9063,473.375 21.4063,473.375 Q22.1094,473.375 22.75,473.5313 Q23.4063,473.6875 23.9688,473.9844 L23.9688,476.7031 Q23.3438,476.125 22.75,475.8594 Q22.1563,475.5781 21.5313,475.5781 Q20.1875,475.5781 19.5,476.6563 Q18.8125,477.7188 18.8125,479.8125 Q18.8125,481.9063 19.5,482.9844 Q20.1875,484.0469 21.5313,484.0469 Q22.1563,484.0469 22.75,483.7813 Q23.3438,483.5 23.9688,482.9219 L23.9688,485.6406 Z "/><text fill="#000000" font-family="sans-serif" font-size="12" lengthAdjust="spacingAndGlyphs" textLength="92" x="35" y="484.1543">ScalarProperty</text><line style="stroke: #000000; stroke-width: 1.5;" x1="7" x2="129" y1="496" y2="496"/><text fill="#000000" font-family="sans-serif" font-size="11" lengthAdjust="spacingAndGlyphs" textLength="100" x="12" y="510.2104">range : Scalar [1]</text></a><!--class SemanticProperty--><a target="_top" xlink:actuate="onRequest" xlink:href="#SemanticProperty" xlink:show="new" xlink:title="#SemanticProperty" xlink:type="simple"><rect fill="#FFFFFF" filter="url(#fn6hrg0pvd4br)" height="65.6094"  style="stroke: #000000; stroke-width: 1.5;" width="143" x="82.5" y="338"/><rect fill="#FFFFFF" height="32" style="stroke: #000000; stroke-width: 1.5;" width="143" x="82.5" y="338"/><ellipse cx="97.5" cy="354" fill="#A9DCDF" rx="11" ry="11" style="stroke: #000000; stroke-width: 1.0;"/><path d="M97.6094,349.3438 L96.4531,354.4219 L98.7813,354.4219 L97.6094,349.3438 Z M96.125,347.1094 L99.1094,347.1094 L102.4688,359.5 L100.0156,359.5 L99.25,356.4375 L95.9688,356.4375 L95.2188,359.5 L92.7813,359.5 L96.125,347.1094 Z "/><text fill="#000000" font-family="sans-serif" font-size="12" font-style="italic" lengthAdjust="spacingAndGlyphs" textLength="111" x="111.5" y="358.1543">SemanticProperty</text><line style="stroke: #000000; stroke-width: 1.5;" x1="83.5" x2="224.5" y1="370" y2="370"/><text fill="#000000" font-family="sans-serif" font-size="11" lengthAdjust="spacingAndGlyphs" textLength="113" x="88.5" y="384.2104">functional : Boolean</text><text fill="#000000" font-family="sans-serif" font-size="11" lengthAdjust="spacingAndGlyphs" textLength="127" x="88.5" y="397.0151">domain : Classifier [1]</text></a><!--class StructuredProperty--><a target="_top" xlink:actuate="onRequest" xlink:href="#StructuredProperty" xlink:show="new" xlink:title="#StructuredProperty" xlink:type="simple"><rect fill="#FFFFFF" filter="url(#fn6hrg0pvd4br)" height="52.8047"  style="stroke: #000000; stroke-width: 1.5;" width="152" x="165" y="464"/><rect fill="#FFFFFF" height="32" style="stroke: #000000; stroke-width: 1.5;" width="152" x="165" y="464"/><ellipse cx="180" cy="480" fill="#ADD1B2" rx="11" ry="11" style="stroke: #000000; stroke-width: 1.0;"/><path d="M182.9688,485.6406 Q182.3906,485.9375 181.75,486.0781 Q181.1094,486.2344 180.4063,486.2344 Q177.9063,486.2344 176.5781,484.5938 Q175.2656,482.9375 175.2656,479.8125 Q175.2656,476.6875 176.5781,475.0313 Q177.9063,473.375 180.4063,473.375 Q181.1094,473.375 181.75,473.5313 Q182.4063,473.6875 182.9688,473.9844 L182.9688,476.7031 Q182.3438,476.125 181.75,475.8594 Q181.1563,475.5781 180.5313,475.5781 Q179.1875,475.5781 178.5,476.6563 Q177.8125,477.7188 177.8125,479.8125 Q177.8125,481.9063 178.5,482.9844 Q179.1875,484.0469 180.5313,484.0469 Q181.1563,484.0469 181.75,483.7813 Q182.3438,483.5 182.9688,482.9219 L182.9688,485.6406 Z "/><text fill="#000000" font-family="sans-serif" font-size="12" lengthAdjust="spacingAndGlyphs" textLength="120" x="194" y="484.1543">StructuredProperty</text><line style="stroke: #000000; stroke-width: 1.5;" x1="166" x2="316" y1="496" y2="496"/><text fill="#000000" font-family="sans-serif" font-size="11" lengthAdjust="spacingAndGlyphs" textLength="117" x="171" y="510.2104">range : Structure [1]</text></a><!--link Property to AnnotationProperty--><a target="_top" xlink:actuate="onRequest" xlink:href="#Property" xlink:show="new" xlink:title="#Property" xlink:type="simple"><path d="M338,279.3 C338,302.941 338,331.988 338,350.739 " fill="none"  style="stroke: #000000; stroke-width: 1.0;"/><polygon fill="none" points="331,279.182,338,259.182,345,279.182,331,279.182" style="stroke: #000000; stroke-width: 1.0;"/></a><!--link Term to Feature--><a target="_top" xlink:actuate="onRequest" xlink:href="#Term" xlink:show="new" xlink:title="#Term" xlink:type="simple"><path d="M519,60.445 C519,73.76 519,88.394 519,99.701 " fill="none"  style="stroke: #000000; stroke-width: 1.0;"/><polygon fill="none" points="512,60.103,519,40.103,526,60.103,512,60.103" style="stroke: #000000; stroke-width: 1.0;"/></a><!--link Relation to ForwardRelation--><a target="_top" xlink:actuate="onRequest" xlink:href="#Relation" xlink:show="new" xlink:title="#Relation" xlink:type="simple"><path d="M554,298.43 C554,314.507 554,331.125 554,344.297 " fill="none"  style="stroke: #000000; stroke-width: 1.0;"/><polygon fill="none" points="547,298.301,554,278.301,561,298.301,547,298.301" style="stroke: #000000; stroke-width: 1.0;"/></a><!--link SpecializableTerm to Property--><a target="_top" xlink:actuate="onRequest" xlink:href="#SpecializableTerm" xlink:show="new" xlink:title="#SpecializableTerm" xlink:type="simple"><path d="M338,156.515 C338,177.002 338,201.961 338,218.815 " fill="none"  style="stroke: #000000; stroke-width: 1.0;"/><polygon fill="none" points="331,156.296,338,136.296,345,156.296,331,156.296" style="stroke: #000000; stroke-width: 1.0;"/></a><!--link Feature to Property--><a target="_top" xlink:actuate="onRequest" xlink:href="#Feature" xlink:show="new" xlink:title="#Feature" xlink:type="simple"><path d="M472.356,151.151 C439.268,172.539 395.866,200.595 367.471,218.95 " fill="none"  style="stroke: #000000; stroke-width: 1.0;"/><polygon fill="none" points="468.92,145.037,489.516,140.058,476.52,156.795,468.92,145.037" style="stroke: #000000; stroke-width: 1.0;"/></a><!--link Feature to Relation--><a target="_top" xlink:actuate="onRequest" xlink:href="#Feature" xlink:show="new" xlink:title="#Feature" xlink:type="simple"><path d="M530.449,159.271 C534.313,172.19 538.627,186.61 542.496,199.543 " fill="none"  style="stroke: #000000; stroke-width: 1.0;"/><polygon fill="none" points="523.727,161.226,524.701,140.058,537.14,157.213,523.727,161.226" style="stroke: #000000; stroke-width: 1.0;"/></a><!--link Relation to ReverseRelation--><a target="_top" xlink:actuate="onRequest" xlink:href="#Relation" xlink:show="new" xlink:title="#Relation" xlink:type="simple"><path d="M643.055,287.643 C678.974,306.858 718.975,328.258 749.198,344.427 " fill="none"  style="stroke: #000000; stroke-width: 1.0;"/><polygon fill="none" points="639.599,293.733,625.266,278.126,646.203,281.388,639.599,293.733" style="stroke: #000000; stroke-width: 1.0;"/></a><!--link SemanticProperty to ScalarProperty--><a target="_top" xlink:actuate="onRequest" xlink:href="#SemanticProperty" xlink:show="new" xlink:title="#SemanticProperty" xlink:type="simple"><path d="M118.642,420.3094 C107.746,435.1958 96.1741,451.0063 86.8465,463.7505 " fill="none"  style="stroke: #000000; stroke-width: 1.0;"/><polygon fill="none" points="113.039,416.112,130.5,404.107,124.336,424.3808,113.039,416.112" style="stroke: #000000; stroke-width: 1.0;"/></a><!--link Property to SemanticProperty--><a target="_top" xlink:actuate="onRequest" xlink:href="#Property" xlink:show="new" xlink:title="#Property" xlink:type="simple"><path d="M294.319,270.862 C265.718,291.069 228.418,317.422 199.465,337.878 " fill="none"  style="stroke: #000000; stroke-width: 1.0;"/><polygon fill="none" points="290.476,265.006,310.85,259.182,298.555,276.44,290.476,265.006" style="stroke: #000000; stroke-width: 1.0;"/></a><!--link SemanticProperty to StructuredProperty--><a target="_top" xlink:actuate="onRequest" xlink:href="#SemanticProperty" xlink:show="new" xlink:title="#SemanticProperty" xlink:type="simple"><path d="M189.769,420.3094 C200.792,435.1958 212.498,451.0063 221.934,463.7505 " fill="none"  style="stroke: #000000; stroke-width: 1.0;"/><polygon fill="none" points="184.049,424.3464,177.773,404.107,195.3,416.016,184.049,424.3464" style="stroke: #000000; stroke-width: 1.0;"/></a><!--
@startuml
skinparam classBackgroundColor LightGray
skinparam classBorderColor Black
skinparam enumBorderColor Black
skinparam ArrowColor Black
hide methods
class AnnotationProperty [[#AnnotationProperty]] #white {
}
AnnotationProperty -up-|> Property [[#Property]]
abstract class Feature [[#Feature]] #white {
}
abstract class Term [[#Term]]
hide Term members
Feature -up-|> Term [[#Term]]
class ForwardRelation [[#ForwardRelation]] #white {
	relationEntity : RelationEntity [0..1]
}
ForwardRelation -up-|> Relation [[#Relation]]
abstract class Property [[#Property]] #white {
}
abstract class SpecializableTerm [[#SpecializableTerm]]
hide SpecializableTerm members
Property -up-|> SpecializableTerm [[#SpecializableTerm]]
Property -up-|> Feature [[#Feature]]
abstract class Relation [[#Relation]] #white {
	domain : Entity [1]
	range : Entity [1]
	inverse : Relation [0..1]
}
Relation -up-|> Feature [[#Feature]]
class ReverseRelation [[#ReverseRelation]] #white {
	relationEntity : RelationEntity [0..1]
}
ReverseRelation -up-|> Relation [[#Relation]]
class ScalarProperty [[#ScalarProperty]] #white {
	range : Scalar [1]
}
ScalarProperty -up-|> SemanticProperty [[#SemanticProperty]]
abstract class SemanticProperty [[#SemanticProperty]] #white {
	functional : Boolean
	domain : Classifier [1]
}
SemanticProperty -up-|> Property [[#Property]]
class StructuredProperty [[#StructuredProperty]] #white {
	range : Structure [1]
}
StructuredProperty -up-|> SemanticProperty [[#SemanticProperty]]
@enduml

PlantUML version 1.2019.00(Sun Jan 13 15:46:42 UTC 2019)
(GPL source distribution)
Java Runtime: OpenJDK Runtime Environment
JVM: OpenJDK 64-Bit Server VM
Java Version: 11.0.2+9
Operating System: Linux
OS Version: 4.15.0-1098-gcp
Default Encoding: UTF-8
Language: en
Country: US
--></g></svg>
