<?xml version="1.0" encoding="UTF-8" standalone="no"?><svg xmlns="http://www.w3.org/2000/svg" xmlns:xlink="http://www.w3.org/1999/xlink" contentScriptType="application/ecmascript" contentStyleType="text/css" height="540px" preserveAspectRatio="none" style="width:915px;height:540px;" version="1.1" viewBox="0 0 915 540" width="915px" zoomAndPan="magnify"><defs><filter height="300%" id="fpniut3we2w5u" width="300%" x="-1" y="-1"><feGaussianBlur result="blurOut" stdDeviation="2.0"/><feColorMatrix in="blurOut" result="blurOut2" type="matrix" values="0 0 0 0 0 0 0 0 0 0 0 0 0 0 0 0 0 0 .4 0"/><feOffset dx="4.0" dy="4.0" in="blurOut2" result="blurOut3"/><feBlend in="SourceGraphic" in2="blurOut3" mode="normal"/></filter></defs><g><!--class AnnotationProperty--><a target="_top" xlink:actuate="onRequest" xlink:href="#AnnotationProperty" xlink:show="new" xlink:title="#AnnotationProperty" xlink:type="simple"><rect fill="#FFFFFF" filter="url(#fpniut3we2w5u)" height="40"  style="stroke: #000000; stroke-width: 1.5;" width="154" x="368" y="470"/><rect fill="#FFFFFF" height="32" style="stroke: #000000; stroke-width: 1.5;" width="154" x="368" y="470"/><ellipse cx="383" cy="486" fill="#ADD1B2" rx="11" ry="11" style="stroke: #000000; stroke-width: 1.0;"/><path d="M385.9688,491.6406 Q385.3906,491.9375 384.75,492.0781 Q384.1094,492.2344 383.4063,492.2344 Q380.9063,492.2344 379.5781,490.5938 Q378.2656,488.9375 378.2656,485.8125 Q378.2656,482.6875 379.5781,481.0313 Q380.9063,479.375 383.4063,479.375 Q384.1094,479.375 384.75,479.5313 Q385.4063,479.6875 385.9688,479.9844 L385.9688,482.7031 Q385.3438,482.125 384.75,481.8594 Q384.1563,481.5781 383.5313,481.5781 Q382.1875,481.5781 381.5,482.6563 Q380.8125,483.7188 380.8125,485.8125 Q380.8125,487.9063 381.5,488.9844 Q382.1875,490.0469 383.5313,490.0469 Q384.1563,490.0469 384.75,489.7813 Q385.3438,489.5 385.9688,488.9219 L385.9688,491.6406 Z "/><text fill="#000000" font-family="sans-serif" font-size="12" lengthAdjust="spacingAndGlyphs" textLength="122" x="397" y="490.1543">AnnotationProperty</text><line style="stroke: #000000; stroke-width: 1.5;" x1="369" x2="521" y1="502" y2="502"/></a><!--class SpecializableTerm--><a target="_top" xlink:actuate="onRequest" xlink:href="#SpecializableTerm" xlink:show="new" xlink:title="#SpecializableTerm" xlink:type="simple"><rect fill="#D3D3D3" filter="url(#fpniut3we2w5u)" height="32"  style="stroke: #000000; stroke-width: 1.5;" width="143" x="205.5" y="348.5"/><ellipse cx="220.5" cy="364.5" fill="#A9DCDF" rx="11" ry="11" style="stroke: #000000; stroke-width: 1.0;"/><path d="M220.6094,359.8438 L219.4531,364.9219 L221.7813,364.9219 L220.6094,359.8438 Z M219.125,357.6094 L222.1094,357.6094 L225.4688,370 L223.0156,370 L222.25,366.9375 L218.9688,366.9375 L218.2188,370 L215.7813,370 L219.125,357.6094 Z "/><text fill="#000000" font-family="sans-serif" font-size="12" font-style="italic" lengthAdjust="spacingAndGlyphs" textLength="111" x="234.5" y="368.6543">SpecializableTerm</text></a><!--class Property--><a target="_top" xlink:actuate="onRequest" xlink:href="#Property" xlink:show="new" xlink:title="#Property" xlink:type="simple"><rect fill="#FFFFFF" filter="url(#fpniut3we2w5u)" height="40"  style="stroke: #000000; stroke-width: 1.5;" width="85" x="387.5" y="219"/><rect fill="#FFFFFF" height="32" style="stroke: #000000; stroke-width: 1.5;" width="85" x="387.5" y="219"/><ellipse cx="402.5" cy="235" fill="#A9DCDF" rx="11" ry="11" style="stroke: #000000; stroke-width: 1.0;"/><path d="M402.6094,230.3438 L401.4531,235.4219 L403.7813,235.4219 L402.6094,230.3438 Z M401.125,228.1094 L404.1094,228.1094 L407.4688,240.5 L405.0156,240.5 L404.25,237.4375 L400.9688,237.4375 L400.2188,240.5 L397.7813,240.5 L401.125,228.1094 Z "/><text fill="#000000" font-family="sans-serif" font-size="12" font-style="italic" lengthAdjust="spacingAndGlyphs" textLength="53" x="416.5" y="239.1543">Property</text><line style="stroke: #000000; stroke-width: 1.5;" x1="388.5" x2="471.5" y1="251" y2="251"/></a><!--class Feature--><a target="_top" xlink:actuate="onRequest" xlink:href="#Feature" xlink:show="new" xlink:title="#Feature" xlink:type="simple"><rect fill="#FFFFFF" filter="url(#fpniut3we2w5u)" height="40"  style="stroke: #000000; stroke-width: 1.5;" width="81" x="464.5" y="100"/><rect fill="#FFFFFF" height="32" style="stroke: #000000; stroke-width: 1.5;" width="81" x="464.5" y="100"/><ellipse cx="479.5" cy="116" fill="#A9DCDF" rx="11" ry="11" style="stroke: #000000; stroke-width: 1.0;"/><path d="M479.6094,111.3438 L478.4531,116.4219 L480.7813,116.4219 L479.6094,111.3438 Z M478.125,109.1094 L481.1094,109.1094 L484.4688,121.5 L482.0156,121.5 L481.25,118.4375 L477.9688,118.4375 L477.2188,121.5 L474.7813,121.5 L478.125,109.1094 Z "/><text fill="#000000" font-family="sans-serif" font-size="12" font-style="italic" lengthAdjust="spacingAndGlyphs" textLength="49" x="493.5" y="120.1543">Feature</text><line style="stroke: #000000; stroke-width: 1.5;" x1="465.5" x2="544.5" y1="132" y2="132"/></a><!--class Term--><a target="_top" xlink:actuate="onRequest" xlink:href="#Term" xlink:show="new" xlink:title="#Term" xlink:type="simple"><rect fill="#D3D3D3" filter="url(#fpniut3we2w5u)" height="32"  style="stroke: #000000; stroke-width: 1.5;" width="63" x="473.5" y="8"/><ellipse cx="488.5" cy="24" fill="#A9DCDF" rx="11" ry="11" style="stroke: #000000; stroke-width: 1.0;"/><path d="M488.6094,19.3438 L487.4531,24.4219 L489.7813,24.4219 L488.6094,19.3438 Z M487.125,17.1094 L490.1094,17.1094 L493.4688,29.5 L491.0156,29.5 L490.25,26.4375 L486.9688,26.4375 L486.2188,29.5 L483.7813,29.5 L487.125,17.1094 Z "/><text fill="#000000" font-family="sans-serif" font-size="12" font-style="italic" lengthAdjust="spacingAndGlyphs" textLength="31" x="502.5" y="28.1543">Term</text></a><!--class ForwardRelation--><a target="_top" xlink:actuate="onRequest" xlink:href="#ForwardRelation" xlink:show="new" xlink:title="#ForwardRelation" xlink:type="simple"><rect fill="#FFFFFF" filter="url(#fpniut3we2w5u)" height="52.8047"  style="stroke: #000000; stroke-width: 1.5;" width="193" x="711.5" y="338"/><rect fill="#FFFFFF" height="32" style="stroke: #000000; stroke-width: 1.5;" width="193" x="711.5" y="338"/><ellipse cx="753.5" cy="354" fill="#ADD1B2" rx="11" ry="11" style="stroke: #000000; stroke-width: 1.0;"/><path d="M756.4688,359.6406 Q755.8906,359.9375 755.25,360.0781 Q754.6094,360.2344 753.9063,360.2344 Q751.4063,360.2344 750.0781,358.5938 Q748.7656,356.9375 748.7656,353.8125 Q748.7656,350.6875 750.0781,349.0313 Q751.4063,347.375 753.9063,347.375 Q754.6094,347.375 755.25,347.5313 Q755.9063,347.6875 756.4688,347.9844 L756.4688,350.7031 Q755.8438,350.125 755.25,349.8594 Q754.6563,349.5781 754.0313,349.5781 Q752.6875,349.5781 752,350.6563 Q751.3125,351.7188 751.3125,353.8125 Q751.3125,355.9063 752,356.9844 Q752.6875,358.0469 754.0313,358.0469 Q754.6563,358.0469 755.25,357.7813 Q755.8438,357.5 756.4688,356.9219 L756.4688,359.6406 Z "/><text fill="#000000" font-family="sans-serif" font-size="12" lengthAdjust="spacingAndGlyphs" textLength="101" x="773.5" y="358.1543">ForwardRelation</text><line style="stroke: #000000; stroke-width: 1.5;" x1="712.5" x2="903.5" y1="370" y2="370"/><text fill="#000000" font-family="sans-serif" font-size="11" lengthAdjust="spacingAndGlyphs" textLength="181" x="717.5" y="384.2104">relationEntity : RelationEntity [1]</text></a><!--class Relation--><a target="_top" xlink:actuate="onRequest" xlink:href="#Relation" xlink:show="new" xlink:title="#Relation" xlink:type="simple"><rect fill="#FFFFFF" filter="url(#fpniut3we2w5u)" height="78.4141"  style="stroke: #000000; stroke-width: 1.5;" width="145" x="507.5" y="200"/><rect fill="#FFFFFF" height="32" style="stroke: #000000; stroke-width: 1.5;" width="145" x="507.5" y="200"/><ellipse cx="550.4" cy="216" fill="#A9DCDF" rx="11" ry="11" style="stroke: #000000; stroke-width: 1.0;"/><path d="M550.5094,211.3438 L549.3531,216.4219 L551.6813,216.4219 L550.5094,211.3438 Z M549.025,209.1094 L552.0094,209.1094 L555.3688,221.5 L552.9156,221.5 L552.15,218.4375 L548.8688,218.4375 L548.1188,221.5 L545.6813,221.5 L549.025,209.1094 Z "/><text fill="#000000" font-family="sans-serif" font-size="12" font-style="italic" lengthAdjust="spacingAndGlyphs" textLength="51" x="570.6" y="220.1543">Relation</text><line style="stroke: #000000; stroke-width: 1.5;" x1="508.5" x2="651.5" y1="232" y2="232"/><text fill="#000000" font-family="sans-serif" font-size="11" lengthAdjust="spacingAndGlyphs" textLength="104" x="513.5" y="246.2104">domain : Entity [1]</text><text fill="#000000" font-family="sans-serif" font-size="11" lengthAdjust="spacingAndGlyphs" textLength="95" x="513.5" y="259.0151">range : Entity [1]</text><text fill="#000000" font-family="sans-serif" font-size="11" lengthAdjust="spacingAndGlyphs" textLength="133" x="513.5" y="271.8198">inverse : Relation [0..1]</text></a><!--class ReverseRelation--><a target="_top" xlink:actuate="onRequest" xlink:href="#ReverseRelation" xlink:show="new" xlink:title="#ReverseRelation" xlink:type="simple"><rect fill="#FFFFFF" filter="url(#fpniut3we2w5u)" height="52.8047"  style="stroke: #000000; stroke-width: 1.5;" width="193" x="483.5" y="338"/><rect fill="#FFFFFF" height="32" style="stroke: #000000; stroke-width: 1.5;" width="193" x="483.5" y="338"/><ellipse cx="525.5" cy="354" fill="#ADD1B2" rx="11" ry="11" style="stroke: #000000; stroke-width: 1.0;"/><path d="M528.4688,359.6406 Q527.8906,359.9375 527.25,360.0781 Q526.6094,360.2344 525.9063,360.2344 Q523.4063,360.2344 522.0781,358.5938 Q520.7656,356.9375 520.7656,353.8125 Q520.7656,350.6875 522.0781,349.0313 Q523.4063,347.375 525.9063,347.375 Q526.6094,347.375 527.25,347.5313 Q527.9063,347.6875 528.4688,347.9844 L528.4688,350.7031 Q527.8438,350.125 527.25,349.8594 Q526.6563,349.5781 526.0313,349.5781 Q524.6875,349.5781 524,350.6563 Q523.3125,351.7188 523.3125,353.8125 Q523.3125,355.9063 524,356.9844 Q524.6875,358.0469 526.0313,358.0469 Q526.6563,358.0469 527.25,357.7813 Q527.8438,357.5 528.4688,356.9219 L528.4688,359.6406 Z "/><text fill="#000000" font-family="sans-serif" font-size="12" lengthAdjust="spacingAndGlyphs" textLength="101" x="545.5" y="358.1543">ReverseRelation</text><line style="stroke: #000000; stroke-width: 1.5;" x1="484.5" x2="675.5" y1="370" y2="370"/><text fill="#000000" font-family="sans-serif" font-size="11" lengthAdjust="spacingAndGlyphs" textLength="181" x="489.5" y="384.2104">relationEntity : RelationEntity [1]</text></a><!--class ScalarProperty--><a target="_top" xlink:actuate="onRequest" xlink:href="#ScalarProperty" xlink:show="new" xlink:title="#ScalarProperty" xlink:type="simple"><rect fill="#FFFFFF" filter="url(#fpniut3we2w5u)" height="78.4141"  style="stroke: #000000; stroke-width: 1.5;" width="139" x="193.5" y="451"/><rect fill="#FFFFFF" height="32" style="stroke: #000000; stroke-width: 1.5;" width="139" x="193.5" y="451"/><ellipse cx="215.25" cy="467" fill="#ADD1B2" rx="11" ry="11" style="stroke: #000000; stroke-width: 1.0;"/><path d="M218.2188,472.6406 Q217.6406,472.9375 217,473.0781 Q216.3594,473.2344 215.6563,473.2344 Q213.1563,473.2344 211.8281,471.5938 Q210.5156,469.9375 210.5156,466.8125 Q210.5156,463.6875 211.8281,462.0313 Q213.1563,460.375 215.6563,460.375 Q216.3594,460.375 217,460.5313 Q217.6563,460.6875 218.2188,460.9844 L218.2188,463.7031 Q217.5938,463.125 217,462.8594 Q216.4063,462.5781 215.7813,462.5781 Q214.4375,462.5781 213.75,463.6563 Q213.0625,464.7188 213.0625,466.8125 Q213.0625,468.9063 213.75,469.9844 Q214.4375,471.0469 215.7813,471.0469 Q216.4063,471.0469 217,470.7813 Q217.5938,470.5 218.2188,469.9219 L218.2188,472.6406 Z "/><text fill="#000000" font-family="sans-serif" font-size="12" lengthAdjust="spacingAndGlyphs" textLength="92" x="230.75" y="471.1543">ScalarProperty</text><line style="stroke: #000000; stroke-width: 1.5;" x1="194.5" x2="331.5" y1="483" y2="483"/><text fill="#000000" font-family="sans-serif" font-size="11" lengthAdjust="spacingAndGlyphs" textLength="113" x="199.5" y="497.2104">functional : Boolean</text><text fill="#000000" font-family="sans-serif" font-size="11" lengthAdjust="spacingAndGlyphs" textLength="127" x="199.5" y="510.0151">domain : Classifier [1]</text><text fill="#000000" font-family="sans-serif" font-size="11" lengthAdjust="spacingAndGlyphs" textLength="100" x="199.5" y="522.8198">range : Scalar [1]</text></a><!--class SemanticProperty--><a target="_top" xlink:actuate="onRequest" xlink:href="#SemanticProperty" xlink:show="new" xlink:title="#SemanticProperty" xlink:type="simple"><rect fill="#FFFFFF" filter="url(#fpniut3we2w5u)" height="40"  style="stroke: #000000; stroke-width: 1.5;" width="143" x="27.5" y="344.5"/><rect fill="#FFFFFF" height="32" style="stroke: #000000; stroke-width: 1.5;" width="143" x="27.5" y="344.5"/><ellipse cx="42.5" cy="360.5" fill="#A9DCDF" rx="11" ry="11" style="stroke: #000000; stroke-width: 1.0;"/><path d="M42.6094,355.8438 L41.4531,360.9219 L43.7813,360.9219 L42.6094,355.8438 Z M41.125,353.6094 L44.1094,353.6094 L47.4688,366 L45.0156,366 L44.25,362.9375 L40.9688,362.9375 L40.2188,366 L37.7813,366 L41.125,353.6094 Z "/><text fill="#000000" font-family="sans-serif" font-size="12" font-style="italic" lengthAdjust="spacingAndGlyphs" textLength="111" x="56.5" y="364.6543">SemanticProperty</text><line style="stroke: #000000; stroke-width: 1.5;" x1="28.5" x2="169.5" y1="376.5" y2="376.5"/></a><!--class StructuredProperty--><a target="_top" xlink:actuate="onRequest" xlink:href="#StructuredProperty" xlink:show="new" xlink:title="#StructuredProperty" xlink:type="simple"><rect fill="#FFFFFF" filter="url(#fpniut3we2w5u)" height="78.4141"  style="stroke: #000000; stroke-width: 1.5;" width="152" x="6" y="451"/><rect fill="#FFFFFF" height="32" style="stroke: #000000; stroke-width: 1.5;" width="152" x="6" y="451"/><ellipse cx="21" cy="467" fill="#ADD1B2" rx="11" ry="11" style="stroke: #000000; stroke-width: 1.0;"/><path d="M23.9688,472.6406 Q23.3906,472.9375 22.75,473.0781 Q22.1094,473.2344 21.4063,473.2344 Q18.9063,473.2344 17.5781,471.5938 Q16.2656,469.9375 16.2656,466.8125 Q16.2656,463.6875 17.5781,462.0313 Q18.9063,460.375 21.4063,460.375 Q22.1094,460.375 22.75,460.5313 Q23.4063,460.6875 23.9688,460.9844 L23.9688,463.7031 Q23.3438,463.125 22.75,462.8594 Q22.1563,462.5781 21.5313,462.5781 Q20.1875,462.5781 19.5,463.6563 Q18.8125,464.7188 18.8125,466.8125 Q18.8125,468.9063 19.5,469.9844 Q20.1875,471.0469 21.5313,471.0469 Q22.1563,471.0469 22.75,470.7813 Q23.3438,470.5 23.9688,469.9219 L23.9688,472.6406 Z "/><text fill="#000000" font-family="sans-serif" font-size="12" lengthAdjust="spacingAndGlyphs" textLength="120" x="35" y="471.1543">StructuredProperty</text><line style="stroke: #000000; stroke-width: 1.5;" x1="7" x2="157" y1="483" y2="483"/><text fill="#000000" font-family="sans-serif" font-size="11" lengthAdjust="spacingAndGlyphs" textLength="113" x="12" y="497.2104">functional : Boolean</text><text fill="#000000" font-family="sans-serif" font-size="11" lengthAdjust="spacingAndGlyphs" textLength="127" x="12" y="510.0151">domain : Classifier [1]</text><text fill="#000000" font-family="sans-serif" font-size="11" lengthAdjust="spacingAndGlyphs" textLength="117" x="12" y="522.8198">range : Structure [1]</text></a><!--link Property to AnnotationProperty--><a target="_top" xlink:actuate="onRequest" xlink:href="#Property" xlink:show="new" xlink:title="#Property" xlink:type="simple"><path d="M432.363,279.219 C435.627,333.411 441.392,429.105 443.844,469.8097 " fill="none"  style="stroke: #000000; stroke-width: 1.0;"/><polygon fill="none" points="425.368,279.51,431.152,259.125,439.342,278.668,425.368,279.51" style="stroke: #000000; stroke-width: 1.0;"/></a><!--link SpecializableTerm to AnnotationProperty--><a target="_top" xlink:actuate="onRequest" xlink:href="#SpecializableTerm" xlink:show="new" xlink:title="#SpecializableTerm" xlink:type="simple"><path d="M314.146,392.807 C345.944,416.182 390.912,449.2389 418.992,469.8809 " fill="none"  style="stroke: #000000; stroke-width: 1.0;"/><polygon fill="none" points="309.568,398.13,297.6,380.644,317.861,386.85,309.568,398.13" style="stroke: #000000; stroke-width: 1.0;"/></a><!--link Term to Feature--><a target="_top" xlink:actuate="onRequest" xlink:href="#Term" xlink:show="new" xlink:title="#Term" xlink:type="simple"><path d="M505,60.445 C505,73.76 505,88.394 505,99.701 " fill="none"  style="stroke: #000000; stroke-width: 1.0;"/><polygon fill="none" points="498,60.103,505,40.103,512,60.103,498,60.103" style="stroke: #000000; stroke-width: 1.0;"/></a><!--link Relation to ForwardRelation--><a target="_top" xlink:actuate="onRequest" xlink:href="#Relation" xlink:show="new" xlink:title="#Relation" xlink:type="simple"><path d="M667.945,287.637 C699.506,304.732 733.882,323.353 760.678,337.867 " fill="none"  style="stroke: #000000; stroke-width: 1.0;"/><polygon fill="none" points="664.52,293.743,650.268,278.062,671.188,281.432,664.52,293.743" style="stroke: #000000; stroke-width: 1.0;"/></a><!--link Feature to Property--><a target="_top" xlink:actuate="onRequest" xlink:href="#Feature" xlink:show="new" xlink:title="#Feature" xlink:type="simple"><path d="M481.962,156.939 C468.846,177.4 452.942,202.21 442.212,218.95 " fill="none"  style="stroke: #000000; stroke-width: 1.0;"/><polygon fill="none" points="476.097,153.118,492.783,140.058,487.883,160.674,476.097,153.118" style="stroke: #000000; stroke-width: 1.0;"/></a><!--link Feature to Relation--><a target="_top" xlink:actuate="onRequest" xlink:href="#Feature" xlink:show="new" xlink:title="#Feature" xlink:type="simple"><path d="M528.047,156.953 C536.697,170.447 546.558,185.831 555.348,199.543 " fill="none"  style="stroke: #000000; stroke-width: 1.0;"/><polygon fill="none" points="522.117,160.674,517.217,140.058,533.903,153.118,522.117,160.674" style="stroke: #000000; stroke-width: 1.0;"/></a><!--link Relation to ReverseRelation--><a target="_top" xlink:actuate="onRequest" xlink:href="#Relation" xlink:show="new" xlink:title="#Relation" xlink:type="simple"><path d="M580,298.52 C580,312.347 580,326.391 580,337.867 " fill="none"  style="stroke: #000000; stroke-width: 1.0;"/><polygon fill="none" points="573,298.062,580,278.062,587,298.062,573,298.062" style="stroke: #000000; stroke-width: 1.0;"/></a><!--link SemanticProperty to ScalarProperty--><a target="_top" xlink:actuate="onRequest" xlink:href="#SemanticProperty" xlink:show="new" xlink:title="#SemanticProperty" xlink:type="simple"><path d="M140.486,396.741 C162.289,413.16 189.197,433.4224 212.236,450.7722 " fill="none"  style="stroke: #000000; stroke-width: 1.0;"/><polygon fill="none" points="136.031,402.149,124.266,384.526,144.453,390.966,136.031,402.149" style="stroke: #000000; stroke-width: 1.0;"/></a><!--link SpecializableTerm to ScalarProperty--><a target="_top" xlink:actuate="onRequest" xlink:href="#SpecializableTerm" xlink:show="new" xlink:title="#SpecializableTerm" xlink:type="simple"><path d="M273.011,400.688 C271.232,416.381 269.133,434.9005 267.317,450.9171 " fill="none"  style="stroke: #000000; stroke-width: 1.0;"/><polygon fill="none" points="266.075,399.728,275.283,380.644,279.986,401.305,266.075,399.728" style="stroke: #000000; stroke-width: 1.0;"/></a><!--link Property to SemanticProperty--><a target="_top" xlink:actuate="onRequest" xlink:href="#Property" xlink:show="new" xlink:title="#Property" xlink:type="simple"><path d="M368.653,262.889 C305.744,286.361 209.01,322.454 150.112,344.429 " fill="none"  style="stroke: #000000; stroke-width: 1.0;"/><polygon fill="none" points="366.22,256.326,387.405,255.893,371.114,269.443,366.22,256.326" style="stroke: #000000; stroke-width: 1.0;"/></a><!--link SemanticProperty to StructuredProperty--><a target="_top" xlink:actuate="onRequest" xlink:href="#SemanticProperty" xlink:show="new" xlink:title="#SemanticProperty" xlink:type="simple"><path d="M93.6251,404.547 C91.5929,419.31 89.2838,436.085 87.2621,450.7722 " fill="none"  style="stroke: #000000; stroke-width: 1.0;"/><polygon fill="none" points="86.719,403.385,96.381,384.526,100.5882,405.294,86.719,403.385" style="stroke: #000000; stroke-width: 1.0;"/></a><!--link SpecializableTerm to StructuredProperty--><a target="_top" xlink:actuate="onRequest" xlink:href="#SpecializableTerm" xlink:show="new" xlink:title="#SpecializableTerm" xlink:type="simple"><path d="M235.86,391.556 C208.656,408.785 172.537,431.6602 142.131,450.9171 " fill="none"  style="stroke: #000000; stroke-width: 1.0;"/><polygon fill="none" points="232.447,385.431,253.089,380.644,239.938,397.258,232.447,385.431" style="stroke: #000000; stroke-width: 1.0;"/></a><!--
@startuml
skinparam classBackgroundColor LightGray
skinparam classBorderColor Black
skinparam enumBorderColor Black
skinparam ArrowColor Black
hide methods
class AnnotationProperty [[#AnnotationProperty]] #white {
}
abstract class SpecializableTerm [[#SpecializableTerm]]
hide SpecializableTerm members
AnnotationProperty -up-|> Property [[#Property]]
AnnotationProperty -up-|> SpecializableTerm [[#SpecializableTerm]]
abstract class Feature [[#Feature]] #white {
}
abstract class Term [[#Term]]
hide Term members
Feature -up-|> Term [[#Term]]
class ForwardRelation [[#ForwardRelation]] #white {
	relationEntity : RelationEntity [1]
}
ForwardRelation -up-|> Relation [[#Relation]]
abstract class Property [[#Property]] #white {
}
Property -up-|> Feature [[#Feature]]
abstract class Relation [[#Relation]] #white {
	domain : Entity [1]
	range : Entity [1]
	inverse : Relation [0..1]
}
Relation -up-|> Feature [[#Feature]]
class ReverseRelation [[#ReverseRelation]] #white {
	relationEntity : RelationEntity [1]
}
ReverseRelation -up-|> Relation [[#Relation]]
class ScalarProperty [[#ScalarProperty]] #white {
	functional : Boolean
	domain : Classifier [1]
	range : Scalar [1]
}
abstract class SpecializableTerm [[#SpecializableTerm]]
hide SpecializableTerm members
ScalarProperty -up-|> SemanticProperty [[#SemanticProperty]]
ScalarProperty -up-|> SpecializableTerm [[#SpecializableTerm]]
abstract class SemanticProperty [[#SemanticProperty]] #white {
}
SemanticProperty -up-|> Property [[#Property]]
class StructuredProperty [[#StructuredProperty]] #white {
	functional : Boolean
	domain : Classifier [1]
	range : Structure [1]
}
abstract class SpecializableTerm [[#SpecializableTerm]]
hide SpecializableTerm members
StructuredProperty -up-|> SemanticProperty [[#SemanticProperty]]
StructuredProperty -up-|> SpecializableTerm [[#SpecializableTerm]]
@enduml

PlantUML version 1.2019.00(Sun Jan 13 15:46:42 UTC 2019)
(GPL source distribution)
Java Runtime: OpenJDK Runtime Environment
JVM: OpenJDK 64-Bit Server VM
Java Version: 11.0.2+9
Operating System: Linux
OS Version: 4.15.0-1098-gcp
Default Encoding: UTF-8
Language: en
Country: US
--></g></svg>
