<?xml version="1.0" encoding="UTF-8" standalone="no"?><svg xmlns="http://www.w3.org/2000/svg" xmlns:xlink="http://www.w3.org/1999/xlink" contentScriptType="application/ecmascript" contentStyleType="text/css" height="670px" preserveAspectRatio="none" style="width:916px;height:670px;" version="1.1" viewBox="0 0 916 670" width="916px" zoomAndPan="magnify"><defs><filter height="300%" id="f2noifzqhuka8" width="300%" x="-1" y="-1"><feGaussianBlur result="blurOut" stdDeviation="2.0"/><feColorMatrix in="blurOut" result="blurOut2" type="matrix" values="0 0 0 0 0 0 0 0 0 0 0 0 0 0 0 0 0 0 .4 0"/><feOffset dx="4.0" dy="4.0" in="blurOut2" result="blurOut3"/><feBlend in="SourceGraphic" in2="blurOut3" mode="normal"/></filter></defs><g><!--class BinaryPredicate--><a target="_top" xlink:actuate="onRequest" xlink:href="#BinaryPredicate" xlink:show="new" xlink:title="#BinaryPredicate" xlink:type="simple"><rect fill="#FFFFFF" filter="url(#f2noifzqhuka8)" height="78.4141"  style="stroke: #000000; stroke-width: 1.5;" width="201" x="344" y="345"/><rect fill="#FFFFFF" height="32" style="stroke: #000000; stroke-width: 1.5;" width="201" x="344" y="345"/><ellipse cx="391.25" cy="361" fill="#A9DCDF" rx="11" ry="11" style="stroke: #000000; stroke-width: 1.0;"/><path d="M391.3594,356.3438 L390.2031,361.4219 L392.5313,361.4219 L391.3594,356.3438 Z M389.875,354.1094 L392.8594,354.1094 L396.2188,366.5 L393.7656,366.5 L393,363.4375 L389.7188,363.4375 L388.9688,366.5 L386.5313,366.5 L389.875,354.1094 Z "/><text fill="#000000" font-family="sans-serif" font-size="12" font-style="italic" lengthAdjust="spacingAndGlyphs" textLength="98" x="411.75" y="365.1543">BinaryPredicate</text><line style="stroke: #000000; stroke-width: 1.5;" x1="345" x2="544" y1="377" y2="377"/><text fill="#000000" font-family="sans-serif" font-size="11" lengthAdjust="spacingAndGlyphs" textLength="75" x="350" y="391.2104">variable1 : ID</text><text fill="#000000" font-family="sans-serif" font-size="11" lengthAdjust="spacingAndGlyphs" textLength="75" x="350" y="404.0151">variable2 : ID</text><text fill="#000000" font-family="sans-serif" font-size="11" lengthAdjust="spacingAndGlyphs" textLength="189" x="350" y="416.8198">instance2 : NamedInstance [0..1]</text></a><!--class Predicate--><a target="_top" xlink:actuate="onRequest" xlink:href="#Predicate" xlink:show="new" xlink:title="#Predicate" xlink:type="simple"><rect fill="#FFFFFF" filter="url(#f2noifzqhuka8)" height="65.6094"  style="stroke: #000000; stroke-width: 1.5;" width="172" x="126.5" y="218"/><rect fill="#FFFFFF" height="32" style="stroke: #000000; stroke-width: 1.5;" width="172" x="126.5" y="218"/><ellipse cx="178.25" cy="234" fill="#A9DCDF" rx="11" ry="11" style="stroke: #000000; stroke-width: 1.0;"/><path d="M178.3594,229.3438 L177.2031,234.4219 L179.5313,234.4219 L178.3594,229.3438 Z M176.875,227.1094 L179.8594,227.1094 L183.2188,239.5 L180.7656,239.5 L180,236.4375 L176.7188,236.4375 L175.9688,239.5 L173.5313,239.5 L176.875,227.1094 Z "/><text fill="#000000" font-family="sans-serif" font-size="12" font-style="italic" lengthAdjust="spacingAndGlyphs" textLength="60" x="198.75" y="238.1543">Predicate</text><line style="stroke: #000000; stroke-width: 1.5;" x1="127.5" x2="297.5" y1="250" y2="250"/><text fill="#000000" font-family="sans-serif" font-size="11" lengthAdjust="spacingAndGlyphs" textLength="157" x="132.5" y="264.2104">antecedentRule : Rule [0..1]</text><text fill="#000000" font-family="sans-serif" font-size="11" lengthAdjust="spacingAndGlyphs" textLength="160" x="132.5" y="277.0151">consequentRule : Rule [0..1]</text></a><!--class DifferentFromPredicate--><a target="_top" xlink:actuate="onRequest" xlink:href="#DifferentFromPredicate" xlink:show="new" xlink:title="#DifferentFromPredicate" xlink:type="simple"><rect fill="#FFFFFF" filter="url(#f2noifzqhuka8)" height="40"  style="stroke: #000000; stroke-width: 1.5;" width="177" x="162" y="497"/><rect fill="#FFFFFF" height="32" style="stroke: #000000; stroke-width: 1.5;" width="177" x="162" y="497"/><ellipse cx="177" cy="513" fill="#ADD1B2" rx="11" ry="11" style="stroke: #000000; stroke-width: 1.0;"/><path d="M179.9688,518.6406 Q179.3906,518.9375 178.75,519.0781 Q178.1094,519.2344 177.4063,519.2344 Q174.9063,519.2344 173.5781,517.5938 Q172.2656,515.9375 172.2656,512.8125 Q172.2656,509.6875 173.5781,508.0313 Q174.9063,506.375 177.4063,506.375 Q178.1094,506.375 178.75,506.5313 Q179.4063,506.6875 179.9688,506.9844 L179.9688,509.7031 Q179.3438,509.125 178.75,508.8594 Q178.1563,508.5781 177.5313,508.5781 Q176.1875,508.5781 175.5,509.6563 Q174.8125,510.7188 174.8125,512.8125 Q174.8125,514.9063 175.5,515.9844 Q176.1875,517.0469 177.5313,517.0469 Q178.1563,517.0469 178.75,516.7813 Q179.3438,516.5 179.9688,515.9219 L179.9688,518.6406 Z "/><text fill="#000000" font-family="sans-serif" font-size="12" lengthAdjust="spacingAndGlyphs" textLength="145" x="191" y="517.1543">DifferentFromPredicate</text><line style="stroke: #000000; stroke-width: 1.5;" x1="163" x2="338" y1="529" y2="529"/></a><!--class FeaturePredicate--><a target="_top" xlink:actuate="onRequest" xlink:href="#FeaturePredicate" xlink:show="new" xlink:title="#FeaturePredicate" xlink:type="simple"><rect fill="#FFFFFF" filter="url(#f2noifzqhuka8)" height="52.8047"  style="stroke: #000000; stroke-width: 1.5;" width="141" x="374" y="490.5"/><rect fill="#FFFFFF" height="32" style="stroke: #000000; stroke-width: 1.5;" width="141" x="374" y="490.5"/><ellipse cx="389" cy="506.5" fill="#ADD1B2" rx="11" ry="11" style="stroke: #000000; stroke-width: 1.0;"/><path d="M391.9688,512.1406 Q391.3906,512.4375 390.75,512.5781 Q390.1094,512.7344 389.4063,512.7344 Q386.9063,512.7344 385.5781,511.0938 Q384.2656,509.4375 384.2656,506.3125 Q384.2656,503.1875 385.5781,501.5313 Q386.9063,499.875 389.4063,499.875 Q390.1094,499.875 390.75,500.0313 Q391.4063,500.1875 391.9688,500.4844 L391.9688,503.2031 Q391.3438,502.625 390.75,502.3594 Q390.1563,502.0781 389.5313,502.0781 Q388.1875,502.0781 387.5,503.1563 Q386.8125,504.2188 386.8125,506.3125 Q386.8125,508.4063 387.5,509.4844 Q388.1875,510.5469 389.5313,510.5469 Q390.1563,510.5469 390.75,510.2813 Q391.3438,510 391.9688,509.4219 L391.9688,512.1406 Z "/><text fill="#000000" font-family="sans-serif" font-size="12" lengthAdjust="spacingAndGlyphs" textLength="109" x="403" y="510.6543">FeaturePredicate</text><line style="stroke: #000000; stroke-width: 1.5;" x1="375" x2="514" y1="522.5" y2="522.5"/><text fill="#000000" font-family="sans-serif" font-size="11" lengthAdjust="spacingAndGlyphs" textLength="115" x="380" y="536.7104">feature : Feature [1]</text></a><!--class Literal--><a target="_top" xlink:actuate="onRequest" xlink:href="#Literal" xlink:show="new" xlink:title="#Literal" xlink:type="simple"><rect fill="#D3D3D3" filter="url(#f2noifzqhuka8)" height="32"  style="stroke: #000000; stroke-width: 1.5;" width="70" x="409.5" y="627"/><ellipse cx="424.5" cy="643" fill="#A9DCDF" rx="11" ry="11" style="stroke: #000000; stroke-width: 1.0;"/><path d="M424.6094,638.3438 L423.4531,643.4219 L425.7813,643.4219 L424.6094,638.3438 Z M423.125,636.1094 L426.1094,636.1094 L429.4688,648.5 L427.0156,648.5 L426.25,645.4375 L422.9688,645.4375 L422.2188,648.5 L419.7813,648.5 L423.125,636.1094 Z "/><text fill="#000000" font-family="sans-serif" font-size="12" font-style="italic" lengthAdjust="spacingAndGlyphs" textLength="38" x="438.5" y="647.1543">Literal</text></a><!--class Element--><a target="_top" xlink:actuate="onRequest" xlink:href="#Element" xlink:show="new" xlink:title="#Element" xlink:type="simple"><rect fill="#D3D3D3" filter="url(#f2noifzqhuka8)" height="32"  style="stroke: #000000; stroke-width: 1.5;" width="83" x="113" y="105"/><ellipse cx="128" cy="121" fill="#A9DCDF" rx="11" ry="11" style="stroke: #000000; stroke-width: 1.0;"/><path d="M128.1094,116.3438 L126.9531,121.4219 L129.2813,121.4219 L128.1094,116.3438 Z M126.625,114.1094 L129.6094,114.1094 L132.9688,126.5 L130.5156,126.5 L129.75,123.4375 L126.4688,123.4375 L125.7188,126.5 L123.2813,126.5 L126.625,114.1094 Z "/><text fill="#000000" font-family="sans-serif" font-size="12" font-style="italic" lengthAdjust="spacingAndGlyphs" textLength="51" x="142" y="125.1543">Element</text></a><!--class RelationEntityPredicate--><a target="_top" xlink:actuate="onRequest" xlink:href="#RelationEntityPredicate" xlink:show="new" xlink:title="#RelationEntityPredicate" xlink:type="simple"><rect fill="#FFFFFF" filter="url(#f2noifzqhuka8)" height="65.6094"  style="stroke: #000000; stroke-width: 1.5;" width="178" x="550.5" y="484"/><rect fill="#FFFFFF" height="32" style="stroke: #000000; stroke-width: 1.5;" width="178" x="550.5" y="484"/><ellipse cx="565.5" cy="500" fill="#ADD1B2" rx="11" ry="11" style="stroke: #000000; stroke-width: 1.0;"/><path d="M568.4688,505.6406 Q567.8906,505.9375 567.25,506.0781 Q566.6094,506.2344 565.9063,506.2344 Q563.4063,506.2344 562.0781,504.5938 Q560.7656,502.9375 560.7656,499.8125 Q560.7656,496.6875 562.0781,495.0313 Q563.4063,493.375 565.9063,493.375 Q566.6094,493.375 567.25,493.5313 Q567.9063,493.6875 568.4688,493.9844 L568.4688,496.7031 Q567.8438,496.125 567.25,495.8594 Q566.6563,495.5781 566.0313,495.5781 Q564.6875,495.5781 564,496.6563 Q563.3125,497.7188 563.3125,499.8125 Q563.3125,501.9063 564,502.9844 Q564.6875,504.0469 566.0313,504.0469 Q566.6563,504.0469 567.25,503.7813 Q567.8438,503.5 568.4688,502.9219 L568.4688,505.6406 Z "/><text fill="#000000" font-family="sans-serif" font-size="12" lengthAdjust="spacingAndGlyphs" textLength="146" x="579.5" y="504.1543">RelationEntityPredicate</text><line style="stroke: #000000; stroke-width: 1.5;" x1="551.5" x2="727.5" y1="516" y2="516"/><text fill="#000000" font-family="sans-serif" font-size="11" lengthAdjust="spacingAndGlyphs" textLength="100" x="556.5" y="530.2104">entityVariable : ID</text><text fill="#000000" font-family="sans-serif" font-size="11" lengthAdjust="spacingAndGlyphs" textLength="138" x="556.5" y="543.0151">entity : RelationEntity [1]</text></a><!--class Rule--><a target="_top" xlink:actuate="onRequest" xlink:href="#Rule" xlink:show="new" xlink:title="#Rule" xlink:type="simple"><rect fill="#FFFFFF" filter="url(#f2noifzqhuka8)" height="40"  style="stroke: #000000; stroke-width: 1.5;" width="59" x="264" y="101"/><rect fill="#FFFFFF" height="32" style="stroke: #000000; stroke-width: 1.5;" width="59" x="264" y="101"/><ellipse cx="279" cy="117" fill="#ADD1B2" rx="11" ry="11" style="stroke: #000000; stroke-width: 1.0;"/><path d="M281.9688,122.6406 Q281.3906,122.9375 280.75,123.0781 Q280.1094,123.2344 279.4063,123.2344 Q276.9063,123.2344 275.5781,121.5938 Q274.2656,119.9375 274.2656,116.8125 Q274.2656,113.6875 275.5781,112.0313 Q276.9063,110.375 279.4063,110.375 Q280.1094,110.375 280.75,110.5313 Q281.4063,110.6875 281.9688,110.9844 L281.9688,113.7031 Q281.3438,113.125 280.75,112.8594 Q280.1563,112.5781 279.5313,112.5781 Q278.1875,112.5781 277.5,113.6563 Q276.8125,114.7188 276.8125,116.8125 Q276.8125,118.9063 277.5,119.9844 Q278.1875,121.0469 279.5313,121.0469 Q280.1563,121.0469 280.75,120.7813 Q281.3438,120.5 281.9688,119.9219 L281.9688,122.6406 Z "/><text fill="#000000" font-family="sans-serif" font-size="12" lengthAdjust="spacingAndGlyphs" textLength="27" x="293" y="121.1543">Rule</text><line style="stroke: #000000; stroke-width: 1.5;" x1="265" x2="322" y1="133" y2="133"/></a><!--class Member--><a target="_top" xlink:actuate="onRequest" xlink:href="#Member" xlink:show="new" xlink:title="#Member" xlink:type="simple"><rect fill="#D3D3D3" filter="url(#f2noifzqhuka8)" height="32"  style="stroke: #000000; stroke-width: 1.5;" width="82" x="332.5" y="8"/><ellipse cx="347.5" cy="24" fill="#A9DCDF" rx="11" ry="11" style="stroke: #000000; stroke-width: 1.0;"/><path d="M347.6094,19.3438 L346.4531,24.4219 L348.7813,24.4219 L347.6094,19.3438 Z M346.125,17.1094 L349.1094,17.1094 L352.4688,29.5 L350.0156,29.5 L349.25,26.4375 L345.9688,26.4375 L345.2188,29.5 L342.7813,29.5 L346.125,17.1094 Z "/><text fill="#000000" font-family="sans-serif" font-size="12" font-style="italic" lengthAdjust="spacingAndGlyphs" textLength="50" x="361.5" y="28.1543">Member</text></a><!--class VocabularyStatement--><a target="_top" xlink:actuate="onRequest" xlink:href="#VocabularyStatement" xlink:show="new" xlink:title="#VocabularyStatement" xlink:type="simple"><rect fill="#D3D3D3" filter="url(#f2noifzqhuka8)" height="32"  style="stroke: #000000; stroke-width: 1.5;" width="167" x="130" y="8"/><ellipse cx="145" cy="24" fill="#A9DCDF" rx="11" ry="11" style="stroke: #000000; stroke-width: 1.0;"/><path d="M145.1094,19.3438 L143.9531,24.4219 L146.2813,24.4219 L145.1094,19.3438 Z M143.625,17.1094 L146.6094,17.1094 L149.9688,29.5 L147.5156,29.5 L146.75,26.4375 L143.4688,26.4375 L142.7188,29.5 L140.2813,29.5 L143.625,17.1094 Z "/><text fill="#000000" font-family="sans-serif" font-size="12" font-style="italic" lengthAdjust="spacingAndGlyphs" textLength="135" x="159" y="28.1543">VocabularyStatement</text></a><!--class SameAsPredicate--><a target="_top" xlink:actuate="onRequest" xlink:href="#SameAsPredicate" xlink:show="new" xlink:title="#SameAsPredicate" xlink:type="simple"><rect fill="#FFFFFF" filter="url(#f2noifzqhuka8)" height="40"  style="stroke: #000000; stroke-width: 1.5;" width="142" x="763.5" y="497"/><rect fill="#FFFFFF" height="32" style="stroke: #000000; stroke-width: 1.5;" width="142" x="763.5" y="497"/><ellipse cx="778.5" cy="513" fill="#ADD1B2" rx="11" ry="11" style="stroke: #000000; stroke-width: 1.0;"/><path d="M781.4688,518.6406 Q780.8906,518.9375 780.25,519.0781 Q779.6094,519.2344 778.9063,519.2344 Q776.4063,519.2344 775.0781,517.5938 Q773.7656,515.9375 773.7656,512.8125 Q773.7656,509.6875 775.0781,508.0313 Q776.4063,506.375 778.9063,506.375 Q779.6094,506.375 780.25,506.5313 Q780.9063,506.6875 781.4688,506.9844 L781.4688,509.7031 Q780.8438,509.125 780.25,508.8594 Q779.6563,508.5781 779.0313,508.5781 Q777.6875,508.5781 777,509.6563 Q776.3125,510.7188 776.3125,512.8125 Q776.3125,514.9063 777,515.9844 Q777.6875,517.0469 779.0313,517.0469 Q779.6563,517.0469 780.25,516.7813 Q780.8438,516.5 781.4688,515.9219 L781.4688,518.6406 Z "/><text fill="#000000" font-family="sans-serif" font-size="12" lengthAdjust="spacingAndGlyphs" textLength="110" x="792.5" y="517.1543">SameAsPredicate</text><line style="stroke: #000000; stroke-width: 1.5;" x1="764.5" x2="904.5" y1="529" y2="529"/></a><!--class TypePredicate--><a target="_top" xlink:actuate="onRequest" xlink:href="#TypePredicate" xlink:show="new" xlink:title="#TypePredicate" xlink:type="simple"><rect fill="#FFFFFF" filter="url(#f2noifzqhuka8)" height="52.8047"  style="stroke: #000000; stroke-width: 1.5;" width="121" x="6" y="490.5"/><rect fill="#FFFFFF" height="32" style="stroke: #000000; stroke-width: 1.5;" width="121" x="6" y="490.5"/><ellipse cx="21" cy="506.5" fill="#ADD1B2" rx="11" ry="11" style="stroke: #000000; stroke-width: 1.0;"/><path d="M23.9688,512.1406 Q23.3906,512.4375 22.75,512.5781 Q22.1094,512.7344 21.4063,512.7344 Q18.9063,512.7344 17.5781,511.0938 Q16.2656,509.4375 16.2656,506.3125 Q16.2656,503.1875 17.5781,501.5313 Q18.9063,499.875 21.4063,499.875 Q22.1094,499.875 22.75,500.0313 Q23.4063,500.1875 23.9688,500.4844 L23.9688,503.2031 Q23.3438,502.625 22.75,502.3594 Q22.1563,502.0781 21.5313,502.0781 Q20.1875,502.0781 19.5,503.1563 Q18.8125,504.2188 18.8125,506.3125 Q18.8125,508.4063 19.5,509.4844 Q20.1875,510.5469 21.5313,510.5469 Q22.1563,510.5469 22.75,510.2813 Q23.3438,510 23.9688,509.4219 L23.9688,512.1406 Z "/><text fill="#000000" font-family="sans-serif" font-size="12" lengthAdjust="spacingAndGlyphs" textLength="89" x="35" y="510.6543">TypePredicate</text><line style="stroke: #000000; stroke-width: 1.5;" x1="7" x2="126" y1="522.5" y2="522.5"/><text fill="#000000" font-family="sans-serif" font-size="11" lengthAdjust="spacingAndGlyphs" textLength="82" x="12" y="536.7104">type : Type [1]</text></a><!--class UnaryPredicate--><a target="_top" xlink:actuate="onRequest" xlink:href="#UnaryPredicate" xlink:show="new" xlink:title="#UnaryPredicate" xlink:type="simple"><rect fill="#FFFFFF" filter="url(#f2noifzqhuka8)" height="52.8047"  style="stroke: #000000; stroke-width: 1.5;" width="128" x="44.5" y="357.5"/><rect fill="#FFFFFF" height="32" style="stroke: #000000; stroke-width: 1.5;" width="128" x="44.5" y="357.5"/><ellipse cx="59.5" cy="373.5" fill="#A9DCDF" rx="11" ry="11" style="stroke: #000000; stroke-width: 1.0;"/><path d="M59.6094,368.8438 L58.4531,373.9219 L60.7813,373.9219 L59.6094,368.8438 Z M58.125,366.6094 L61.1094,366.6094 L64.4688,379 L62.0156,379 L61.25,375.9375 L57.9688,375.9375 L57.2188,379 L54.7813,379 L58.125,366.6094 Z "/><text fill="#000000" font-family="sans-serif" font-size="12" font-style="italic" lengthAdjust="spacingAndGlyphs" textLength="96" x="73.5" y="377.6543">UnaryPredicate</text><line style="stroke: #000000; stroke-width: 1.5;" x1="45.5" x2="171.5" y1="389.5" y2="389.5"/><text fill="#000000" font-family="sans-serif" font-size="11" lengthAdjust="spacingAndGlyphs" textLength="68" x="50.5" y="403.7104">variable : ID</text></a><!--link Predicate to BinaryPredicate--><a target="_top" xlink:actuate="onRequest" xlink:href="#Predicate" xlink:show="new" xlink:title="#Predicate" xlink:type="simple"><path d="M287.075,294.109 C315.895,310.383 348.644,328.874 376.78,344.761 " fill="none"  style="stroke: #000000; stroke-width: 1.0;"/><polygon fill="none" points="283.227,299.975,269.254,284.046,290.111,287.785,283.227,299.975" style="stroke: #000000; stroke-width: 1.0;"/></a><!--link BinaryPredicate to DifferentFromPredicate--><a target="_top" xlink:actuate="onRequest" xlink:href="#BinaryPredicate" xlink:show="new" xlink:title="#BinaryPredicate" xlink:type="simple"><path d="M371.173,434.515 C338.892,456.313 302.885,480.626 278.676,496.974 " fill="none"  style="stroke: #000000; stroke-width: 1.0;"/><polygon fill="none" points="367.634,428.458,388.127,423.067,375.469,440.06,367.634,428.458" style="stroke: #000000; stroke-width: 1.0;"/></a><!--link BinaryPredicate to FeaturePredicate--><a target="_top" xlink:actuate="onRequest" xlink:href="#BinaryPredicate" xlink:show="new" xlink:title="#BinaryPredicate" xlink:type="simple"><path d="M444.5,443.435 C444.5,459.88 444.5,476.926 444.5,490.361 " fill="none"  style="stroke: #000000; stroke-width: 1.0;"/><polygon fill="none" points="437.5,443.243,444.5,423.243,451.5,443.243,437.5,443.243" style="stroke: #000000; stroke-width: 1.0;"/></a><!--link FeaturePredicate to Literal--><path d="M444.5,556.916 C444.5,575.3431 444.5,596.9445 444.5,613.7705 " fill="none"  style="stroke: #000000; stroke-width: 1.0;"/><polygon fill="#000000" points="444.5,626.8669,448.5,617.8669,444.5,621.8669,440.5,617.8669,444.5,626.8669" style="stroke: #000000; stroke-width: 1.0;"/><line style="stroke: #000000; stroke-width: 1.0;" x1="444.5" x2="444.5" y1="621.8669" y2="613.8669"/><polygon fill="#000000" points="444.5,543.693,440.5,549.693,444.5,555.693,448.5,549.693,444.5,543.693" style="stroke: #000000; stroke-width: 1.0;"/><text fill="#000000" font-family="sans-serif" font-size="13" lengthAdjust="spacingAndGlyphs" textLength="43" x="445.5" y="593.0669">literal2</text><text fill="#000000" font-family="sans-serif" font-size="13" lengthAdjust="spacingAndGlyphs" textLength="24" x="416.375" y="615.8327">0..1</text><!--link Element to Predicate--><a target="_top" xlink:actuate="onRequest" xlink:href="#Element" xlink:show="new" xlink:title="#Element" xlink:type="simple"><path d="M164.454,156.276 C167.853,166.638 171.957,177.934 176.5,188 C181.005,197.984 186.667,208.43 192.158,217.841 " fill="none"  style="stroke: #000000; stroke-width: 1.0;"/><polygon fill="none" points="157.717,158.182,158.551,137.009,171.102,154.081,157.717,158.182" style="stroke: #000000; stroke-width: 1.0;"/></a><!--link BinaryPredicate to RelationEntityPredicate--><a target="_top" xlink:actuate="onRequest" xlink:href="#BinaryPredicate" xlink:show="new" xlink:title="#BinaryPredicate" xlink:type="simple"><path d="M517.815,434.253 C542.499,450.835 569.391,468.901 591.601,483.822 " fill="none"  style="stroke: #000000; stroke-width: 1.0;"/><polygon fill="none" points="513.862,440.03,501.164,423.067,521.669,428.409,513.862,440.03" style="stroke: #000000; stroke-width: 1.0;"/></a><!--link Member to Rule--><a target="_top" xlink:actuate="onRequest" xlink:href="#Member" xlink:show="new" xlink:title="#Member" xlink:type="simple"><path d="M347.734,55.597 C335.215,70.464 320.556,87.871 309.637,100.838 " fill="none"  style="stroke: #000000; stroke-width: 1.0;"/><polygon fill="none" points="342.409,51.053,360.647,40.263,353.118,60.071,342.409,51.053" style="stroke: #000000; stroke-width: 1.0;"/></a><!--link VocabularyStatement to Rule--><a target="_top" xlink:actuate="onRequest" xlink:href="#VocabularyStatement" xlink:show="new" xlink:title="#VocabularyStatement" xlink:type="simple"><path d="M239.266,55.597 C251.785,70.464 266.444,87.871 277.363,100.838 " fill="none"  style="stroke: #000000; stroke-width: 1.0;"/><polygon fill="none" points="233.882,60.071,226.353,40.263,244.591,51.053,233.882,60.071" style="stroke: #000000; stroke-width: 1.0;"/></a><!--link Rule to Predicate--><path d="M251.711,135.927 C235.55,143.591 218.747,154.9 209.5,171 C203.751,181.009 202.103,192.966 202.482,204.513 " fill="none"  style="stroke: #000000; stroke-width: 1.0;"/><polygon fill="#000000" points="203.733,217.737,206.8676,208.4003,203.2621,212.7592,198.9031,209.1537,203.733,217.737" style="stroke: #000000; stroke-width: 1.0;"/><line style="stroke: #000000; stroke-width: 1.0;" x1="203.2621" x2="202.5085" y1="212.7592" y2="204.7945"/><polygon fill="#000000" points="263.808,130.757,256.7189,129.4363,252.7732,135.4721,259.8623,136.7928,263.808,130.757" style="stroke: #000000; stroke-width: 1.0;"/><text fill="#000000" font-family="sans-serif" font-size="13" lengthAdjust="spacingAndGlyphs" textLength="73" x="210.5" y="184.0669">antecedent</text><text fill="#000000" font-family="sans-serif" font-size="13" lengthAdjust="spacingAndGlyphs" textLength="7" x="194.3179" y="206.8302">*</text><!--link Rule to Predicate--><path d="M296.114,154.36 C295.737,165.552 293.809,177.829 288.5,188 C284.622,195.43 279.426,202.294 273.562,208.537 " fill="none"  style="stroke: #000000; stroke-width: 1.0;"/><polygon fill="#000000" points="263.891,217.825,273.1529,214.4759,267.4972,214.3616,267.6115,208.7059,263.891,217.825" style="stroke: #000000; stroke-width: 1.0;"/><line style="stroke: #000000; stroke-width: 1.0;" x1="267.4972" x2="273.2665" y1="214.3616" y2="208.8205"/><polygon fill="#000000" points="295.9,141.002,291.9968,147.0654,296.0925,153.0005,299.9957,146.9371,295.9,141.002" style="stroke: #000000; stroke-width: 1.0;"/><text fill="#000000" font-family="sans-serif" font-size="13" lengthAdjust="spacingAndGlyphs" textLength="75" x="295.5" y="184.0669">consequent</text><text fill="#000000" font-family="sans-serif" font-size="13" lengthAdjust="spacingAndGlyphs" textLength="7" x="266.3195" y="206.9355">*</text><!--link BinaryPredicate to SameAsPredicate--><a target="_top" xlink:actuate="onRequest" xlink:href="#BinaryPredicate" xlink:show="new" xlink:title="#BinaryPredicate" xlink:type="simple"><path d="M564.133,423.515 C619.445,441.536 685.941,463.502 745.5,484 C757.455,488.114 770.27,492.649 782.346,496.978 " fill="none"  style="stroke: #000000; stroke-width: 1.0;"/><polygon fill="none" points="561.919,430.156,545.064,417.314,566.248,416.842,561.919,430.156" style="stroke: #000000; stroke-width: 1.0;"/></a><!--link UnaryPredicate to TypePredicate--><a target="_top" xlink:actuate="onRequest" xlink:href="#UnaryPredicate" xlink:show="new" xlink:title="#UnaryPredicate" xlink:type="simple"><path d="M94.1142,429.87 C87.6234,450.115 80.1937,473.289 74.6771,490.495 " fill="none"  style="stroke: #000000; stroke-width: 1.0;"/><polygon fill="none" points="87.5304,427.477,100.3023,410.569,100.8619,431.751,87.5304,427.477" style="stroke: #000000; stroke-width: 1.0;"/></a><!--link Predicate to UnaryPredicate--><a target="_top" xlink:actuate="onRequest" xlink:href="#Predicate" xlink:show="new" xlink:title="#Predicate" xlink:type="simple"><path d="M174.606,299.731 C159.117,319.241 141.822,341.027 128.808,357.42 " fill="none"  style="stroke: #000000; stroke-width: 1.0;"/><polygon fill="none" points="169.141,295.358,187.059,284.046,180.106,304.063,169.141,295.358" style="stroke: #000000; stroke-width: 1.0;"/></a><!--
@startuml
skinparam classBackgroundColor LightGray
skinparam classBorderColor Black
skinparam enumBorderColor Black
skinparam ArrowColor Black
hide methods
abstract class BinaryPredicate [[#BinaryPredicate]] #white {
	variable1 : ID
	variable2 : ID
	instance2 : NamedInstance [0..1]
}
BinaryPredicate -up-|> Predicate [[#Predicate]]
class DifferentFromPredicate [[#DifferentFromPredicate]] #white {
}
DifferentFromPredicate -up-|> BinaryPredicate [[#BinaryPredicate]]
class FeaturePredicate [[#FeaturePredicate]] #white {
	feature : Feature [1]
}
abstract class Literal [[#Literal]]
hide Literal members
FeaturePredicate -up-|> BinaryPredicate [[#BinaryPredicate]]
FeaturePredicate *- -> "0..1" Literal : literal2
abstract class Predicate [[#Predicate]] #white {
	antecedentRule : Rule [0..1]
	consequentRule : Rule [0..1]
}
abstract class Element [[#Element]]
hide Element members
Predicate -up-|> Element [[#Element]]
class RelationEntityPredicate [[#RelationEntityPredicate]] #white {
	entityVariable : ID
	entity : RelationEntity [1]
}
RelationEntityPredicate -up-|> BinaryPredicate [[#BinaryPredicate]]
class Rule [[#Rule]] #white {
}
abstract class Member [[#Member]]
hide Member members
abstract class VocabularyStatement [[#VocabularyStatement]]
hide VocabularyStatement members
Rule -up-|> Member [[#Member]]
Rule -up-|> VocabularyStatement [[#VocabularyStatement]]
Rule *- -> "*" Predicate : antecedent
Rule *- -> "*" Predicate : consequent
class SameAsPredicate [[#SameAsPredicate]] #white {
}
SameAsPredicate -up-|> BinaryPredicate [[#BinaryPredicate]]
class TypePredicate [[#TypePredicate]] #white {
	type : Type [1]
}
TypePredicate -up-|> UnaryPredicate [[#UnaryPredicate]]
abstract class UnaryPredicate [[#UnaryPredicate]] #white {
	variable : ID
}
UnaryPredicate -up-|> Predicate [[#Predicate]]
@enduml

PlantUML version 1.2019.00(Sun Jan 13 15:46:42 UTC 2019)
(GPL source distribution)
Java Runtime: OpenJDK Runtime Environment
JVM: OpenJDK 64-Bit Server VM
Java Version: 11.0.15.1+2-LTS
Operating System: Linux
OS Version: 4.15.0-1098-gcp
Default Encoding: UTF-8
Language: en
Country: US
--></g></svg>
