<?xml version="1.0" encoding="UTF-8" standalone="no"?><svg xmlns="http://www.w3.org/2000/svg" xmlns:xlink="http://www.w3.org/1999/xlink" contentScriptType="application/ecmascript" contentStyleType="text/css" height="552px" preserveAspectRatio="none" style="width:1197px;height:552px;" version="1.1" viewBox="0 0 1197 552" width="1197px" zoomAndPan="magnify"><defs><filter height="300%" id="f17ykxsv828npx" width="300%" x="-1" y="-1"><feGaussianBlur result="blurOut" stdDeviation="2.0"/><feColorMatrix in="blurOut" result="blurOut2" type="matrix" values="0 0 0 0 0 0 0 0 0 0 0 0 0 0 0 0 0 0 .4 0"/><feOffset dx="4.0" dy="4.0" in="blurOut2" result="blurOut3"/><feBlend in="SourceGraphic" in2="blurOut3" mode="normal"/></filter></defs><g><!--class Assertion--><a target="_top" xlink:actuate="onRequest" xlink:href="#Assertion" xlink:show="new" xlink:title="#Assertion" xlink:type="simple"><rect fill="#FFFFFF" filter="url(#f17ykxsv828npx)" height="40"  style="stroke: #000000; stroke-width: 1.5;" width="91" x="647.5" y="101"/><rect fill="#FFFFFF" height="32" style="stroke: #000000; stroke-width: 1.5;" width="91" x="647.5" y="101"/><ellipse cx="662.5" cy="117" fill="#A9DCDF" rx="11" ry="11" style="stroke: #000000; stroke-width: 1.0;"/><path d="M662.6094,112.3438 L661.4531,117.4219 L663.7813,117.4219 L662.6094,112.3438 Z M661.125,110.1094 L664.1094,110.1094 L667.4688,122.5 L665.0156,122.5 L664.25,119.4375 L660.9688,119.4375 L660.2188,122.5 L657.7813,122.5 L661.125,110.1094 Z "/><text fill="#000000" font-family="sans-serif" font-size="12" font-style="italic" lengthAdjust="spacingAndGlyphs" textLength="59" x="676.5" y="121.1543">Assertion</text><line style="stroke: #000000; stroke-width: 1.5;" x1="648.5" x2="737.5" y1="133" y2="133"/></a><!--class Element--><a target="_top" xlink:actuate="onRequest" xlink:href="#Element" xlink:show="new" xlink:title="#Element" xlink:type="simple"><rect fill="#D3D3D3" filter="url(#f17ykxsv828npx)" height="32"  style="stroke: #000000; stroke-width: 1.5;" width="83" x="651.5" y="8"/><ellipse cx="666.5" cy="24" fill="#A9DCDF" rx="11" ry="11" style="stroke: #000000; stroke-width: 1.0;"/><path d="M666.6094,19.3438 L665.4531,24.4219 L667.7813,24.4219 L666.6094,19.3438 Z M665.125,17.1094 L668.1094,17.1094 L671.4688,29.5 L669.0156,29.5 L668.25,26.4375 L664.9688,26.4375 L664.2188,29.5 L661.7813,29.5 L665.125,17.1094 Z "/><text fill="#000000" font-family="sans-serif" font-size="12" font-style="italic" lengthAdjust="spacingAndGlyphs" textLength="51" x="680.5" y="28.1543">Element</text></a><!--class ConceptTypeAssertion--><a target="_top" xlink:actuate="onRequest" xlink:href="#ConceptTypeAssertion" xlink:show="new" xlink:title="#ConceptTypeAssertion" xlink:type="simple"><rect fill="#FFFFFF" filter="url(#f17ykxsv828npx)" height="78.4141"  style="stroke: #000000; stroke-width: 1.5;" width="306" x="540" y="354"/><rect fill="#FFFFFF" height="32" style="stroke: #000000; stroke-width: 1.5;" width="306" x="540" y="354"/><ellipse cx="618.75" cy="370" fill="#ADD1B2" rx="11" ry="11" style="stroke: #000000; stroke-width: 1.0;"/><path d="M621.7188,375.6406 Q621.1406,375.9375 620.5,376.0781 Q619.8594,376.2344 619.1563,376.2344 Q616.6563,376.2344 615.3281,374.5938 Q614.0156,372.9375 614.0156,369.8125 Q614.0156,366.6875 615.3281,365.0313 Q616.6563,363.375 619.1563,363.375 Q619.8594,363.375 620.5,363.5313 Q621.1563,363.6875 621.7188,363.9844 L621.7188,366.7031 Q621.0938,366.125 620.5,365.8594 Q619.9063,365.5781 619.2813,365.5781 Q617.9375,365.5781 617.25,366.6563 Q616.5625,367.7188 616.5625,369.8125 Q616.5625,371.9063 617.25,372.9844 Q617.9375,374.0469 619.2813,374.0469 Q619.9063,374.0469 620.5,373.7813 Q621.0938,373.5 621.7188,372.9219 L621.7188,375.6406 Z "/><text fill="#000000" font-family="sans-serif" font-size="12" lengthAdjust="spacingAndGlyphs" textLength="140" x="639.25" y="374.1543">ConceptTypeAssertion</text><line style="stroke: #000000; stroke-width: 1.5;" x1="541" x2="845" y1="386" y2="386"/><text fill="#000000" font-family="sans-serif" font-size="11" lengthAdjust="spacingAndGlyphs" textLength="101" x="546" y="400.2104">type : Concept [1]</text><text fill="#000000" font-family="sans-serif" font-size="11" lengthAdjust="spacingAndGlyphs" textLength="228" x="546" y="413.0151">owningInstance : ConceptInstance [0..1]</text><text fill="#000000" font-family="sans-serif" font-size="11" lengthAdjust="spacingAndGlyphs" textLength="294" x="546" y="425.8198">owningReference : ConceptInstanceReference [0..1]</text></a><!--class TypeAssertion--><a target="_top" xlink:actuate="onRequest" xlink:href="#TypeAssertion" xlink:show="new" xlink:title="#TypeAssertion" xlink:type="simple"><rect fill="#FFFFFF" filter="url(#f17ykxsv828npx)" height="40"  style="stroke: #000000; stroke-width: 1.5;" width="120" x="633" y="227.5"/><rect fill="#FFFFFF" height="32" style="stroke: #000000; stroke-width: 1.5;" width="120" x="633" y="227.5"/><ellipse cx="648" cy="243.5" fill="#A9DCDF" rx="11" ry="11" style="stroke: #000000; stroke-width: 1.0;"/><path d="M648.1094,238.8438 L646.9531,243.9219 L649.2813,243.9219 L648.1094,238.8438 Z M646.625,236.6094 L649.6094,236.6094 L652.9688,249 L650.5156,249 L649.75,245.9375 L646.4688,245.9375 L645.7188,249 L643.2813,249 L646.625,236.6094 Z "/><text fill="#000000" font-family="sans-serif" font-size="12" font-style="italic" lengthAdjust="spacingAndGlyphs" textLength="88" x="662" y="247.6543">TypeAssertion</text><line style="stroke: #000000; stroke-width: 1.5;" x1="634" x2="752" y1="259.5" y2="259.5"/></a><!--class LinkAssertion--><a target="_top" xlink:actuate="onRequest" xlink:href="#LinkAssertion" xlink:show="new" xlink:title="#LinkAssertion" xlink:type="simple"><rect fill="#FFFFFF" filter="url(#f17ykxsv828npx)" height="91.2188"  style="stroke: #000000; stroke-width: 1.5;" width="300" x="788" y="202"/><rect fill="#FFFFFF" height="32" style="stroke: #000000; stroke-width: 1.5;" width="300" x="788" y="202"/><ellipse cx="892.25" cy="218" fill="#ADD1B2" rx="11" ry="11" style="stroke: #000000; stroke-width: 1.0;"/><path d="M895.2188,223.6406 Q894.6406,223.9375 894,224.0781 Q893.3594,224.2344 892.6563,224.2344 Q890.1563,224.2344 888.8281,222.5938 Q887.5156,220.9375 887.5156,217.8125 Q887.5156,214.6875 888.8281,213.0313 Q890.1563,211.375 892.6563,211.375 Q893.3594,211.375 894,211.5313 Q894.6563,211.6875 895.2188,211.9844 L895.2188,214.7031 Q894.5938,214.125 894,213.8594 Q893.4063,213.5781 892.7813,213.5781 Q891.4375,213.5781 890.75,214.6563 Q890.0625,215.7188 890.0625,217.8125 Q890.0625,219.9063 890.75,220.9844 Q891.4375,222.0469 892.7813,222.0469 Q893.4063,222.0469 894,221.7813 Q894.5938,221.5 895.2188,220.9219 L895.2188,223.6406 Z "/><text fill="#000000" font-family="sans-serif" font-size="12" lengthAdjust="spacingAndGlyphs" textLength="83" x="912.75" y="222.1543">LinkAssertion</text><line style="stroke: #000000; stroke-width: 1.5;" x1="789" x2="1087" y1="234" y2="234"/><text fill="#000000" font-family="sans-serif" font-size="11" lengthAdjust="spacingAndGlyphs" textLength="119" x="794" y="248.2104">relation : Relation [1]</text><text fill="#000000" font-family="sans-serif" font-size="11" lengthAdjust="spacingAndGlyphs" textLength="153" x="794" y="261.0151">target : NamedInstance [1]</text><text fill="#000000" font-family="sans-serif" font-size="11" lengthAdjust="spacingAndGlyphs" textLength="222" x="794" y="273.8198">owningInstance : NamedInstance [0..1]</text><text fill="#000000" font-family="sans-serif" font-size="11" lengthAdjust="spacingAndGlyphs" textLength="288" x="794" y="286.6245">owningReference : NamedInstanceReference [0..1]</text></a><!--class PropertyValueAssertion--><a target="_top" xlink:actuate="onRequest" xlink:href="#PropertyValueAssertion" xlink:show="new" xlink:title="#PropertyValueAssertion" xlink:type="simple"><rect fill="#FFFFFF" filter="url(#f17ykxsv828npx)" height="65.6094"  style="stroke: #000000; stroke-width: 1.5;" width="300" x="232" y="214.5"/><rect fill="#FFFFFF" height="32" style="stroke: #000000; stroke-width: 1.5;" width="300" x="232" y="214.5"/><ellipse cx="304.25" cy="230.5" fill="#A9DCDF" rx="11" ry="11" style="stroke: #000000; stroke-width: 1.0;"/><path d="M304.3594,225.8438 L303.2031,230.9219 L305.5313,230.9219 L304.3594,225.8438 Z M302.875,223.6094 L305.8594,223.6094 L309.2188,236 L306.7656,236 L306,232.9375 L302.7188,232.9375 L301.9688,236 L299.5313,236 L302.875,223.6094 Z "/><text fill="#000000" font-family="sans-serif" font-size="12" font-style="italic" lengthAdjust="spacingAndGlyphs" textLength="147" x="324.75" y="234.6543">PropertyValueAssertion</text><line style="stroke: #000000; stroke-width: 1.5;" x1="233" x2="531" y1="246.5" y2="246.5"/><text fill="#000000" font-family="sans-serif" font-size="11" lengthAdjust="spacingAndGlyphs" textLength="182" x="238" y="260.7104">owningInstance : Instance [0..1]</text><text fill="#000000" font-family="sans-serif" font-size="11" lengthAdjust="spacingAndGlyphs" textLength="288" x="238" y="273.5151">owningReference : NamedInstanceReference [0..1]</text></a><!--class RelationTypeAssertion--><a target="_top" xlink:actuate="onRequest" xlink:href="#RelationTypeAssertion" xlink:show="new" xlink:title="#RelationTypeAssertion" xlink:type="simple"><rect fill="#FFFFFF" filter="url(#f17ykxsv828npx)" height="78.4141"  style="stroke: #000000; stroke-width: 1.5;" width="305" x="881.5" y="354"/><rect fill="#FFFFFF" height="32" style="stroke: #000000; stroke-width: 1.5;" width="305" x="881.5" y="354"/><ellipse cx="960.25" cy="370" fill="#ADD1B2" rx="11" ry="11" style="stroke: #000000; stroke-width: 1.0;"/><path d="M963.2188,375.6406 Q962.6406,375.9375 962,376.0781 Q961.3594,376.2344 960.6563,376.2344 Q958.1563,376.2344 956.8281,374.5938 Q955.5156,372.9375 955.5156,369.8125 Q955.5156,366.6875 956.8281,365.0313 Q958.1563,363.375 960.6563,363.375 Q961.3594,363.375 962,363.5313 Q962.6563,363.6875 963.2188,363.9844 L963.2188,366.7031 Q962.5938,366.125 962,365.8594 Q961.4063,365.5781 960.7813,365.5781 Q959.4375,365.5781 958.75,366.6563 Q958.0625,367.7188 958.0625,369.8125 Q958.0625,371.9063 958.75,372.9844 Q959.4375,374.0469 960.7813,374.0469 Q961.4063,374.0469 962,373.7813 Q962.5938,373.5 963.2188,372.9219 L963.2188,375.6406 Z "/><text fill="#000000" font-family="sans-serif" font-size="12" lengthAdjust="spacingAndGlyphs" textLength="139" x="980.75" y="374.1543">RelationTypeAssertion</text><line style="stroke: #000000; stroke-width: 1.5;" x1="882.5" x2="1185.5" y1="386" y2="386"/><text fill="#000000" font-family="sans-serif" font-size="11" lengthAdjust="spacingAndGlyphs" textLength="131" x="887.5" y="400.2104">type : RelationEntity [1]</text><text fill="#000000" font-family="sans-serif" font-size="11" lengthAdjust="spacingAndGlyphs" textLength="227" x="887.5" y="413.0151">owningInstance : RelationInstance [0..1]</text><text fill="#000000" font-family="sans-serif" font-size="11" lengthAdjust="spacingAndGlyphs" textLength="293" x="887.5" y="425.8198">owningReference : RelationInstanceReference [0..1]</text></a><!--class ScalarPropertyValueAssertion--><a target="_top" xlink:actuate="onRequest" xlink:href="#ScalarPropertyValueAssertion" xlink:show="new" xlink:title="#ScalarPropertyValueAssertion" xlink:type="simple"><rect fill="#FFFFFF" filter="url(#f17ykxsv828npx)" height="52.8047"  style="stroke: #000000; stroke-width: 1.5;" width="218" x="6" y="366.5"/><rect fill="#FFFFFF" height="32" style="stroke: #000000; stroke-width: 1.5;" width="218" x="6" y="366.5"/><ellipse cx="21" cy="382.5" fill="#ADD1B2" rx="11" ry="11" style="stroke: #000000; stroke-width: 1.0;"/><path d="M23.9688,388.1406 Q23.3906,388.4375 22.75,388.5781 Q22.1094,388.7344 21.4063,388.7344 Q18.9063,388.7344 17.5781,387.0938 Q16.2656,385.4375 16.2656,382.3125 Q16.2656,379.1875 17.5781,377.5313 Q18.9063,375.875 21.4063,375.875 Q22.1094,375.875 22.75,376.0313 Q23.4063,376.1875 23.9688,376.4844 L23.9688,379.2031 Q23.3438,378.625 22.75,378.3594 Q22.1563,378.0781 21.5313,378.0781 Q20.1875,378.0781 19.5,379.1563 Q18.8125,380.2188 18.8125,382.3125 Q18.8125,384.4063 19.5,385.4844 Q20.1875,386.5469 21.5313,386.5469 Q22.1563,386.5469 22.75,386.2813 Q23.3438,386 23.9688,385.4219 L23.9688,388.1406 Z "/><text fill="#000000" font-family="sans-serif" font-size="12" lengthAdjust="spacingAndGlyphs" textLength="186" x="35" y="386.6543">ScalarPropertyValueAssertion</text><line style="stroke: #000000; stroke-width: 1.5;" x1="7" x2="223" y1="398.5" y2="398.5"/><text fill="#000000" font-family="sans-serif" font-size="11" lengthAdjust="spacingAndGlyphs" textLength="163" x="12" y="412.7104">property : ScalarProperty [1]</text></a><!--class Literal--><a target="_top" xlink:actuate="onRequest" xlink:href="#Literal" xlink:show="new" xlink:title="#Literal" xlink:type="simple"><rect fill="#D3D3D3" filter="url(#f17ykxsv828npx)" height="32"  style="stroke: #000000; stroke-width: 1.5;" width="70" x="80" y="509"/><ellipse cx="95" cy="525" fill="#A9DCDF" rx="11" ry="11" style="stroke: #000000; stroke-width: 1.0;"/><path d="M95.1094,520.3438 L93.9531,525.4219 L96.2813,525.4219 L95.1094,520.3438 Z M93.625,518.1094 L96.6094,518.1094 L99.9688,530.5 L97.5156,530.5 L96.75,527.4375 L93.4688,527.4375 L92.7188,530.5 L90.2813,530.5 L93.625,518.1094 Z "/><text fill="#000000" font-family="sans-serif" font-size="12" font-style="italic" lengthAdjust="spacingAndGlyphs" textLength="38" x="109" y="529.1543">Literal</text></a><!--class StructuredPropertyValueAssertion--><a target="_top" xlink:actuate="onRequest" xlink:href="#StructuredPropertyValueAssertion" xlink:show="new" xlink:title="#StructuredPropertyValueAssertion" xlink:type="simple"><rect fill="#FFFFFF" filter="url(#f17ykxsv828npx)" height="52.8047"  style="stroke: #000000; stroke-width: 1.5;" width="246" x="259" y="366.5"/><rect fill="#FFFFFF" height="32" style="stroke: #000000; stroke-width: 1.5;" width="246" x="259" y="366.5"/><ellipse cx="274" cy="382.5" fill="#ADD1B2" rx="11" ry="11" style="stroke: #000000; stroke-width: 1.0;"/><path d="M276.9688,388.1406 Q276.3906,388.4375 275.75,388.5781 Q275.1094,388.7344 274.4063,388.7344 Q271.9063,388.7344 270.5781,387.0938 Q269.2656,385.4375 269.2656,382.3125 Q269.2656,379.1875 270.5781,377.5313 Q271.9063,375.875 274.4063,375.875 Q275.1094,375.875 275.75,376.0313 Q276.4063,376.1875 276.9688,376.4844 L276.9688,379.2031 Q276.3438,378.625 275.75,378.3594 Q275.1563,378.0781 274.5313,378.0781 Q273.1875,378.0781 272.5,379.1563 Q271.8125,380.2188 271.8125,382.3125 Q271.8125,384.4063 272.5,385.4844 Q273.1875,386.5469 274.5313,386.5469 Q275.1563,386.5469 275.75,386.2813 Q276.3438,386 276.9688,385.4219 L276.9688,388.1406 Z "/><text fill="#000000" font-family="sans-serif" font-size="12" lengthAdjust="spacingAndGlyphs" textLength="214" x="288" y="386.6543">StructuredPropertyValueAssertion</text><line style="stroke: #000000; stroke-width: 1.5;" x1="260" x2="504" y1="398.5" y2="398.5"/><text fill="#000000" font-family="sans-serif" font-size="11" lengthAdjust="spacingAndGlyphs" textLength="187" x="265" y="412.7104">property : StructuredProperty [1]</text></a><!--class StructureInstance--><a target="_top" xlink:actuate="onRequest" xlink:href="#StructureInstance" xlink:show="new" xlink:title="#StructureInstance" xlink:type="simple"><rect fill="#D3D3D3" filter="url(#f17ykxsv828npx)" height="32"  style="stroke: #000000; stroke-width: 1.5;" width="145" x="309.5" y="509"/><ellipse cx="324.5" cy="525" fill="#ADD1B2" rx="11" ry="11" style="stroke: #000000; stroke-width: 1.0;"/><path d="M327.4688,530.6406 Q326.8906,530.9375 326.25,531.0781 Q325.6094,531.2344 324.9063,531.2344 Q322.4063,531.2344 321.0781,529.5938 Q319.7656,527.9375 319.7656,524.8125 Q319.7656,521.6875 321.0781,520.0313 Q322.4063,518.375 324.9063,518.375 Q325.6094,518.375 326.25,518.5313 Q326.9063,518.6875 327.4688,518.9844 L327.4688,521.7031 Q326.8438,521.125 326.25,520.8594 Q325.6563,520.5781 325.0313,520.5781 Q323.6875,520.5781 323,521.6563 Q322.3125,522.7188 322.3125,524.8125 Q322.3125,526.9063 323,527.9844 Q323.6875,529.0469 325.0313,529.0469 Q325.6563,529.0469 326.25,528.7813 Q326.8438,528.5 327.4688,527.9219 L327.4688,530.6406 Z "/><text fill="#000000" font-family="sans-serif" font-size="12" lengthAdjust="spacingAndGlyphs" textLength="113" x="338.5" y="529.1543">StructureInstance</text></a><!--link Element to Assertion--><a target="_top" xlink:actuate="onRequest" xlink:href="#Element" xlink:show="new" xlink:title="#Element" xlink:type="simple"><path d="M693,60.472 C693,74.156 693,89.266 693,100.838 " fill="none"  style="stroke: #000000; stroke-width: 1.0;"/><polygon fill="none" points="686,60.263,693,40.263,700,60.263,686,60.263" style="stroke: #000000; stroke-width: 1.0;"/></a><!--link TypeAssertion to ConceptTypeAssertion--><a target="_top" xlink:actuate="onRequest" xlink:href="#TypeAssertion" xlink:show="new" xlink:title="#TypeAssertion" xlink:type="simple"><path d="M693,287.719 C693,308.353 693,333.54 693,353.992 " fill="none"  style="stroke: #000000; stroke-width: 1.0;"/><polygon fill="none" points="686,287.556,693,267.556,700,287.556,686,287.556" style="stroke: #000000; stroke-width: 1.0;"/></a><!--link Assertion to LinkAssertion--><a target="_top" xlink:actuate="onRequest" xlink:href="#Assertion" xlink:show="new" xlink:title="#Assertion" xlink:type="simple"><path d="M748.513,150.21 C778.531,165.464 816.3,184.656 850.203,201.885 " fill="none"  style="stroke: #000000; stroke-width: 1.0;"/><polygon fill="none" points="745.136,156.345,730.477,141.044,751.478,143.864,745.136,156.345" style="stroke: #000000; stroke-width: 1.0;"/></a><!--link Assertion to PropertyValueAssertion--><a target="_top" xlink:actuate="onRequest" xlink:href="#Assertion" xlink:show="new" xlink:title="#Assertion" xlink:type="simple"><path d="M628.589,147.785 C580.264,167.131 513.81,193.733 462.065,214.448 " fill="none"  style="stroke: #000000; stroke-width: 1.0;"/><polygon fill="none" points="626.276,141.171,647.445,140.237,631.479,154.168,626.276,141.171" style="stroke: #000000; stroke-width: 1.0;"/></a><!--link TypeAssertion to RelationTypeAssertion--><a target="_top" xlink:actuate="onRequest" xlink:href="#TypeAssertion" xlink:show="new" xlink:title="#TypeAssertion" xlink:type="simple"><path d="M741.529,277.754 C751.151,283.106 761.284,288.435 771,293 C819.13,315.614 873.954,336.919 921.046,353.929 " fill="none"  style="stroke: #000000; stroke-width: 1.0;"/><polygon fill="none" points="737.756,283.66,723.898,267.63,744.728,271.519,737.756,283.66" style="stroke: #000000; stroke-width: 1.0;"/></a><!--link PropertyValueAssertion to ScalarPropertyValueAssertion--><a target="_top" xlink:actuate="onRequest" xlink:href="#PropertyValueAssertion" xlink:show="new" xlink:title="#PropertyValueAssertion" xlink:type="simple"><path d="M304.795,289.994 C258.953,314.632 202.269,345.097 162.841,366.288 " fill="none"  style="stroke: #000000; stroke-width: 1.0;"/><polygon fill="none" points="301.482,283.828,322.412,280.526,308.109,296.16,301.482,283.828" style="stroke: #000000; stroke-width: 1.0;"/></a><!--link ScalarPropertyValueAssertion to Literal--><path d="M115,432.724 C115,453.0049 115,477.3889 115,495.8503 " fill="none"  style="stroke: #000000; stroke-width: 1.0;"/><polygon fill="#000000" points="115,508.9206,119,499.9206,115,503.9206,111,499.9206,115,508.9206" style="stroke: #000000; stroke-width: 1.0;"/><line style="stroke: #000000; stroke-width: 1.0;" x1="115" x2="115" y1="503.9206" y2="495.9206"/><polygon fill="#000000" points="115,419.684,111,425.684,115,431.684,119,425.684,115,419.684" style="stroke: #000000; stroke-width: 1.0;"/><text fill="#000000" font-family="sans-serif" font-size="13" lengthAdjust="spacingAndGlyphs" textLength="34" x="116" y="475.0669">value</text><text fill="#000000" font-family="sans-serif" font-size="13" lengthAdjust="spacingAndGlyphs" textLength="8" x="105.625" y="497.9049">1</text><!--link PropertyValueAssertion to StructuredPropertyValueAssertion--><a target="_top" xlink:actuate="onRequest" xlink:href="#PropertyValueAssertion" xlink:show="new" xlink:title="#PropertyValueAssertion" xlink:type="simple"><path d="M382,300.872 C382,323.084 382,347.974 382,366.122 " fill="none"  style="stroke: #000000; stroke-width: 1.0;"/><polygon fill="none" points="375,300.704,382,280.704,389,300.704,375,300.704" style="stroke: #000000; stroke-width: 1.0;"/></a><!--link StructuredPropertyValueAssertion to StructureInstance--><path d="M382,432.724 C382,453.0049 382,477.3889 382,495.8503 " fill="none"  style="stroke: #000000; stroke-width: 1.0;"/><polygon fill="#000000" points="382,508.9206,386,499.9206,382,503.9206,378,499.9206,382,508.9206" style="stroke: #000000; stroke-width: 1.0;"/><line style="stroke: #000000; stroke-width: 1.0;" x1="382" x2="382" y1="503.9206" y2="495.9206"/><polygon fill="#000000" points="382,419.684,378,425.684,382,431.684,386,425.684,382,419.684" style="stroke: #000000; stroke-width: 1.0;"/><text fill="#000000" font-family="sans-serif" font-size="13" lengthAdjust="spacingAndGlyphs" textLength="34" x="383" y="475.0669">value</text><text fill="#000000" font-family="sans-serif" font-size="13" lengthAdjust="spacingAndGlyphs" textLength="8" x="372.625" y="497.9049">1</text><!--link Assertion to TypeAssertion--><a target="_top" xlink:actuate="onRequest" xlink:href="#Assertion" xlink:show="new" xlink:title="#Assertion" xlink:type="simple"><path d="M693,161.494 C693,183.378 693,209.612 693,227.093 " fill="none"  style="stroke: #000000; stroke-width: 1.0;"/><polygon fill="none" points="686,161.18,693,141.18,700,161.18,686,161.18" style="stroke: #000000; stroke-width: 1.0;"/></a><!--
@startuml
skinparam classBackgroundColor LightGray
skinparam classBorderColor Black
skinparam enumBorderColor Black
skinparam ArrowColor Black
hide methods
abstract class Assertion [[#Assertion]] #white {
}
abstract class Element [[#Element]]
hide Element members
Assertion -up-|> Element [[#Element]]
class ConceptTypeAssertion [[#ConceptTypeAssertion]] #white {
	type : Concept [1]
	owningInstance : ConceptInstance [0..1]
	owningReference : ConceptInstanceReference [0..1]
}
ConceptTypeAssertion -up-|> TypeAssertion [[#TypeAssertion]]
class LinkAssertion [[#LinkAssertion]] #white {
	relation : Relation [1]
	target : NamedInstance [1]
	owningInstance : NamedInstance [0..1]
	owningReference : NamedInstanceReference [0..1]
}
LinkAssertion -up-|> Assertion [[#Assertion]]
abstract class PropertyValueAssertion [[#PropertyValueAssertion]] #white {
	owningInstance : Instance [0..1]
	owningReference : NamedInstanceReference [0..1]
}
PropertyValueAssertion -up-|> Assertion [[#Assertion]]
class RelationTypeAssertion [[#RelationTypeAssertion]] #white {
	type : RelationEntity [1]
	owningInstance : RelationInstance [0..1]
	owningReference : RelationInstanceReference [0..1]
}
RelationTypeAssertion -up-|> TypeAssertion [[#TypeAssertion]]
class ScalarPropertyValueAssertion [[#ScalarPropertyValueAssertion]] #white {
	property : ScalarProperty [1]
}
abstract class Literal [[#Literal]]
hide Literal members
ScalarPropertyValueAssertion -up-|> PropertyValueAssertion [[#PropertyValueAssertion]]
ScalarPropertyValueAssertion *- -> "1" Literal : value
class StructuredPropertyValueAssertion [[#StructuredPropertyValueAssertion]] #white {
	property : StructuredProperty [1]
}
class StructureInstance [[#StructureInstance]]
hide StructureInstance members
StructuredPropertyValueAssertion -up-|> PropertyValueAssertion [[#PropertyValueAssertion]]
StructuredPropertyValueAssertion *- -> "1" StructureInstance : value
abstract class TypeAssertion [[#TypeAssertion]] #white {
}
TypeAssertion -up-|> Assertion [[#Assertion]]
@enduml

PlantUML version 1.2019.00(Sun Jan 13 15:46:42 UTC 2019)
(GPL source distribution)
Java Runtime: OpenJDK Runtime Environment
JVM: OpenJDK 64-Bit Server VM
Java Version: 11.0.2+9
Operating System: Linux
OS Version: 4.15.0-1077-gcp
Default Encoding: UTF-8
Language: en
Country: US
--></g></svg>
