<?xml version="1.0" encoding="UTF-8" standalone="no"?><svg xmlns="http://www.w3.org/2000/svg" xmlns:xlink="http://www.w3.org/1999/xlink" contentStyleType="text/css" height="406px" preserveAspectRatio="none" style="width:618px;height:406px;background:#FFFFFF;" version="1.1" viewBox="0 0 618 406" width="618px" zoomAndPan="magnify"><defs/><g><!--MD5=[030fb27d31e47a9081912f52ec8aa49a]
class Assertion--><a href="#Assertion" target="_top" title="#Assertion" xlink:actuate="onRequest" xlink:href="#Assertion" xlink:show="new" xlink:title="#Assertion" xlink:type="simple"><g ><rect codeLine="6" fill="#FFFFFF" height="40"  rx="2.5" ry="2.5" style="stroke:#000000;stroke-width:0.5;" width="97" x="342" y="100"/><ellipse cx="357" cy="116" fill="#A9DCDF" rx="11" ry="11" style="stroke:#181818;stroke-width:1.0;"/><path d="M357.1094,111.3438 L355.9531,116.4219 L358.2813,116.4219 L357.1094,111.3438 Z M355.625,109.1094 L358.6094,109.1094 L361.9688,121.5 L359.5156,121.5 L358.75,118.4375 L355.4688,118.4375 L354.7188,121.5 L352.2813,121.5 L355.625,109.1094 Z " fill="#000000"/><text fill="#000000" font-family="sans-serif" font-size="14" font-style="italic" lengthAdjust="spacing" textLength="65" x="371" y="120.8467">Assertion</text><line style="stroke:#000000;stroke-width:0.5;" x1="343" x2="438" y1="132" y2="132"/></g></a><!--MD5=[95174e42ee347a14b6cb78d6855f19b5]
class Element--><a href="#Element" target="_top" title="#Element" xlink:actuate="onRequest" xlink:href="#Element" xlink:show="new" xlink:title="#Element" xlink:type="simple"><g ><rect codeLine="8" fill="#D3D3D3" height="32"  rx="2.5" ry="2.5" style="stroke:#000000;stroke-width:0.5;" width="89" x="346" y="7"/><ellipse cx="361" cy="23" fill="#A9DCDF" rx="11" ry="11" style="stroke:#181818;stroke-width:1.0;"/><path d="M361.1094,18.3438 L359.9531,23.4219 L362.2813,23.4219 L361.1094,18.3438 Z M359.625,16.1094 L362.6094,16.1094 L365.9688,28.5 L363.5156,28.5 L362.75,25.4375 L359.4688,25.4375 L358.7188,28.5 L356.2813,28.5 L359.625,16.1094 Z " fill="#000000"/><text fill="#000000" font-family="sans-serif" font-size="14" font-style="italic" lengthAdjust="spacing" textLength="57" x="375" y="27.8467">Element</text></g></a><!--MD5=[6d0a02ee44a7895dbe334527783d800c]
class PropertyValueAssertion--><a href="#PropertyValueAssertion" target="_top" title="#PropertyValueAssertion" xlink:actuate="onRequest" xlink:href="#PropertyValueAssertion" xlink:show="new" xlink:title="#PropertyValueAssertion" xlink:type="simple"><g ><rect codeLine="11" fill="#FFFFFF" height="88.8906"  rx="2.5" ry="2.5" style="stroke:#000000;stroke-width:0.5;" width="287" x="7" y="201"/><ellipse cx="65.75" cy="217" fill="#ADD1B2" rx="11" ry="11" style="stroke:#181818;stroke-width:1.0;"/><path d="M68.7188,222.6406 Q68.1406,222.9375 67.5,223.0781 Q66.8594,223.2344 66.1563,223.2344 Q63.6563,223.2344 62.3281,221.5938 Q61.0156,219.9375 61.0156,216.8125 Q61.0156,213.6875 62.3281,212.0313 Q63.6563,210.375 66.1563,210.375 Q66.8594,210.375 67.5,210.5313 Q68.1563,210.6875 68.7188,210.9844 L68.7188,213.7031 Q68.0938,213.125 67.5,212.8594 Q66.9063,212.5781 66.2813,212.5781 Q64.9375,212.5781 64.25,213.6563 Q63.5625,214.7188 63.5625,216.8125 Q63.5625,218.9063 64.25,219.9844 Q64.9375,221.0469 66.2813,221.0469 Q66.9063,221.0469 67.5,220.7813 Q68.0938,220.5 68.7188,219.9219 L68.7188,222.6406 Z " fill="#000000"/><text fill="#000000" font-family="sans-serif" font-size="14" lengthAdjust="spacing" textLength="161" x="86.25" y="221.8467">PropertyValueAssertion</text><line style="stroke:#000000;stroke-width:0.5;" x1="8" x2="293" y1="233" y2="233"/><text fill="#000000" font-family="sans-serif" font-size="14" lengthAdjust="spacing" textLength="216" x="13" y="249.9951">property : SemanticProperty [1]</text><text fill="#000000" font-family="sans-serif" font-size="14" lengthAdjust="spacing" textLength="275" x="13" y="266.292">referencedValue : NamedInstance [0..1]</text><text fill="#000000" font-family="sans-serif" font-size="14" lengthAdjust="spacing" textLength="221" x="13" y="282.5889">owningInstance : Instance [0..1]</text></g></a><!--MD5=[27bfdb9e128171e0e365013b6b91e809]
class Literal--><a href="#Literal" target="_top" title="#Literal" xlink:actuate="onRequest" xlink:href="#Literal" xlink:show="new" xlink:title="#Literal" xlink:type="simple"><g ><rect codeLine="16" fill="#D3D3D3" height="32"  rx="2.5" ry="2.5" style="stroke:#000000;stroke-width:0.5;" width="72" x="40.5" y="367"/><ellipse cx="55.5" cy="383" fill="#A9DCDF" rx="11" ry="11" style="stroke:#181818;stroke-width:1.0;"/><path d="M55.6094,378.3438 L54.4531,383.4219 L56.7813,383.4219 L55.6094,378.3438 Z M54.125,376.1094 L57.1094,376.1094 L60.4688,388.5 L58.0156,388.5 L57.25,385.4375 L53.9688,385.4375 L53.2188,388.5 L50.7813,388.5 L54.125,376.1094 Z " fill="#000000"/><text fill="#000000" font-family="sans-serif" font-size="14" font-style="italic" lengthAdjust="spacing" textLength="40" x="69.5" y="387.8467">Literal</text></g></a><!--MD5=[0b2f13c70971adaa910dfa4227793f6d]
class StructureInstance--><a href="#StructureInstance" target="_top" title="#StructureInstance" xlink:actuate="onRequest" xlink:href="#StructureInstance" xlink:show="new" xlink:title="#StructureInstance" xlink:type="simple"><g ><rect codeLine="18" fill="#D3D3D3" height="32"  rx="2.5" ry="2.5" style="stroke:#000000;stroke-width:0.5;" width="155" x="148" y="367"/><ellipse cx="163" cy="383" fill="#ADD1B2" rx="11" ry="11" style="stroke:#181818;stroke-width:1.0;"/><path d="M165.9688,388.6406 Q165.3906,388.9375 164.75,389.0781 Q164.1094,389.2344 163.4063,389.2344 Q160.9063,389.2344 159.5781,387.5938 Q158.2656,385.9375 158.2656,382.8125 Q158.2656,379.6875 159.5781,378.0313 Q160.9063,376.375 163.4063,376.375 Q164.1094,376.375 164.75,376.5313 Q165.4063,376.6875 165.9688,376.9844 L165.9688,379.7031 Q165.3438,379.125 164.75,378.8594 Q164.1563,378.5781 163.5313,378.5781 Q162.1875,378.5781 161.5,379.6563 Q160.8125,380.7188 160.8125,382.8125 Q160.8125,384.9063 161.5,385.9844 Q162.1875,387.0469 163.5313,387.0469 Q164.1563,387.0469 164.75,386.7813 Q165.3438,386.5 165.9688,385.9219 L165.9688,388.6406 Z " fill="#000000"/><text fill="#000000" font-family="sans-serif" font-size="14" lengthAdjust="spacing" textLength="123" x="177" y="387.8467">StructureInstance</text></g></a><!--MD5=[6a2c911c5e68a24d9d0c71b69ce0a399]
class TypeAssertion--><a href="#TypeAssertion" target="_top" title="#TypeAssertion" xlink:actuate="onRequest" xlink:href="#TypeAssertion" xlink:show="new" xlink:title="#TypeAssertion" xlink:type="simple"><g ><rect codeLine="23" fill="#FFFFFF" height="72.5938"  rx="2.5" ry="2.5" style="stroke:#000000;stroke-width:0.5;" width="282" x="329.5" y="209"/><ellipse cx="416.75" cy="225" fill="#ADD1B2" rx="11" ry="11" style="stroke:#181818;stroke-width:1.0;"/><path d="M419.7188,230.6406 Q419.1406,230.9375 418.5,231.0781 Q417.8594,231.2344 417.1563,231.2344 Q414.6563,231.2344 413.3281,229.5938 Q412.0156,227.9375 412.0156,224.8125 Q412.0156,221.6875 413.3281,220.0313 Q414.6563,218.375 417.1563,218.375 Q417.8594,218.375 418.5,218.5313 Q419.1563,218.6875 419.7188,218.9844 L419.7188,221.7031 Q419.0938,221.125 418.5,220.8594 Q417.9063,220.5781 417.2813,220.5781 Q415.9375,220.5781 415.25,221.6563 Q414.5625,222.7188 414.5625,224.8125 Q414.5625,226.9063 415.25,227.9844 Q415.9375,229.0469 417.2813,229.0469 Q417.9063,229.0469 418.5,228.7813 Q419.0938,228.5 419.7188,227.9219 L419.7188,230.6406 Z " fill="#000000"/><text fill="#000000" font-family="sans-serif" font-size="14" lengthAdjust="spacing" textLength="99" x="437.25" y="229.8467">TypeAssertion</text><line style="stroke:#000000;stroke-width:0.5;" x1="330.5" x2="610.5" y1="241" y2="241"/><text fill="#000000" font-family="sans-serif" font-size="14" lengthAdjust="spacing" textLength="104" x="335.5" y="257.9951">type : Entity [1]</text><text fill="#000000" font-family="sans-serif" font-size="14" lengthAdjust="spacing" textLength="270" x="335.5" y="274.292">owningInstance : NamedInstance [0..1]</text></g></a><!--MD5=[ef2e0c1f69ec21ea6cab836a8d1181ec]
reverse link Element to Assertion--><g ><a href="#Element" target="_top" title="#Element" xlink:actuate="onRequest" xlink:href="#Element" xlink:show="new" xlink:title="#Element" xlink:type="simple"><path codeLine="10" d="M390.5,59.472 C390.5,73.156 390.5,88.266 390.5,99.838 " fill="none"  style="stroke:#000000;stroke-width:1.0;"/><polygon fill="none" points="383.5,59.263,390.5,39.263,397.5,59.263,383.5,59.263" style="stroke:#000000;stroke-width:1.0;"/></a></g><!--MD5=[d91ba29cdf7da7802e291c76a41de8f9]
reverse link Assertion to PropertyValueAssertion--><g ><a href="#Assertion" target="_top" title="#Assertion" xlink:actuate="onRequest" xlink:href="#Assertion" xlink:show="new" xlink:title="#Assertion" xlink:type="simple"><path codeLine="20" d="M335.646,149.227 C305.886,164.541 268.456,183.802 235.052,200.991 " fill="none"  style="stroke:#000000;stroke-width:1.0;"/><polygon fill="none" points="332.539,142.953,353.526,140.026,338.945,155.402,332.539,142.953" style="stroke:#000000;stroke-width:1.0;"/></a></g><!--MD5=[27eb9e685ef96ce9cfe604451bf94f11]
link PropertyValueAssertion to Literal--><g ><path codeLine="21" d="M120.0364,300.8322 C120.0364,300.8322 112.696,314.1363 109.5,320 C103.2511,331.4664 96.4554,344.1895 90.6638,355.1111 " fill="none"  style="stroke:#000000;stroke-width:1.0;"/><polygon fill="#000000" points="84.4194,366.9215,92.1623,360.8349,86.7565,362.5013,85.09,357.0955,84.4194,366.9215" style="stroke:#000000;stroke-width:1.0;"/><line style="stroke:#000000;stroke-width:1.0;" x1="86.7565" x2="90.4958" y1="362.5013" y2="355.429"/><polygon fill="#000000" points="125.86,290.34,119.4508,293.6449,120.0364,300.8322,126.4456,297.5273,125.86,290.34" style="stroke:#000000;stroke-width:1.0;"/><text fill="#000000" font-family="sans-serif" font-size="13" lengthAdjust="spacing" textLength="71" x="110.5" y="333.0669">literalValue</text><text fill="#000000" font-family="sans-serif" font-size="13" lengthAdjust="spacing" textLength="24" x="59.0167" y="355.9061">0..1</text></g><!--MD5=[d31670ef7b3a4fcb3209a66b7bad9195]
link PropertyValueAssertion to StructureInstance--><g ><path codeLine="22" d="M180.4541,300.6181 C180.4541,300.6181 202.103,339.7292 210.588,355.0591 " fill="none"  style="stroke:#000000;stroke-width:1.0;"/><polygon fill="#000000" points="217.067,366.7649,216.2083,356.9535,214.6457,362.3903,209.2089,360.8276,217.067,366.7649" style="stroke:#000000;stroke-width:1.0;"/><line style="stroke:#000000;stroke-width:1.0;" x1="214.6457" x2="210.772" y1="362.3903" y2="355.391"/><polygon fill="#000000" points="174.643,290.119,174.0489,297.3056,180.4541,300.6181,181.0483,293.4315,174.643,290.119" style="stroke:#000000;stroke-width:1.0;"/><text fill="#000000" font-family="sans-serif" font-size="13" lengthAdjust="spacing" textLength="99" x="200.5" y="333.0669">containedValue</text><text fill="#000000" font-family="sans-serif" font-size="13" lengthAdjust="spacing" textLength="24" x="186.2986" y="355.9915">0..1</text></g><!--MD5=[43de62fc2bf8b8f04ff79b2bdd651525]
reverse link Assertion to TypeAssertion--><g ><a href="#Assertion" target="_top" title="#Assertion" xlink:actuate="onRequest" xlink:href="#Assertion" xlink:show="new" xlink:title="#Assertion" xlink:type="simple"><path codeLine="27" d="M413.75,156.892 C424.325,173.217 436.806,192.485 447.367,208.788 " fill="none"  style="stroke:#000000;stroke-width:1.0;"/><polygon fill="none" points="407.823,160.618,402.825,140.026,419.573,153.006,407.823,160.618" style="stroke:#000000;stroke-width:1.0;"/></a></g><!--MD5=[1bbd41be0c1ace57fc80e8608cffa04e]
@startuml
skinparam classBackgroundColor LightGray
skinparam classBorderColor Black
skinparam enumBorderColor Black
skinparam ArrowColor Black
hide methods
abstract class Assertion [[#Assertion]] #white {
}
abstract class Element [[#Element]]
hide Element members
Assertion -up-|> Element [[#Element]]
class PropertyValueAssertion [[#PropertyValueAssertion]] #white {
	property : SemanticProperty [1]
	referencedValue : NamedInstance [0..1]
	owningInstance : Instance [0..1]
}
abstract class Literal [[#Literal]]
hide Literal members
class StructureInstance [[#StructureInstance]]
hide StructureInstance members
PropertyValueAssertion -up-|> Assertion [[#Assertion]]
PropertyValueAssertion *- -> "0..1" Literal : literalValue
PropertyValueAssertion *- -> "0..1" StructureInstance : containedValue
class TypeAssertion [[#TypeAssertion]] #white {
	type : Entity [1]
	owningInstance : NamedInstance [0..1]
}
TypeAssertion -up-|> Assertion [[#Assertion]]
@enduml

PlantUML version 1.2022.12(Sun Oct 23 18:12:26 UTC 2022)
(GPL source distribution)
Java Runtime: OpenJDK Runtime Environment
JVM: OpenJDK 64-Bit Server VM
Default Encoding: UTF-8
Language: en
Country: US
--></g></svg>
