<?xml version="1.0" encoding="UTF-8" standalone="no"?><svg xmlns="http://www.w3.org/2000/svg" xmlns:xlink="http://www.w3.org/1999/xlink" contentScriptType="application/ecmascript" contentStyleType="text/css" height="593px" preserveAspectRatio="none" style="width:1062px;height:593px;" version="1.1" viewBox="0 0 1062 593" width="1062px" zoomAndPan="magnify"><defs><filter height="300%" id="f36p49vbox3g5" width="300%" x="-1" y="-1"><feGaussianBlur result="blurOut" stdDeviation="2.0"/><feColorMatrix in="blurOut" result="blurOut2" type="matrix" values="0 0 0 0 0 0 0 0 0 0 0 0 0 0 0 0 0 0 .4 0"/><feOffset dx="4.0" dy="4.0" in="blurOut2" result="blurOut3"/><feBlend in="SourceGraphic" in2="blurOut3" mode="normal"/></filter></defs><g><!--class SpecializableTerm--><a target="_top" xlink:actuate="onRequest" xlink:href="#SpecializableTerm" xlink:show="new" xlink:title="#SpecializableTerm" xlink:type="simple"><rect fill="#FFFFFF" filter="url(#f36p49vbox3g5)" height="40"  style="stroke: #000000; stroke-width: 1.5;" width="143" x="20.5" y="433"/><rect fill="#FFFFFF" height="32" style="stroke: #000000; stroke-width: 1.5;" width="143" x="20.5" y="433"/><ellipse cx="35.5" cy="449" fill="#A9DCDF" rx="11" ry="11" style="stroke: #000000; stroke-width: 1.0;"/><path d="M35.6094,444.3438 L34.4531,449.4219 L36.7813,449.4219 L35.6094,444.3438 Z M34.125,442.1094 L37.1094,442.1094 L40.4688,454.5 L38.0156,454.5 L37.25,451.4375 L33.9688,451.4375 L33.2188,454.5 L30.7813,454.5 L34.125,442.1094 Z "/><text fill="#000000" font-family="sans-serif" font-size="12" font-style="italic" lengthAdjust="spacingAndGlyphs" textLength="111" x="49.5" y="453.1543">SpecializableTerm</text><line style="stroke: #000000; stroke-width: 1.5;" x1="21.5" x2="162.5" y1="465" y2="465"/></a><!--class SpecializationAxiom--><a target="_top" xlink:actuate="onRequest" xlink:href="#SpecializationAxiom" xlink:show="new" xlink:title="#SpecializationAxiom" xlink:type="simple"><rect fill="#D3D3D3" filter="url(#f36p49vbox3g5)" height="32"  style="stroke: #000000; stroke-width: 1.5;" width="153" x="15.5" y="550"/><ellipse cx="30.5" cy="566" fill="#ADD1B2" rx="11" ry="11" style="stroke: #000000; stroke-width: 1.0;"/><path d="M33.4688,571.6406 Q32.8906,571.9375 32.25,572.0781 Q31.6094,572.2344 30.9063,572.2344 Q28.4063,572.2344 27.0781,570.5938 Q25.7656,568.9375 25.7656,565.8125 Q25.7656,562.6875 27.0781,561.0313 Q28.4063,559.375 30.9063,559.375 Q31.6094,559.375 32.25,559.5313 Q32.9063,559.6875 33.4688,559.9844 L33.4688,562.7031 Q32.8438,562.125 32.25,561.8594 Q31.6563,561.5781 31.0313,561.5781 Q29.6875,561.5781 29,562.6563 Q28.3125,563.7188 28.3125,565.8125 Q28.3125,567.9063 29,568.9844 Q29.6875,570.0469 31.0313,570.0469 Q31.6563,570.0469 32.25,569.7813 Q32.8438,569.5 33.4688,568.9219 L33.4688,571.6406 Z "/><text fill="#000000" font-family="sans-serif" font-size="12" lengthAdjust="spacingAndGlyphs" textLength="121" x="44.5" y="570.1543">SpecializationAxiom</text></a><!--class Term--><a target="_top" xlink:actuate="onRequest" xlink:href="#Term" xlink:show="new" xlink:title="#Term" xlink:type="simple"><rect fill="#FFFFFF" filter="url(#f36p49vbox3g5)" height="40"  style="stroke: #000000; stroke-width: 1.5;" width="63" x="15.5" y="325.5"/><rect fill="#FFFFFF" height="32" style="stroke: #000000; stroke-width: 1.5;" width="63" x="15.5" y="325.5"/><ellipse cx="30.5" cy="341.5" fill="#A9DCDF" rx="11" ry="11" style="stroke: #000000; stroke-width: 1.0;"/><path d="M30.6094,336.8438 L29.4531,341.9219 L31.7813,341.9219 L30.6094,336.8438 Z M29.125,334.6094 L32.1094,334.6094 L35.4688,347 L33.0156,347 L32.25,343.9375 L28.9688,343.9375 L28.2188,347 L25.7813,347 L29.125,334.6094 Z "/><text fill="#000000" font-family="sans-serif" font-size="12" font-style="italic" lengthAdjust="spacingAndGlyphs" textLength="31" x="44.5" y="345.6543">Term</text><line style="stroke: #000000; stroke-width: 1.5;" x1="16.5" x2="77.5" y1="357.5" y2="357.5"/></a><!--class VocabularyStatement--><a target="_top" xlink:actuate="onRequest" xlink:href="#VocabularyStatement" xlink:show="new" xlink:title="#VocabularyStatement" xlink:type="simple"><rect fill="#FFFFFF" filter="url(#f36p49vbox3g5)" height="52.8047"  style="stroke: #000000; stroke-width: 1.5;" width="207" x="113.5" y="319"/><rect fill="#FFFFFF" height="32" style="stroke: #000000; stroke-width: 1.5;" width="207" x="113.5" y="319"/><ellipse cx="146.5" cy="335" fill="#A9DCDF" rx="11" ry="11" style="stroke: #000000; stroke-width: 1.0;"/><path d="M146.6094,330.3438 L145.4531,335.4219 L147.7813,335.4219 L146.6094,330.3438 Z M145.125,328.1094 L148.1094,328.1094 L151.4688,340.5 L149.0156,340.5 L148.25,337.4375 L144.9688,337.4375 L144.2188,340.5 L141.7813,340.5 L145.125,328.1094 Z "/><text fill="#000000" font-family="sans-serif" font-size="12" font-style="italic" lengthAdjust="spacingAndGlyphs" textLength="135" x="164.5" y="339.1543">VocabularyStatement</text><line style="stroke: #000000; stroke-width: 1.5;" x1="114.5" x2="319.5" y1="351" y2="351"/><text fill="#000000" font-family="sans-serif" font-size="11" lengthAdjust="spacingAndGlyphs" textLength="195" x="119.5" y="365.2104">owningVocabulary : Vocabulary [1]</text></a><!--class Member--><a target="_top" xlink:actuate="onRequest" xlink:href="#Member" xlink:show="new" xlink:title="#Member" xlink:type="simple"><rect fill="#D3D3D3" filter="url(#f36p49vbox3g5)" height="32"  style="stroke: #000000; stroke-width: 1.5;" width="82" x="6" y="206"/><ellipse cx="21" cy="222" fill="#A9DCDF" rx="11" ry="11" style="stroke: #000000; stroke-width: 1.0;"/><path d="M21.1094,217.3438 L19.9531,222.4219 L22.2813,222.4219 L21.1094,217.3438 Z M19.625,215.1094 L22.6094,215.1094 L25.9688,227.5 L23.5156,227.5 L22.75,224.4375 L19.4688,224.4375 L18.7188,227.5 L16.2813,227.5 L19.625,215.1094 Z "/><text fill="#000000" font-family="sans-serif" font-size="12" font-style="italic" lengthAdjust="spacingAndGlyphs" textLength="50" x="35" y="226.1543">Member</text></a><!--class Vocabulary--><a target="_top" xlink:actuate="onRequest" xlink:href="#Vocabulary" xlink:show="new" xlink:title="#Vocabulary" xlink:type="simple"><rect fill="#FFFFFF" filter="url(#f36p49vbox3g5)" height="40"  style="stroke: #000000; stroke-width: 1.5;" width="101" x="408.5" y="202"/><rect fill="#FFFFFF" height="32" style="stroke: #000000; stroke-width: 1.5;" width="101" x="408.5" y="202"/><ellipse cx="423.5" cy="218" fill="#ADD1B2" rx="11" ry="11" style="stroke: #000000; stroke-width: 1.0;"/><path d="M426.4688,223.6406 Q425.8906,223.9375 425.25,224.0781 Q424.6094,224.2344 423.9063,224.2344 Q421.4063,224.2344 420.0781,222.5938 Q418.7656,220.9375 418.7656,217.8125 Q418.7656,214.6875 420.0781,213.0313 Q421.4063,211.375 423.9063,211.375 Q424.6094,211.375 425.25,211.5313 Q425.9063,211.6875 426.4688,211.9844 L426.4688,214.7031 Q425.8438,214.125 425.25,213.8594 Q424.6563,213.5781 424.0313,213.5781 Q422.6875,213.5781 422,214.6563 Q421.3125,215.7188 421.3125,217.8125 Q421.3125,219.9063 422,220.9844 Q422.6875,222.0469 424.0313,222.0469 Q424.6563,222.0469 425.25,221.7813 Q425.8438,221.5 426.4688,220.9219 L426.4688,223.6406 Z "/><text fill="#000000" font-family="sans-serif" font-size="12" lengthAdjust="spacingAndGlyphs" textLength="69" x="437.5" y="222.1543">Vocabulary</text><line style="stroke: #000000; stroke-width: 1.5;" x1="409.5" x2="508.5" y1="234" y2="234"/></a><!--class VocabularyBox--><a target="_top" xlink:actuate="onRequest" xlink:href="#VocabularyBox" xlink:show="new" xlink:title="#VocabularyBox" xlink:type="simple"><rect fill="#FFFFFF" filter="url(#f36p49vbox3g5)" height="40"  style="stroke: #000000; stroke-width: 1.5;" width="123" x="473.5" y="101"/><rect fill="#FFFFFF" height="32" style="stroke: #000000; stroke-width: 1.5;" width="123" x="473.5" y="101"/><ellipse cx="488.5" cy="117" fill="#A9DCDF" rx="11" ry="11" style="stroke: #000000; stroke-width: 1.0;"/><path d="M488.6094,112.3438 L487.4531,117.4219 L489.7813,117.4219 L488.6094,112.3438 Z M487.125,110.1094 L490.1094,110.1094 L493.4688,122.5 L491.0156,122.5 L490.25,119.4375 L486.9688,119.4375 L486.2188,122.5 L483.7813,122.5 L487.125,110.1094 Z "/><text fill="#000000" font-family="sans-serif" font-size="12" font-style="italic" lengthAdjust="spacingAndGlyphs" textLength="91" x="502.5" y="121.1543">VocabularyBox</text><line style="stroke: #000000; stroke-width: 1.5;" x1="474.5" x2="595.5" y1="133" y2="133"/></a><!--class VocabularyImport--><a target="_top" xlink:actuate="onRequest" xlink:href="#VocabularyImport" xlink:show="new" xlink:title="#VocabularyImport" xlink:type="simple"><rect fill="#FFFFFF" filter="url(#f36p49vbox3g5)" height="52.8047"  style="stroke: #000000; stroke-width: 1.5;" width="207" x="355.5" y="319"/><rect fill="#FFFFFF" height="32" style="stroke: #000000; stroke-width: 1.5;" width="207" x="355.5" y="319"/><ellipse cx="400.25" cy="335" fill="#A9DCDF" rx="11" ry="11" style="stroke: #000000; stroke-width: 1.0;"/><path d="M400.3594,330.3438 L399.2031,335.4219 L401.5313,335.4219 L400.3594,330.3438 Z M398.875,328.1094 L401.8594,328.1094 L405.2188,340.5 L402.7656,340.5 L402,337.4375 L398.7188,337.4375 L397.9688,340.5 L395.5313,340.5 L398.875,328.1094 Z "/><text fill="#000000" font-family="sans-serif" font-size="12" font-style="italic" lengthAdjust="spacingAndGlyphs" textLength="109" x="420.75" y="339.1543">VocabularyImport</text><line style="stroke: #000000; stroke-width: 1.5;" x1="356.5" x2="561.5" y1="351" y2="351"/><text fill="#000000" font-family="sans-serif" font-size="11" lengthAdjust="spacingAndGlyphs" textLength="195" x="361.5" y="365.2104">owningVocabulary : Vocabulary [1]</text></a><!--class Ontology--><a target="_top" xlink:actuate="onRequest" xlink:href="#Ontology" xlink:show="new" xlink:title="#Ontology" xlink:type="simple"><rect fill="#D3D3D3" filter="url(#f36p49vbox3g5)" height="32"  style="stroke: #000000; stroke-width: 1.5;" width="87" x="491.5" y="8"/><ellipse cx="506.5" cy="24" fill="#A9DCDF" rx="11" ry="11" style="stroke: #000000; stroke-width: 1.0;"/><path d="M506.6094,19.3438 L505.4531,24.4219 L507.7813,24.4219 L506.6094,19.3438 Z M505.125,17.1094 L508.1094,17.1094 L511.4688,29.5 L509.0156,29.5 L508.25,26.4375 L504.9688,26.4375 L504.2188,29.5 L501.7813,29.5 L505.125,17.1094 Z "/><text fill="#000000" font-family="sans-serif" font-size="12" font-style="italic" lengthAdjust="spacingAndGlyphs" textLength="55" x="520.5" y="28.1543">Ontology</text></a><!--class VocabularyBundle--><a target="_top" xlink:actuate="onRequest" xlink:href="#VocabularyBundle" xlink:show="new" xlink:title="#VocabularyBundle" xlink:type="simple"><rect fill="#FFFFFF" filter="url(#f36p49vbox3g5)" height="40"  style="stroke: #000000; stroke-width: 1.5;" width="144" x="664" y="202"/><rect fill="#FFFFFF" height="32" style="stroke: #000000; stroke-width: 1.5;" width="144" x="664" y="202"/><ellipse cx="679" cy="218" fill="#ADD1B2" rx="11" ry="11" style="stroke: #000000; stroke-width: 1.0;"/><path d="M681.9688,223.6406 Q681.3906,223.9375 680.75,224.0781 Q680.1094,224.2344 679.4063,224.2344 Q676.9063,224.2344 675.5781,222.5938 Q674.2656,220.9375 674.2656,217.8125 Q674.2656,214.6875 675.5781,213.0313 Q676.9063,211.375 679.4063,211.375 Q680.1094,211.375 680.75,211.5313 Q681.4063,211.6875 681.9688,211.9844 L681.9688,214.7031 Q681.3438,214.125 680.75,213.8594 Q680.1563,213.5781 679.5313,213.5781 Q678.1875,213.5781 677.5,214.6563 Q676.8125,215.7188 676.8125,217.8125 Q676.8125,219.9063 677.5,220.9844 Q678.1875,222.0469 679.5313,222.0469 Q680.1563,222.0469 680.75,221.7813 Q681.3438,221.5 681.9688,220.9219 L681.9688,223.6406 Z "/><text fill="#000000" font-family="sans-serif" font-size="12" lengthAdjust="spacingAndGlyphs" textLength="112" x="693" y="222.1543">VocabularyBundle</text><line style="stroke: #000000; stroke-width: 1.5;" x1="665" x2="807" y1="234" y2="234"/></a><!--class VocabularyBundleImport--><a target="_top" xlink:actuate="onRequest" xlink:href="#VocabularyBundleImport" xlink:show="new" xlink:title="#VocabularyBundleImport" xlink:type="simple"><rect fill="#FFFFFF" filter="url(#f36p49vbox3g5)" height="52.8047"  style="stroke: #000000; stroke-width: 1.5;" width="285" x="597.5" y="319"/><rect fill="#FFFFFF" height="32" style="stroke: #000000; stroke-width: 1.5;" width="285" x="597.5" y="319"/><ellipse cx="659.75" cy="335" fill="#A9DCDF" rx="11" ry="11" style="stroke: #000000; stroke-width: 1.0;"/><path d="M659.8594,330.3438 L658.7031,335.4219 L661.0313,335.4219 L659.8594,330.3438 Z M658.375,328.1094 L661.3594,328.1094 L664.7188,340.5 L662.2656,340.5 L661.5,337.4375 L658.2188,337.4375 L657.4688,340.5 L655.0313,340.5 L658.375,328.1094 Z "/><text fill="#000000" font-family="sans-serif" font-size="12" font-style="italic" lengthAdjust="spacingAndGlyphs" textLength="152" x="680.25" y="339.1543">VocabularyBundleImport</text><line style="stroke: #000000; stroke-width: 1.5;" x1="598.5" x2="881.5" y1="351" y2="351"/><text fill="#000000" font-family="sans-serif" font-size="11" lengthAdjust="spacingAndGlyphs" textLength="273" x="603.5" y="365.2104">owningVocabularyBundle : VocabularyBundle [1]</text></a><!--class VocabularyBundleExtension--><a target="_top" xlink:actuate="onRequest" xlink:href="#VocabularyBundleExtension" xlink:show="new" xlink:title="#VocabularyBundleExtension" xlink:type="simple"><rect fill="#FFFFFF" filter="url(#f36p49vbox3g5)" height="40"  style="stroke: #000000; stroke-width: 1.5;" width="205" x="612.5" y="433"/><rect fill="#FFFFFF" height="32" style="stroke: #000000; stroke-width: 1.5;" width="205" x="612.5" y="433"/><ellipse cx="627.5" cy="449" fill="#ADD1B2" rx="11" ry="11" style="stroke: #000000; stroke-width: 1.0;"/><path d="M630.4688,454.6406 Q629.8906,454.9375 629.25,455.0781 Q628.6094,455.2344 627.9063,455.2344 Q625.4063,455.2344 624.0781,453.5938 Q622.7656,451.9375 622.7656,448.8125 Q622.7656,445.6875 624.0781,444.0313 Q625.4063,442.375 627.9063,442.375 Q628.6094,442.375 629.25,442.5313 Q629.9063,442.6875 630.4688,442.9844 L630.4688,445.7031 Q629.8438,445.125 629.25,444.8594 Q628.6563,444.5781 628.0313,444.5781 Q626.6875,444.5781 626,445.6563 Q625.3125,446.7188 625.3125,448.8125 Q625.3125,450.9063 626,451.9844 Q626.6875,453.0469 628.0313,453.0469 Q628.6563,453.0469 629.25,452.7813 Q629.8438,452.5 630.4688,451.9219 L630.4688,454.6406 Z "/><text fill="#000000" font-family="sans-serif" font-size="12" lengthAdjust="spacingAndGlyphs" textLength="173" x="641.5" y="453.1543">VocabularyBundleExtension</text><line style="stroke: #000000; stroke-width: 1.5;" x1="613.5" x2="816.5" y1="465" y2="465"/></a><!--class Import--><a target="_top" xlink:actuate="onRequest" xlink:href="#Import" xlink:show="new" xlink:title="#Import" xlink:type="simple"><rect fill="#D3D3D3" filter="url(#f36p49vbox3g5)" height="32"  style="stroke: #000000; stroke-width: 1.5;" width="72" x="553" y="206"/><ellipse cx="568" cy="222" fill="#A9DCDF" rx="11" ry="11" style="stroke: #000000; stroke-width: 1.0;"/><path d="M568.1094,217.3438 L566.9531,222.4219 L569.2813,222.4219 L568.1094,217.3438 Z M566.625,215.1094 L569.6094,215.1094 L572.9688,227.5 L570.5156,227.5 L569.75,224.4375 L566.4688,224.4375 L565.7188,227.5 L563.2813,227.5 L566.625,215.1094 Z "/><text fill="#000000" font-family="sans-serif" font-size="12" font-style="italic" lengthAdjust="spacingAndGlyphs" textLength="40" x="582" y="226.1543">Import</text></a><!--class VocabularyBundleInclusion--><a target="_top" xlink:actuate="onRequest" xlink:href="#VocabularyBundleInclusion" xlink:show="new" xlink:title="#VocabularyBundleInclusion" xlink:type="simple"><rect fill="#FFFFFF" filter="url(#f36p49vbox3g5)" height="40"  style="stroke: #000000; stroke-width: 1.5;" width="199" x="852.5" y="433"/><rect fill="#FFFFFF" height="32" style="stroke: #000000; stroke-width: 1.5;" width="199" x="852.5" y="433"/><ellipse cx="867.5" cy="449" fill="#ADD1B2" rx="11" ry="11" style="stroke: #000000; stroke-width: 1.0;"/><path d="M870.4688,454.6406 Q869.8906,454.9375 869.25,455.0781 Q868.6094,455.2344 867.9063,455.2344 Q865.4063,455.2344 864.0781,453.5938 Q862.7656,451.9375 862.7656,448.8125 Q862.7656,445.6875 864.0781,444.0313 Q865.4063,442.375 867.9063,442.375 Q868.6094,442.375 869.25,442.5313 Q869.9063,442.6875 870.4688,442.9844 L870.4688,445.7031 Q869.8438,445.125 869.25,444.8594 Q868.6563,444.5781 868.0313,444.5781 Q866.6875,444.5781 866,445.6563 Q865.3125,446.7188 865.3125,448.8125 Q865.3125,450.9063 866,451.9844 Q866.6875,453.0469 868.0313,453.0469 Q868.6563,453.0469 869.25,452.7813 Q869.8438,452.5 870.4688,451.9219 L870.4688,454.6406 Z "/><text fill="#000000" font-family="sans-serif" font-size="12" lengthAdjust="spacingAndGlyphs" textLength="167" x="881.5" y="453.1543">VocabularyBundleInclusion</text><line style="stroke: #000000; stroke-width: 1.5;" x1="853.5" x2="1050.5" y1="465" y2="465"/></a><!--class VocabularyExtension--><a target="_top" xlink:actuate="onRequest" xlink:href="#VocabularyExtension" xlink:show="new" xlink:title="#VocabularyExtension" xlink:type="simple"><rect fill="#FFFFFF" filter="url(#f36p49vbox3g5)" height="40"  style="stroke: #000000; stroke-width: 1.5;" width="162" x="214" y="433"/><rect fill="#FFFFFF" height="32" style="stroke: #000000; stroke-width: 1.5;" width="162" x="214" y="433"/><ellipse cx="229" cy="449" fill="#ADD1B2" rx="11" ry="11" style="stroke: #000000; stroke-width: 1.0;"/><path d="M231.9688,454.6406 Q231.3906,454.9375 230.75,455.0781 Q230.1094,455.2344 229.4063,455.2344 Q226.9063,455.2344 225.5781,453.5938 Q224.2656,451.9375 224.2656,448.8125 Q224.2656,445.6875 225.5781,444.0313 Q226.9063,442.375 229.4063,442.375 Q230.1094,442.375 230.75,442.5313 Q231.4063,442.6875 231.9688,442.9844 L231.9688,445.7031 Q231.3438,445.125 230.75,444.8594 Q230.1563,444.5781 229.5313,444.5781 Q228.1875,444.5781 227.5,445.6563 Q226.8125,446.7188 226.8125,448.8125 Q226.8125,450.9063 227.5,451.9844 Q228.1875,453.0469 229.5313,453.0469 Q230.1563,453.0469 230.75,452.7813 Q231.3438,452.5 231.9688,451.9219 L231.9688,454.6406 Z "/><text fill="#000000" font-family="sans-serif" font-size="12" lengthAdjust="spacingAndGlyphs" textLength="130" x="243" y="453.1543">VocabularyExtension</text><line style="stroke: #000000; stroke-width: 1.5;" x1="215" x2="375" y1="465" y2="465"/></a><!--class Statement--><a target="_top" xlink:actuate="onRequest" xlink:href="#Statement" xlink:show="new" xlink:title="#Statement" xlink:type="simple"><rect fill="#D3D3D3" filter="url(#f36p49vbox3g5)" height="32"  style="stroke: #000000; stroke-width: 1.5;" width="98" x="168" y="206"/><ellipse cx="183" cy="222" fill="#A9DCDF" rx="11" ry="11" style="stroke: #000000; stroke-width: 1.0;"/><path d="M183.1094,217.3438 L181.9531,222.4219 L184.2813,222.4219 L183.1094,217.3438 Z M181.625,215.1094 L184.6094,215.1094 L187.9688,227.5 L185.5156,227.5 L184.75,224.4375 L181.4688,224.4375 L180.7188,227.5 L178.2813,227.5 L181.625,215.1094 Z "/><text fill="#000000" font-family="sans-serif" font-size="12" font-style="italic" lengthAdjust="spacingAndGlyphs" textLength="66" x="197" y="226.1543">Statement</text></a><!--class VocabularyUsage--><a target="_top" xlink:actuate="onRequest" xlink:href="#VocabularyUsage" xlink:show="new" xlink:title="#VocabularyUsage" xlink:type="simple"><rect fill="#FFFFFF" filter="url(#f36p49vbox3g5)" height="40"  style="stroke: #000000; stroke-width: 1.5;" width="141" x="411.5" y="433"/><rect fill="#FFFFFF" height="32" style="stroke: #000000; stroke-width: 1.5;" width="141" x="411.5" y="433"/><ellipse cx="426.5" cy="449" fill="#ADD1B2" rx="11" ry="11" style="stroke: #000000; stroke-width: 1.0;"/><path d="M429.4688,454.6406 Q428.8906,454.9375 428.25,455.0781 Q427.6094,455.2344 426.9063,455.2344 Q424.4063,455.2344 423.0781,453.5938 Q421.7656,451.9375 421.7656,448.8125 Q421.7656,445.6875 423.0781,444.0313 Q424.4063,442.375 426.9063,442.375 Q427.6094,442.375 428.25,442.5313 Q428.9063,442.6875 429.4688,442.9844 L429.4688,445.7031 Q428.8438,445.125 428.25,444.8594 Q427.6563,444.5781 427.0313,444.5781 Q425.6875,444.5781 425,445.6563 Q424.3125,446.7188 424.3125,448.8125 Q424.3125,450.9063 425,451.9844 Q425.6875,453.0469 427.0313,453.0469 Q427.6563,453.0469 428.25,452.7813 Q428.8438,452.5 429.4688,451.9219 L429.4688,454.6406 Z "/><text fill="#000000" font-family="sans-serif" font-size="12" lengthAdjust="spacingAndGlyphs" textLength="109" x="440.5" y="453.1543">VocabularyUsage</text><line style="stroke: #000000; stroke-width: 1.5;" x1="412.5" x2="551.5" y1="465" y2="465"/></a><!--link Term to SpecializableTerm--><a target="_top" xlink:actuate="onRequest" xlink:href="#Term" xlink:show="new" xlink:title="#Term" xlink:type="simple"><path d="M63.1452,384.352 C70.1452,400.763 78.0391,419.269 83.7986,432.772 " fill="none"  style="stroke: #000000; stroke-width: 1.0;"/><polygon fill="none" points="56.6618,386.993,55.2537,365.85,69.5393,381.5,56.6618,386.993" style="stroke: #000000; stroke-width: 1.0;"/></a><!--link VocabularyStatement to SpecializableTerm--><a target="_top" xlink:actuate="onRequest" xlink:href="#VocabularyStatement" xlink:show="new" xlink:title="#VocabularyStatement" xlink:type="simple"><path d="M171.237,385.124 C151.923,401.425 130.307,419.669 114.537,432.979 " fill="none"  style="stroke: #000000; stroke-width: 1.0;"/><polygon fill="none" points="166.942,379.589,186.741,372.039,175.972,390.288,166.942,379.589" style="stroke: #000000; stroke-width: 1.0;"/></a><!--link SpecializableTerm to SpecializationAxiom--><path d="M92,486.1997 C92,502.0512 92,521.0012 92,536.3451 " fill="none"  style="stroke: #000000; stroke-width: 1.0;"/><polygon fill="#000000" points="92,549.7324,96,540.7324,92,544.7324,88,540.7324,92,549.7324" style="stroke: #000000; stroke-width: 1.0;"/><line style="stroke: #000000; stroke-width: 1.0;" x1="92" x2="92.0001" y1="544.7324" y2="536.7325"/><polygon fill="#000000" points="92,473.082,88,479.082,92,485.082,96,479.082,92,473.082" style="stroke: #000000; stroke-width: 1.0;"/><text fill="#000000" font-family="sans-serif" font-size="13" lengthAdjust="spacingAndGlyphs" textLength="136" x="93" y="516.0669">ownedSpecializations</text><text fill="#000000" font-family="sans-serif" font-size="13" lengthAdjust="spacingAndGlyphs" textLength="7" x="83.8406" y="538.9483">*</text><!--link Member to Term--><a target="_top" xlink:actuate="onRequest" xlink:href="#Member" xlink:show="new" xlink:title="#Member" xlink:type="simple"><path d="M47,258.581 C47,280.359 47,307.378 47,325.237 " fill="none"  style="stroke: #000000; stroke-width: 1.0;"/><polygon fill="none" points="40.0001,258.388,47,238.388,54.0001,258.388,40.0001,258.388" style="stroke: #000000; stroke-width: 1.0;"/></a><!--link VocabularyBox to Vocabulary--><a target="_top" xlink:actuate="onRequest" xlink:href="#VocabularyBox" xlink:show="new" xlink:title="#VocabularyBox" xlink:type="simple"><path d="M508.137,156.992 C496.519,172.127 483.376,189.247 473.609,201.97 " fill="none"  style="stroke: #000000; stroke-width: 1.0;"/><polygon fill="none" points="502.615,152.69,520.346,141.088,513.72,161.215,502.615,152.69" style="stroke: #000000; stroke-width: 1.0;"/></a><!--link Vocabulary to VocabularyImport--><path d="M459,255.364 C459,270.779 459,289.341 459,305.526 " fill="none"  style="stroke: #000000; stroke-width: 1.0;"/><polygon fill="#000000" points="459,318.998,463,309.998,459,313.998,455,309.998,459,318.998" style="stroke: #000000; stroke-width: 1.0;"/><line style="stroke: #000000; stroke-width: 1.0;" x1="459" x2="459" y1="313.998" y2="305.998"/><polygon fill="#000000" points="459,242.252,455,248.252,459,254.252,463,248.252,459,242.252" style="stroke: #000000; stroke-width: 1.0;"/><text fill="#000000" font-family="sans-serif" font-size="13" lengthAdjust="spacingAndGlyphs" textLength="90" x="460" y="285.0669">ownedImports</text><text fill="#000000" font-family="sans-serif" font-size="13" lengthAdjust="spacingAndGlyphs" textLength="7" x="451.1469" y="307.8169">*</text><!--link Vocabulary to VocabularyStatement--><path d="M396.008,244.541 C375.251,252.364 352.296,261.808 332,272 C308.954,283.573 284.631,298.474 264.319,311.754 " fill="none"  style="stroke: #000000; stroke-width: 1.0;"/><polygon fill="#000000" points="253.481,318.934,263.1931,317.2983,257.6493,316.1727,258.775,310.6289,253.481,318.934" style="stroke: #000000; stroke-width: 1.0;"/><line style="stroke: #000000; stroke-width: 1.0;" x1="257.6493" x2="264.319" y1="316.1727" y2="311.7545"/><polygon fill="#000000" points="408.27,240.009,401.2553,238.3375,397.0144,244.1697,404.0291,245.8412,408.27,240.009" style="stroke: #000000; stroke-width: 1.0;"/><text fill="#000000" font-family="sans-serif" font-size="13" lengthAdjust="spacingAndGlyphs" textLength="117" x="333" y="285.0669">ownedStatements</text><text fill="#000000" font-family="sans-serif" font-size="13" lengthAdjust="spacingAndGlyphs" textLength="7" x="254.5201" y="307.7373">*</text><!--link Ontology to VocabularyBox--><a target="_top" xlink:actuate="onRequest" xlink:href="#Ontology" xlink:show="new" xlink:title="#Ontology" xlink:type="simple"><path d="M535,60.472 C535,74.156 535,89.266 535,100.838 " fill="none"  style="stroke: #000000; stroke-width: 1.0;"/><polygon fill="none" points="528,60.263,535,40.263,542,60.263,528,60.263" style="stroke: #000000; stroke-width: 1.0;"/></a><!--link VocabularyBox to VocabularyBundle--><a target="_top" xlink:actuate="onRequest" xlink:href="#VocabularyBox" xlink:show="new" xlink:title="#VocabularyBox" xlink:type="simple"><path d="M592.015,150.082 C625.718,166.682 667.504,187.263 697.364,201.97 " fill="none"  style="stroke: #000000; stroke-width: 1.0;"/><polygon fill="none" points="588.604,156.205,573.755,141.088,594.79,143.646,588.604,156.205" style="stroke: #000000; stroke-width: 1.0;"/></a><!--link VocabularyBundle to VocabularyBundleImport--><path d="M737.065,255.364 C737.573,270.779 738.184,289.341 738.717,305.526 " fill="none"  style="stroke: #000000; stroke-width: 1.0;"/><polygon fill="#000000" points="739.16,318.998,742.8621,309.8714,738.9957,314.0007,734.8664,310.1343,739.16,318.998" style="stroke: #000000; stroke-width: 1.0;"/><line style="stroke: #000000; stroke-width: 1.0;" x1="738.9957" x2="738.7325" y1="314.0007" y2="306.0055"/><polygon fill="#000000" points="736.634,242.252,732.834,248.3806,737.0296,254.2455,740.8296,248.1169,736.634,242.252" style="stroke: #000000; stroke-width: 1.0;"/><text fill="#000000" font-family="sans-serif" font-size="13" lengthAdjust="spacingAndGlyphs" textLength="90" x="740" y="285.0669">ownedImports</text><text fill="#000000" font-family="sans-serif" font-size="13" lengthAdjust="spacingAndGlyphs" textLength="7" x="731.1021" y="307.8169">*</text><!--link VocabularyBundleImport to VocabularyBundleExtension--><a target="_top" xlink:actuate="onRequest" xlink:href="#VocabularyBundleImport" xlink:show="new" xlink:title="#VocabularyBundleImport" xlink:type="simple"><path d="M729.321,391.564 C725.88,406.085 722.251,421.399 719.507,432.979 " fill="none"  style="stroke: #000000; stroke-width: 1.0;"/><polygon fill="none" points="722.525,389.886,733.948,372.039,736.148,393.114,722.525,389.886" style="stroke: #000000; stroke-width: 1.0;"/></a><!--link Import to VocabularyBundleImport--><a target="_top" xlink:actuate="onRequest" xlink:href="#Import" xlink:show="new" xlink:title="#Import" xlink:type="simple"><path d="M623.452,250.722 C648.959,271.245 683.445,298.994 708.278,318.975 " fill="none"  style="stroke: #000000; stroke-width: 1.0;"/><polygon fill="none" points="619.013,256.134,607.819,238.142,627.789,245.227,619.013,256.134" style="stroke: #000000; stroke-width: 1.0;"/></a><!--link VocabularyBundleImport to VocabularyBundleInclusion--><a target="_top" xlink:actuate="onRequest" xlink:href="#VocabularyBundleImport" xlink:show="new" xlink:title="#VocabularyBundleImport" xlink:type="simple"><path d="M809.353,381.013 C844.066,398.288 884.758,418.538 913.777,432.979 " fill="none"  style="stroke: #000000; stroke-width: 1.0;"/><polygon fill="none" points="806.106,387.216,791.319,372.039,812.343,374.682,806.106,387.216" style="stroke: #000000; stroke-width: 1.0;"/></a><!--link VocabularyImport to VocabularyExtension--><a target="_top" xlink:actuate="onRequest" xlink:href="#VocabularyImport" xlink:show="new" xlink:title="#VocabularyImport" xlink:type="simple"><path d="M402.361,382.935 C376.187,399.773 346.19,419.07 324.569,432.979 " fill="none"  style="stroke: #000000; stroke-width: 1.0;"/><polygon fill="none" points="398.693,376.972,419.3,372.039,406.267,388.746,398.693,376.972" style="stroke: #000000; stroke-width: 1.0;"/></a><!--link Import to VocabularyImport--><a target="_top" xlink:actuate="onRequest" xlink:href="#Import" xlink:show="new" xlink:title="#Import" xlink:type="simple"><path d="M578.314,257.196 C573.66,268.256 567.325,279.981 559,289 C548.024,300.891 533.902,310.836 519.748,318.869 " fill="none"  style="stroke: #000000; stroke-width: 1.0;"/><polygon fill="none" points="571.785,254.665,585.107,238.186,584.969,259.375,571.785,254.665" style="stroke: #000000; stroke-width: 1.0;"/></a><!--link Statement to VocabularyStatement--><a target="_top" xlink:actuate="onRequest" xlink:href="#Statement" xlink:show="new" xlink:title="#Statement" xlink:type="simple"><path d="M217,258.498 C217,277.747 217,301.111 217,318.626 " fill="none"  style="stroke: #000000; stroke-width: 1.0;"/><polygon fill="none" points="210,258.388,217,238.388,224,258.388,210,258.388" style="stroke: #000000; stroke-width: 1.0;"/></a><!--link VocabularyImport to VocabularyUsage--><a target="_top" xlink:actuate="onRequest" xlink:href="#VocabularyImport" xlink:show="new" xlink:title="#VocabularyImport" xlink:type="simple"><path d="M468.879,391.815 C472.028,406.261 475.343,421.466 477.853,432.979 " fill="none"  style="stroke: #000000; stroke-width: 1.0;"/><polygon fill="none" points="461.989,393.071,464.568,372.039,475.667,390.089,461.989,393.071" style="stroke: #000000; stroke-width: 1.0;"/></a><!--
@startuml
skinparam classBackgroundColor LightGray
skinparam classBorderColor Black
skinparam enumBorderColor Black
skinparam ArrowColor Black
hide methods
abstract class SpecializableTerm [[#SpecializableTerm]] #white {
}
class SpecializationAxiom [[#SpecializationAxiom]]
hide SpecializationAxiom members
SpecializableTerm -up-|> Term [[#Term]]
SpecializableTerm -up-|> VocabularyStatement [[#VocabularyStatement]]
SpecializableTerm *- -> "*" SpecializationAxiom : ownedSpecializations
abstract class Term [[#Term]] #white {
}
abstract class Member [[#Member]]
hide Member members
Term -up-|> Member [[#Member]]
class Vocabulary [[#Vocabulary]] #white {
}
Vocabulary -up-|> VocabularyBox [[#VocabularyBox]]
Vocabulary *- -> "*" VocabularyImport : ownedImports
Vocabulary *- -> "*" VocabularyStatement : ownedStatements
abstract class VocabularyBox [[#VocabularyBox]] #white {
}
abstract class Ontology [[#Ontology]]
hide Ontology members
VocabularyBox -up-|> Ontology [[#Ontology]]
class VocabularyBundle [[#VocabularyBundle]] #white {
}
VocabularyBundle -up-|> VocabularyBox [[#VocabularyBox]]
VocabularyBundle *- -> "*" VocabularyBundleImport : ownedImports
class VocabularyBundleExtension [[#VocabularyBundleExtension]] #white {
}
VocabularyBundleExtension -up-|> VocabularyBundleImport [[#VocabularyBundleImport]]
abstract class VocabularyBundleImport [[#VocabularyBundleImport]] #white {
	owningVocabularyBundle : VocabularyBundle [1]
}
abstract class Import [[#Import]]
hide Import members
VocabularyBundleImport -up-|> Import [[#Import]]
class VocabularyBundleInclusion [[#VocabularyBundleInclusion]] #white {
}
VocabularyBundleInclusion -up-|> VocabularyBundleImport [[#VocabularyBundleImport]]
class VocabularyExtension [[#VocabularyExtension]] #white {
}
VocabularyExtension -up-|> VocabularyImport [[#VocabularyImport]]
abstract class VocabularyImport [[#VocabularyImport]] #white {
	owningVocabulary : Vocabulary [1]
}
abstract class Import [[#Import]]
hide Import members
VocabularyImport -up-|> Import [[#Import]]
abstract class VocabularyStatement [[#VocabularyStatement]] #white {
	owningVocabulary : Vocabulary [1]
}
abstract class Statement [[#Statement]]
hide Statement members
VocabularyStatement -up-|> Statement [[#Statement]]
class VocabularyUsage [[#VocabularyUsage]] #white {
}
VocabularyUsage -up-|> VocabularyImport [[#VocabularyImport]]
@enduml

PlantUML version 1.2019.00(Sun Jan 13 15:46:42 UTC 2019)
(GPL source distribution)
Java Runtime: OpenJDK Runtime Environment
JVM: OpenJDK 64-Bit Server VM
Java Version: 11.0.2+9
Operating System: Linux
OS Version: 4.15.0-1098-gcp
Default Encoding: UTF-8
Language: en
Country: US
--></g></svg>
