<?xml version="1.0" encoding="UTF-8" standalone="no"?><svg xmlns="http://www.w3.org/2000/svg" xmlns:xlink="http://www.w3.org/1999/xlink" contentStyleType="text/css" height="478px" preserveAspectRatio="none" style="width:1016px;height:478px;background:#FFFFFF;" version="1.1" viewBox="0 0 1016 478" width="1016px" zoomAndPan="magnify"><defs/><g><!--MD5=[3a34d783aa08cf9dd21282e5580a7bd0]
class ConceptInstance--><a href="#ConceptInstance" target="_top" title="#ConceptInstance" xlink:actuate="onRequest" xlink:href="#ConceptInstance" xlink:show="new" xlink:title="#ConceptInstance" xlink:type="simple"><g ><rect codeLine="6" fill="#FFFFFF" height="56.2969"  rx="2.5" ry="2.5" style="stroke:#000000;stroke-width:0.5;" width="201" x="7" y="399.5"/><ellipse cx="44.95" cy="415.5" fill="#ADD1B2" rx="11" ry="11" style="stroke:#181818;stroke-width:1.0;"/><path d="M47.9188,421.1406 Q47.3406,421.4375 46.7,421.5781 Q46.0594,421.7344 45.3563,421.7344 Q42.8563,421.7344 41.5281,420.0938 Q40.2156,418.4375 40.2156,415.3125 Q40.2156,412.1875 41.5281,410.5313 Q42.8563,408.875 45.3563,408.875 Q46.0594,408.875 46.7,409.0313 Q47.3563,409.1875 47.9188,409.4844 L47.9188,412.2031 Q47.2938,411.625 46.7,411.3594 Q46.1063,411.0781 45.4813,411.0781 Q44.1375,411.0781 43.45,412.1563 Q42.7625,413.2188 42.7625,415.3125 Q42.7625,417.4063 43.45,418.4844 Q44.1375,419.5469 45.4813,419.5469 Q46.1063,419.5469 46.7,419.2813 Q47.2938,419 47.9188,418.4219 L47.9188,421.1406 Z " fill="#000000"/><text fill="#000000" font-family="sans-serif" font-size="14" lengthAdjust="spacing" textLength="118" x="64.05" y="420.3467">ConceptInstance</text><line style="stroke:#000000;stroke-width:0.5;" x1="8" x2="207" y1="431.5" y2="431.5"/><text fill="#000000" font-family="sans-serif" font-size="14" lengthAdjust="spacing" textLength="189" x="13" y="448.4951">ref : ConceptInstance [0..1]</text></g></a><!--MD5=[8b44ae978416842b2af96e0d240d76a4]
class NamedInstance--><a href="#NamedInstance" target="_top" title="#NamedInstance" xlink:actuate="onRequest" xlink:href="#NamedInstance" xlink:show="new" xlink:title="#NamedInstance" xlink:type="simple"><g ><rect codeLine="18" fill="#FFFFFF" height="40"  rx="2.5" ry="2.5" style="stroke:#000000;stroke-width:0.5;" width="140" x="238.5" y="241.5"/><ellipse cx="253.5" cy="257.5" fill="#A9DCDF" rx="11" ry="11" style="stroke:#181818;stroke-width:1.0;"/><path d="M253.6094,252.8438 L252.4531,257.9219 L254.7813,257.9219 L253.6094,252.8438 Z M252.125,250.6094 L255.1094,250.6094 L258.4688,263 L256.0156,263 L255.25,259.9375 L251.9688,259.9375 L251.2188,263 L248.7813,263 L252.125,250.6094 Z " fill="#000000"/><text fill="#000000" font-family="sans-serif" font-size="14" font-style="italic" lengthAdjust="spacing" textLength="108" x="267.5" y="262.3467">NamedInstance</text><line style="stroke:#000000;stroke-width:0.5;" x1="239.5" x2="377.5" y1="273.5" y2="273.5"/></g></a><!--MD5=[dbfd7680984eb54d794e10dee7f3936a]
class Instance--><a href="#Instance" target="_top" title="#Instance" xlink:actuate="onRequest" xlink:href="#Instance" xlink:show="new" xlink:title="#Instance" xlink:type="simple"><g ><rect codeLine="10" fill="#FFFFFF" height="40"  rx="2.5" ry="2.5" style="stroke:#000000;stroke-width:0.5;" width="91" x="465" y="100"/><ellipse cx="480" cy="116" fill="#A9DCDF" rx="11" ry="11" style="stroke:#181818;stroke-width:1.0;"/><path d="M480.1094,111.3438 L478.9531,116.4219 L481.2813,116.4219 L480.1094,111.3438 Z M478.625,109.1094 L481.6094,109.1094 L484.9688,121.5 L482.5156,121.5 L481.75,118.4375 L478.4688,118.4375 L477.7188,121.5 L475.2813,121.5 L478.625,109.1094 Z " fill="#000000"/><text fill="#000000" font-family="sans-serif" font-size="14" font-style="italic" lengthAdjust="spacing" textLength="59" x="494" y="120.8467">Instance</text><line style="stroke:#000000;stroke-width:0.5;" x1="466" x2="555" y1="132" y2="132"/></g></a><!--MD5=[95174e42ee347a14b6cb78d6855f19b5]
class Element--><a href="#Element" target="_top" title="#Element" xlink:actuate="onRequest" xlink:href="#Element" xlink:show="new" xlink:title="#Element" xlink:type="simple"><g ><rect codeLine="12" fill="#D3D3D3" height="32"  rx="2.5" ry="2.5" style="stroke:#000000;stroke-width:0.5;" width="89" x="466" y="7"/><ellipse cx="481" cy="23" fill="#A9DCDF" rx="11" ry="11" style="stroke:#181818;stroke-width:1.0;"/><path d="M481.1094,18.3438 L479.9531,23.4219 L482.2813,23.4219 L481.1094,18.3438 Z M479.625,16.1094 L482.6094,16.1094 L485.9688,28.5 L483.5156,28.5 L482.75,25.4375 L479.4688,25.4375 L478.7188,28.5 L476.2813,28.5 L479.625,16.1094 Z " fill="#000000"/><text fill="#000000" font-family="sans-serif" font-size="14" font-style="italic" lengthAdjust="spacing" textLength="57" x="495" y="27.8467">Element</text></g></a><!--MD5=[6d0a02ee44a7895dbe334527783d800c]
class PropertyValueAssertion--><a href="#PropertyValueAssertion" target="_top" title="#PropertyValueAssertion" xlink:actuate="onRequest" xlink:href="#PropertyValueAssertion" xlink:show="new" xlink:title="#PropertyValueAssertion" xlink:type="simple"><g ><rect codeLine="14" fill="#D3D3D3" height="32"  rx="2.5" ry="2.5" style="stroke:#000000;stroke-width:0.5;" width="193" x="414" y="245.5"/><ellipse cx="429" cy="261.5" fill="#ADD1B2" rx="11" ry="11" style="stroke:#181818;stroke-width:1.0;"/><path d="M431.9688,267.1406 Q431.3906,267.4375 430.75,267.5781 Q430.1094,267.7344 429.4063,267.7344 Q426.9063,267.7344 425.5781,266.0938 Q424.2656,264.4375 424.2656,261.3125 Q424.2656,258.1875 425.5781,256.5313 Q426.9063,254.875 429.4063,254.875 Q430.1094,254.875 430.75,255.0313 Q431.4063,255.1875 431.9688,255.4844 L431.9688,258.2031 Q431.3438,257.625 430.75,257.3594 Q430.1563,257.0781 429.5313,257.0781 Q428.1875,257.0781 427.5,258.1563 Q426.8125,259.2188 426.8125,261.3125 Q426.8125,263.4063 427.5,264.4844 Q428.1875,265.5469 429.5313,265.5469 Q430.1563,265.5469 430.75,265.2813 Q431.3438,265 431.9688,264.4219 L431.9688,267.1406 Z " fill="#000000"/><text fill="#000000" font-family="sans-serif" font-size="14" lengthAdjust="spacing" textLength="161" x="443" y="266.3467">PropertyValueAssertion</text></g></a><!--MD5=[7fd9f8b5a256c0fcfd7e466c0d831b0f]
class DescriptionStatement--><a href="#DescriptionStatement" target="_top" title="#DescriptionStatement" xlink:actuate="onRequest" xlink:href="#DescriptionStatement" xlink:show="new" xlink:title="#DescriptionStatement" xlink:type="simple"><g ><rect codeLine="20" fill="#D3D3D3" height="32"  rx="2.5" ry="2.5" style="stroke:#000000;stroke-width:0.5;" width="183" x="217" y="104"/><ellipse cx="232" cy="120" fill="#A9DCDF" rx="11" ry="11" style="stroke:#181818;stroke-width:1.0;"/><path d="M232.1094,115.3438 L230.9531,120.4219 L233.2813,120.4219 L232.1094,115.3438 Z M230.625,113.1094 L233.6094,113.1094 L236.9688,125.5 L234.5156,125.5 L233.75,122.4375 L230.4688,122.4375 L229.7188,125.5 L227.2813,125.5 L230.625,113.1094 Z " fill="#000000"/><text fill="#000000" font-family="sans-serif" font-size="14" font-style="italic" lengthAdjust="spacing" textLength="151" x="246" y="124.8467">DescriptionStatement</text></g></a><!--MD5=[6a2c911c5e68a24d9d0c71b69ce0a399]
class TypeAssertion--><a href="#TypeAssertion" target="_top" title="#TypeAssertion" xlink:actuate="onRequest" xlink:href="#TypeAssertion" xlink:show="new" xlink:title="#TypeAssertion" xlink:type="simple"><g ><rect codeLine="22" fill="#D3D3D3" height="32"  rx="2.5" ry="2.5" style="stroke:#000000;stroke-width:0.5;" width="131" x="243" y="411.5"/><ellipse cx="258" cy="427.5" fill="#ADD1B2" rx="11" ry="11" style="stroke:#181818;stroke-width:1.0;"/><path d="M260.9688,433.1406 Q260.3906,433.4375 259.75,433.5781 Q259.1094,433.7344 258.4063,433.7344 Q255.9063,433.7344 254.5781,432.0938 Q253.2656,430.4375 253.2656,427.3125 Q253.2656,424.1875 254.5781,422.5313 Q255.9063,420.875 258.4063,420.875 Q259.1094,420.875 259.75,421.0313 Q260.4063,421.1875 260.9688,421.4844 L260.9688,424.2031 Q260.3438,423.625 259.75,423.3594 Q259.1563,423.0781 258.5313,423.0781 Q257.1875,423.0781 256.5,424.1563 Q255.8125,425.2188 255.8125,427.3125 Q255.8125,429.4063 256.5,430.4844 Q257.1875,431.5469 258.5313,431.5469 Q259.1563,431.5469 259.75,431.2813 Q260.3438,431 260.9688,430.4219 L260.9688,433.1406 Z " fill="#000000"/><text fill="#000000" font-family="sans-serif" font-size="14" lengthAdjust="spacing" textLength="99" x="272" y="432.3467">TypeAssertion</text></g></a><!--MD5=[053f99caad121b701c3c19776ce91cf3]
class RelationInstance--><a href="#RelationInstance" target="_top" title="#RelationInstance" xlink:actuate="onRequest" xlink:href="#RelationInstance" xlink:show="new" xlink:title="#RelationInstance" xlink:type="simple"><g ><rect codeLine="27" fill="#FFFFFF" height="88.8906"  rx="2.5" ry="2.5" style="stroke:#000000;stroke-width:0.5;" width="210" x="409.5" y="383"/><ellipse cx="452.85" cy="399" fill="#ADD1B2" rx="11" ry="11" style="stroke:#181818;stroke-width:1.0;"/><path d="M455.8188,404.6406 Q455.2406,404.9375 454.6,405.0781 Q453.9594,405.2344 453.2563,405.2344 Q450.7563,405.2344 449.4281,403.5938 Q448.1156,401.9375 448.1156,398.8125 Q448.1156,395.6875 449.4281,394.0313 Q450.7563,392.375 453.2563,392.375 Q453.9594,392.375 454.6,392.5313 Q455.2563,392.6875 455.8188,392.9844 L455.8188,395.7031 Q455.1938,395.125 454.6,394.8594 Q454.0063,394.5781 453.3813,394.5781 Q452.0375,394.5781 451.35,395.6563 Q450.6625,396.7188 450.6625,398.8125 Q450.6625,400.9063 451.35,401.9844 Q452.0375,403.0469 453.3813,403.0469 Q454.0063,403.0469 454.6,402.7813 Q455.1938,402.5 455.8188,401.9219 L455.8188,404.6406 Z " fill="#000000"/><text fill="#000000" font-family="sans-serif" font-size="14" lengthAdjust="spacing" textLength="115" x="473.15" y="403.8467">RelationInstance</text><line style="stroke:#000000;stroke-width:0.5;" x1="410.5" x2="618.5" y1="415" y2="415"/><text fill="#000000" font-family="sans-serif" font-size="14" lengthAdjust="spacing" textLength="186" x="415.5" y="431.9951">ref : RelationInstance [0..1]</text><text fill="#000000" font-family="sans-serif" font-size="14" lengthAdjust="spacing" textLength="198" x="415.5" y="448.292">sources : NamedInstance [*]</text><text fill="#000000" font-family="sans-serif" font-size="14" lengthAdjust="spacing" textLength="191" x="415.5" y="464.5889">targets : NamedInstance [*]</text></g></a><!--MD5=[0b2f13c70971adaa910dfa4227793f6d]
class StructureInstance--><a href="#StructureInstance" target="_top" title="#StructureInstance" xlink:actuate="onRequest" xlink:href="#StructureInstance" xlink:show="new" xlink:title="#StructureInstance" xlink:type="simple"><g ><rect codeLine="33" fill="#FFFFFF" height="88.8906"  rx="2.5" ry="2.5" style="stroke:#000000;stroke-width:0.5;" width="367" x="642" y="217"/><ellipse cx="759.75" cy="233" fill="#ADD1B2" rx="11" ry="11" style="stroke:#181818;stroke-width:1.0;"/><path d="M762.7188,238.6406 Q762.1406,238.9375 761.5,239.0781 Q760.8594,239.2344 760.1563,239.2344 Q757.6563,239.2344 756.3281,237.5938 Q755.0156,235.9375 755.0156,232.8125 Q755.0156,229.6875 756.3281,228.0313 Q757.6563,226.375 760.1563,226.375 Q760.8594,226.375 761.5,226.5313 Q762.1563,226.6875 762.7188,226.9844 L762.7188,229.7031 Q762.0938,229.125 761.5,228.8594 Q760.9063,228.5781 760.2813,228.5781 Q758.9375,228.5781 758.25,229.6563 Q757.5625,230.7188 757.5625,232.8125 Q757.5625,234.9063 758.25,235.9844 Q758.9375,237.0469 760.2813,237.0469 Q760.9063,237.0469 761.5,236.7813 Q762.0938,236.5 762.7188,235.9219 L762.7188,238.6406 Z " fill="#000000"/><text fill="#000000" font-family="sans-serif" font-size="14" lengthAdjust="spacing" textLength="123" x="780.25" y="237.8467">StructureInstance</text><line style="stroke:#000000;stroke-width:0.5;" x1="643" x2="1008" y1="249" y2="249"/><text fill="#000000" font-family="sans-serif" font-size="14" lengthAdjust="spacing" textLength="130" x="648" y="265.9951">type : Structure [1]</text><text fill="#000000" font-family="sans-serif" font-size="14" lengthAdjust="spacing" textLength="355" x="648" y="282.292">owningAxiom : PropertyValueRestrictionAxiom [0..1]</text><text fill="#000000" font-family="sans-serif" font-size="14" lengthAdjust="spacing" textLength="329" x="648" y="298.5889">owningAssertion : PropertyValueAssertion [0..1]</text></g></a><!--MD5=[1c1434d90e23c339b3d591ac31258284]
reverse link NamedInstance to ConceptInstance--><g ><a href="#NamedInstance" target="_top" title="#NamedInstance" xlink:actuate="onRequest" xlink:href="#NamedInstance" xlink:show="new" xlink:title="#NamedInstance" xlink:type="simple"><path codeLine="9" d="M269.539,294.289 C232.119,324.82 176.193,370.452 140.797,399.3325 " fill="none"  style="stroke:#000000;stroke-width:1.0;"/><polygon fill="none" points="265.128,288.854,285.049,281.634,273.978,299.701,265.128,288.854" style="stroke:#000000;stroke-width:1.0;"/></a></g><!--MD5=[fc6209097715aeabb754f46301d46c5f]
reverse link Element to Instance--><g ><a href="#Element" target="_top" title="#Element" xlink:actuate="onRequest" xlink:href="#Element" xlink:show="new" xlink:title="#Element" xlink:type="simple"><path codeLine="16" d="M510.5,59.472 C510.5,73.156 510.5,88.266 510.5,99.838 " fill="none"  style="stroke:#000000;stroke-width:1.0;"/><polygon fill="none" points="503.5,59.263,510.5,39.263,517.5,59.263,503.5,59.263" style="stroke:#000000;stroke-width:1.0;"/></a></g><!--MD5=[64667091ea42c9765ca5cac727ec9674]
link Instance to PropertyValueAssertion--><g ><path codeLine="17" d="M510.5,152.104 C510.5,152.104 510.5,209.383 510.5,232.274 " fill="none"  style="stroke:#000000;stroke-width:1.0;"/><polygon fill="#000000" points="510.5,245.468,514.5,236.468,510.5,240.468,506.5,236.468,510.5,245.468" style="stroke:#000000;stroke-width:1.0;"/><line style="stroke:#000000;stroke-width:1.0;" x1="510.5" x2="510.5" y1="240.468" y2="232.468"/><polygon fill="#000000" points="510.5,140.104,506.5,146.104,510.5,152.104,514.5,146.104,510.5,140.104" style="stroke:#000000;stroke-width:1.0;"/><text fill="#000000" font-family="sans-serif" font-size="13" lengthAdjust="spacing" textLength="138" x="511.5" y="183.0669">ownedPropertyValues</text><text fill="#000000" font-family="sans-serif" font-size="13" lengthAdjust="spacing" textLength="7" x="502.2969" y="234.4686">*</text></g><!--MD5=[5540b512a53bc9c0895778b2307c2541]
reverse link DescriptionStatement to NamedInstance--><g ><a href="#DescriptionStatement" target="_top" title="#DescriptionStatement" xlink:actuate="onRequest" xlink:href="#DescriptionStatement" xlink:show="new" xlink:title="#DescriptionStatement" xlink:type="simple"><path codeLine="24" d="M308.5,156.589 C308.5,183.548 308.5,219.55 308.5,241.326 " fill="none"  style="stroke:#000000;stroke-width:1.0;"/><polygon fill="none" points="301.5,156.195,308.5,136.195,315.5,156.194,301.5,156.195" style="stroke:#000000;stroke-width:1.0;"/></a></g><!--MD5=[37b772948c4ae55209ad7ea83efa8939]
reverse link Instance to NamedInstance--><g ><a href="#Instance" target="_top" title="#Instance" xlink:actuate="onRequest" xlink:href="#Instance" xlink:show="new" xlink:title="#Instance" xlink:type="simple"><path codeLine="25" d="M466.241,151.565 C426.592,178.946 369.675,218.253 336.153,241.403 " fill="none"  style="stroke:#000000;stroke-width:1.0;"/><polygon fill="none" points="462.401,145.71,482.836,140.104,470.357,157.23,462.401,145.71" style="stroke:#000000;stroke-width:1.0;"/></a></g><!--MD5=[80ec5f621b27f5325c08d531fa69b945]
link NamedInstance to TypeAssertion--><g ><path codeLine="26" d="M308.5,293.634 C308.5,293.634 308.5,369.589 308.5,398.2992 " fill="none"  style="stroke:#000000;stroke-width:1.0;"/><polygon fill="#000000" points="308.5,411.3572,312.5,402.3572,308.5,406.3572,304.5,402.3572,308.5,411.3572" style="stroke:#000000;stroke-width:1.0;"/><line style="stroke:#000000;stroke-width:1.0;" x1="308.5" x2="308.5" y1="406.3572" y2="398.3573"/><polygon fill="#000000" points="308.5,281.634,304.5,287.634,308.5,293.634,312.5,287.634,308.5,281.634" style="stroke:#000000;stroke-width:1.0;"/><text fill="#000000" font-family="sans-serif" font-size="13" lengthAdjust="spacing" textLength="78" x="309.5" y="349.0669">ownedTypes</text><text fill="#000000" font-family="sans-serif" font-size="13" lengthAdjust="spacing" textLength="7" x="300.2969" y="400.3197">*</text></g><!--MD5=[4fcbe9e3882b3ec34eb83034c6ebaba7]
reverse link NamedInstance to RelationInstance--><g ><a href="#NamedInstance" target="_top" title="#NamedInstance" xlink:actuate="onRequest" xlink:href="#NamedInstance" xlink:show="new" xlink:title="#NamedInstance" xlink:type="simple"><path codeLine="32" d="M348.226,294.126 C379.919,319.358 424.659,354.976 459.748,382.911 " fill="none"  style="stroke:#000000;stroke-width:1.0;"/><polygon fill="none" points="343.821,299.567,332.534,281.634,352.541,288.614,343.821,299.567" style="stroke:#000000;stroke-width:1.0;"/></a></g><!--MD5=[9dacfcaabec8872b27cbe6b973e572dc]
reverse link Instance to StructureInstance--><g ><a href="#Instance" target="_top" title="#Instance" xlink:actuate="onRequest" xlink:href="#Instance" xlink:show="new" xlink:title="#Instance" xlink:type="simple"><path codeLine="38" d="M575.787,139.873 C601.897,148.126 632.004,158.542 658.5,170 C689.827,183.548 723.12,200.933 751.669,216.839 " fill="none"  style="stroke:#000000;stroke-width:1.0;"/><polygon fill="none" points="573.344,146.445,556.289,133.871,577.463,133.065,573.344,146.445" style="stroke:#000000;stroke-width:1.0;"/></a></g><!--MD5=[b3db206e7e37ccba5c009aab9c3dc397]
@startuml
skinparam classBackgroundColor LightGray
skinparam classBorderColor Black
skinparam enumBorderColor Black
skinparam ArrowColor Black
hide methods
class ConceptInstance [[#ConceptInstance]] #white {
	ref : ConceptInstance [0..1]
}
ConceptInstance -up-|> NamedInstance [[#NamedInstance]]
abstract class Instance [[#Instance]] #white {
}
abstract class Element [[#Element]]
hide Element members
class PropertyValueAssertion [[#PropertyValueAssertion]]
hide PropertyValueAssertion members
Instance -up-|> Element [[#Element]]
Instance *- -> "*" PropertyValueAssertion : ownedPropertyValues
abstract class NamedInstance [[#NamedInstance]] #white {
}
abstract class DescriptionStatement [[#DescriptionStatement]]
hide DescriptionStatement members
class TypeAssertion [[#TypeAssertion]]
hide TypeAssertion members
NamedInstance -up-|> DescriptionStatement [[#DescriptionStatement]]
NamedInstance -up-|> Instance [[#Instance]]
NamedInstance *- -> "*" TypeAssertion : ownedTypes
class RelationInstance [[#RelationInstance]] #white {
	ref : RelationInstance [0..1]
	sources : NamedInstance [*]
	targets : NamedInstance [*]
}
RelationInstance -up-|> NamedInstance [[#NamedInstance]]
class StructureInstance [[#StructureInstance]] #white {
	type : Structure [1]
	owningAxiom : PropertyValueRestrictionAxiom [0..1]
	owningAssertion : PropertyValueAssertion [0..1]
}
StructureInstance -up-|> Instance [[#Instance]]
@enduml

PlantUML version 1.2022.12(Sun Oct 23 18:12:26 UTC 2022)
(GPL source distribution)
Java Runtime: OpenJDK Runtime Environment
JVM: OpenJDK 64-Bit Server VM
Default Encoding: UTF-8
Language: en
Country: US
--></g></svg>
