<?xml version="1.0" encoding="UTF-8" standalone="no"?><svg xmlns="http://www.w3.org/2000/svg" xmlns:xlink="http://www.w3.org/1999/xlink" contentStyleType="text/css" height="607px" preserveAspectRatio="none" style="width:651px;height:607px;background:#FFFFFF;" version="1.1" viewBox="0 0 651 607" width="651px" zoomAndPan="magnify"><defs/><g><!--MD5=[02f676ced04ed3562d446593504ab7ca]
class BuiltIn--><a href="#BuiltIn" target="_top" title="#BuiltIn" xlink:actuate="onRequest" xlink:href="#BuiltIn" xlink:show="new" xlink:title="#BuiltIn" xlink:type="simple"><g ><rect codeLine="6" fill="#FFFFFF" height="56.2969"  rx="2.5" ry="2.5" style="stroke:#000000;stroke-width:0.5;" width="125" x="65.5" y="435"/><ellipse cx="103.45" cy="451" fill="#ADD1B2" rx="11" ry="11" style="stroke:#181818;stroke-width:1.0;"/><path d="M106.4188,456.6406 Q105.8406,456.9375 105.2,457.0781 Q104.5594,457.2344 103.8563,457.2344 Q101.3563,457.2344 100.0281,455.5938 Q98.7156,453.9375 98.7156,450.8125 Q98.7156,447.6875 100.0281,446.0313 Q101.3563,444.375 103.8563,444.375 Q104.5594,444.375 105.2,444.5313 Q105.8563,444.6875 106.4188,444.9844 L106.4188,447.7031 Q105.7938,447.125 105.2,446.8594 Q104.6063,446.5781 103.9813,446.5781 Q102.6375,446.5781 101.95,447.6563 Q101.2625,448.7188 101.2625,450.8125 Q101.2625,452.9063 101.95,453.9844 Q102.6375,455.0469 103.9813,455.0469 Q104.6063,455.0469 105.2,454.7813 Q105.7938,454.5 106.4188,453.9219 L106.4188,456.6406 Z " fill="#000000"/><text fill="#000000" font-family="sans-serif" font-size="14" lengthAdjust="spacing" textLength="42" x="122.55" y="455.8467">BuiltIn</text><line style="stroke:#000000;stroke-width:0.5;" x1="66.5" x2="189.5" y1="467" y2="467"/><text fill="#000000" font-family="sans-serif" font-size="14" lengthAdjust="spacing" textLength="113" x="71.5" y="483.9951">ref : BuiltIn [0..1]</text></g></a><!--MD5=[46b33d4aeab8075ab5c21e75f4258a8a]
class VocabularyStatement--><a href="#VocabularyStatement" target="_top" title="#VocabularyStatement" xlink:actuate="onRequest" xlink:href="#VocabularyStatement" xlink:show="new" xlink:title="#VocabularyStatement" xlink:type="simple"><g ><rect codeLine="47" fill="#FFFFFF" height="56.2969"  rx="2.5" ry="2.5" style="stroke:#000000;stroke-width:0.5;" width="248" x="129" y="318"/><ellipse cx="175.25" cy="334" fill="#A9DCDF" rx="11" ry="11" style="stroke:#181818;stroke-width:1.0;"/><path d="M175.3594,329.3438 L174.2031,334.4219 L176.5313,334.4219 L175.3594,329.3438 Z M173.875,327.1094 L176.8594,327.1094 L180.2188,339.5 L177.7656,339.5 L177,336.4375 L173.7188,336.4375 L172.9688,339.5 L170.5313,339.5 L173.875,327.1094 Z " fill="#000000"/><text fill="#000000" font-family="sans-serif" font-size="14" font-style="italic" lengthAdjust="spacing" textLength="147" x="195.75" y="338.8467">VocabularyStatement</text><line style="stroke:#000000;stroke-width:0.5;" x1="130" x2="376" y1="350" y2="350"/><text fill="#000000" font-family="sans-serif" font-size="14" lengthAdjust="spacing" textLength="236" x="135" y="366.9951">owningVocabulary : Vocabulary [1]</text></g></a><!--MD5=[4cf87534c235239d37db4adfd136fff4]
class Rule--><a href="#Rule" target="_top" title="#Rule" xlink:actuate="onRequest" xlink:href="#Rule" xlink:show="new" xlink:title="#Rule" xlink:type="simple"><g ><rect codeLine="10" fill="#FFFFFF" height="56.2969"  rx="2.5" ry="2.5" style="stroke:#000000;stroke-width:0.5;" width="114" x="226" y="435"/><ellipse cx="263.95" cy="451" fill="#ADD1B2" rx="11" ry="11" style="stroke:#181818;stroke-width:1.0;"/><path d="M266.9188,456.6406 Q266.3406,456.9375 265.7,457.0781 Q265.0594,457.2344 264.3563,457.2344 Q261.8563,457.2344 260.5281,455.5938 Q259.2156,453.9375 259.2156,450.8125 Q259.2156,447.6875 260.5281,446.0313 Q261.8563,444.375 264.3563,444.375 Q265.0594,444.375 265.7,444.5313 Q266.3563,444.6875 266.9188,444.9844 L266.9188,447.7031 Q266.2938,447.125 265.7,446.8594 Q265.1063,446.5781 264.4813,446.5781 Q263.1375,446.5781 262.45,447.6563 Q261.7625,448.7188 261.7625,450.8125 Q261.7625,452.9063 262.45,453.9844 Q263.1375,455.0469 264.4813,455.0469 Q265.1063,455.0469 265.7,454.7813 Q266.2938,454.5 266.9188,453.9219 L266.9188,456.6406 Z " fill="#000000"/><text fill="#000000" font-family="sans-serif" font-size="14" lengthAdjust="spacing" textLength="31" x="283.05" y="455.8467">Rule</text><line style="stroke:#000000;stroke-width:0.5;" x1="227" x2="339" y1="467" y2="467"/><text fill="#000000" font-family="sans-serif" font-size="14" lengthAdjust="spacing" textLength="102" x="232" y="483.9951">ref : Rule [0..1]</text></g></a><!--MD5=[e6dc55dd324d6a8c189f3ada02b144fc]
class Predicate--><a href="#Predicate" target="_top" title="#Predicate" xlink:actuate="onRequest" xlink:href="#Predicate" xlink:show="new" xlink:title="#Predicate" xlink:type="simple"><g ><rect codeLine="15" fill="#D3D3D3" height="32"  rx="2.5" ry="2.5" style="stroke:#000000;stroke-width:0.5;" width="97" x="245.5" y="568"/><ellipse cx="260.5" cy="584" fill="#A9DCDF" rx="11" ry="11" style="stroke:#181818;stroke-width:1.0;"/><path d="M260.6094,579.3438 L259.4531,584.4219 L261.7813,584.4219 L260.6094,579.3438 Z M259.125,577.1094 L262.1094,577.1094 L265.4688,589.5 L263.0156,589.5 L262.25,586.4375 L258.9688,586.4375 L258.2188,589.5 L255.7813,589.5 L259.125,577.1094 Z " fill="#000000"/><text fill="#000000" font-family="sans-serif" font-size="14" font-style="italic" lengthAdjust="spacing" textLength="65" x="274.5" y="588.8467">Predicate</text></g></a><!--MD5=[a052ffd04a2a5cd2f202acb632be8a32]
class SpecializableTerm--><a href="#SpecializableTerm" target="_top" title="#SpecializableTerm" xlink:actuate="onRequest" xlink:href="#SpecializableTerm" xlink:show="new" xlink:title="#SpecializableTerm" xlink:type="simple"><g ><rect codeLine="20" fill="#FFFFFF" height="40"  rx="2.5" ry="2.5" style="stroke:#000000;stroke-width:0.5;" width="157" x="422.5" y="443"/><ellipse cx="437.5" cy="459" fill="#A9DCDF" rx="11" ry="11" style="stroke:#181818;stroke-width:1.0;"/><path d="M437.6094,454.3438 L436.4531,459.4219 L438.7813,459.4219 L437.6094,454.3438 Z M436.125,452.1094 L439.1094,452.1094 L442.4688,464.5 L440.0156,464.5 L439.25,461.4375 L435.9688,461.4375 L435.2188,464.5 L432.7813,464.5 L436.125,452.1094 Z " fill="#000000"/><text fill="#000000" font-family="sans-serif" font-size="14" font-style="italic" lengthAdjust="spacing" textLength="125" x="451.5" y="463.8467">SpecializableTerm</text><line style="stroke:#000000;stroke-width:0.5;" x1="423.5" x2="578.5" y1="475" y2="475"/></g></a><!--MD5=[49d093cbf59b0406cd053b3862e288a5]
class SpecializationAxiom--><a href="#SpecializationAxiom" target="_top" title="#SpecializationAxiom" xlink:actuate="onRequest" xlink:href="#SpecializationAxiom" xlink:show="new" xlink:title="#SpecializationAxiom" xlink:type="simple"><g ><rect codeLine="22" fill="#D3D3D3" height="32"  rx="2.5" ry="2.5" style="stroke:#000000;stroke-width:0.5;" width="167" x="417.5" y="568"/><ellipse cx="432.5" cy="584" fill="#ADD1B2" rx="11" ry="11" style="stroke:#181818;stroke-width:1.0;"/><path d="M435.4688,589.6406 Q434.8906,589.9375 434.25,590.0781 Q433.6094,590.2344 432.9063,590.2344 Q430.4063,590.2344 429.0781,588.5938 Q427.7656,586.9375 427.7656,583.8125 Q427.7656,580.6875 429.0781,579.0313 Q430.4063,577.375 432.9063,577.375 Q433.6094,577.375 434.25,577.5313 Q434.9063,577.6875 435.4688,577.9844 L435.4688,580.7031 Q434.8438,580.125 434.25,579.8594 Q433.6563,579.5781 433.0313,579.5781 Q431.6875,579.5781 431,580.6563 Q430.3125,581.7188 430.3125,583.8125 Q430.3125,585.9063 431,586.9844 Q431.6875,588.0469 433.0313,588.0469 Q433.6563,588.0469 434.25,587.7813 Q434.8438,587.5 435.4688,586.9219 L435.4688,589.6406 Z " fill="#000000"/><text fill="#000000" font-family="sans-serif" font-size="14" lengthAdjust="spacing" textLength="135" x="446.5" y="588.8467">SpecializationAxiom</text></g></a><!--MD5=[9d35236b92952560f647498cf8a29acb]
class Term--><a href="#Term" target="_top" title="#Term" xlink:actuate="onRequest" xlink:href="#Term" xlink:show="new" xlink:title="#Term" xlink:type="simple"><g ><rect codeLine="27" fill="#FFFFFF" height="40"  rx="2.5" ry="2.5" style="stroke:#000000;stroke-width:0.5;" width="68" x="483" y="326"/><ellipse cx="498" cy="342" fill="#A9DCDF" rx="11" ry="11" style="stroke:#181818;stroke-width:1.0;"/><path d="M498.1094,337.3438 L496.9531,342.4219 L499.2813,342.4219 L498.1094,337.3438 Z M496.625,335.1094 L499.6094,335.1094 L502.9688,347.5 L500.5156,347.5 L499.75,344.4375 L496.4688,344.4375 L495.7188,347.5 L493.2813,347.5 L496.625,335.1094 Z " fill="#000000"/><text fill="#000000" font-family="sans-serif" font-size="14" font-style="italic" lengthAdjust="spacing" textLength="36" x="512" y="346.8467">Term</text><line style="stroke:#000000;stroke-width:0.5;" x1="484" x2="550" y1="358" y2="358"/></g></a><!--MD5=[cb460ad2c7603e05c570d9b832928283]
class VocabularyMember--><a href="#VocabularyMember" target="_top" title="#VocabularyMember" xlink:actuate="onRequest" xlink:href="#VocabularyMember" xlink:show="new" xlink:title="#VocabularyMember" xlink:type="simple"><g ><rect codeLine="42" fill="#FFFFFF" height="40"  rx="2.5" ry="2.5" style="stroke:#000000;stroke-width:0.5;" width="164" x="480" y="201"/><ellipse cx="495" cy="217" fill="#A9DCDF" rx="11" ry="11" style="stroke:#181818;stroke-width:1.0;"/><path d="M495.1094,212.3438 L493.9531,217.4219 L496.2813,217.4219 L495.1094,212.3438 Z M493.625,210.1094 L496.6094,210.1094 L499.9688,222.5 L497.5156,222.5 L496.75,219.4375 L493.4688,219.4375 L492.7188,222.5 L490.2813,222.5 L493.625,210.1094 Z " fill="#000000"/><text fill="#000000" font-family="sans-serif" font-size="14" font-style="italic" lengthAdjust="spacing" textLength="132" x="509" y="221.8467">VocabularyMember</text><line style="stroke:#000000;stroke-width:0.5;" x1="481" x2="643" y1="233" y2="233"/></g></a><!--MD5=[ab582a0c263dba417ad352e606b068fa]
class Vocabulary--><a href="#Vocabulary" target="_top" title="#Vocabulary" xlink:actuate="onRequest" xlink:href="#Vocabulary" xlink:show="new" xlink:title="#Vocabulary" xlink:type="simple"><g ><rect codeLine="30" fill="#FFFFFF" height="40"  rx="2.5" ry="2.5" style="stroke:#000000;stroke-width:0.5;" width="107" x="146.5" y="201"/><ellipse cx="161.5" cy="217" fill="#ADD1B2" rx="11" ry="11" style="stroke:#181818;stroke-width:1.0;"/><path d="M164.4688,222.6406 Q163.8906,222.9375 163.25,223.0781 Q162.6094,223.2344 161.9063,223.2344 Q159.4063,223.2344 158.0781,221.5938 Q156.7656,219.9375 156.7656,216.8125 Q156.7656,213.6875 158.0781,212.0313 Q159.4063,210.375 161.9063,210.375 Q162.6094,210.375 163.25,210.5313 Q163.9063,210.6875 164.4688,210.9844 L164.4688,213.7031 Q163.8438,213.125 163.25,212.8594 Q162.6563,212.5781 162.0313,212.5781 Q160.6875,212.5781 160,213.6563 Q159.3125,214.7188 159.3125,216.8125 Q159.3125,218.9063 160,219.9844 Q160.6875,221.0469 162.0313,221.0469 Q162.6563,221.0469 163.25,220.7813 Q163.8438,220.5 164.4688,219.9219 L164.4688,222.6406 Z " fill="#000000"/><text fill="#000000" font-family="sans-serif" font-size="14" lengthAdjust="spacing" textLength="75" x="175.5" y="221.8467">Vocabulary</text><line style="stroke:#000000;stroke-width:0.5;" x1="147.5" x2="252.5" y1="233" y2="233"/></g></a><!--MD5=[0f49be9f658c00ab935f824507f874ad]
class VocabularyBox--><a href="#VocabularyBox" target="_top" title="#VocabularyBox" xlink:actuate="onRequest" xlink:href="#VocabularyBox" xlink:show="new" xlink:title="#VocabularyBox" xlink:type="simple"><g ><rect codeLine="34" fill="#FFFFFF" height="40"  rx="2.5" ry="2.5" style="stroke:#000000;stroke-width:0.5;" width="133" x="248.5" y="100"/><ellipse cx="263.5" cy="116" fill="#A9DCDF" rx="11" ry="11" style="stroke:#181818;stroke-width:1.0;"/><path d="M263.6094,111.3438 L262.4531,116.4219 L264.7813,116.4219 L263.6094,111.3438 Z M262.125,109.1094 L265.1094,109.1094 L268.4688,121.5 L266.0156,121.5 L265.25,118.4375 L261.9688,118.4375 L261.2188,121.5 L258.7813,121.5 L262.125,109.1094 Z " fill="#000000"/><text fill="#000000" font-family="sans-serif" font-size="14" font-style="italic" lengthAdjust="spacing" textLength="101" x="277.5" y="120.8467">VocabularyBox</text><line style="stroke:#000000;stroke-width:0.5;" x1="249.5" x2="380.5" y1="132" y2="132"/></g></a><!--MD5=[5dfd8d6a6d713da886d1ef2bfe78f203]
class Ontology--><a href="#Ontology" target="_top" title="#Ontology" xlink:actuate="onRequest" xlink:href="#Ontology" xlink:show="new" xlink:title="#Ontology" xlink:type="simple"><g ><rect codeLine="36" fill="#D3D3D3" height="32"  rx="2.5" ry="2.5" style="stroke:#000000;stroke-width:0.5;" width="94" x="268" y="7"/><ellipse cx="283" cy="23" fill="#A9DCDF" rx="11" ry="11" style="stroke:#181818;stroke-width:1.0;"/><path d="M283.1094,18.3438 L281.9531,23.4219 L284.2813,23.4219 L283.1094,18.3438 Z M281.625,16.1094 L284.6094,16.1094 L287.9688,28.5 L285.5156,28.5 L284.75,25.4375 L281.4688,25.4375 L280.7188,28.5 L278.2813,28.5 L281.625,16.1094 Z " fill="#000000"/><text fill="#000000" font-family="sans-serif" font-size="14" font-style="italic" lengthAdjust="spacing" textLength="62" x="297" y="27.8467">Ontology</text></g></a><!--MD5=[8cf9371877d66c1a415dc25868b96f9f]
class VocabularyBundle--><a href="#VocabularyBundle" target="_top" title="#VocabularyBundle" xlink:actuate="onRequest" xlink:href="#VocabularyBundle" xlink:show="new" xlink:title="#VocabularyBundle" xlink:type="simple"><g ><rect codeLine="39" fill="#FFFFFF" height="40"  rx="2.5" ry="2.5" style="stroke:#000000;stroke-width:0.5;" width="156" x="289" y="201"/><ellipse cx="304" cy="217" fill="#ADD1B2" rx="11" ry="11" style="stroke:#181818;stroke-width:1.0;"/><path d="M306.9688,222.6406 Q306.3906,222.9375 305.75,223.0781 Q305.1094,223.2344 304.4063,223.2344 Q301.9063,223.2344 300.5781,221.5938 Q299.2656,219.9375 299.2656,216.8125 Q299.2656,213.6875 300.5781,212.0313 Q301.9063,210.375 304.4063,210.375 Q305.1094,210.375 305.75,210.5313 Q306.4063,210.6875 306.9688,210.9844 L306.9688,213.7031 Q306.3438,213.125 305.75,212.8594 Q305.1563,212.5781 304.5313,212.5781 Q303.1875,212.5781 302.5,213.6563 Q301.8125,214.7188 301.8125,216.8125 Q301.8125,218.9063 302.5,219.9844 Q303.1875,221.0469 304.5313,221.0469 Q305.1563,221.0469 305.75,220.7813 Q306.3438,220.5 306.9688,219.9219 L306.9688,222.6406 Z " fill="#000000"/><text fill="#000000" font-family="sans-serif" font-size="14" lengthAdjust="spacing" textLength="124" x="318" y="221.8467">VocabularyBundle</text><line style="stroke:#000000;stroke-width:0.5;" x1="290" x2="444" y1="233" y2="233"/></g></a><!--MD5=[f58fd777f29c17413488bea9e7cfcca3]
class Member--><a href="#Member" target="_top" title="#Member" xlink:actuate="onRequest" xlink:href="#Member" xlink:show="new" xlink:title="#Member" xlink:type="simple"><g ><rect codeLine="44" fill="#D3D3D3" height="32"  rx="2.5" ry="2.5" style="stroke:#000000;stroke-width:0.5;" width="89" x="517.5" y="104"/><ellipse cx="532.5" cy="120" fill="#A9DCDF" rx="11" ry="11" style="stroke:#181818;stroke-width:1.0;"/><path d="M532.6094,115.3438 L531.4531,120.4219 L533.7813,120.4219 L532.6094,115.3438 Z M531.125,113.1094 L534.1094,113.1094 L537.4688,125.5 L535.0156,125.5 L534.25,122.4375 L530.9688,122.4375 L530.2188,125.5 L527.7813,125.5 L531.125,113.1094 Z " fill="#000000"/><text fill="#000000" font-family="sans-serif" font-size="14" font-style="italic" lengthAdjust="spacing" textLength="57" x="546.5" y="124.8467">Member</text></g></a><!--MD5=[a61a298976b7d1d94498f45c2ebfa10b]
class Statement--><a href="#Statement" target="_top" title="#Statement" xlink:actuate="onRequest" xlink:href="#Statement" xlink:show="new" xlink:title="#Statement" xlink:type="simple"><g ><rect codeLine="50" fill="#D3D3D3" height="32"  rx="2.5" ry="2.5" style="stroke:#000000;stroke-width:0.5;" width="104" x="7" y="205"/><ellipse cx="22" cy="221" fill="#A9DCDF" rx="11" ry="11" style="stroke:#181818;stroke-width:1.0;"/><path d="M22.1094,216.3438 L20.9531,221.4219 L23.2813,221.4219 L22.1094,216.3438 Z M20.625,214.1094 L23.6094,214.1094 L26.9688,226.5 L24.5156,226.5 L23.75,223.4375 L20.4688,223.4375 L19.7188,226.5 L17.2813,226.5 L20.625,214.1094 Z " fill="#000000"/><text fill="#000000" font-family="sans-serif" font-size="14" font-style="italic" lengthAdjust="spacing" textLength="72" x="36" y="225.8467">Statement</text></g></a><!--MD5=[f08dae4eec3cb69218bec160a128cc1c]
reverse link VocabularyStatement to BuiltIn--><g ><a href="#VocabularyStatement" target="_top" title="#VocabularyStatement" xlink:actuate="onRequest" xlink:href="#VocabularyStatement" xlink:show="new" xlink:title="#VocabularyStatement" xlink:type="simple"><path codeLine="9" d="M208.5,387.94 C191.534,403.549 172.632,420.938 157.411,434.942 " fill="none"  style="stroke:#000000;stroke-width:1.0;"/><polygon fill="none" points="203.919,382.643,223.377,374.253,213.398,392.946,203.919,382.643" style="stroke:#000000;stroke-width:1.0;"/></a></g><!--MD5=[cf479669aab18b4fcdc3e34ad176fbca]
reverse link VocabularyStatement to Rule--><g ><a href="#VocabularyStatement" target="_top" title="#VocabularyStatement" xlink:actuate="onRequest" xlink:href="#VocabularyStatement" xlink:show="new" xlink:title="#VocabularyStatement" xlink:type="simple"><path codeLine="17" d="M265.194,393.744 C268.85,407.757 272.736,422.653 275.941,434.942 " fill="none"  style="stroke:#000000;stroke-width:1.0;"/><polygon fill="none" points="258.385,395.373,260.11,374.253,271.931,391.839,258.385,395.373" style="stroke:#000000;stroke-width:1.0;"/></a></g><!--MD5=[ab1c88882a2580c60e50c07622a0df35]
link Rule to Predicate--><g ><path codeLine="18" d="M253.6664,501.683 C253.6664,501.683 245.271,526.3987 250,538 C253.065,545.519 258.058,552.4646 263.602,558.5361 " fill="none"  style="stroke:#000000;stroke-width:1.0;"/><polygon fill="#000000" points="273.208,567.8758,269.5432,558.7342,269.623,564.3905,263.9667,564.4703,273.208,567.8758" style="stroke:#000000;stroke-width:1.0;"/><line style="stroke:#000000;stroke-width:1.0;" x1="269.623" x2="263.8875" y1="564.3905" y2="558.8136"/><polygon fill="#000000" points="259.56,491.23,253.1289,494.492,253.6664,501.683,260.0975,498.421,259.56,491.23" style="stroke:#000000;stroke-width:1.0;"/><text fill="#000000" font-family="sans-serif" font-size="13" lengthAdjust="spacing" textLength="73" x="251" y="534.0669">antecedent</text><text fill="#000000" font-family="sans-serif" font-size="13" lengthAdjust="spacing" textLength="7" x="257.8576" y="556.8447">*</text></g><!--MD5=[ab1c88882a2580c60e50c07622a0df35]
link Rule to Predicate--><g ><path codeLine="19" d="M318.3386,500.8025 C318.3386,500.8025 326.618,514.2553 329,521 C333.507,533.7623 327.755,546.9501 319.696,557.8646 " fill="none"  style="stroke:#000000;stroke-width:1.0;"/><polygon fill="#000000" points="311.162,567.9212,320.0353,563.6474,314.3973,564.109,313.9357,558.471,311.162,567.9212" style="stroke:#000000;stroke-width:1.0;"/><line style="stroke:#000000;stroke-width:1.0;" x1="314.3973" x2="319.573" y1="564.109" y2="558.0092"/><polygon fill="#000000" points="311.134,491.206,311.5374,498.4058,318.3386,500.8025,317.9351,493.6027,311.134,491.206" style="stroke:#000000;stroke-width:1.0;"/><text fill="#000000" font-family="sans-serif" font-size="13" lengthAdjust="spacing" textLength="75" x="332" y="534.0669">consequent</text><text fill="#000000" font-family="sans-serif" font-size="13" lengthAdjust="spacing" textLength="7" x="308.8583" y="556.9057">*</text></g><!--MD5=[f83c79fdcfeccc30c38a0f5cc5abac9f]
reverse link Term to SpecializableTerm--><g ><a href="#Term" target="_top" title="#Term" xlink:actuate="onRequest" xlink:href="#Term" xlink:show="new" xlink:title="#Term" xlink:type="simple"><path codeLine="24" d="M511.531,386.306 C508.884,405.336 505.824,427.33 503.687,442.689 " fill="none"  style="stroke:#000000;stroke-width:1.0;"/><polygon fill="none" points="504.633,385.093,514.322,366.248,518.499,387.022,504.633,385.093" style="stroke:#000000;stroke-width:1.0;"/></a></g><!--MD5=[3a394553e41c56186e904c7876230c86]
reverse link VocabularyStatement to SpecializableTerm--><g ><a href="#VocabularyStatement" target="_top" title="#VocabularyStatement" xlink:actuate="onRequest" xlink:href="#VocabularyStatement" xlink:show="new" xlink:title="#VocabularyStatement" xlink:type="simple"><path codeLine="25" d="M329.872,382.646 C372.848,402.575 424.697,426.618 459.98,442.979 " fill="none"  style="stroke:#000000;stroke-width:1.0;"/><polygon fill="none" points="326.658,388.872,311.458,374.108,332.547,376.171,326.658,388.872" style="stroke:#000000;stroke-width:1.0;"/></a></g><!--MD5=[7e6c035b3f4251f797e941c36a905dbb]
link SpecializableTerm to SpecializationAxiom--><g ><path codeLine="26" d="M501,495.119 C501,495.119 501,537.0229 501,554.604 " fill="none"  style="stroke:#000000;stroke-width:1.0;"/><polygon fill="#000000" points="501,567.7111,505,558.7111,501,562.7111,497,558.7111,501,567.7111" style="stroke:#000000;stroke-width:1.0;"/><line style="stroke:#000000;stroke-width:1.0;" x1="501" x2="501" y1="562.7111" y2="554.7111"/><polygon fill="#000000" points="501,483.119,497,489.119,501,495.119,505,489.119,501,483.119" style="stroke:#000000;stroke-width:1.0;"/><text fill="#000000" font-family="sans-serif" font-size="13" lengthAdjust="spacing" textLength="136" x="502" y="534.0669">ownedSpecializations</text><text fill="#000000" font-family="sans-serif" font-size="13" lengthAdjust="spacing" textLength="7" x="492.8406" y="556.9199">*</text></g><!--MD5=[1d9d79b3b7a415a2408a894c699f4898]
reverse link VocabularyMember to Term--><g ><a href="#VocabularyMember" target="_top" title="#VocabularyMember" xlink:actuate="onRequest" xlink:href="#VocabularyMember" xlink:show="new" xlink:title="#VocabularyMember" xlink:type="simple"><path codeLine="29" d="M547.993,260.284 C540.017,282.087 530.372,308.451 523.982,325.916 " fill="none"  style="stroke:#000000;stroke-width:1.0;"/><polygon fill="none" points="541.523,257.596,554.969,241.219,554.671,262.406,541.523,257.596" style="stroke:#000000;stroke-width:1.0;"/></a></g><!--MD5=[07a3c0786011b367d59d74536f7d35d9]
reverse link VocabularyBox to Vocabulary--><g ><a href="#VocabularyBox" target="_top" title="#VocabularyBox" xlink:actuate="onRequest" xlink:href="#VocabularyBox" xlink:show="new" xlink:title="#VocabularyBox" xlink:type="simple"><path codeLine="32" d="M277.446,153.329 C259.141,169.087 237.759,187.494 222.105,200.97 " fill="none"  style="stroke:#000000;stroke-width:1.0;"/><polygon fill="none" points="273.103,147.832,292.827,140.088,282.237,158.442,273.103,147.832" style="stroke:#000000;stroke-width:1.0;"/></a></g><!--MD5=[5fd362096feee36f689bde7d201d2fc0]
link Vocabulary to VocabularyStatement--><g ><path codeLine="33" d="M213.0297,252.2394 C213.0297,252.2394 228.679,288.556 235.94,305.408 " fill="none"  style="stroke:#000000;stroke-width:1.0;"/><polygon fill="#000000" points="241.238,317.702,241.35,307.8538,239.2594,313.1101,234.003,311.0196,241.238,317.702" style="stroke:#000000;stroke-width:1.0;"/><line style="stroke:#000000;stroke-width:1.0;" x1="239.2594" x2="236.0935" y1="313.1101" y2="305.7635"/><polygon fill="#000000" points="208.281,241.219,206.9819,248.3121,213.0297,252.2394,214.3288,245.1463,208.281,241.219" style="stroke:#000000;stroke-width:1.0;"/><text fill="#000000" font-family="sans-serif" font-size="13" lengthAdjust="spacing" textLength="117" x="230" y="284.0669">ownedStatements</text><text fill="#000000" font-family="sans-serif" font-size="13" lengthAdjust="spacing" textLength="7" x="230.8994" y="306.9201">*</text></g><!--MD5=[9fab926d12550e574a05f3c5f21106f2]
reverse link Ontology to VocabularyBox--><g ><a href="#Ontology" target="_top" title="#Ontology" xlink:actuate="onRequest" xlink:href="#Ontology" xlink:show="new" xlink:title="#Ontology" xlink:type="simple"><path codeLine="38" d="M315,59.472 C315,73.156 315,88.266 315,99.838 " fill="none"  style="stroke:#000000;stroke-width:1.0;"/><polygon fill="none" points="308,59.263,315,39.263,322,59.263,308,59.263" style="stroke:#000000;stroke-width:1.0;"/></a></g><!--MD5=[0837a957dbe50439da5037fe5f454964]
reverse link VocabularyBox to VocabularyBundle--><g ><a href="#VocabularyBox" target="_top" title="#VocabularyBox" xlink:actuate="onRequest" xlink:href="#VocabularyBox" xlink:show="new" xlink:title="#VocabularyBox" xlink:type="simple"><path codeLine="41" d="M334.411,157.956 C342.099,172.592 350.609,188.794 357.005,200.97 " fill="none"  style="stroke:#000000;stroke-width:1.0;"/><polygon fill="none" points="328.129,161.049,325.026,140.088,340.524,154.539,328.129,161.049" style="stroke:#000000;stroke-width:1.0;"/></a></g><!--MD5=[82f2adaef8266a67cdc6b3061ffb5703]
reverse link Member to VocabularyMember--><g ><a href="#Member" target="_top" title="#Member" xlink:actuate="onRequest" xlink:href="#Member" xlink:show="new" xlink:title="#Member" xlink:type="simple"><path codeLine="46" d="M562,156.211 C562,171.199 562,188.098 562,200.736 " fill="none"  style="stroke:#000000;stroke-width:1.0;"/><polygon fill="none" points="555,156.036,562,136.036,569,156.036,555,156.036" style="stroke:#000000;stroke-width:1.0;"/></a></g><!--MD5=[1d790de18f6b975fd50101ef59182638]
reverse link Statement to VocabularyStatement--><g ><a href="#Statement" target="_top" title="#Statement" xlink:actuate="onRequest" xlink:href="#Statement" xlink:show="new" xlink:title="#Statement" xlink:type="simple"><path codeLine="52" d="M99.7459,247.834 C132.129,268.365 177.293,297 210.201,317.864 " fill="none"  style="stroke:#000000;stroke-width:1.0;"/><polygon fill="none" points="95.9311,253.703,82.7882,237.082,103.4276,241.88,95.9311,253.703" style="stroke:#000000;stroke-width:1.0;"/></a></g><!--MD5=[950faed528505beca88dd5bb616b8bc5]
reverse link VocabularyMember to VocabularyStatement--><g ><a href="#VocabularyMember" target="_top" title="#VocabularyMember" xlink:actuate="onRequest" xlink:href="#VocabularyMember" xlink:show="new" xlink:title="#VocabularyMember" xlink:type="simple"><path codeLine="53" d="M495.34,248.535 C443.796,269.052 372.717,297.346 320.87,317.984 " fill="none"  style="stroke:#000000;stroke-width:1.0;"/><polygon fill="none" points="492.887,241.977,514.058,241.084,498.065,254.984,492.887,241.977" style="stroke:#000000;stroke-width:1.0;"/></a></g><!--MD5=[28e6619e8a5292de125ac24511da137c]
@startuml
skinparam classBackgroundColor LightGray
skinparam classBorderColor Black
skinparam enumBorderColor Black
skinparam ArrowColor Black
hide methods
class BuiltIn [[#BuiltIn]] #white {
	ref : BuiltIn [0..1]
}
BuiltIn -up-|> VocabularyStatement [[#VocabularyStatement]]
class Rule [[#Rule]] #white {
	ref : Rule [0..1]
}
abstract class Predicate [[#Predicate]]
hide Predicate members
abstract class Predicate [[#Predicate]]
hide Predicate members
Rule -up-|> VocabularyStatement [[#VocabularyStatement]]
Rule *- -> "*" Predicate : antecedent
Rule *- -> "*" Predicate : consequent
abstract class SpecializableTerm [[#SpecializableTerm]] #white {
}
class SpecializationAxiom [[#SpecializationAxiom]]
hide SpecializationAxiom members
SpecializableTerm -up-|> Term [[#Term]]
SpecializableTerm -up-|> VocabularyStatement [[#VocabularyStatement]]
SpecializableTerm *- -> "*" SpecializationAxiom : ownedSpecializations
abstract class Term [[#Term]] #white {
}
Term -up-|> VocabularyMember [[#VocabularyMember]]
class Vocabulary [[#Vocabulary]] #white {
}
Vocabulary -up-|> VocabularyBox [[#VocabularyBox]]
Vocabulary *- -> "*" VocabularyStatement : ownedStatements
abstract class VocabularyBox [[#VocabularyBox]] #white {
}
abstract class Ontology [[#Ontology]]
hide Ontology members
VocabularyBox -up-|> Ontology [[#Ontology]]
class VocabularyBundle [[#VocabularyBundle]] #white {
}
VocabularyBundle -up-|> VocabularyBox [[#VocabularyBox]]
abstract class VocabularyMember [[#VocabularyMember]] #white {
}
abstract class Member [[#Member]]
hide Member members
VocabularyMember -up-|> Member [[#Member]]
abstract class VocabularyStatement [[#VocabularyStatement]] #white {
	owningVocabulary : Vocabulary [1]
}
abstract class Statement [[#Statement]]
hide Statement members
VocabularyStatement -up-|> Statement [[#Statement]]
VocabularyStatement -up-|> VocabularyMember [[#VocabularyMember]]
@enduml

PlantUML version 1.2022.12(Sun Oct 23 18:12:26 UTC 2022)
(GPL source distribution)
Java Runtime: OpenJDK Runtime Environment
JVM: OpenJDK 64-Bit Server VM
Default Encoding: UTF-8
Language: en
Country: US
--></g></svg>
