<?xml version="1.0" encoding="UTF-8" standalone="no"?><svg xmlns="http://www.w3.org/2000/svg" xmlns:xlink="http://www.w3.org/1999/xlink" contentScriptType="application/ecmascript" contentStyleType="text/css" height="483px" preserveAspectRatio="none" style="width:717px;height:483px;" version="1.1" viewBox="0 0 717 483" width="717px" zoomAndPan="magnify"><defs><filter height="300%" id="f18xz935ckrg6n" width="300%" x="-1" y="-1"><feGaussianBlur result="blurOut" stdDeviation="2.0"/><feColorMatrix in="blurOut" result="blurOut2" type="matrix" values="0 0 0 0 0 0 0 0 0 0 0 0 0 0 0 0 0 0 .4 0"/><feOffset dx="4.0" dy="4.0" in="blurOut2" result="blurOut3"/><feBlend in="SourceGraphic" in2="blurOut3" mode="normal"/></filter></defs><g><!--class AnnotatedElement--><a target="_top" xlink:actuate="onRequest" xlink:href="#AnnotatedElement" xlink:show="new" xlink:title="#AnnotatedElement" xlink:type="simple"><rect fill="#FFFFFF" filter="url(#f18xz935ckrg6n)" height="40"  style="stroke: #000000; stroke-width: 1.5;" width="149" x="246" y="135"/><rect fill="#FFFFFF" height="32" style="stroke: #000000; stroke-width: 1.5;" width="149" x="246" y="135"/><ellipse cx="261" cy="151" fill="#A9DCDF" rx="11" ry="11" style="stroke: #000000; stroke-width: 1.0;"/><path d="M261.1094,146.3438 L259.9531,151.4219 L262.2813,151.4219 L261.1094,146.3438 Z M259.625,144.1094 L262.6094,144.1094 L265.9688,156.5 L263.5156,156.5 L262.75,153.4375 L259.4688,153.4375 L258.7188,156.5 L256.2813,156.5 L259.625,144.1094 Z "/><text fill="#000000" font-family="sans-serif" font-size="12" font-style="italic" lengthAdjust="spacingAndGlyphs" textLength="117" x="275" y="155.1543">AnnotatedElement</text><line style="stroke: #000000; stroke-width: 1.5;" x1="247" x2="394" y1="167" y2="167"/></a><!--class Element--><a target="_top" xlink:actuate="onRequest" xlink:href="#Element" xlink:show="new" xlink:title="#Element" xlink:type="simple"><rect fill="#FFFFFF" filter="url(#f18xz935ckrg6n)" height="40"  style="stroke: #000000; stroke-width: 1.5;" width="83" x="279" y="21"/><rect fill="#FFFFFF" height="32" style="stroke: #000000; stroke-width: 1.5;" width="83" x="279" y="21"/><ellipse cx="294" cy="37" fill="#A9DCDF" rx="11" ry="11" style="stroke: #000000; stroke-width: 1.0;"/><path d="M294.1094,32.3438 L292.9531,37.4219 L295.2813,37.4219 L294.1094,32.3438 Z M292.625,30.1094 L295.6094,30.1094 L298.9688,42.5 L296.5156,42.5 L295.75,39.4375 L292.4688,39.4375 L291.7188,42.5 L289.2813,42.5 L292.625,30.1094 Z "/><text fill="#000000" font-family="sans-serif" font-size="12" font-style="italic" lengthAdjust="spacingAndGlyphs" textLength="51" x="308" y="41.1543">Element</text><line style="stroke: #000000; stroke-width: 1.5;" x1="280" x2="361" y1="53" y2="53"/></a><!--class Annotation--><a target="_top" xlink:actuate="onRequest" xlink:href="#Annotation" xlink:show="new" xlink:title="#Annotation" xlink:type="simple"><rect fill="#FFFFFF" filter="url(#f18xz935ckrg6n)" height="78.4141"  style="stroke: #000000; stroke-width: 1.5;" width="247" x="6" y="252"/><rect fill="#FFFFFF" height="32" style="stroke: #000000; stroke-width: 1.5;" width="247" x="6" y="252"/><ellipse cx="90.75" cy="268" fill="#ADD1B2" rx="11" ry="11" style="stroke: #000000; stroke-width: 1.0;"/><path d="M93.7188,273.6406 Q93.1406,273.9375 92.5,274.0781 Q91.8594,274.2344 91.1563,274.2344 Q88.6563,274.2344 87.3281,272.5938 Q86.0156,270.9375 86.0156,267.8125 Q86.0156,264.6875 87.3281,263.0313 Q88.6563,261.375 91.1563,261.375 Q91.8594,261.375 92.5,261.5313 Q93.1563,261.6875 93.7188,261.9844 L93.7188,264.7031 Q93.0938,264.125 92.5,263.8594 Q91.9063,263.5781 91.2813,263.5781 Q89.9375,263.5781 89.25,264.6563 Q88.5625,265.7188 88.5625,267.8125 Q88.5625,269.9063 89.25,270.9844 Q89.9375,272.0469 91.2813,272.0469 Q91.9063,272.0469 92.5,271.7813 Q93.0938,271.5 93.7188,270.9219 L93.7188,273.6406 Z "/><text fill="#000000" font-family="sans-serif" font-size="12" lengthAdjust="spacingAndGlyphs" textLength="69" x="111.25" y="272.1543">Annotation</text><line style="stroke: #000000; stroke-width: 1.5;" x1="7" x2="252" y1="284" y2="284"/><text fill="#000000" font-family="sans-serif" font-size="11" lengthAdjust="spacingAndGlyphs" textLength="187" x="12" y="298.2104">property : AnnotationProperty [1]</text><text fill="#000000" font-family="sans-serif" font-size="11" lengthAdjust="spacingAndGlyphs" textLength="235" x="12" y="311.0151">owningElement : AnnotatedElement [0..1]</text><text fill="#000000" font-family="sans-serif" font-size="11" lengthAdjust="spacingAndGlyphs" textLength="200" x="12" y="323.8198">owningReference : Reference [0..1]</text></a><!--class Literal--><a target="_top" xlink:actuate="onRequest" xlink:href="#Literal" xlink:show="new" xlink:title="#Literal" xlink:type="simple"><rect fill="#D3D3D3" filter="url(#f18xz935ckrg6n)" height="32"  style="stroke: #000000; stroke-width: 1.5;" width="70" x="94.5" y="424"/><ellipse cx="109.5" cy="440" fill="#A9DCDF" rx="11" ry="11" style="stroke: #000000; stroke-width: 1.0;"/><path d="M109.6094,435.3438 L108.4531,440.4219 L110.7813,440.4219 L109.6094,435.3438 Z M108.125,433.1094 L111.1094,433.1094 L114.4688,445.5 L112.0156,445.5 L111.25,442.4375 L107.9688,442.4375 L107.2188,445.5 L104.7813,445.5 L108.125,433.1094 Z "/><text fill="#000000" font-family="sans-serif" font-size="12" font-style="italic" lengthAdjust="spacingAndGlyphs" textLength="38" x="123.5" y="444.1543">Literal</text></a><!--class IdentifiedElement--><a target="_top" xlink:actuate="onRequest" xlink:href="#IdentifiedElement" xlink:show="new" xlink:title="#IdentifiedElement" xlink:type="simple"><rect fill="#FFFFFF" filter="url(#f18xz935ckrg6n)" height="40"  style="stroke: #000000; stroke-width: 1.5;" width="141" x="480" y="271"/><rect fill="#FFFFFF" height="32" style="stroke: #000000; stroke-width: 1.5;" width="141" x="480" y="271"/><ellipse cx="495" cy="287" fill="#A9DCDF" rx="11" ry="11" style="stroke: #000000; stroke-width: 1.0;"/><path d="M495.1094,282.3438 L493.9531,287.4219 L496.2813,287.4219 L495.1094,282.3438 Z M493.625,280.1094 L496.6094,280.1094 L499.9688,292.5 L497.5156,292.5 L496.75,289.4375 L493.4688,289.4375 L492.7188,292.5 L490.2813,292.5 L493.625,280.1094 Z "/><text fill="#000000" font-family="sans-serif" font-size="12" font-style="italic" lengthAdjust="spacingAndGlyphs" textLength="109" x="509" y="291.1543">IdentifiedElement</text><line style="stroke: #000000; stroke-width: 1.5;" x1="481" x2="620" y1="303" y2="303"/></a><!--class Import--><a target="_top" xlink:actuate="onRequest" xlink:href="#Import" xlink:show="new" xlink:title="#Import" xlink:type="simple"><rect fill="#FFFFFF" filter="url(#f18xz935ckrg6n)" height="65.6094"  style="stroke: #000000; stroke-width: 1.5;" width="157" x="288" y="258"/><rect fill="#FFFFFF" height="32" style="stroke: #000000; stroke-width: 1.5;" width="157" x="288" y="258"/><ellipse cx="342.25" cy="274" fill="#A9DCDF" rx="11" ry="11" style="stroke: #000000; stroke-width: 1.0;"/><path d="M342.3594,269.3438 L341.2031,274.4219 L343.5313,274.4219 L342.3594,269.3438 Z M340.875,267.1094 L343.8594,267.1094 L347.2188,279.5 L344.7656,279.5 L344,276.4375 L340.7188,276.4375 L339.9688,279.5 L337.5313,279.5 L340.875,267.1094 Z "/><text fill="#000000" font-family="sans-serif" font-size="12" font-style="italic" lengthAdjust="spacingAndGlyphs" textLength="40" x="362.75" y="278.1543">Import</text><line style="stroke: #000000; stroke-width: 1.5;" x1="289" x2="444" y1="290" y2="290"/><text fill="#000000" font-family="sans-serif" font-size="11" lengthAdjust="spacingAndGlyphs" textLength="145" x="294" y="304.2104">namespace : Namespace</text><text fill="#000000" font-family="sans-serif" font-size="11" lengthAdjust="spacingAndGlyphs" textLength="55" x="294" y="317.0151">prefix : ID</text></a><!--class Member--><a target="_top" xlink:actuate="onRequest" xlink:href="#Member" xlink:show="new" xlink:title="#Member" xlink:type="simple"><rect fill="#FFFFFF" filter="url(#f18xz935ckrg6n)" height="52.8047"  style="stroke: #000000; stroke-width: 1.5;" width="82" x="431.5" y="413.5"/><rect fill="#FFFFFF" height="32" style="stroke: #000000; stroke-width: 1.5;" width="82" x="431.5" y="413.5"/><ellipse cx="446.5" cy="429.5" fill="#A9DCDF" rx="11" ry="11" style="stroke: #000000; stroke-width: 1.0;"/><path d="M446.6094,424.8438 L445.4531,429.9219 L447.7813,429.9219 L446.6094,424.8438 Z M445.125,422.6094 L448.1094,422.6094 L451.4688,435 L449.0156,435 L448.25,431.9375 L444.9688,431.9375 L444.2188,435 L441.7813,435 L445.125,422.6094 Z "/><text fill="#000000" font-family="sans-serif" font-size="12" font-style="italic" lengthAdjust="spacingAndGlyphs" textLength="50" x="460.5" y="433.6543">Member</text><line style="stroke: #000000; stroke-width: 1.5;" x1="432.5" x2="512.5" y1="445.5" y2="445.5"/><text fill="#000000" font-family="sans-serif" font-size="11" lengthAdjust="spacingAndGlyphs" textLength="55" x="437.5" y="459.7104">name : ID</text></a><!--class Ontology--><a target="_top" xlink:actuate="onRequest" xlink:href="#Ontology" xlink:show="new" xlink:title="#Ontology" xlink:type="simple"><rect fill="#FFFFFF" filter="url(#f18xz935ckrg6n)" height="65.6094"  style="stroke: #000000; stroke-width: 1.5;" width="157" x="549" y="407"/><rect fill="#FFFFFF" height="32" style="stroke: #000000; stroke-width: 1.5;" width="157" x="549" y="407"/><ellipse cx="595.75" cy="423" fill="#A9DCDF" rx="11" ry="11" style="stroke: #000000; stroke-width: 1.0;"/><path d="M595.8594,418.3438 L594.7031,423.4219 L597.0313,423.4219 L595.8594,418.3438 Z M594.375,416.1094 L597.3594,416.1094 L600.7188,428.5 L598.2656,428.5 L597.5,425.4375 L594.2188,425.4375 L593.4688,428.5 L591.0313,428.5 L594.375,416.1094 Z "/><text fill="#000000" font-family="sans-serif" font-size="12" font-style="italic" lengthAdjust="spacingAndGlyphs" textLength="55" x="616.25" y="427.1543">Ontology</text><line style="stroke: #000000; stroke-width: 1.5;" x1="550" x2="705" y1="439" y2="439"/><text fill="#000000" font-family="sans-serif" font-size="11" lengthAdjust="spacingAndGlyphs" textLength="145" x="555" y="453.2104">namespace : Namespace</text><text fill="#000000" font-family="sans-serif" font-size="11" lengthAdjust="spacingAndGlyphs" textLength="55" x="555" y="466.0151">prefix : ID</text></a><!--class SeparatorKind--><a target="_top" xlink:actuate="onRequest" xlink:href="#SeparatorKind" xlink:show="new" xlink:title="#SeparatorKind" xlink:type="simple"><rect fill="#FFFFFF" filter="url(#f18xz935ckrg6n)" height="65.6094"  style="stroke: #000000; stroke-width: 1.5;" width="121" x="397" y="8"/><rect fill="#FFFFFF" height="32" style="stroke: #000000; stroke-width: 1.5;" width="121" x="397" y="8"/><ellipse cx="412" cy="24" fill="#EB937F" rx="11" ry="11" style="stroke: #000000; stroke-width: 1.0;"/><path d="M416.1094,30 L408.3906,30 L408.3906,17.6094 L416.1094,17.6094 L416.1094,19.7656 L410.8438,19.7656 L410.8438,22.4375 L415.6094,22.4375 L415.6094,24.5938 L410.8438,24.5938 L410.8438,27.8438 L416.1094,27.8438 L416.1094,30 Z "/><text fill="#000000" font-family="sans-serif" font-size="12" lengthAdjust="spacingAndGlyphs" textLength="89" x="426" y="28.1543">SeparatorKind</text><line style="stroke: #000000; stroke-width: 1.5;" x1="398" x2="517" y1="40" y2="40"/><text fill="#000000" font-family="sans-serif" font-size="11" lengthAdjust="spacingAndGlyphs" textLength="28" x="403" y="54.2104">hash</text><text fill="#000000" font-family="sans-serif" font-size="11" lengthAdjust="spacingAndGlyphs" textLength="31" x="403" y="67.0151">slash</text></a><!--class Statement--><a target="_top" xlink:actuate="onRequest" xlink:href="#Statement" xlink:show="new" xlink:title="#Statement" xlink:type="simple"><rect fill="#FFFFFF" filter="url(#f18xz935ckrg6n)" height="40"  style="stroke: #000000; stroke-width: 1.5;" width="98" x="429.5" y="135"/><rect fill="#FFFFFF" height="32" style="stroke: #000000; stroke-width: 1.5;" width="98" x="429.5" y="135"/><ellipse cx="444.5" cy="151" fill="#A9DCDF" rx="11" ry="11" style="stroke: #000000; stroke-width: 1.0;"/><path d="M444.6094,146.3438 L443.4531,151.4219 L445.7813,151.4219 L444.6094,146.3438 Z M443.125,144.1094 L446.1094,144.1094 L449.4688,156.5 L447.0156,156.5 L446.25,153.4375 L442.9688,153.4375 L442.2188,156.5 L439.7813,156.5 L443.125,144.1094 Z "/><text fill="#000000" font-family="sans-serif" font-size="12" font-style="italic" lengthAdjust="spacingAndGlyphs" textLength="66" x="458.5" y="155.1543">Statement</text><line style="stroke: #000000; stroke-width: 1.5;" x1="430.5" x2="526.5" y1="167" y2="167"/></a><!--link Element to AnnotatedElement--><a target="_top" xlink:actuate="onRequest" xlink:href="#Element" xlink:show="new" xlink:title="#Element" xlink:type="simple"><path d="M320.5,81.263 C320.5,99.486 320.5,120.313 320.5,134.998 " fill="none"  style="stroke: #000000; stroke-width: 1.0;"/><polygon fill="none" points="313.5,81.254,320.5,61.253,327.5,81.253,313.5,81.254" style="stroke: #000000; stroke-width: 1.0;"/></a><!--link AnnotatedElement to Annotation--><path d="M254.535,180.358 C239.445,187.273 223.913,195.54 210.5,205 C195.766,215.392 181.543,228.751 169.238,241.785 " fill="none"  style="stroke: #000000; stroke-width: 1.0;"/><polygon fill="#000000" points="160.225,251.635,169.2515,247.6951,163.6002,247.9461,163.3492,242.2948,160.225,251.635" style="stroke: #000000; stroke-width: 1.0;"/><line style="stroke: #000000; stroke-width: 1.0;" x1="163.6002" x2="169.001" y1="247.9461" y2="242.0435"/><polygon fill="#000000" points="266.493,175.105,259.3909,173.8558,255.5063,179.9311,262.6083,181.1803,266.493,175.105" style="stroke: #000000; stroke-width: 1.0;"/><text fill="#000000" font-family="sans-serif" font-size="13" lengthAdjust="spacingAndGlyphs" textLength="118" x="211.5" y="218.0669">ownedAnnotations</text><text fill="#000000" font-family="sans-serif" font-size="13" lengthAdjust="spacingAndGlyphs" textLength="7" x="157.7341" y="240.9166">*</text><!--link Element to Annotation--><a target="_top" xlink:actuate="onRequest" xlink:href="#Element" xlink:show="new" xlink:title="#Element" xlink:type="simple"><path d="M284.393,75.231 C266.682,92.324 245.548,113.948 228.5,135 C205.072,163.931 202.572,173.647 182.5,205 C172.748,220.232 162.173,237.116 153.052,251.797 " fill="none"  style="stroke: #000000; stroke-width: 1.0;"/><polygon fill="none" points="279.847,69.896,299.184,61.23,289.471,80.063,279.847,69.896" style="stroke: #000000; stroke-width: 1.0;"/></a><!--link Annotation to Literal--><path d="M129.5,343.248 C129.5,365.808 129.5,391.4558 129.5,410.5256 " fill="none"  style="stroke: #000000; stroke-width: 1.0;"/><polygon fill="#000000" points="129.5,423.6661,133.5,414.6661,129.5,418.6661,125.5,414.6661,129.5,423.6661" style="stroke: #000000; stroke-width: 1.0;"/><line style="stroke: #000000; stroke-width: 1.0;" x1="129.5" x2="129.5" y1="418.6661" y2="410.6661"/><polygon fill="#000000" points="129.5,330.239,125.5,336.239,129.5,342.239,133.5,336.239,129.5,330.239" style="stroke: #000000; stroke-width: 1.0;"/><text fill="#000000" font-family="sans-serif" font-size="13" lengthAdjust="spacingAndGlyphs" textLength="34" x="130.5" y="373.0669">value</text><text fill="#000000" font-family="sans-serif" font-size="13" lengthAdjust="spacingAndGlyphs" textLength="24" x="101.525" y="412.86">0..1</text><!--link AnnotatedElement to IdentifiedElement--><a target="_top" xlink:actuate="onRequest" xlink:href="#AnnotatedElement" xlink:show="new" xlink:title="#AnnotatedElement" xlink:type="simple"><path d="M370.97,185.404 C415.561,211.383 479.292,248.513 517.608,270.837 " fill="none"  style="stroke: #000000; stroke-width: 1.0;"/><polygon fill="none" points="367.211,191.315,353.453,175.199,374.258,179.219,367.211,191.315" style="stroke: #000000; stroke-width: 1.0;"/></a><!--link AnnotatedElement to Import--><a target="_top" xlink:actuate="onRequest" xlink:href="#AnnotatedElement" xlink:show="new" xlink:title="#AnnotatedElement" xlink:type="simple"><path d="M333.623,194.227 C340.533,214.357 348.912,238.764 355.481,257.901 " fill="none"  style="stroke: #000000; stroke-width: 1.0;"/><polygon fill="none" points="326.964,196.388,327.091,175.199,340.205,191.843,326.964,196.388" style="stroke: #000000; stroke-width: 1.0;"/></a><!--link IdentifiedElement to Member--><a target="_top" xlink:actuate="onRequest" xlink:href="#IdentifiedElement" xlink:show="new" xlink:title="#IdentifiedElement" xlink:type="simple"><path d="M530.863,329.008 C516.894,355.334 498.485,390.0289 486.109,413.3525 " fill="none"  style="stroke: #000000; stroke-width: 1.0;"/><polygon fill="none" points="524.745,325.604,540.303,311.218,537.112,332.166,524.745,325.604" style="stroke: #000000; stroke-width: 1.0;"/></a><!--link IdentifiedElement to Ontology--><a target="_top" xlink:actuate="onRequest" xlink:href="#IdentifiedElement" xlink:show="new" xlink:title="#IdentifiedElement" xlink:type="simple"><path d="M569.899,329.035 C582.457,353.009 598.646,383.9147 610.662,406.8538 " fill="none"  style="stroke: #000000; stroke-width: 1.0;"/><polygon fill="none" points="563.646,332.182,560.566,311.218,576.047,325.686,563.646,332.182" style="stroke: #000000; stroke-width: 1.0;"/></a><!--link Element to Statement--><a target="_top" xlink:actuate="onRequest" xlink:href="#Element" xlink:show="new" xlink:title="#Element" xlink:type="simple"><path d="M363.993,72.831 C392.067,92.731 427.695,117.986 451.693,134.998 " fill="none"  style="stroke: #000000; stroke-width: 1.0;"/><polygon fill="none" points="359.929,78.53,347.661,61.253,368.026,67.109,359.929,78.53" style="stroke: #000000; stroke-width: 1.0;"/></a><!--
@startuml
skinparam classBackgroundColor LightGray
skinparam classBorderColor Black
skinparam enumBorderColor Black
skinparam ArrowColor Black
hide methods
abstract class AnnotatedElement [[#AnnotatedElement]] #white {
}
AnnotatedElement -up-|> Element [[#Element]]
AnnotatedElement *- -> "*" Annotation : ownedAnnotations
class Annotation [[#Annotation]] #white {
	property : AnnotationProperty [1]
	owningElement : AnnotatedElement [0..1]
	owningReference : Reference [0..1]
}
abstract class Literal [[#Literal]]
hide Literal members
Annotation -up-|> Element [[#Element]]
Annotation *- -> "0..1" Literal : value
abstract class Element [[#Element]] #white {
}
abstract class IdentifiedElement [[#IdentifiedElement]] #white {
}
IdentifiedElement -up-|> AnnotatedElement [[#AnnotatedElement]]
abstract class Import [[#Import]] #white {
	namespace : Namespace
	prefix : ID
}
Import -up-|> AnnotatedElement [[#AnnotatedElement]]
abstract class Member [[#Member]] #white {
	name : ID
}
Member -up-|> IdentifiedElement [[#IdentifiedElement]]
abstract class Ontology [[#Ontology]] #white {
	namespace : Namespace
	prefix : ID
}
Ontology -up-|> IdentifiedElement [[#IdentifiedElement]]
enum SeparatorKind [[#SeparatorKind]] #white {
	hash
	slash
}
abstract class Statement [[#Statement]] #white {
}
Statement -up-|> Element [[#Element]]
@enduml

PlantUML version 1.2019.00(Sun Jan 13 15:46:42 UTC 2019)
(GPL source distribution)
Java Runtime: OpenJDK Runtime Environment
JVM: OpenJDK 64-Bit Server VM
Java Version: 11.0.2+9
Operating System: Linux
OS Version: 4.15.0-1098-gcp
Default Encoding: UTF-8
Language: en
Country: US
--></g></svg>
