<?xml version="1.0" encoding="UTF-8" standalone="no"?><svg xmlns="http://www.w3.org/2000/svg" xmlns:xlink="http://www.w3.org/1999/xlink" contentStyleType="text/css" height="294px" preserveAspectRatio="none" style="width:834px;height:294px;background:#FFFFFF;" version="1.1" viewBox="0 0 834 294" width="834px" zoomAndPan="magnify"><defs/><g><!--MD5=[346d99b39270fc9da6b587baaa1d0e86]
class BooleanLiteral--><a href="#BooleanLiteral" target="_top" title="#BooleanLiteral" xlink:actuate="onRequest" xlink:href="#BooleanLiteral" xlink:show="new" xlink:title="#BooleanLiteral" xlink:type="simple"><g ><rect codeLine="6" fill="#FFFFFF" height="56.2969"  rx="2.5" ry="2.5" style="stroke:#000000;stroke-width:0.5;" width="172" x="7" y="215.5"/><ellipse cx="41.35" cy="231.5" fill="#ADD1B2" rx="11" ry="11" style="stroke:#181818;stroke-width:1.0;"/><path d="M44.3188,237.1406 Q43.7406,237.4375 43.1,237.5781 Q42.4594,237.7344 41.7563,237.7344 Q39.2563,237.7344 37.9281,236.0938 Q36.6156,234.4375 36.6156,231.3125 Q36.6156,228.1875 37.9281,226.5313 Q39.2563,224.875 41.7563,224.875 Q42.4594,224.875 43.1,225.0313 Q43.7563,225.1875 44.3188,225.4844 L44.3188,228.2031 Q43.6938,227.625 43.1,227.3594 Q42.5063,227.0781 41.8813,227.0781 Q40.5375,227.0781 39.85,228.1563 Q39.1625,229.2188 39.1625,231.3125 Q39.1625,233.4063 39.85,234.4844 Q40.5375,235.5469 41.8813,235.5469 Q42.5063,235.5469 43.1,235.2813 Q43.6938,235 44.3188,234.4219 L44.3188,237.1406 Z " fill="#000000"/><text fill="#000000" font-family="sans-serif" font-size="14" lengthAdjust="spacing" textLength="97" x="59.65" y="236.3467">BooleanLiteral</text><line style="stroke:#000000;stroke-width:0.5;" x1="8" x2="178" y1="247.5" y2="247.5"/><text fill="#000000" font-family="sans-serif" font-size="14" lengthAdjust="spacing" textLength="160" x="13" y="264.4951">value : EBooleanObject</text></g></a><!--MD5=[27bfdb9e128171e0e365013b6b91e809]
class Literal--><a href="#Literal" target="_top" title="#Literal" xlink:actuate="onRequest" xlink:href="#Literal" xlink:show="new" xlink:title="#Literal" xlink:type="simple"><g ><rect codeLine="22" fill="#FFFFFF" height="40"  rx="2.5" ry="2.5" style="stroke:#000000;stroke-width:0.5;" width="72" x="402" y="99"/><ellipse cx="417" cy="115" fill="#A9DCDF" rx="11" ry="11" style="stroke:#181818;stroke-width:1.0;"/><path d="M417.1094,110.3438 L415.9531,115.4219 L418.2813,115.4219 L417.1094,110.3438 Z M415.625,108.1094 L418.6094,108.1094 L421.9688,120.5 L419.5156,120.5 L418.75,117.4375 L415.4688,117.4375 L414.7188,120.5 L412.2813,120.5 L415.625,108.1094 Z " fill="#000000"/><text fill="#000000" font-family="sans-serif" font-size="14" font-style="italic" lengthAdjust="spacing" textLength="40" x="431" y="119.8467">Literal</text><line style="stroke:#000000;stroke-width:0.5;" x1="403" x2="473" y1="131" y2="131"/></g></a><!--MD5=[baf7612d41bcecf190896c6ba0d13e70]
class DecimalLiteral--><a href="#DecimalLiteral" target="_top" title="#DecimalLiteral" xlink:actuate="onRequest" xlink:href="#DecimalLiteral" xlink:show="new" xlink:title="#DecimalLiteral" xlink:type="simple"><g ><rect codeLine="10" fill="#FFFFFF" height="56.2969"  rx="2.5" ry="2.5" style="stroke:#000000;stroke-width:0.5;" width="127" x="214.5" y="215.5"/><ellipse cx="229.5" cy="231.5" fill="#ADD1B2" rx="11" ry="11" style="stroke:#181818;stroke-width:1.0;"/><path d="M232.4688,237.1406 Q231.8906,237.4375 231.25,237.5781 Q230.6094,237.7344 229.9063,237.7344 Q227.4063,237.7344 226.0781,236.0938 Q224.7656,234.4375 224.7656,231.3125 Q224.7656,228.1875 226.0781,226.5313 Q227.4063,224.875 229.9063,224.875 Q230.6094,224.875 231.25,225.0313 Q231.9063,225.1875 232.4688,225.4844 L232.4688,228.2031 Q231.8438,227.625 231.25,227.3594 Q230.6563,227.0781 230.0313,227.0781 Q228.6875,227.0781 228,228.1563 Q227.3125,229.2188 227.3125,231.3125 Q227.3125,233.4063 228,234.4844 Q228.6875,235.5469 230.0313,235.5469 Q230.6563,235.5469 231.25,235.2813 Q231.8438,235 232.4688,234.4219 L232.4688,237.1406 Z " fill="#000000"/><text fill="#000000" font-family="sans-serif" font-size="14" lengthAdjust="spacing" textLength="95" x="243.5" y="236.3467">DecimalLiteral</text><line style="stroke:#000000;stroke-width:0.5;" x1="215.5" x2="340.5" y1="247.5" y2="247.5"/><text fill="#000000" font-family="sans-serif" font-size="14" lengthAdjust="spacing" textLength="104" x="220.5" y="264.4951">value : Decimal</text></g></a><!--MD5=[5b3d970de895389b15b00d94f1049bb7]
class DoubleLiteral--><a href="#DoubleLiteral" target="_top" title="#DoubleLiteral" xlink:actuate="onRequest" xlink:href="#DoubleLiteral" xlink:show="new" xlink:title="#DoubleLiteral" xlink:type="simple"><g ><rect codeLine="14" fill="#FFFFFF" height="56.2969"  rx="2.5" ry="2.5" style="stroke:#000000;stroke-width:0.5;" width="122" x="377" y="215.5"/><ellipse cx="392" cy="231.5" fill="#ADD1B2" rx="11" ry="11" style="stroke:#181818;stroke-width:1.0;"/><path d="M394.9688,237.1406 Q394.3906,237.4375 393.75,237.5781 Q393.1094,237.7344 392.4063,237.7344 Q389.9063,237.7344 388.5781,236.0938 Q387.2656,234.4375 387.2656,231.3125 Q387.2656,228.1875 388.5781,226.5313 Q389.9063,224.875 392.4063,224.875 Q393.1094,224.875 393.75,225.0313 Q394.4063,225.1875 394.9688,225.4844 L394.9688,228.2031 Q394.3438,227.625 393.75,227.3594 Q393.1563,227.0781 392.5313,227.0781 Q391.1875,227.0781 390.5,228.1563 Q389.8125,229.2188 389.8125,231.3125 Q389.8125,233.4063 390.5,234.4844 Q391.1875,235.5469 392.5313,235.5469 Q393.1563,235.5469 393.75,235.2813 Q394.3438,235 394.9688,234.4219 L394.9688,237.1406 Z " fill="#000000"/><text fill="#000000" font-family="sans-serif" font-size="14" lengthAdjust="spacing" textLength="90" x="406" y="236.3467">DoubleLiteral</text><line style="stroke:#000000;stroke-width:0.5;" x1="378" x2="498" y1="247.5" y2="247.5"/><text fill="#000000" font-family="sans-serif" font-size="14" lengthAdjust="spacing" textLength="99" x="383" y="264.4951">value : Double</text></g></a><!--MD5=[fb4ac2ef79415f07b7272298fce73ab1]
class IntegerLiteral--><a href="#IntegerLiteral" target="_top" title="#IntegerLiteral" xlink:actuate="onRequest" xlink:href="#IntegerLiteral" xlink:show="new" xlink:title="#IntegerLiteral" xlink:type="simple"><g ><rect codeLine="18" fill="#FFFFFF" height="56.2969"  rx="2.5" ry="2.5" style="stroke:#000000;stroke-width:0.5;" width="121" x="534.5" y="215.5"/><ellipse cx="549.5" cy="231.5" fill="#ADD1B2" rx="11" ry="11" style="stroke:#181818;stroke-width:1.0;"/><path d="M552.4688,237.1406 Q551.8906,237.4375 551.25,237.5781 Q550.6094,237.7344 549.9063,237.7344 Q547.4063,237.7344 546.0781,236.0938 Q544.7656,234.4375 544.7656,231.3125 Q544.7656,228.1875 546.0781,226.5313 Q547.4063,224.875 549.9063,224.875 Q550.6094,224.875 551.25,225.0313 Q551.9063,225.1875 552.4688,225.4844 L552.4688,228.2031 Q551.8438,227.625 551.25,227.3594 Q550.6563,227.0781 550.0313,227.0781 Q548.6875,227.0781 548,228.1563 Q547.3125,229.2188 547.3125,231.3125 Q547.3125,233.4063 548,234.4844 Q548.6875,235.5469 550.0313,235.5469 Q550.6563,235.5469 551.25,235.2813 Q551.8438,235 552.4688,234.4219 L552.4688,237.1406 Z " fill="#000000"/><text fill="#000000" font-family="sans-serif" font-size="14" lengthAdjust="spacing" textLength="89" x="563.5" y="236.3467">IntegerLiteral</text><line style="stroke:#000000;stroke-width:0.5;" x1="535.5" x2="654.5" y1="247.5" y2="247.5"/><text fill="#000000" font-family="sans-serif" font-size="14" lengthAdjust="spacing" textLength="98" x="540.5" y="264.4951">value : Integer</text></g></a><!--MD5=[95174e42ee347a14b6cb78d6855f19b5]
class Element--><a href="#Element" target="_top" title="#Element" xlink:actuate="onRequest" xlink:href="#Element" xlink:show="new" xlink:title="#Element" xlink:type="simple"><g ><rect codeLine="24" fill="#D3D3D3" height="32"  rx="2.5" ry="2.5" style="stroke:#000000;stroke-width:0.5;" width="89" x="393.5" y="7"/><ellipse cx="408.5" cy="23" fill="#A9DCDF" rx="11" ry="11" style="stroke:#181818;stroke-width:1.0;"/><path d="M408.6094,18.3438 L407.4531,23.4219 L409.7813,23.4219 L408.6094,18.3438 Z M407.125,16.1094 L410.1094,16.1094 L413.4688,28.5 L411.0156,28.5 L410.25,25.4375 L406.9688,25.4375 L406.2188,28.5 L403.7813,28.5 L407.125,16.1094 Z " fill="#000000"/><text fill="#000000" font-family="sans-serif" font-size="14" font-style="italic" lengthAdjust="spacing" textLength="57" x="422.5" y="27.8467">Element</text></g></a><!--MD5=[533048c0bed2bbe186c9f9559373d202]
class QuotedLiteral--><a href="#QuotedLiteral" target="_top" title="#QuotedLiteral" xlink:actuate="onRequest" xlink:href="#QuotedLiteral" xlink:show="new" xlink:title="#QuotedLiteral" xlink:type="simple"><g ><rect codeLine="27" fill="#FFFFFF" height="88.8906"  rx="2.5" ry="2.5" style="stroke:#000000;stroke-width:0.5;" width="136" x="691" y="199"/><ellipse cx="711.4" cy="215" fill="#ADD1B2" rx="11" ry="11" style="stroke:#181818;stroke-width:1.0;"/><path d="M714.3688,220.6406 Q713.7906,220.9375 713.15,221.0781 Q712.5094,221.2344 711.8063,221.2344 Q709.3063,221.2344 707.9781,219.5938 Q706.6656,217.9375 706.6656,214.8125 Q706.6656,211.6875 707.9781,210.0313 Q709.3063,208.375 711.8063,208.375 Q712.5094,208.375 713.15,208.5313 Q713.8063,208.6875 714.3688,208.9844 L714.3688,211.7031 Q713.7438,211.125 713.15,210.8594 Q712.5563,210.5781 711.9313,210.5781 Q710.5875,210.5781 709.9,211.6563 Q709.2125,212.7188 709.2125,214.8125 Q709.2125,216.9063 709.9,217.9844 Q710.5875,219.0469 711.9313,219.0469 Q712.5563,219.0469 713.15,218.7813 Q713.7438,218.5 714.3688,217.9219 L714.3688,220.6406 Z " fill="#000000"/><text fill="#000000" font-family="sans-serif" font-size="14" lengthAdjust="spacing" textLength="92" x="726.6" y="219.8467">QuotedLiteral</text><line style="stroke:#000000;stroke-width:0.5;" x1="692" x2="826" y1="231" y2="231"/><text fill="#000000" font-family="sans-serif" font-size="14" lengthAdjust="spacing" textLength="89" x="697" y="247.9951">value : String</text><text fill="#000000" font-family="sans-serif" font-size="14" lengthAdjust="spacing" textLength="108" x="697" y="264.292">langTag : String</text><text fill="#000000" font-family="sans-serif" font-size="14" lengthAdjust="spacing" textLength="124" x="697" y="280.5889">type : Scalar [0..1]</text></g></a><!--MD5=[0bb58e2e663bd8f52cbb3a64f7f519e2]
reverse link Literal to BooleanLiteral--><g ><a href="#Literal" target="_top" title="#Literal" xlink:actuate="onRequest" xlink:href="#Literal" xlink:show="new" xlink:title="#Literal" xlink:type="simple"><path codeLine="9" d="M382.618,136.781 C333.49,151.992 259.963,175.555 197,199 C183.428,204.0539 169.012,209.8207 155.374,215.4661 " fill="none"  style="stroke:#000000;stroke-width:1.0;"/><polygon fill="none" points="380.586,130.082,401.76,130.895,384.701,143.464,380.586,130.082" style="stroke:#000000;stroke-width:1.0;"/></a></g><!--MD5=[2a49919656d7501e32856347b7c16b5b]
reverse link Literal to DecimalLiteral--><g ><a href="#Literal" target="_top" title="#Literal" xlink:actuate="onRequest" xlink:href="#Literal" xlink:show="new" xlink:title="#Literal" xlink:type="simple"><path codeLine="13" d="M396.854,151.502 C371.063,171.249 338.156,196.4433 313.509,215.3133 " fill="none"  style="stroke:#000000;stroke-width:1.0;"/><polygon fill="none" points="392.864,145.741,413,139.141,401.375,156.857,392.864,145.741" style="stroke:#000000;stroke-width:1.0;"/></a></g><!--MD5=[a1a8ffc91d409eb769f36dab0150ed21]
reverse link Literal to DoubleLiteral--><g ><a href="#Literal" target="_top" title="#Literal" xlink:actuate="onRequest" xlink:href="#Literal" xlink:show="new" xlink:title="#Literal" xlink:type="simple"><path codeLine="17" d="M438,159.402 C438,177.653 438,198.881 438,215.3133 " fill="none"  style="stroke:#000000;stroke-width:1.0;"/><polygon fill="none" points="431,159.141,438,139.141,445,159.141,431,159.141" style="stroke:#000000;stroke-width:1.0;"/></a></g><!--MD5=[6a25895d4ecd2c8a4afd3c96e86e6c1c]
reverse link Literal to IntegerLiteral--><g ><a href="#Literal" target="_top" title="#Literal" xlink:actuate="onRequest" xlink:href="#Literal" xlink:show="new" xlink:title="#Literal" xlink:type="simple"><path codeLine="21" d="M478.374,151.502 C503.682,171.249 535.972,196.4433 560.157,215.3133 " fill="none"  style="stroke:#000000;stroke-width:1.0;"/><polygon fill="none" points="473.993,156.963,462.531,139.141,482.605,145.925,473.993,156.963" style="stroke:#000000;stroke-width:1.0;"/></a></g><!--MD5=[b5640beb1769b417107308fb2766c10a]
reverse link Element to Literal--><g ><a href="#Element" target="_top" title="#Element" xlink:actuate="onRequest" xlink:href="#Element" xlink:show="new" xlink:title="#Element" xlink:type="simple"><path codeLine="26" d="M438,59.445 C438,72.76 438,87.394 438,98.701 " fill="none"  style="stroke:#000000;stroke-width:1.0;"/><polygon fill="none" points="431,59.103,438,39.103,445,59.103,431,59.103" style="stroke:#000000;stroke-width:1.0;"/></a></g><!--MD5=[fee8631045d4cb3a59fcac38373cf397]
reverse link Literal to QuotedLiteral--><g ><a href="#Literal" target="_top" title="#Literal" xlink:actuate="onRequest" xlink:href="#Literal" xlink:show="new" xlink:title="#Literal" xlink:type="simple"><path codeLine="32" d="M493.459,136.169 C541.611,150.791 612.855,173.834 673,199 C678.865,201.4542 684.884,204.1384 690.882,206.93 " fill="none"  style="stroke:#000000;stroke-width:1.0;"/><polygon fill="none" points="491.172,142.791,474.024,130.344,495.191,129.381,491.172,142.791" style="stroke:#000000;stroke-width:1.0;"/></a></g><!--MD5=[8bb13c12bda7716a0afb3e9c809283b2]
@startuml
skinparam classBackgroundColor LightGray
skinparam classBorderColor Black
skinparam enumBorderColor Black
skinparam ArrowColor Black
hide methods
class BooleanLiteral [[#BooleanLiteral]] #white {
	value : EBooleanObject
}
BooleanLiteral -up-|> Literal [[#Literal]]
class DecimalLiteral [[#DecimalLiteral]] #white {
	value : Decimal
}
DecimalLiteral -up-|> Literal [[#Literal]]
class DoubleLiteral [[#DoubleLiteral]] #white {
	value : Double
}
DoubleLiteral -up-|> Literal [[#Literal]]
class IntegerLiteral [[#IntegerLiteral]] #white {
	value : Integer
}
IntegerLiteral -up-|> Literal [[#Literal]]
abstract class Literal [[#Literal]] #white {
}
abstract class Element [[#Element]]
hide Element members
Literal -up-|> Element [[#Element]]
class QuotedLiteral [[#QuotedLiteral]] #white {
	value : String
	langTag : String
	type : Scalar [0..1]
}
QuotedLiteral -up-|> Literal [[#Literal]]
@enduml

PlantUML version 1.2022.12(Sun Oct 23 18:12:26 UTC 2022)
(GPL source distribution)
Java Runtime: OpenJDK Runtime Environment
JVM: OpenJDK 64-Bit Server VM
Default Encoding: UTF-8
Language: en
Country: US
--></g></svg>
