<?xml version="1.0" encoding="UTF-8" standalone="no"?><svg xmlns="http://www.w3.org/2000/svg" xmlns:xlink="http://www.w3.org/1999/xlink" contentScriptType="application/ecmascript" contentStyleType="text/css" height="548px" preserveAspectRatio="none" style="width:916px;height:548px;" version="1.1" viewBox="0 0 916 548" width="916px" zoomAndPan="magnify"><defs><filter height="300%" id="f1s2dgt54oe79k" width="300%" x="-1" y="-1"><feGaussianBlur result="blurOut" stdDeviation="2.0"/><feColorMatrix in="blurOut" result="blurOut2" type="matrix" values="0 0 0 0 0 0 0 0 0 0 0 0 0 0 0 0 0 0 .4 0"/><feOffset dx="4.0" dy="4.0" in="blurOut2" result="blurOut3"/><feBlend in="SourceGraphic" in2="blurOut3" mode="normal"/></filter></defs><g><!--class BinaryPredicate--><a target="_top" xlink:actuate="onRequest" xlink:href="#BinaryPredicate" xlink:show="new" xlink:title="#BinaryPredicate" xlink:type="simple"><rect fill="#FFFFFF" filter="url(#f1s2dgt54oe79k)" height="65.6094"  style="stroke: #000000; stroke-width: 1.5;" width="130" x="379.5" y="345"/><rect fill="#FFFFFF" height="32" style="stroke: #000000; stroke-width: 1.5;" width="130" x="379.5" y="345"/><ellipse cx="394.5" cy="361" fill="#A9DCDF" rx="11" ry="11" style="stroke: #000000; stroke-width: 1.0;"/><path d="M394.6094,356.3438 L393.4531,361.4219 L395.7813,361.4219 L394.6094,356.3438 Z M393.125,354.1094 L396.1094,354.1094 L399.4688,366.5 L397.0156,366.5 L396.25,363.4375 L392.9688,363.4375 L392.2188,366.5 L389.7813,366.5 L393.125,354.1094 Z "/><text fill="#000000" font-family="sans-serif" font-size="12" font-style="italic" lengthAdjust="spacingAndGlyphs" textLength="98" x="408.5" y="365.1543">BinaryPredicate</text><line style="stroke: #000000; stroke-width: 1.5;" x1="380.5" x2="508.5" y1="377" y2="377"/><text fill="#000000" font-family="sans-serif" font-size="11" lengthAdjust="spacingAndGlyphs" textLength="75" x="385.5" y="391.2104">variable1 : ID</text><text fill="#000000" font-family="sans-serif" font-size="11" lengthAdjust="spacingAndGlyphs" textLength="75" x="385.5" y="404.0151">variable2 : ID</text></a><!--class Predicate--><a target="_top" xlink:actuate="onRequest" xlink:href="#Predicate" xlink:show="new" xlink:title="#Predicate" xlink:type="simple"><rect fill="#FFFFFF" filter="url(#f1s2dgt54oe79k)" height="65.6094"  style="stroke: #000000; stroke-width: 1.5;" width="172" x="138.5" y="218"/><rect fill="#FFFFFF" height="32" style="stroke: #000000; stroke-width: 1.5;" width="172" x="138.5" y="218"/><ellipse cx="190.25" cy="234" fill="#A9DCDF" rx="11" ry="11" style="stroke: #000000; stroke-width: 1.0;"/><path d="M190.3594,229.3438 L189.2031,234.4219 L191.5313,234.4219 L190.3594,229.3438 Z M188.875,227.1094 L191.8594,227.1094 L195.2188,239.5 L192.7656,239.5 L192,236.4375 L188.7188,236.4375 L187.9688,239.5 L185.5313,239.5 L188.875,227.1094 Z "/><text fill="#000000" font-family="sans-serif" font-size="12" font-style="italic" lengthAdjust="spacingAndGlyphs" textLength="60" x="210.75" y="238.1543">Predicate</text><line style="stroke: #000000; stroke-width: 1.5;" x1="139.5" x2="309.5" y1="250" y2="250"/><text fill="#000000" font-family="sans-serif" font-size="11" lengthAdjust="spacingAndGlyphs" textLength="157" x="144.5" y="264.2104">antecedentRule : Rule [0..1]</text><text fill="#000000" font-family="sans-serif" font-size="11" lengthAdjust="spacingAndGlyphs" textLength="160" x="144.5" y="277.0151">consequentRule : Rule [0..1]</text></a><!--class DifferentFromPredicate--><a target="_top" xlink:actuate="onRequest" xlink:href="#DifferentFromPredicate" xlink:show="new" xlink:title="#DifferentFromPredicate" xlink:type="simple"><rect fill="#FFFFFF" filter="url(#f1s2dgt54oe79k)" height="40"  style="stroke: #000000; stroke-width: 1.5;" width="177" x="162" y="485"/><rect fill="#FFFFFF" height="32" style="stroke: #000000; stroke-width: 1.5;" width="177" x="162" y="485"/><ellipse cx="177" cy="501" fill="#ADD1B2" rx="11" ry="11" style="stroke: #000000; stroke-width: 1.0;"/><path d="M179.9688,506.6406 Q179.3906,506.9375 178.75,507.0781 Q178.1094,507.2344 177.4063,507.2344 Q174.9063,507.2344 173.5781,505.5938 Q172.2656,503.9375 172.2656,500.8125 Q172.2656,497.6875 173.5781,496.0313 Q174.9063,494.375 177.4063,494.375 Q178.1094,494.375 178.75,494.5313 Q179.4063,494.6875 179.9688,494.9844 L179.9688,497.7031 Q179.3438,497.125 178.75,496.8594 Q178.1563,496.5781 177.5313,496.5781 Q176.1875,496.5781 175.5,497.6563 Q174.8125,498.7188 174.8125,500.8125 Q174.8125,502.9063 175.5,503.9844 Q176.1875,505.0469 177.5313,505.0469 Q178.1563,505.0469 178.75,504.7813 Q179.3438,504.5 179.9688,503.9219 L179.9688,506.6406 Z "/><text fill="#000000" font-family="sans-serif" font-size="12" lengthAdjust="spacingAndGlyphs" textLength="145" x="191" y="505.1543">DifferentFromPredicate</text><line style="stroke: #000000; stroke-width: 1.5;" x1="163" x2="338" y1="517" y2="517"/></a><!--class FeaturePredicate--><a target="_top" xlink:actuate="onRequest" xlink:href="#FeaturePredicate" xlink:show="new" xlink:title="#FeaturePredicate" xlink:type="simple"><rect fill="#FFFFFF" filter="url(#f1s2dgt54oe79k)" height="52.8047"  style="stroke: #000000; stroke-width: 1.5;" width="141" x="374" y="478.5"/><rect fill="#FFFFFF" height="32" style="stroke: #000000; stroke-width: 1.5;" width="141" x="374" y="478.5"/><ellipse cx="389" cy="494.5" fill="#ADD1B2" rx="11" ry="11" style="stroke: #000000; stroke-width: 1.0;"/><path d="M391.9688,500.1406 Q391.3906,500.4375 390.75,500.5781 Q390.1094,500.7344 389.4063,500.7344 Q386.9063,500.7344 385.5781,499.0938 Q384.2656,497.4375 384.2656,494.3125 Q384.2656,491.1875 385.5781,489.5313 Q386.9063,487.875 389.4063,487.875 Q390.1094,487.875 390.75,488.0313 Q391.4063,488.1875 391.9688,488.4844 L391.9688,491.2031 Q391.3438,490.625 390.75,490.3594 Q390.1563,490.0781 389.5313,490.0781 Q388.1875,490.0781 387.5,491.1563 Q386.8125,492.2188 386.8125,494.3125 Q386.8125,496.4063 387.5,497.4844 Q388.1875,498.5469 389.5313,498.5469 Q390.1563,498.5469 390.75,498.2813 Q391.3438,498 391.9688,497.4219 L391.9688,500.1406 Z "/><text fill="#000000" font-family="sans-serif" font-size="12" lengthAdjust="spacingAndGlyphs" textLength="109" x="403" y="498.6543">FeaturePredicate</text><line style="stroke: #000000; stroke-width: 1.5;" x1="375" x2="514" y1="510.5" y2="510.5"/><text fill="#000000" font-family="sans-serif" font-size="11" lengthAdjust="spacingAndGlyphs" textLength="115" x="380" y="524.7104">feature : Feature [1]</text></a><!--class Element--><a target="_top" xlink:actuate="onRequest" xlink:href="#Element" xlink:show="new" xlink:title="#Element" xlink:type="simple"><rect fill="#D3D3D3" filter="url(#f1s2dgt54oe79k)" height="32"  style="stroke: #000000; stroke-width: 1.5;" width="83" x="125" y="105"/><ellipse cx="140" cy="121" fill="#A9DCDF" rx="11" ry="11" style="stroke: #000000; stroke-width: 1.0;"/><path d="M140.1094,116.3438 L138.9531,121.4219 L141.2813,121.4219 L140.1094,116.3438 Z M138.625,114.1094 L141.6094,114.1094 L144.9688,126.5 L142.5156,126.5 L141.75,123.4375 L138.4688,123.4375 L137.7188,126.5 L135.2813,126.5 L138.625,114.1094 Z "/><text fill="#000000" font-family="sans-serif" font-size="12" font-style="italic" lengthAdjust="spacingAndGlyphs" textLength="51" x="154" y="125.1543">Element</text></a><!--class RelationEntityPredicate--><a target="_top" xlink:actuate="onRequest" xlink:href="#RelationEntityPredicate" xlink:show="new" xlink:title="#RelationEntityPredicate" xlink:type="simple"><rect fill="#FFFFFF" filter="url(#f1s2dgt54oe79k)" height="65.6094"  style="stroke: #000000; stroke-width: 1.5;" width="178" x="550.5" y="472"/><rect fill="#FFFFFF" height="32" style="stroke: #000000; stroke-width: 1.5;" width="178" x="550.5" y="472"/><ellipse cx="565.5" cy="488" fill="#ADD1B2" rx="11" ry="11" style="stroke: #000000; stroke-width: 1.0;"/><path d="M568.4688,493.6406 Q567.8906,493.9375 567.25,494.0781 Q566.6094,494.2344 565.9063,494.2344 Q563.4063,494.2344 562.0781,492.5938 Q560.7656,490.9375 560.7656,487.8125 Q560.7656,484.6875 562.0781,483.0313 Q563.4063,481.375 565.9063,481.375 Q566.6094,481.375 567.25,481.5313 Q567.9063,481.6875 568.4688,481.9844 L568.4688,484.7031 Q567.8438,484.125 567.25,483.8594 Q566.6563,483.5781 566.0313,483.5781 Q564.6875,483.5781 564,484.6563 Q563.3125,485.7188 563.3125,487.8125 Q563.3125,489.9063 564,490.9844 Q564.6875,492.0469 566.0313,492.0469 Q566.6563,492.0469 567.25,491.7813 Q567.8438,491.5 568.4688,490.9219 L568.4688,493.6406 Z "/><text fill="#000000" font-family="sans-serif" font-size="12" lengthAdjust="spacingAndGlyphs" textLength="146" x="579.5" y="492.1543">RelationEntityPredicate</text><line style="stroke: #000000; stroke-width: 1.5;" x1="551.5" x2="727.5" y1="504" y2="504"/><text fill="#000000" font-family="sans-serif" font-size="11" lengthAdjust="spacingAndGlyphs" textLength="100" x="556.5" y="518.2104">entityVariable : ID</text><text fill="#000000" font-family="sans-serif" font-size="11" lengthAdjust="spacingAndGlyphs" textLength="138" x="556.5" y="531.0151">entity : RelationEntity [1]</text></a><!--class Rule--><a target="_top" xlink:actuate="onRequest" xlink:href="#Rule" xlink:show="new" xlink:title="#Rule" xlink:type="simple"><rect fill="#FFFFFF" filter="url(#f1s2dgt54oe79k)" height="40"  style="stroke: #000000; stroke-width: 1.5;" width="59" x="276" y="101"/><rect fill="#FFFFFF" height="32" style="stroke: #000000; stroke-width: 1.5;" width="59" x="276" y="101"/><ellipse cx="291" cy="117" fill="#ADD1B2" rx="11" ry="11" style="stroke: #000000; stroke-width: 1.0;"/><path d="M293.9688,122.6406 Q293.3906,122.9375 292.75,123.0781 Q292.1094,123.2344 291.4063,123.2344 Q288.9063,123.2344 287.5781,121.5938 Q286.2656,119.9375 286.2656,116.8125 Q286.2656,113.6875 287.5781,112.0313 Q288.9063,110.375 291.4063,110.375 Q292.1094,110.375 292.75,110.5313 Q293.4063,110.6875 293.9688,110.9844 L293.9688,113.7031 Q293.3438,113.125 292.75,112.8594 Q292.1563,112.5781 291.5313,112.5781 Q290.1875,112.5781 289.5,113.6563 Q288.8125,114.7188 288.8125,116.8125 Q288.8125,118.9063 289.5,119.9844 Q290.1875,121.0469 291.5313,121.0469 Q292.1563,121.0469 292.75,120.7813 Q293.3438,120.5 293.9688,119.9219 L293.9688,122.6406 Z "/><text fill="#000000" font-family="sans-serif" font-size="12" lengthAdjust="spacingAndGlyphs" textLength="27" x="305" y="121.1543">Rule</text><line style="stroke: #000000; stroke-width: 1.5;" x1="277" x2="334" y1="133" y2="133"/></a><!--class Member--><a target="_top" xlink:actuate="onRequest" xlink:href="#Member" xlink:show="new" xlink:title="#Member" xlink:type="simple"><rect fill="#D3D3D3" filter="url(#f1s2dgt54oe79k)" height="32"  style="stroke: #000000; stroke-width: 1.5;" width="82" x="344.5" y="8"/><ellipse cx="359.5" cy="24" fill="#A9DCDF" rx="11" ry="11" style="stroke: #000000; stroke-width: 1.0;"/><path d="M359.6094,19.3438 L358.4531,24.4219 L360.7813,24.4219 L359.6094,19.3438 Z M358.125,17.1094 L361.1094,17.1094 L364.4688,29.5 L362.0156,29.5 L361.25,26.4375 L357.9688,26.4375 L357.2188,29.5 L354.7813,29.5 L358.125,17.1094 Z "/><text fill="#000000" font-family="sans-serif" font-size="12" font-style="italic" lengthAdjust="spacingAndGlyphs" textLength="50" x="373.5" y="28.1543">Member</text></a><!--class VocabularyStatement--><a target="_top" xlink:actuate="onRequest" xlink:href="#VocabularyStatement" xlink:show="new" xlink:title="#VocabularyStatement" xlink:type="simple"><rect fill="#D3D3D3" filter="url(#f1s2dgt54oe79k)" height="32"  style="stroke: #000000; stroke-width: 1.5;" width="167" x="142" y="8"/><ellipse cx="157" cy="24" fill="#A9DCDF" rx="11" ry="11" style="stroke: #000000; stroke-width: 1.0;"/><path d="M157.1094,19.3438 L155.9531,24.4219 L158.2813,24.4219 L157.1094,19.3438 Z M155.625,17.1094 L158.6094,17.1094 L161.9688,29.5 L159.5156,29.5 L158.75,26.4375 L155.4688,26.4375 L154.7188,29.5 L152.2813,29.5 L155.625,17.1094 Z "/><text fill="#000000" font-family="sans-serif" font-size="12" font-style="italic" lengthAdjust="spacingAndGlyphs" textLength="135" x="171" y="28.1543">VocabularyStatement</text></a><!--class SameAsPredicate--><a target="_top" xlink:actuate="onRequest" xlink:href="#SameAsPredicate" xlink:show="new" xlink:title="#SameAsPredicate" xlink:type="simple"><rect fill="#FFFFFF" filter="url(#f1s2dgt54oe79k)" height="40"  style="stroke: #000000; stroke-width: 1.5;" width="142" x="763.5" y="485"/><rect fill="#FFFFFF" height="32" style="stroke: #000000; stroke-width: 1.5;" width="142" x="763.5" y="485"/><ellipse cx="778.5" cy="501" fill="#ADD1B2" rx="11" ry="11" style="stroke: #000000; stroke-width: 1.0;"/><path d="M781.4688,506.6406 Q780.8906,506.9375 780.25,507.0781 Q779.6094,507.2344 778.9063,507.2344 Q776.4063,507.2344 775.0781,505.5938 Q773.7656,503.9375 773.7656,500.8125 Q773.7656,497.6875 775.0781,496.0313 Q776.4063,494.375 778.9063,494.375 Q779.6094,494.375 780.25,494.5313 Q780.9063,494.6875 781.4688,494.9844 L781.4688,497.7031 Q780.8438,497.125 780.25,496.8594 Q779.6563,496.5781 779.0313,496.5781 Q777.6875,496.5781 777,497.6563 Q776.3125,498.7188 776.3125,500.8125 Q776.3125,502.9063 777,503.9844 Q777.6875,505.0469 779.0313,505.0469 Q779.6563,505.0469 780.25,504.7813 Q780.8438,504.5 781.4688,503.9219 L781.4688,506.6406 Z "/><text fill="#000000" font-family="sans-serif" font-size="12" lengthAdjust="spacingAndGlyphs" textLength="110" x="792.5" y="505.1543">SameAsPredicate</text><line style="stroke: #000000; stroke-width: 1.5;" x1="764.5" x2="904.5" y1="517" y2="517"/></a><!--class TypePredicate--><a target="_top" xlink:actuate="onRequest" xlink:href="#TypePredicate" xlink:show="new" xlink:title="#TypePredicate" xlink:type="simple"><rect fill="#FFFFFF" filter="url(#f1s2dgt54oe79k)" height="52.8047"  style="stroke: #000000; stroke-width: 1.5;" width="121" x="6" y="478.5"/><rect fill="#FFFFFF" height="32" style="stroke: #000000; stroke-width: 1.5;" width="121" x="6" y="478.5"/><ellipse cx="21" cy="494.5" fill="#ADD1B2" rx="11" ry="11" style="stroke: #000000; stroke-width: 1.0;"/><path d="M23.9688,500.1406 Q23.3906,500.4375 22.75,500.5781 Q22.1094,500.7344 21.4063,500.7344 Q18.9063,500.7344 17.5781,499.0938 Q16.2656,497.4375 16.2656,494.3125 Q16.2656,491.1875 17.5781,489.5313 Q18.9063,487.875 21.4063,487.875 Q22.1094,487.875 22.75,488.0313 Q23.4063,488.1875 23.9688,488.4844 L23.9688,491.2031 Q23.3438,490.625 22.75,490.3594 Q22.1563,490.0781 21.5313,490.0781 Q20.1875,490.0781 19.5,491.1563 Q18.8125,492.2188 18.8125,494.3125 Q18.8125,496.4063 19.5,497.4844 Q20.1875,498.5469 21.5313,498.5469 Q22.1563,498.5469 22.75,498.2813 Q23.3438,498 23.9688,497.4219 L23.9688,500.1406 Z "/><text fill="#000000" font-family="sans-serif" font-size="12" lengthAdjust="spacingAndGlyphs" textLength="89" x="35" y="498.6543">TypePredicate</text><line style="stroke: #000000; stroke-width: 1.5;" x1="7" x2="126" y1="510.5" y2="510.5"/><text fill="#000000" font-family="sans-serif" font-size="11" lengthAdjust="spacingAndGlyphs" textLength="82" x="12" y="524.7104">type : Type [1]</text></a><!--class UnaryPredicate--><a target="_top" xlink:actuate="onRequest" xlink:href="#UnaryPredicate" xlink:show="new" xlink:title="#UnaryPredicate" xlink:type="simple"><rect fill="#FFFFFF" filter="url(#f1s2dgt54oe79k)" height="52.8047"  style="stroke: #000000; stroke-width: 1.5;" width="128" x="109.5" y="351.5"/><rect fill="#FFFFFF" height="32" style="stroke: #000000; stroke-width: 1.5;" width="128" x="109.5" y="351.5"/><ellipse cx="124.5" cy="367.5" fill="#A9DCDF" rx="11" ry="11" style="stroke: #000000; stroke-width: 1.0;"/><path d="M124.6094,362.8438 L123.4531,367.9219 L125.7813,367.9219 L124.6094,362.8438 Z M123.125,360.6094 L126.1094,360.6094 L129.4688,373 L127.0156,373 L126.25,369.9375 L122.9688,369.9375 L122.2188,373 L119.7813,373 L123.125,360.6094 Z "/><text fill="#000000" font-family="sans-serif" font-size="12" font-style="italic" lengthAdjust="spacingAndGlyphs" textLength="96" x="138.5" y="371.6543">UnaryPredicate</text><line style="stroke: #000000; stroke-width: 1.5;" x1="110.5" x2="236.5" y1="383.5" y2="383.5"/><text fill="#000000" font-family="sans-serif" font-size="11" lengthAdjust="spacingAndGlyphs" textLength="68" x="115.5" y="397.7104">variable : ID</text></a><!--link Predicate to BinaryPredicate--><a target="_top" xlink:actuate="onRequest" xlink:href="#Predicate" xlink:show="new" xlink:title="#Predicate" xlink:type="simple"><path d="M298.469,294.028 C327.662,310.615 360.661,329.364 387.895,344.838 " fill="none"  style="stroke: #000000; stroke-width: 1.0;"/><polygon fill="none" points="294.801,299.995,280.87,284.028,301.717,287.822,294.801,299.995" style="stroke: #000000; stroke-width: 1.0;"/></a><!--link BinaryPredicate to DifferentFromPredicate--><a target="_top" xlink:actuate="onRequest" xlink:href="#BinaryPredicate" xlink:show="new" xlink:title="#BinaryPredicate" xlink:type="simple"><path d="M377.968,421.868 C344.685,443.3137 306.075,468.1912 280.146,484.898 " fill="none"  style="stroke: #000000; stroke-width: 1.0;"/><polygon fill="none" points="374.188,415.977,394.792,411.028,381.771,427.745,374.188,415.977" style="stroke: #000000; stroke-width: 1.0;"/></a><!--link BinaryPredicate to FeaturePredicate--><a target="_top" xlink:actuate="onRequest" xlink:href="#BinaryPredicate" xlink:show="new" xlink:title="#BinaryPredicate" xlink:type="simple"><path d="M444.5,431.237 C444.5,447.4589 444.5,464.6288 444.5,478.2136 " fill="none"  style="stroke: #000000; stroke-width: 1.0;"/><polygon fill="none" points="437.5,431.191,444.5,411.191,451.5,431.191,437.5,431.191" style="stroke: #000000; stroke-width: 1.0;"/></a><!--link Element to Predicate--><a target="_top" xlink:actuate="onRequest" xlink:href="#Element" xlink:show="new" xlink:title="#Element" xlink:type="simple"><path d="M176.454,156.276 C179.853,166.638 183.957,177.934 188.5,188 C193.005,197.984 198.667,208.43 204.158,217.841 " fill="none"  style="stroke: #000000; stroke-width: 1.0;"/><polygon fill="none" points="169.717,158.182,170.551,137.009,183.102,154.081,169.717,158.182" style="stroke: #000000; stroke-width: 1.0;"/></a><!--link BinaryPredicate to RelationEntityPredicate--><a target="_top" xlink:actuate="onRequest" xlink:href="#BinaryPredicate" xlink:show="new" xlink:title="#BinaryPredicate" xlink:type="simple"><path d="M511.532,421.969 C537.041,438.3211 565.643,456.6561 589.327,471.8379 " fill="none"  style="stroke: #000000; stroke-width: 1.0;"/><polygon fill="none" points="507.524,427.715,494.464,411.028,515.079,415.928,507.524,427.715" style="stroke: #000000; stroke-width: 1.0;"/></a><!--link Member to Rule--><a target="_top" xlink:actuate="onRequest" xlink:href="#Member" xlink:show="new" xlink:title="#Member" xlink:type="simple"><path d="M359.734,55.597 C347.215,70.464 332.556,87.871 321.637,100.838 " fill="none"  style="stroke: #000000; stroke-width: 1.0;"/><polygon fill="none" points="354.409,51.053,372.647,40.263,365.118,60.071,354.409,51.053" style="stroke: #000000; stroke-width: 1.0;"/></a><!--link VocabularyStatement to Rule--><a target="_top" xlink:actuate="onRequest" xlink:href="#VocabularyStatement" xlink:show="new" xlink:title="#VocabularyStatement" xlink:type="simple"><path d="M251.266,55.597 C263.785,70.464 278.444,87.871 289.363,100.838 " fill="none"  style="stroke: #000000; stroke-width: 1.0;"/><polygon fill="none" points="245.882,60.071,238.353,40.263,256.591,51.053,245.882,60.071" style="stroke: #000000; stroke-width: 1.0;"/></a><!--link Rule to Predicate--><path d="M263.711,135.927 C247.55,143.591 230.747,154.9 221.5,171 C215.751,181.009 214.103,192.966 214.482,204.513 " fill="none"  style="stroke: #000000; stroke-width: 1.0;"/><polygon fill="#000000" points="215.733,217.737,218.8676,208.4003,215.2621,212.7592,210.9031,209.1537,215.733,217.737" style="stroke: #000000; stroke-width: 1.0;"/><line style="stroke: #000000; stroke-width: 1.0;" x1="215.2621" x2="214.5085" y1="212.7592" y2="204.7945"/><polygon fill="#000000" points="275.808,130.757,268.7189,129.4363,264.7732,135.4721,271.8623,136.7928,275.808,130.757" style="stroke: #000000; stroke-width: 1.0;"/><text fill="#000000" font-family="sans-serif" font-size="13" lengthAdjust="spacingAndGlyphs" textLength="73" x="222.5" y="184.0669">antecedent</text><text fill="#000000" font-family="sans-serif" font-size="13" lengthAdjust="spacingAndGlyphs" textLength="7" x="206.3179" y="206.8302">*</text><!--link Rule to Predicate--><path d="M308.114,154.36 C307.737,165.552 305.809,177.829 300.5,188 C296.622,195.43 291.426,202.294 285.562,208.537 " fill="none"  style="stroke: #000000; stroke-width: 1.0;"/><polygon fill="#000000" points="275.891,217.825,285.1529,214.4759,279.4972,214.3616,279.6115,208.7059,275.891,217.825" style="stroke: #000000; stroke-width: 1.0;"/><line style="stroke: #000000; stroke-width: 1.0;" x1="279.4972" x2="285.2665" y1="214.3616" y2="208.8205"/><polygon fill="#000000" points="307.9,141.002,303.9968,147.0654,308.0925,153.0005,311.9957,146.9371,307.9,141.002" style="stroke: #000000; stroke-width: 1.0;"/><text fill="#000000" font-family="sans-serif" font-size="13" lengthAdjust="spacingAndGlyphs" textLength="75" x="307.5" y="184.0669">consequent</text><text fill="#000000" font-family="sans-serif" font-size="13" lengthAdjust="spacingAndGlyphs" textLength="7" x="278.3195" y="206.9355">*</text><!--link BinaryPredicate to SameAsPredicate--><a target="_top" xlink:actuate="onRequest" xlink:href="#BinaryPredicate" xlink:show="new" xlink:title="#BinaryPredicate" xlink:type="simple"><path d="M528.878,403.751 C589.642,421.875 673.446,447.4861 746.5,472 C758.521,476.0339 771.387,480.5803 783.466,484.9525 " fill="none"  style="stroke: #000000; stroke-width: 1.0;"/><polygon fill="none" points="526.779,410.43,509.602,398.023,530.768,397.01,526.779,410.43" style="stroke: #000000; stroke-width: 1.0;"/></a><!--link UnaryPredicate to TypePredicate--><a target="_top" xlink:actuate="onRequest" xlink:href="#UnaryPredicate" xlink:show="new" xlink:title="#UnaryPredicate" xlink:type="simple"><path d="M138.512,419.873 C121.999,439.165 102.801,461.5923 88.3819,478.437 " fill="none"  style="stroke: #000000; stroke-width: 1.0;"/><polygon fill="none" points="133.265,415.239,151.589,404.597,143.901,424.343,133.265,415.239" style="stroke: #000000; stroke-width: 1.0;"/></a><!--link Predicate to UnaryPredicate--><a target="_top" xlink:actuate="onRequest" xlink:href="#Predicate" xlink:show="new" xlink:title="#Predicate" xlink:type="simple"><path d="M203.741,302.88 C196.961,319.497 189.718,337.249 184.021,351.214 " fill="none"  style="stroke: #000000; stroke-width: 1.0;"/><polygon fill="none" points="197.33,300.064,211.366,284.191,210.292,305.353,197.33,300.064" style="stroke: #000000; stroke-width: 1.0;"/></a><!--
@startuml
skinparam classBackgroundColor LightGray
skinparam classBorderColor Black
skinparam enumBorderColor Black
skinparam ArrowColor Black
hide methods
abstract class BinaryPredicate [[#BinaryPredicate]] #white {
	variable1 : ID
	variable2 : ID
}
BinaryPredicate -up-|> Predicate [[#Predicate]]
class DifferentFromPredicate [[#DifferentFromPredicate]] #white {
}
DifferentFromPredicate -up-|> BinaryPredicate [[#BinaryPredicate]]
class FeaturePredicate [[#FeaturePredicate]] #white {
	feature : Feature [1]
}
FeaturePredicate -up-|> BinaryPredicate [[#BinaryPredicate]]
abstract class Predicate [[#Predicate]] #white {
	antecedentRule : Rule [0..1]
	consequentRule : Rule [0..1]
}
abstract class Element [[#Element]]
hide Element members
Predicate -up-|> Element [[#Element]]
class RelationEntityPredicate [[#RelationEntityPredicate]] #white {
	entityVariable : ID
	entity : RelationEntity [1]
}
RelationEntityPredicate -up-|> BinaryPredicate [[#BinaryPredicate]]
class Rule [[#Rule]] #white {
}
abstract class Member [[#Member]]
hide Member members
abstract class VocabularyStatement [[#VocabularyStatement]]
hide VocabularyStatement members
Rule -up-|> Member [[#Member]]
Rule -up-|> VocabularyStatement [[#VocabularyStatement]]
Rule *- -> "*" Predicate : antecedent
Rule *- -> "*" Predicate : consequent
class SameAsPredicate [[#SameAsPredicate]] #white {
}
SameAsPredicate -up-|> BinaryPredicate [[#BinaryPredicate]]
class TypePredicate [[#TypePredicate]] #white {
	type : Type [1]
}
TypePredicate -up-|> UnaryPredicate [[#UnaryPredicate]]
abstract class UnaryPredicate [[#UnaryPredicate]] #white {
	variable : ID
}
UnaryPredicate -up-|> Predicate [[#Predicate]]
@enduml

PlantUML version 1.2019.00(Sun Jan 13 15:46:42 UTC 2019)
(GPL source distribution)
Java Runtime: OpenJDK Runtime Environment
JVM: OpenJDK 64-Bit Server VM
Java Version: 11.0.2+9
Operating System: Linux
OS Version: 4.15.0-1077-gcp
Default Encoding: UTF-8
Language: en
Country: US
--></g></svg>
