<?xml version="1.0" encoding="UTF-8" standalone="no"?><svg xmlns="http://www.w3.org/2000/svg" xmlns:xlink="http://www.w3.org/1999/xlink" contentStyleType="text/css" height="552px" preserveAspectRatio="none" style="width:771px;height:552px;background:#FFFFFF;" version="1.1" viewBox="0 0 771 552" width="771px" zoomAndPan="magnify"><defs/><g><!--MD5=[faebc81c07309c527f2fda51bf6b78ab]
class Annotation--><a href="#Annotation" target="_top" title="#Annotation" xlink:actuate="onRequest" xlink:href="#Annotation" xlink:show="new" xlink:title="#Annotation" xlink:type="simple"><g ><rect codeLine="6" fill="#FFFFFF" height="88.8906"  rx="2.5" ry="2.5" style="stroke:#000000;stroke-width:0.5;" width="292" x="139" y="274"/><ellipse cx="243.25" cy="290" fill="#ADD1B2" rx="11" ry="11" style="stroke:#181818;stroke-width:1.0;"/><path d="M246.2188,295.6406 Q245.6406,295.9375 245,296.0781 Q244.3594,296.2344 243.6563,296.2344 Q241.1563,296.2344 239.8281,294.5938 Q238.5156,292.9375 238.5156,289.8125 Q238.5156,286.6875 239.8281,285.0313 Q241.1563,283.375 243.6563,283.375 Q244.3594,283.375 245,283.5313 Q245.6563,283.6875 246.2188,283.9844 L246.2188,286.7031 Q245.5938,286.125 245,285.8594 Q244.4063,285.5781 243.7813,285.5781 Q242.4375,285.5781 241.75,286.6563 Q241.0625,287.7188 241.0625,289.8125 Q241.0625,291.9063 241.75,292.9844 Q242.4375,294.0469 243.7813,294.0469 Q244.4063,294.0469 245,293.7813 Q245.5938,293.5 246.2188,292.9219 L246.2188,295.6406 Z " fill="#000000"/><text fill="#000000" font-family="sans-serif" font-size="14" lengthAdjust="spacing" textLength="75" x="263.75" y="294.8467">Annotation</text><line style="stroke:#000000;stroke-width:0.5;" x1="140" x2="430" y1="306" y2="306"/><text fill="#000000" font-family="sans-serif" font-size="14" lengthAdjust="spacing" textLength="227" x="145" y="322.9951">property : AnnotationProperty [1]</text><text fill="#000000" font-family="sans-serif" font-size="14" lengthAdjust="spacing" textLength="215" x="145" y="339.292">referenceValue : Member [0..1]</text><text fill="#000000" font-family="sans-serif" font-size="14" lengthAdjust="spacing" textLength="280" x="145" y="355.5889">owningElement : IdentifiedElement [0..1]</text></g></a><!--MD5=[27bfdb9e128171e0e365013b6b91e809]
class Literal--><a href="#Literal" target="_top" title="#Literal" xlink:actuate="onRequest" xlink:href="#Literal" xlink:show="new" xlink:title="#Literal" xlink:type="simple"><g ><rect codeLine="11" fill="#D3D3D3" height="32"  rx="2.5" ry="2.5" style="stroke:#000000;stroke-width:0.5;" width="72" x="249" y="476.5"/><ellipse cx="264" cy="492.5" fill="#A9DCDF" rx="11" ry="11" style="stroke:#181818;stroke-width:1.0;"/><path d="M264.1094,487.8438 L262.9531,492.9219 L265.2813,492.9219 L264.1094,487.8438 Z M262.625,485.6094 L265.6094,485.6094 L268.9688,498 L266.5156,498 L265.75,494.9375 L262.4688,494.9375 L261.7188,498 L259.2813,498 L262.625,485.6094 Z " fill="#000000"/><text fill="#000000" font-family="sans-serif" font-size="14" font-style="italic" lengthAdjust="spacing" textLength="40" x="278" y="497.3467">Literal</text></g></a><!--MD5=[95174e42ee347a14b6cb78d6855f19b5]
class Element--><a href="#Element" target="_top" title="#Element" xlink:actuate="onRequest" xlink:href="#Element" xlink:show="new" xlink:title="#Element" xlink:type="simple"><g ><rect codeLine="15" fill="#FFFFFF" height="40"  rx="2.5" ry="2.5" style="stroke:#000000;stroke-width:0.5;" width="89" x="369.5" y="31.5"/><ellipse cx="384.5" cy="47.5" fill="#A9DCDF" rx="11" ry="11" style="stroke:#181818;stroke-width:1.0;"/><path d="M384.6094,42.8438 L383.4531,47.9219 L385.7813,47.9219 L384.6094,42.8438 Z M383.125,40.6094 L386.1094,40.6094 L389.4688,53 L387.0156,53 L386.25,49.9375 L382.9688,49.9375 L382.2188,53 L379.7813,53 L383.125,40.6094 Z " fill="#000000"/><text fill="#000000" font-family="sans-serif" font-size="14" font-style="italic" lengthAdjust="spacing" textLength="57" x="398.5" y="52.3467">Element</text><line style="stroke:#000000;stroke-width:0.5;" x1="370.5" x2="457.5" y1="63.5" y2="63.5"/></g></a><!--MD5=[251ec3a4a9cd3bf00caf27dd200c2db9]
class IdentifiedElement--><a href="#IdentifiedElement" target="_top" title="#IdentifiedElement" xlink:actuate="onRequest" xlink:href="#IdentifiedElement" xlink:show="new" xlink:title="#IdentifiedElement" xlink:type="simple"><g ><rect codeLine="17" fill="#FFFFFF" height="40"  rx="2.5" ry="2.5" style="stroke:#000000;stroke-width:0.5;" width="152" x="338" y="157"/><ellipse cx="353" cy="173" fill="#A9DCDF" rx="11" ry="11" style="stroke:#181818;stroke-width:1.0;"/><path d="M353.1094,168.3438 L351.9531,173.4219 L354.2813,173.4219 L353.1094,168.3438 Z M351.625,166.1094 L354.6094,166.1094 L357.9688,178.5 L355.5156,178.5 L354.75,175.4375 L351.4688,175.4375 L350.7188,178.5 L348.2813,178.5 L351.625,166.1094 Z " fill="#000000"/><text fill="#000000" font-family="sans-serif" font-size="14" font-style="italic" lengthAdjust="spacing" textLength="120" x="367" y="177.8467">IdentifiedElement</text><line style="stroke:#000000;stroke-width:0.5;" x1="339" x2="489" y1="189" y2="189"/></g></a><!--MD5=[f9bb3094b6d6f786926c56d9e97ecd1b]
class Import--><a href="#Import" target="_top" title="#Import" xlink:actuate="onRequest" xlink:href="#Import" xlink:show="new" xlink:title="#Import" xlink:type="simple"><g ><rect codeLine="21" fill="#FFFFFF" height="105.1875"  rx="2.5" ry="2.5" style="stroke:#000000;stroke-width:0.5;" width="222" x="538" y="440"/><ellipse cx="622.75" cy="456" fill="#ADD1B2" rx="11" ry="11" style="stroke:#181818;stroke-width:1.0;"/><path d="M625.7188,461.6406 Q625.1406,461.9375 624.5,462.0781 Q623.8594,462.2344 623.1563,462.2344 Q620.6563,462.2344 619.3281,460.5938 Q618.0156,458.9375 618.0156,455.8125 Q618.0156,452.6875 619.3281,451.0313 Q620.6563,449.375 623.1563,449.375 Q623.8594,449.375 624.5,449.5313 Q625.1563,449.6875 625.7188,449.9844 L625.7188,452.7031 Q625.0938,452.125 624.5,451.8594 Q623.9063,451.5781 623.2813,451.5781 Q621.9375,451.5781 621.25,452.6563 Q620.5625,453.7188 620.5625,455.8125 Q620.5625,457.9063 621.25,458.9844 Q621.9375,460.0469 623.2813,460.0469 Q623.9063,460.0469 624.5,459.7813 Q625.0938,459.5 625.7188,458.9219 L625.7188,461.6406 Z " fill="#000000"/><text fill="#000000" font-family="sans-serif" font-size="14" lengthAdjust="spacing" textLength="44" x="643.25" y="460.8467">Import</text><line style="stroke:#000000;stroke-width:0.5;" x1="539" x2="759" y1="472" y2="472"/><text fill="#000000" font-family="sans-serif" font-size="14" lengthAdjust="spacing" textLength="116" x="544" y="488.9951">kind : ImportKind</text><text fill="#000000" font-family="sans-serif" font-size="14" lengthAdjust="spacing" textLength="176" x="544" y="505.292">namespace : Namespace</text><text fill="#000000" font-family="sans-serif" font-size="14" lengthAdjust="spacing" textLength="64" x="544" y="521.5889">prefix : ID</text><text fill="#000000" font-family="sans-serif" font-size="14" lengthAdjust="spacing" textLength="210" x="544" y="537.8857">owningOntology : Ontology [1]</text></g></a><!--MD5=[79c8caa58c8cbe10cafca7664df59a2b]
class ImportKind--><a href="#ImportKind" target="_top" title="#ImportKind" xlink:actuate="onRequest" xlink:href="#ImportKind" xlink:show="new" xlink:title="#ImportKind" xlink:type="simple"><g ><rect codeLine="28" fill="#FFFFFF" height="88.8906"  rx="2.5" ry="2.5" style="stroke:#000000;stroke-width:0.5;" width="106" x="494" y="7"/><ellipse cx="509" cy="23" fill="#EB937F" rx="11" ry="11" style="stroke:#181818;stroke-width:1.0;"/><path d="M513.1094,29 L505.3906,29 L505.3906,16.6094 L513.1094,16.6094 L513.1094,18.7656 L507.8438,18.7656 L507.8438,21.4375 L512.6094,21.4375 L512.6094,23.5938 L507.8438,23.5938 L507.8438,26.8438 L513.1094,26.8438 L513.1094,29 Z " fill="#000000"/><text fill="#000000" font-family="sans-serif" font-size="14" lengthAdjust="spacing" textLength="74" x="523" y="27.8467">ImportKind</text><line style="stroke:#000000;stroke-width:0.5;" x1="495" x2="599" y1="39" y2="39"/><text fill="#000000" font-family="sans-serif" font-size="14" lengthAdjust="spacing" textLength="68" x="500" y="55.9951">extension</text><text fill="#000000" font-family="sans-serif" font-size="14" lengthAdjust="spacing" textLength="43" x="500" y="72.292">usage</text><text fill="#000000" font-family="sans-serif" font-size="14" lengthAdjust="spacing" textLength="61" x="500" y="88.5889">inclusion</text></g></a><!--MD5=[f58fd777f29c17413488bea9e7cfcca3]
class Member--><a href="#Member" target="_top" title="#Member" xlink:actuate="onRequest" xlink:href="#Member" xlink:show="new" xlink:title="#Member" xlink:type="simple"><g ><rect codeLine="33" fill="#FFFFFF" height="56.2969"  rx="2.5" ry="2.5" style="stroke:#000000;stroke-width:0.5;" width="89" x="14.5" y="290.5"/><ellipse cx="29.5" cy="306.5" fill="#A9DCDF" rx="11" ry="11" style="stroke:#181818;stroke-width:1.0;"/><path d="M29.6094,301.8438 L28.4531,306.9219 L30.7813,306.9219 L29.6094,301.8438 Z M28.125,299.6094 L31.1094,299.6094 L34.4688,312 L32.0156,312 L31.25,308.9375 L27.9688,308.9375 L27.2188,312 L24.7813,312 L28.125,299.6094 Z " fill="#000000"/><text fill="#000000" font-family="sans-serif" font-size="14" font-style="italic" lengthAdjust="spacing" textLength="57" x="43.5" y="311.3467">Member</text><line style="stroke:#000000;stroke-width:0.5;" x1="15.5" x2="102.5" y1="322.5" y2="322.5"/><text fill="#000000" font-family="sans-serif" font-size="14" lengthAdjust="spacing" textLength="66" x="20.5" y="339.4951">name : ID</text></g></a><!--MD5=[5dfd8d6a6d713da886d1ef2bfe78f203]
class Ontology--><a href="#Ontology" target="_top" title="#Ontology" xlink:actuate="onRequest" xlink:href="#Ontology" xlink:show="new" xlink:title="#Ontology" xlink:type="simple"><g ><rect codeLine="37" fill="#FFFFFF" height="72.5938"  rx="2.5" ry="2.5" style="stroke:#000000;stroke-width:0.5;" width="188" x="466" y="282"/><ellipse cx="524.75" cy="298" fill="#A9DCDF" rx="11" ry="11" style="stroke:#181818;stroke-width:1.0;"/><path d="M524.8594,293.3438 L523.7031,298.4219 L526.0313,298.4219 L524.8594,293.3438 Z M523.375,291.1094 L526.3594,291.1094 L529.7188,303.5 L527.2656,303.5 L526.5,300.4375 L523.2188,300.4375 L522.4688,303.5 L520.0313,303.5 L523.375,291.1094 Z " fill="#000000"/><text fill="#000000" font-family="sans-serif" font-size="14" font-style="italic" lengthAdjust="spacing" textLength="62" x="545.25" y="302.8467">Ontology</text><line style="stroke:#000000;stroke-width:0.5;" x1="467" x2="653" y1="314" y2="314"/><text fill="#000000" font-family="sans-serif" font-size="14" lengthAdjust="spacing" textLength="176" x="472" y="330.9951">namespace : Namespace</text><text fill="#000000" font-family="sans-serif" font-size="14" lengthAdjust="spacing" textLength="64" x="472" y="347.292">prefix : ID</text></g></a><!--MD5=[4cdd8bb3602eda9dc01b2a794c230a31]
class SeparatorKind--><a href="#SeparatorKind" target="_top" title="#SeparatorKind" xlink:actuate="onRequest" xlink:href="#SeparatorKind" xlink:show="new" xlink:title="#SeparatorKind" xlink:type="simple"><g ><rect codeLine="43" fill="#FFFFFF" height="72.5938"  rx="2.5" ry="2.5" style="stroke:#000000;stroke-width:0.5;" width="129" x="635.5" y="15"/><ellipse cx="650.5" cy="31" fill="#EB937F" rx="11" ry="11" style="stroke:#181818;stroke-width:1.0;"/><path d="M654.6094,37 L646.8906,37 L646.8906,24.6094 L654.6094,24.6094 L654.6094,26.7656 L649.3438,26.7656 L649.3438,29.4375 L654.1094,29.4375 L654.1094,31.5938 L649.3438,31.5938 L649.3438,34.8438 L654.6094,34.8438 L654.6094,37 Z " fill="#000000"/><text fill="#000000" font-family="sans-serif" font-size="14" lengthAdjust="spacing" textLength="97" x="664.5" y="35.8467">SeparatorKind</text><line style="stroke:#000000;stroke-width:0.5;" x1="636.5" x2="763.5" y1="47" y2="47"/><text fill="#000000" font-family="sans-serif" font-size="14" lengthAdjust="spacing" textLength="34" x="641.5" y="63.9951">hash</text><text fill="#000000" font-family="sans-serif" font-size="14" lengthAdjust="spacing" textLength="36" x="641.5" y="80.292">slash</text></g></a><!--MD5=[a61a298976b7d1d94498f45c2ebfa10b]
class Statement--><a href="#Statement" target="_top" title="#Statement" xlink:actuate="onRequest" xlink:href="#Statement" xlink:show="new" xlink:title="#Statement" xlink:type="simple"><g ><rect codeLine="47" fill="#FFFFFF" height="40"  rx="2.5" ry="2.5" style="stroke:#000000;stroke-width:0.5;" width="104" x="7" y="472.5"/><ellipse cx="22" cy="488.5" fill="#A9DCDF" rx="11" ry="11" style="stroke:#181818;stroke-width:1.0;"/><path d="M22.1094,483.8438 L20.9531,488.9219 L23.2813,488.9219 L22.1094,483.8438 Z M20.625,481.6094 L23.6094,481.6094 L26.9688,494 L24.5156,494 L23.75,490.9375 L20.4688,490.9375 L19.7188,494 L17.2813,494 L20.625,481.6094 Z " fill="#000000"/><text fill="#000000" font-family="sans-serif" font-size="14" font-style="italic" lengthAdjust="spacing" textLength="72" x="36" y="493.3467">Statement</text><line style="stroke:#000000;stroke-width:0.5;" x1="8" x2="110" y1="504.5" y2="504.5"/></g></a><!--MD5=[f0832d5e213e87fee8a27a129e7e5340]
reverse link Element to Annotation--><g ><a href="#Element" target="_top" title="#Element" xlink:actuate="onRequest" xlink:href="#Element" xlink:show="new" xlink:title="#Element" xlink:type="simple"><path codeLine="13" d="M376.123,85.412 C356.531,104.438 333.876,129.926 320,157 C301.138,193.801 292.415,240.404 288.396,273.899 " fill="none"  style="stroke:#000000;stroke-width:1.0;"/><polygon fill="none" points="371.536,80.119,390.952,71.633,381.066,90.375,371.536,80.119" style="stroke:#000000;stroke-width:1.0;"/></a></g><!--MD5=[f90a4d10888fc5da8aefdcfb02bff89f]
link Annotation to Literal--><g ><path codeLine="14" d="M285,375.348 C285,375.348 285,439.687 285,463.1864 " fill="none"  style="stroke:#000000;stroke-width:1.0;"/><polygon fill="#000000" points="285,476.2998,289,467.2998,285,471.2998,281,467.2998,285,476.2998" style="stroke:#000000;stroke-width:1.0;"/><line style="stroke:#000000;stroke-width:1.0;" x1="285" x2="285" y1="471.2998" y2="463.2999"/><polygon fill="#000000" points="285,363.348,281,369.348,285,375.348,289,369.348,285,363.348" style="stroke:#000000;stroke-width:1.0;"/><text fill="#000000" font-family="sans-serif" font-size="13" lengthAdjust="spacing" textLength="71" x="286" y="406.0669">literalValue</text><text fill="#000000" font-family="sans-serif" font-size="13" lengthAdjust="spacing" textLength="24" x="257.025" y="465.538">0..1</text></g><!--MD5=[24365f57c71e7b0cd1f7a6b8d9c364a1]
reverse link Element to IdentifiedElement--><g ><a href="#Element" target="_top" title="#Element" xlink:actuate="onRequest" xlink:href="#Element" xlink:show="new" xlink:title="#Element" xlink:type="simple"><path codeLine="19" d="M414,91.677 C414,113.385 414,139.408 414,156.749 " fill="none"  style="stroke:#000000;stroke-width:1.0;"/><polygon fill="none" points="407,91.526,414,71.526,421,91.526,407,91.526" style="stroke:#000000;stroke-width:1.0;"/></a></g><!--MD5=[ce3f780afb4767e5f39fc331fe0584a3]
link IdentifiedElement to Annotation--><g ><path codeLine="20" d="M389.6143,206.3321 C389.6143,206.3321 366.921,232.148 356,244 C349.942,250.575 343.518,257.409 337.107,264.145 " fill="none"  style="stroke:#000000;stroke-width:1.0;"/><polygon fill="#000000" points="327.767,273.904,336.8797,270.1679,331.2242,270.2918,331.1003,264.6363,327.767,273.904" style="stroke:#000000;stroke-width:1.0;"/><line style="stroke:#000000;stroke-width:1.0;" x1="331.2242" x2="336.755" y1="270.2918" y2="264.513"/><polygon fill="#000000" points="397.484,197.273,390.5294,199.1793,389.6143,206.3321,396.5689,204.4258,397.484,197.273" style="stroke:#000000;stroke-width:1.0;"/><text fill="#000000" font-family="sans-serif" font-size="13" lengthAdjust="spacing" textLength="118" x="372" y="240.0669">ownedAnnotations</text><text fill="#000000" font-family="sans-serif" font-size="13" lengthAdjust="spacing" textLength="7" x="326.7798" y="263.0122">*</text></g><!--MD5=[1b096922bfc91bd86ae3c5b4c59fe42e]
reverse link Element to Import--><g ><a href="#Element" target="_top" title="#Element" xlink:actuate="onRequest" xlink:href="#Element" xlink:show="new" xlink:title="#Element" xlink:type="simple"><path codeLine="27" d="M457.18,83.4 C523.791,132.027 646.605,225.821 672,274 C700.313,327.715 697.537,350.588 685,410 C682.892,419.989 679.478,430.245 675.572,439.965 " fill="none"  style="stroke:#000000;stroke-width:1.0;"/><polygon fill="none" points="452.863,88.917,440.778,71.511,461.08,77.582,452.863,88.917" style="stroke:#000000;stroke-width:1.0;"/></a></g><!--MD5=[33752fb4a47bbfc919e466094f723143]
reverse link IdentifiedElement to Member--><g ><a href="#IdentifiedElement" target="_top" title="#IdentifiedElement" xlink:actuate="onRequest" xlink:href="#IdentifiedElement" xlink:show="new" xlink:title="#IdentifiedElement" xlink:type="simple"><path codeLine="36" d="M318.246,201.648 C259.599,217.994 183.97,242.471 121,274 C111.829,278.592 102.4911,284.424 93.939,290.314 " fill="none"  style="stroke:#000000;stroke-width:1.0;"/><polygon fill="none" points="316.7,194.814,337.837,196.313,320.379,208.322,316.7,194.814" style="stroke:#000000;stroke-width:1.0;"/></a></g><!--MD5=[fd3ff5f198460cf7758d1240200908b0]
reverse link IdentifiedElement to Ontology--><g ><a href="#IdentifiedElement" target="_top" title="#IdentifiedElement" xlink:actuate="onRequest" xlink:href="#IdentifiedElement" xlink:show="new" xlink:title="#IdentifiedElement" xlink:type="simple"><path codeLine="41" d="M473.08,207.319 C482.261,213.179 491.256,219.781 499,227 C515.77,242.633 530.315,263.706 540.991,281.584 " fill="none"  style="stroke:#000000;stroke-width:1.0;"/><polygon fill="none" points="469.19,213.153,455.474,197.001,476.269,201.075,469.19,213.153" style="stroke:#000000;stroke-width:1.0;"/></a></g><!--MD5=[dcb1963f79f99aa4062902f26e0babcc]
link Ontology to Import--><g ><path codeLine="42" d="M572.0215,366.866 C572.0215,366.866 582.276,396.839 589,410 C592.198,416.258 595.861,422.551 599.766,428.714 " fill="none"  style="stroke:#000000;stroke-width:1.0;"/><polygon fill="#000000" points="607.009,439.632,605.3674,429.9209,604.2451,435.4653,598.7007,434.3431,607.009,439.632" style="stroke:#000000;stroke-width:1.0;"/><line style="stroke:#000000;stroke-width:1.0;" x1="604.2451" x2="599.8225" y1="435.4653" y2="428.799"/><polygon fill="#000000" points="568.597,355.365,566.4756,362.257,572.0215,366.866,574.1429,359.974,568.597,355.365" style="stroke:#000000;stroke-width:1.0;"/><text fill="#000000" font-family="sans-serif" font-size="13" lengthAdjust="spacing" textLength="90" x="590" y="406.0669">ownedImports</text><text fill="#000000" font-family="sans-serif" font-size="13" lengthAdjust="spacing" textLength="7" x="594.1805" y="428.9607">*</text></g><!--MD5=[2bbd18e6e5da94c78ca13e5351797c75]
reverse link Member to Statement--><g ><a href="#Member" target="_top" title="#Member" xlink:actuate="onRequest" xlink:href="#Member" xlink:show="new" xlink:title="#Member" xlink:type="simple"><path codeLine="49" d="M59,366.76 C59,401.553 59,447.0411 59,472.3621 " fill="none"  style="stroke:#000000;stroke-width:1.0;"/><polygon fill="none" points="52.0001,366.754,59,346.754,66.0001,366.754,52.0001,366.754" style="stroke:#000000;stroke-width:1.0;"/></a></g><!--MD5=[a073e4111808f3927db341c19e3efcff]
@startuml
skinparam classBackgroundColor LightGray
skinparam classBorderColor Black
skinparam enumBorderColor Black
skinparam ArrowColor Black
hide methods
class Annotation [[#Annotation]] #white {
	property : AnnotationProperty [1]
	referenceValue : Member [0..1]
	owningElement : IdentifiedElement [0..1]
}
abstract class Literal [[#Literal]]
hide Literal members
Annotation -up-|> Element [[#Element]]
Annotation *- -> "0..1" Literal : literalValue
abstract class Element [[#Element]] #white {
}
abstract class IdentifiedElement [[#IdentifiedElement]] #white {
}
IdentifiedElement -up-|> Element [[#Element]]
IdentifiedElement *- -> "*" Annotation : ownedAnnotations
class Import [[#Import]] #white {
	kind : ImportKind
	namespace : Namespace
	prefix : ID
	owningOntology : Ontology [1]
}
Import -up-|> Element [[#Element]]
enum ImportKind [[#ImportKind]] #white {
	extension
	usage
	inclusion
}
abstract class Member [[#Member]] #white {
	name : ID
}
Member -up-|> IdentifiedElement [[#IdentifiedElement]]
abstract class Ontology [[#Ontology]] #white {
	namespace : Namespace
	prefix : ID
}
Ontology -up-|> IdentifiedElement [[#IdentifiedElement]]
Ontology *- -> "*" Import : ownedImports
enum SeparatorKind [[#SeparatorKind]] #white {
	hash
	slash
}
abstract class Statement [[#Statement]] #white {
}
Statement -up-|> Member [[#Member]]
@enduml

PlantUML version 1.2022.12(Sun Oct 23 18:12:26 UTC 2022)
(GPL source distribution)
Java Runtime: OpenJDK Runtime Environment
JVM: OpenJDK 64-Bit Server VM
Default Encoding: UTF-8
Language: en
Country: US
--></g></svg>
