<?xml version="1.0" encoding="UTF-8" standalone="no"?><svg xmlns="http://www.w3.org/2000/svg" xmlns:xlink="http://www.w3.org/1999/xlink" contentStyleType="text/css" height="572px" preserveAspectRatio="none" style="width:1055px;height:572px;background:#FFFFFF;" version="1.1" viewBox="0 0 1055 572" width="1055px" zoomAndPan="magnify"><defs/><g><!--MD5=[3a34d783aa08cf9dd21282e5580a7bd0]
class ConceptInstance--><a href="#ConceptInstance" target="_top" title="#ConceptInstance" xlink:actuate="onRequest" xlink:href="#ConceptInstance" xlink:show="new" xlink:title="#ConceptInstance" xlink:type="simple"><g ><rect codeLine="6" fill="#FFFFFF" height="40"  rx="2.5" ry="2.5" style="stroke:#000000;stroke-width:0.5;" width="150" x="27" y="399.5"/><ellipse cx="42" cy="415.5" fill="#ADD1B2" rx="11" ry="11" style="stroke:#181818;stroke-width:1.0;"/><path d="M44.9688,421.1406 Q44.3906,421.4375 43.75,421.5781 Q43.1094,421.7344 42.4063,421.7344 Q39.9063,421.7344 38.5781,420.0938 Q37.2656,418.4375 37.2656,415.3125 Q37.2656,412.1875 38.5781,410.5313 Q39.9063,408.875 42.4063,408.875 Q43.1094,408.875 43.75,409.0313 Q44.4063,409.1875 44.9688,409.4844 L44.9688,412.2031 Q44.3438,411.625 43.75,411.3594 Q43.1563,411.0781 42.5313,411.0781 Q41.1875,411.0781 40.5,412.1563 Q39.8125,413.2188 39.8125,415.3125 Q39.8125,417.4063 40.5,418.4844 Q41.1875,419.5469 42.5313,419.5469 Q43.1563,419.5469 43.75,419.2813 Q44.3438,419 44.9688,418.4219 L44.9688,421.1406 Z " fill="#000000"/><text fill="#000000" font-family="sans-serif" font-size="14" lengthAdjust="spacing" textLength="118" x="56" y="420.3467">ConceptInstance</text><line style="stroke:#000000;stroke-width:0.5;" x1="28" x2="176" y1="431.5" y2="431.5"/></g></a><!--MD5=[03541eacc58da9eb05859a474e5e3193]
class ConceptTypeAssertion--><a href="#ConceptTypeAssertion" target="_top" title="#ConceptTypeAssertion" xlink:actuate="onRequest" xlink:href="#ConceptTypeAssertion" xlink:show="new" xlink:title="#ConceptTypeAssertion" xlink:type="simple"><g ><rect codeLine="8" fill="#D3D3D3" height="32"  rx="2.5" ry="2.5" style="stroke:#000000;stroke-width:0.5;" width="190" x="7" y="533"/><ellipse cx="22" cy="549" fill="#ADD1B2" rx="11" ry="11" style="stroke:#181818;stroke-width:1.0;"/><path d="M24.9688,554.6406 Q24.3906,554.9375 23.75,555.0781 Q23.1094,555.2344 22.4063,555.2344 Q19.9063,555.2344 18.5781,553.5938 Q17.2656,551.9375 17.2656,548.8125 Q17.2656,545.6875 18.5781,544.0313 Q19.9063,542.375 22.4063,542.375 Q23.1094,542.375 23.75,542.5313 Q24.4063,542.6875 24.9688,542.9844 L24.9688,545.7031 Q24.3438,545.125 23.75,544.8594 Q23.1563,544.5781 22.5313,544.5781 Q21.1875,544.5781 20.5,545.6563 Q19.8125,546.7188 19.8125,548.8125 Q19.8125,550.9063 20.5,551.9844 Q21.1875,553.0469 22.5313,553.0469 Q23.1563,553.0469 23.75,552.7813 Q24.3438,552.5 24.9688,551.9219 L24.9688,554.6406 Z " fill="#000000"/><text fill="#000000" font-family="sans-serif" font-size="14" lengthAdjust="spacing" textLength="158" x="36" y="553.8467">ConceptTypeAssertion</text></g></a><!--MD5=[8b44ae978416842b2af96e0d240d76a4]
class NamedInstance--><a href="#NamedInstance" target="_top" title="#NamedInstance" xlink:actuate="onRequest" xlink:href="#NamedInstance" xlink:show="new" xlink:title="#NamedInstance" xlink:type="simple"><g ><rect codeLine="20" fill="#FFFFFF" height="40"  rx="2.5" ry="2.5" style="stroke:#000000;stroke-width:0.5;" width="140" x="204" y="241.5"/><ellipse cx="219" cy="257.5" fill="#A9DCDF" rx="11" ry="11" style="stroke:#181818;stroke-width:1.0;"/><path d="M219.1094,252.8438 L217.9531,257.9219 L220.2813,257.9219 L219.1094,252.8438 Z M217.625,250.6094 L220.6094,250.6094 L223.9688,263 L221.5156,263 L220.75,259.9375 L217.4688,259.9375 L216.7188,263 L214.2813,263 L217.625,250.6094 Z " fill="#000000"/><text fill="#000000" font-family="sans-serif" font-size="14" font-style="italic" lengthAdjust="spacing" textLength="108" x="233" y="262.3467">NamedInstance</text><line style="stroke:#000000;stroke-width:0.5;" x1="205" x2="343" y1="273.5" y2="273.5"/></g></a><!--MD5=[dbfd7680984eb54d794e10dee7f3936a]
class Instance--><a href="#Instance" target="_top" title="#Instance" xlink:actuate="onRequest" xlink:href="#Instance" xlink:show="new" xlink:title="#Instance" xlink:type="simple"><g ><rect codeLine="12" fill="#FFFFFF" height="40"  rx="2.5" ry="2.5" style="stroke:#000000;stroke-width:0.5;" width="91" x="430.5" y="100"/><ellipse cx="445.5" cy="116" fill="#A9DCDF" rx="11" ry="11" style="stroke:#181818;stroke-width:1.0;"/><path d="M445.6094,111.3438 L444.4531,116.4219 L446.7813,116.4219 L445.6094,111.3438 Z M444.125,109.1094 L447.1094,109.1094 L450.4688,121.5 L448.0156,121.5 L447.25,118.4375 L443.9688,118.4375 L443.2188,121.5 L440.7813,121.5 L444.125,109.1094 Z " fill="#000000"/><text fill="#000000" font-family="sans-serif" font-size="14" font-style="italic" lengthAdjust="spacing" textLength="59" x="459.5" y="120.8467">Instance</text><line style="stroke:#000000;stroke-width:0.5;" x1="431.5" x2="520.5" y1="132" y2="132"/></g></a><!--MD5=[95174e42ee347a14b6cb78d6855f19b5]
class Element--><a href="#Element" target="_top" title="#Element" xlink:actuate="onRequest" xlink:href="#Element" xlink:show="new" xlink:title="#Element" xlink:type="simple"><g ><rect codeLine="14" fill="#D3D3D3" height="32"  rx="2.5" ry="2.5" style="stroke:#000000;stroke-width:0.5;" width="89" x="431.5" y="7"/><ellipse cx="446.5" cy="23" fill="#A9DCDF" rx="11" ry="11" style="stroke:#181818;stroke-width:1.0;"/><path d="M446.6094,18.3438 L445.4531,23.4219 L447.7813,23.4219 L446.6094,18.3438 Z M445.125,16.1094 L448.1094,16.1094 L451.4688,28.5 L449.0156,28.5 L448.25,25.4375 L444.9688,25.4375 L444.2188,28.5 L441.7813,28.5 L445.125,16.1094 Z " fill="#000000"/><text fill="#000000" font-family="sans-serif" font-size="14" font-style="italic" lengthAdjust="spacing" textLength="57" x="460.5" y="27.8467">Element</text></g></a><!--MD5=[6d0a02ee44a7895dbe334527783d800c]
class PropertyValueAssertion--><a href="#PropertyValueAssertion" target="_top" title="#PropertyValueAssertion" xlink:actuate="onRequest" xlink:href="#PropertyValueAssertion" xlink:show="new" xlink:title="#PropertyValueAssertion" xlink:type="simple"><g ><rect codeLine="16" fill="#D3D3D3" height="32"  rx="2.5" ry="2.5" style="stroke:#000000;stroke-width:0.5;" width="193" x="379.5" y="245.5"/><ellipse cx="394.5" cy="261.5" fill="#A9DCDF" rx="11" ry="11" style="stroke:#181818;stroke-width:1.0;"/><path d="M394.6094,256.8438 L393.4531,261.9219 L395.7813,261.9219 L394.6094,256.8438 Z M393.125,254.6094 L396.1094,254.6094 L399.4688,267 L397.0156,267 L396.25,263.9375 L392.9688,263.9375 L392.2188,267 L389.7813,267 L393.125,254.6094 Z " fill="#000000"/><text fill="#000000" font-family="sans-serif" font-size="14" font-style="italic" lengthAdjust="spacing" textLength="161" x="408.5" y="266.3467">PropertyValueAssertion</text></g></a><!--MD5=[f58fd777f29c17413488bea9e7cfcca3]
class Member--><a href="#Member" target="_top" title="#Member" xlink:actuate="onRequest" xlink:href="#Member" xlink:show="new" xlink:title="#Member" xlink:type="simple"><g ><rect codeLine="22" fill="#D3D3D3" height="32"  rx="2.5" ry="2.5" style="stroke:#000000;stroke-width:0.5;" width="89" x="268.5" y="104"/><ellipse cx="283.5" cy="120" fill="#A9DCDF" rx="11" ry="11" style="stroke:#181818;stroke-width:1.0;"/><path d="M283.6094,115.3438 L282.4531,120.4219 L284.7813,120.4219 L283.6094,115.3438 Z M282.125,113.1094 L285.1094,113.1094 L288.4688,125.5 L286.0156,125.5 L285.25,122.4375 L281.9688,122.4375 L281.2188,125.5 L278.7813,125.5 L282.125,113.1094 Z " fill="#000000"/><text fill="#000000" font-family="sans-serif" font-size="14" font-style="italic" lengthAdjust="spacing" textLength="57" x="297.5" y="124.8467">Member</text></g></a><!--MD5=[7fd9f8b5a256c0fcfd7e466c0d831b0f]
class DescriptionStatement--><a href="#DescriptionStatement" target="_top" title="#DescriptionStatement" xlink:actuate="onRequest" xlink:href="#DescriptionStatement" xlink:show="new" xlink:title="#DescriptionStatement" xlink:type="simple"><g ><rect codeLine="24" fill="#D3D3D3" height="32"  rx="2.5" ry="2.5" style="stroke:#000000;stroke-width:0.5;" width="183" x="50.5" y="104"/><ellipse cx="65.5" cy="120" fill="#A9DCDF" rx="11" ry="11" style="stroke:#181818;stroke-width:1.0;"/><path d="M65.6094,115.3438 L64.4531,120.4219 L66.7813,120.4219 L65.6094,115.3438 Z M64.125,113.1094 L67.1094,113.1094 L70.4688,125.5 L68.0156,125.5 L67.25,122.4375 L63.9688,122.4375 L63.2188,125.5 L60.7813,125.5 L64.125,113.1094 Z " fill="#000000"/><text fill="#000000" font-family="sans-serif" font-size="14" font-style="italic" lengthAdjust="spacing" textLength="151" x="79.5" y="124.8467">DescriptionStatement</text></g></a><!--MD5=[1d4c83110fab86e623c5cd99c66ce333]
class LinkAssertion--><a href="#LinkAssertion" target="_top" title="#LinkAssertion" xlink:actuate="onRequest" xlink:href="#LinkAssertion" xlink:show="new" xlink:title="#LinkAssertion" xlink:type="simple"><g ><rect codeLine="26" fill="#D3D3D3" height="32"  rx="2.5" ry="2.5" style="stroke:#000000;stroke-width:0.5;" width="124" x="212" y="403.5"/><ellipse cx="227" cy="419.5" fill="#ADD1B2" rx="11" ry="11" style="stroke:#181818;stroke-width:1.0;"/><path d="M229.9688,425.1406 Q229.3906,425.4375 228.75,425.5781 Q228.1094,425.7344 227.4063,425.7344 Q224.9063,425.7344 223.5781,424.0938 Q222.2656,422.4375 222.2656,419.3125 Q222.2656,416.1875 223.5781,414.5313 Q224.9063,412.875 227.4063,412.875 Q228.1094,412.875 228.75,413.0313 Q229.4063,413.1875 229.9688,413.4844 L229.9688,416.2031 Q229.3438,415.625 228.75,415.3594 Q228.1563,415.0781 227.5313,415.0781 Q226.1875,415.0781 225.5,416.1563 Q224.8125,417.2188 224.8125,419.3125 Q224.8125,421.4063 225.5,422.4844 Q226.1875,423.5469 227.5313,423.5469 Q228.1563,423.5469 228.75,423.2813 Q229.3438,423 229.9688,422.4219 L229.9688,425.1406 Z " fill="#000000"/><text fill="#000000" font-family="sans-serif" font-size="14" lengthAdjust="spacing" textLength="92" x="241" y="424.3467">LinkAssertion</text></g></a><!--MD5=[053f99caad121b701c3c19776ce91cf3]
class RelationInstance--><a href="#RelationInstance" target="_top" title="#RelationInstance" xlink:actuate="onRequest" xlink:href="#RelationInstance" xlink:show="new" xlink:title="#RelationInstance" xlink:type="simple"><g ><rect codeLine="32" fill="#FFFFFF" height="72.5938"  rx="2.5" ry="2.5" style="stroke:#000000;stroke-width:0.5;" width="210" x="371" y="383"/><ellipse cx="414.35" cy="399" fill="#ADD1B2" rx="11" ry="11" style="stroke:#181818;stroke-width:1.0;"/><path d="M417.3188,404.6406 Q416.7406,404.9375 416.1,405.0781 Q415.4594,405.2344 414.7563,405.2344 Q412.2563,405.2344 410.9281,403.5938 Q409.6156,401.9375 409.6156,398.8125 Q409.6156,395.6875 410.9281,394.0313 Q412.2563,392.375 414.7563,392.375 Q415.4594,392.375 416.1,392.5313 Q416.7563,392.6875 417.3188,392.9844 L417.3188,395.7031 Q416.6938,395.125 416.1,394.8594 Q415.5063,394.5781 414.8813,394.5781 Q413.5375,394.5781 412.85,395.6563 Q412.1625,396.7188 412.1625,398.8125 Q412.1625,400.9063 412.85,401.9844 Q413.5375,403.0469 414.8813,403.0469 Q415.5063,403.0469 416.1,402.7813 Q416.6938,402.5 417.3188,401.9219 L417.3188,404.6406 Z " fill="#000000"/><text fill="#000000" font-family="sans-serif" font-size="14" lengthAdjust="spacing" textLength="115" x="434.65" y="403.8467">RelationInstance</text><line style="stroke:#000000;stroke-width:0.5;" x1="372" x2="580" y1="415" y2="415"/><text fill="#000000" font-family="sans-serif" font-size="14" lengthAdjust="spacing" textLength="198" x="377" y="431.9951">sources : NamedInstance [*]</text><text fill="#000000" font-family="sans-serif" font-size="14" lengthAdjust="spacing" textLength="191" x="377" y="448.292">targets : NamedInstance [*]</text></g></a><!--MD5=[e53970aaa929ddb260a07d7f00a7515f]
class RelationTypeAssertion--><a href="#RelationTypeAssertion" target="_top" title="#RelationTypeAssertion" xlink:actuate="onRequest" xlink:href="#RelationTypeAssertion" xlink:show="new" xlink:title="#RelationTypeAssertion" xlink:type="simple"><g ><rect codeLine="36" fill="#D3D3D3" height="32"  rx="2.5" ry="2.5" style="stroke:#000000;stroke-width:0.5;" width="187" x="382.5" y="533"/><ellipse cx="397.5" cy="549" fill="#ADD1B2" rx="11" ry="11" style="stroke:#181818;stroke-width:1.0;"/><path d="M400.4688,554.6406 Q399.8906,554.9375 399.25,555.0781 Q398.6094,555.2344 397.9063,555.2344 Q395.4063,555.2344 394.0781,553.5938 Q392.7656,551.9375 392.7656,548.8125 Q392.7656,545.6875 394.0781,544.0313 Q395.4063,542.375 397.9063,542.375 Q398.6094,542.375 399.25,542.5313 Q399.9063,542.6875 400.4688,542.9844 L400.4688,545.7031 Q399.8438,545.125 399.25,544.8594 Q398.6563,544.5781 398.0313,544.5781 Q396.6875,544.5781 396,545.6563 Q395.3125,546.7188 395.3125,548.8125 Q395.3125,550.9063 396,551.9844 Q396.6875,553.0469 398.0313,553.0469 Q398.6563,553.0469 399.25,552.7813 Q399.8438,552.5 400.4688,551.9219 L400.4688,554.6406 Z " fill="#000000"/><text fill="#000000" font-family="sans-serif" font-size="14" lengthAdjust="spacing" textLength="155" x="411.5" y="553.8467">RelationTypeAssertion</text></g></a><!--MD5=[0b2f13c70971adaa910dfa4227793f6d]
class StructureInstance--><a href="#StructureInstance" target="_top" title="#StructureInstance" xlink:actuate="onRequest" xlink:href="#StructureInstance" xlink:show="new" xlink:title="#StructureInstance" xlink:type="simple"><g ><rect codeLine="40" fill="#FFFFFF" height="88.8906"  rx="2.5" ry="2.5" style="stroke:#000000;stroke-width:0.5;" width="440" x="608" y="217"/><ellipse cx="762.25" cy="233" fill="#ADD1B2" rx="11" ry="11" style="stroke:#181818;stroke-width:1.0;"/><path d="M765.2188,238.6406 Q764.6406,238.9375 764,239.0781 Q763.3594,239.2344 762.6563,239.2344 Q760.1563,239.2344 758.8281,237.5938 Q757.5156,235.9375 757.5156,232.8125 Q757.5156,229.6875 758.8281,228.0313 Q760.1563,226.375 762.6563,226.375 Q763.3594,226.375 764,226.5313 Q764.6563,226.6875 765.2188,226.9844 L765.2188,229.7031 Q764.5938,229.125 764,228.8594 Q763.4063,228.5781 762.7813,228.5781 Q761.4375,228.5781 760.75,229.6563 Q760.0625,230.7188 760.0625,232.8125 Q760.0625,234.9063 760.75,235.9844 Q761.4375,237.0469 762.7813,237.0469 Q763.4063,237.0469 764,236.7813 Q764.5938,236.5 765.2188,235.9219 L765.2188,238.6406 Z " fill="#000000"/><text fill="#000000" font-family="sans-serif" font-size="14" lengthAdjust="spacing" textLength="123" x="782.75" y="237.8467">StructureInstance</text><line style="stroke:#000000;stroke-width:0.5;" x1="609" x2="1047" y1="249" y2="249"/><text fill="#000000" font-family="sans-serif" font-size="14" lengthAdjust="spacing" textLength="130" x="614" y="265.9951">type : Structure [1]</text><text fill="#000000" font-family="sans-serif" font-size="14" lengthAdjust="spacing" textLength="428" x="614" y="282.292">owningAxiom : StructuredPropertyValueRestrictionAxiom [0..1]</text><text fill="#000000" font-family="sans-serif" font-size="14" lengthAdjust="spacing" textLength="402" x="614" y="298.5889">owningAssertion : StructuredPropertyValueAssertion [0..1]</text></g></a><!--MD5=[1c1434d90e23c339b3d591ac31258284]
reverse link NamedInstance to ConceptInstance--><g ><a href="#NamedInstance" target="_top" title="#NamedInstance" xlink:actuate="onRequest" xlink:href="#NamedInstance" xlink:show="new" xlink:title="#NamedInstance" xlink:type="simple"><path codeLine="10" d="M237.77,295.36 C202.945,326.945 151.518,373.589 122.994,399.459 " fill="none"  style="stroke:#000000;stroke-width:1.0;"/><polygon fill="none" points="233.392,289.88,252.909,281.629,242.798,300.25,233.392,289.88" style="stroke:#000000;stroke-width:1.0;"/></a></g><!--MD5=[871de01d74c748fc4f4a83bcceebbb31]
link ConceptInstance to ConceptTypeAssertion--><g ><path codeLine="11" d="M102,451.588 C102,451.588 102,499.9065 102,519.721 " fill="none"  style="stroke:#000000;stroke-width:1.0;"/><polygon fill="#000000" points="102,532.7837,106,523.7837,102,527.7837,98,523.7837,102,532.7837" style="stroke:#000000;stroke-width:1.0;"/><line style="stroke:#000000;stroke-width:1.0;" x1="102" x2="102.0001" y1="527.7837" y2="519.7837"/><polygon fill="#000000" points="102,439.588,98,445.588,102,451.588,106,445.588,102,439.588" style="stroke:#000000;stroke-width:1.0;"/><text fill="#000000" font-family="sans-serif" font-size="13" lengthAdjust="spacing" textLength="78" x="103" y="499.0669">ownedTypes</text><text fill="#000000" font-family="sans-serif" font-size="13" lengthAdjust="spacing" textLength="7" x="93.8406" y="522.0166">*</text></g><!--MD5=[fc6209097715aeabb754f46301d46c5f]
reverse link Element to Instance--><g ><a href="#Element" target="_top" title="#Element" xlink:actuate="onRequest" xlink:href="#Element" xlink:show="new" xlink:title="#Element" xlink:type="simple"><path codeLine="18" d="M476,59.472 C476,73.156 476,88.266 476,99.838 " fill="none"  style="stroke:#000000;stroke-width:1.0;"/><polygon fill="none" points="469,59.263,476,39.263,483,59.263,469,59.263" style="stroke:#000000;stroke-width:1.0;"/></a></g><!--MD5=[64667091ea42c9765ca5cac727ec9674]
link Instance to PropertyValueAssertion--><g ><path codeLine="19" d="M476,152.104 C476,152.104 476,209.383 476,232.274 " fill="none"  style="stroke:#000000;stroke-width:1.0;"/><polygon fill="#000000" points="476,245.468,480,236.468,476,240.468,472,236.468,476,245.468" style="stroke:#000000;stroke-width:1.0;"/><line style="stroke:#000000;stroke-width:1.0;" x1="476" x2="476" y1="240.468" y2="232.468"/><polygon fill="#000000" points="476,140.104,472,146.104,476,152.104,480,146.104,476,140.104" style="stroke:#000000;stroke-width:1.0;"/><text fill="#000000" font-family="sans-serif" font-size="13" lengthAdjust="spacing" textLength="138" x="477" y="183.0669">ownedPropertyValues</text><text fill="#000000" font-family="sans-serif" font-size="13" lengthAdjust="spacing" textLength="7" x="467.7969" y="234.4686">*</text></g><!--MD5=[bd9da2e95824ae3eda044452d04db0d0]
reverse link Member to NamedInstance--><g ><a href="#Member" target="_top" title="#Member" xlink:actuate="onRequest" xlink:href="#Member" xlink:show="new" xlink:title="#Member" xlink:type="simple"><path codeLine="28" d="M303.277,155.779 C295.716,182.823 285.51,219.331 279.36,241.326 " fill="none"  style="stroke:#000000;stroke-width:1.0;"/><polygon fill="none" points="296.626,153.571,308.752,136.195,310.109,157.341,296.626,153.571" style="stroke:#000000;stroke-width:1.0;"/></a></g><!--MD5=[37b772948c4ae55209ad7ea83efa8939]
reverse link Instance to NamedInstance--><g ><a href="#Instance" target="_top" title="#Instance" xlink:actuate="onRequest" xlink:href="#Instance" xlink:show="new" xlink:title="#Instance" xlink:type="simple"><path codeLine="29" d="M431.741,151.565 C392.092,178.946 335.175,218.253 301.653,241.403 " fill="none"  style="stroke:#000000;stroke-width:1.0;"/><polygon fill="none" points="427.901,145.71,448.336,140.104,435.857,157.23,427.901,145.71" style="stroke:#000000;stroke-width:1.0;"/></a></g><!--MD5=[5540b512a53bc9c0895778b2307c2541]
reverse link DescriptionStatement to NamedInstance--><g ><a href="#DescriptionStatement" target="_top" title="#DescriptionStatement" xlink:actuate="onRequest" xlink:href="#DescriptionStatement" xlink:show="new" xlink:title="#DescriptionStatement" xlink:type="simple"><path codeLine="30" d="M170.426,151.041 C196.326,178.412 233.802,218.018 255.857,241.326 " fill="none"  style="stroke:#000000;stroke-width:1.0;"/><polygon fill="none" points="165.039,155.533,156.378,136.195,175.208,145.911,165.039,155.533" style="stroke:#000000;stroke-width:1.0;"/></a></g><!--MD5=[2650f3923582a09573cabe45df86fd67]
link NamedInstance to LinkAssertion--><g ><path codeLine="31" d="M274,293.629 C274,293.629 274,363.468 274,390.381 " fill="none"  style="stroke:#000000;stroke-width:1.0;"/><polygon fill="#000000" points="274,403.418,278,394.418,274,398.418,270,394.418,274,403.418" style="stroke:#000000;stroke-width:1.0;"/><line style="stroke:#000000;stroke-width:1.0;" x1="274" x2="274" y1="398.418" y2="390.418"/><polygon fill="#000000" points="274,281.629,270,287.629,274,293.629,278,287.629,274,281.629" style="stroke:#000000;stroke-width:1.0;"/><text fill="#000000" font-family="sans-serif" font-size="13" lengthAdjust="spacing" textLength="73" x="275" y="349.0669">ownedLinks</text><text fill="#000000" font-family="sans-serif" font-size="13" lengthAdjust="spacing" textLength="7" x="265.7969" y="392.4014">*</text></g><!--MD5=[4fcbe9e3882b3ec34eb83034c6ebaba7]
reverse link NamedInstance to RelationInstance--><g ><a href="#NamedInstance" target="_top" title="#NamedInstance" xlink:actuate="onRequest" xlink:href="#NamedInstance" xlink:show="new" xlink:title="#NamedInstance" xlink:type="simple"><path codeLine="38" d="M314.797,294.006 C348.11,319.733 395.181,356.086 429.863,382.869 " fill="none"  style="stroke:#000000;stroke-width:1.0;"/><polygon fill="none" points="310.32,299.393,298.769,281.629,318.877,288.313,310.32,299.393" style="stroke:#000000;stroke-width:1.0;"/></a></g><!--MD5=[e65165174ae4f38588e6ae7c94ec53f6]
link RelationInstance to RelationTypeAssertion--><g ><path codeLine="39" d="M476,468.016 C476,468.016 476,504.8276 476,519.6175 " fill="none"  style="stroke:#000000;stroke-width:1.0;"/><polygon fill="#000000" points="476,532.9756,480,523.9756,476,527.9756,472,523.9756,476,532.9756" style="stroke:#000000;stroke-width:1.0;"/><line style="stroke:#000000;stroke-width:1.0;" x1="476" x2="476" y1="527.9756" y2="519.9757"/><polygon fill="#000000" points="476,456.016,472,462.016,476,468.016,480,462.016,476,456.016" style="stroke:#000000;stroke-width:1.0;"/><text fill="#000000" font-family="sans-serif" font-size="13" lengthAdjust="spacing" textLength="78" x="477" y="499.0669">ownedTypes</text><text fill="#000000" font-family="sans-serif" font-size="13" lengthAdjust="spacing" textLength="7" x="467.7969" y="521.9788">*</text></g><!--MD5=[9dacfcaabec8872b27cbe6b973e572dc]
reverse link Instance to StructureInstance--><g ><a href="#Instance" target="_top" title="#Instance" xlink:actuate="onRequest" xlink:href="#Instance" xlink:show="new" xlink:title="#Instance" xlink:type="simple"><path codeLine="45" d="M541.136,141.045 C567.117,149.435 597.172,159.637 624,170 C660.775,184.206 700.544,201.416 735.117,216.998 " fill="none"  style="stroke:#000000;stroke-width:1.0;"/><polygon fill="none" points="538.684,147.611,521.75,134.874,542.931,134.27,538.684,147.611" style="stroke:#000000;stroke-width:1.0;"/></a></g><!--MD5=[7433f9c04d0b8b7de2d1f8713472f768]
@startuml
skinparam classBackgroundColor LightGray
skinparam classBorderColor Black
skinparam enumBorderColor Black
skinparam ArrowColor Black
hide methods
class ConceptInstance [[#ConceptInstance]] #white {
}
class ConceptTypeAssertion [[#ConceptTypeAssertion]]
hide ConceptTypeAssertion members
ConceptInstance -up-|> NamedInstance [[#NamedInstance]]
ConceptInstance *- -> "*" ConceptTypeAssertion : ownedTypes
abstract class Instance [[#Instance]] #white {
}
abstract class Element [[#Element]]
hide Element members
abstract class PropertyValueAssertion [[#PropertyValueAssertion]]
hide PropertyValueAssertion members
Instance -up-|> Element [[#Element]]
Instance *- -> "*" PropertyValueAssertion : ownedPropertyValues
abstract class NamedInstance [[#NamedInstance]] #white {
}
abstract class Member [[#Member]]
hide Member members
abstract class DescriptionStatement [[#DescriptionStatement]]
hide DescriptionStatement members
class LinkAssertion [[#LinkAssertion]]
hide LinkAssertion members
NamedInstance -up-|> Member [[#Member]]
NamedInstance -up-|> Instance [[#Instance]]
NamedInstance -up-|> DescriptionStatement [[#DescriptionStatement]]
NamedInstance *- -> "*" LinkAssertion : ownedLinks
class RelationInstance [[#RelationInstance]] #white {
	sources : NamedInstance [*]
	targets : NamedInstance [*]
}
class RelationTypeAssertion [[#RelationTypeAssertion]]
hide RelationTypeAssertion members
RelationInstance -up-|> NamedInstance [[#NamedInstance]]
RelationInstance *- -> "*" RelationTypeAssertion : ownedTypes
class StructureInstance [[#StructureInstance]] #white {
	type : Structure [1]
	owningAxiom : StructuredPropertyValueRestrictionAxiom [0..1]
	owningAssertion : StructuredPropertyValueAssertion [0..1]
}
StructureInstance -up-|> Instance [[#Instance]]
@enduml

PlantUML version 1.2022.12(Sun Oct 23 18:12:26 UTC 2022)
(GPL source distribution)
Java Runtime: OpenJDK Runtime Environment
JVM: OpenJDK 64-Bit Server VM
Default Encoding: UTF-8
Language: en
Country: US
--></g></svg>
