<?xml version="1.0" encoding="UTF-8" standalone="no"?><svg xmlns="http://www.w3.org/2000/svg" xmlns:xlink="http://www.w3.org/1999/xlink" contentScriptType="application/ecmascript" contentStyleType="text/css" height="863px" preserveAspectRatio="none" style="width:2255px;height:863px;" version="1.1" viewBox="0 0 2255 863" width="2255px" zoomAndPan="magnify"><defs><filter height="300%" id="fjyooxrjaypxw" width="300%" x="-1" y="-1"><feGaussianBlur result="blurOut" stdDeviation="2.0"/><feColorMatrix in="blurOut" result="blurOut2" type="matrix" values="0 0 0 0 0 0 0 0 0 0 0 0 0 0 0 0 0 0 .4 0"/><feOffset dx="4.0" dy="4.0" in="blurOut2" result="blurOut3"/><feBlend in="SourceGraphic" in2="blurOut3" mode="normal"/></filter></defs><g><!--class Axiom--><a target="_top" xlink:actuate="onRequest" xlink:href="#Axiom" xlink:show="new" xlink:title="#Axiom" xlink:type="simple"><rect fill="#FFFFFF" filter="url(#fjyooxrjaypxw)" height="40"  style="stroke: #000000; stroke-width: 1.5;" width="68" x="1658" y="147"/><rect fill="#FFFFFF" height="32" style="stroke: #000000; stroke-width: 1.5;" width="68" x="1658" y="147"/><ellipse cx="1673" cy="163" fill="#A9DCDF" rx="11" ry="11" style="stroke: #000000; stroke-width: 1.0;"/><path d="M1673.1094,158.3438 L1671.9531,163.4219 L1674.2813,163.4219 L1673.1094,158.3438 Z M1671.625,156.1094 L1674.6094,156.1094 L1677.9688,168.5 L1675.5156,168.5 L1674.75,165.4375 L1671.4688,165.4375 L1670.7188,168.5 L1668.2813,168.5 L1671.625,156.1094 Z "/><text fill="#000000" font-family="sans-serif" font-size="12" font-style="italic" lengthAdjust="spacingAndGlyphs" textLength="36" x="1687" y="167.1543">Axiom</text><line style="stroke: #000000; stroke-width: 1.5;" x1="1659" x2="1725" y1="179" y2="179"/></a><!--class Element--><a target="_top" xlink:actuate="onRequest" xlink:href="#Element" xlink:show="new" xlink:title="#Element" xlink:type="simple"><rect fill="#D3D3D3" filter="url(#fjyooxrjaypxw)" height="32"  style="stroke: #000000; stroke-width: 1.5;" width="83" x="1650.5" y="31"/><ellipse cx="1665.5" cy="47" fill="#A9DCDF" rx="11" ry="11" style="stroke: #000000; stroke-width: 1.0;"/><path d="M1665.6094,42.3438 L1664.4531,47.4219 L1666.7813,47.4219 L1665.6094,42.3438 Z M1664.125,40.1094 L1667.1094,40.1094 L1670.4688,52.5 L1668.0156,52.5 L1667.25,49.4375 L1663.9688,49.4375 L1663.2188,52.5 L1660.7813,52.5 L1664.125,40.1094 Z "/><text fill="#000000" font-family="sans-serif" font-size="12" font-style="italic" lengthAdjust="spacingAndGlyphs" textLength="51" x="1679.5" y="51.1543">Element</text></a><!--class CardinalityRestrictionKind--><a target="_top" xlink:actuate="onRequest" xlink:href="#CardinalityRestrictionKind" xlink:show="new" xlink:title="#CardinalityRestrictionKind" xlink:type="simple"><rect fill="#FFFFFF" filter="url(#fjyooxrjaypxw)" height="78.4141"  style="stroke: #000000; stroke-width: 1.5;" width="190" x="1769" y="8"/><rect fill="#FFFFFF" height="32" style="stroke: #000000; stroke-width: 1.5;" width="190" x="1769" y="8"/><ellipse cx="1784" cy="24" fill="#EB937F" rx="11" ry="11" style="stroke: #000000; stroke-width: 1.0;"/><path d="M1788.1094,30 L1780.3906,30 L1780.3906,17.6094 L1788.1094,17.6094 L1788.1094,19.7656 L1782.8438,19.7656 L1782.8438,22.4375 L1787.6094,22.4375 L1787.6094,24.5938 L1782.8438,24.5938 L1782.8438,27.8438 L1788.1094,27.8438 L1788.1094,30 Z "/><text fill="#000000" font-family="sans-serif" font-size="12" lengthAdjust="spacingAndGlyphs" textLength="158" x="1798" y="28.1543">CardinalityRestrictionKind</text><line style="stroke: #000000; stroke-width: 1.5;" x1="1770" x2="1958" y1="40" y2="40"/><text fill="#000000" font-family="sans-serif" font-size="11" lengthAdjust="spacingAndGlyphs" textLength="39" x="1775" y="54.2104">exactly</text><text fill="#000000" font-family="sans-serif" font-size="11" lengthAdjust="spacingAndGlyphs" textLength="21" x="1775" y="67.0151">min</text><text fill="#000000" font-family="sans-serif" font-size="11" lengthAdjust="spacingAndGlyphs" textLength="24" x="1775" y="79.8198">max</text></a><!--class KeyAxiom--><a target="_top" xlink:actuate="onRequest" xlink:href="#KeyAxiom" xlink:show="new" xlink:title="#KeyAxiom" xlink:type="simple"><rect fill="#FFFFFF" filter="url(#fjyooxrjaypxw)" height="78.4141"  style="stroke: #000000; stroke-width: 1.5;" width="243" x="1570.5" y="248"/><rect fill="#FFFFFF" height="32" style="stroke: #000000; stroke-width: 1.5;" width="243" x="1570.5" y="248"/><ellipse cx="1659.25" cy="264" fill="#ADD1B2" rx="11" ry="11" style="stroke: #000000; stroke-width: 1.0;"/><path d="M1662.2188,269.6406 Q1661.6406,269.9375 1661,270.0781 Q1660.3594,270.2344 1659.6563,270.2344 Q1657.1563,270.2344 1655.8281,268.5938 Q1654.5156,266.9375 1654.5156,263.8125 Q1654.5156,260.6875 1655.8281,259.0313 Q1657.1563,257.375 1659.6563,257.375 Q1660.3594,257.375 1661,257.5313 Q1661.6563,257.6875 1662.2188,257.9844 L1662.2188,260.7031 Q1661.5938,260.125 1661,259.8594 Q1660.4063,259.5781 1659.7813,259.5781 Q1658.4375,259.5781 1657.75,260.6563 Q1657.0625,261.7188 1657.0625,263.8125 Q1657.0625,265.9063 1657.75,266.9844 Q1658.4375,268.0469 1659.7813,268.0469 Q1660.4063,268.0469 1661,267.7813 Q1661.5938,267.5 1662.2188,266.9219 L1662.2188,269.6406 Z "/><text fill="#000000" font-family="sans-serif" font-size="12" lengthAdjust="spacingAndGlyphs" textLength="57" x="1679.75" y="268.1543">KeyAxiom</text><line style="stroke: #000000; stroke-width: 1.5;" x1="1571.5" x2="1812.5" y1="280" y2="280"/><text fill="#000000" font-family="sans-serif" font-size="11" lengthAdjust="spacingAndGlyphs" textLength="173" x="1576.5" y="294.2104">properties : ScalarProperty [*]</text><text fill="#000000" font-family="sans-serif" font-size="11" lengthAdjust="spacingAndGlyphs" textLength="148" x="1576.5" y="307.0151">owningEntity : Entity [0..1]</text><text fill="#000000" font-family="sans-serif" font-size="11" lengthAdjust="spacingAndGlyphs" textLength="231" x="1576.5" y="319.8198">owningReference : EntityReference [0..1]</text></a><!--class PropertyRestrictionAxiom--><a target="_top" xlink:actuate="onRequest" xlink:href="#PropertyRestrictionAxiom" xlink:show="new" xlink:title="#PropertyRestrictionAxiom" xlink:type="simple"><rect fill="#FFFFFF" filter="url(#fjyooxrjaypxw)" height="65.6094"  style="stroke: #000000; stroke-width: 1.5;" width="266" x="1188" y="393"/><rect fill="#FFFFFF" height="32" style="stroke: #000000; stroke-width: 1.5;" width="266" x="1188" y="393"/><ellipse cx="1238.75" cy="409" fill="#A9DCDF" rx="11" ry="11" style="stroke: #000000; stroke-width: 1.0;"/><path d="M1238.8594,404.3438 L1237.7031,409.4219 L1240.0313,409.4219 L1238.8594,404.3438 Z M1237.375,402.1094 L1240.3594,402.1094 L1243.7188,414.5 L1241.2656,414.5 L1240.5,411.4375 L1237.2188,411.4375 L1236.4688,414.5 L1234.0313,414.5 L1237.375,402.1094 Z "/><text fill="#000000" font-family="sans-serif" font-size="12" font-style="italic" lengthAdjust="spacingAndGlyphs" textLength="156" x="1259.25" y="413.1543">PropertyRestrictionAxiom</text><line style="stroke: #000000; stroke-width: 1.5;" x1="1189" x2="1453" y1="425" y2="425"/><text fill="#000000" font-family="sans-serif" font-size="11" lengthAdjust="spacingAndGlyphs" textLength="194" x="1194" y="439.2104">owningClassifier : Classifier [0..1]</text><text fill="#000000" font-family="sans-serif" font-size="11" lengthAdjust="spacingAndGlyphs" textLength="254" x="1194" y="452.0151">owningReference : ClassifierReference [0..1]</text></a><!--class RestrictionAxiom--><a target="_top" xlink:actuate="onRequest" xlink:href="#RestrictionAxiom" xlink:show="new" xlink:title="#RestrictionAxiom" xlink:type="simple"><rect fill="#FFFFFF" filter="url(#fjyooxrjaypxw)" height="40"  style="stroke: #000000; stroke-width: 1.5;" width="135" x="1400.5" y="267"/><rect fill="#FFFFFF" height="32" style="stroke: #000000; stroke-width: 1.5;" width="135" x="1400.5" y="267"/><ellipse cx="1415.5" cy="283" fill="#A9DCDF" rx="11" ry="11" style="stroke: #000000; stroke-width: 1.0;"/><path d="M1415.6094,278.3438 L1414.4531,283.4219 L1416.7813,283.4219 L1415.6094,278.3438 Z M1414.125,276.1094 L1417.1094,276.1094 L1420.4688,288.5 L1418.0156,288.5 L1417.25,285.4375 L1413.9688,285.4375 L1413.2188,288.5 L1410.7813,288.5 L1414.125,276.1094 Z "/><text fill="#000000" font-family="sans-serif" font-size="12" font-style="italic" lengthAdjust="spacingAndGlyphs" textLength="103" x="1429.5" y="287.1543">RestrictionAxiom</text><line style="stroke: #000000; stroke-width: 1.5;" x1="1401.5" x2="1534.5" y1="299" y2="299"/></a><!--class RangeRestrictionKind--><a target="_top" xlink:actuate="onRequest" xlink:href="#RangeRestrictionKind" xlink:show="new" xlink:title="#RangeRestrictionKind" xlink:type="simple"><rect fill="#FFFFFF" filter="url(#fjyooxrjaypxw)" height="65.6094"  style="stroke: #000000; stroke-width: 1.5;" width="165" x="1994.5" y="14"/><rect fill="#FFFFFF" height="32" style="stroke: #000000; stroke-width: 1.5;" width="165" x="1994.5" y="14"/><ellipse cx="2009.5" cy="30" fill="#EB937F" rx="11" ry="11" style="stroke: #000000; stroke-width: 1.0;"/><path d="M2013.6094,36 L2005.8906,36 L2005.8906,23.6094 L2013.6094,23.6094 L2013.6094,25.7656 L2008.3438,25.7656 L2008.3438,28.4375 L2013.1094,28.4375 L2013.1094,30.5938 L2008.3438,30.5938 L2008.3438,33.8438 L2013.6094,33.8438 L2013.6094,36 Z "/><text fill="#000000" font-family="sans-serif" font-size="12" lengthAdjust="spacingAndGlyphs" textLength="133" x="2023.5" y="34.1543">RangeRestrictionKind</text><line style="stroke: #000000; stroke-width: 1.5;" x1="1995.5" x2="2158.5" y1="46" y2="46"/><text fill="#000000" font-family="sans-serif" font-size="11" lengthAdjust="spacingAndGlyphs" textLength="13" x="2000.5" y="60.2104">all</text><text fill="#000000" font-family="sans-serif" font-size="11" lengthAdjust="spacingAndGlyphs" textLength="32" x="2000.5" y="73.0151">some</text></a><!--class RelationCardinalityRestrictionAxiom--><a target="_top" xlink:actuate="onRequest" xlink:href="#RelationCardinalityRestrictionAxiom" xlink:show="new" xlink:title="#RelationCardinalityRestrictionAxiom" xlink:type="simple"><rect fill="#FFFFFF" filter="url(#fjyooxrjaypxw)" height="78.4141"  style="stroke: #000000; stroke-width: 1.5;" width="251" x="1469.5" y="526"/><rect fill="#FFFFFF" height="32" style="stroke: #000000; stroke-width: 1.5;" width="251" x="1469.5" y="526"/><ellipse cx="1484.5" cy="542" fill="#ADD1B2" rx="11" ry="11" style="stroke: #000000; stroke-width: 1.0;"/><path d="M1487.4688,547.6406 Q1486.8906,547.9375 1486.25,548.0781 Q1485.6094,548.2344 1484.9063,548.2344 Q1482.4063,548.2344 1481.0781,546.5938 Q1479.7656,544.9375 1479.7656,541.8125 Q1479.7656,538.6875 1481.0781,537.0313 Q1482.4063,535.375 1484.9063,535.375 Q1485.6094,535.375 1486.25,535.5313 Q1486.9063,535.6875 1487.4688,535.9844 L1487.4688,538.7031 Q1486.8438,538.125 1486.25,537.8594 Q1485.6563,537.5781 1485.0313,537.5781 Q1483.6875,537.5781 1483,538.6563 Q1482.3125,539.7188 1482.3125,541.8125 Q1482.3125,543.9063 1483,544.9844 Q1483.6875,546.0469 1485.0313,546.0469 Q1485.6563,546.0469 1486.25,545.7813 Q1486.8438,545.5 1487.4688,544.9219 L1487.4688,547.6406 Z "/><text fill="#000000" font-family="sans-serif" font-size="12" lengthAdjust="spacingAndGlyphs" textLength="219" x="1498.5" y="546.1543">RelationCardinalityRestrictionAxiom</text><line style="stroke: #000000; stroke-width: 1.5;" x1="1470.5" x2="1719.5" y1="558" y2="558"/><text fill="#000000" font-family="sans-serif" font-size="11" lengthAdjust="spacingAndGlyphs" textLength="137" x="1475.5" y="572.2104">cardinality : UnsignedInt</text><text fill="#000000" font-family="sans-serif" font-size="11" lengthAdjust="spacingAndGlyphs" textLength="179" x="1475.5" y="585.0151">kind : CardinalityRestrictionKind</text><text fill="#000000" font-family="sans-serif" font-size="11" lengthAdjust="spacingAndGlyphs" textLength="110" x="1475.5" y="597.8198">range : Entity [0..1]</text></a><!--class RelationRestrictionAxiom--><a target="_top" xlink:actuate="onRequest" xlink:href="#RelationRestrictionAxiom" xlink:show="new" xlink:title="#RelationRestrictionAxiom" xlink:type="simple"><rect fill="#FFFFFF" filter="url(#fjyooxrjaypxw)" height="78.4141"  style="stroke: #000000; stroke-width: 1.5;" width="243" x="1684.5" y="387"/><rect fill="#FFFFFF" height="32" style="stroke: #000000; stroke-width: 1.5;" width="243" x="1684.5" y="387"/><ellipse cx="1725.15" cy="403" fill="#A9DCDF" rx="11" ry="11" style="stroke: #000000; stroke-width: 1.0;"/><path d="M1725.2594,398.3438 L1724.1031,403.4219 L1726.4313,403.4219 L1725.2594,398.3438 Z M1723.775,396.1094 L1726.7594,396.1094 L1730.1188,408.5 L1727.6656,408.5 L1726.9,405.4375 L1723.6188,405.4375 L1722.8688,408.5 L1720.4313,408.5 L1723.775,396.1094 Z "/><text fill="#000000" font-family="sans-serif" font-size="12" font-style="italic" lengthAdjust="spacingAndGlyphs" textLength="154" x="1744.85" y="407.1543">RelationRestrictionAxiom</text><line style="stroke: #000000; stroke-width: 1.5;" x1="1685.5" x2="1926.5" y1="419" y2="419"/><text fill="#000000" font-family="sans-serif" font-size="11" lengthAdjust="spacingAndGlyphs" textLength="119" x="1690.5" y="433.2104">relation : Relation [1]</text><text fill="#000000" font-family="sans-serif" font-size="11" lengthAdjust="spacingAndGlyphs" textLength="148" x="1690.5" y="446.0151">owningEntity : Entity [0..1]</text><text fill="#000000" font-family="sans-serif" font-size="11" lengthAdjust="spacingAndGlyphs" textLength="231" x="1690.5" y="458.8198">owningReference : EntityReference [0..1]</text></a><!--class RelationRangeRestrictionAxiom--><a target="_top" xlink:actuate="onRequest" xlink:href="#RelationRangeRestrictionAxiom" xlink:show="new" xlink:title="#RelationRangeRestrictionAxiom" xlink:type="simple"><rect fill="#FFFFFF" filter="url(#fjyooxrjaypxw)" height="65.6094"  style="stroke: #000000; stroke-width: 1.5;" width="226" x="1756" y="532"/><rect fill="#FFFFFF" height="32" style="stroke: #000000; stroke-width: 1.5;" width="226" x="1756" y="532"/><ellipse cx="1771" cy="548" fill="#ADD1B2" rx="11" ry="11" style="stroke: #000000; stroke-width: 1.0;"/><path d="M1773.9688,553.6406 Q1773.3906,553.9375 1772.75,554.0781 Q1772.1094,554.2344 1771.4063,554.2344 Q1768.9063,554.2344 1767.5781,552.5938 Q1766.2656,550.9375 1766.2656,547.8125 Q1766.2656,544.6875 1767.5781,543.0313 Q1768.9063,541.375 1771.4063,541.375 Q1772.1094,541.375 1772.75,541.5313 Q1773.4063,541.6875 1773.9688,541.9844 L1773.9688,544.7031 Q1773.3438,544.125 1772.75,543.8594 Q1772.1563,543.5781 1771.5313,543.5781 Q1770.1875,543.5781 1769.5,544.6563 Q1768.8125,545.7188 1768.8125,547.8125 Q1768.8125,549.9063 1769.5,550.9844 Q1770.1875,552.0469 1771.5313,552.0469 Q1772.1563,552.0469 1772.75,551.7813 Q1773.3438,551.5 1773.9688,550.9219 L1773.9688,553.6406 Z "/><text fill="#000000" font-family="sans-serif" font-size="12" lengthAdjust="spacingAndGlyphs" textLength="194" x="1785" y="552.1543">RelationRangeRestrictionAxiom</text><line style="stroke: #000000; stroke-width: 1.5;" x1="1757" x2="1981" y1="564" y2="564"/><text fill="#000000" font-family="sans-serif" font-size="11" lengthAdjust="spacingAndGlyphs" textLength="154" x="1762" y="578.2104">kind : RangeRestrictionKind</text><text fill="#000000" font-family="sans-serif" font-size="11" lengthAdjust="spacingAndGlyphs" textLength="95" x="1762" y="591.0151">range : Entity [1]</text></a><!--class RelationTargetRestrictionAxiom--><a target="_top" xlink:actuate="onRequest" xlink:href="#RelationTargetRestrictionAxiom" xlink:show="new" xlink:title="#RelationTargetRestrictionAxiom" xlink:type="simple"><rect fill="#FFFFFF" filter="url(#fjyooxrjaypxw)" height="52.8047"  style="stroke: #000000; stroke-width: 1.5;" width="227" x="2017.5" y="538.5"/><rect fill="#FFFFFF" height="32" style="stroke: #000000; stroke-width: 1.5;" width="227" x="2017.5" y="538.5"/><ellipse cx="2032.5" cy="554.5" fill="#ADD1B2" rx="11" ry="11" style="stroke: #000000; stroke-width: 1.0;"/><path d="M2035.4688,560.1406 Q2034.8906,560.4375 2034.25,560.5781 Q2033.6094,560.7344 2032.9063,560.7344 Q2030.4063,560.7344 2029.0781,559.0938 Q2027.7656,557.4375 2027.7656,554.3125 Q2027.7656,551.1875 2029.0781,549.5313 Q2030.4063,547.875 2032.9063,547.875 Q2033.6094,547.875 2034.25,548.0313 Q2034.9063,548.1875 2035.4688,548.4844 L2035.4688,551.2031 Q2034.8438,550.625 2034.25,550.3594 Q2033.6563,550.0781 2033.0313,550.0781 Q2031.6875,550.0781 2031,551.1563 Q2030.3125,552.2188 2030.3125,554.3125 Q2030.3125,556.4063 2031,557.4844 Q2031.6875,558.5469 2033.0313,558.5469 Q2033.6563,558.5469 2034.25,558.2813 Q2034.8438,558 2035.4688,557.4219 L2035.4688,560.1406 Z "/><text fill="#000000" font-family="sans-serif" font-size="12" lengthAdjust="spacingAndGlyphs" textLength="195" x="2046.5" y="558.6543">RelationTargetRestrictionAxiom</text><line style="stroke: #000000; stroke-width: 1.5;" x1="2018.5" x2="2243.5" y1="570.5" y2="570.5"/><text fill="#000000" font-family="sans-serif" font-size="11" lengthAdjust="spacingAndGlyphs" textLength="153" x="2023.5" y="584.7104">target : NamedInstance [1]</text></a><!--class ScalarPropertyCardinalityRestrictionAxiom--><a target="_top" xlink:actuate="onRequest" xlink:href="#ScalarPropertyCardinalityRestrictionAxiom" xlink:show="new" xlink:title="#ScalarPropertyCardinalityRestrictionAxiom" xlink:type="simple"><rect fill="#FFFFFF" filter="url(#fjyooxrjaypxw)" height="78.4141"  style="stroke: #000000; stroke-width: 1.5;" width="292" x="1017" y="665"/><rect fill="#FFFFFF" height="32" style="stroke: #000000; stroke-width: 1.5;" width="292" x="1017" y="665"/><ellipse cx="1032" cy="681" fill="#ADD1B2" rx="11" ry="11" style="stroke: #000000; stroke-width: 1.0;"/><path d="M1034.9688,686.6406 Q1034.3906,686.9375 1033.75,687.0781 Q1033.1094,687.2344 1032.4063,687.2344 Q1029.9063,687.2344 1028.5781,685.5938 Q1027.2656,683.9375 1027.2656,680.8125 Q1027.2656,677.6875 1028.5781,676.0313 Q1029.9063,674.375 1032.4063,674.375 Q1033.1094,674.375 1033.75,674.5313 Q1034.4063,674.6875 1034.9688,674.9844 L1034.9688,677.7031 Q1034.3438,677.125 1033.75,676.8594 Q1033.1563,676.5781 1032.5313,676.5781 Q1031.1875,676.5781 1030.5,677.6563 Q1029.8125,678.7188 1029.8125,680.8125 Q1029.8125,682.9063 1030.5,683.9844 Q1031.1875,685.0469 1032.5313,685.0469 Q1033.1563,685.0469 1033.75,684.7813 Q1034.3438,684.5 1034.9688,683.9219 L1034.9688,686.6406 Z "/><text fill="#000000" font-family="sans-serif" font-size="12" lengthAdjust="spacingAndGlyphs" textLength="260" x="1046" y="685.1543">ScalarPropertyCardinalityRestrictionAxiom</text><line style="stroke: #000000; stroke-width: 1.5;" x1="1018" x2="1308" y1="697" y2="697"/><text fill="#000000" font-family="sans-serif" font-size="11" lengthAdjust="spacingAndGlyphs" textLength="137" x="1023" y="711.2104">cardinality : UnsignedInt</text><text fill="#000000" font-family="sans-serif" font-size="11" lengthAdjust="spacingAndGlyphs" textLength="179" x="1023" y="724.0151">kind : CardinalityRestrictionKind</text><text fill="#000000" font-family="sans-serif" font-size="11" lengthAdjust="spacingAndGlyphs" textLength="115" x="1023" y="736.8198">range : Scalar [0..1]</text></a><!--class ScalarPropertyRestrictionAxiom--><a target="_top" xlink:actuate="onRequest" xlink:href="#ScalarPropertyRestrictionAxiom" xlink:show="new" xlink:title="#ScalarPropertyRestrictionAxiom" xlink:type="simple"><rect fill="#FFFFFF" filter="url(#fjyooxrjaypxw)" height="52.8047"  style="stroke: #000000; stroke-width: 1.5;" width="227" x="1207.5" y="538.5"/><rect fill="#FFFFFF" height="32" style="stroke: #000000; stroke-width: 1.5;" width="227" x="1207.5" y="538.5"/><ellipse cx="1222.5" cy="554.5" fill="#A9DCDF" rx="11" ry="11" style="stroke: #000000; stroke-width: 1.0;"/><path d="M1222.6094,549.8438 L1221.4531,554.9219 L1223.7813,554.9219 L1222.6094,549.8438 Z M1221.125,547.6094 L1224.1094,547.6094 L1227.4688,560 L1225.0156,560 L1224.25,556.9375 L1220.9688,556.9375 L1220.2188,560 L1217.7813,560 L1221.125,547.6094 Z "/><text fill="#000000" font-family="sans-serif" font-size="12" font-style="italic" lengthAdjust="spacingAndGlyphs" textLength="195" x="1236.5" y="558.6543">ScalarPropertyRestrictionAxiom</text><line style="stroke: #000000; stroke-width: 1.5;" x1="1208.5" x2="1433.5" y1="570.5" y2="570.5"/><text fill="#000000" font-family="sans-serif" font-size="11" lengthAdjust="spacingAndGlyphs" textLength="163" x="1213.5" y="584.7104">property : ScalarProperty [1]</text></a><!--class ScalarPropertyRangeRestrictionAxiom--><a target="_top" xlink:actuate="onRequest" xlink:href="#ScalarPropertyRangeRestrictionAxiom" xlink:show="new" xlink:title="#ScalarPropertyRangeRestrictionAxiom" xlink:type="simple"><rect fill="#FFFFFF" filter="url(#fjyooxrjaypxw)" height="65.6094"  style="stroke: #000000; stroke-width: 1.5;" width="267" x="1344.5" y="671"/><rect fill="#FFFFFF" height="32" style="stroke: #000000; stroke-width: 1.5;" width="267" x="1344.5" y="671"/><ellipse cx="1359.5" cy="687" fill="#ADD1B2" rx="11" ry="11" style="stroke: #000000; stroke-width: 1.0;"/><path d="M1362.4688,692.6406 Q1361.8906,692.9375 1361.25,693.0781 Q1360.6094,693.2344 1359.9063,693.2344 Q1357.4063,693.2344 1356.0781,691.5938 Q1354.7656,689.9375 1354.7656,686.8125 Q1354.7656,683.6875 1356.0781,682.0313 Q1357.4063,680.375 1359.9063,680.375 Q1360.6094,680.375 1361.25,680.5313 Q1361.9063,680.6875 1362.4688,680.9844 L1362.4688,683.7031 Q1361.8438,683.125 1361.25,682.8594 Q1360.6563,682.5781 1360.0313,682.5781 Q1358.6875,682.5781 1358,683.6563 Q1357.3125,684.7188 1357.3125,686.8125 Q1357.3125,688.9063 1358,689.9844 Q1358.6875,691.0469 1360.0313,691.0469 Q1360.6563,691.0469 1361.25,690.7813 Q1361.8438,690.5 1362.4688,689.9219 L1362.4688,692.6406 Z "/><text fill="#000000" font-family="sans-serif" font-size="12" lengthAdjust="spacingAndGlyphs" textLength="235" x="1373.5" y="691.1543">ScalarPropertyRangeRestrictionAxiom</text><line style="stroke: #000000; stroke-width: 1.5;" x1="1345.5" x2="1610.5" y1="703" y2="703"/><text fill="#000000" font-family="sans-serif" font-size="11" lengthAdjust="spacingAndGlyphs" textLength="154" x="1350.5" y="717.2104">kind : RangeRestrictionKind</text><text fill="#000000" font-family="sans-serif" font-size="11" lengthAdjust="spacingAndGlyphs" textLength="100" x="1350.5" y="730.0151">range : Scalar [1]</text></a><!--class ScalarPropertyValueRestrictionAxiom--><a target="_top" xlink:actuate="onRequest" xlink:href="#ScalarPropertyValueRestrictionAxiom" xlink:show="new" xlink:title="#ScalarPropertyValueRestrictionAxiom" xlink:type="simple"><rect fill="#FFFFFF" filter="url(#fjyooxrjaypxw)" height="40"  style="stroke: #000000; stroke-width: 1.5;" width="262" x="1647" y="684"/><rect fill="#FFFFFF" height="32" style="stroke: #000000; stroke-width: 1.5;" width="262" x="1647" y="684"/><ellipse cx="1662" cy="700" fill="#ADD1B2" rx="11" ry="11" style="stroke: #000000; stroke-width: 1.0;"/><path d="M1664.9688,705.6406 Q1664.3906,705.9375 1663.75,706.0781 Q1663.1094,706.2344 1662.4063,706.2344 Q1659.9063,706.2344 1658.5781,704.5938 Q1657.2656,702.9375 1657.2656,699.8125 Q1657.2656,696.6875 1658.5781,695.0313 Q1659.9063,693.375 1662.4063,693.375 Q1663.1094,693.375 1663.75,693.5313 Q1664.4063,693.6875 1664.9688,693.9844 L1664.9688,696.7031 Q1664.3438,696.125 1663.75,695.8594 Q1663.1563,695.5781 1662.5313,695.5781 Q1661.1875,695.5781 1660.5,696.6563 Q1659.8125,697.7188 1659.8125,699.8125 Q1659.8125,701.9063 1660.5,702.9844 Q1661.1875,704.0469 1662.5313,704.0469 Q1663.1563,704.0469 1663.75,703.7813 Q1664.3438,703.5 1664.9688,702.9219 L1664.9688,705.6406 Z "/><text fill="#000000" font-family="sans-serif" font-size="12" lengthAdjust="spacingAndGlyphs" textLength="230" x="1676" y="704.1543">ScalarPropertyValueRestrictionAxiom</text><line style="stroke: #000000; stroke-width: 1.5;" x1="1648" x2="1908" y1="716" y2="716"/></a><!--class Literal--><a target="_top" xlink:actuate="onRequest" xlink:href="#Literal" xlink:show="new" xlink:title="#Literal" xlink:type="simple"><rect fill="#D3D3D3" filter="url(#fjyooxrjaypxw)" height="32"  style="stroke: #000000; stroke-width: 1.5;" width="70" x="1743" y="820"/><ellipse cx="1758" cy="836" fill="#A9DCDF" rx="11" ry="11" style="stroke: #000000; stroke-width: 1.0;"/><path d="M1758.1094,831.3438 L1756.9531,836.4219 L1759.2813,836.4219 L1758.1094,831.3438 Z M1756.625,829.1094 L1759.6094,829.1094 L1762.9688,841.5 L1760.5156,841.5 L1759.75,838.4375 L1756.4688,838.4375 L1755.7188,841.5 L1753.2813,841.5 L1756.625,829.1094 Z "/><text fill="#000000" font-family="sans-serif" font-size="12" font-style="italic" lengthAdjust="spacingAndGlyphs" textLength="38" x="1772" y="840.1543">Literal</text></a><!--class SpecializationAxiom--><a target="_top" xlink:actuate="onRequest" xlink:href="#SpecializationAxiom" xlink:show="new" xlink:title="#SpecializationAxiom" xlink:type="simple"><rect fill="#FFFFFF" filter="url(#fjyooxrjaypxw)" height="78.4141"  style="stroke: #000000; stroke-width: 1.5;" width="315" x="1848.5" y="248"/><rect fill="#FFFFFF" height="32" style="stroke: #000000; stroke-width: 1.5;" width="315" x="1848.5" y="248"/><ellipse cx="1941.25" cy="264" fill="#ADD1B2" rx="11" ry="11" style="stroke: #000000; stroke-width: 1.0;"/><path d="M1944.2188,269.6406 Q1943.6406,269.9375 1943,270.0781 Q1942.3594,270.2344 1941.6563,270.2344 Q1939.1563,270.2344 1937.8281,268.5938 Q1936.5156,266.9375 1936.5156,263.8125 Q1936.5156,260.6875 1937.8281,259.0313 Q1939.1563,257.375 1941.6563,257.375 Q1942.3594,257.375 1943,257.5313 Q1943.6563,257.6875 1944.2188,257.9844 L1944.2188,260.7031 Q1943.5938,260.125 1943,259.8594 Q1942.4063,259.5781 1941.7813,259.5781 Q1940.4375,259.5781 1939.75,260.6563 Q1939.0625,261.7188 1939.0625,263.8125 Q1939.0625,265.9063 1939.75,266.9844 Q1940.4375,268.0469 1941.7813,268.0469 Q1942.4063,268.0469 1943,267.7813 Q1943.5938,267.5 1944.2188,266.9219 L1944.2188,269.6406 Z "/><text fill="#000000" font-family="sans-serif" font-size="12" lengthAdjust="spacingAndGlyphs" textLength="121" x="1961.75" y="268.1543">SpecializationAxiom</text><line style="stroke: #000000; stroke-width: 1.5;" x1="1849.5" x2="2162.5" y1="280" y2="280"/><text fill="#000000" font-family="sans-serif" font-size="11" lengthAdjust="spacingAndGlyphs" textLength="226" x="1854.5" y="294.2104">specializedTerm : SpecializableTerm [1]</text><text fill="#000000" font-family="sans-serif" font-size="11" lengthAdjust="spacingAndGlyphs" textLength="219" x="1854.5" y="307.0151">owningTerm : SpecializableTerm [0..1]</text><text fill="#000000" font-family="sans-serif" font-size="11" lengthAdjust="spacingAndGlyphs" textLength="303" x="1854.5" y="319.8198">owningReference : SpecializableTermReference [0..1]</text></a><!--class StructuredPropertyCardinalityRestrictionAxiom--><a target="_top" xlink:actuate="onRequest" xlink:href="#StructuredPropertyCardinalityRestrictionAxiom" xlink:show="new" xlink:title="#StructuredPropertyCardinalityRestrictionAxiom" xlink:type="simple"><rect fill="#FFFFFF" filter="url(#fjyooxrjaypxw)" height="78.4141"  style="stroke: #000000; stroke-width: 1.5;" width="320" x="6" y="665"/><rect fill="#FFFFFF" height="32" style="stroke: #000000; stroke-width: 1.5;" width="320" x="6" y="665"/><ellipse cx="21" cy="681" fill="#ADD1B2" rx="11" ry="11" style="stroke: #000000; stroke-width: 1.0;"/><path d="M23.9688,686.6406 Q23.3906,686.9375 22.75,687.0781 Q22.1094,687.2344 21.4063,687.2344 Q18.9063,687.2344 17.5781,685.5938 Q16.2656,683.9375 16.2656,680.8125 Q16.2656,677.6875 17.5781,676.0313 Q18.9063,674.375 21.4063,674.375 Q22.1094,674.375 22.75,674.5313 Q23.4063,674.6875 23.9688,674.9844 L23.9688,677.7031 Q23.3438,677.125 22.75,676.8594 Q22.1563,676.5781 21.5313,676.5781 Q20.1875,676.5781 19.5,677.6563 Q18.8125,678.7188 18.8125,680.8125 Q18.8125,682.9063 19.5,683.9844 Q20.1875,685.0469 21.5313,685.0469 Q22.1563,685.0469 22.75,684.7813 Q23.3438,684.5 23.9688,683.9219 L23.9688,686.6406 Z "/><text fill="#000000" font-family="sans-serif" font-size="12" lengthAdjust="spacingAndGlyphs" textLength="288" x="35" y="685.1543">StructuredPropertyCardinalityRestrictionAxiom</text><line style="stroke: #000000; stroke-width: 1.5;" x1="7" x2="325" y1="697" y2="697"/><text fill="#000000" font-family="sans-serif" font-size="11" lengthAdjust="spacingAndGlyphs" textLength="137" x="12" y="711.2104">cardinality : UnsignedInt</text><text fill="#000000" font-family="sans-serif" font-size="11" lengthAdjust="spacingAndGlyphs" textLength="179" x="12" y="724.0151">kind : CardinalityRestrictionKind</text><text fill="#000000" font-family="sans-serif" font-size="11" lengthAdjust="spacingAndGlyphs" textLength="132" x="12" y="736.8198">range : Structure [0..1]</text></a><!--class StructuredPropertyRestrictionAxiom--><a target="_top" xlink:actuate="onRequest" xlink:href="#StructuredPropertyRestrictionAxiom" xlink:show="new" xlink:title="#StructuredPropertyRestrictionAxiom" xlink:type="simple"><rect fill="#FFFFFF" filter="url(#fjyooxrjaypxw)" height="52.8047"  style="stroke: #000000; stroke-width: 1.5;" width="255" x="473.5" y="538.5"/><rect fill="#FFFFFF" height="32" style="stroke: #000000; stroke-width: 1.5;" width="255" x="473.5" y="538.5"/><ellipse cx="488.5" cy="554.5" fill="#A9DCDF" rx="11" ry="11" style="stroke: #000000; stroke-width: 1.0;"/><path d="M488.6094,549.8438 L487.4531,554.9219 L489.7813,554.9219 L488.6094,549.8438 Z M487.125,547.6094 L490.1094,547.6094 L493.4688,560 L491.0156,560 L490.25,556.9375 L486.9688,556.9375 L486.2188,560 L483.7813,560 L487.125,547.6094 Z "/><text fill="#000000" font-family="sans-serif" font-size="12" font-style="italic" lengthAdjust="spacingAndGlyphs" textLength="223" x="502.5" y="558.6543">StructuredPropertyRestrictionAxiom</text><line style="stroke: #000000; stroke-width: 1.5;" x1="474.5" x2="727.5" y1="570.5" y2="570.5"/><text fill="#000000" font-family="sans-serif" font-size="11" lengthAdjust="spacingAndGlyphs" textLength="187" x="479.5" y="584.7104">property : StructuredProperty [1]</text></a><!--class StructuredPropertyRangeRestrictionAxiom--><a target="_top" xlink:actuate="onRequest" xlink:href="#StructuredPropertyRangeRestrictionAxiom" xlink:show="new" xlink:title="#StructuredPropertyRangeRestrictionAxiom" xlink:type="simple"><rect fill="#FFFFFF" filter="url(#fjyooxrjaypxw)" height="65.6094"  style="stroke: #000000; stroke-width: 1.5;" width="295" x="361.5" y="671"/><rect fill="#FFFFFF" height="32" style="stroke: #000000; stroke-width: 1.5;" width="295" x="361.5" y="671"/><ellipse cx="376.5" cy="687" fill="#ADD1B2" rx="11" ry="11" style="stroke: #000000; stroke-width: 1.0;"/><path d="M379.4688,692.6406 Q378.8906,692.9375 378.25,693.0781 Q377.6094,693.2344 376.9063,693.2344 Q374.4063,693.2344 373.0781,691.5938 Q371.7656,689.9375 371.7656,686.8125 Q371.7656,683.6875 373.0781,682.0313 Q374.4063,680.375 376.9063,680.375 Q377.6094,680.375 378.25,680.5313 Q378.9063,680.6875 379.4688,680.9844 L379.4688,683.7031 Q378.8438,683.125 378.25,682.8594 Q377.6563,682.5781 377.0313,682.5781 Q375.6875,682.5781 375,683.6563 Q374.3125,684.7188 374.3125,686.8125 Q374.3125,688.9063 375,689.9844 Q375.6875,691.0469 377.0313,691.0469 Q377.6563,691.0469 378.25,690.7813 Q378.8438,690.5 379.4688,689.9219 L379.4688,692.6406 Z "/><text fill="#000000" font-family="sans-serif" font-size="12" lengthAdjust="spacingAndGlyphs" textLength="263" x="390.5" y="691.1543">StructuredPropertyRangeRestrictionAxiom</text><line style="stroke: #000000; stroke-width: 1.5;" x1="362.5" x2="655.5" y1="703" y2="703"/><text fill="#000000" font-family="sans-serif" font-size="11" lengthAdjust="spacingAndGlyphs" textLength="154" x="367.5" y="717.2104">kind : RangeRestrictionKind</text><text fill="#000000" font-family="sans-serif" font-size="11" lengthAdjust="spacingAndGlyphs" textLength="117" x="367.5" y="730.0151">range : Structure [1]</text></a><!--class StructuredPropertyValueRestrictionAxiom--><a target="_top" xlink:actuate="onRequest" xlink:href="#StructuredPropertyValueRestrictionAxiom" xlink:show="new" xlink:title="#StructuredPropertyValueRestrictionAxiom" xlink:type="simple"><rect fill="#FFFFFF" filter="url(#fjyooxrjaypxw)" height="40"  style="stroke: #000000; stroke-width: 1.5;" width="290" x="692" y="684"/><rect fill="#FFFFFF" height="32" style="stroke: #000000; stroke-width: 1.5;" width="290" x="692" y="684"/><ellipse cx="707" cy="700" fill="#ADD1B2" rx="11" ry="11" style="stroke: #000000; stroke-width: 1.0;"/><path d="M709.9688,705.6406 Q709.3906,705.9375 708.75,706.0781 Q708.1094,706.2344 707.4063,706.2344 Q704.9063,706.2344 703.5781,704.5938 Q702.2656,702.9375 702.2656,699.8125 Q702.2656,696.6875 703.5781,695.0313 Q704.9063,693.375 707.4063,693.375 Q708.1094,693.375 708.75,693.5313 Q709.4063,693.6875 709.9688,693.9844 L709.9688,696.7031 Q709.3438,696.125 708.75,695.8594 Q708.1563,695.5781 707.5313,695.5781 Q706.1875,695.5781 705.5,696.6563 Q704.8125,697.7188 704.8125,699.8125 Q704.8125,701.9063 705.5,702.9844 Q706.1875,704.0469 707.5313,704.0469 Q708.1563,704.0469 708.75,703.7813 Q709.3438,703.5 709.9688,702.9219 L709.9688,705.6406 Z "/><text fill="#000000" font-family="sans-serif" font-size="12" lengthAdjust="spacingAndGlyphs" textLength="258" x="721" y="704.1543">StructuredPropertyValueRestrictionAxiom</text><line style="stroke: #000000; stroke-width: 1.5;" x1="693" x2="981" y1="716" y2="716"/></a><!--class StructureInstance--><a target="_top" xlink:actuate="onRequest" xlink:href="#StructureInstance" xlink:show="new" xlink:title="#StructureInstance" xlink:type="simple"><rect fill="#D3D3D3" filter="url(#fjyooxrjaypxw)" height="32"  style="stroke: #000000; stroke-width: 1.5;" width="145" x="764.5" y="820"/><ellipse cx="779.5" cy="836" fill="#ADD1B2" rx="11" ry="11" style="stroke: #000000; stroke-width: 1.0;"/><path d="M782.4688,841.6406 Q781.8906,841.9375 781.25,842.0781 Q780.6094,842.2344 779.9063,842.2344 Q777.4063,842.2344 776.0781,840.5938 Q774.7656,838.9375 774.7656,835.8125 Q774.7656,832.6875 776.0781,831.0313 Q777.4063,829.375 779.9063,829.375 Q780.6094,829.375 781.25,829.5313 Q781.9063,829.6875 782.4688,829.9844 L782.4688,832.7031 Q781.8438,832.125 781.25,831.8594 Q780.6563,831.5781 780.0313,831.5781 Q778.6875,831.5781 778,832.6563 Q777.3125,833.7188 777.3125,835.8125 Q777.3125,837.9063 778,838.9844 Q778.6875,840.0469 780.0313,840.0469 Q780.6563,840.0469 781.25,839.7813 Q781.8438,839.5 782.4688,838.9219 L782.4688,841.6406 Z "/><text fill="#000000" font-family="sans-serif" font-size="12" lengthAdjust="spacingAndGlyphs" textLength="113" x="793.5" y="840.1543">StructureInstance</text></a><!--link Element to Axiom--><a target="_top" xlink:actuate="onRequest" xlink:href="#Element" xlink:show="new" xlink:title="#Element" xlink:type="simple"><path d="M1692,83.488 C1692,104.211 1692,129.562 1692,146.651 " fill="none"  style="stroke: #000000; stroke-width: 1.0;"/><polygon fill="none" points="1685,83.426,1692,63.426,1699,83.426,1685,83.426" style="stroke: #000000; stroke-width: 1.0;"/></a><!--link Axiom to KeyAxiom--><a target="_top" xlink:actuate="onRequest" xlink:href="#Axiom" xlink:show="new" xlink:title="#Axiom" xlink:type="simple"><path d="M1692,207.245 C1692,220.27 1692,234.747 1692,247.7 " fill="none"  style="stroke: #000000; stroke-width: 1.0;"/><polygon fill="none" points="1685,207.221,1692,187.221,1699,207.221,1685,207.221" style="stroke: #000000; stroke-width: 1.0;"/></a><!--link RestrictionAxiom to PropertyRestrictionAxiom--><a target="_top" xlink:actuate="onRequest" xlink:href="#RestrictionAxiom" xlink:show="new" xlink:title="#RestrictionAxiom" xlink:type="simple"><path d="M1432.66,320.938 C1409.22,342.781 1378.62,371.298 1355.38,392.955 " fill="none"  style="stroke: #000000; stroke-width: 1.0;"/><polygon fill="none" points="1428.16,315.564,1447.56,307.049,1437.7,325.806,1428.16,315.564" style="stroke: #000000; stroke-width: 1.0;"/></a><!--link RelationRestrictionAxiom to RelationCardinalityRestrictionAxiom--><a target="_top" xlink:actuate="onRequest" xlink:href="#RelationRestrictionAxiom" xlink:show="new" xlink:title="#RelationRestrictionAxiom" xlink:type="simple"><path d="M1730.28,476.163 C1705.13,492.496 1677.51,510.427 1653.83,525.805 " fill="none"  style="stroke: #000000; stroke-width: 1.0;"/><polygon fill="none" points="1726.64,470.183,1747.22,465.162,1734.26,481.925,1726.64,470.183" style="stroke: #000000; stroke-width: 1.0;"/></a><!--link RelationRestrictionAxiom to RelationRangeRestrictionAxiom--><a target="_top" xlink:actuate="onRequest" xlink:href="#RelationRestrictionAxiom" xlink:show="new" xlink:title="#RelationRestrictionAxiom" xlink:type="simple"><path d="M1831.95,483.421 C1839.5,499.839 1847.49,517.214 1854.1,531.609 " fill="none"  style="stroke: #000000; stroke-width: 1.0;"/><polygon fill="none" points="1825.55,486.258,1823.55,465.162,1838.26,480.408,1825.55,486.258" style="stroke: #000000; stroke-width: 1.0;"/></a><!--link RestrictionAxiom to RelationRestrictionAxiom--><a target="_top" xlink:actuate="onRequest" xlink:href="#RestrictionAxiom" xlink:show="new" xlink:title="#RestrictionAxiom" xlink:type="simple"><path d="M1528.13,315.305 C1536.46,318.963 1544.92,322.616 1553,326 C1602.92,346.912 1658.92,368.968 1705.52,386.941 " fill="none"  style="stroke: #000000; stroke-width: 1.0;"/><polygon fill="none" points="1525.2,321.663,1509.77,307.145,1530.88,308.87,1525.2,321.663" style="stroke: #000000; stroke-width: 1.0;"/></a><!--link RelationRestrictionAxiom to RelationTargetRestrictionAxiom--><a target="_top" xlink:actuate="onRequest" xlink:href="#RelationRestrictionAxiom" xlink:show="new" xlink:title="#RelationRestrictionAxiom" xlink:type="simple"><path d="M1915.17,473.019 C1966.87,494.814 2026.68,520.025 2070.21,538.373 " fill="none"  style="stroke: #000000; stroke-width: 1.0;"/><polygon fill="none" points="1912.24,479.381,1896.53,465.162,1917.68,466.481,1912.24,479.381" style="stroke: #000000; stroke-width: 1.0;"/></a><!--link Axiom to RestrictionAxiom--><a target="_top" xlink:actuate="onRequest" xlink:href="#Axiom" xlink:show="new" xlink:title="#Axiom" xlink:type="simple"><path d="M1640.08,195.351 C1598.42,217.295 1541.02,247.535 1504.2,266.93 " fill="none"  style="stroke: #000000; stroke-width: 1.0;"/><polygon fill="none" points="1637.02,189.05,1657.98,185.922,1643.55,201.436,1637.02,189.05" style="stroke: #000000; stroke-width: 1.0;"/></a><!--link ScalarPropertyRestrictionAxiom to ScalarPropertyCardinalityRestrictionAxiom--><a target="_top" xlink:actuate="onRequest" xlink:href="#ScalarPropertyRestrictionAxiom" xlink:show="new" xlink:title="#ScalarPropertyRestrictionAxiom" xlink:type="simple"><path d="M1276.02,605 C1254.35,623.794 1228.45,646.249 1206.92,664.92 " fill="none"  style="stroke: #000000; stroke-width: 1.0;"/><polygon fill="none" points="1271.58,599.582,1291.28,591.769,1280.76,610.16,1271.58,599.582" style="stroke: #000000; stroke-width: 1.0;"/></a><!--link ScalarPropertyRestrictionAxiom to ScalarPropertyRangeRestrictionAxiom--><a target="_top" xlink:actuate="onRequest" xlink:href="#ScalarPropertyRestrictionAxiom" xlink:show="new" xlink:title="#ScalarPropertyRestrictionAxiom" xlink:type="simple"><path d="M1365.71,605.018 C1389.57,625.837 1418.58,651.147 1441.13,670.827 " fill="none"  style="stroke: #000000; stroke-width: 1.0;"/><polygon fill="none" points="1361,610.193,1350.53,591.769,1370.2,599.644,1361,610.193" style="stroke: #000000; stroke-width: 1.0;"/></a><!--link PropertyRestrictionAxiom to ScalarPropertyRestrictionAxiom--><a target="_top" xlink:actuate="onRequest" xlink:href="#PropertyRestrictionAxiom" xlink:show="new" xlink:title="#PropertyRestrictionAxiom" xlink:type="simple"><path d="M1321,479.217 C1321,499.515 1321,521.838 1321,538.481 " fill="none"  style="stroke: #000000; stroke-width: 1.0;"/><polygon fill="none" points="1314,479.12,1321,459.12,1328,479.12,1314,479.12" style="stroke: #000000; stroke-width: 1.0;"/></a><!--link ScalarPropertyRestrictionAxiom to ScalarPropertyValueRestrictionAxiom--><a target="_top" xlink:actuate="onRequest" xlink:href="#ScalarPropertyRestrictionAxiom" xlink:show="new" xlink:title="#ScalarPropertyRestrictionAxiom" xlink:type="simple"><path d="M1425.44,597.309 C1514.58,624.032 1639.87,661.593 1714.61,683.996 " fill="none"  style="stroke: #000000; stroke-width: 1.0;"/><polygon fill="none" points="1423.3,603.976,1406.15,591.528,1427.32,590.566,1423.3,603.976" style="stroke: #000000; stroke-width: 1.0;"/></a><!--link ScalarPropertyValueRestrictionAxiom to Literal--><path d="M1778,737.297 C1778,758.5961 1778,786.2309 1778,806.6728 " fill="none"  style="stroke: #000000; stroke-width: 1.0;"/><polygon fill="#000000" points="1778,819.801,1782,810.801,1778,814.801,1774,810.801,1778,819.801" style="stroke: #000000; stroke-width: 1.0;"/><line style="stroke: #000000; stroke-width: 1.0;" x1="1778" x2="1778" y1="814.801" y2="806.801"/><polygon fill="#000000" points="1778,724.182,1774,730.182,1778,736.182,1782,730.182,1778,724.182" style="stroke: #000000; stroke-width: 1.0;"/><text fill="#000000" font-family="sans-serif" font-size="13" lengthAdjust="spacingAndGlyphs" textLength="34" x="1779" y="786.0669">value</text><text fill="#000000" font-family="sans-serif" font-size="13" lengthAdjust="spacingAndGlyphs" textLength="8" x="1768.675" y="809.0396">1</text><!--link Axiom to SpecializationAxiom--><a target="_top" xlink:actuate="onRequest" xlink:href="#Axiom" xlink:show="new" xlink:title="#Axiom" xlink:type="simple"><path d="M1745.02,187.925 C1788.55,204.285 1851.46,227.926 1904.61,247.898 " fill="none"  style="stroke: #000000; stroke-width: 1.0;"/><polygon fill="none" points="1742.46,194.441,1726.2,180.853,1747.39,181.336,1742.46,194.441" style="stroke: #000000; stroke-width: 1.0;"/></a><!--link StructuredPropertyRestrictionAxiom to StructuredPropertyCardinalityRestrictionAxiom--><a target="_top" xlink:actuate="onRequest" xlink:href="#StructuredPropertyRestrictionAxiom" xlink:show="new" xlink:title="#StructuredPropertyRestrictionAxiom" xlink:type="simple"><path d="M500.829,597.548 C437.128,617.61 354.263,643.708 286.908,664.921 " fill="none"  style="stroke: #000000; stroke-width: 1.0;"/><polygon fill="none" points="498.766,590.859,519.945,591.528,502.971,604.212,498.766,590.859" style="stroke: #000000; stroke-width: 1.0;"/></a><!--link StructuredPropertyRestrictionAxiom to StructuredPropertyRangeRestrictionAxiom--><a target="_top" xlink:actuate="onRequest" xlink:href="#StructuredPropertyRestrictionAxiom" xlink:show="new" xlink:title="#StructuredPropertyRestrictionAxiom" xlink:type="simple"><path d="M572.403,608.584 C558.972,628.586 543.218,652.046 530.774,670.576 " fill="none"  style="stroke: #000000; stroke-width: 1.0;"/><polygon fill="none" points="566.734,604.47,583.696,591.769,578.357,612.275,566.734,604.47" style="stroke: #000000; stroke-width: 1.0;"/></a><!--link PropertyRestrictionAxiom to StructuredPropertyRestrictionAxiom--><a target="_top" xlink:actuate="onRequest" xlink:href="#PropertyRestrictionAxiom" xlink:show="new" xlink:title="#PropertyRestrictionAxiom" xlink:type="simple"><path d="M1168.01,456.111 C1037.34,480.973 851.566,516.323 728.736,539.695 " fill="none"  style="stroke: #000000; stroke-width: 1.0;"/><polygon fill="none" points="1166.73,449.229,1187.68,452.368,1169.34,462.983,1166.73,449.229" style="stroke: #000000; stroke-width: 1.0;"/></a><!--link StructuredPropertyRestrictionAxiom to StructuredPropertyValueRestrictionAxiom--><a target="_top" xlink:actuate="onRequest" xlink:href="#StructuredPropertyRestrictionAxiom" xlink:show="new" xlink:title="#StructuredPropertyRestrictionAxiom" xlink:type="simple"><path d="M662.593,601.755 C707.862,628.034 767.614,662.721 804.124,683.915 " fill="none"  style="stroke: #000000; stroke-width: 1.0;"/><polygon fill="none" points="658.895,607.703,645.113,591.608,665.924,595.595,658.895,607.703" style="stroke: #000000; stroke-width: 1.0;"/></a><!--link StructuredPropertyValueRestrictionAxiom to StructureInstance--><path d="M837,737.297 C837,758.5961 837,786.2309 837,806.6728 " fill="none"  style="stroke: #000000; stroke-width: 1.0;"/><polygon fill="#000000" points="837,819.801,841,810.801,837,814.801,833,810.801,837,819.801" style="stroke: #000000; stroke-width: 1.0;"/><line style="stroke: #000000; stroke-width: 1.0;" x1="837" x2="837" y1="814.801" y2="806.801"/><polygon fill="#000000" points="837,724.182,833,730.182,837,736.182,841,730.182,837,724.182" style="stroke: #000000; stroke-width: 1.0;"/><text fill="#000000" font-family="sans-serif" font-size="13" lengthAdjust="spacingAndGlyphs" textLength="34" x="838" y="786.0669">value</text><text fill="#000000" font-family="sans-serif" font-size="13" lengthAdjust="spacingAndGlyphs" textLength="8" x="827.675" y="809.0396">1</text><!--
@startuml
skinparam classBackgroundColor LightGray
skinparam classBorderColor Black
skinparam enumBorderColor Black
skinparam ArrowColor Black
hide methods
abstract class Axiom [[#Axiom]] #white {
}
abstract class Element [[#Element]]
hide Element members
Axiom -up-|> Element [[#Element]]
enum CardinalityRestrictionKind [[#CardinalityRestrictionKind]] #white {
	exactly
	min
	max
}
class KeyAxiom [[#KeyAxiom]] #white {
	properties : ScalarProperty [*]
	owningEntity : Entity [0..1]
	owningReference : EntityReference [0..1]
}
KeyAxiom -up-|> Axiom [[#Axiom]]
abstract class PropertyRestrictionAxiom [[#PropertyRestrictionAxiom]] #white {
	owningClassifier : Classifier [0..1]
	owningReference : ClassifierReference [0..1]
}
PropertyRestrictionAxiom -up-|> RestrictionAxiom [[#RestrictionAxiom]]
enum RangeRestrictionKind [[#RangeRestrictionKind]] #white {
	all
	some
}
class RelationCardinalityRestrictionAxiom [[#RelationCardinalityRestrictionAxiom]] #white {
	cardinality : UnsignedInt
	kind : CardinalityRestrictionKind
	range : Entity [0..1]
}
RelationCardinalityRestrictionAxiom -up-|> RelationRestrictionAxiom [[#RelationRestrictionAxiom]]
class RelationRangeRestrictionAxiom [[#RelationRangeRestrictionAxiom]] #white {
	kind : RangeRestrictionKind
	range : Entity [1]
}
RelationRangeRestrictionAxiom -up-|> RelationRestrictionAxiom [[#RelationRestrictionAxiom]]
abstract class RelationRestrictionAxiom [[#RelationRestrictionAxiom]] #white {
	relation : Relation [1]
	owningEntity : Entity [0..1]
	owningReference : EntityReference [0..1]
}
RelationRestrictionAxiom -up-|> RestrictionAxiom [[#RestrictionAxiom]]
class RelationTargetRestrictionAxiom [[#RelationTargetRestrictionAxiom]] #white {
	target : NamedInstance [1]
}
RelationTargetRestrictionAxiom -up-|> RelationRestrictionAxiom [[#RelationRestrictionAxiom]]
abstract class RestrictionAxiom [[#RestrictionAxiom]] #white {
}
RestrictionAxiom -up-|> Axiom [[#Axiom]]
class ScalarPropertyCardinalityRestrictionAxiom [[#ScalarPropertyCardinalityRestrictionAxiom]] #white {
	cardinality : UnsignedInt
	kind : CardinalityRestrictionKind
	range : Scalar [0..1]
}
ScalarPropertyCardinalityRestrictionAxiom -up-|> ScalarPropertyRestrictionAxiom [[#ScalarPropertyRestrictionAxiom]]
class ScalarPropertyRangeRestrictionAxiom [[#ScalarPropertyRangeRestrictionAxiom]] #white {
	kind : RangeRestrictionKind
	range : Scalar [1]
}
ScalarPropertyRangeRestrictionAxiom -up-|> ScalarPropertyRestrictionAxiom [[#ScalarPropertyRestrictionAxiom]]
abstract class ScalarPropertyRestrictionAxiom [[#ScalarPropertyRestrictionAxiom]] #white {
	property : ScalarProperty [1]
}
ScalarPropertyRestrictionAxiom -up-|> PropertyRestrictionAxiom [[#PropertyRestrictionAxiom]]
class ScalarPropertyValueRestrictionAxiom [[#ScalarPropertyValueRestrictionAxiom]] #white {
}
abstract class Literal [[#Literal]]
hide Literal members
ScalarPropertyValueRestrictionAxiom -up-|> ScalarPropertyRestrictionAxiom [[#ScalarPropertyRestrictionAxiom]]
ScalarPropertyValueRestrictionAxiom *- -> "1" Literal : value
class SpecializationAxiom [[#SpecializationAxiom]] #white {
	specializedTerm : SpecializableTerm [1]
	owningTerm : SpecializableTerm [0..1]
	owningReference : SpecializableTermReference [0..1]
}
SpecializationAxiom -up-|> Axiom [[#Axiom]]
class StructuredPropertyCardinalityRestrictionAxiom [[#StructuredPropertyCardinalityRestrictionAxiom]] #white {
	cardinality : UnsignedInt
	kind : CardinalityRestrictionKind
	range : Structure [0..1]
}
StructuredPropertyCardinalityRestrictionAxiom -up-|> StructuredPropertyRestrictionAxiom [[#StructuredPropertyRestrictionAxiom]]
class StructuredPropertyRangeRestrictionAxiom [[#StructuredPropertyRangeRestrictionAxiom]] #white {
	kind : RangeRestrictionKind
	range : Structure [1]
}
StructuredPropertyRangeRestrictionAxiom -up-|> StructuredPropertyRestrictionAxiom [[#StructuredPropertyRestrictionAxiom]]
abstract class StructuredPropertyRestrictionAxiom [[#StructuredPropertyRestrictionAxiom]] #white {
	property : StructuredProperty [1]
}
StructuredPropertyRestrictionAxiom -up-|> PropertyRestrictionAxiom [[#PropertyRestrictionAxiom]]
class StructuredPropertyValueRestrictionAxiom [[#StructuredPropertyValueRestrictionAxiom]] #white {
}
class StructureInstance [[#StructureInstance]]
hide StructureInstance members
StructuredPropertyValueRestrictionAxiom -up-|> StructuredPropertyRestrictionAxiom [[#StructuredPropertyRestrictionAxiom]]
StructuredPropertyValueRestrictionAxiom *- -> "1" StructureInstance : value
@enduml

PlantUML version 1.2019.00(Sun Jan 13 15:46:42 UTC 2019)
(GPL source distribution)
Java Runtime: OpenJDK Runtime Environment
JVM: OpenJDK 64-Bit Server VM
Java Version: 11.0.2+9
Operating System: Linux
OS Version: 4.15.0-1098-gcp
Default Encoding: UTF-8
Language: en
Country: US
--></g></svg>
