<?xml version="1.0" encoding="UTF-8" standalone="no"?><svg xmlns="http://www.w3.org/2000/svg" xmlns:xlink="http://www.w3.org/1999/xlink" contentStyleType="text/css" height="819px" preserveAspectRatio="none" style="width:1575px;height:819px;background:#FFFFFF;" version="1.1" viewBox="0 0 1575 819" width="1575px" zoomAndPan="magnify"><defs/><g><!--MD5=[c89de6697dc6d01dc60be682576a34d4]
class Aspect--><a href="#Aspect" target="_top" title="#Aspect" xlink:actuate="onRequest" xlink:href="#Aspect" xlink:show="new" xlink:title="#Aspect" xlink:type="simple"><g ><rect codeLine="6" fill="#FFFFFF" height="40"  rx="2.5" ry="2.5" style="stroke:#000000;stroke-width:0.5;" width="80" x="7" y="589.5"/><ellipse cx="22" cy="605.5" fill="#ADD1B2" rx="11" ry="11" style="stroke:#181818;stroke-width:1.0;"/><path d="M24.9688,611.1406 Q24.3906,611.4375 23.75,611.5781 Q23.1094,611.7344 22.4063,611.7344 Q19.9063,611.7344 18.5781,610.0938 Q17.2656,608.4375 17.2656,605.3125 Q17.2656,602.1875 18.5781,600.5313 Q19.9063,598.875 22.4063,598.875 Q23.1094,598.875 23.75,599.0313 Q24.4063,599.1875 24.9688,599.4844 L24.9688,602.2031 Q24.3438,601.625 23.75,601.3594 Q23.1563,601.0781 22.5313,601.0781 Q21.1875,601.0781 20.5,602.1563 Q19.8125,603.2188 19.8125,605.3125 Q19.8125,607.4063 20.5,608.4844 Q21.1875,609.5469 22.5313,609.5469 Q23.1563,609.5469 23.75,609.2813 Q24.3438,609 24.9688,608.4219 L24.9688,611.1406 Z " fill="#000000"/><text fill="#000000" font-family="sans-serif" font-size="14" lengthAdjust="spacing" textLength="48" x="36" y="610.3467">Aspect</text><line style="stroke:#000000;stroke-width:0.5;" x1="8" x2="86" y1="621.5" y2="621.5"/></g></a><!--MD5=[be996cdb8e6bf2fc7cb89c555f2cd144]
class Entity--><a href="#Entity" target="_top" title="#Entity" xlink:actuate="onRequest" xlink:href="#Entity" xlink:show="new" xlink:title="#Entity" xlink:type="simple"><g ><rect codeLine="19" fill="#FFFFFF" height="40"  rx="2.5" ry="2.5" style="stroke:#000000;stroke-width:0.5;" width="70" x="527" y="358.5"/><ellipse cx="542" cy="374.5" fill="#A9DCDF" rx="11" ry="11" style="stroke:#181818;stroke-width:1.0;"/><path d="M542.1094,369.8438 L540.9531,374.9219 L543.2813,374.9219 L542.1094,369.8438 Z M540.625,367.6094 L543.6094,367.6094 L546.9688,380 L544.5156,380 L543.75,376.9375 L540.4688,376.9375 L539.7188,380 L537.2813,380 L540.625,367.6094 Z " fill="#000000"/><text fill="#000000" font-family="sans-serif" font-size="14" font-style="italic" lengthAdjust="spacing" textLength="38" x="556" y="379.3467">Entity</text><line style="stroke:#000000;stroke-width:0.5;" x1="528" x2="596" y1="390.5" y2="390.5"/></g></a><!--MD5=[e5192d39c070dac6a79b288c93719d10]
class Classifier--><a href="#Classifier" target="_top" title="#Classifier" xlink:actuate="onRequest" xlink:href="#Classifier" xlink:show="new" xlink:title="#Classifier" xlink:type="simple"><g ><rect codeLine="9" fill="#FFFFFF" height="40"  rx="2.5" ry="2.5" style="stroke:#000000;stroke-width:0.5;" width="93" x="727.5" y="201"/><ellipse cx="742.5" cy="217" fill="#A9DCDF" rx="11" ry="11" style="stroke:#181818;stroke-width:1.0;"/><path d="M742.6094,212.3438 L741.4531,217.4219 L743.7813,217.4219 L742.6094,212.3438 Z M741.125,210.1094 L744.1094,210.1094 L747.4688,222.5 L745.0156,222.5 L744.25,219.4375 L740.9688,219.4375 L740.2188,222.5 L737.7813,222.5 L741.125,210.1094 Z " fill="#000000"/><text fill="#000000" font-family="sans-serif" font-size="14" font-style="italic" lengthAdjust="spacing" textLength="61" x="756.5" y="221.8467">Classifier</text><line style="stroke:#000000;stroke-width:0.5;" x1="728.5" x2="819.5" y1="233" y2="233"/></g></a><!--MD5=[25b87728d4df6106c58eefd79f338c2d]
class PropertyRestrictionAxiom--><a href="#PropertyRestrictionAxiom" target="_top" title="#PropertyRestrictionAxiom" xlink:actuate="onRequest" xlink:href="#PropertyRestrictionAxiom" xlink:show="new" xlink:title="#PropertyRestrictionAxiom" xlink:type="simple"><g ><rect codeLine="11" fill="#D3D3D3" height="32"  rx="2.5" ry="2.5" style="stroke:#000000;stroke-width:0.5;" width="205" x="632.5" y="362.5"/><ellipse cx="647.5" cy="378.5" fill="#A9DCDF" rx="11" ry="11" style="stroke:#181818;stroke-width:1.0;"/><path d="M647.6094,373.8438 L646.4531,378.9219 L648.7813,378.9219 L647.6094,373.8438 Z M646.125,371.6094 L649.1094,371.6094 L652.4688,384 L650.0156,384 L649.25,380.9375 L645.9688,380.9375 L645.2188,384 L642.7813,384 L646.125,371.6094 Z " fill="#000000"/><text fill="#000000" font-family="sans-serif" font-size="14" font-style="italic" lengthAdjust="spacing" textLength="173" x="661.5" y="383.3467">PropertyRestrictionAxiom</text></g></a><!--MD5=[4296a1ab0576a383a1a509d52c22ebf0]
class Type--><a href="#Type" target="_top" title="#Type" xlink:actuate="onRequest" xlink:href="#Type" xlink:show="new" xlink:title="#Type" xlink:type="simple"><g ><rect codeLine="78" fill="#FFFFFF" height="40"  rx="2.5" ry="2.5" style="stroke:#000000;stroke-width:0.5;" width="66" x="958" y="100"/><ellipse cx="973" cy="116" fill="#A9DCDF" rx="11" ry="11" style="stroke:#181818;stroke-width:1.0;"/><path d="M973.1094,111.3438 L971.9531,116.4219 L974.2813,116.4219 L973.1094,111.3438 Z M971.625,109.1094 L974.6094,109.1094 L977.9688,121.5 L975.5156,121.5 L974.75,118.4375 L971.4688,118.4375 L970.7188,121.5 L968.2813,121.5 L971.625,109.1094 Z " fill="#000000"/><text fill="#000000" font-family="sans-serif" font-size="14" font-style="italic" lengthAdjust="spacing" textLength="34" x="987" y="120.8467">Type</text><line style="stroke:#000000;stroke-width:0.5;" x1="959" x2="1023" y1="132" y2="132"/></g></a><!--MD5=[9d451b2f92d848a8e2d1a4dab2b1c6bf]
class Concept--><a href="#Concept" target="_top" title="#Concept" xlink:actuate="onRequest" xlink:href="#Concept" xlink:show="new" xlink:title="#Concept" xlink:type="simple"><g ><rect codeLine="15" fill="#FFFFFF" height="56.2969"  rx="2.5" ry="2.5" style="stroke:#000000;stroke-width:0.5;" width="316" x="122" y="581.5"/><ellipse cx="246.25" cy="597.5" fill="#ADD1B2" rx="11" ry="11" style="stroke:#181818;stroke-width:1.0;"/><path d="M249.2188,603.1406 Q248.6406,603.4375 248,603.5781 Q247.3594,603.7344 246.6563,603.7344 Q244.1563,603.7344 242.8281,602.0938 Q241.5156,600.4375 241.5156,597.3125 Q241.5156,594.1875 242.8281,592.5313 Q244.1563,590.875 246.6563,590.875 Q247.3594,590.875 248,591.0313 Q248.6563,591.1875 249.2188,591.4844 L249.2188,594.2031 Q248.5938,593.625 248,593.3594 Q247.4063,593.0781 246.7813,593.0781 Q245.4375,593.0781 244.75,594.1563 Q244.0625,595.2188 244.0625,597.3125 Q244.0625,599.4063 244.75,600.4844 Q245.4375,601.5469 246.7813,601.5469 Q247.4063,601.5469 248,601.2813 Q248.5938,601 249.2188,600.4219 L249.2188,603.1406 Z " fill="#000000"/><text fill="#000000" font-family="sans-serif" font-size="14" lengthAdjust="spacing" textLength="59" x="266.75" y="602.3467">Concept</text><line style="stroke:#000000;stroke-width:0.5;" x1="123" x2="437" y1="613.5" y2="613.5"/><text fill="#000000" font-family="sans-serif" font-size="14" lengthAdjust="spacing" textLength="304" x="128" y="630.4951">enumeratedInstances : ConceptInstance [*]</text></g></a><!--MD5=[4e242244013ff556631fd27e0a130c99]
class RelationRestrictionAxiom--><a href="#RelationRestrictionAxiom" target="_top" title="#RelationRestrictionAxiom" xlink:actuate="onRequest" xlink:href="#RelationRestrictionAxiom" xlink:show="new" xlink:title="#RelationRestrictionAxiom" xlink:type="simple"><g ><rect codeLine="21" fill="#D3D3D3" height="32"  rx="2.5" ry="2.5" style="stroke:#000000;stroke-width:0.5;" width="203" x="472.5" y="593.5"/><ellipse cx="487.5" cy="609.5" fill="#A9DCDF" rx="11" ry="11" style="stroke:#181818;stroke-width:1.0;"/><path d="M487.6094,604.8438 L486.4531,609.9219 L488.7813,609.9219 L487.6094,604.8438 Z M486.125,602.6094 L489.1094,602.6094 L492.4688,615 L490.0156,615 L489.25,611.9375 L485.9688,611.9375 L485.2188,615 L482.7813,615 L486.125,602.6094 Z " fill="#000000"/><text fill="#000000" font-family="sans-serif" font-size="14" font-style="italic" lengthAdjust="spacing" textLength="171" x="501.5" y="614.3467">RelationRestrictionAxiom</text></g></a><!--MD5=[0a55d74c0dcca380b5c4c14816504637]
class KeyAxiom--><a href="#KeyAxiom" target="_top" title="#KeyAxiom" xlink:actuate="onRequest" xlink:href="#KeyAxiom" xlink:show="new" xlink:title="#KeyAxiom" xlink:type="simple"><g ><rect codeLine="23" fill="#D3D3D3" height="32"  rx="2.5" ry="2.5" style="stroke:#000000;stroke-width:0.5;" width="98" x="721" y="593.5"/><ellipse cx="736" cy="609.5" fill="#ADD1B2" rx="11" ry="11" style="stroke:#181818;stroke-width:1.0;"/><path d="M738.9688,615.1406 Q738.3906,615.4375 737.75,615.5781 Q737.1094,615.7344 736.4063,615.7344 Q733.9063,615.7344 732.5781,614.0938 Q731.2656,612.4375 731.2656,609.3125 Q731.2656,606.1875 732.5781,604.5313 Q733.9063,602.875 736.4063,602.875 Q737.1094,602.875 737.75,603.0313 Q738.4063,603.1875 738.9688,603.4844 L738.9688,606.2031 Q738.3438,605.625 737.75,605.3594 Q737.1563,605.0781 736.5313,605.0781 Q735.1875,605.0781 734.5,606.1563 Q733.8125,607.2188 733.8125,609.3125 Q733.8125,611.4063 734.5,612.4844 Q735.1875,613.5469 736.5313,613.5469 Q737.1563,613.5469 737.75,613.2813 Q738.3438,613 738.9688,612.4219 L738.9688,615.1406 Z " fill="#000000"/><text fill="#000000" font-family="sans-serif" font-size="14" lengthAdjust="spacing" textLength="66" x="750" y="614.3467">KeyAxiom</text></g></a><!--MD5=[ef3b7903466650ba5f08061aaf9d23c0]
class EnumeratedScalar--><a href="#EnumeratedScalar" target="_top" title="#EnumeratedScalar" xlink:actuate="onRequest" xlink:href="#EnumeratedScalar" xlink:show="new" xlink:title="#EnumeratedScalar" xlink:type="simple"><g ><rect codeLine="28" fill="#FFFFFF" height="40"  rx="2.5" ry="2.5" style="stroke:#000000;stroke-width:0.5;" width="158" x="1012" y="358.5"/><ellipse cx="1027" cy="374.5" fill="#ADD1B2" rx="11" ry="11" style="stroke:#181818;stroke-width:1.0;"/><path d="M1029.9688,380.1406 Q1029.3906,380.4375 1028.75,380.5781 Q1028.1094,380.7344 1027.4063,380.7344 Q1024.9063,380.7344 1023.5781,379.0938 Q1022.2656,377.4375 1022.2656,374.3125 Q1022.2656,371.1875 1023.5781,369.5313 Q1024.9063,367.875 1027.4063,367.875 Q1028.1094,367.875 1028.75,368.0313 Q1029.4063,368.1875 1029.9688,368.4844 L1029.9688,371.2031 Q1029.3438,370.625 1028.75,370.3594 Q1028.1563,370.0781 1027.5313,370.0781 Q1026.1875,370.0781 1025.5,371.1563 Q1024.8125,372.2188 1024.8125,374.3125 Q1024.8125,376.4063 1025.5,377.4844 Q1026.1875,378.5469 1027.5313,378.5469 Q1028.1563,378.5469 1028.75,378.2813 Q1029.3438,378 1029.9688,377.4219 L1029.9688,380.1406 Z " fill="#000000"/><text fill="#000000" font-family="sans-serif" font-size="14" lengthAdjust="spacing" textLength="126" x="1041" y="379.3467">EnumeratedScalar</text><line style="stroke:#000000;stroke-width:0.5;" x1="1013" x2="1169" y1="390.5" y2="390.5"/></g></a><!--MD5=[27bfdb9e128171e0e365013b6b91e809]
class Literal--><a href="#Literal" target="_top" title="#Literal" xlink:actuate="onRequest" xlink:href="#Literal" xlink:show="new" xlink:title="#Literal" xlink:type="simple"><g ><rect codeLine="47" fill="#D3D3D3" height="32"  rx="2.5" ry="2.5" style="stroke:#000000;stroke-width:0.5;" width="72" x="1259" y="593.5"/><ellipse cx="1274" cy="609.5" fill="#A9DCDF" rx="11" ry="11" style="stroke:#181818;stroke-width:1.0;"/><path d="M1274.1094,604.8438 L1272.9531,609.9219 L1275.2813,609.9219 L1274.1094,604.8438 Z M1272.625,602.6094 L1275.6094,602.6094 L1278.9688,615 L1276.5156,615 L1275.75,611.9375 L1272.4688,611.9375 L1271.7188,615 L1269.2813,615 L1272.625,602.6094 Z " fill="#000000"/><text fill="#000000" font-family="sans-serif" font-size="14" font-style="italic" lengthAdjust="spacing" textLength="40" x="1288" y="614.3467">Literal</text></g></a><!--MD5=[8df1fea275d58a2acc76681eea45b180]
class Scalar--><a href="#Scalar" target="_top" title="#Scalar" xlink:actuate="onRequest" xlink:href="#Scalar" xlink:show="new" xlink:title="#Scalar" xlink:type="simple"><g ><rect codeLine="72" fill="#FFFFFF" height="40"  rx="2.5" ry="2.5" style="stroke:#000000;stroke-width:0.5;" width="73" x="1054.5" y="201"/><ellipse cx="1069.5" cy="217" fill="#A9DCDF" rx="11" ry="11" style="stroke:#181818;stroke-width:1.0;"/><path d="M1069.6094,212.3438 L1068.4531,217.4219 L1070.7813,217.4219 L1069.6094,212.3438 Z M1068.125,210.1094 L1071.1094,210.1094 L1074.4688,222.5 L1072.0156,222.5 L1071.25,219.4375 L1067.9688,219.4375 L1067.2188,222.5 L1064.7813,222.5 L1068.125,210.1094 Z " fill="#000000"/><text fill="#000000" font-family="sans-serif" font-size="14" font-style="italic" lengthAdjust="spacing" textLength="41" x="1083.5" y="221.8467">Scalar</text><line style="stroke:#000000;stroke-width:0.5;" x1="1055.5" x2="1126.5" y1="233" y2="233"/></g></a><!--MD5=[b457e535d236c428f05afb59cbebeff6]
class FacetedScalar--><a href="#FacetedScalar" target="_top" title="#FacetedScalar" xlink:actuate="onRequest" xlink:href="#FacetedScalar" xlink:show="new" xlink:title="#FacetedScalar" xlink:type="simple"><g ><rect codeLine="34" fill="#FFFFFF" height="121.4844"  rx="2.5" ry="2.5" style="stroke:#000000;stroke-width:0.5;" width="216" x="1205" y="318"/><ellipse cx="1260.25" cy="334" fill="#ADD1B2" rx="11" ry="11" style="stroke:#181818;stroke-width:1.0;"/><path d="M1263.2188,339.6406 Q1262.6406,339.9375 1262,340.0781 Q1261.3594,340.2344 1260.6563,340.2344 Q1258.1563,340.2344 1256.8281,338.5938 Q1255.5156,336.9375 1255.5156,333.8125 Q1255.5156,330.6875 1256.8281,329.0313 Q1258.1563,327.375 1260.6563,327.375 Q1261.3594,327.375 1262,327.5313 Q1262.6563,327.6875 1263.2188,327.9844 L1263.2188,330.7031 Q1262.5938,330.125 1262,329.8594 Q1261.4063,329.5781 1260.7813,329.5781 Q1259.4375,329.5781 1258.75,330.6563 Q1258.0625,331.7188 1258.0625,333.8125 Q1258.0625,335.9063 1258.75,336.9844 Q1259.4375,338.0469 1260.7813,338.0469 Q1261.4063,338.0469 1262,337.7813 Q1262.5938,337.5 1263.2188,336.9219 L1263.2188,339.6406 Z " fill="#000000"/><text fill="#000000" font-family="sans-serif" font-size="14" lengthAdjust="spacing" textLength="97" x="1280.75" y="338.8467">FacetedScalar</text><line style="stroke:#000000;stroke-width:0.5;" x1="1206" x2="1420" y1="350" y2="350"/><text fill="#000000" font-family="sans-serif" font-size="14" lengthAdjust="spacing" textLength="172" x="1211" y="366.9951">length : UnsignedInteger</text><text fill="#000000" font-family="sans-serif" font-size="14" lengthAdjust="spacing" textLength="201" x="1211" y="383.292">minLength : UnsignedInteger</text><text fill="#000000" font-family="sans-serif" font-size="14" lengthAdjust="spacing" textLength="204" x="1211" y="399.5889">maxLength : UnsignedInteger</text><text fill="#000000" font-family="sans-serif" font-size="14" lengthAdjust="spacing" textLength="103" x="1211" y="415.8857">pattern : String</text><text fill="#000000" font-family="sans-serif" font-size="14" lengthAdjust="spacing" textLength="117" x="1211" y="432.1826">language : String</text></g></a><!--MD5=[aab7500fd9d770c3f442ebfe1c6f0d62]
class RelationEntity--><a href="#RelationEntity" target="_top" title="#RelationEntity" xlink:actuate="onRequest" xlink:href="#RelationEntity" xlink:show="new" xlink:title="#RelationEntity" xlink:type="simple"><g ><rect codeLine="54" fill="#FFFFFF" height="186.6719"  rx="2.5" ry="2.5" style="stroke:#000000;stroke-width:0.5;" width="203" x="853.5" y="516"/><ellipse cx="903.75" cy="532" fill="#ADD1B2" rx="11" ry="11" style="stroke:#181818;stroke-width:1.0;"/><path d="M906.7188,537.6406 Q906.1406,537.9375 905.5,538.0781 Q904.8594,538.2344 904.1563,538.2344 Q901.6563,538.2344 900.3281,536.5938 Q899.0156,534.9375 899.0156,531.8125 Q899.0156,528.6875 900.3281,527.0313 Q901.6563,525.375 904.1563,525.375 Q904.8594,525.375 905.5,525.5313 Q906.1563,525.6875 906.7188,525.9844 L906.7188,528.7031 Q906.0938,528.125 905.5,527.8594 Q904.9063,527.5781 904.2813,527.5781 Q902.9375,527.5781 902.25,528.6563 Q901.5625,529.7188 901.5625,531.8125 Q901.5625,533.9063 902.25,534.9844 Q902.9375,536.0469 904.2813,536.0469 Q904.9063,536.0469 905.5,535.7813 Q906.0938,535.5 906.7188,534.9219 L906.7188,537.6406 Z " fill="#000000"/><text fill="#000000" font-family="sans-serif" font-size="14" lengthAdjust="spacing" textLength="94" x="924.25" y="536.8467">RelationEntity</text><line style="stroke:#000000;stroke-width:0.5;" x1="854.5" x2="1055.5" y1="548" y2="548"/><text fill="#000000" font-family="sans-serif" font-size="14" lengthAdjust="spacing" textLength="137" x="859.5" y="564.9951">functional : Boolean</text><text fill="#000000" font-family="sans-serif" font-size="14" lengthAdjust="spacing" textLength="191" x="859.5" y="581.292">inverseFunctional : Boolean</text><text fill="#000000" font-family="sans-serif" font-size="14" lengthAdjust="spacing" textLength="141" x="859.5" y="597.5889">symmetric : Boolean</text><text fill="#000000" font-family="sans-serif" font-size="14" lengthAdjust="spacing" textLength="149" x="859.5" y="613.8857">asymmetric : Boolean</text><text fill="#000000" font-family="sans-serif" font-size="14" lengthAdjust="spacing" textLength="126" x="859.5" y="630.1826">reflexive : Boolean</text><text fill="#000000" font-family="sans-serif" font-size="14" lengthAdjust="spacing" textLength="134" x="859.5" y="646.4795">irreflexive : Boolean</text><text fill="#000000" font-family="sans-serif" font-size="14" lengthAdjust="spacing" textLength="132" x="859.5" y="662.7764">transitive : Boolean</text><text fill="#000000" font-family="sans-serif" font-size="14" lengthAdjust="spacing" textLength="122" x="859.5" y="679.0732">source : Entity [1]</text><text fill="#000000" font-family="sans-serif" font-size="14" lengthAdjust="spacing" textLength="115" x="859.5" y="695.3701">target : Entity [1]</text></g></a><!--MD5=[dc339a869eaac90210cd41e61d476bcb]
class ForwardRelation--><a href="#ForwardRelation" target="_top" title="#ForwardRelation" xlink:actuate="onRequest" xlink:href="#ForwardRelation" xlink:show="new" xlink:title="#ForwardRelation" xlink:type="simple"><g ><rect codeLine="65" fill="#D3D3D3" height="32"  rx="2.5" ry="2.5" style="stroke:#000000;stroke-width:0.5;" width="143" x="793.5" y="780"/><ellipse cx="808.5" cy="796" fill="#ADD1B2" rx="11" ry="11" style="stroke:#181818;stroke-width:1.0;"/><path d="M811.4688,801.6406 Q810.8906,801.9375 810.25,802.0781 Q809.6094,802.2344 808.9063,802.2344 Q806.4063,802.2344 805.0781,800.5938 Q803.7656,798.9375 803.7656,795.8125 Q803.7656,792.6875 805.0781,791.0313 Q806.4063,789.375 808.9063,789.375 Q809.6094,789.375 810.25,789.5313 Q810.9063,789.6875 811.4688,789.9844 L811.4688,792.7031 Q810.8438,792.125 810.25,791.8594 Q809.6563,791.5781 809.0313,791.5781 Q807.6875,791.5781 807,792.6563 Q806.3125,793.7188 806.3125,795.8125 Q806.3125,797.9063 807,798.9844 Q807.6875,800.0469 809.0313,800.0469 Q809.6563,800.0469 810.25,799.7813 Q810.8438,799.5 811.4688,798.9219 L811.4688,801.6406 Z " fill="#000000"/><text fill="#000000" font-family="sans-serif" font-size="14" lengthAdjust="spacing" textLength="111" x="822.5" y="800.8467">ForwardRelation</text></g></a><!--MD5=[ea8230de58a0a355a330f3be22216fed]
class ReverseRelation--><a href="#ReverseRelation" target="_top" title="#ReverseRelation" xlink:actuate="onRequest" xlink:href="#ReverseRelation" xlink:show="new" xlink:title="#ReverseRelation" xlink:type="simple"><g ><rect codeLine="67" fill="#D3D3D3" height="32"  rx="2.5" ry="2.5" style="stroke:#000000;stroke-width:0.5;" width="145" x="971.5" y="780"/><ellipse cx="986.5" cy="796" fill="#ADD1B2" rx="11" ry="11" style="stroke:#181818;stroke-width:1.0;"/><path d="M989.4688,801.6406 Q988.8906,801.9375 988.25,802.0781 Q987.6094,802.2344 986.9063,802.2344 Q984.4063,802.2344 983.0781,800.5938 Q981.7656,798.9375 981.7656,795.8125 Q981.7656,792.6875 983.0781,791.0313 Q984.4063,789.375 986.9063,789.375 Q987.6094,789.375 988.25,789.5313 Q988.9063,789.6875 989.4688,789.9844 L989.4688,792.7031 Q988.8438,792.125 988.25,791.8594 Q987.6563,791.5781 987.0313,791.5781 Q985.6875,791.5781 985,792.6563 Q984.3125,793.7188 984.3125,795.8125 Q984.3125,797.9063 985,798.9844 Q985.6875,800.0469 987.0313,800.0469 Q987.6563,800.0469 988.25,799.7813 Q988.8438,799.5 989.4688,798.9219 L989.4688,801.6406 Z " fill="#000000"/><text fill="#000000" font-family="sans-serif" font-size="14" lengthAdjust="spacing" textLength="113" x="1000.5" y="800.8467">ReverseRelation</text></g></a><!--MD5=[3915787db80ab162e3259f8f86339844]
class Structure--><a href="#Structure" target="_top" title="#Structure" xlink:actuate="onRequest" xlink:href="#Structure" xlink:show="new" xlink:title="#Structure" xlink:type="simple"><g ><rect codeLine="75" fill="#FFFFFF" height="40"  rx="2.5" ry="2.5" style="stroke:#000000;stroke-width:0.5;" width="96" x="881" y="358.5"/><ellipse cx="896" cy="374.5" fill="#ADD1B2" rx="11" ry="11" style="stroke:#181818;stroke-width:1.0;"/><path d="M898.9688,380.1406 Q898.3906,380.4375 897.75,380.5781 Q897.1094,380.7344 896.4063,380.7344 Q893.9063,380.7344 892.5781,379.0938 Q891.2656,377.4375 891.2656,374.3125 Q891.2656,371.1875 892.5781,369.5313 Q893.9063,367.875 896.4063,367.875 Q897.1094,367.875 897.75,368.0313 Q898.4063,368.1875 898.9688,368.4844 L898.9688,371.2031 Q898.3438,370.625 897.75,370.3594 Q897.1563,370.0781 896.5313,370.0781 Q895.1875,370.0781 894.5,371.1563 Q893.8125,372.2188 893.8125,374.3125 Q893.8125,376.4063 894.5,377.4844 Q895.1875,378.5469 896.5313,378.5469 Q897.1563,378.5469 897.75,378.2813 Q898.3438,378 898.9688,377.4219 L898.9688,380.1406 Z " fill="#000000"/><text fill="#000000" font-family="sans-serif" font-size="14" lengthAdjust="spacing" textLength="64" x="910" y="379.3467">Structure</text><line style="stroke:#000000;stroke-width:0.5;" x1="882" x2="976" y1="390.5" y2="390.5"/></g></a><!--MD5=[a052ffd04a2a5cd2f202acb632be8a32]
class SpecializableTerm--><a href="#SpecializableTerm" target="_top" title="#SpecializableTerm" xlink:actuate="onRequest" xlink:href="#SpecializableTerm" xlink:show="new" xlink:title="#SpecializableTerm" xlink:type="simple"><g ><rect codeLine="80" fill="#D3D3D3" height="32"  rx="2.5" ry="2.5" style="stroke:#000000;stroke-width:0.5;" width="157" x="912.5" y="7"/><ellipse cx="927.5" cy="23" fill="#A9DCDF" rx="11" ry="11" style="stroke:#181818;stroke-width:1.0;"/><path d="M927.6094,18.3438 L926.4531,23.4219 L928.7813,23.4219 L927.6094,18.3438 Z M926.125,16.1094 L929.1094,16.1094 L932.4688,28.5 L930.0156,28.5 L929.25,25.4375 L925.9688,25.4375 L925.2188,28.5 L922.7813,28.5 L926.125,16.1094 Z " fill="#000000"/><text fill="#000000" font-family="sans-serif" font-size="14" font-style="italic" lengthAdjust="spacing" textLength="125" x="941.5" y="27.8467">SpecializableTerm</text></g></a><!--MD5=[0abf851eea2009ab8e245bc302625de3]
reverse link Entity to Aspect--><g ><a href="#Entity" target="_top" title="#Entity" xlink:actuate="onRequest" xlink:href="#Entity" xlink:show="new" xlink:title="#Entity" xlink:type="simple"><path codeLine="8" d="M506.915,383.333 C414.703,392.285 227.113,421.611 104,516 C79.1501,535.052 62.5606,568.29 53.9674,589.305 " fill="none"  style="stroke:#000000;stroke-width:1.0;"/><polygon fill="none" points="506.374,376.354,526.911,381.57,507.603,390.3,506.374,376.354" style="stroke:#000000;stroke-width:1.0;"/></a></g><!--MD5=[0d3949cae1fd8482e1cbd479cbe08885]
reverse link Type to Classifier--><g ><a href="#Type" target="_top" title="#Type" xlink:actuate="onRequest" xlink:href="#Type" xlink:show="new" xlink:title="#Type" xlink:type="simple"><path codeLine="13" d="M939.179,144.642 C901.522,161.822 851.2,184.78 816.033,200.824 " fill="none"  style="stroke:#000000;stroke-width:1.0;"/><polygon fill="none" points="936.468,138.185,957.569,136.252,942.279,150.922,936.468,138.185" style="stroke:#000000;stroke-width:1.0;"/></a></g><!--MD5=[f7ce2e3c3abb92329d246d3e7650ce51]
link Classifier to PropertyRestrictionAxiom--><g ><path codeLine="14" d="M744.0727,250.3924 C744.0727,250.3924 734.575,264.038 732,271 C722.63,296.331 724.924,327.413 728.626,349.445 " fill="none"  style="stroke:#000000;stroke-width:1.0;"/><polygon fill="#000000" points="731.153,362.464,733.3647,352.8667,730.2002,357.5556,725.5113,354.3911,731.153,362.464" style="stroke:#000000;stroke-width:1.0;"/><line style="stroke:#000000;stroke-width:1.0;" x1="730.2002" x2="728.6755" y1="357.5556" y2="349.702"/><polygon fill="#000000" points="751.883,241.282,744.9411,243.2338,744.0727,250.3924,751.0147,248.4406,751.883,241.282" style="stroke:#000000;stroke-width:1.0;"/><text fill="#000000" font-family="sans-serif" font-size="13" lengthAdjust="spacing" textLength="169" x="733" y="284.0669">ownedPropertyRestrictions</text><text fill="#000000" font-family="sans-serif" font-size="13" lengthAdjust="spacing" textLength="7" x="721.6275" y="351.4632">*</text></g><!--MD5=[ce0521f33bac9a60c2dc1cddde561f51]
reverse link Entity to Concept--><g ><a href="#Entity" target="_top" title="#Entity" xlink:actuate="onRequest" xlink:href="#Entity" xlink:show="new" xlink:title="#Entity" xlink:type="simple"><path codeLine="18" d="M522.707,411.408 C466.983,456.659 365.963,538.693 313.559,581.248 " fill="none"  style="stroke:#000000;stroke-width:1.0;"/><polygon fill="none" points="518.503,405.804,538.442,398.631,527.329,416.672,518.503,405.804" style="stroke:#000000;stroke-width:1.0;"/></a></g><!--MD5=[7a97ffb6ab9ea2c0361d9098f8e56954]
reverse link Classifier to Entity--><g ><a href="#Classifier" target="_top" title="#Classifier" xlink:actuate="onRequest" xlink:href="#Classifier" xlink:show="new" xlink:title="#Classifier" xlink:type="simple"><path codeLine="25" d="M717.612,250.604 C685.918,267.979 646.517,291.82 615,318 C600.528,330.021 586.474,346.063 576.479,358.46 " fill="none"  style="stroke:#000000;stroke-width:1.0;"/><polygon fill="none" points="714.329,244.422,735.265,241.152,720.937,256.764,714.329,244.422" style="stroke:#000000;stroke-width:1.0;"/></a></g><!--MD5=[e398db1197e6c5bdd946960046feaa11]
link Entity to RelationRestrictionAxiom--><g ><path codeLine="26" d="M560.6992,410.6908 C560.6992,410.6908 559.317,450.055 559,469 C558.873,476.554 558.54,478.458 559,486 C560.985,518.537 565.908,555.667 569.577,580.438 " fill="none"  style="stroke:#000000;stroke-width:1.0;"/><polygon fill="#000000" points="571.56,593.467,574.1606,583.9677,570.8078,588.5239,566.2516,585.1711,571.56,593.467" style="stroke:#000000;stroke-width:1.0;"/><line style="stroke:#000000;stroke-width:1.0;" x1="570.8078" x2="569.6035" y1="588.5239" y2="580.6155"/><polygon fill="#000000" points="561.17,398.7,556.9377,404.5385,560.6992,410.6908,564.9315,404.8523,561.17,398.7" style="stroke:#000000;stroke-width:1.0;"/><text fill="#000000" font-family="sans-serif" font-size="13" lengthAdjust="spacing" textLength="166" x="560" y="482.0669">ownedRelationRestrictions</text><text fill="#000000" font-family="sans-serif" font-size="13" lengthAdjust="spacing" textLength="7" x="562.5181" y="582.4673">*</text></g><!--MD5=[db23ab7cdfc400530cdecb4e86d3af31]
link Entity to KeyAxiom--><g ><path codeLine="27" d="M581.706,408.0981 C581.706,408.0981 602.514,431.377 615,439 C660.451,466.747 692.979,431.715 731,469 C760.915,498.336 768.41,548.576 769.998,580.084 " fill="none"  style="stroke:#000000;stroke-width:1.0;"/><polygon fill="#000000" points="770.373,593.487,774.1202,584.3789,770.2334,588.4889,766.1233,584.6022,770.373,593.487" style="stroke:#000000;stroke-width:1.0;"/><line style="stroke:#000000;stroke-width:1.0;" x1="770.2334" x2="770.009" y1="588.4889" y2="580.492"/><polygon fill="#000000" points="574.398,398.58,574.8793,405.775,581.706,408.0981,581.2247,400.903,574.398,398.58" style="stroke:#000000;stroke-width:1.0;"/><text fill="#000000" font-family="sans-serif" font-size="13" lengthAdjust="spacing" textLength="71" x="745" y="482.0669">ownedKeys</text><text fill="#000000" font-family="sans-serif" font-size="13" lengthAdjust="spacing" textLength="7" x="762.2981" y="582.4941">*</text></g><!--MD5=[d34601941b18db560d39ba6cfde1f444]
reverse link Scalar to EnumeratedScalar--><g ><a href="#Scalar" target="_top" title="#Scalar" xlink:actuate="onRequest" xlink:href="#Scalar" xlink:show="new" xlink:title="#Scalar" xlink:type="simple"><path codeLine="32" d="M1091,261.3 C1091,292.295 1091,334.184 1091,358.277 " fill="none"  style="stroke:#000000;stroke-width:1.0;"/><polygon fill="none" points="1084,261.067,1091,241.067,1098,261.067,1084,261.067" style="stroke:#000000;stroke-width:1.0;"/></a></g><!--MD5=[587999de1a2f7ed3d8db6eeb8c6ecc99]
link EnumeratedScalar to Literal--><g ><path codeLine="33" d="M1092.0648,410.8321 C1092.0648,410.8321 1100.15,464.173 1115,486 C1147.54,533.826 1205.5,568.248 1246.86,588.2 " fill="none"  style="stroke:#000000;stroke-width:1.0;"/><polygon fill="#000000" points="1258.85,593.806,1252.3957,586.3668,1254.3219,591.6856,1249.0031,593.6118,1258.85,593.806" style="stroke:#000000;stroke-width:1.0;"/><line style="stroke:#000000;stroke-width:1.0;" x1="1254.3219" x2="1247.07" y1="591.6856" y2="588.2995"/><polygon fill="#000000" points="1091.19,398.864,1087.6381,405.1396,1092.0648,410.8321,1095.6168,404.5564,1091.19,398.864" style="stroke:#000000;stroke-width:1.0;"/><text fill="#000000" font-family="sans-serif" font-size="13" lengthAdjust="spacing" textLength="42" x="1116" y="482.0669">literals</text><text fill="#000000" font-family="sans-serif" font-size="13" lengthAdjust="spacing" textLength="7" x="1244.0439" y="586.3196">*</text></g><!--MD5=[972544b9b2216cb60217d4d5ecdc7cf9]
reverse link Scalar to FacetedScalar--><g ><a href="#Scalar" target="_top" title="#Scalar" xlink:actuate="onRequest" xlink:href="#Scalar" xlink:show="new" xlink:title="#Scalar" xlink:type="simple"><path codeLine="49" d="M1134.78,252.666 C1161.37,271.292 1196.22,295.702 1228.04,317.991 " fill="none"  style="stroke:#000000;stroke-width:1.0;"/><polygon fill="none" points="1130.59,258.275,1118.22,241.067,1138.62,246.808,1130.59,258.275" style="stroke:#000000;stroke-width:1.0;"/></a></g><!--MD5=[ac888ded481ed088dd1064eafc8a628d]
link FacetedScalar to Literal--><g ><path codeLine="50" d="M1195.97,438.7893 C1195.97,438.7893 1178.01,458.062 1172,469 C1145.94,516.403 1206.67,561.505 1251.75,587.018 " fill="none"  style="stroke:#000000;stroke-width:1.0;"/><polygon fill="#000000" points="1263.39,593.375,1257.4074,585.5514,1259.0014,590.979,1253.5738,592.5731,1263.39,593.375" style="stroke:#000000;stroke-width:1.0;"/><line style="stroke:#000000;stroke-width:1.0;" x1="1259.0014" x2="1251.98" y1="590.979" y2="587.143"/><polygon fill="#000000" points="1204.97,430.852,1197.8243,431.8206,1195.97,438.7893,1203.1158,437.8206,1204.97,430.852" style="stroke:#000000;stroke-width:1.0;"/><text fill="#000000" font-family="sans-serif" font-size="13" lengthAdjust="spacing" textLength="78" x="1173" y="482.0669">minInclusive</text><text fill="#000000" font-family="sans-serif" font-size="13" lengthAdjust="spacing" textLength="24" x="1256.6491" y="582.3436">0..1</text></g><!--MD5=[ac888ded481ed088dd1064eafc8a628d]
link FacetedScalar to Literal--><g ><path codeLine="51" d="M1294.6903,451.1264 C1294.6903,451.1264 1292.63,463.56 1292,469 C1287.56,507.32 1289.81,551.944 1292.14,580.202 " fill="none"  style="stroke:#000000;stroke-width:1.0;"/><polygon fill="#000000" points="1293.33,593.367,1296.5025,584.0431,1292.8793,588.3874,1288.535,584.7642,1293.33,593.367" style="stroke:#000000;stroke-width:1.0;"/><line style="stroke:#000000;stroke-width:1.0;" x1="1292.8793" x2="1292.16" y1="588.3874" y2="580.42"/><polygon fill="#000000" points="1296.96,439.343,1291.8974,444.4781,1294.6903,451.1264,1299.753,445.9913,1296.96,439.343" style="stroke:#000000;stroke-width:1.0;"/><text fill="#000000" font-family="sans-serif" font-size="13" lengthAdjust="spacing" textLength="82" x="1293" y="482.0669">minExclusive</text><text fill="#000000" font-family="sans-serif" font-size="13" lengthAdjust="spacing" textLength="24" x="1296.8809" y="582.3329">0..1</text></g><!--MD5=[ac888ded481ed088dd1064eafc8a628d]
link FacetedScalar to Literal--><g ><path codeLine="52" d="M1377.7627,449.9288 C1377.7627,449.9288 1383.71,474.135 1380,486 C1368.13,523.919 1339.94,560.405 1319.26,583.545 " fill="none"  style="stroke:#000000;stroke-width:1.0;"/><polygon fill="#000000" points="1310.38,593.195,1319.4201,589.2866,1313.768,589.5179,1313.5367,583.8657,1310.38,593.195" style="stroke:#000000;stroke-width:1.0;"/><line style="stroke:#000000;stroke-width:1.0;" x1="1313.768" x2="1319.185" y1="589.5179" y2="583.631"/><polygon fill="#000000" points="1372.67,439.063,1371.5944,446.1934,1377.7627,449.9288,1378.8383,442.7983,1372.67,439.063" style="stroke:#000000;stroke-width:1.0;"/><text fill="#000000" font-family="sans-serif" font-size="13" lengthAdjust="spacing" textLength="82" x="1384" y="482.0669">maxInclusive</text><text fill="#000000" font-family="sans-serif" font-size="13" lengthAdjust="spacing" textLength="24" x="1319.4496" y="582.3985">0..1</text></g><!--MD5=[ac888ded481ed088dd1064eafc8a628d]
link FacetedScalar to Literal--><g ><path codeLine="53" d="M1432.1299,414.0284 C1432.1299,414.0284 1491.47,454.86 1475,486 C1447.49,538.002 1386.9,572.051 1343.62,590.757 " fill="none"  style="stroke:#000000;stroke-width:1.0;"/><polygon fill="#000000" points="1331.36,595.85,1341.2059,596.0924,1335.9777,593.9324,1338.1377,588.7042,1331.36,595.85" style="stroke:#000000;stroke-width:1.0;"/><line style="stroke:#000000;stroke-width:1.0;" x1="1335.9777" x2="1343.365" y1="593.9324" y2="590.863"/><polygon fill="#000000" points="1421.22,409.031,1425.0091,415.1663,1432.1299,414.0284,1428.3408,407.8931,1421.22,409.031" style="stroke:#000000;stroke-width:1.0;"/><text fill="#000000" font-family="sans-serif" font-size="13" lengthAdjust="spacing" textLength="86" x="1481" y="482.0669">maxExclusive</text><text fill="#000000" font-family="sans-serif" font-size="13" lengthAdjust="spacing" textLength="24" x="1339.0674" y="606.9473">0..1</text></g><!--MD5=[769665a087eec7164dd7e62a839028f3]
reverse link Entity to RelationEntity--><g ><a href="#Entity" target="_top" title="#Entity" xlink:actuate="onRequest" xlink:href="#Entity" xlink:show="new" xlink:title="#Entity" xlink:type="simple"><path codeLine="69" d="M585.983,414.53 C594.115,423.912 603.969,433.081 615,439 C698.076,483.579 741.428,425.357 825,469 C847.302,480.646 867.819,497.673 885.647,515.858 " fill="none"  style="stroke:#000000;stroke-width:1.0;"/><polygon fill="none" points="580.349,418.688,573.674,398.577,591.434,410.136,580.349,418.688" style="stroke:#000000;stroke-width:1.0;"/></a></g><!--MD5=[a5fb297f76ff2e75ae61d7928a3e9c9c]
link RelationEntity to ForwardRelation--><g ><path codeLine="70" d="M904.607,713.8053 C904.607,713.8053 885.261,753.466 878.183,767.9756 " fill="none"  style="stroke:#000000;stroke-width:1.0;"/><polygon fill="#000000" points="872.338,779.9566,879.8789,773.6213,874.5301,775.4627,872.6887,770.114,872.338,779.9566" style="stroke:#000000;stroke-width:1.0;"/><line style="stroke:#000000;stroke-width:1.0;" x1="874.5301" x2="878.0375" y1="775.4627" y2="768.2727"/><polygon fill="#000000" points="909.868,703.02,903.6424,706.659,904.607,713.8053,910.8326,710.1663,909.868,703.02" style="stroke:#000000;stroke-width:1.0;"/><text fill="#000000" font-family="sans-serif" font-size="13" lengthAdjust="spacing" textLength="98" x="896" y="746.0669">forwardRelation</text><text fill="#000000" font-family="sans-serif" font-size="13" lengthAdjust="spacing" textLength="24" x="846.7354" y="768.9533">0..1</text></g><!--MD5=[473be8f3a13b95f4854ae12e37866249]
link RelationEntity to ReverseRelation--><g ><path codeLine="71" d="M1004.8422,713.8289 C1004.8422,713.8289 1023.96,753.466 1030.96,767.9756 " fill="none"  style="stroke:#000000;stroke-width:1.0;"/><polygon fill="#000000" points="1036.74,779.9566,1036.4295,770.1126,1034.5663,775.4538,1029.225,773.5906,1036.74,779.9566" style="stroke:#000000;stroke-width:1.0;"/><line style="stroke:#000000;stroke-width:1.0;" x1="1034.5663" x2="1031.095" y1="775.4538" y2="768.2477"/><polygon fill="#000000" points="999.63,703.02,998.6332,710.1619,1004.8422,713.8289,1005.8391,706.687,999.63,703.02" style="stroke:#000000;stroke-width:1.0;"/><text fill="#000000" font-family="sans-serif" font-size="13" lengthAdjust="spacing" textLength="99" x="1022" y="746.0669">reverseRelation</text><text fill="#000000" font-family="sans-serif" font-size="13" lengthAdjust="spacing" textLength="24" x="1006.1194" y="768.9533">0..1</text></g><!--MD5=[8a7fe0c796e206ec2d738c1808358d2f]
reverse link Type to Scalar--><g ><a href="#Type" target="_top" title="#Type" xlink:actuate="onRequest" xlink:href="#Type" xlink:show="new" xlink:title="#Type" xlink:type="simple"><path codeLine="74" d="M1024.87,154.534 C1040.51,170.018 1058.51,187.836 1071.78,200.97 " fill="none"  style="stroke:#000000;stroke-width:1.0;"/><polygon fill="none" points="1019.57,159.134,1010.28,140.088,1029.42,149.185,1019.57,159.134" style="stroke:#000000;stroke-width:1.0;"/></a></g><!--MD5=[922d876f033ed0737806170cbb54f612]
reverse link Classifier to Structure--><g ><a href="#Classifier" target="_top" title="#Classifier" xlink:actuate="onRequest" xlink:href="#Classifier" xlink:show="new" xlink:title="#Classifier" xlink:type="simple"><path codeLine="77" d="M839.951,232.394 C864.257,239.434 889.983,251.233 907,271 C928.063,295.468 930.803,334.766 930.301,358.166 " fill="none"  style="stroke:#000000;stroke-width:1.0;"/><polygon fill="none" points="838.275,239.191,820.525,227.619,841.618,225.596,838.275,239.191" style="stroke:#000000;stroke-width:1.0;"/></a></g><!--MD5=[390e593eb08e5c364c6f56fa2b328cb9]
reverse link SpecializableTerm to Type--><g ><a href="#SpecializableTerm" target="_top" title="#SpecializableTerm" xlink:actuate="onRequest" xlink:href="#SpecializableTerm" xlink:show="new" xlink:title="#SpecializableTerm" xlink:type="simple"><path codeLine="82" d="M991,59.472 C991,73.156 991,88.266 991,99.838 " fill="none"  style="stroke:#000000;stroke-width:1.0;"/><polygon fill="none" points="984,59.263,991,39.263,998,59.263,984,59.263" style="stroke:#000000;stroke-width:1.0;"/></a></g><!--MD5=[fc1ee92e1c015fa776c7f5792549c0a2]
@startuml
skinparam classBackgroundColor LightGray
skinparam classBorderColor Black
skinparam enumBorderColor Black
skinparam ArrowColor Black
hide methods
class Aspect [[#Aspect]] #white {
}
Aspect -up-|> Entity [[#Entity]]
abstract class Classifier [[#Classifier]] #white {
}
abstract class PropertyRestrictionAxiom [[#PropertyRestrictionAxiom]]
hide PropertyRestrictionAxiom members
Classifier -up-|> Type [[#Type]]
Classifier *- -> "*" PropertyRestrictionAxiom : ownedPropertyRestrictions
class Concept [[#Concept]] #white {
	enumeratedInstances : ConceptInstance [*]
}
Concept -up-|> Entity [[#Entity]]
abstract class Entity [[#Entity]] #white {
}
abstract class RelationRestrictionAxiom [[#RelationRestrictionAxiom]]
hide RelationRestrictionAxiom members
class KeyAxiom [[#KeyAxiom]]
hide KeyAxiom members
Entity -up-|> Classifier [[#Classifier]]
Entity *- -> "*" RelationRestrictionAxiom : ownedRelationRestrictions
Entity *- -> "*" KeyAxiom : ownedKeys
class EnumeratedScalar [[#EnumeratedScalar]] #white {
}
abstract class Literal [[#Literal]]
hide Literal members
EnumeratedScalar -up-|> Scalar [[#Scalar]]
EnumeratedScalar *- -> "*" Literal : literals
class FacetedScalar [[#FacetedScalar]] #white {
	length : UnsignedInteger
	minLength : UnsignedInteger
	maxLength : UnsignedInteger
	pattern : String
	language : String
}
abstract class Literal [[#Literal]]
hide Literal members
abstract class Literal [[#Literal]]
hide Literal members
abstract class Literal [[#Literal]]
hide Literal members
abstract class Literal [[#Literal]]
hide Literal members
FacetedScalar -up-|> Scalar [[#Scalar]]
FacetedScalar *- -> "0..1" Literal : minInclusive
FacetedScalar *- -> "0..1" Literal : minExclusive
FacetedScalar *- -> "0..1" Literal : maxInclusive
FacetedScalar *- -> "0..1" Literal : maxExclusive
class RelationEntity [[#RelationEntity]] #white {
	functional : Boolean
	inverseFunctional : Boolean
	symmetric : Boolean
	asymmetric : Boolean
	reflexive : Boolean
	irreflexive : Boolean
	transitive : Boolean
	source : Entity [1]
	target : Entity [1]
}
class ForwardRelation [[#ForwardRelation]]
hide ForwardRelation members
class ReverseRelation [[#ReverseRelation]]
hide ReverseRelation members
RelationEntity -up-|> Entity [[#Entity]]
RelationEntity *- -> "0..1" ForwardRelation : forwardRelation
RelationEntity *- -> "0..1" ReverseRelation : reverseRelation
abstract class Scalar [[#Scalar]] #white {
}
Scalar -up-|> Type [[#Type]]
class Structure [[#Structure]] #white {
}
Structure -up-|> Classifier [[#Classifier]]
abstract class Type [[#Type]] #white {
}
abstract class SpecializableTerm [[#SpecializableTerm]]
hide SpecializableTerm members
Type -up-|> SpecializableTerm [[#SpecializableTerm]]
@enduml

PlantUML version 1.2022.12(Sun Oct 23 18:12:26 UTC 2022)
(GPL source distribution)
Java Runtime: OpenJDK Runtime Environment
JVM: OpenJDK 64-Bit Server VM
Default Encoding: UTF-8
Language: en
Country: US
--></g></svg>
