<?xml version="1.0" encoding="UTF-8" standalone="no"?><svg xmlns="http://www.w3.org/2000/svg" xmlns:xlink="http://www.w3.org/1999/xlink" contentStyleType="text/css" height="482px" preserveAspectRatio="none" style="width:1269px;height:482px;background:#FFFFFF;" version="1.1" viewBox="0 0 1269 482" width="1269px" zoomAndPan="magnify"><defs/><g><!--MD5=[009695af4e54f3bba8a9c60dca3e1c94]
class Description--><a href="#Description" target="_top" title="#Description" xlink:actuate="onRequest" xlink:href="#Description" xlink:show="new" xlink:title="#Description" xlink:type="simple"><g ><rect codeLine="6" fill="#FFFFFF" height="40"  rx="2.5" ry="2.5" style="stroke:#000000;stroke-width:0.5;" width="111" x="787.5" y="201"/><ellipse cx="802.5" cy="217" fill="#ADD1B2" rx="11" ry="11" style="stroke:#181818;stroke-width:1.0;"/><path d="M805.4688,222.6406 Q804.8906,222.9375 804.25,223.0781 Q803.6094,223.2344 802.9063,223.2344 Q800.4063,223.2344 799.0781,221.5938 Q797.7656,219.9375 797.7656,216.8125 Q797.7656,213.6875 799.0781,212.0313 Q800.4063,210.375 802.9063,210.375 Q803.6094,210.375 804.25,210.5313 Q804.9063,210.6875 805.4688,210.9844 L805.4688,213.7031 Q804.8438,213.125 804.25,212.8594 Q803.6563,212.5781 803.0313,212.5781 Q801.6875,212.5781 801,213.6563 Q800.3125,214.7188 800.3125,216.8125 Q800.3125,218.9063 801,219.9844 Q801.6875,221.0469 803.0313,221.0469 Q803.6563,221.0469 804.25,220.7813 Q804.8438,220.5 805.4688,219.9219 L805.4688,222.6406 Z " fill="#000000"/><text fill="#000000" font-family="sans-serif" font-size="14" lengthAdjust="spacing" textLength="79" x="816.5" y="221.8467">Description</text><line style="stroke:#000000;stroke-width:0.5;" x1="788.5" x2="897.5" y1="233" y2="233"/></g></a><!--MD5=[52626754adfadc2fc4fd887a7e4d2521]
class DescriptionBox--><a href="#DescriptionBox" target="_top" title="#DescriptionBox" xlink:actuate="onRequest" xlink:href="#DescriptionBox" xlink:show="new" xlink:title="#DescriptionBox" xlink:type="simple"><g ><rect codeLine="11" fill="#FFFFFF" height="40"  rx="2.5" ry="2.5" style="stroke:#000000;stroke-width:0.5;" width="137" x="550.5" y="100"/><ellipse cx="565.5" cy="116" fill="#A9DCDF" rx="11" ry="11" style="stroke:#181818;stroke-width:1.0;"/><path d="M565.6094,111.3438 L564.4531,116.4219 L566.7813,116.4219 L565.6094,111.3438 Z M564.125,109.1094 L567.1094,109.1094 L570.4688,121.5 L568.0156,121.5 L567.25,118.4375 L563.9688,118.4375 L563.2188,121.5 L560.7813,121.5 L564.125,109.1094 Z " fill="#000000"/><text fill="#000000" font-family="sans-serif" font-size="14" font-style="italic" lengthAdjust="spacing" textLength="105" x="579.5" y="120.8467">DescriptionBox</text><line style="stroke:#000000;stroke-width:0.5;" x1="551.5" x2="686.5" y1="132" y2="132"/></g></a><!--MD5=[edd8e7ace77c2d16a83e6fb3fb424911]
class DescriptionImport--><a href="#DescriptionImport" target="_top" title="#DescriptionImport" xlink:actuate="onRequest" xlink:href="#DescriptionImport" xlink:show="new" xlink:title="#DescriptionImport" xlink:type="simple"><g ><rect codeLine="38" fill="#FFFFFF" height="56.2969"  rx="2.5" ry="2.5" style="stroke:#000000;stroke-width:0.5;" width="256" x="715" y="318"/><ellipse cx="777.25" cy="334" fill="#A9DCDF" rx="11" ry="11" style="stroke:#181818;stroke-width:1.0;"/><path d="M777.3594,329.3438 L776.2031,334.4219 L778.5313,334.4219 L777.3594,329.3438 Z M775.875,327.1094 L778.8594,327.1094 L782.2188,339.5 L779.7656,339.5 L779,336.4375 L775.7188,336.4375 L774.9688,339.5 L772.5313,339.5 L775.875,327.1094 Z " fill="#000000"/><text fill="#000000" font-family="sans-serif" font-size="14" font-style="italic" lengthAdjust="spacing" textLength="123" x="797.75" y="338.8467">DescriptionImport</text><line style="stroke:#000000;stroke-width:0.5;" x1="716" x2="970" y1="350" y2="350"/><text fill="#000000" font-family="sans-serif" font-size="14" lengthAdjust="spacing" textLength="244" x="721" y="366.9951">owningDescription : Description [1]</text></g></a><!--MD5=[7fd9f8b5a256c0fcfd7e466c0d831b0f]
class DescriptionStatement--><a href="#DescriptionStatement" target="_top" title="#DescriptionStatement" xlink:actuate="onRequest" xlink:href="#DescriptionStatement" xlink:show="new" xlink:title="#DescriptionStatement" xlink:type="simple"><g ><rect codeLine="44" fill="#FFFFFF" height="56.2969"  rx="2.5" ry="2.5" style="stroke:#000000;stroke-width:0.5;" width="256" x="1006" y="318"/><ellipse cx="1054.25" cy="334" fill="#A9DCDF" rx="11" ry="11" style="stroke:#181818;stroke-width:1.0;"/><path d="M1054.3594,329.3438 L1053.2031,334.4219 L1055.5313,334.4219 L1054.3594,329.3438 Z M1052.875,327.1094 L1055.8594,327.1094 L1059.2188,339.5 L1056.7656,339.5 L1056,336.4375 L1052.7188,336.4375 L1051.9688,339.5 L1049.5313,339.5 L1052.875,327.1094 Z " fill="#000000"/><text fill="#000000" font-family="sans-serif" font-size="14" font-style="italic" lengthAdjust="spacing" textLength="151" x="1074.75" y="338.8467">DescriptionStatement</text><line style="stroke:#000000;stroke-width:0.5;" x1="1007" x2="1261" y1="350" y2="350"/><text fill="#000000" font-family="sans-serif" font-size="14" lengthAdjust="spacing" textLength="244" x="1012" y="366.9951">owningDescription : Description [1]</text></g></a><!--MD5=[5dfd8d6a6d713da886d1ef2bfe78f203]
class Ontology--><a href="#Ontology" target="_top" title="#Ontology" xlink:actuate="onRequest" xlink:href="#Ontology" xlink:show="new" xlink:title="#Ontology" xlink:type="simple"><g ><rect codeLine="13" fill="#D3D3D3" height="32"  rx="2.5" ry="2.5" style="stroke:#000000;stroke-width:0.5;" width="94" x="572" y="7"/><ellipse cx="587" cy="23" fill="#A9DCDF" rx="11" ry="11" style="stroke:#181818;stroke-width:1.0;"/><path d="M587.1094,18.3438 L585.9531,23.4219 L588.2813,23.4219 L587.1094,18.3438 Z M585.625,16.1094 L588.6094,16.1094 L591.9688,28.5 L589.5156,28.5 L588.75,25.4375 L585.4688,25.4375 L584.7188,28.5 L582.2813,28.5 L585.625,16.1094 Z " fill="#000000"/><text fill="#000000" font-family="sans-serif" font-size="14" font-style="italic" lengthAdjust="spacing" textLength="62" x="601" y="27.8467">Ontology</text></g></a><!--MD5=[da45f90597a77104ad17006f885f436f]
class DescriptionBundle--><a href="#DescriptionBundle" target="_top" title="#DescriptionBundle" xlink:actuate="onRequest" xlink:href="#DescriptionBundle" xlink:show="new" xlink:title="#DescriptionBundle" xlink:type="simple"><g ><rect codeLine="16" fill="#FFFFFF" height="40"  rx="2.5" ry="2.5" style="stroke:#000000;stroke-width:0.5;" width="160" x="444" y="201"/><ellipse cx="459" cy="217" fill="#ADD1B2" rx="11" ry="11" style="stroke:#181818;stroke-width:1.0;"/><path d="M461.9688,222.6406 Q461.3906,222.9375 460.75,223.0781 Q460.1094,223.2344 459.4063,223.2344 Q456.9063,223.2344 455.5781,221.5938 Q454.2656,219.9375 454.2656,216.8125 Q454.2656,213.6875 455.5781,212.0313 Q456.9063,210.375 459.4063,210.375 Q460.1094,210.375 460.75,210.5313 Q461.4063,210.6875 461.9688,210.9844 L461.9688,213.7031 Q461.3438,213.125 460.75,212.8594 Q460.1563,212.5781 459.5313,212.5781 Q458.1875,212.5781 457.5,213.6563 Q456.8125,214.7188 456.8125,216.8125 Q456.8125,218.9063 457.5,219.9844 Q458.1875,221.0469 459.5313,221.0469 Q460.1563,221.0469 460.75,220.7813 Q461.3438,220.5 461.9688,219.9219 L461.9688,222.6406 Z " fill="#000000"/><text fill="#000000" font-family="sans-serif" font-size="14" lengthAdjust="spacing" textLength="128" x="473" y="221.8467">DescriptionBundle</text><line style="stroke:#000000;stroke-width:0.5;" x1="445" x2="603" y1="233" y2="233"/></g></a><!--MD5=[214a82b9c60b6cf276533fc0baf6259d]
class DescriptionBundleImport--><a href="#DescriptionBundleImport" target="_top" title="#DescriptionBundleImport" xlink:actuate="onRequest" xlink:href="#DescriptionBundleImport" xlink:show="new" xlink:title="#DescriptionBundleImport" xlink:type="simple"><g ><rect codeLine="23" fill="#FFFFFF" height="56.2969"  rx="2.5" ry="2.5" style="stroke:#000000;stroke-width:0.5;" width="354" x="326" y="318"/><ellipse cx="412.75" cy="334" fill="#A9DCDF" rx="11" ry="11" style="stroke:#181818;stroke-width:1.0;"/><path d="M412.8594,329.3438 L411.7031,334.4219 L414.0313,334.4219 L412.8594,329.3438 Z M411.375,327.1094 L414.3594,327.1094 L417.7188,339.5 L415.2656,339.5 L414.5,336.4375 L411.2188,336.4375 L410.4688,339.5 L408.0313,339.5 L411.375,327.1094 Z " fill="#000000"/><text fill="#000000" font-family="sans-serif" font-size="14" font-style="italic" lengthAdjust="spacing" textLength="172" x="433.25" y="338.8467">DescriptionBundleImport</text><line style="stroke:#000000;stroke-width:0.5;" x1="327" x2="679" y1="350" y2="350"/><text fill="#000000" font-family="sans-serif" font-size="14" lengthAdjust="spacing" textLength="342" x="332" y="366.9951">owningDescriptionBundle : DescriptionBundle [1]</text></g></a><!--MD5=[66733139f2a191cb8c59912d009bbcd1]
class DescriptionBundleExtension--><a href="#DescriptionBundleExtension" target="_top" title="#DescriptionBundleExtension" xlink:actuate="onRequest" xlink:href="#DescriptionBundleExtension" xlink:show="new" xlink:title="#DescriptionBundleExtension" xlink:type="simple"><g ><rect codeLine="20" fill="#FFFFFF" height="40"  rx="2.5" ry="2.5" style="stroke:#000000;stroke-width:0.5;" width="228" x="7" y="435"/><ellipse cx="22" cy="451" fill="#ADD1B2" rx="11" ry="11" style="stroke:#181818;stroke-width:1.0;"/><path d="M24.9688,456.6406 Q24.3906,456.9375 23.75,457.0781 Q23.1094,457.2344 22.4063,457.2344 Q19.9063,457.2344 18.5781,455.5938 Q17.2656,453.9375 17.2656,450.8125 Q17.2656,447.6875 18.5781,446.0313 Q19.9063,444.375 22.4063,444.375 Q23.1094,444.375 23.75,444.5313 Q24.4063,444.6875 24.9688,444.9844 L24.9688,447.7031 Q24.3438,447.125 23.75,446.8594 Q23.1563,446.5781 22.5313,446.5781 Q21.1875,446.5781 20.5,447.6563 Q19.8125,448.7188 19.8125,450.8125 Q19.8125,452.9063 20.5,453.9844 Q21.1875,455.0469 22.5313,455.0469 Q23.1563,455.0469 23.75,454.7813 Q24.3438,454.5 24.9688,453.9219 L24.9688,456.6406 Z " fill="#000000"/><text fill="#000000" font-family="sans-serif" font-size="14" lengthAdjust="spacing" textLength="196" x="36" y="455.8467">DescriptionBundleExtension</text><line style="stroke:#000000;stroke-width:0.5;" x1="8" x2="234" y1="467" y2="467"/></g></a><!--MD5=[f9bb3094b6d6f786926c56d9e97ecd1b]
class Import--><a href="#Import" target="_top" title="#Import" xlink:actuate="onRequest" xlink:href="#Import" xlink:show="new" xlink:title="#Import" xlink:type="simple"><g ><rect codeLine="41" fill="#D3D3D3" height="32"  rx="2.5" ry="2.5" style="stroke:#000000;stroke-width:0.5;" width="76" x="647" y="205"/><ellipse cx="662" cy="221" fill="#A9DCDF" rx="11" ry="11" style="stroke:#181818;stroke-width:1.0;"/><path d="M662.1094,216.3438 L660.9531,221.4219 L663.2813,221.4219 L662.1094,216.3438 Z M660.625,214.1094 L663.6094,214.1094 L666.9688,226.5 L664.5156,226.5 L663.75,223.4375 L660.4688,223.4375 L659.7188,226.5 L657.2813,226.5 L660.625,214.1094 Z " fill="#000000"/><text fill="#000000" font-family="sans-serif" font-size="14" font-style="italic" lengthAdjust="spacing" textLength="44" x="676" y="225.8467">Import</text></g></a><!--MD5=[9cffe0dc5bfb9b15c40233ae4d18410a]
class DescriptionBundleInclusion--><a href="#DescriptionBundleInclusion" target="_top" title="#DescriptionBundleInclusion" xlink:actuate="onRequest" xlink:href="#DescriptionBundleInclusion" xlink:show="new" xlink:title="#DescriptionBundleInclusion" xlink:type="simple"><g ><rect codeLine="29" fill="#FFFFFF" height="40"  rx="2.5" ry="2.5" style="stroke:#000000;stroke-width:0.5;" width="221" x="270.5" y="435"/><ellipse cx="285.5" cy="451" fill="#ADD1B2" rx="11" ry="11" style="stroke:#181818;stroke-width:1.0;"/><path d="M288.4688,456.6406 Q287.8906,456.9375 287.25,457.0781 Q286.6094,457.2344 285.9063,457.2344 Q283.4063,457.2344 282.0781,455.5938 Q280.7656,453.9375 280.7656,450.8125 Q280.7656,447.6875 282.0781,446.0313 Q283.4063,444.375 285.9063,444.375 Q286.6094,444.375 287.25,444.5313 Q287.9063,444.6875 288.4688,444.9844 L288.4688,447.7031 Q287.8438,447.125 287.25,446.8594 Q286.6563,446.5781 286.0313,446.5781 Q284.6875,446.5781 284,447.6563 Q283.3125,448.7188 283.3125,450.8125 Q283.3125,452.9063 284,453.9844 Q284.6875,455.0469 286.0313,455.0469 Q286.6563,455.0469 287.25,454.7813 Q287.8438,454.5 288.4688,453.9219 L288.4688,456.6406 Z " fill="#000000"/><text fill="#000000" font-family="sans-serif" font-size="14" lengthAdjust="spacing" textLength="189" x="299.5" y="455.8467">DescriptionBundleInclusion</text><line style="stroke:#000000;stroke-width:0.5;" x1="271.5" x2="490.5" y1="467" y2="467"/></g></a><!--MD5=[d3de6ad09cf9fa8a4a16a313d2fdb19d]
class DescriptionBundleUsage--><a href="#DescriptionBundleUsage" target="_top" title="#DescriptionBundleUsage" xlink:actuate="onRequest" xlink:href="#DescriptionBundleUsage" xlink:show="new" xlink:title="#DescriptionBundleUsage" xlink:type="simple"><g ><rect codeLine="32" fill="#FFFFFF" height="40"  rx="2.5" ry="2.5" style="stroke:#000000;stroke-width:0.5;" width="204" x="526" y="435"/><ellipse cx="541" cy="451" fill="#ADD1B2" rx="11" ry="11" style="stroke:#181818;stroke-width:1.0;"/><path d="M543.9688,456.6406 Q543.3906,456.9375 542.75,457.0781 Q542.1094,457.2344 541.4063,457.2344 Q538.9063,457.2344 537.5781,455.5938 Q536.2656,453.9375 536.2656,450.8125 Q536.2656,447.6875 537.5781,446.0313 Q538.9063,444.375 541.4063,444.375 Q542.1094,444.375 542.75,444.5313 Q543.4063,444.6875 543.9688,444.9844 L543.9688,447.7031 Q543.3438,447.125 542.75,446.8594 Q542.1563,446.5781 541.5313,446.5781 Q540.1875,446.5781 539.5,447.6563 Q538.8125,448.7188 538.8125,450.8125 Q538.8125,452.9063 539.5,453.9844 Q540.1875,455.0469 541.5313,455.0469 Q542.1563,455.0469 542.75,454.7813 Q543.3438,454.5 543.9688,453.9219 L543.9688,456.6406 Z " fill="#000000"/><text fill="#000000" font-family="sans-serif" font-size="14" lengthAdjust="spacing" textLength="172" x="555" y="455.8467">DescriptionBundleUsage</text><line style="stroke:#000000;stroke-width:0.5;" x1="527" x2="729" y1="467" y2="467"/></g></a><!--MD5=[547386089b95f1c4a52e3a3d61b6c1ea]
class DescriptionExtension--><a href="#DescriptionExtension" target="_top" title="#DescriptionExtension" xlink:actuate="onRequest" xlink:href="#DescriptionExtension" xlink:show="new" xlink:title="#DescriptionExtension" xlink:type="simple"><g ><rect codeLine="35" fill="#FFFFFF" height="40"  rx="2.5" ry="2.5" style="stroke:#000000;stroke-width:0.5;" width="179" x="955.5" y="435"/><ellipse cx="970.5" cy="451" fill="#ADD1B2" rx="11" ry="11" style="stroke:#181818;stroke-width:1.0;"/><path d="M973.4688,456.6406 Q972.8906,456.9375 972.25,457.0781 Q971.6094,457.2344 970.9063,457.2344 Q968.4063,457.2344 967.0781,455.5938 Q965.7656,453.9375 965.7656,450.8125 Q965.7656,447.6875 967.0781,446.0313 Q968.4063,444.375 970.9063,444.375 Q971.6094,444.375 972.25,444.5313 Q972.9063,444.6875 973.4688,444.9844 L973.4688,447.7031 Q972.8438,447.125 972.25,446.8594 Q971.6563,446.5781 971.0313,446.5781 Q969.6875,446.5781 969,447.6563 Q968.3125,448.7188 968.3125,450.8125 Q968.3125,452.9063 969,453.9844 Q969.6875,455.0469 971.0313,455.0469 Q971.6563,455.0469 972.25,454.7813 Q972.8438,454.5 973.4688,453.9219 L973.4688,456.6406 Z " fill="#000000"/><text fill="#000000" font-family="sans-serif" font-size="14" lengthAdjust="spacing" textLength="147" x="984.5" y="455.8467">DescriptionExtension</text><line style="stroke:#000000;stroke-width:0.5;" x1="956.5" x2="1133.5" y1="467" y2="467"/></g></a><!--MD5=[a61a298976b7d1d94498f45c2ebfa10b]
class Statement--><a href="#Statement" target="_top" title="#Statement" xlink:actuate="onRequest" xlink:href="#Statement" xlink:show="new" xlink:title="#Statement" xlink:type="simple"><g ><rect codeLine="47" fill="#D3D3D3" height="32"  rx="2.5" ry="2.5" style="stroke:#000000;stroke-width:0.5;" width="104" x="1082" y="205"/><ellipse cx="1097" cy="221" fill="#A9DCDF" rx="11" ry="11" style="stroke:#181818;stroke-width:1.0;"/><path d="M1097.1094,216.3438 L1095.9531,221.4219 L1098.2813,221.4219 L1097.1094,216.3438 Z M1095.625,214.1094 L1098.6094,214.1094 L1101.9688,226.5 L1099.5156,226.5 L1098.75,223.4375 L1095.4688,223.4375 L1094.7188,226.5 L1092.2813,226.5 L1095.625,214.1094 Z " fill="#000000"/><text fill="#000000" font-family="sans-serif" font-size="14" font-style="italic" lengthAdjust="spacing" textLength="72" x="1111" y="225.8467">Statement</text></g></a><!--MD5=[f6924a600582a5f10e9a3566907d052a]
class DescriptionUsage--><a href="#DescriptionUsage" target="_top" title="#DescriptionUsage" xlink:actuate="onRequest" xlink:href="#DescriptionUsage" xlink:show="new" xlink:title="#DescriptionUsage" xlink:type="simple"><g ><rect codeLine="50" fill="#FFFFFF" height="40"  rx="2.5" ry="2.5" style="stroke:#000000;stroke-width:0.5;" width="155" x="765.5" y="435"/><ellipse cx="780.5" cy="451" fill="#ADD1B2" rx="11" ry="11" style="stroke:#181818;stroke-width:1.0;"/><path d="M783.4688,456.6406 Q782.8906,456.9375 782.25,457.0781 Q781.6094,457.2344 780.9063,457.2344 Q778.4063,457.2344 777.0781,455.5938 Q775.7656,453.9375 775.7656,450.8125 Q775.7656,447.6875 777.0781,446.0313 Q778.4063,444.375 780.9063,444.375 Q781.6094,444.375 782.25,444.5313 Q782.9063,444.6875 783.4688,444.9844 L783.4688,447.7031 Q782.8438,447.125 782.25,446.8594 Q781.6563,446.5781 781.0313,446.5781 Q779.6875,446.5781 779,447.6563 Q778.3125,448.7188 778.3125,450.8125 Q778.3125,452.9063 779,453.9844 Q779.6875,455.0469 781.0313,455.0469 Q781.6563,455.0469 782.25,454.7813 Q782.8438,454.5 783.4688,453.9219 L783.4688,456.6406 Z " fill="#000000"/><text fill="#000000" font-family="sans-serif" font-size="14" lengthAdjust="spacing" textLength="123" x="794.5" y="455.8467">DescriptionUsage</text><line style="stroke:#000000;stroke-width:0.5;" x1="766.5" x2="919.5" y1="467" y2="467"/></g></a><!--MD5=[a5925c5904e6bc1bf7b47a3a5f1bad8b]
reverse link DescriptionBox to Description--><g ><a href="#DescriptionBox" target="_top" title="#DescriptionBox" xlink:actuate="onRequest" xlink:href="#DescriptionBox" xlink:show="new" xlink:title="#DescriptionBox" xlink:type="simple"><path codeLine="8" d="M680.712,148.275 C718.579,165.01 766.124,186.024 799.943,200.97 " fill="none"  style="stroke:#000000;stroke-width:1.0;"/><polygon fill="none" points="677.653,154.576,662.189,140.088,683.312,141.771,677.653,154.576" style="stroke:#000000;stroke-width:1.0;"/></a></g><!--MD5=[47f394ceef0558c27e1069633c7afa27]
link Description to DescriptionImport--><g ><path codeLine="9" d="M843,253.219 C843,253.219 843,288.404 843,304.68 " fill="none"  style="stroke:#000000;stroke-width:1.0;"/><polygon fill="#000000" points="843,317.702,847,308.702,843,312.702,839,308.702,843,317.702" style="stroke:#000000;stroke-width:1.0;"/><line style="stroke:#000000;stroke-width:1.0;" x1="843" x2="843" y1="312.702" y2="304.702"/><polygon fill="#000000" points="843,241.219,839,247.219,843,253.219,847,247.219,843,241.219" style="stroke:#000000;stroke-width:1.0;"/><text fill="#000000" font-family="sans-serif" font-size="13" lengthAdjust="spacing" textLength="90" x="844" y="284.0669">ownedImports</text><text fill="#000000" font-family="sans-serif" font-size="13" lengthAdjust="spacing" textLength="7" x="835.2344" y="306.9201">*</text></g><!--MD5=[fdb1f87bf0b55aa31d8e3a604ce6b3f0]
link Description to DescriptionStatement--><g ><path codeLine="10" d="M899.2021,245.7561 C899.2021,245.7561 1008.6,291.995 1057.87,312.823 " fill="none"  style="stroke:#000000;stroke-width:1.0;"/><polygon fill="#000000" points="1070.08,317.984,1063.3453,310.7976,1065.4739,316.0387,1060.2328,318.1673,1070.08,317.984" style="stroke:#000000;stroke-width:1.0;"/><line style="stroke:#000000;stroke-width:1.0;" x1="1065.4739" x2="1058.11" y1="316.0387" y2="312.922"/><polygon fill="#000000" points="888.149,241.084,892.1182,247.1044,899.2021,245.7561,895.2329,239.7357,888.149,241.084" style="stroke:#000000;stroke-width:1.0;"/><text fill="#000000" font-family="sans-serif" font-size="13" lengthAdjust="spacing" textLength="117" x="999" y="284.0669">ownedStatements</text><text fill="#000000" font-family="sans-serif" font-size="13" lengthAdjust="spacing" textLength="7" x="1047.4891" y="306.8188">*</text></g><!--MD5=[0cd670a1fe76cb89dd8ccbe96135179c]
reverse link Ontology to DescriptionBox--><g ><a href="#Ontology" target="_top" title="#Ontology" xlink:actuate="onRequest" xlink:href="#Ontology" xlink:show="new" xlink:title="#Ontology" xlink:type="simple"><path codeLine="15" d="M619,59.472 C619,73.156 619,88.266 619,99.838 " fill="none"  style="stroke:#000000;stroke-width:1.0;"/><polygon fill="none" points="612,59.263,619,39.263,626,59.263,612,59.263" style="stroke:#000000;stroke-width:1.0;"/></a></g><!--MD5=[e0dd647b598b88418debe210a3694f0a]
reverse link DescriptionBox to DescriptionBundle--><g ><a href="#DescriptionBox" target="_top" title="#DescriptionBox" xlink:actuate="onRequest" xlink:href="#DescriptionBox" xlink:show="new" xlink:title="#DescriptionBox" xlink:type="simple"><path codeLine="18" d="M586.821,154.534 C571.962,170.018 554.864,187.836 542.261,200.97 " fill="none"  style="stroke:#000000;stroke-width:1.0;"/><polygon fill="none" points="581.785,149.672,600.683,140.088,591.886,159.366,581.785,149.672" style="stroke:#000000;stroke-width:1.0;"/></a></g><!--MD5=[bccaad88c152566bda14efe4f7096b37]
link DescriptionBundle to DescriptionBundleImport--><g ><path codeLine="19" d="M518.7,253.0479 C518.7,253.0479 512.689,288.253 509.895,304.613 " fill="none"  style="stroke:#000000;stroke-width:1.0;"/><polygon fill="#000000" points="507.661,317.702,513.1189,309.5038,508.5027,312.7734,505.2331,308.1571,507.661,317.702" style="stroke:#000000;stroke-width:1.0;"/><line style="stroke:#000000;stroke-width:1.0;" x1="508.5027" x2="509.8485" y1="312.7734" y2="304.888"/><polygon fill="#000000" points="520.719,241.219,515.7665,246.4605,518.7,253.0479,523.6525,247.8065,520.719,241.219" style="stroke:#000000;stroke-width:1.0;"/><text fill="#000000" font-family="sans-serif" font-size="13" lengthAdjust="spacing" textLength="90" x="517" y="284.0669">ownedImports</text><text fill="#000000" font-family="sans-serif" font-size="13" lengthAdjust="spacing" textLength="7" x="500.915" y="306.9201">*</text></g><!--MD5=[d8d4d7e7356c5632f3a1c9716de64390]
reverse link DescriptionBundleImport to DescriptionBundleExtension--><g ><a href="#DescriptionBundleImport" target="_top" title="#DescriptionBundleImport" xlink:actuate="onRequest" xlink:href="#DescriptionBundleImport" xlink:show="new" xlink:title="#DescriptionBundleImport" xlink:type="simple"><path codeLine="22" d="M387,379.492 C322.284,397.6194 243.91,419.5722 189.06,434.9361 " fill="none"  style="stroke:#000000;stroke-width:1.0;"/><polygon fill="none" points="385.458,372.655,406.605,374.001,389.235,386.1357,385.458,372.655" style="stroke:#000000;stroke-width:1.0;"/></a></g><!--MD5=[027a23f855dc475fef4402920116c096]
reverse link Import to DescriptionBundleImport--><g ><a href="#Import" target="_top" title="#Import" xlink:actuate="onRequest" xlink:href="#Import" xlink:show="new" xlink:title="#Import" xlink:type="simple"><path codeLine="28" d="M657.526,251.924 C645.5,264.019 630.778,277.557 616,288 C600.209,299.159 581.922,309.381 564.72,317.993 " fill="none"  style="stroke:#000000;stroke-width:1.0;"/><polygon fill="none" points="652.681,246.862,671.56,237.238,662.803,256.534,652.681,246.862" style="stroke:#000000;stroke-width:1.0;"/></a></g><!--MD5=[e889fdd99604899c85f92135b296213a]
reverse link DescriptionBundleImport to DescriptionBundleInclusion--><g ><a href="#DescriptionBundleImport" target="_top" title="#DescriptionBundleImport" xlink:actuate="onRequest" xlink:href="#DescriptionBundleImport" xlink:show="new" xlink:title="#DescriptionBundleImport" xlink:type="simple"><path codeLine="31" d="M456.955,387.384 C438.432,403.6294 417.949,421.5942 402.926,434.7702 " fill="none"  style="stroke:#000000;stroke-width:1.0;"/><polygon fill="none" points="452.562,381.9255,472.214,374.001,461.794,392.4509,452.562,381.9255" style="stroke:#000000;stroke-width:1.0;"/></a></g><!--MD5=[6e8308c6fbcbdd1503c2b83cc64358d0]
reverse link DescriptionBundleImport to DescriptionBundleUsage--><g ><a href="#DescriptionBundleImport" target="_top" title="#DescriptionBundleImport" xlink:actuate="onRequest" xlink:href="#DescriptionBundleImport" xlink:show="new" xlink:title="#DescriptionBundleImport" xlink:type="simple"><path codeLine="34" d="M549.892,387.1392 C568.945,403.4487 590.065,421.528 605.535,434.7702 " fill="none"  style="stroke:#000000;stroke-width:1.0;"/><polygon fill="none" points="545.184,392.3243,534.543,374.001,554.289,381.6887,545.184,392.3243" style="stroke:#000000;stroke-width:1.0;"/></a></g><!--MD5=[ac146dd61a90783172f5e721998e55e1]
reverse link DescriptionImport to DescriptionExtension--><g ><a href="#DescriptionImport" target="_top" title="#DescriptionImport" xlink:actuate="onRequest" xlink:href="#DescriptionImport" xlink:show="new" xlink:title="#DescriptionImport" xlink:type="simple"><path codeLine="37" d="M911.972,383.5344 C944.569,400.8013 982.131,420.698 1009.01,434.9361 " fill="none"  style="stroke:#000000;stroke-width:1.0;"/><polygon fill="none" points="908.37,389.5482,893.973,374.001,914.923,377.1767,908.37,389.5482" style="stroke:#000000;stroke-width:1.0;"/></a></g><!--MD5=[d6cd55840b605cf5d787ac04f8bdd807]
reverse link Import to DescriptionImport--><g ><a href="#Import" target="_top" title="#Import" xlink:actuate="onRequest" xlink:href="#Import" xlink:show="new" xlink:title="#Import" xlink:type="simple"><path codeLine="43" d="M720.417,249.571 C746.604,269.957 782.09,297.583 808.143,317.864 " fill="none"  style="stroke:#000000;stroke-width:1.0;"/><polygon fill="none" points="715.856,254.892,704.374,237.082,724.456,243.844,715.856,254.892" style="stroke:#000000;stroke-width:1.0;"/></a></g><!--MD5=[6720aec0acdbf85df6c6dcdb77875b90]
reverse link Statement to DescriptionStatement--><g ><a href="#Statement" target="_top" title="#Statement" xlink:actuate="onRequest" xlink:href="#Statement" xlink:show="new" xlink:title="#Statement" xlink:type="simple"><path codeLine="49" d="M1134,257.1 C1134,276.316 1134,299.777 1134,317.626 " fill="none"  style="stroke:#000000;stroke-width:1.0;"/><polygon fill="none" points="1127,257.082,1134,237.082,1141,257.082,1127,257.082" style="stroke:#000000;stroke-width:1.0;"/></a></g><!--MD5=[d1bd84c97d1c771e71f3312336267320]
reverse link DescriptionImport to DescriptionUsage--><g ><a href="#DescriptionImport" target="_top" title="#DescriptionImport" xlink:actuate="onRequest" xlink:href="#DescriptionImport" xlink:show="new" xlink:title="#DescriptionImport" xlink:type="simple"><path codeLine="52" d="M843,394.0751 C843,408.4161 843,423.3819 843,434.7702 " fill="none"  style="stroke:#000000;stroke-width:1.0;"/><polygon fill="none" points="836,394.0007,843,374.001,850,394.0006,836,394.0007" style="stroke:#000000;stroke-width:1.0;"/></a></g><!--MD5=[999ea8d6cb72079b9e1be0d57d849637]
@startuml
skinparam classBackgroundColor LightGray
skinparam classBorderColor Black
skinparam enumBorderColor Black
skinparam ArrowColor Black
hide methods
class Description [[#Description]] #white {
}
Description -up-|> DescriptionBox [[#DescriptionBox]]
Description *- -> "*" DescriptionImport : ownedImports
Description *- -> "*" DescriptionStatement : ownedStatements
abstract class DescriptionBox [[#DescriptionBox]] #white {
}
abstract class Ontology [[#Ontology]]
hide Ontology members
DescriptionBox -up-|> Ontology [[#Ontology]]
class DescriptionBundle [[#DescriptionBundle]] #white {
}
DescriptionBundle -up-|> DescriptionBox [[#DescriptionBox]]
DescriptionBundle *- -> "*" DescriptionBundleImport : ownedImports
class DescriptionBundleExtension [[#DescriptionBundleExtension]] #white {
}
DescriptionBundleExtension -up-|> DescriptionBundleImport [[#DescriptionBundleImport]]
abstract class DescriptionBundleImport [[#DescriptionBundleImport]] #white {
	owningDescriptionBundle : DescriptionBundle [1]
}
abstract class Import [[#Import]]
hide Import members
DescriptionBundleImport -up-|> Import [[#Import]]
class DescriptionBundleInclusion [[#DescriptionBundleInclusion]] #white {
}
DescriptionBundleInclusion -up-|> DescriptionBundleImport [[#DescriptionBundleImport]]
class DescriptionBundleUsage [[#DescriptionBundleUsage]] #white {
}
DescriptionBundleUsage -up-|> DescriptionBundleImport [[#DescriptionBundleImport]]
class DescriptionExtension [[#DescriptionExtension]] #white {
}
DescriptionExtension -up-|> DescriptionImport [[#DescriptionImport]]
abstract class DescriptionImport [[#DescriptionImport]] #white {
	owningDescription : Description [1]
}
abstract class Import [[#Import]]
hide Import members
DescriptionImport -up-|> Import [[#Import]]
abstract class DescriptionStatement [[#DescriptionStatement]] #white {
	owningDescription : Description [1]
}
abstract class Statement [[#Statement]]
hide Statement members
DescriptionStatement -up-|> Statement [[#Statement]]
class DescriptionUsage [[#DescriptionUsage]] #white {
}
DescriptionUsage -up-|> DescriptionImport [[#DescriptionImport]]
@enduml

PlantUML version 1.2022.12(Sun Oct 23 18:12:26 UTC 2022)
(GPL source distribution)
Java Runtime: OpenJDK Runtime Environment
JVM: OpenJDK 64-Bit Server VM
Default Encoding: UTF-8
Language: en
Country: US
--></g></svg>
