<?xml version="1.0" encoding="UTF-8" standalone="no"?><svg xmlns="http://www.w3.org/2000/svg" xmlns:xlink="http://www.w3.org/1999/xlink" contentStyleType="text/css" height="560px" preserveAspectRatio="none" style="width:818px;height:560px;background:#FFFFFF;" version="1.1" viewBox="0 0 818 560" width="818px" zoomAndPan="magnify"><defs/><g><!--MD5=[dc339a869eaac90210cd41e61d476bcb]
class ForwardRelation--><a href="#ForwardRelation" target="_top" title="#ForwardRelation" xlink:actuate="onRequest" xlink:href="#ForwardRelation" xlink:show="new" xlink:title="#ForwardRelation" xlink:type="simple"><g ><rect codeLine="6" fill="#FFFFFF" height="56.2969"  rx="2.5" ry="2.5" style="stroke:#000000;stroke-width:0.5;" width="231" x="182" y="497"/><ellipse cx="237.75" cy="513" fill="#ADD1B2" rx="11" ry="11" style="stroke:#181818;stroke-width:1.0;"/><path d="M240.7188,518.6406 Q240.1406,518.9375 239.5,519.0781 Q238.8594,519.2344 238.1563,519.2344 Q235.6563,519.2344 234.3281,517.5938 Q233.0156,515.9375 233.0156,512.8125 Q233.0156,509.6875 234.3281,508.0313 Q235.6563,506.375 238.1563,506.375 Q238.8594,506.375 239.5,506.5313 Q240.1563,506.6875 240.7188,506.9844 L240.7188,509.7031 Q240.0938,509.125 239.5,508.8594 Q238.9063,508.5781 238.2813,508.5781 Q236.9375,508.5781 236.25,509.6563 Q235.5625,510.7188 235.5625,512.8125 Q235.5625,514.9063 236.25,515.9844 Q236.9375,517.0469 238.2813,517.0469 Q238.9063,517.0469 239.5,516.7813 Q240.0938,516.5 240.7188,515.9219 L240.7188,518.6406 Z " fill="#000000"/><text fill="#000000" font-family="sans-serif" font-size="14" lengthAdjust="spacing" textLength="111" x="258.25" y="517.8467">ForwardRelation</text><line style="stroke:#000000;stroke-width:0.5;" x1="183" x2="412" y1="529" y2="529"/><text fill="#000000" font-family="sans-serif" font-size="14" lengthAdjust="spacing" textLength="219" x="188" y="545.9951">relationEntity : RelationEntity [1]</text></g></a><!--MD5=[534474e9f05b14d7c70186ae077f30e0]
class Relation--><a href="#Relation" target="_top" title="#Relation" xlink:actuate="onRequest" xlink:href="#Relation" xlink:show="new" xlink:title="#Relation" xlink:type="simple"><g ><rect codeLine="44" fill="#D3D3D3" height="32"  rx="2.5" ry="2.5" style="stroke:#000000;stroke-width:0.5;" width="88" x="221.5" y="177.5"/><ellipse cx="236.5" cy="193.5" fill="#A9DCDF" rx="11" ry="11" style="stroke:#181818;stroke-width:1.0;"/><path d="M236.6094,188.8438 L235.4531,193.9219 L237.7813,193.9219 L236.6094,188.8438 Z M235.125,186.6094 L238.1094,186.6094 L241.4688,199 L239.0156,199 L238.25,195.9375 L234.9688,195.9375 L234.2188,199 L231.7813,199 L235.125,186.6094 Z " fill="#000000"/><text fill="#000000" font-family="sans-serif" font-size="14" font-style="italic" lengthAdjust="spacing" textLength="56" x="250.5" y="198.3467">Relation</text></g></a><!--MD5=[d4c7652d6a558e6eb37094251c0d6afb]
class RelationBase--><a href="#RelationBase" target="_top" title="#RelationBase" xlink:actuate="onRequest" xlink:href="#RelationBase" xlink:show="new" xlink:title="#RelationBase" xlink:type="simple"><g ><rect codeLine="12" fill="#FFFFFF" height="186.6719"  rx="2.5" ry="2.5" style="stroke:#000000;stroke-width:0.5;" width="203" x="385" y="100"/><ellipse cx="436.75" cy="116" fill="#A9DCDF" rx="11" ry="11" style="stroke:#181818;stroke-width:1.0;"/><path d="M436.8594,111.3438 L435.7031,116.4219 L438.0313,116.4219 L436.8594,111.3438 Z M435.375,109.1094 L438.3594,109.1094 L441.7188,121.5 L439.2656,121.5 L438.5,118.4375 L435.2188,118.4375 L434.4688,121.5 L432.0313,121.5 L435.375,109.1094 Z " fill="#000000"/><text fill="#000000" font-family="sans-serif" font-size="14" font-style="italic" lengthAdjust="spacing" textLength="91" x="457.25" y="120.8467">RelationBase</text><line style="stroke:#000000;stroke-width:0.5;" x1="386" x2="587" y1="132" y2="132"/><text fill="#000000" font-family="sans-serif" font-size="14" lengthAdjust="spacing" textLength="137" x="391" y="148.9951">functional : Boolean</text><text fill="#000000" font-family="sans-serif" font-size="14" lengthAdjust="spacing" textLength="191" x="391" y="165.292">inverseFunctional : Boolean</text><text fill="#000000" font-family="sans-serif" font-size="14" lengthAdjust="spacing" textLength="141" x="391" y="181.5889">symmetric : Boolean</text><text fill="#000000" font-family="sans-serif" font-size="14" lengthAdjust="spacing" textLength="149" x="391" y="197.8857">asymmetric : Boolean</text><text fill="#000000" font-family="sans-serif" font-size="14" lengthAdjust="spacing" textLength="126" x="391" y="214.1826">reflexive : Boolean</text><text fill="#000000" font-family="sans-serif" font-size="14" lengthAdjust="spacing" textLength="134" x="391" y="230.4795">irreflexive : Boolean</text><text fill="#000000" font-family="sans-serif" font-size="14" lengthAdjust="spacing" textLength="132" x="391" y="246.7764">transitive : Boolean</text><text fill="#000000" font-family="sans-serif" font-size="14" lengthAdjust="spacing" textLength="128" x="391" y="263.0732">sources : Entity [*]</text><text fill="#000000" font-family="sans-serif" font-size="14" lengthAdjust="spacing" textLength="121" x="391" y="279.3701">targets : Entity [*]</text></g></a><!--MD5=[a052ffd04a2a5cd2f202acb632be8a32]
class SpecializableTerm--><a href="#SpecializableTerm" target="_top" title="#SpecializableTerm" xlink:actuate="onRequest" xlink:href="#SpecializableTerm" xlink:show="new" xlink:title="#SpecializableTerm" xlink:type="simple"><g ><rect codeLine="23" fill="#D3D3D3" height="32"  rx="2.5" ry="2.5" style="stroke:#000000;stroke-width:0.5;" width="157" x="408" y="7"/><ellipse cx="423" cy="23" fill="#A9DCDF" rx="11" ry="11" style="stroke:#181818;stroke-width:1.0;"/><path d="M423.1094,18.3438 L421.9531,23.4219 L424.2813,23.4219 L423.1094,18.3438 Z M421.625,16.1094 L424.6094,16.1094 L427.9688,28.5 L425.5156,28.5 L424.75,25.4375 L421.4688,25.4375 L420.7188,28.5 L418.2813,28.5 L421.625,16.1094 Z " fill="#000000"/><text fill="#000000" font-family="sans-serif" font-size="14" font-style="italic" lengthAdjust="spacing" textLength="125" x="437" y="27.8467">SpecializableTerm</text></g></a><!--MD5=[ea8230de58a0a355a330f3be22216fed]
class ReverseRelation--><a href="#ReverseRelation" target="_top" title="#ReverseRelation" xlink:actuate="onRequest" xlink:href="#ReverseRelation" xlink:show="new" xlink:title="#ReverseRelation" xlink:type="simple"><g ><rect codeLine="35" fill="#FFFFFF" height="56.2969"  rx="2.5" ry="2.5" style="stroke:#000000;stroke-width:0.5;" width="225" x="374" y="364"/><ellipse cx="425.75" cy="380" fill="#ADD1B2" rx="11" ry="11" style="stroke:#181818;stroke-width:1.0;"/><path d="M428.7188,385.6406 Q428.1406,385.9375 427.5,386.0781 Q426.8594,386.2344 426.1563,386.2344 Q423.6563,386.2344 422.3281,384.5938 Q421.0156,382.9375 421.0156,379.8125 Q421.0156,376.6875 422.3281,375.0313 Q423.6563,373.375 426.1563,373.375 Q426.8594,373.375 427.5,373.5313 Q428.1563,373.6875 428.7188,373.9844 L428.7188,376.7031 Q428.0938,376.125 427.5,375.8594 Q426.9063,375.5781 426.2813,375.5781 Q424.9375,375.5781 424.25,376.6563 Q423.5625,377.7188 423.5625,379.8125 Q423.5625,381.9063 424.25,382.9844 Q424.9375,384.0469 426.2813,384.0469 Q426.9063,384.0469 427.5,383.7813 Q428.0938,383.5 428.7188,382.9219 L428.7188,385.6406 Z " fill="#000000"/><text fill="#000000" font-family="sans-serif" font-size="14" lengthAdjust="spacing" textLength="113" x="446.25" y="384.8467">ReverseRelation</text><line style="stroke:#000000;stroke-width:0.5;" x1="375" x2="598" y1="396" y2="396"/><text fill="#000000" font-family="sans-serif" font-size="14" lengthAdjust="spacing" textLength="213" x="380" y="412.9951">relationBase : RelationBase [1]</text></g></a><!--MD5=[aab7500fd9d770c3f442ebfe1c6f0d62]
class RelationEntity--><a href="#RelationEntity" target="_top" title="#RelationEntity" xlink:actuate="onRequest" xlink:href="#RelationEntity" xlink:show="new" xlink:title="#RelationEntity" xlink:type="simple"><g ><rect codeLine="27" fill="#FFFFFF" height="56.2969"  rx="2.5" ry="2.5" style="stroke:#000000;stroke-width:0.5;" width="177" x="634" y="364"/><ellipse cx="671.95" cy="380" fill="#ADD1B2" rx="11" ry="11" style="stroke:#181818;stroke-width:1.0;"/><path d="M674.9188,385.6406 Q674.3406,385.9375 673.7,386.0781 Q673.0594,386.2344 672.3563,386.2344 Q669.8563,386.2344 668.5281,384.5938 Q667.2156,382.9375 667.2156,379.8125 Q667.2156,376.6875 668.5281,375.0313 Q669.8563,373.375 672.3563,373.375 Q673.0594,373.375 673.7,373.5313 Q674.3563,373.6875 674.9188,373.9844 L674.9188,376.7031 Q674.2938,376.125 673.7,375.8594 Q673.1063,375.5781 672.4813,375.5781 Q671.1375,375.5781 670.45,376.6563 Q669.7625,377.7188 669.7625,379.8125 Q669.7625,381.9063 670.45,382.9844 Q671.1375,384.0469 672.4813,384.0469 Q673.1063,384.0469 673.7,383.7813 Q674.2938,383.5 674.9188,382.9219 L674.9188,385.6406 Z " fill="#000000"/><text fill="#000000" font-family="sans-serif" font-size="14" lengthAdjust="spacing" textLength="94" x="691.05" y="384.8467">RelationEntity</text><line style="stroke:#000000;stroke-width:0.5;" x1="635" x2="810" y1="396" y2="396"/><text fill="#000000" font-family="sans-serif" font-size="14" lengthAdjust="spacing" textLength="165" x="640" y="412.9951">ref : RelationEntity [0..1]</text></g></a><!--MD5=[be996cdb8e6bf2fc7cb89c555f2cd144]
class Entity--><a href="#Entity" target="_top" title="#Entity" xlink:actuate="onRequest" xlink:href="#Entity" xlink:show="new" xlink:title="#Entity" xlink:type="simple"><g ><rect codeLine="30" fill="#D3D3D3" height="32"  rx="2.5" ry="2.5" style="stroke:#000000;stroke-width:0.5;" width="70" x="687.5" y="177.5"/><ellipse cx="702.5" cy="193.5" fill="#A9DCDF" rx="11" ry="11" style="stroke:#181818;stroke-width:1.0;"/><path d="M702.6094,188.8438 L701.4531,193.9219 L703.7813,193.9219 L702.6094,188.8438 Z M701.125,186.6094 L704.1094,186.6094 L707.4688,199 L705.0156,199 L704.25,195.9375 L700.9688,195.9375 L700.2188,199 L697.7813,199 L701.125,186.6094 Z " fill="#000000"/><text fill="#000000" font-family="sans-serif" font-size="14" font-style="italic" lengthAdjust="spacing" textLength="38" x="716.5" y="198.3467">Entity</text></g></a><!--MD5=[0e84eedd6b8133be5d529eceb5b2ac4c]
class UnreifiedRelation--><a href="#UnreifiedRelation" target="_top" title="#UnreifiedRelation" xlink:actuate="onRequest" xlink:href="#UnreifiedRelation" xlink:show="new" xlink:title="#UnreifiedRelation" xlink:type="simple"><g ><rect codeLine="41" fill="#FFFFFF" height="56.2969"  rx="2.5" ry="2.5" style="stroke:#000000;stroke-width:0.5;" width="149" x="190" y="364"/><ellipse cx="205" cy="380" fill="#ADD1B2" rx="11" ry="11" style="stroke:#181818;stroke-width:1.0;"/><path d="M207.9688,385.6406 Q207.3906,385.9375 206.75,386.0781 Q206.1094,386.2344 205.4063,386.2344 Q202.9063,386.2344 201.5781,384.5938 Q200.2656,382.9375 200.2656,379.8125 Q200.2656,376.6875 201.5781,375.0313 Q202.9063,373.375 205.4063,373.375 Q206.1094,373.375 206.75,373.5313 Q207.4063,373.6875 207.9688,373.9844 L207.9688,376.7031 Q207.3438,376.125 206.75,375.8594 Q206.1563,375.5781 205.5313,375.5781 Q204.1875,375.5781 203.5,376.6563 Q202.8125,377.7188 202.8125,379.8125 Q202.8125,381.9063 203.5,382.9844 Q204.1875,384.0469 205.5313,384.0469 Q206.1563,384.0469 206.75,383.7813 Q207.3438,383.5 207.9688,382.9219 L207.9688,385.6406 Z " fill="#000000"/><text fill="#000000" font-family="sans-serif" font-size="14" lengthAdjust="spacing" textLength="117" x="219" y="384.8467">UnreifiedRelation</text><line style="stroke:#000000;stroke-width:0.5;" x1="191" x2="338" y1="396" y2="396"/><text fill="#000000" font-family="sans-serif" font-size="14" lengthAdjust="spacing" textLength="127" x="196" y="412.9951">ref : Relation [0..1]</text></g></a><!--MD5=[55daf1dc0d260d9c669478f58aaef103]
class SpecializableProperty--><a href="#SpecializableProperty" target="_top" title="#SpecializableProperty" xlink:actuate="onRequest" xlink:href="#SpecializableProperty" xlink:show="new" xlink:title="#SpecializableProperty" xlink:type="simple"><g ><rect codeLine="46" fill="#D3D3D3" height="32"  rx="2.5" ry="2.5" style="stroke:#000000;stroke-width:0.5;" width="179" x="7" y="177.5"/><ellipse cx="22" cy="193.5" fill="#A9DCDF" rx="11" ry="11" style="stroke:#181818;stroke-width:1.0;"/><path d="M22.1094,188.8438 L20.9531,193.9219 L23.2813,193.9219 L22.1094,188.8438 Z M20.625,186.6094 L23.6094,186.6094 L26.9688,199 L24.5156,199 L23.75,195.9375 L20.4688,195.9375 L19.7188,199 L17.2813,199 L20.625,186.6094 Z " fill="#000000"/><text fill="#000000" font-family="sans-serif" font-size="14" font-style="italic" lengthAdjust="spacing" textLength="147" x="36" y="198.3467">SpecializableProperty</text></g></a><!--MD5=[0144dad999ab1ae304821156dde88b31]
reverse link Relation to ForwardRelation--><g ><a href="#Relation" target="_top" title="#Relation" xlink:actuate="onRequest" xlink:href="#Relation" xlink:show="new" xlink:title="#Relation" xlink:type="simple"><path codeLine="11" d="M241.875,225.933 C218.998,258.499 185.868,311.844 172.5,364 C166.32,388.11 161.934,397.465 172.5,420 C187.96,452.973 219.579,479.1232 247.147,496.9542 " fill="none"  style="stroke:#000000;stroke-width:1.0;"/><polygon fill="none" points="236.226,221.8,253.637,209.722,247.558,230.021,236.226,221.8" style="stroke:#000000;stroke-width:1.0;"/></a></g><!--MD5=[9bf621e14b6ffd3022170c7ce78d55b8]
reverse link SpecializableTerm to RelationBase--><g ><a href="#SpecializableTerm" target="_top" title="#SpecializableTerm" xlink:actuate="onRequest" xlink:href="#SpecializableTerm" xlink:show="new" xlink:title="#SpecializableTerm" xlink:type="simple"><path codeLine="25" d="M486.5,59.451 C486.5,71.489 486.5,85.555 486.5,99.948 " fill="none"  style="stroke:#000000;stroke-width:1.0;"/><polygon fill="none" points="479.5,59.25,486.5,39.25,493.5,59.25,479.5,59.25" style="stroke:#000000;stroke-width:1.0;"/></a></g><!--MD5=[911c4c26c72c062732c957433346d067]
link RelationBase to ReverseRelation--><g ><path codeLine="26" d="M486.5,299.284 C486.5,299.284 486.5,335.873 486.5,350.69 " fill="none"  style="stroke:#000000;stroke-width:1.0;"/><polygon fill="#000000" points="486.5,363.98,490.5,354.98,486.5,358.98,482.5,354.98,486.5,363.98" style="stroke:#000000;stroke-width:1.0;"/><line style="stroke:#000000;stroke-width:1.0;" x1="486.5" x2="486.5" y1="358.98" y2="350.9795"/><polygon fill="#000000" points="486.5,287.284,482.5,293.284,486.5,299.284,490.5,293.284,486.5,287.284" style="stroke:#000000;stroke-width:1.0;"/><text fill="#000000" font-family="sans-serif" font-size="13" lengthAdjust="spacing" textLength="99" x="487.5" y="330.0669">reverseRelation</text><text fill="#000000" font-family="sans-serif" font-size="13" lengthAdjust="spacing" textLength="24" x="459.725" y="352.8139">0..1</text></g><!--MD5=[769665a087eec7164dd7e62a839028f3]
reverse link Entity to RelationEntity--><g ><a href="#Entity" target="_top" title="#Entity" xlink:actuate="onRequest" xlink:href="#Entity" xlink:show="new" xlink:title="#Entity" xlink:type="simple"><path codeLine="32" d="M722.5,229.771 C722.5,268.234 722.5,328.959 722.5,363.871 " fill="none"  style="stroke:#000000;stroke-width:1.0;"/><polygon fill="none" points="715.5,229.593,722.5,209.593,729.5,229.593,715.5,229.593" style="stroke:#000000;stroke-width:1.0;"/></a></g><!--MD5=[236d3140321fe574f91a07c6b13f3278]
reverse link RelationBase to RelationEntity--><g ><a href="#RelationBase" target="_top" title="#RelationBase" xlink:actuate="onRequest" xlink:href="#RelationBase" xlink:show="new" xlink:title="#RelationBase" xlink:type="simple"><path codeLine="33" d="M603.804,292.17 C635.482,318.547 667.228,344.979 689.907,363.862 " fill="none"  style="stroke:#000000;stroke-width:1.0;"/><polygon fill="none" points="599.188,297.436,588.298,279.259,608.146,286.677,599.188,297.436" style="stroke:#000000;stroke-width:1.0;"/></a></g><!--MD5=[a5fb297f76ff2e75ae61d7928a3e9c9c]
link RelationEntity to ForwardRelation--><g ><path codeLine="34" d="M623.2306,423.5994 C623.2306,423.5994 465.597,472.1865 397.987,493.0265 " fill="none"  style="stroke:#000000;stroke-width:1.0;"/><polygon fill="#000000" points="385.19,496.971,394.969,498.142,389.9681,495.498,392.6121,490.497,385.19,496.971" style="stroke:#000000;stroke-width:1.0;"/><line style="stroke:#000000;stroke-width:1.0;" x1="389.9681" x2="397.6125" y1="495.498" y2="493.1417"/><polygon fill="#000000" points="634.698,420.064,627.7858,418.0093,623.2306,423.5994,630.1428,425.6542,634.698,420.064" style="stroke:#000000;stroke-width:1.0;"/><text fill="#000000" font-family="sans-serif" font-size="13" lengthAdjust="spacing" textLength="98" x="535.5" y="463.0669">forwardRelation</text><text fill="#000000" font-family="sans-serif" font-size="13" lengthAdjust="spacing" textLength="24" x="378.6933" y="485.8028">0..1</text></g><!--MD5=[8e166518ce0842b397bd379aaa80c727]
reverse link Relation to ReverseRelation--><g ><a href="#Relation" target="_top" title="#Relation" xlink:actuate="onRequest" xlink:href="#Relation" xlink:show="new" xlink:title="#Relation" xlink:type="simple"><path codeLine="40" d="M296.852,223.203 C316.959,241.544 343.668,265.783 367.5,287 C397.01,313.272 430.974,342.894 455.043,363.785 " fill="none"  style="stroke:#000000;stroke-width:1.0;"/><polygon fill="none" points="292.066,228.313,282.023,209.654,301.509,217.977,292.066,228.313" style="stroke:#000000;stroke-width:1.0;"/></a></g><!--MD5=[92cdfed699947ff587f6d9c8db6b87f0]
reverse link Relation to UnreifiedRelation--><g ><a href="#Relation" target="_top" title="#Relation" xlink:actuate="onRequest" xlink:href="#Relation" xlink:show="new" xlink:title="#Relation" xlink:type="simple"><path codeLine="48" d="M265.321,229.771 C265.125,268.234 264.816,328.959 264.638,363.871 " fill="none"  style="stroke:#000000;stroke-width:1.0;"/><polygon fill="none" points="258.321,229.557,265.423,209.593,272.321,229.628,258.321,229.557" style="stroke:#000000;stroke-width:1.0;"/></a></g><!--MD5=[9b8863ca09386f8d98fb557eb1646430]
reverse link RelationBase to UnreifiedRelation--><g ><a href="#RelationBase" target="_top" title="#RelationBase" xlink:actuate="onRequest" xlink:href="#RelationBase" xlink:show="new" xlink:title="#RelationBase" xlink:type="simple"><path codeLine="49" d="M369.578,297.992 C341.973,322.426 314.859,346.426 295.089,363.925 " fill="none"  style="stroke:#000000;stroke-width:1.0;"/><polygon fill="none" points="365.305,292.426,384.921,284.412,374.584,302.909,365.305,292.426" style="stroke:#000000;stroke-width:1.0;"/></a></g><!--MD5=[b1bb7397b755ad7106230a298abb4085]
reverse link SpecializableProperty to UnreifiedRelation--><g ><a href="#SpecializableProperty" target="_top" title="#SpecializableProperty" xlink:actuate="onRequest" xlink:href="#SpecializableProperty" xlink:show="new" xlink:title="#SpecializableProperty" xlink:type="simple"><path codeLine="50" d="M122.591,225.018 C155.113,263.057 210.196,327.484 241.306,363.871 " fill="none"  style="stroke:#000000;stroke-width:1.0;"/><polygon fill="none" points="117.08,229.343,109.404,209.593,127.721,220.245,117.08,229.343" style="stroke:#000000;stroke-width:1.0;"/></a></g><!--MD5=[ac5d7874375460fb4b066a8c8dfa6f6e]
@startuml
skinparam classBackgroundColor LightGray
skinparam classBorderColor Black
skinparam enumBorderColor Black
skinparam ArrowColor Black
hide methods
class ForwardRelation [[#ForwardRelation]] #white {
	relationEntity : RelationEntity [1]
}
abstract class Relation [[#Relation]]
hide Relation members
ForwardRelation -up-|> Relation [[#Relation]]
abstract class RelationBase [[#RelationBase]] #white {
	functional : Boolean
	inverseFunctional : Boolean
	symmetric : Boolean
	asymmetric : Boolean
	reflexive : Boolean
	irreflexive : Boolean
	transitive : Boolean
	sources : Entity [*]
	targets : Entity [*]
}
abstract class SpecializableTerm [[#SpecializableTerm]]
hide SpecializableTerm members
RelationBase -up-|> SpecializableTerm [[#SpecializableTerm]]
RelationBase *- -> "0..1" ReverseRelation : reverseRelation
class RelationEntity [[#RelationEntity]] #white {
	ref : RelationEntity [0..1]
}
abstract class Entity [[#Entity]]
hide Entity members
RelationEntity -up-|> Entity [[#Entity]]
RelationEntity -up-|> RelationBase [[#RelationBase]]
RelationEntity *- -> "0..1" ForwardRelation : forwardRelation
class ReverseRelation [[#ReverseRelation]] #white {
	relationBase : RelationBase [1]
}
abstract class Relation [[#Relation]]
hide Relation members
ReverseRelation -up-|> Relation [[#Relation]]
class UnreifiedRelation [[#UnreifiedRelation]] #white {
	ref : Relation [0..1]
}
abstract class Relation [[#Relation]]
hide Relation members
abstract class SpecializableProperty [[#SpecializableProperty]]
hide SpecializableProperty members
UnreifiedRelation -up-|> Relation [[#Relation]]
UnreifiedRelation -up-|> RelationBase [[#RelationBase]]
UnreifiedRelation -up-|> SpecializableProperty [[#SpecializableProperty]]
@enduml

PlantUML version 1.2022.12(Sun Oct 23 18:12:26 UTC 2022)
(GPL source distribution)
Java Runtime: OpenJDK Runtime Environment
JVM: OpenJDK 64-Bit Server VM
Default Encoding: UTF-8
Language: en
Country: US
--></g></svg>
