<?xml version="1.0" encoding="UTF-8" standalone="no"?><svg xmlns="http://www.w3.org/2000/svg" xmlns:xlink="http://www.w3.org/1999/xlink" contentScriptType="application/ecmascript" contentStyleType="text/css" height="496px" preserveAspectRatio="none" style="width:717px;height:496px;" version="1.1" viewBox="0 0 717 496" width="717px" zoomAndPan="magnify"><defs><filter height="300%" id="fscobwl7q88o" width="300%" x="-1" y="-1"><feGaussianBlur result="blurOut" stdDeviation="2.0"/><feColorMatrix in="blurOut" result="blurOut2" type="matrix" values="0 0 0 0 0 0 0 0 0 0 0 0 0 0 0 0 0 0 .4 0"/><feOffset dx="4.0" dy="4.0" in="blurOut2" result="blurOut3"/><feBlend in="SourceGraphic" in2="blurOut3" mode="normal"/></filter></defs><g><!--class AnnotatedElement--><a target="_top" xlink:actuate="onRequest" xlink:href="#AnnotatedElement" xlink:show="new" xlink:title="#AnnotatedElement" xlink:type="simple"><rect fill="#FFFFFF" filter="url(#fscobwl7q88o)" height="40"  style="stroke: #000000; stroke-width: 1.5;" width="149" x="246" y="135"/><rect fill="#FFFFFF" height="32" style="stroke: #000000; stroke-width: 1.5;" width="149" x="246" y="135"/><ellipse cx="261" cy="151" fill="#A9DCDF" rx="11" ry="11" style="stroke: #000000; stroke-width: 1.0;"/><path d="M261.1094,146.3438 L259.9531,151.4219 L262.2813,151.4219 L261.1094,146.3438 Z M259.625,144.1094 L262.6094,144.1094 L265.9688,156.5 L263.5156,156.5 L262.75,153.4375 L259.4688,153.4375 L258.7188,156.5 L256.2813,156.5 L259.625,144.1094 Z "/><text fill="#000000" font-family="sans-serif" font-size="12" font-style="italic" lengthAdjust="spacingAndGlyphs" textLength="117" x="275" y="155.1543">AnnotatedElement</text><line style="stroke: #000000; stroke-width: 1.5;" x1="247" x2="394" y1="167" y2="167"/></a><!--class Element--><a target="_top" xlink:actuate="onRequest" xlink:href="#Element" xlink:show="new" xlink:title="#Element" xlink:type="simple"><rect fill="#FFFFFF" filter="url(#fscobwl7q88o)" height="40"  style="stroke: #000000; stroke-width: 1.5;" width="83" x="279" y="21"/><rect fill="#FFFFFF" height="32" style="stroke: #000000; stroke-width: 1.5;" width="83" x="279" y="21"/><ellipse cx="294" cy="37" fill="#A9DCDF" rx="11" ry="11" style="stroke: #000000; stroke-width: 1.0;"/><path d="M294.1094,32.3438 L292.9531,37.4219 L295.2813,37.4219 L294.1094,32.3438 Z M292.625,30.1094 L295.6094,30.1094 L298.9688,42.5 L296.5156,42.5 L295.75,39.4375 L292.4688,39.4375 L291.7188,42.5 L289.2813,42.5 L292.625,30.1094 Z "/><text fill="#000000" font-family="sans-serif" font-size="12" font-style="italic" lengthAdjust="spacingAndGlyphs" textLength="51" x="308" y="41.1543">Element</text><line style="stroke: #000000; stroke-width: 1.5;" x1="280" x2="361" y1="53" y2="53"/></a><!--class Annotation--><a target="_top" xlink:actuate="onRequest" xlink:href="#Annotation" xlink:show="new" xlink:title="#Annotation" xlink:type="simple"><rect fill="#FFFFFF" filter="url(#fscobwl7q88o)" height="91.2188"  style="stroke: #000000; stroke-width: 1.5;" width="247" x="6" y="252"/><rect fill="#FFFFFF" height="32" style="stroke: #000000; stroke-width: 1.5;" width="247" x="6" y="252"/><ellipse cx="90.75" cy="268" fill="#ADD1B2" rx="11" ry="11" style="stroke: #000000; stroke-width: 1.0;"/><path d="M93.7188,273.6406 Q93.1406,273.9375 92.5,274.0781 Q91.8594,274.2344 91.1563,274.2344 Q88.6563,274.2344 87.3281,272.5938 Q86.0156,270.9375 86.0156,267.8125 Q86.0156,264.6875 87.3281,263.0313 Q88.6563,261.375 91.1563,261.375 Q91.8594,261.375 92.5,261.5313 Q93.1563,261.6875 93.7188,261.9844 L93.7188,264.7031 Q93.0938,264.125 92.5,263.8594 Q91.9063,263.5781 91.2813,263.5781 Q89.9375,263.5781 89.25,264.6563 Q88.5625,265.7188 88.5625,267.8125 Q88.5625,269.9063 89.25,270.9844 Q89.9375,272.0469 91.2813,272.0469 Q91.9063,272.0469 92.5,271.7813 Q93.0938,271.5 93.7188,270.9219 L93.7188,273.6406 Z "/><text fill="#000000" font-family="sans-serif" font-size="12" lengthAdjust="spacingAndGlyphs" textLength="69" x="111.25" y="272.1543">Annotation</text><line style="stroke: #000000; stroke-width: 1.5;" x1="7" x2="252" y1="284" y2="284"/><text fill="#000000" font-family="sans-serif" font-size="11" lengthAdjust="spacingAndGlyphs" textLength="187" x="12" y="298.2104">property : AnnotationProperty [1]</text><text fill="#000000" font-family="sans-serif" font-size="11" lengthAdjust="spacingAndGlyphs" textLength="178" x="12" y="311.0151">referenceValue : Member [0..1]</text><text fill="#000000" font-family="sans-serif" font-size="11" lengthAdjust="spacingAndGlyphs" textLength="235" x="12" y="323.8198">owningElement : AnnotatedElement [0..1]</text><text fill="#000000" font-family="sans-serif" font-size="11" lengthAdjust="spacingAndGlyphs" textLength="200" x="12" y="336.6245">owningReference : Reference [0..1]</text></a><!--class Literal--><a target="_top" xlink:actuate="onRequest" xlink:href="#Literal" xlink:show="new" xlink:title="#Literal" xlink:type="simple"><rect fill="#D3D3D3" filter="url(#fscobwl7q88o)" height="32"  style="stroke: #000000; stroke-width: 1.5;" width="70" x="94.5" y="437"/><ellipse cx="109.5" cy="453" fill="#A9DCDF" rx="11" ry="11" style="stroke: #000000; stroke-width: 1.0;"/><path d="M109.6094,448.3438 L108.4531,453.4219 L110.7813,453.4219 L109.6094,448.3438 Z M108.125,446.1094 L111.1094,446.1094 L114.4688,458.5 L112.0156,458.5 L111.25,455.4375 L107.9688,455.4375 L107.2188,458.5 L104.7813,458.5 L108.125,446.1094 Z "/><text fill="#000000" font-family="sans-serif" font-size="12" font-style="italic" lengthAdjust="spacingAndGlyphs" textLength="38" x="123.5" y="457.1543">Literal</text></a><!--class IdentifiedElement--><a target="_top" xlink:actuate="onRequest" xlink:href="#IdentifiedElement" xlink:show="new" xlink:title="#IdentifiedElement" xlink:type="simple"><rect fill="#FFFFFF" filter="url(#fscobwl7q88o)" height="40"  style="stroke: #000000; stroke-width: 1.5;" width="141" x="480" y="277.5"/><rect fill="#FFFFFF" height="32" style="stroke: #000000; stroke-width: 1.5;" width="141" x="480" y="277.5"/><ellipse cx="495" cy="293.5" fill="#A9DCDF" rx="11" ry="11" style="stroke: #000000; stroke-width: 1.0;"/><path d="M495.1094,288.8438 L493.9531,293.9219 L496.2813,293.9219 L495.1094,288.8438 Z M493.625,286.6094 L496.6094,286.6094 L499.9688,299 L497.5156,299 L496.75,295.9375 L493.4688,295.9375 L492.7188,299 L490.2813,299 L493.625,286.6094 Z "/><text fill="#000000" font-family="sans-serif" font-size="12" font-style="italic" lengthAdjust="spacingAndGlyphs" textLength="109" x="509" y="297.6543">IdentifiedElement</text><line style="stroke: #000000; stroke-width: 1.5;" x1="481" x2="620" y1="309.5" y2="309.5"/></a><!--class Import--><a target="_top" xlink:actuate="onRequest" xlink:href="#Import" xlink:show="new" xlink:title="#Import" xlink:type="simple"><rect fill="#FFFFFF" filter="url(#fscobwl7q88o)" height="65.6094"  style="stroke: #000000; stroke-width: 1.5;" width="157" x="288" y="264.5"/><rect fill="#FFFFFF" height="32" style="stroke: #000000; stroke-width: 1.5;" width="157" x="288" y="264.5"/><ellipse cx="342.25" cy="280.5" fill="#A9DCDF" rx="11" ry="11" style="stroke: #000000; stroke-width: 1.0;"/><path d="M342.3594,275.8438 L341.2031,280.9219 L343.5313,280.9219 L342.3594,275.8438 Z M340.875,273.6094 L343.8594,273.6094 L347.2188,286 L344.7656,286 L344,282.9375 L340.7188,282.9375 L339.9688,286 L337.5313,286 L340.875,273.6094 Z "/><text fill="#000000" font-family="sans-serif" font-size="12" font-style="italic" lengthAdjust="spacingAndGlyphs" textLength="40" x="362.75" y="284.6543">Import</text><line style="stroke: #000000; stroke-width: 1.5;" x1="289" x2="444" y1="296.5" y2="296.5"/><text fill="#000000" font-family="sans-serif" font-size="11" lengthAdjust="spacingAndGlyphs" textLength="145" x="294" y="310.7104">namespace : Namespace</text><text fill="#000000" font-family="sans-serif" font-size="11" lengthAdjust="spacingAndGlyphs" textLength="55" x="294" y="323.5151">prefix : ID</text></a><!--class Member--><a target="_top" xlink:actuate="onRequest" xlink:href="#Member" xlink:show="new" xlink:title="#Member" xlink:type="simple"><rect fill="#FFFFFF" filter="url(#fscobwl7q88o)" height="52.8047"  style="stroke: #000000; stroke-width: 1.5;" width="82" x="431.5" y="426.5"/><rect fill="#FFFFFF" height="32" style="stroke: #000000; stroke-width: 1.5;" width="82" x="431.5" y="426.5"/><ellipse cx="446.5" cy="442.5" fill="#A9DCDF" rx="11" ry="11" style="stroke: #000000; stroke-width: 1.0;"/><path d="M446.6094,437.8438 L445.4531,442.9219 L447.7813,442.9219 L446.6094,437.8438 Z M445.125,435.6094 L448.1094,435.6094 L451.4688,448 L449.0156,448 L448.25,444.9375 L444.9688,444.9375 L444.2188,448 L441.7813,448 L445.125,435.6094 Z "/><text fill="#000000" font-family="sans-serif" font-size="12" font-style="italic" lengthAdjust="spacingAndGlyphs" textLength="50" x="460.5" y="446.6543">Member</text><line style="stroke: #000000; stroke-width: 1.5;" x1="432.5" x2="512.5" y1="458.5" y2="458.5"/><text fill="#000000" font-family="sans-serif" font-size="11" lengthAdjust="spacingAndGlyphs" textLength="55" x="437.5" y="472.7104">name : ID</text></a><!--class Ontology--><a target="_top" xlink:actuate="onRequest" xlink:href="#Ontology" xlink:show="new" xlink:title="#Ontology" xlink:type="simple"><rect fill="#FFFFFF" filter="url(#fscobwl7q88o)" height="65.6094"  style="stroke: #000000; stroke-width: 1.5;" width="157" x="549" y="420"/><rect fill="#FFFFFF" height="32" style="stroke: #000000; stroke-width: 1.5;" width="157" x="549" y="420"/><ellipse cx="595.75" cy="436" fill="#A9DCDF" rx="11" ry="11" style="stroke: #000000; stroke-width: 1.0;"/><path d="M595.8594,431.3438 L594.7031,436.4219 L597.0313,436.4219 L595.8594,431.3438 Z M594.375,429.1094 L597.3594,429.1094 L600.7188,441.5 L598.2656,441.5 L597.5,438.4375 L594.2188,438.4375 L593.4688,441.5 L591.0313,441.5 L594.375,429.1094 Z "/><text fill="#000000" font-family="sans-serif" font-size="12" font-style="italic" lengthAdjust="spacingAndGlyphs" textLength="55" x="616.25" y="440.1543">Ontology</text><line style="stroke: #000000; stroke-width: 1.5;" x1="550" x2="705" y1="452" y2="452"/><text fill="#000000" font-family="sans-serif" font-size="11" lengthAdjust="spacingAndGlyphs" textLength="145" x="555" y="466.2104">namespace : Namespace</text><text fill="#000000" font-family="sans-serif" font-size="11" lengthAdjust="spacingAndGlyphs" textLength="55" x="555" y="479.0151">prefix : ID</text></a><!--class SeparatorKind--><a target="_top" xlink:actuate="onRequest" xlink:href="#SeparatorKind" xlink:show="new" xlink:title="#SeparatorKind" xlink:type="simple"><rect fill="#FFFFFF" filter="url(#fscobwl7q88o)" height="65.6094"  style="stroke: #000000; stroke-width: 1.5;" width="121" x="397" y="8"/><rect fill="#FFFFFF" height="32" style="stroke: #000000; stroke-width: 1.5;" width="121" x="397" y="8"/><ellipse cx="412" cy="24" fill="#EB937F" rx="11" ry="11" style="stroke: #000000; stroke-width: 1.0;"/><path d="M416.1094,30 L408.3906,30 L408.3906,17.6094 L416.1094,17.6094 L416.1094,19.7656 L410.8438,19.7656 L410.8438,22.4375 L415.6094,22.4375 L415.6094,24.5938 L410.8438,24.5938 L410.8438,27.8438 L416.1094,27.8438 L416.1094,30 Z "/><text fill="#000000" font-family="sans-serif" font-size="12" lengthAdjust="spacingAndGlyphs" textLength="89" x="426" y="28.1543">SeparatorKind</text><line style="stroke: #000000; stroke-width: 1.5;" x1="398" x2="517" y1="40" y2="40"/><text fill="#000000" font-family="sans-serif" font-size="11" lengthAdjust="spacingAndGlyphs" textLength="28" x="403" y="54.2104">hash</text><text fill="#000000" font-family="sans-serif" font-size="11" lengthAdjust="spacingAndGlyphs" textLength="31" x="403" y="67.0151">slash</text></a><!--class Statement--><a target="_top" xlink:actuate="onRequest" xlink:href="#Statement" xlink:show="new" xlink:title="#Statement" xlink:type="simple"><rect fill="#FFFFFF" filter="url(#fscobwl7q88o)" height="40"  style="stroke: #000000; stroke-width: 1.5;" width="98" x="429.5" y="135"/><rect fill="#FFFFFF" height="32" style="stroke: #000000; stroke-width: 1.5;" width="98" x="429.5" y="135"/><ellipse cx="444.5" cy="151" fill="#A9DCDF" rx="11" ry="11" style="stroke: #000000; stroke-width: 1.0;"/><path d="M444.6094,146.3438 L443.4531,151.4219 L445.7813,151.4219 L444.6094,146.3438 Z M443.125,144.1094 L446.1094,144.1094 L449.4688,156.5 L447.0156,156.5 L446.25,153.4375 L442.9688,153.4375 L442.2188,156.5 L439.7813,156.5 L443.125,144.1094 Z "/><text fill="#000000" font-family="sans-serif" font-size="12" font-style="italic" lengthAdjust="spacingAndGlyphs" textLength="66" x="458.5" y="155.1543">Statement</text><line style="stroke: #000000; stroke-width: 1.5;" x1="430.5" x2="526.5" y1="167" y2="167"/></a><!--link Element to AnnotatedElement--><a target="_top" xlink:actuate="onRequest" xlink:href="#Element" xlink:show="new" xlink:title="#Element" xlink:type="simple"><path d="M320.5,81.263 C320.5,99.486 320.5,120.313 320.5,134.998 " fill="none"  style="stroke: #000000; stroke-width: 1.0;"/><polygon fill="none" points="313.5,81.254,320.5,61.253,327.5,81.253,313.5,81.254" style="stroke: #000000; stroke-width: 1.0;"/></a><!--link AnnotatedElement to Annotation--><path d="M252.27,180.496 C237.489,187.308 222.427,195.495 209.5,205 C195.411,215.36 182.061,228.601 170.446,241.773 " fill="none"  style="stroke: #000000; stroke-width: 1.0;"/><polygon fill="#000000" points="161.92,251.783,170.8013,247.5258,165.1624,247.9768,164.7114,242.338,161.92,251.783" style="stroke: #000000; stroke-width: 1.0;"/><line style="stroke: #000000; stroke-width: 1.0;" x1="165.1624" x2="170.3495" y1="247.9768" y2="241.8865"/><polygon fill="#000000" points="264.567,175.099,257.4654,173.8474,253.5786,179.9213,260.6802,181.173,264.567,175.099" style="stroke: #000000; stroke-width: 1.0;"/><text fill="#000000" font-family="sans-serif" font-size="13" lengthAdjust="spacingAndGlyphs" textLength="118" x="210.5" y="218.0669">ownedAnnotations</text><text fill="#000000" font-family="sans-serif" font-size="13" lengthAdjust="spacingAndGlyphs" textLength="7" x="159.1676" y="241.0273">*</text><!--link Element to Annotation--><a target="_top" xlink:actuate="onRequest" xlink:href="#Element" xlink:show="new" xlink:title="#Element" xlink:type="simple"><path d="M284.481,74.825 C266.668,91.921 245.42,113.669 228.5,135 C205.664,163.79 203.744,173.695 184.5,205 C175.182,220.158 165.118,236.814 156.178,251.714 " fill="none"  style="stroke: #000000; stroke-width: 1.0;"/><polygon fill="none" points="279.687,69.724,299.054,61.127,289.276,79.925,279.687,69.724" style="stroke: #000000; stroke-width: 1.0;"/></a><!--link Annotation to Literal--><path d="M129.5,356.652 C129.5,379.503 129.5,404.6942 129.5,423.4419 " fill="none"  style="stroke: #000000; stroke-width: 1.0;"/><polygon fill="#000000" points="129.5,436.6521,133.5,427.6521,129.5,431.6521,125.5,427.6521,129.5,436.6521" style="stroke: #000000; stroke-width: 1.0;"/><line style="stroke: #000000; stroke-width: 1.0;" x1="129.5" x2="129.5" y1="431.6521" y2="423.6521"/><polygon fill="#000000" points="129.5,343.311,125.5,349.311,129.5,355.311,133.5,349.311,129.5,343.311" style="stroke: #000000; stroke-width: 1.0;"/><text fill="#000000" font-family="sans-serif" font-size="13" lengthAdjust="spacingAndGlyphs" textLength="34" x="130.5" y="386.0669">value</text><text fill="#000000" font-family="sans-serif" font-size="13" lengthAdjust="spacingAndGlyphs" textLength="24" x="101.525" y="425.8414">0..1</text><!--link AnnotatedElement to IdentifiedElement--><a target="_top" xlink:actuate="onRequest" xlink:href="#AnnotatedElement" xlink:show="new" xlink:title="#AnnotatedElement" xlink:type="simple"><path d="M369.13,185.707 C414.48,213.41 480.766,253.901 519.382,277.491 " fill="none"  style="stroke: #000000; stroke-width: 1.0;"/><polygon fill="none" points="365.417,191.641,351.998,175.241,372.715,179.694,365.417,191.641" style="stroke: #000000; stroke-width: 1.0;"/></a><!--link AnnotatedElement to Import--><a target="_top" xlink:actuate="onRequest" xlink:href="#AnnotatedElement" xlink:show="new" xlink:title="#AnnotatedElement" xlink:type="simple"><path d="M333.033,194.28 C340.219,216.228 349.137,243.466 355.96,264.306 " fill="none"  style="stroke: #000000; stroke-width: 1.0;"/><polygon fill="none" points="326.37,196.427,326.8,175.241,339.675,192.07,326.37,196.427" style="stroke: #000000; stroke-width: 1.0;"/></a><!--link IdentifiedElement to Member--><a target="_top" xlink:actuate="onRequest" xlink:href="#IdentifiedElement" xlink:show="new" xlink:title="#IdentifiedElement" xlink:type="simple"><path d="M531.616,335.663 C517.32,363.797 498.058,401.7029 485.464,426.487 " fill="none"  style="stroke: #000000; stroke-width: 1.0;"/><polygon fill="none" points="525.478,332.29,540.779,317.631,537.959,338.632,525.478,332.29" style="stroke: #000000; stroke-width: 1.0;"/></a><!--link IdentifiedElement to Ontology--><a target="_top" xlink:actuate="onRequest" xlink:href="#IdentifiedElement" xlink:show="new" xlink:title="#IdentifiedElement" xlink:type="simple"><path d="M569.2,335.778 C582.081,361.456 599.024,395.2335 611.324,419.7527 " fill="none"  style="stroke: #000000; stroke-width: 1.0;"/><polygon fill="none" points="562.807,338.646,560.096,317.631,575.321,332.369,562.807,338.646" style="stroke: #000000; stroke-width: 1.0;"/></a><!--link Element to Statement--><a target="_top" xlink:actuate="onRequest" xlink:href="#Element" xlink:show="new" xlink:title="#Element" xlink:type="simple"><path d="M363.993,72.831 C392.067,92.731 427.695,117.986 451.693,134.998 " fill="none"  style="stroke: #000000; stroke-width: 1.0;"/><polygon fill="none" points="359.929,78.53,347.661,61.253,368.026,67.109,359.929,78.53" style="stroke: #000000; stroke-width: 1.0;"/></a><!--
@startuml
skinparam classBackgroundColor LightGray
skinparam classBorderColor Black
skinparam enumBorderColor Black
skinparam ArrowColor Black
hide methods
abstract class AnnotatedElement [[#AnnotatedElement]] #white {
}
AnnotatedElement -up-|> Element [[#Element]]
AnnotatedElement *- -> "*" Annotation : ownedAnnotations
class Annotation [[#Annotation]] #white {
	property : AnnotationProperty [1]
	referenceValue : Member [0..1]
	owningElement : AnnotatedElement [0..1]
	owningReference : Reference [0..1]
}
abstract class Literal [[#Literal]]
hide Literal members
Annotation -up-|> Element [[#Element]]
Annotation *- -> "0..1" Literal : value
abstract class Element [[#Element]] #white {
}
abstract class IdentifiedElement [[#IdentifiedElement]] #white {
}
IdentifiedElement -up-|> AnnotatedElement [[#AnnotatedElement]]
abstract class Import [[#Import]] #white {
	namespace : Namespace
	prefix : ID
}
Import -up-|> AnnotatedElement [[#AnnotatedElement]]
abstract class Member [[#Member]] #white {
	name : ID
}
Member -up-|> IdentifiedElement [[#IdentifiedElement]]
abstract class Ontology [[#Ontology]] #white {
	namespace : Namespace
	prefix : ID
}
Ontology -up-|> IdentifiedElement [[#IdentifiedElement]]
enum SeparatorKind [[#SeparatorKind]] #white {
	hash
	slash
}
abstract class Statement [[#Statement]] #white {
}
Statement -up-|> Element [[#Element]]
@enduml

PlantUML version 1.2019.00(Sun Jan 13 15:46:42 UTC 2019)
(GPL source distribution)
Java Runtime: OpenJDK Runtime Environment
JVM: OpenJDK 64-Bit Server VM
Java Version: 11.0.15.1+2-LTS
Operating System: Linux
OS Version: 4.15.0-1098-gcp
Default Encoding: UTF-8
Language: en
Country: US
--></g></svg>
