<?xml version="1.0" encoding="UTF-8" standalone="no"?><svg xmlns="http://www.w3.org/2000/svg" xmlns:xlink="http://www.w3.org/1999/xlink" contentStyleType="text/css" height="381px" preserveAspectRatio="none" style="width:663px;height:381px;background:#FFFFFF;" version="1.1" viewBox="0 0 663 381" width="663px" zoomAndPan="magnify"><defs/><g><!--MD5=[009695af4e54f3bba8a9c60dca3e1c94]
class Description--><a href="#Description" target="_top" title="#Description" xlink:actuate="onRequest" xlink:href="#Description" xlink:show="new" xlink:title="#Description" xlink:type="simple"><g ><rect codeLine="6" fill="#FFFFFF" height="40"  rx="2.5" ry="2.5" style="stroke:#000000;stroke-width:0.5;" width="111" x="146.5" y="201"/><ellipse cx="161.5" cy="217" fill="#ADD1B2" rx="11" ry="11" style="stroke:#181818;stroke-width:1.0;"/><path d="M164.4688,222.6406 Q163.8906,222.9375 163.25,223.0781 Q162.6094,223.2344 161.9063,223.2344 Q159.4063,223.2344 158.0781,221.5938 Q156.7656,219.9375 156.7656,216.8125 Q156.7656,213.6875 158.0781,212.0313 Q159.4063,210.375 161.9063,210.375 Q162.6094,210.375 163.25,210.5313 Q163.9063,210.6875 164.4688,210.9844 L164.4688,213.7031 Q163.8438,213.125 163.25,212.8594 Q162.6563,212.5781 162.0313,212.5781 Q160.6875,212.5781 160,213.6563 Q159.3125,214.7188 159.3125,216.8125 Q159.3125,218.9063 160,219.9844 Q160.6875,221.0469 162.0313,221.0469 Q162.6563,221.0469 163.25,220.7813 Q163.8438,220.5 164.4688,219.9219 L164.4688,222.6406 Z " fill="#000000"/><text fill="#000000" font-family="sans-serif" font-size="14" lengthAdjust="spacing" textLength="79" x="175.5" y="221.8467">Description</text><line style="stroke:#000000;stroke-width:0.5;" x1="147.5" x2="256.5" y1="233" y2="233"/></g></a><!--MD5=[52626754adfadc2fc4fd887a7e4d2521]
class DescriptionBox--><a href="#DescriptionBox" target="_top" title="#DescriptionBox" xlink:actuate="onRequest" xlink:href="#DescriptionBox" xlink:show="new" xlink:title="#DescriptionBox" xlink:type="simple"><g ><rect codeLine="10" fill="#FFFFFF" height="40"  rx="2.5" ry="2.5" style="stroke:#000000;stroke-width:0.5;" width="137" x="251.5" y="100"/><ellipse cx="266.5" cy="116" fill="#A9DCDF" rx="11" ry="11" style="stroke:#181818;stroke-width:1.0;"/><path d="M266.6094,111.3438 L265.4531,116.4219 L267.7813,116.4219 L266.6094,111.3438 Z M265.125,109.1094 L268.1094,109.1094 L271.4688,121.5 L269.0156,121.5 L268.25,118.4375 L264.9688,118.4375 L264.2188,121.5 L261.7813,121.5 L265.125,109.1094 Z " fill="#000000"/><text fill="#000000" font-family="sans-serif" font-size="14" font-style="italic" lengthAdjust="spacing" textLength="105" x="280.5" y="120.8467">DescriptionBox</text><line style="stroke:#000000;stroke-width:0.5;" x1="252.5" x2="387.5" y1="132" y2="132"/></g></a><!--MD5=[7fd9f8b5a256c0fcfd7e466c0d831b0f]
class DescriptionStatement--><a href="#DescriptionStatement" target="_top" title="#DescriptionStatement" xlink:actuate="onRequest" xlink:href="#DescriptionStatement" xlink:show="new" xlink:title="#DescriptionStatement" xlink:type="simple"><g ><rect codeLine="23" fill="#FFFFFF" height="56.2969"  rx="2.5" ry="2.5" style="stroke:#000000;stroke-width:0.5;" width="256" x="74" y="318"/><ellipse cx="122.25" cy="334" fill="#A9DCDF" rx="11" ry="11" style="stroke:#181818;stroke-width:1.0;"/><path d="M122.3594,329.3438 L121.2031,334.4219 L123.5313,334.4219 L122.3594,329.3438 Z M120.875,327.1094 L123.8594,327.1094 L127.2188,339.5 L124.7656,339.5 L124,336.4375 L120.7188,336.4375 L119.9688,339.5 L117.5313,339.5 L120.875,327.1094 Z " fill="#000000"/><text fill="#000000" font-family="sans-serif" font-size="14" font-style="italic" lengthAdjust="spacing" textLength="151" x="142.75" y="338.8467">DescriptionStatement</text><line style="stroke:#000000;stroke-width:0.5;" x1="75" x2="329" y1="350" y2="350"/><text fill="#000000" font-family="sans-serif" font-size="14" lengthAdjust="spacing" textLength="244" x="80" y="366.9951">owningDescription : Description [1]</text></g></a><!--MD5=[5dfd8d6a6d713da886d1ef2bfe78f203]
class Ontology--><a href="#Ontology" target="_top" title="#Ontology" xlink:actuate="onRequest" xlink:href="#Ontology" xlink:show="new" xlink:title="#Ontology" xlink:type="simple"><g ><rect codeLine="12" fill="#D3D3D3" height="32"  rx="2.5" ry="2.5" style="stroke:#000000;stroke-width:0.5;" width="94" x="273" y="7"/><ellipse cx="288" cy="23" fill="#A9DCDF" rx="11" ry="11" style="stroke:#181818;stroke-width:1.0;"/><path d="M288.1094,18.3438 L286.9531,23.4219 L289.2813,23.4219 L288.1094,18.3438 Z M286.625,16.1094 L289.6094,16.1094 L292.9688,28.5 L290.5156,28.5 L289.75,25.4375 L286.4688,25.4375 L285.7188,28.5 L283.2813,28.5 L286.625,16.1094 Z " fill="#000000"/><text fill="#000000" font-family="sans-serif" font-size="14" font-style="italic" lengthAdjust="spacing" textLength="62" x="302" y="27.8467">Ontology</text></g></a><!--MD5=[da45f90597a77104ad17006f885f436f]
class DescriptionBundle--><a href="#DescriptionBundle" target="_top" title="#DescriptionBundle" xlink:actuate="onRequest" xlink:href="#DescriptionBundle" xlink:show="new" xlink:title="#DescriptionBundle" xlink:type="simple"><g ><rect codeLine="15" fill="#FFFFFF" height="40"  rx="2.5" ry="2.5" style="stroke:#000000;stroke-width:0.5;" width="160" x="293" y="201"/><ellipse cx="308" cy="217" fill="#ADD1B2" rx="11" ry="11" style="stroke:#181818;stroke-width:1.0;"/><path d="M310.9688,222.6406 Q310.3906,222.9375 309.75,223.0781 Q309.1094,223.2344 308.4063,223.2344 Q305.9063,223.2344 304.5781,221.5938 Q303.2656,219.9375 303.2656,216.8125 Q303.2656,213.6875 304.5781,212.0313 Q305.9063,210.375 308.4063,210.375 Q309.1094,210.375 309.75,210.5313 Q310.4063,210.6875 310.9688,210.9844 L310.9688,213.7031 Q310.3438,213.125 309.75,212.8594 Q309.1563,212.5781 308.5313,212.5781 Q307.1875,212.5781 306.5,213.6563 Q305.8125,214.7188 305.8125,216.8125 Q305.8125,218.9063 306.5,219.9844 Q307.1875,221.0469 308.5313,221.0469 Q309.1563,221.0469 309.75,220.7813 Q310.3438,220.5 310.9688,219.9219 L310.9688,222.6406 Z " fill="#000000"/><text fill="#000000" font-family="sans-serif" font-size="14" lengthAdjust="spacing" textLength="128" x="322" y="221.8467">DescriptionBundle</text><line style="stroke:#000000;stroke-width:0.5;" x1="294" x2="452" y1="233" y2="233"/></g></a><!--MD5=[dcb8f79f793eb9cd3c6ff9eb8e788989]
class DescriptionMember--><a href="#DescriptionMember" target="_top" title="#DescriptionMember" xlink:actuate="onRequest" xlink:href="#DescriptionMember" xlink:show="new" xlink:title="#DescriptionMember" xlink:type="simple"><g ><rect codeLine="18" fill="#FFFFFF" height="40"  rx="2.5" ry="2.5" style="stroke:#000000;stroke-width:0.5;" width="168" x="488" y="201"/><ellipse cx="503" cy="217" fill="#A9DCDF" rx="11" ry="11" style="stroke:#181818;stroke-width:1.0;"/><path d="M503.1094,212.3438 L501.9531,217.4219 L504.2813,217.4219 L503.1094,212.3438 Z M501.625,210.1094 L504.6094,210.1094 L507.9688,222.5 L505.5156,222.5 L504.75,219.4375 L501.4688,219.4375 L500.7188,222.5 L498.2813,222.5 L501.625,210.1094 Z " fill="#000000"/><text fill="#000000" font-family="sans-serif" font-size="14" font-style="italic" lengthAdjust="spacing" textLength="136" x="517" y="221.8467">DescriptionMember</text><line style="stroke:#000000;stroke-width:0.5;" x1="489" x2="655" y1="233" y2="233"/></g></a><!--MD5=[f58fd777f29c17413488bea9e7cfcca3]
class Member--><a href="#Member" target="_top" title="#Member" xlink:actuate="onRequest" xlink:href="#Member" xlink:show="new" xlink:title="#Member" xlink:type="simple"><g ><rect codeLine="20" fill="#D3D3D3" height="32"  rx="2.5" ry="2.5" style="stroke:#000000;stroke-width:0.5;" width="89" x="527.5" y="104"/><ellipse cx="542.5" cy="120" fill="#A9DCDF" rx="11" ry="11" style="stroke:#181818;stroke-width:1.0;"/><path d="M542.6094,115.3438 L541.4531,120.4219 L543.7813,120.4219 L542.6094,115.3438 Z M541.125,113.1094 L544.1094,113.1094 L547.4688,125.5 L545.0156,125.5 L544.25,122.4375 L540.9688,122.4375 L540.2188,125.5 L537.7813,125.5 L541.125,113.1094 Z " fill="#000000"/><text fill="#000000" font-family="sans-serif" font-size="14" font-style="italic" lengthAdjust="spacing" textLength="57" x="556.5" y="124.8467">Member</text></g></a><!--MD5=[a61a298976b7d1d94498f45c2ebfa10b]
class Statement--><a href="#Statement" target="_top" title="#Statement" xlink:actuate="onRequest" xlink:href="#Statement" xlink:show="new" xlink:title="#Statement" xlink:type="simple"><g ><rect codeLine="26" fill="#D3D3D3" height="32"  rx="2.5" ry="2.5" style="stroke:#000000;stroke-width:0.5;" width="104" x="7" y="205"/><ellipse cx="22" cy="221" fill="#A9DCDF" rx="11" ry="11" style="stroke:#181818;stroke-width:1.0;"/><path d="M22.1094,216.3438 L20.9531,221.4219 L23.2813,221.4219 L22.1094,216.3438 Z M20.625,214.1094 L23.6094,214.1094 L26.9688,226.5 L24.5156,226.5 L23.75,223.4375 L20.4688,223.4375 L19.7188,226.5 L17.2813,226.5 L20.625,214.1094 Z " fill="#000000"/><text fill="#000000" font-family="sans-serif" font-size="14" font-style="italic" lengthAdjust="spacing" textLength="72" x="36" y="225.8467">Statement</text></g></a><!--MD5=[a5925c5904e6bc1bf7b47a3a5f1bad8b]
reverse link DescriptionBox to Description--><g ><a href="#DescriptionBox" target="_top" title="#DescriptionBox" xlink:actuate="onRequest" xlink:href="#DescriptionBox" xlink:show="new" xlink:title="#DescriptionBox" xlink:type="simple"><path codeLine="8" d="M281.752,153.09 C262.907,168.9 240.826,187.426 224.682,200.97 " fill="none"  style="stroke:#000000;stroke-width:1.0;"/><polygon fill="none" points="277.427,147.58,297.248,140.088,286.426,158.306,277.427,147.58" style="stroke:#000000;stroke-width:1.0;"/></a></g><!--MD5=[fdb1f87bf0b55aa31d8e3a604ce6b3f0]
link Description to DescriptionStatement--><g ><path codeLine="9" d="M202,253.219 C202,253.219 202,288.4042 202,304.6796 " fill="none"  style="stroke:#000000;stroke-width:1.0;"/><polygon fill="#000000" points="202,317.7023,206,308.7023,202,312.7023,198,308.7023,202,317.7023" style="stroke:#000000;stroke-width:1.0;"/><line style="stroke:#000000;stroke-width:1.0;" x1="202" x2="202" y1="312.7023" y2="304.7023"/><polygon fill="#000000" points="202,241.219,198,247.219,202,253.219,206,247.219,202,241.219" style="stroke:#000000;stroke-width:1.0;"/><text fill="#000000" font-family="sans-serif" font-size="13" lengthAdjust="spacing" textLength="117" x="203" y="284.0669">ownedStatements</text><text fill="#000000" font-family="sans-serif" font-size="13" lengthAdjust="spacing" textLength="7" x="194.2344" y="306.9205">*</text></g><!--MD5=[0cd670a1fe76cb89dd8ccbe96135179c]
reverse link Ontology to DescriptionBox--><g ><a href="#Ontology" target="_top" title="#Ontology" xlink:actuate="onRequest" xlink:href="#Ontology" xlink:show="new" xlink:title="#Ontology" xlink:type="simple"><path codeLine="14" d="M320,59.472 C320,73.156 320,88.266 320,99.838 " fill="none"  style="stroke:#000000;stroke-width:1.0;"/><polygon fill="none" points="313,59.263,320,39.263,327,59.263,313,59.263" style="stroke:#000000;stroke-width:1.0;"/></a></g><!--MD5=[e0dd647b598b88418debe210a3694f0a]
reverse link DescriptionBox to DescriptionBundle--><g ><a href="#DescriptionBox" target="_top" title="#DescriptionBox" xlink:actuate="onRequest" xlink:href="#DescriptionBox" xlink:show="new" xlink:title="#DescriptionBox" xlink:type="simple"><path codeLine="17" d="M339.784,157.956 C347.62,172.592 356.294,188.794 362.812,200.97 " fill="none"  style="stroke:#000000;stroke-width:1.0;"/><polygon fill="none" points="333.487,161.024,330.219,140.088,345.83,154.417,333.487,161.024" style="stroke:#000000;stroke-width:1.0;"/></a></g><!--MD5=[3167e911cffb5ad41a5e445285dca217]
reverse link Member to DescriptionMember--><g ><a href="#Member" target="_top" title="#Member" xlink:actuate="onRequest" xlink:href="#Member" xlink:show="new" xlink:title="#Member" xlink:type="simple"><path codeLine="22" d="M572,156.211 C572,171.199 572,188.098 572,200.736 " fill="none"  style="stroke:#000000;stroke-width:1.0;"/><polygon fill="none" points="565,156.036,572,136.036,579,156.036,565,156.036" style="stroke:#000000;stroke-width:1.0;"/></a></g><!--MD5=[6720aec0acdbf85df6c6dcdb77875b90]
reverse link Statement to DescriptionStatement--><g ><a href="#Statement" target="_top" title="#Statement" xlink:actuate="onRequest" xlink:href="#Statement" xlink:show="new" xlink:title="#Statement" xlink:type="simple"><path codeLine="28" d="M91.7371,250.158 C115.369,270.485 147.098,297.7767 170.452,317.8644 " fill="none"  style="stroke:#000000;stroke-width:1.0;"/><polygon fill="none" points="87.1326,255.431,76.5346,237.082,96.262,244.817,87.1326,255.431" style="stroke:#000000;stroke-width:1.0;"/></a></g><!--MD5=[f703d6610d50b00ed9b2a824bba7078e]
reverse link DescriptionMember to DescriptionStatement--><g ><a href="#DescriptionMember" target="_top" title="#DescriptionMember" xlink:actuate="onRequest" xlink:href="#DescriptionMember" xlink:show="new" xlink:title="#DescriptionMember" xlink:type="simple"><path codeLine="29" d="M495.421,247.457 C433.467,268.053 346.444,296.982 283.268,317.9838 " fill="none"  style="stroke:#000000;stroke-width:1.0;"/><polygon fill="none" points="493.406,240.75,514.593,241.084,497.823,254.036,493.406,240.75" style="stroke:#000000;stroke-width:1.0;"/></a></g><!--MD5=[367a67742d5a25f85f2e34398da044c8]
@startuml
skinparam classBackgroundColor LightGray
skinparam classBorderColor Black
skinparam enumBorderColor Black
skinparam ArrowColor Black
hide methods
class Description [[#Description]] #white {
}
Description -up-|> DescriptionBox [[#DescriptionBox]]
Description *- -> "*" DescriptionStatement : ownedStatements
abstract class DescriptionBox [[#DescriptionBox]] #white {
}
abstract class Ontology [[#Ontology]]
hide Ontology members
DescriptionBox -up-|> Ontology [[#Ontology]]
class DescriptionBundle [[#DescriptionBundle]] #white {
}
DescriptionBundle -up-|> DescriptionBox [[#DescriptionBox]]
abstract class DescriptionMember [[#DescriptionMember]] #white {
}
abstract class Member [[#Member]]
hide Member members
DescriptionMember -up-|> Member [[#Member]]
abstract class DescriptionStatement [[#DescriptionStatement]] #white {
	owningDescription : Description [1]
}
abstract class Statement [[#Statement]]
hide Statement members
DescriptionStatement -up-|> Statement [[#Statement]]
DescriptionStatement -up-|> DescriptionMember [[#DescriptionMember]]
@enduml

PlantUML version 1.2022.12(Sun Oct 23 18:12:26 UTC 2022)
(GPL source distribution)
Java Runtime: OpenJDK Runtime Environment
JVM: OpenJDK 64-Bit Server VM
Default Encoding: UTF-8
Language: en
Country: US
--></g></svg>
