<?xml version="1.0" encoding="UTF-8" standalone="no"?><svg xmlns="http://www.w3.org/2000/svg" xmlns:xlink="http://www.w3.org/1999/xlink" contentStyleType="text/css" height="294px" preserveAspectRatio="none" style="width:790px;height:294px;background:#FFFFFF;" version="1.1" viewBox="0 0 790 294" width="790px" zoomAndPan="magnify"><defs/><g><!--MD5=[346d99b39270fc9da6b587baaa1d0e86]
class BooleanLiteral--><a href="#BooleanLiteral" target="_top" title="#BooleanLiteral" xlink:actuate="onRequest" xlink:href="#BooleanLiteral" xlink:show="new" xlink:title="#BooleanLiteral" xlink:type="simple"><g ><rect codeLine="6" fill="#FFFFFF" height="56.2969"  rx="2.5" ry="2.5" style="stroke:#000000;stroke-width:0.5;" width="129" x="7" y="215.5"/><ellipse cx="22" cy="231.5" fill="#ADD1B2" rx="11" ry="11" style="stroke:#181818;stroke-width:1.0;"/><path d="M24.9688,237.1406 Q24.3906,237.4375 23.75,237.5781 Q23.1094,237.7344 22.4063,237.7344 Q19.9063,237.7344 18.5781,236.0938 Q17.2656,234.4375 17.2656,231.3125 Q17.2656,228.1875 18.5781,226.5313 Q19.9063,224.875 22.4063,224.875 Q23.1094,224.875 23.75,225.0313 Q24.4063,225.1875 24.9688,225.4844 L24.9688,228.2031 Q24.3438,227.625 23.75,227.3594 Q23.1563,227.0781 22.5313,227.0781 Q21.1875,227.0781 20.5,228.1563 Q19.8125,229.2188 19.8125,231.3125 Q19.8125,233.4063 20.5,234.4844 Q21.1875,235.5469 22.5313,235.5469 Q23.1563,235.5469 23.75,235.2813 Q24.3438,235 24.9688,234.4219 L24.9688,237.1406 Z " fill="#000000"/><text fill="#000000" font-family="sans-serif" font-size="14" lengthAdjust="spacing" textLength="97" x="36" y="236.3467">BooleanLiteral</text><line style="stroke:#000000;stroke-width:0.5;" x1="8" x2="135" y1="247.5" y2="247.5"/><text fill="#000000" font-family="sans-serif" font-size="14" lengthAdjust="spacing" textLength="106" x="13" y="264.4951">value : Boolean</text></g></a><!--MD5=[27bfdb9e128171e0e365013b6b91e809]
class Literal--><a href="#Literal" target="_top" title="#Literal" xlink:actuate="onRequest" xlink:href="#Literal" xlink:show="new" xlink:title="#Literal" xlink:type="simple"><g ><rect codeLine="22" fill="#FFFFFF" height="40"  rx="2.5" ry="2.5" style="stroke:#000000;stroke-width:0.5;" width="72" x="358.5" y="99"/><ellipse cx="373.5" cy="115" fill="#A9DCDF" rx="11" ry="11" style="stroke:#181818;stroke-width:1.0;"/><path d="M373.6094,110.3438 L372.4531,115.4219 L374.7813,115.4219 L373.6094,110.3438 Z M372.125,108.1094 L375.1094,108.1094 L378.4688,120.5 L376.0156,120.5 L375.25,117.4375 L371.9688,117.4375 L371.2188,120.5 L368.7813,120.5 L372.125,108.1094 Z " fill="#000000"/><text fill="#000000" font-family="sans-serif" font-size="14" font-style="italic" lengthAdjust="spacing" textLength="40" x="387.5" y="119.8467">Literal</text><line style="stroke:#000000;stroke-width:0.5;" x1="359.5" x2="429.5" y1="131" y2="131"/></g></a><!--MD5=[baf7612d41bcecf190896c6ba0d13e70]
class DecimalLiteral--><a href="#DecimalLiteral" target="_top" title="#DecimalLiteral" xlink:actuate="onRequest" xlink:href="#DecimalLiteral" xlink:show="new" xlink:title="#DecimalLiteral" xlink:type="simple"><g ><rect codeLine="10" fill="#FFFFFF" height="56.2969"  rx="2.5" ry="2.5" style="stroke:#000000;stroke-width:0.5;" width="127" x="171" y="215.5"/><ellipse cx="186" cy="231.5" fill="#ADD1B2" rx="11" ry="11" style="stroke:#181818;stroke-width:1.0;"/><path d="M188.9688,237.1406 Q188.3906,237.4375 187.75,237.5781 Q187.1094,237.7344 186.4063,237.7344 Q183.9063,237.7344 182.5781,236.0938 Q181.2656,234.4375 181.2656,231.3125 Q181.2656,228.1875 182.5781,226.5313 Q183.9063,224.875 186.4063,224.875 Q187.1094,224.875 187.75,225.0313 Q188.4063,225.1875 188.9688,225.4844 L188.9688,228.2031 Q188.3438,227.625 187.75,227.3594 Q187.1563,227.0781 186.5313,227.0781 Q185.1875,227.0781 184.5,228.1563 Q183.8125,229.2188 183.8125,231.3125 Q183.8125,233.4063 184.5,234.4844 Q185.1875,235.5469 186.5313,235.5469 Q187.1563,235.5469 187.75,235.2813 Q188.3438,235 188.9688,234.4219 L188.9688,237.1406 Z " fill="#000000"/><text fill="#000000" font-family="sans-serif" font-size="14" lengthAdjust="spacing" textLength="95" x="200" y="236.3467">DecimalLiteral</text><line style="stroke:#000000;stroke-width:0.5;" x1="172" x2="297" y1="247.5" y2="247.5"/><text fill="#000000" font-family="sans-serif" font-size="14" lengthAdjust="spacing" textLength="104" x="177" y="264.4951">value : Decimal</text></g></a><!--MD5=[5b3d970de895389b15b00d94f1049bb7]
class DoubleLiteral--><a href="#DoubleLiteral" target="_top" title="#DoubleLiteral" xlink:actuate="onRequest" xlink:href="#DoubleLiteral" xlink:show="new" xlink:title="#DoubleLiteral" xlink:type="simple"><g ><rect codeLine="14" fill="#FFFFFF" height="56.2969"  rx="2.5" ry="2.5" style="stroke:#000000;stroke-width:0.5;" width="122" x="333.5" y="215.5"/><ellipse cx="348.5" cy="231.5" fill="#ADD1B2" rx="11" ry="11" style="stroke:#181818;stroke-width:1.0;"/><path d="M351.4688,237.1406 Q350.8906,237.4375 350.25,237.5781 Q349.6094,237.7344 348.9063,237.7344 Q346.4063,237.7344 345.0781,236.0938 Q343.7656,234.4375 343.7656,231.3125 Q343.7656,228.1875 345.0781,226.5313 Q346.4063,224.875 348.9063,224.875 Q349.6094,224.875 350.25,225.0313 Q350.9063,225.1875 351.4688,225.4844 L351.4688,228.2031 Q350.8438,227.625 350.25,227.3594 Q349.6563,227.0781 349.0313,227.0781 Q347.6875,227.0781 347,228.1563 Q346.3125,229.2188 346.3125,231.3125 Q346.3125,233.4063 347,234.4844 Q347.6875,235.5469 349.0313,235.5469 Q349.6563,235.5469 350.25,235.2813 Q350.8438,235 351.4688,234.4219 L351.4688,237.1406 Z " fill="#000000"/><text fill="#000000" font-family="sans-serif" font-size="14" lengthAdjust="spacing" textLength="90" x="362.5" y="236.3467">DoubleLiteral</text><line style="stroke:#000000;stroke-width:0.5;" x1="334.5" x2="454.5" y1="247.5" y2="247.5"/><text fill="#000000" font-family="sans-serif" font-size="14" lengthAdjust="spacing" textLength="99" x="339.5" y="264.4951">value : Double</text></g></a><!--MD5=[fb4ac2ef79415f07b7272298fce73ab1]
class IntegerLiteral--><a href="#IntegerLiteral" target="_top" title="#IntegerLiteral" xlink:actuate="onRequest" xlink:href="#IntegerLiteral" xlink:show="new" xlink:title="#IntegerLiteral" xlink:type="simple"><g ><rect codeLine="18" fill="#FFFFFF" height="56.2969"  rx="2.5" ry="2.5" style="stroke:#000000;stroke-width:0.5;" width="121" x="491" y="215.5"/><ellipse cx="506" cy="231.5" fill="#ADD1B2" rx="11" ry="11" style="stroke:#181818;stroke-width:1.0;"/><path d="M508.9688,237.1406 Q508.3906,237.4375 507.75,237.5781 Q507.1094,237.7344 506.4063,237.7344 Q503.9063,237.7344 502.5781,236.0938 Q501.2656,234.4375 501.2656,231.3125 Q501.2656,228.1875 502.5781,226.5313 Q503.9063,224.875 506.4063,224.875 Q507.1094,224.875 507.75,225.0313 Q508.4063,225.1875 508.9688,225.4844 L508.9688,228.2031 Q508.3438,227.625 507.75,227.3594 Q507.1563,227.0781 506.5313,227.0781 Q505.1875,227.0781 504.5,228.1563 Q503.8125,229.2188 503.8125,231.3125 Q503.8125,233.4063 504.5,234.4844 Q505.1875,235.5469 506.5313,235.5469 Q507.1563,235.5469 507.75,235.2813 Q508.3438,235 508.9688,234.4219 L508.9688,237.1406 Z " fill="#000000"/><text fill="#000000" font-family="sans-serif" font-size="14" lengthAdjust="spacing" textLength="89" x="520" y="236.3467">IntegerLiteral</text><line style="stroke:#000000;stroke-width:0.5;" x1="492" x2="611" y1="247.5" y2="247.5"/><text fill="#000000" font-family="sans-serif" font-size="14" lengthAdjust="spacing" textLength="98" x="497" y="264.4951">value : Integer</text></g></a><!--MD5=[95174e42ee347a14b6cb78d6855f19b5]
class Element--><a href="#Element" target="_top" title="#Element" xlink:actuate="onRequest" xlink:href="#Element" xlink:show="new" xlink:title="#Element" xlink:type="simple"><g ><rect codeLine="24" fill="#D3D3D3" height="32"  rx="2.5" ry="2.5" style="stroke:#000000;stroke-width:0.5;" width="89" x="350" y="7"/><ellipse cx="365" cy="23" fill="#A9DCDF" rx="11" ry="11" style="stroke:#181818;stroke-width:1.0;"/><path d="M365.1094,18.3438 L363.9531,23.4219 L366.2813,23.4219 L365.1094,18.3438 Z M363.625,16.1094 L366.6094,16.1094 L369.9688,28.5 L367.5156,28.5 L366.75,25.4375 L363.4688,25.4375 L362.7188,28.5 L360.2813,28.5 L363.625,16.1094 Z " fill="#000000"/><text fill="#000000" font-family="sans-serif" font-size="14" font-style="italic" lengthAdjust="spacing" textLength="57" x="379" y="27.8467">Element</text></g></a><!--MD5=[533048c0bed2bbe186c9f9559373d202]
class QuotedLiteral--><a href="#QuotedLiteral" target="_top" title="#QuotedLiteral" xlink:actuate="onRequest" xlink:href="#QuotedLiteral" xlink:show="new" xlink:title="#QuotedLiteral" xlink:type="simple"><g ><rect codeLine="27" fill="#FFFFFF" height="88.8906"  rx="2.5" ry="2.5" style="stroke:#000000;stroke-width:0.5;" width="136" x="647.5" y="199"/><ellipse cx="667.9" cy="215" fill="#ADD1B2" rx="11" ry="11" style="stroke:#181818;stroke-width:1.0;"/><path d="M670.8688,220.6406 Q670.2906,220.9375 669.65,221.0781 Q669.0094,221.2344 668.3063,221.2344 Q665.8063,221.2344 664.4781,219.5938 Q663.1656,217.9375 663.1656,214.8125 Q663.1656,211.6875 664.4781,210.0313 Q665.8063,208.375 668.3063,208.375 Q669.0094,208.375 669.65,208.5313 Q670.3063,208.6875 670.8688,208.9844 L670.8688,211.7031 Q670.2438,211.125 669.65,210.8594 Q669.0563,210.5781 668.4313,210.5781 Q667.0875,210.5781 666.4,211.6563 Q665.7125,212.7188 665.7125,214.8125 Q665.7125,216.9063 666.4,217.9844 Q667.0875,219.0469 668.4313,219.0469 Q669.0563,219.0469 669.65,218.7813 Q670.2438,218.5 670.8688,217.9219 L670.8688,220.6406 Z " fill="#000000"/><text fill="#000000" font-family="sans-serif" font-size="14" lengthAdjust="spacing" textLength="92" x="683.1" y="219.8467">QuotedLiteral</text><line style="stroke:#000000;stroke-width:0.5;" x1="648.5" x2="782.5" y1="231" y2="231"/><text fill="#000000" font-family="sans-serif" font-size="14" lengthAdjust="spacing" textLength="89" x="653.5" y="247.9951">value : String</text><text fill="#000000" font-family="sans-serif" font-size="14" lengthAdjust="spacing" textLength="108" x="653.5" y="264.292">langTag : String</text><text fill="#000000" font-family="sans-serif" font-size="14" lengthAdjust="spacing" textLength="124" x="653.5" y="280.5889">type : Scalar [0..1]</text></g></a><!--MD5=[0bb58e2e663bd8f52cbb3a64f7f519e2]
reverse link Literal to BooleanLiteral--><g ><a href="#Literal" target="_top" title="#Literal" xlink:actuate="onRequest" xlink:href="#Literal" xlink:show="new" xlink:title="#Literal" xlink:type="simple"><path codeLine="9" d="M338.986,135.259 C289.494,149.551 215.502,172.621 153.5,199 C142.23,203.7948 130.425,209.5766 119.395,215.3367 " fill="none"  style="stroke:#000000;stroke-width:1.0;"/><polygon fill="none" points="337.12,128.512,358.272,129.776,340.948,141.979,337.12,128.512" style="stroke:#000000;stroke-width:1.0;"/></a></g><!--MD5=[2a49919656d7501e32856347b7c16b5b]
reverse link Literal to DecimalLiteral--><g ><a href="#Literal" target="_top" title="#Literal" xlink:actuate="onRequest" xlink:href="#Literal" xlink:show="new" xlink:title="#Literal" xlink:type="simple"><path codeLine="13" d="M353.354,151.502 C327.563,171.249 294.656,196.4433 270.009,215.3133 " fill="none"  style="stroke:#000000;stroke-width:1.0;"/><polygon fill="none" points="349.364,145.741,369.5,139.141,357.875,156.857,349.364,145.741" style="stroke:#000000;stroke-width:1.0;"/></a></g><!--MD5=[a1a8ffc91d409eb769f36dab0150ed21]
reverse link Literal to DoubleLiteral--><g ><a href="#Literal" target="_top" title="#Literal" xlink:actuate="onRequest" xlink:href="#Literal" xlink:show="new" xlink:title="#Literal" xlink:type="simple"><path codeLine="17" d="M394.5,159.402 C394.5,177.653 394.5,198.881 394.5,215.3133 " fill="none"  style="stroke:#000000;stroke-width:1.0;"/><polygon fill="none" points="387.5,159.141,394.5,139.141,401.5,159.141,387.5,159.141" style="stroke:#000000;stroke-width:1.0;"/></a></g><!--MD5=[6a25895d4ecd2c8a4afd3c96e86e6c1c]
reverse link Literal to IntegerLiteral--><g ><a href="#Literal" target="_top" title="#Literal" xlink:actuate="onRequest" xlink:href="#Literal" xlink:show="new" xlink:title="#Literal" xlink:type="simple"><path codeLine="21" d="M434.874,151.502 C460.182,171.249 492.472,196.4433 516.657,215.3133 " fill="none"  style="stroke:#000000;stroke-width:1.0;"/><polygon fill="none" points="430.493,156.963,419.031,139.141,439.105,145.925,430.493,156.963" style="stroke:#000000;stroke-width:1.0;"/></a></g><!--MD5=[b5640beb1769b417107308fb2766c10a]
reverse link Element to Literal--><g ><a href="#Element" target="_top" title="#Element" xlink:actuate="onRequest" xlink:href="#Element" xlink:show="new" xlink:title="#Element" xlink:type="simple"><path codeLine="26" d="M394.5,59.445 C394.5,72.76 394.5,87.394 394.5,98.701 " fill="none"  style="stroke:#000000;stroke-width:1.0;"/><polygon fill="none" points="387.5,59.103,394.5,39.103,401.5,59.103,387.5,59.103" style="stroke:#000000;stroke-width:1.0;"/></a></g><!--MD5=[fee8631045d4cb3a59fcac38373cf397]
reverse link Literal to QuotedLiteral--><g ><a href="#Literal" target="_top" title="#Literal" xlink:actuate="onRequest" xlink:href="#Literal" xlink:show="new" xlink:title="#Literal" xlink:type="simple"><path codeLine="32" d="M449.959,136.169 C498.111,150.791 569.355,173.834 629.5,199 C635.365,201.4542 641.384,204.1384 647.382,206.93 " fill="none"  style="stroke:#000000;stroke-width:1.0;"/><polygon fill="none" points="447.672,142.791,430.524,130.344,451.691,129.381,447.672,142.791" style="stroke:#000000;stroke-width:1.0;"/></a></g><!--MD5=[3422b89996061417271a2126d3b30ae5]
@startuml
skinparam classBackgroundColor LightGray
skinparam classBorderColor Black
skinparam enumBorderColor Black
skinparam ArrowColor Black
hide methods
class BooleanLiteral [[#BooleanLiteral]] #white {
	value : Boolean
}
BooleanLiteral -up-|> Literal [[#Literal]]
class DecimalLiteral [[#DecimalLiteral]] #white {
	value : Decimal
}
DecimalLiteral -up-|> Literal [[#Literal]]
class DoubleLiteral [[#DoubleLiteral]] #white {
	value : Double
}
DoubleLiteral -up-|> Literal [[#Literal]]
class IntegerLiteral [[#IntegerLiteral]] #white {
	value : Integer
}
IntegerLiteral -up-|> Literal [[#Literal]]
abstract class Literal [[#Literal]] #white {
}
abstract class Element [[#Element]]
hide Element members
Literal -up-|> Element [[#Element]]
class QuotedLiteral [[#QuotedLiteral]] #white {
	value : String
	langTag : String
	type : Scalar [0..1]
}
QuotedLiteral -up-|> Literal [[#Literal]]
@enduml

PlantUML version 1.2022.12(Sun Oct 23 18:12:26 UTC 2022)
(GPL source distribution)
Java Runtime: OpenJDK Runtime Environment
JVM: OpenJDK 64-Bit Server VM
Default Encoding: UTF-8
Language: en
Country: US
--></g></svg>
