<?xml version="1.0" encoding="UTF-8" standalone="no"?><svg xmlns="http://www.w3.org/2000/svg" xmlns:xlink="http://www.w3.org/1999/xlink" contentStyleType="text/css" height="591px" preserveAspectRatio="none" style="width:1186px;height:591px;background:#FFFFFF;" version="1.1" viewBox="0 0 1186 591" width="1186px" zoomAndPan="magnify"><defs/><g><!--MD5=[a052ffd04a2a5cd2f202acb632be8a32]
class SpecializableTerm--><a href="#SpecializableTerm" target="_top" title="#SpecializableTerm" xlink:actuate="onRequest" xlink:href="#SpecializableTerm" xlink:show="new" xlink:title="#SpecializableTerm" xlink:type="simple"><g ><rect codeLine="6" fill="#FFFFFF" height="40"  rx="2.5" ry="2.5" style="stroke:#000000;stroke-width:0.5;" width="157" x="45" y="435"/><ellipse cx="60" cy="451" fill="#A9DCDF" rx="11" ry="11" style="stroke:#181818;stroke-width:1.0;"/><path d="M60.1094,446.3438 L58.9531,451.4219 L61.2812,451.4219 L60.1094,446.3438 Z M58.625,444.1094 L61.6094,444.1094 L64.9688,456.5 L62.5156,456.5 L61.75,453.4375 L58.4687,453.4375 L57.7187,456.5 L55.2812,456.5 L58.625,444.1094 Z " fill="#000000"/><text fill="#000000" font-family="sans-serif" font-size="14" font-style="italic" lengthAdjust="spacing" textLength="125" x="74" y="455.8467">SpecializableTerm</text><line style="stroke:#000000;stroke-width:0.5;" x1="46" x2="201" y1="467" y2="467"/></g></a><!--MD5=[49d093cbf59b0406cd053b3862e288a5]
class SpecializationAxiom--><a href="#SpecializationAxiom" target="_top" title="#SpecializationAxiom" xlink:actuate="onRequest" xlink:href="#SpecializationAxiom" xlink:show="new" xlink:title="#SpecializationAxiom" xlink:type="simple"><g ><rect codeLine="8" fill="#D3D3D3" height="32"  rx="2.5" ry="2.5" style="stroke:#000000;stroke-width:0.5;" width="167" x="40" y="552"/><ellipse cx="55" cy="568" fill="#ADD1B2" rx="11" ry="11" style="stroke:#181818;stroke-width:1.0;"/><path d="M57.9687,573.6406 Q57.3906,573.9375 56.75,574.0781 Q56.1094,574.2344 55.4062,574.2344 Q52.9062,574.2344 51.5781,572.5938 Q50.2656,570.9375 50.2656,567.8125 Q50.2656,564.6875 51.5781,563.0313 Q52.9062,561.375 55.4062,561.375 Q56.1094,561.375 56.75,561.5313 Q57.4062,561.6875 57.9687,561.9844 L57.9687,564.7031 Q57.3437,564.125 56.75,563.8594 Q56.1562,563.5781 55.5312,563.5781 Q54.1875,563.5781 53.5,564.6563 Q52.8125,565.7188 52.8125,567.8125 Q52.8125,569.9063 53.5,570.9844 Q54.1875,572.0469 55.5312,572.0469 Q56.1562,572.0469 56.75,571.7813 Q57.3437,571.5 57.9687,570.9219 L57.9687,573.6406 Z " fill="#000000"/><text fill="#000000" font-family="sans-serif" font-size="14" lengthAdjust="spacing" textLength="135" x="69" y="572.8467">SpecializationAxiom</text></g></a><!--MD5=[9d35236b92952560f647498cf8a29acb]
class Term--><a href="#Term" target="_top" title="#Term" xlink:actuate="onRequest" xlink:href="#Term" xlink:show="new" xlink:title="#Term" xlink:type="simple"><g ><rect codeLine="13" fill="#FFFFFF" height="40"  rx="2.5" ry="2.5" style="stroke:#000000;stroke-width:0.5;" width="68" x="17.5" y="326"/><ellipse cx="32.5" cy="342" fill="#A9DCDF" rx="11" ry="11" style="stroke:#181818;stroke-width:1.0;"/><path d="M32.6094,337.3438 L31.4531,342.4219 L33.7812,342.4219 L32.6094,337.3438 Z M31.125,335.1094 L34.1094,335.1094 L37.4687,347.5 L35.0156,347.5 L34.25,344.4375 L30.9687,344.4375 L30.2187,347.5 L27.7812,347.5 L31.125,335.1094 Z " fill="#000000"/><text fill="#000000" font-family="sans-serif" font-size="14" font-style="italic" lengthAdjust="spacing" textLength="36" x="46.5" y="346.8467">Term</text><line style="stroke:#000000;stroke-width:0.5;" x1="18.5" x2="84.5" y1="358" y2="358"/></g></a><!--MD5=[46b33d4aeab8075ab5c21e75f4258a8a]
class VocabularyStatement--><a href="#VocabularyStatement" target="_top" title="#VocabularyStatement" xlink:actuate="onRequest" xlink:href="#VocabularyStatement" xlink:show="new" xlink:title="#VocabularyStatement" xlink:type="simple"><g ><rect codeLine="53" fill="#FFFFFF" height="56.2969"  rx="2.5" ry="2.5" style="stroke:#000000;stroke-width:0.5;" width="248" x="120.5" y="318"/><ellipse cx="166.75" cy="334" fill="#A9DCDF" rx="11" ry="11" style="stroke:#181818;stroke-width:1.0;"/><path d="M166.8594,329.3438 L165.7031,334.4219 L168.0313,334.4219 L166.8594,329.3438 Z M165.375,327.1094 L168.3594,327.1094 L171.7188,339.5 L169.2656,339.5 L168.5,336.4375 L165.2188,336.4375 L164.4688,339.5 L162.0313,339.5 L165.375,327.1094 Z " fill="#000000"/><text fill="#000000" font-family="sans-serif" font-size="14" font-style="italic" lengthAdjust="spacing" textLength="147" x="187.25" y="338.8467">VocabularyStatement</text><line style="stroke:#000000;stroke-width:0.5;" x1="121.5" x2="367.5" y1="350" y2="350"/><text fill="#000000" font-family="sans-serif" font-size="14" lengthAdjust="spacing" textLength="236" x="126.5" y="366.9951">owningVocabulary : Vocabulary [1]</text></g></a><!--MD5=[f58fd777f29c17413488bea9e7cfcca3]
class Member--><a href="#Member" target="_top" title="#Member" xlink:actuate="onRequest" xlink:href="#Member" xlink:show="new" xlink:title="#Member" xlink:type="simple"><g ><rect codeLine="15" fill="#D3D3D3" height="32"  rx="2.5" ry="2.5" style="stroke:#000000;stroke-width:0.5;" width="89" x="7" y="205"/><ellipse cx="22" cy="221" fill="#A9DCDF" rx="11" ry="11" style="stroke:#181818;stroke-width:1.0;"/><path d="M22.1094,216.3438 L20.9531,221.4219 L23.2813,221.4219 L22.1094,216.3438 Z M20.625,214.1094 L23.6094,214.1094 L26.9688,226.5 L24.5156,226.5 L23.75,223.4375 L20.4688,223.4375 L19.7188,226.5 L17.2813,226.5 L20.625,214.1094 Z " fill="#000000"/><text fill="#000000" font-family="sans-serif" font-size="14" font-style="italic" lengthAdjust="spacing" textLength="57" x="36" y="225.8467">Member</text></g></a><!--MD5=[ab582a0c263dba417ad352e606b068fa]
class Vocabulary--><a href="#Vocabulary" target="_top" title="#Vocabulary" xlink:actuate="onRequest" xlink:href="#Vocabulary" xlink:show="new" xlink:title="#Vocabulary" xlink:type="simple"><g ><rect codeLine="18" fill="#FFFFFF" height="40"  rx="2.5" ry="2.5" style="stroke:#000000;stroke-width:0.5;" width="107" x="474" y="201"/><ellipse cx="489" cy="217" fill="#ADD1B2" rx="11" ry="11" style="stroke:#181818;stroke-width:1.0;"/><path d="M491.9688,222.6406 Q491.3906,222.9375 490.75,223.0781 Q490.1094,223.2344 489.4063,223.2344 Q486.9063,223.2344 485.5781,221.5938 Q484.2656,219.9375 484.2656,216.8125 Q484.2656,213.6875 485.5781,212.0313 Q486.9063,210.375 489.4063,210.375 Q490.1094,210.375 490.75,210.5313 Q491.4063,210.6875 491.9688,210.9844 L491.9688,213.7031 Q491.3438,213.125 490.75,212.8594 Q490.1563,212.5781 489.5313,212.5781 Q488.1875,212.5781 487.5,213.6563 Q486.8125,214.7188 486.8125,216.8125 Q486.8125,218.9063 487.5,219.9844 Q488.1875,221.0469 489.5313,221.0469 Q490.1563,221.0469 490.75,220.7813 Q491.3438,220.5 491.9688,219.9219 L491.9688,222.6406 Z " fill="#000000"/><text fill="#000000" font-family="sans-serif" font-size="14" lengthAdjust="spacing" textLength="75" x="503" y="221.8467">Vocabulary</text><line style="stroke:#000000;stroke-width:0.5;" x1="475" x2="580" y1="233" y2="233"/></g></a><!--MD5=[0f49be9f658c00ab935f824507f874ad]
class VocabularyBox--><a href="#VocabularyBox" target="_top" title="#VocabularyBox" xlink:actuate="onRequest" xlink:href="#VocabularyBox" xlink:show="new" xlink:title="#VocabularyBox" xlink:type="simple"><g ><rect codeLine="23" fill="#FFFFFF" height="40"  rx="2.5" ry="2.5" style="stroke:#000000;stroke-width:0.5;" width="133" x="540" y="100"/><ellipse cx="555" cy="116" fill="#A9DCDF" rx="11" ry="11" style="stroke:#181818;stroke-width:1.0;"/><path d="M555.1094,111.3438 L553.9531,116.4219 L556.2813,116.4219 L555.1094,111.3438 Z M553.625,109.1094 L556.6094,109.1094 L559.9688,121.5 L557.5156,121.5 L556.75,118.4375 L553.4688,118.4375 L552.7188,121.5 L550.2813,121.5 L553.625,109.1094 Z " fill="#000000"/><text fill="#000000" font-family="sans-serif" font-size="14" font-style="italic" lengthAdjust="spacing" textLength="101" x="569" y="120.8467">VocabularyBox</text><line style="stroke:#000000;stroke-width:0.5;" x1="541" x2="672" y1="132" y2="132"/></g></a><!--MD5=[e571556472849cfda0260818fbf7c861]
class VocabularyImport--><a href="#VocabularyImport" target="_top" title="#VocabularyImport" xlink:actuate="onRequest" xlink:href="#VocabularyImport" xlink:show="new" xlink:title="#VocabularyImport" xlink:type="simple"><g ><rect codeLine="47" fill="#FFFFFF" height="56.2969"  rx="2.5" ry="2.5" style="stroke:#000000;stroke-width:0.5;" width="248" x="403.5" y="318"/><ellipse cx="463.75" cy="334" fill="#A9DCDF" rx="11" ry="11" style="stroke:#181818;stroke-width:1.0;"/><path d="M463.8594,329.3438 L462.7031,334.4219 L465.0313,334.4219 L463.8594,329.3438 Z M462.375,327.1094 L465.3594,327.1094 L468.7188,339.5 L466.2656,339.5 L465.5,336.4375 L462.2188,336.4375 L461.4688,339.5 L459.0313,339.5 L462.375,327.1094 Z " fill="#000000"/><text fill="#000000" font-family="sans-serif" font-size="14" font-style="italic" lengthAdjust="spacing" textLength="119" x="484.25" y="338.8467">VocabularyImport</text><line style="stroke:#000000;stroke-width:0.5;" x1="404.5" x2="650.5" y1="350" y2="350"/><text fill="#000000" font-family="sans-serif" font-size="14" lengthAdjust="spacing" textLength="236" x="409.5" y="366.9951">owningVocabulary : Vocabulary [1]</text></g></a><!--MD5=[5dfd8d6a6d713da886d1ef2bfe78f203]
class Ontology--><a href="#Ontology" target="_top" title="#Ontology" xlink:actuate="onRequest" xlink:href="#Ontology" xlink:show="new" xlink:title="#Ontology" xlink:type="simple"><g ><rect codeLine="25" fill="#D3D3D3" height="32"  rx="2.5" ry="2.5" style="stroke:#000000;stroke-width:0.5;" width="94" x="559.5" y="7"/><ellipse cx="574.5" cy="23" fill="#A9DCDF" rx="11" ry="11" style="stroke:#181818;stroke-width:1.0;"/><path d="M574.6094,18.3438 L573.4531,23.4219 L575.7813,23.4219 L574.6094,18.3438 Z M573.125,16.1094 L576.1094,16.1094 L579.4688,28.5 L577.0156,28.5 L576.25,25.4375 L572.9688,25.4375 L572.2188,28.5 L569.7813,28.5 L573.125,16.1094 Z " fill="#000000"/><text fill="#000000" font-family="sans-serif" font-size="14" font-style="italic" lengthAdjust="spacing" textLength="62" x="588.5" y="27.8467">Ontology</text></g></a><!--MD5=[8cf9371877d66c1a415dc25868b96f9f]
class VocabularyBundle--><a href="#VocabularyBundle" target="_top" title="#VocabularyBundle" xlink:actuate="onRequest" xlink:href="#VocabularyBundle" xlink:show="new" xlink:title="#VocabularyBundle" xlink:type="simple"><g ><rect codeLine="28" fill="#FFFFFF" height="40"  rx="2.5" ry="2.5" style="stroke:#000000;stroke-width:0.5;" width="156" x="767.5" y="201"/><ellipse cx="782.5" cy="217" fill="#ADD1B2" rx="11" ry="11" style="stroke:#181818;stroke-width:1.0;"/><path d="M785.4688,222.6406 Q784.8906,222.9375 784.25,223.0781 Q783.6094,223.2344 782.9063,223.2344 Q780.4063,223.2344 779.0781,221.5938 Q777.7656,219.9375 777.7656,216.8125 Q777.7656,213.6875 779.0781,212.0313 Q780.4063,210.375 782.9063,210.375 Q783.6094,210.375 784.25,210.5313 Q784.9063,210.6875 785.4688,210.9844 L785.4688,213.7031 Q784.8438,213.125 784.25,212.8594 Q783.6563,212.5781 783.0313,212.5781 Q781.6875,212.5781 781,213.6563 Q780.3125,214.7188 780.3125,216.8125 Q780.3125,218.9063 781,219.9844 Q781.6875,221.0469 783.0313,221.0469 Q783.6563,221.0469 784.25,220.7813 Q784.8438,220.5 785.4688,219.9219 L785.4688,222.6406 Z " fill="#000000"/><text fill="#000000" font-family="sans-serif" font-size="14" lengthAdjust="spacing" textLength="124" x="796.5" y="221.8467">VocabularyBundle</text><line style="stroke:#000000;stroke-width:0.5;" x1="768.5" x2="922.5" y1="233" y2="233"/></g></a><!--MD5=[2e11a0adb7101f23b90ae3be70031f43]
class VocabularyBundleImport--><a href="#VocabularyBundleImport" target="_top" title="#VocabularyBundleImport" xlink:actuate="onRequest" xlink:href="#VocabularyBundleImport" xlink:show="new" xlink:title="#VocabularyBundleImport" xlink:type="simple"><g ><rect codeLine="35" fill="#FFFFFF" height="56.2969"  rx="2.5" ry="2.5" style="stroke:#000000;stroke-width:0.5;" width="346" x="686.5" y="318"/><ellipse cx="771.25" cy="334" fill="#A9DCDF" rx="11" ry="11" style="stroke:#181818;stroke-width:1.0;"/><path d="M771.3594,329.3438 L770.2031,334.4219 L772.5313,334.4219 L771.3594,329.3438 Z M769.875,327.1094 L772.8594,327.1094 L776.2188,339.5 L773.7656,339.5 L773,336.4375 L769.7188,336.4375 L768.9688,339.5 L766.5313,339.5 L769.875,327.1094 Z " fill="#000000"/><text fill="#000000" font-family="sans-serif" font-size="14" font-style="italic" lengthAdjust="spacing" textLength="168" x="791.75" y="338.8467">VocabularyBundleImport</text><line style="stroke:#000000;stroke-width:0.5;" x1="687.5" x2="1031.5" y1="350" y2="350"/><text fill="#000000" font-family="sans-serif" font-size="14" lengthAdjust="spacing" textLength="334" x="692.5" y="366.9951">owningVocabularyBundle : VocabularyBundle [1]</text></g></a><!--MD5=[5fd6cdbf89670d36b1d17af87789ebe1]
class VocabularyBundleExtension--><a href="#VocabularyBundleExtension" target="_top" title="#VocabularyBundleExtension" xlink:actuate="onRequest" xlink:href="#VocabularyBundleExtension" xlink:show="new" xlink:title="#VocabularyBundleExtension" xlink:type="simple"><g ><rect codeLine="32" fill="#FFFFFF" height="40"  rx="2.5" ry="2.5" style="stroke:#000000;stroke-width:0.5;" width="224" x="702.5" y="435"/><ellipse cx="717.5" cy="451" fill="#ADD1B2" rx="11" ry="11" style="stroke:#181818;stroke-width:1.0;"/><path d="M720.4688,456.6406 Q719.8906,456.9375 719.25,457.0781 Q718.6094,457.2344 717.9063,457.2344 Q715.4063,457.2344 714.0781,455.5938 Q712.7656,453.9375 712.7656,450.8125 Q712.7656,447.6875 714.0781,446.0313 Q715.4063,444.375 717.9063,444.375 Q718.6094,444.375 719.25,444.5313 Q719.9063,444.6875 720.4688,444.9844 L720.4688,447.7031 Q719.8438,447.125 719.25,446.8594 Q718.6563,446.5781 718.0313,446.5781 Q716.6875,446.5781 716,447.6563 Q715.3125,448.7188 715.3125,450.8125 Q715.3125,452.9063 716,453.9844 Q716.6875,455.0469 718.0313,455.0469 Q718.6563,455.0469 719.25,454.7813 Q719.8438,454.5 720.4688,453.9219 L720.4688,456.6406 Z " fill="#000000"/><text fill="#000000" font-family="sans-serif" font-size="14" lengthAdjust="spacing" textLength="192" x="731.5" y="455.8467">VocabularyBundleExtension</text><line style="stroke:#000000;stroke-width:0.5;" x1="703.5" x2="925.5" y1="467" y2="467"/></g></a><!--MD5=[f9bb3094b6d6f786926c56d9e97ecd1b]
class Import--><a href="#Import" target="_top" title="#Import" xlink:actuate="onRequest" xlink:href="#Import" xlink:show="new" xlink:title="#Import" xlink:type="simple"><g ><rect codeLine="50" fill="#D3D3D3" height="32"  rx="2.5" ry="2.5" style="stroke:#000000;stroke-width:0.5;" width="76" x="643.5" y="205"/><ellipse cx="658.5" cy="221" fill="#A9DCDF" rx="11" ry="11" style="stroke:#181818;stroke-width:1.0;"/><path d="M658.6094,216.3438 L657.4531,221.4219 L659.7813,221.4219 L658.6094,216.3438 Z M657.125,214.1094 L660.1094,214.1094 L663.4688,226.5 L661.0156,226.5 L660.25,223.4375 L656.9688,223.4375 L656.2188,226.5 L653.7813,226.5 L657.125,214.1094 Z " fill="#000000"/><text fill="#000000" font-family="sans-serif" font-size="14" font-style="italic" lengthAdjust="spacing" textLength="44" x="672.5" y="225.8467">Import</text></g></a><!--MD5=[a64de5d712c2b150f0cb0e9f0cd43aa9]
class VocabularyBundleInclusion--><a href="#VocabularyBundleInclusion" target="_top" title="#VocabularyBundleInclusion" xlink:actuate="onRequest" xlink:href="#VocabularyBundleInclusion" xlink:show="new" xlink:title="#VocabularyBundleInclusion" xlink:type="simple"><g ><rect codeLine="41" fill="#FFFFFF" height="40"  rx="2.5" ry="2.5" style="stroke:#000000;stroke-width:0.5;" width="217" x="962" y="435"/><ellipse cx="977" cy="451" fill="#ADD1B2" rx="11" ry="11" style="stroke:#181818;stroke-width:1.0;"/><path d="M979.9688,456.6406 Q979.3906,456.9375 978.75,457.0781 Q978.1094,457.2344 977.4063,457.2344 Q974.9063,457.2344 973.5781,455.5938 Q972.2656,453.9375 972.2656,450.8125 Q972.2656,447.6875 973.5781,446.0313 Q974.9063,444.375 977.4063,444.375 Q978.1094,444.375 978.75,444.5313 Q979.4063,444.6875 979.9688,444.9844 L979.9688,447.7031 Q979.3438,447.125 978.75,446.8594 Q978.1563,446.5781 977.5313,446.5781 Q976.1875,446.5781 975.5,447.6563 Q974.8125,448.7188 974.8125,450.8125 Q974.8125,452.9063 975.5,453.9844 Q976.1875,455.0469 977.5313,455.0469 Q978.1563,455.0469 978.75,454.7813 Q979.3438,454.5 979.9688,453.9219 L979.9688,456.6406 Z " fill="#000000"/><text fill="#000000" font-family="sans-serif" font-size="14" lengthAdjust="spacing" textLength="185" x="991" y="455.8467">VocabularyBundleInclusion</text><line style="stroke:#000000;stroke-width:0.5;" x1="963" x2="1178" y1="467" y2="467"/></g></a><!--MD5=[b0a024bb8234520a7a1e0e07e807f3fe]
class VocabularyExtension--><a href="#VocabularyExtension" target="_top" title="#VocabularyExtension" xlink:actuate="onRequest" xlink:href="#VocabularyExtension" xlink:show="new" xlink:title="#VocabularyExtension" xlink:type="simple"><g ><rect codeLine="44" fill="#FFFFFF" height="40"  rx="2.5" ry="2.5" style="stroke:#000000;stroke-width:0.5;" width="175" x="261" y="435"/><ellipse cx="276" cy="451" fill="#ADD1B2" rx="11" ry="11" style="stroke:#181818;stroke-width:1.0;"/><path d="M278.9688,456.6406 Q278.3906,456.9375 277.75,457.0781 Q277.1094,457.2344 276.4063,457.2344 Q273.9063,457.2344 272.5781,455.5938 Q271.2656,453.9375 271.2656,450.8125 Q271.2656,447.6875 272.5781,446.0313 Q273.9063,444.375 276.4063,444.375 Q277.1094,444.375 277.75,444.5313 Q278.4063,444.6875 278.9688,444.9844 L278.9688,447.7031 Q278.3438,447.125 277.75,446.8594 Q277.1563,446.5781 276.5313,446.5781 Q275.1875,446.5781 274.5,447.6563 Q273.8125,448.7188 273.8125,450.8125 Q273.8125,452.9063 274.5,453.9844 Q275.1875,455.0469 276.5313,455.0469 Q277.1563,455.0469 277.75,454.7813 Q278.3438,454.5 278.9688,453.9219 L278.9688,456.6406 Z " fill="#000000"/><text fill="#000000" font-family="sans-serif" font-size="14" lengthAdjust="spacing" textLength="143" x="290" y="455.8467">VocabularyExtension</text><line style="stroke:#000000;stroke-width:0.5;" x1="262" x2="435" y1="467" y2="467"/></g></a><!--MD5=[a61a298976b7d1d94498f45c2ebfa10b]
class Statement--><a href="#Statement" target="_top" title="#Statement" xlink:actuate="onRequest" xlink:href="#Statement" xlink:show="new" xlink:title="#Statement" xlink:type="simple"><g ><rect codeLine="56" fill="#D3D3D3" height="32"  rx="2.5" ry="2.5" style="stroke:#000000;stroke-width:0.5;" width="104" x="192.5" y="205"/><ellipse cx="207.5" cy="221" fill="#A9DCDF" rx="11" ry="11" style="stroke:#181818;stroke-width:1.0;"/><path d="M207.6094,216.3438 L206.4531,221.4219 L208.7813,221.4219 L207.6094,216.3438 Z M206.125,214.1094 L209.1094,214.1094 L212.4688,226.5 L210.0156,226.5 L209.25,223.4375 L205.9688,223.4375 L205.2188,226.5 L202.7813,226.5 L206.125,214.1094 Z " fill="#000000"/><text fill="#000000" font-family="sans-serif" font-size="14" font-style="italic" lengthAdjust="spacing" textLength="72" x="221.5" y="225.8467">Statement</text></g></a><!--MD5=[dd23831f4bb658e8bc4f7bd01d6b23b2]
class VocabularyUsage--><a href="#VocabularyUsage" target="_top" title="#VocabularyUsage" xlink:actuate="onRequest" xlink:href="#VocabularyUsage" xlink:show="new" xlink:title="#VocabularyUsage" xlink:type="simple"><g ><rect codeLine="59" fill="#FFFFFF" height="40"  rx="2.5" ry="2.5" style="stroke:#000000;stroke-width:0.5;" width="151" x="471" y="435"/><ellipse cx="486" cy="451" fill="#ADD1B2" rx="11" ry="11" style="stroke:#181818;stroke-width:1.0;"/><path d="M488.9688,456.6406 Q488.3906,456.9375 487.75,457.0781 Q487.1094,457.2344 486.4063,457.2344 Q483.9063,457.2344 482.5781,455.5938 Q481.2656,453.9375 481.2656,450.8125 Q481.2656,447.6875 482.5781,446.0313 Q483.9063,444.375 486.4063,444.375 Q487.1094,444.375 487.75,444.5313 Q488.4063,444.6875 488.9688,444.9844 L488.9688,447.7031 Q488.3438,447.125 487.75,446.8594 Q487.1563,446.5781 486.5313,446.5781 Q485.1875,446.5781 484.5,447.6563 Q483.8125,448.7188 483.8125,450.8125 Q483.8125,452.9063 484.5,453.9844 Q485.1875,455.0469 486.5313,455.0469 Q487.1563,455.0469 487.75,454.7813 Q488.3438,454.5 488.9688,453.9219 L488.9688,456.6406 Z " fill="#000000"/><text fill="#000000" font-family="sans-serif" font-size="14" lengthAdjust="spacing" textLength="119" x="500" y="455.8467">VocabularyUsage</text><line style="stroke:#000000;stroke-width:0.5;" x1="472" x2="621" y1="467" y2="467"/></g></a><!--MD5=[f83c79fdcfeccc30c38a0f5cc5abac9f]
reverse link Term to SpecializableTerm--><g ><a href="#Term" target="_top" title="#Term" xlink:actuate="onRequest" xlink:href="#Term" xlink:show="new" xlink:title="#Term" xlink:type="simple"><path codeLine="10" d="M75.6032,382.82 C87.2614,400.145 100.7952,420.258 110.497,434.675 " fill="none"  style="stroke:#000000;stroke-width:1.0;"/><polygon fill="none" points="69.7301,386.631,64.3722,366.129,81.3453,378.815,69.7301,386.631" style="stroke:#000000;stroke-width:1.0;"/></a></g><!--MD5=[3a394553e41c56186e904c7876230c86]
reverse link VocabularyStatement to SpecializableTerm--><g ><a href="#VocabularyStatement" target="_top" title="#VocabularyStatement" xlink:actuate="onRequest" xlink:href="#VocabularyStatement" xlink:show="new" xlink:title="#VocabularyStatement" xlink:type="simple"><path codeLine="11" d="M198.832,387.384 C180.461,403.629 160.146,421.594 145.246,434.77 " fill="none"  style="stroke:#000000;stroke-width:1.0;"/><polygon fill="none" points="194.347,382.006,213.967,374.001,203.621,392.493,194.347,382.006" style="stroke:#000000;stroke-width:1.0;"/></a></g><!--MD5=[7e6c035b3f4251f797e941c36a905dbb]
link SpecializableTerm to SpecializationAxiom--><g ><path codeLine="12" d="M123.5,487.082 C123.5,487.082 123.5,523.0012 123.5,538.3451 " fill="none"  style="stroke:#000000;stroke-width:1.0;"/><polygon fill="#000000" points="123.5,551.7324,127.5,542.7324,123.5,546.7324,119.5,542.7324,123.5,551.7324" style="stroke:#000000;stroke-width:1.0;"/><line style="stroke:#000000;stroke-width:1.0;" x1="123.5" x2="123.5" y1="546.7324" y2="538.7325"/><polygon fill="#000000" points="123.5,475.082,119.5,481.082,123.5,487.082,127.5,481.082,123.5,475.082" style="stroke:#000000;stroke-width:1.0;"/><text fill="#000000" font-family="sans-serif" font-size="13" lengthAdjust="spacing" textLength="136" x="124.5" y="518.0669">ownedSpecializations</text><text fill="#000000" font-family="sans-serif" font-size="13" lengthAdjust="spacing" textLength="7" x="115.3406" y="540.9483">*</text></g><!--MD5=[f13e2b06bf613d5c613839e9fe0ad995]
reverse link Member to Term--><g ><a href="#Member" target="_top" title="#Member" xlink:actuate="onRequest" xlink:href="#Member" xlink:show="new" xlink:title="#Member" xlink:type="simple"><path codeLine="17" d="M51.5,257.257 C51.5,279.533 51.5,307.462 51.5,325.747 " fill="none"  style="stroke:#000000;stroke-width:1.0;"/><polygon fill="none" points="44.5001,257.082,51.5,237.082,58.5001,257.082,44.5001,257.082" style="stroke:#000000;stroke-width:1.0;"/></a></g><!--MD5=[07a3c0786011b367d59d74536f7d35d9]
reverse link VocabularyBox to Vocabulary--><g ><a href="#VocabularyBox" target="_top" title="#VocabularyBox" xlink:actuate="onRequest" xlink:href="#VocabularyBox" xlink:show="new" xlink:title="#VocabularyBox" xlink:type="simple"><path codeLine="20" d="M578.577,155.992 C566.5,171.127 552.838,188.247 542.685,200.97 " fill="none"  style="stroke:#000000;stroke-width:1.0;"/><polygon fill="none" points="573.322,151.355,591.268,140.088,584.265,160.087,573.322,151.355" style="stroke:#000000;stroke-width:1.0;"/></a></g><!--MD5=[d1e03325b53959b6b20bff880ece1658]
link Vocabulary to VocabularyImport--><g ><path codeLine="21" d="M527.5,253.219 C527.5,253.219 527.5,288.404 527.5,304.68 " fill="none"  style="stroke:#000000;stroke-width:1.0;"/><polygon fill="#000000" points="527.5,317.702,531.5,308.702,527.5,312.702,523.5,308.702,527.5,317.702" style="stroke:#000000;stroke-width:1.0;"/><line style="stroke:#000000;stroke-width:1.0;" x1="527.5" x2="527.5" y1="312.702" y2="304.702"/><polygon fill="#000000" points="527.5,241.219,523.5,247.219,527.5,253.219,531.5,247.219,527.5,241.219" style="stroke:#000000;stroke-width:1.0;"/><text fill="#000000" font-family="sans-serif" font-size="13" lengthAdjust="spacing" textLength="90" x="528.5" y="284.0669">ownedImports</text><text fill="#000000" font-family="sans-serif" font-size="13" lengthAdjust="spacing" textLength="7" x="519.7344" y="306.9201">*</text></g><!--MD5=[5fd362096feee36f689bde7d201d2fc0]
link Vocabulary to VocabularyStatement--><g ><path codeLine="22" d="M464.335,245.3062 C464.335,245.3062 420.731,262.313 400.5,271 C370.748,283.775 338.33,298.944 310.793,312.212 " fill="none"  style="stroke:#000000;stroke-width:1.0;"/><polygon fill="#000000" points="298.913,317.963,308.7566,317.641,303.4132,315.784,305.2702,310.4407,298.913,317.963" style="stroke:#000000;stroke-width:1.0;"/><line style="stroke:#000000;stroke-width:1.0;" x1="303.4132" x2="310.614" y1="315.784" y2="312.2985"/><polygon fill="#000000" points="475.551,241.04,468.5209,239.4344,464.335,245.3062,471.365,246.9118,475.551,241.04" style="stroke:#000000;stroke-width:1.0;"/><text fill="#000000" font-family="sans-serif" font-size="13" lengthAdjust="spacing" textLength="117" x="401.5" y="284.0669">ownedStatements</text><text fill="#000000" font-family="sans-serif" font-size="13" lengthAdjust="spacing" textLength="7" x="303.6866" y="306.793">*</text></g><!--MD5=[9fab926d12550e574a05f3c5f21106f2]
reverse link Ontology to VocabularyBox--><g ><a href="#Ontology" target="_top" title="#Ontology" xlink:actuate="onRequest" xlink:href="#Ontology" xlink:show="new" xlink:title="#Ontology" xlink:type="simple"><path codeLine="27" d="M606.5,59.472 C606.5,73.156 606.5,88.266 606.5,99.838 " fill="none"  style="stroke:#000000;stroke-width:1.0;"/><polygon fill="none" points="599.5,59.263,606.5,39.263,613.5,59.263,599.5,59.263" style="stroke:#000000;stroke-width:1.0;"/></a></g><!--MD5=[0837a957dbe50439da5037fe5f454964]
reverse link VocabularyBox to VocabularyBundle--><g ><a href="#VocabularyBox" target="_top" title="#VocabularyBox" xlink:actuate="onRequest" xlink:href="#VocabularyBox" xlink:show="new" xlink:title="#VocabularyBox" xlink:type="simple"><path codeLine="30" d="M671.238,147.816 C711.817,164.625 763.146,185.887 799.56,200.97 " fill="none"  style="stroke:#000000;stroke-width:1.0;"/><polygon fill="none" points="668.38,154.209,652.582,140.088,673.738,141.275,668.38,154.209" style="stroke:#000000;stroke-width:1.0;"/></a></g><!--MD5=[21b34113fa968d0472a3e5ba34569129]
link VocabularyBundle to VocabularyBundleImport--><g ><path codeLine="31" d="M849.0449,253.142 C849.0449,253.142 853.041,288.253 854.903,304.613 " fill="none"  style="stroke:#000000;stroke-width:1.0;"/><polygon fill="#000000" points="856.393,317.702,859.3496,308.3074,855.8276,312.7341,851.4009,309.2121,856.393,317.702" style="stroke:#000000;stroke-width:1.0;"/><line style="stroke:#000000;stroke-width:1.0;" x1="855.8276" x2="854.9225" y1="312.7341" y2="304.7855"/><polygon fill="#000000" points="847.688,241.219,844.3921,247.6328,849.0449,253.142,852.3408,246.7282,847.688,241.219" style="stroke:#000000;stroke-width:1.0;"/><text fill="#000000" font-family="sans-serif" font-size="13" lengthAdjust="spacing" textLength="90" x="853.5" y="284.0669">ownedImports</text><text fill="#000000" font-family="sans-serif" font-size="13" lengthAdjust="spacing" textLength="7" x="847.9477" y="306.9201">*</text></g><!--MD5=[6a92d34bdb17d0d95b5b1444bb78ffab]
reverse link VocabularyBundleImport to VocabularyBundleExtension--><g ><a href="#VocabularyBundleImport" target="_top" title="#VocabularyBundleImport" xlink:actuate="onRequest" xlink:href="#VocabularyBundleImport" xlink:show="new" xlink:title="#VocabularyBundleImport" xlink:type="simple"><path codeLine="34" d="M840.332,392.577 C834.112,407.368 827.544,422.985 822.587,434.77 " fill="none"  style="stroke:#000000;stroke-width:1.0;"/><polygon fill="none" points="833.939,389.723,848.145,374.001,846.844,395.15,833.939,389.723" style="stroke:#000000;stroke-width:1.0;"/></a></g><!--MD5=[31d93693dbead445cc7f4b425b28a109]
reverse link Import to VocabularyBundleImport--><g ><a href="#Import" target="_top" title="#Import" xlink:actuate="onRequest" xlink:href="#Import" xlink:show="new" xlink:title="#Import" xlink:type="simple"><path codeLine="40" d="M720.136,248.698 C749.752,269.163 790.458,297.291 820.231,317.864 " fill="none"  style="stroke:#000000;stroke-width:1.0;"/><polygon fill="none" points="715.801,254.211,703.326,237.082,723.76,242.693,715.801,254.211" style="stroke:#000000;stroke-width:1.0;"/></a></g><!--MD5=[db345fdf578c9de3dfbf7c256025a166]
reverse link VocabularyBundleImport to VocabularyBundleInclusion--><g ><a href="#VocabularyBundleImport" target="_top" title="#VocabularyBundleImport" xlink:actuate="onRequest" xlink:href="#VocabularyBundleImport" xlink:show="new" xlink:title="#VocabularyBundleImport" xlink:type="simple"><path codeLine="43" d="M930.596,383.053 C964.863,400.431 1004.569,420.566 1032.91,434.936 " fill="none"  style="stroke:#000000;stroke-width:1.0;"/><polygon fill="none" points="927.416,389.289,912.744,374.001,933.748,376.803,927.416,389.289" style="stroke:#000000;stroke-width:1.0;"/></a></g><!--MD5=[774d8d5b07a2d42df1238e136ecdb29f]
reverse link VocabularyImport to VocabularyExtension--><g ><a href="#VocabularyImport" target="_top" title="#VocabularyImport" xlink:actuate="onRequest" xlink:href="#VocabularyImport" xlink:show="new" xlink:title="#VocabularyImport" xlink:type="simple"><path codeLine="46" d="M464.765,384.501 C436.261,401.54 403.768,420.963 380.392,434.936 " fill="none"  style="stroke:#000000;stroke-width:1.0;"/><polygon fill="none" points="461.572,378.254,482.331,374.001,468.756,390.271,461.572,378.254" style="stroke:#000000;stroke-width:1.0;"/></a></g><!--MD5=[bbb6a7f82eb1345995682b83f81baea6]
reverse link Import to VocabularyImport--><g ><a href="#Import" target="_top" title="#Import" xlink:actuate="onRequest" xlink:href="#Import" xlink:show="new" xlink:title="#Import" xlink:type="simple"><path codeLine="52" d="M659.501,253.576 C650.433,265.243 639.29,278.038 627.5,288 C614.22,299.221 598.417,309.398 583.34,317.945 " fill="none"  style="stroke:#000000;stroke-width:1.0;"/><polygon fill="none" points="654.008,249.229,671.484,237.246,665.295,257.512,654.008,249.229" style="stroke:#000000;stroke-width:1.0;"/></a></g><!--MD5=[1d790de18f6b975fd50101ef59182638]
reverse link Statement to VocabularyStatement--><g ><a href="#Statement" target="_top" title="#Statement" xlink:actuate="onRequest" xlink:href="#Statement" xlink:show="new" xlink:title="#Statement" xlink:type="simple"><path codeLine="58" d="M244.5,257.1 C244.5,276.316 244.5,299.777 244.5,317.626 " fill="none"  style="stroke:#000000;stroke-width:1.0;"/><polygon fill="none" points="237.5,257.082,244.5,237.082,251.5,257.082,237.5,257.082" style="stroke:#000000;stroke-width:1.0;"/></a></g><!--MD5=[55e7e8c37a2891829af606906175f308]
reverse link VocabularyImport to VocabularyUsage--><g ><a href="#VocabularyImport" target="_top" title="#VocabularyImport" xlink:actuate="onRequest" xlink:href="#VocabularyImport" xlink:show="new" xlink:title="#VocabularyImport" xlink:type="simple"><path codeLine="61" d="M535.815,393.825 C538.375,408.242 541.051,423.316 543.085,434.77 " fill="none"  style="stroke:#000000;stroke-width:1.0;"/><polygon fill="none" points="528.899,394.916,532.295,374.001,542.683,392.469,528.899,394.916" style="stroke:#000000;stroke-width:1.0;"/></a></g><!--MD5=[dc0658c6bdf4088f471b6aa1cf82f807]
@startuml
skinparam classBackgroundColor LightGray
skinparam classBorderColor Black
skinparam enumBorderColor Black
skinparam ArrowColor Black
hide methods
abstract class SpecializableTerm [[#SpecializableTerm]] #white {
}
class SpecializationAxiom [[#SpecializationAxiom]]
hide SpecializationAxiom members
SpecializableTerm -up-|> Term [[#Term]]
SpecializableTerm -up-|> VocabularyStatement [[#VocabularyStatement]]
SpecializableTerm *- -> "*" SpecializationAxiom : ownedSpecializations
abstract class Term [[#Term]] #white {
}
abstract class Member [[#Member]]
hide Member members
Term -up-|> Member [[#Member]]
class Vocabulary [[#Vocabulary]] #white {
}
Vocabulary -up-|> VocabularyBox [[#VocabularyBox]]
Vocabulary *- -> "*" VocabularyImport : ownedImports
Vocabulary *- -> "*" VocabularyStatement : ownedStatements
abstract class VocabularyBox [[#VocabularyBox]] #white {
}
abstract class Ontology [[#Ontology]]
hide Ontology members
VocabularyBox -up-|> Ontology [[#Ontology]]
class VocabularyBundle [[#VocabularyBundle]] #white {
}
VocabularyBundle -up-|> VocabularyBox [[#VocabularyBox]]
VocabularyBundle *- -> "*" VocabularyBundleImport : ownedImports
class VocabularyBundleExtension [[#VocabularyBundleExtension]] #white {
}
VocabularyBundleExtension -up-|> VocabularyBundleImport [[#VocabularyBundleImport]]
abstract class VocabularyBundleImport [[#VocabularyBundleImport]] #white {
	owningVocabularyBundle : VocabularyBundle [1]
}
abstract class Import [[#Import]]
hide Import members
VocabularyBundleImport -up-|> Import [[#Import]]
class VocabularyBundleInclusion [[#VocabularyBundleInclusion]] #white {
}
VocabularyBundleInclusion -up-|> VocabularyBundleImport [[#VocabularyBundleImport]]
class VocabularyExtension [[#VocabularyExtension]] #white {
}
VocabularyExtension -up-|> VocabularyImport [[#VocabularyImport]]
abstract class VocabularyImport [[#VocabularyImport]] #white {
	owningVocabulary : Vocabulary [1]
}
abstract class Import [[#Import]]
hide Import members
VocabularyImport -up-|> Import [[#Import]]
abstract class VocabularyStatement [[#VocabularyStatement]] #white {
	owningVocabulary : Vocabulary [1]
}
abstract class Statement [[#Statement]]
hide Statement members
VocabularyStatement -up-|> Statement [[#Statement]]
class VocabularyUsage [[#VocabularyUsage]] #white {
}
VocabularyUsage -up-|> VocabularyImport [[#VocabularyImport]]
@enduml

PlantUML version 1.2022.12(Sun Oct 23 18:12:26 UTC 2022)
(GPL source distribution)
Java Runtime: OpenJDK Runtime Environment
JVM: OpenJDK 64-Bit Server VM
Default Encoding: UTF-8
Language: en
Country: US
--></g></svg>
