<?xml version="1.0" encoding="UTF-8" standalone="no"?><svg xmlns="http://www.w3.org/2000/svg" xmlns:xlink="http://www.w3.org/1999/xlink" contentScriptType="application/ecmascript" contentStyleType="text/css" height="775px" preserveAspectRatio="none" style="width:1485px;height:775px;" version="1.1" viewBox="0 0 1485 775" width="1485px" zoomAndPan="magnify"><defs><filter height="300%" id="f1arud2jrbixo8" width="300%" x="-1" y="-1"><feGaussianBlur result="blurOut" stdDeviation="2.0"/><feColorMatrix in="blurOut" result="blurOut2" type="matrix" values="0 0 0 0 0 0 0 0 0 0 0 0 0 0 0 0 0 0 .4 0"/><feOffset dx="4.0" dy="4.0" in="blurOut2" result="blurOut3"/><feBlend in="SourceGraphic" in2="blurOut3" mode="normal"/></filter></defs><g><!--class Aspect--><a target="_top" xlink:actuate="onRequest" xlink:href="#Aspect" xlink:show="new" xlink:title="#Aspect" xlink:type="simple"><rect fill="#FFFFFF" filter="url(#f1arud2jrbixo8)" height="40"  style="stroke: #000000; stroke-width: 1.5;" width="75" x="6" y="557.5"/><rect fill="#FFFFFF" height="32" style="stroke: #000000; stroke-width: 1.5;" width="75" x="6" y="557.5"/><ellipse cx="21" cy="573.5" fill="#ADD1B2" rx="11" ry="11" style="stroke: #000000; stroke-width: 1.0;"/><path d="M23.9688,579.1406 Q23.3906,579.4375 22.75,579.5781 Q22.1094,579.7344 21.4063,579.7344 Q18.9063,579.7344 17.5781,578.0938 Q16.2656,576.4375 16.2656,573.3125 Q16.2656,570.1875 17.5781,568.5313 Q18.9063,566.875 21.4063,566.875 Q22.1094,566.875 22.75,567.0313 Q23.4063,567.1875 23.9688,567.4844 L23.9688,570.2031 Q23.3438,569.625 22.75,569.3594 Q22.1563,569.0781 21.5313,569.0781 Q20.1875,569.0781 19.5,570.1563 Q18.8125,571.2188 18.8125,573.3125 Q18.8125,575.4063 19.5,576.4844 Q20.1875,577.5469 21.5313,577.5469 Q22.1563,577.5469 22.75,577.2813 Q23.3438,577 23.9688,576.4219 L23.9688,579.1406 Z "/><text fill="#000000" font-family="sans-serif" font-size="12" lengthAdjust="spacingAndGlyphs" textLength="43" x="35" y="577.6543">Aspect</text><line style="stroke: #000000; stroke-width: 1.5;" x1="7" x2="80" y1="589.5" y2="589.5"/></a><!--class Entity--><a target="_top" xlink:actuate="onRequest" xlink:href="#Entity" xlink:show="new" xlink:title="#Entity" xlink:type="simple"><rect fill="#FFFFFF" filter="url(#f1arud2jrbixo8)" height="40"  style="stroke: #000000; stroke-width: 1.5;" width="67" x="453" y="351"/><rect fill="#FFFFFF" height="32" style="stroke: #000000; stroke-width: 1.5;" width="67" x="453" y="351"/><ellipse cx="468" cy="367" fill="#A9DCDF" rx="11" ry="11" style="stroke: #000000; stroke-width: 1.0;"/><path d="M468.1094,362.3438 L466.9531,367.4219 L469.2813,367.4219 L468.1094,362.3438 Z M466.625,360.1094 L469.6094,360.1094 L472.9688,372.5 L470.5156,372.5 L469.75,369.4375 L466.4688,369.4375 L465.7188,372.5 L463.2813,372.5 L466.625,360.1094 Z "/><text fill="#000000" font-family="sans-serif" font-size="12" font-style="italic" lengthAdjust="spacingAndGlyphs" textLength="35" x="482" y="371.1543">Entity</text><line style="stroke: #000000; stroke-width: 1.5;" x1="454" x2="519" y1="383" y2="383"/></a><!--class Classifier--><a target="_top" xlink:actuate="onRequest" xlink:href="#Classifier" xlink:show="new" xlink:title="#Classifier" xlink:type="simple"><rect fill="#FFFFFF" filter="url(#f1arud2jrbixo8)" height="40"  style="stroke: #000000; stroke-width: 1.5;" width="88" x="643.5" y="202"/><rect fill="#FFFFFF" height="32" style="stroke: #000000; stroke-width: 1.5;" width="88" x="643.5" y="202"/><ellipse cx="658.5" cy="218" fill="#A9DCDF" rx="11" ry="11" style="stroke: #000000; stroke-width: 1.0;"/><path d="M658.6094,213.3438 L657.4531,218.4219 L659.7813,218.4219 L658.6094,213.3438 Z M657.125,211.1094 L660.1094,211.1094 L663.4688,223.5 L661.0156,223.5 L660.25,220.4375 L656.9688,220.4375 L656.2188,223.5 L653.7813,223.5 L657.125,211.1094 Z "/><text fill="#000000" font-family="sans-serif" font-size="12" font-style="italic" lengthAdjust="spacingAndGlyphs" textLength="56" x="672.5" y="222.1543">Classifier</text><line style="stroke: #000000; stroke-width: 1.5;" x1="644.5" x2="730.5" y1="234" y2="234"/></a><!--class PropertyRestrictionAxiom--><a target="_top" xlink:actuate="onRequest" xlink:href="#PropertyRestrictionAxiom" xlink:show="new" xlink:title="#PropertyRestrictionAxiom" xlink:type="simple"><rect fill="#D3D3D3" filter="url(#f1arud2jrbixo8)" height="32"  style="stroke: #000000; stroke-width: 1.5;" width="188" x="555.5" y="355"/><ellipse cx="570.5" cy="371" fill="#A9DCDF" rx="11" ry="11" style="stroke: #000000; stroke-width: 1.0;"/><path d="M570.6094,366.3438 L569.4531,371.4219 L571.7813,371.4219 L570.6094,366.3438 Z M569.125,364.1094 L572.1094,364.1094 L575.4688,376.5 L573.0156,376.5 L572.25,373.4375 L568.9688,373.4375 L568.2188,376.5 L565.7813,376.5 L569.125,364.1094 Z "/><text fill="#000000" font-family="sans-serif" font-size="12" font-style="italic" lengthAdjust="spacingAndGlyphs" textLength="156" x="584.5" y="375.1543">PropertyRestrictionAxiom</text></a><!--class Type--><a target="_top" xlink:actuate="onRequest" xlink:href="#Type" xlink:show="new" xlink:title="#Type" xlink:type="simple"><rect fill="#FFFFFF" filter="url(#f1arud2jrbixo8)" height="40"  style="stroke: #000000; stroke-width: 1.5;" width="61" x="870" y="101"/><rect fill="#FFFFFF" height="32" style="stroke: #000000; stroke-width: 1.5;" width="61" x="870" y="101"/><ellipse cx="885" cy="117" fill="#A9DCDF" rx="11" ry="11" style="stroke: #000000; stroke-width: 1.0;"/><path d="M885.1094,112.3438 L883.9531,117.4219 L886.2813,117.4219 L885.1094,112.3438 Z M883.625,110.1094 L886.6094,110.1094 L889.9688,122.5 L887.5156,122.5 L886.75,119.4375 L883.4688,119.4375 L882.7188,122.5 L880.2813,122.5 L883.625,110.1094 Z "/><text fill="#000000" font-family="sans-serif" font-size="12" font-style="italic" lengthAdjust="spacingAndGlyphs" textLength="29" x="899" y="121.1543">Type</text><line style="stroke: #000000; stroke-width: 1.5;" x1="871" x2="930" y1="133" y2="133"/></a><!--class Concept--><a target="_top" xlink:actuate="onRequest" xlink:href="#Concept" xlink:show="new" xlink:title="#Concept" xlink:type="simple"><rect fill="#FFFFFF" filter="url(#f1arud2jrbixo8)" height="52.8047"  style="stroke: #000000; stroke-width: 1.5;" width="260" x="116.5" y="551"/><rect fill="#FFFFFF" height="32" style="stroke: #000000; stroke-width: 1.5;" width="260" x="116.5" y="551"/><ellipse cx="216.25" cy="567" fill="#ADD1B2" rx="11" ry="11" style="stroke: #000000; stroke-width: 1.0;"/><path d="M219.2188,572.6406 Q218.6406,572.9375 218,573.0781 Q217.3594,573.2344 216.6563,573.2344 Q214.1563,573.2344 212.8281,571.5938 Q211.5156,569.9375 211.5156,566.8125 Q211.5156,563.6875 212.8281,562.0313 Q214.1563,560.375 216.6563,560.375 Q217.3594,560.375 218,560.5313 Q218.6563,560.6875 219.2188,560.9844 L219.2188,563.7031 Q218.5938,563.125 218,562.8594 Q217.4063,562.5781 216.7813,562.5781 Q215.4375,562.5781 214.75,563.6563 Q214.0625,564.7188 214.0625,566.8125 Q214.0625,568.9063 214.75,569.9844 Q215.4375,571.0469 216.7813,571.0469 Q217.4063,571.0469 218,570.7813 Q218.5938,570.5 219.2188,569.9219 L219.2188,572.6406 Z "/><text fill="#000000" font-family="sans-serif" font-size="12" lengthAdjust="spacingAndGlyphs" textLength="52" x="236.75" y="571.1543">Concept</text><line style="stroke: #000000; stroke-width: 1.5;" x1="117.5" x2="375.5" y1="583" y2="583"/><text fill="#000000" font-family="sans-serif" font-size="11" lengthAdjust="spacingAndGlyphs" textLength="248" x="122.5" y="597.2104">enumeratedInstances : ConceptInstance [*]</text></a><!--class RelationRestrictionAxiom--><a target="_top" xlink:actuate="onRequest" xlink:href="#RelationRestrictionAxiom" xlink:show="new" xlink:title="#RelationRestrictionAxiom" xlink:type="simple"><rect fill="#D3D3D3" filter="url(#f1arud2jrbixo8)" height="32"  style="stroke: #000000; stroke-width: 1.5;" width="186" x="411.5" y="561.5"/><ellipse cx="426.5" cy="577.5" fill="#A9DCDF" rx="11" ry="11" style="stroke: #000000; stroke-width: 1.0;"/><path d="M426.6094,572.8438 L425.4531,577.9219 L427.7813,577.9219 L426.6094,572.8438 Z M425.125,570.6094 L428.1094,570.6094 L431.4688,583 L429.0156,583 L428.25,579.9375 L424.9688,579.9375 L424.2188,583 L421.7813,583 L425.125,570.6094 Z "/><text fill="#000000" font-family="sans-serif" font-size="12" font-style="italic" lengthAdjust="spacingAndGlyphs" textLength="154" x="440.5" y="581.6543">RelationRestrictionAxiom</text></a><!--class KeyAxiom--><a target="_top" xlink:actuate="onRequest" xlink:href="#KeyAxiom" xlink:show="new" xlink:title="#KeyAxiom" xlink:type="simple"><rect fill="#D3D3D3" filter="url(#f1arud2jrbixo8)" height="32"  style="stroke: #000000; stroke-width: 1.5;" width="89" x="650" y="561.5"/><ellipse cx="665" cy="577.5" fill="#ADD1B2" rx="11" ry="11" style="stroke: #000000; stroke-width: 1.0;"/><path d="M667.9688,583.1406 Q667.3906,583.4375 666.75,583.5781 Q666.1094,583.7344 665.4063,583.7344 Q662.9063,583.7344 661.5781,582.0938 Q660.2656,580.4375 660.2656,577.3125 Q660.2656,574.1875 661.5781,572.5313 Q662.9063,570.875 665.4063,570.875 Q666.1094,570.875 666.75,571.0313 Q667.4063,571.1875 667.9688,571.4844 L667.9688,574.2031 Q667.3438,573.625 666.75,573.3594 Q666.1563,573.0781 665.5313,573.0781 Q664.1875,573.0781 663.5,574.1563 Q662.8125,575.2188 662.8125,577.3125 Q662.8125,579.4063 663.5,580.4844 Q664.1875,581.5469 665.5313,581.5469 Q666.1563,581.5469 666.75,581.2813 Q667.3438,581 667.9688,580.4219 L667.9688,583.1406 Z "/><text fill="#000000" font-family="sans-serif" font-size="12" lengthAdjust="spacingAndGlyphs" textLength="57" x="679" y="581.6543">KeyAxiom</text></a><!--class EnumeratedScalar--><a target="_top" xlink:actuate="onRequest" xlink:href="#EnumeratedScalar" xlink:show="new" xlink:title="#EnumeratedScalar" xlink:type="simple"><rect fill="#FFFFFF" filter="url(#f1arud2jrbixo8)" height="40"  style="stroke: #000000; stroke-width: 1.5;" width="148" x="924.5" y="351"/><rect fill="#FFFFFF" height="32" style="stroke: #000000; stroke-width: 1.5;" width="148" x="924.5" y="351"/><ellipse cx="939.5" cy="367" fill="#ADD1B2" rx="11" ry="11" style="stroke: #000000; stroke-width: 1.0;"/><path d="M942.4688,372.6406 Q941.8906,372.9375 941.25,373.0781 Q940.6094,373.2344 939.9063,373.2344 Q937.4063,373.2344 936.0781,371.5938 Q934.7656,369.9375 934.7656,366.8125 Q934.7656,363.6875 936.0781,362.0313 Q937.4063,360.375 939.9063,360.375 Q940.6094,360.375 941.25,360.5313 Q941.9063,360.6875 942.4688,360.9844 L942.4688,363.7031 Q941.8438,363.125 941.25,362.8594 Q940.6563,362.5781 940.0313,362.5781 Q938.6875,362.5781 938,363.6563 Q937.3125,364.7188 937.3125,366.8125 Q937.3125,368.9063 938,369.9844 Q938.6875,371.0469 940.0313,371.0469 Q940.6563,371.0469 941.25,370.7813 Q941.8438,370.5 942.4688,369.9219 L942.4688,372.6406 Z "/><text fill="#000000" font-family="sans-serif" font-size="12" lengthAdjust="spacingAndGlyphs" textLength="116" x="953.5" y="371.1543">EnumeratedScalar</text><line style="stroke: #000000; stroke-width: 1.5;" x1="925.5" x2="1071.5" y1="383" y2="383"/></a><!--class Literal--><a target="_top" xlink:actuate="onRequest" xlink:href="#Literal" xlink:show="new" xlink:title="#Literal" xlink:type="simple"><rect fill="#D3D3D3" filter="url(#f1arud2jrbixo8)" height="32"  style="stroke: #000000; stroke-width: 1.5;" width="70" x="1164.5" y="561.5"/><ellipse cx="1179.5" cy="577.5" fill="#A9DCDF" rx="11" ry="11" style="stroke: #000000; stroke-width: 1.0;"/><path d="M1179.6094,572.8438 L1178.4531,577.9219 L1180.7813,577.9219 L1179.6094,572.8438 Z M1178.125,570.6094 L1181.1094,570.6094 L1184.4688,583 L1182.0156,583 L1181.25,579.9375 L1177.9688,579.9375 L1177.2188,583 L1174.7813,583 L1178.125,570.6094 Z "/><text fill="#000000" font-family="sans-serif" font-size="12" font-style="italic" lengthAdjust="spacingAndGlyphs" textLength="38" x="1193.5" y="581.6543">Literal</text></a><!--class Scalar--><a target="_top" xlink:actuate="onRequest" xlink:href="#Scalar" xlink:show="new" xlink:title="#Scalar" xlink:type="simple"><rect fill="#FFFFFF" filter="url(#f1arud2jrbixo8)" height="40"  style="stroke: #000000; stroke-width: 1.5;" width="71" x="963" y="202"/><rect fill="#FFFFFF" height="32" style="stroke: #000000; stroke-width: 1.5;" width="71" x="963" y="202"/><ellipse cx="978" cy="218" fill="#A9DCDF" rx="11" ry="11" style="stroke: #000000; stroke-width: 1.0;"/><path d="M978.1094,213.3438 L976.9531,218.4219 L979.2813,218.4219 L978.1094,213.3438 Z M976.625,211.1094 L979.6094,211.1094 L982.9688,223.5 L980.5156,223.5 L979.75,220.4375 L976.4688,220.4375 L975.7188,223.5 L973.2813,223.5 L976.625,211.1094 Z "/><text fill="#000000" font-family="sans-serif" font-size="12" font-style="italic" lengthAdjust="spacingAndGlyphs" textLength="39" x="992" y="222.1543">Scalar</text><line style="stroke: #000000; stroke-width: 1.5;" x1="964" x2="1033" y1="234" y2="234"/></a><!--class FacetedScalar--><a target="_top" xlink:actuate="onRequest" xlink:href="#FacetedScalar" xlink:show="new" xlink:title="#FacetedScalar" xlink:type="simple"><rect fill="#FFFFFF" filter="url(#f1arud2jrbixo8)" height="104.0234"  style="stroke: #000000; stroke-width: 1.5;" width="179" x="1110" y="319"/><rect fill="#FFFFFF" height="32" style="stroke: #000000; stroke-width: 1.5;" width="179" x="1110" y="319"/><ellipse cx="1150.65" cy="335" fill="#ADD1B2" rx="11" ry="11" style="stroke: #000000; stroke-width: 1.0;"/><path d="M1153.6188,340.6406 Q1153.0406,340.9375 1152.4,341.0781 Q1151.7594,341.2344 1151.0563,341.2344 Q1148.5563,341.2344 1147.2281,339.5938 Q1145.9156,337.9375 1145.9156,334.8125 Q1145.9156,331.6875 1147.2281,330.0313 Q1148.5563,328.375 1151.0563,328.375 Q1151.7594,328.375 1152.4,328.5313 Q1153.0563,328.6875 1153.6188,328.9844 L1153.6188,331.7031 Q1152.9938,331.125 1152.4,330.8594 Q1151.8063,330.5781 1151.1813,330.5781 Q1149.8375,330.5781 1149.15,331.6563 Q1148.4625,332.7188 1148.4625,334.8125 Q1148.4625,336.9063 1149.15,337.9844 Q1149.8375,339.0469 1151.1813,339.0469 Q1151.8063,339.0469 1152.4,338.7813 Q1152.9938,338.5 1153.6188,337.9219 L1153.6188,340.6406 Z "/><text fill="#000000" font-family="sans-serif" font-size="12" lengthAdjust="spacingAndGlyphs" textLength="90" x="1170.35" y="339.1543">FacetedScalar</text><line style="stroke: #000000; stroke-width: 1.5;" x1="1111" x2="1288" y1="351" y2="351"/><text fill="#000000" font-family="sans-serif" font-size="11" lengthAdjust="spacingAndGlyphs" textLength="140" x="1116" y="365.2104">length : UnsignedInteger</text><text fill="#000000" font-family="sans-serif" font-size="11" lengthAdjust="spacingAndGlyphs" textLength="164" x="1116" y="378.0151">minLength : UnsignedInteger</text><text fill="#000000" font-family="sans-serif" font-size="11" lengthAdjust="spacingAndGlyphs" textLength="167" x="1116" y="390.8198">maxLength : UnsignedInteger</text><text fill="#000000" font-family="sans-serif" font-size="11" lengthAdjust="spacingAndGlyphs" textLength="87" x="1116" y="403.6245">pattern : String</text><text fill="#000000" font-family="sans-serif" font-size="11" lengthAdjust="spacingAndGlyphs" textLength="98" x="1116" y="416.4292">language : String</text></a><!--class RelationEntity--><a target="_top" xlink:actuate="onRequest" xlink:href="#RelationEntity" xlink:show="new" xlink:title="#RelationEntity" xlink:type="simple"><rect fill="#FFFFFF" filter="url(#f1arud2jrbixo8)" height="155.2422"  style="stroke: #000000; stroke-width: 1.5;" width="169" x="774" y="500"/><rect fill="#FFFFFF" height="32" style="stroke: #000000; stroke-width: 1.5;" width="169" x="774" y="500"/><ellipse cx="811.95" cy="516" fill="#ADD1B2" rx="11" ry="11" style="stroke: #000000; stroke-width: 1.0;"/><path d="M814.9188,521.6406 Q814.3406,521.9375 813.7,522.0781 Q813.0594,522.2344 812.3563,522.2344 Q809.8563,522.2344 808.5281,520.5938 Q807.2156,518.9375 807.2156,515.8125 Q807.2156,512.6875 808.5281,511.0313 Q809.8563,509.375 812.3563,509.375 Q813.0594,509.375 813.7,509.5313 Q814.3563,509.6875 814.9188,509.9844 L814.9188,512.7031 Q814.2938,512.125 813.7,511.8594 Q813.1063,511.5781 812.4813,511.5781 Q811.1375,511.5781 810.45,512.6563 Q809.7625,513.7188 809.7625,515.8125 Q809.7625,517.9063 810.45,518.9844 Q811.1375,520.0469 812.4813,520.0469 Q813.1063,520.0469 813.7,519.7813 Q814.2938,519.5 814.9188,518.9219 L814.9188,521.6406 Z "/><text fill="#000000" font-family="sans-serif" font-size="12" lengthAdjust="spacingAndGlyphs" textLength="86" x="831.05" y="520.1543">RelationEntity</text><line style="stroke: #000000; stroke-width: 1.5;" x1="775" x2="942" y1="532" y2="532"/><text fill="#000000" font-family="sans-serif" font-size="11" lengthAdjust="spacingAndGlyphs" textLength="113" x="780" y="546.2104">functional : Boolean</text><text fill="#000000" font-family="sans-serif" font-size="11" lengthAdjust="spacingAndGlyphs" textLength="157" x="780" y="559.0151">inverseFunctional : Boolean</text><text fill="#000000" font-family="sans-serif" font-size="11" lengthAdjust="spacingAndGlyphs" textLength="118" x="780" y="571.8198">symmetric : Boolean</text><text fill="#000000" font-family="sans-serif" font-size="11" lengthAdjust="spacingAndGlyphs" textLength="125" x="780" y="584.6245">asymmetric : Boolean</text><text fill="#000000" font-family="sans-serif" font-size="11" lengthAdjust="spacingAndGlyphs" textLength="106" x="780" y="597.4292">reflexive : Boolean</text><text fill="#000000" font-family="sans-serif" font-size="11" lengthAdjust="spacingAndGlyphs" textLength="114" x="780" y="610.2339">irreflexive : Boolean</text><text fill="#000000" font-family="sans-serif" font-size="11" lengthAdjust="spacingAndGlyphs" textLength="111" x="780" y="623.0386">transitive : Boolean</text><text fill="#000000" font-family="sans-serif" font-size="11" lengthAdjust="spacingAndGlyphs" textLength="101" x="780" y="635.8433">source : Entity [1]</text><text fill="#000000" font-family="sans-serif" font-size="11" lengthAdjust="spacingAndGlyphs" textLength="96" x="780" y="648.6479">target : Entity [1]</text></a><!--class ForwardRelation--><a target="_top" xlink:actuate="onRequest" xlink:href="#ForwardRelation" xlink:show="new" xlink:title="#ForwardRelation" xlink:type="simple"><rect fill="#D3D3D3" filter="url(#f1arud2jrbixo8)" height="32"  style="stroke: #000000; stroke-width: 1.5;" width="133" x="708" y="732"/><ellipse cx="723" cy="748" fill="#ADD1B2" rx="11" ry="11" style="stroke: #000000; stroke-width: 1.0;"/><path d="M725.9688,753.6406 Q725.3906,753.9375 724.75,754.0781 Q724.1094,754.2344 723.4063,754.2344 Q720.9063,754.2344 719.5781,752.5938 Q718.2656,750.9375 718.2656,747.8125 Q718.2656,744.6875 719.5781,743.0313 Q720.9063,741.375 723.4063,741.375 Q724.1094,741.375 724.75,741.5313 Q725.4063,741.6875 725.9688,741.9844 L725.9688,744.7031 Q725.3438,744.125 724.75,743.8594 Q724.1563,743.5781 723.5313,743.5781 Q722.1875,743.5781 721.5,744.6563 Q720.8125,745.7188 720.8125,747.8125 Q720.8125,749.9063 721.5,750.9844 Q722.1875,752.0469 723.5313,752.0469 Q724.1563,752.0469 724.75,751.7813 Q725.3438,751.5 725.9688,750.9219 L725.9688,753.6406 Z "/><text fill="#000000" font-family="sans-serif" font-size="12" lengthAdjust="spacingAndGlyphs" textLength="101" x="737" y="752.1543">ForwardRelation</text></a><!--class ReverseRelation--><a target="_top" xlink:actuate="onRequest" xlink:href="#ReverseRelation" xlink:show="new" xlink:title="#ReverseRelation" xlink:type="simple"><rect fill="#D3D3D3" filter="url(#f1arud2jrbixo8)" height="32"  style="stroke: #000000; stroke-width: 1.5;" width="133" x="876" y="732"/><ellipse cx="891" cy="748" fill="#ADD1B2" rx="11" ry="11" style="stroke: #000000; stroke-width: 1.0;"/><path d="M893.9688,753.6406 Q893.3906,753.9375 892.75,754.0781 Q892.1094,754.2344 891.4063,754.2344 Q888.9063,754.2344 887.5781,752.5938 Q886.2656,750.9375 886.2656,747.8125 Q886.2656,744.6875 887.5781,743.0313 Q888.9063,741.375 891.4063,741.375 Q892.1094,741.375 892.75,741.5313 Q893.4063,741.6875 893.9688,741.9844 L893.9688,744.7031 Q893.3438,744.125 892.75,743.8594 Q892.1563,743.5781 891.5313,743.5781 Q890.1875,743.5781 889.5,744.6563 Q888.8125,745.7188 888.8125,747.8125 Q888.8125,749.9063 889.5,750.9844 Q890.1875,752.0469 891.5313,752.0469 Q892.1563,752.0469 892.75,751.7813 Q893.3438,751.5 893.9688,750.9219 L893.9688,753.6406 Z "/><text fill="#000000" font-family="sans-serif" font-size="12" lengthAdjust="spacingAndGlyphs" textLength="101" x="905" y="752.1543">ReverseRelation</text></a><!--class Structure--><a target="_top" xlink:actuate="onRequest" xlink:href="#Structure" xlink:show="new" xlink:title="#Structure" xlink:type="simple"><rect fill="#FFFFFF" filter="url(#f1arud2jrbixo8)" height="40"  style="stroke: #000000; stroke-width: 1.5;" width="91" x="798" y="351"/><rect fill="#FFFFFF" height="32" style="stroke: #000000; stroke-width: 1.5;" width="91" x="798" y="351"/><ellipse cx="813" cy="367" fill="#ADD1B2" rx="11" ry="11" style="stroke: #000000; stroke-width: 1.0;"/><path d="M815.9688,372.6406 Q815.3906,372.9375 814.75,373.0781 Q814.1094,373.2344 813.4063,373.2344 Q810.9063,373.2344 809.5781,371.5938 Q808.2656,369.9375 808.2656,366.8125 Q808.2656,363.6875 809.5781,362.0313 Q810.9063,360.375 813.4063,360.375 Q814.1094,360.375 814.75,360.5313 Q815.4063,360.6875 815.9688,360.9844 L815.9688,363.7031 Q815.3438,363.125 814.75,362.8594 Q814.1563,362.5781 813.5313,362.5781 Q812.1875,362.5781 811.5,363.6563 Q810.8125,364.7188 810.8125,366.8125 Q810.8125,368.9063 811.5,369.9844 Q812.1875,371.0469 813.5313,371.0469 Q814.1563,371.0469 814.75,370.7813 Q815.3438,370.5 815.9688,369.9219 L815.9688,372.6406 Z "/><text fill="#000000" font-family="sans-serif" font-size="12" lengthAdjust="spacingAndGlyphs" textLength="59" x="827" y="371.1543">Structure</text><line style="stroke: #000000; stroke-width: 1.5;" x1="799" x2="888" y1="383" y2="383"/></a><!--class SpecializableTerm--><a target="_top" xlink:actuate="onRequest" xlink:href="#SpecializableTerm" xlink:show="new" xlink:title="#SpecializableTerm" xlink:type="simple"><rect fill="#D3D3D3" filter="url(#f1arud2jrbixo8)" height="32"  style="stroke: #000000; stroke-width: 1.5;" width="143" x="829" y="8"/><ellipse cx="844" cy="24" fill="#A9DCDF" rx="11" ry="11" style="stroke: #000000; stroke-width: 1.0;"/><path d="M844.1094,19.3438 L842.9531,24.4219 L845.2813,24.4219 L844.1094,19.3438 Z M842.625,17.1094 L845.6094,17.1094 L848.9688,29.5 L846.5156,29.5 L845.75,26.4375 L842.4688,26.4375 L841.7188,29.5 L839.2813,29.5 L842.625,17.1094 Z "/><text fill="#000000" font-family="sans-serif" font-size="12" font-style="italic" lengthAdjust="spacingAndGlyphs" textLength="111" x="858" y="28.1543">SpecializableTerm</text></a><!--link Entity to Aspect--><a target="_top" xlink:actuate="onRequest" xlink:href="#Entity" xlink:show="new" xlink:title="#Entity" xlink:type="simple"><path d="M432.946,378.934 C353.345,391.458 202.09,423.985 98.5,500 C78.059,515 62.2082,539.88 52.8826,557.177 " fill="none"  style="stroke: #000000; stroke-width: 1.0;"/><polygon fill="none" points="432.133,371.979,452.942,375.976,434.182,385.828,432.133,371.979" style="stroke: #000000; stroke-width: 1.0;"/></a><!--link Type to Classifier--><a target="_top" xlink:actuate="onRequest" xlink:href="#Type" xlink:show="new" xlink:title="#Type" xlink:type="simple"><path d="M851.633,144.713 C814.394,162.021 763.704,185.581 728.551,201.92 " fill="none"  style="stroke: #000000; stroke-width: 1.0;"/><polygon fill="none" points="848.895,138.266,869.982,136.184,854.796,150.962,848.895,138.266" style="stroke: #000000; stroke-width: 1.0;"/></a><!--link Classifier to PropertyRestrictionAxiom--><path d="M657.451,252.469 C652.965,258.479 649.009,265.093 646.5,272 C638.325,294.51 640.042,321.879 643.247,341.966 " fill="none"  style="stroke: #000000; stroke-width: 1.0;"/><polygon fill="#000000" points="645.662,354.846,647.9349,345.263,644.7406,349.9316,640.0719,346.7373,645.662,354.846" style="stroke: #000000; stroke-width: 1.0;"/><line style="stroke: #000000; stroke-width: 1.0;" x1="644.7406" x2="643.266" y1="349.9316" y2="342.0685"/><polygon fill="#000000" points="665.901,242.372,658.9825,244.4054,658.1986,251.5738,665.117,249.5404,665.901,242.372" style="stroke: #000000; stroke-width: 1.0;"/><text fill="#000000" font-family="sans-serif" font-size="13" lengthAdjust="spacingAndGlyphs" textLength="169" x="647.5" y="285.0669">ownedPropertyRestrictions</text><text fill="#000000" font-family="sans-serif" font-size="13" lengthAdjust="spacingAndGlyphs" textLength="7" x="636.1396" y="343.8047">*</text><!--link Entity to Concept--><a target="_top" xlink:actuate="onRequest" xlink:href="#Entity" xlink:show="new" xlink:title="#Entity" xlink:type="simple"><path d="M448.577,404.314 C400.967,444.881 320.264,513.647 276.642,550.817 " fill="none"  style="stroke: #000000; stroke-width: 1.0;"/><polygon fill="none" points="444.158,398.882,463.921,391.239,453.238,409.538,444.158,398.882" style="stroke: #000000; stroke-width: 1.0;"/></a><!--link Classifier to Entity--><a target="_top" xlink:actuate="onRequest" xlink:href="#Classifier" xlink:show="new" xlink:title="#Classifier" xlink:type="simple"><path d="M635.88,252.248 C606.049,270.062 568.425,294.127 537.5,319 C525.596,328.574 513.455,340.606 504.007,350.578 " fill="none"  style="stroke: #000000; stroke-width: 1.0;"/><polygon fill="none" points="632.525,246.1,653.317,242.012,639.612,258.174,632.525,246.1" style="stroke: #000000; stroke-width: 1.0;"/></a><!--link Entity to RelationRestrictionAxiom--><path d="M485.024,404.441 C484.421,419.246 483.796,437.007 483.5,453 C483.36,460.554 482.766,462.48 483.5,470 C486.132,496.951 492.425,527.199 497.44,548.552 " fill="none"  style="stroke: #000000; stroke-width: 1.0;"/><polygon fill="#000000" points="500.574,561.47,502.34,551.7808,499.3955,556.6109,494.5654,553.6664,500.574,561.47" style="stroke: #000000; stroke-width: 1.0;"/><line style="stroke: #000000; stroke-width: 1.0;" x1="499.3955" x2="497.509" y1="556.6109" y2="548.8365"/><polygon fill="#000000" points="485.584,391.306,481.3325,397.1305,485.0737,403.2951,489.3252,397.4707,485.584,391.306" style="stroke: #000000; stroke-width: 1.0;"/><text fill="#000000" font-family="sans-serif" font-size="13" lengthAdjust="spacingAndGlyphs" textLength="166" x="484.5" y="466.0669">ownedRelationRestrictions</text><text fill="#000000" font-family="sans-serif" font-size="13" lengthAdjust="spacingAndGlyphs" textLength="7" x="491.0213" y="550.4713">*</text><!--link Entity to KeyAxiom--><path d="M510.037,400.849 C517.998,409.04 527.441,417.278 537.5,423 C584.536,449.755 616.163,415.841 655.5,453 C681.667,477.719 690.359,519.82 693.198,547.895 " fill="none"  style="stroke: #000000; stroke-width: 1.0;"/><polygon fill="#000000" points="694.211,561.132,697.513,551.8532,693.8297,556.1466,689.5363,552.4632,694.211,561.132" style="stroke: #000000; stroke-width: 1.0;"/><line style="stroke: #000000; stroke-width: 1.0;" x1="693.8297" x2="693.219" y1="556.1466" y2="548.17"/><polygon fill="#000000" points="501.119,391.053,502.2003,398.1826,509.1974,399.9266,508.116,392.797,501.119,391.053" style="stroke: #000000; stroke-width: 1.0;"/><text fill="#000000" font-family="sans-serif" font-size="13" lengthAdjust="spacingAndGlyphs" textLength="71" x="670.5" y="466.0669">ownedKeys</text><text fill="#000000" font-family="sans-serif" font-size="13" lengthAdjust="spacingAndGlyphs" textLength="7" x="685.9559" y="550.3146">*</text><!--link Scalar to EnumeratedScalar--><a target="_top" xlink:actuate="onRequest" xlink:href="#Scalar" xlink:show="new" xlink:title="#Scalar" xlink:type="simple"><path d="M998.5,262.38 C998.5,290.979 998.5,328.436 998.5,350.778 " fill="none"  style="stroke: #000000; stroke-width: 1.0;"/><polygon fill="none" points="991.5,262.218,998.5,242.218,1005.5,262.218,991.5,262.218" style="stroke: #000000; stroke-width: 1.0;"/></a><!--link EnumeratedScalar to Literal--><path d="M998.948,404.263 C1000.699,424.772 1005.791,450.952 1019.5,470 C1052.18,515.404 1110.71,544.731 1152.15,560.887 " fill="none"  style="stroke: #000000; stroke-width: 1.0;"/><polygon fill="#000000" points="1164.41,565.481,1157.3906,558.5725,1159.7291,563.7233,1154.5783,566.0619,1164.41,565.481" style="stroke: #000000; stroke-width: 1.0;"/><line style="stroke: #000000; stroke-width: 1.0;" x1="1159.7291" x2="1152.24" y1="563.7233" y2="560.92"/><polygon fill="#000000" points="998.206,391.128,994.5513,397.3444,998.8838,403.1088,1002.5385,396.8925,998.206,391.128" style="stroke: #000000; stroke-width: 1.0;"/><text fill="#000000" font-family="sans-serif" font-size="13" lengthAdjust="spacingAndGlyphs" textLength="42" x="1020.5" y="466.0669">literals</text><text fill="#000000" font-family="sans-serif" font-size="13" lengthAdjust="spacingAndGlyphs" textLength="7" x="1149.4508" y="576.6295">*</text><!--link Scalar to FacetedScalar--><a target="_top" xlink:actuate="onRequest" xlink:href="#Scalar" xlink:show="new" xlink:title="#Scalar" xlink:type="simple"><path d="M1041.18,254.214 C1066.84,272.978 1100.11,297.313 1129.53,318.828 " fill="none"  style="stroke: #000000; stroke-width: 1.0;"/><polygon fill="none" points="1036.79,259.674,1024.78,242.218,1045.05,248.374,1036.79,259.674" style="stroke: #000000; stroke-width: 1.0;"/></a><!--link FacetedScalar to Literal--><path d="M1099.73,423.803 C1090.49,432.35 1082.4,442.058 1076.5,453 C1053.28,496.1 1108.53,534.05 1152.35,556.144 " fill="none"  style="stroke: #000000; stroke-width: 1.0;"/><polygon fill="#000000" points="1164.33,561.947,1157.9687,554.4281,1159.8286,559.7705,1154.4862,561.6304,1164.33,561.947" style="stroke: #000000; stroke-width: 1.0;"/><line style="stroke: #000000; stroke-width: 1.0;" x1="1159.8286" x2="1152.63" y1="559.7705" y2="556.28"/><polygon fill="#000000" points="1109.73,415.313,1102.5673,416.1468,1100.582,423.0792,1107.7447,422.2454,1109.73,415.313" style="stroke: #000000; stroke-width: 1.0;"/><text fill="#000000" font-family="sans-serif" font-size="13" lengthAdjust="spacingAndGlyphs" textLength="78" x="1077.5" y="466.0669">minInclusive</text><text fill="#000000" font-family="sans-serif" font-size="13" lengthAdjust="spacingAndGlyphs" textLength="24" x="1132.5175" y="555.2067">0..1</text><!--link FacetedScalar to Literal--><path d="M1196.9,436.435 C1196.74,442.037 1196.6,447.618 1196.5,453 C1195.9,485.624 1197.07,523.091 1198.12,548.121 " fill="none"  style="stroke: #000000; stroke-width: 1.0;"/><polygon fill="#000000" points="1198.71,561.291,1202.3024,552.1207,1198.4858,556.296,1194.3105,552.4794,1198.71,561.291" style="stroke: #000000; stroke-width: 1.0;"/><line style="stroke: #000000; stroke-width: 1.0;" x1="1198.4858" x2="1198.125" y1="556.296" y2="548.304"/><polygon fill="#000000" points="1197.31,423.412,1193.1222,429.2825,1196.9304,435.406,1201.1182,429.5355,1197.31,423.412" style="stroke: #000000; stroke-width: 1.0;"/><text fill="#000000" font-family="sans-serif" font-size="13" lengthAdjust="spacingAndGlyphs" textLength="82" x="1197.5" y="466.0669">minExclusive</text><text fill="#000000" font-family="sans-serif" font-size="13" lengthAdjust="spacingAndGlyphs" textLength="24" x="1170.4733" y="550.5263">0..1</text><!--link FacetedScalar to Literal--><path d="M1280.53,433.945 C1286.67,445.087 1288.97,457.246 1284.5,470 C1273.13,502.471 1247.25,532.419 1227.01,552.232 " fill="none"  style="stroke: #000000; stroke-width: 1.0;"/><polygon fill="#000000" points="1217.33,561.369,1226.6192,558.0963,1220.9646,557.9354,1221.1255,552.2809,1217.33,561.369" style="stroke: #000000; stroke-width: 1.0;"/><line style="stroke: #000000; stroke-width: 1.0;" x1="1220.9646" x2="1226.785" y1="557.9354" y2="552.444"/><polygon fill="#000000" points="1273.23,423.157,1273.2803,430.3679,1279.9559,433.0949,1279.9056,425.884,1273.23,423.157" style="stroke: #000000; stroke-width: 1.0;"/><text fill="#000000" font-family="sans-serif" font-size="13" lengthAdjust="spacingAndGlyphs" textLength="82" x="1288.5" y="466.0669">maxInclusive</text><text fill="#000000" font-family="sans-serif" font-size="13" lengthAdjust="spacingAndGlyphs" textLength="24" x="1227.5841" y="550.3356">0..1</text><!--link FacetedScalar to Literal--><path d="M1301.8,395.072 C1331.98,407.153 1361.67,425.432 1379.5,453 C1416.56,510.315 1312.4,548.109 1247.37,565.482 " fill="none"  style="stroke: #000000; stroke-width: 1.0;"/><polygon fill="#000000" points="1234.54,568.782,1244.2533,570.4107,1239.382,567.5348,1242.2578,562.6635,1234.54,568.782" style="stroke: #000000; stroke-width: 1.0;"/><line style="stroke: #000000; stroke-width: 1.0;" x1="1239.382" x2="1247.135" y1="567.5348" y2="565.5425"/><polygon fill="#000000" points="1289.33,390.424,1293.5541,396.2684,1300.5736,394.6171,1296.3495,388.7727,1289.33,390.424" style="stroke: #000000; stroke-width: 1.0;"/><text fill="#000000" font-family="sans-serif" font-size="13" lengthAdjust="spacingAndGlyphs" textLength="86" x="1387.5" y="466.0669">maxExclusive</text><text fill="#000000" font-family="sans-serif" font-size="13" lengthAdjust="spacingAndGlyphs" textLength="24" x="1242.625" y="580.651">0..1</text><!--link Entity to RelationEntity--><a target="_top" xlink:actuate="onRequest" xlink:href="#Entity" xlink:show="new" xlink:title="#Entity" xlink:type="simple"><path d="M513.968,405.802 C520.964,412.481 528.949,418.735 537.5,423 C623.05,465.67 666.424,407.495 750.5,453 C771.667,464.456 790.627,481.805 806.531,499.908 " fill="none"  style="stroke: #000000; stroke-width: 1.0;"/><polygon fill="none" points="508.826,410.552,500.394,391.113,519.109,401.051,508.826,410.552" style="stroke: #000000; stroke-width: 1.0;"/></a><!--link RelationEntity to ForwardRelation--><path d="M808.44,666.9385 C805.334,673.0094 802.325,679.0695 799.5,685 C794.177,696.1735 788.95,708.7967 784.664,719.7228 " fill="none"  style="stroke: #000000; stroke-width: 1.0;"/><polygon fill="#000000" points="779.958,731.9972,786.9148,725.0256,781.7479,727.3286,779.445,722.1617,779.958,731.9972" style="stroke: #000000; stroke-width: 1.0;"/><line style="stroke: #000000; stroke-width: 1.0;" x1="781.7479" x2="784.6115" y1="727.3286" y2="719.8588"/><polygon fill="#000000" points="814.511,655.282,808.1918,658.7559,808.968,665.9251,815.2872,662.4512,814.511,655.282" style="stroke: #000000; stroke-width: 1.0;"/><text fill="#000000" font-family="sans-serif" font-size="13" lengthAdjust="spacingAndGlyphs" textLength="98" x="800.5" y="698.0669">forwardRelation</text><text fill="#000000" font-family="sans-serif" font-size="13" lengthAdjust="spacingAndGlyphs" textLength="24" x="753.7092" y="721.0078">0..1</text><!--link RelationEntity to ReverseRelation--><path d="M902.756,667.2748 C912.328,686.4772 921.744,705.3653 929.007,719.9335 " fill="none"  style="stroke: #000000; stroke-width: 1.0;"/><polygon fill="#000000" points="935.014,731.9831,934.5783,722.1439,932.7832,727.5084,927.4187,725.7132,935.014,731.9831" style="stroke: #000000; stroke-width: 1.0;"/><line style="stroke: #000000; stroke-width: 1.0;" x1="932.7832" x2="929.214" y1="727.5084" y2="720.3487"/><polygon fill="#000000" points="896.813,655.354,895.9102,662.5084,902.167,666.0934,903.0698,658.939,896.813,655.354" style="stroke: #000000; stroke-width: 1.0;"/><text fill="#000000" font-family="sans-serif" font-size="13" lengthAdjust="spacingAndGlyphs" textLength="99" x="921.5" y="698.0669">reverseRelation</text><text fill="#000000" font-family="sans-serif" font-size="13" lengthAdjust="spacingAndGlyphs" textLength="24" x="904.3157" y="720.9889">0..1</text><!--link Type to Scalar--><a target="_top" xlink:actuate="onRequest" xlink:href="#Type" xlink:show="new" xlink:title="#Type" xlink:type="simple"><path d="M933.695,155.534 C949.023,171.018 966.661,188.836 979.663,201.97 " fill="none"  style="stroke: #000000; stroke-width: 1.0;"/><polygon fill="none" points="928.491,160.227,919.395,141.088,938.44,150.377,928.491,160.227" style="stroke: #000000; stroke-width: 1.0;"/></a><!--link Classifier to Structure--><a target="_top" xlink:actuate="onRequest" xlink:href="#Classifier" xlink:show="new" xlink:title="#Classifier" xlink:type="simple"><path d="M751.219,232.715 C776.413,239.668 803.575,251.584 821.5,272 C840.713,293.883 844.221,328.919 844.338,350.636 " fill="none"  style="stroke: #000000; stroke-width: 1.0;"/><polygon fill="none" points="749.528,239.509,731.649,228.136,752.718,225.877,749.528,239.509" style="stroke: #000000; stroke-width: 1.0;"/></a><!--link SpecializableTerm to Type--><a target="_top" xlink:actuate="onRequest" xlink:href="#SpecializableTerm" xlink:show="new" xlink:title="#SpecializableTerm" xlink:type="simple"><path d="M900.5,60.472 C900.5,74.156 900.5,89.266 900.5,100.838 " fill="none"  style="stroke: #000000; stroke-width: 1.0;"/><polygon fill="none" points="893.5,60.263,900.5,40.263,907.5,60.263,893.5,60.263" style="stroke: #000000; stroke-width: 1.0;"/></a><!--
@startuml
skinparam classBackgroundColor LightGray
skinparam classBorderColor Black
skinparam enumBorderColor Black
skinparam ArrowColor Black
hide methods
class Aspect [[#Aspect]] #white {
}
Aspect -up-|> Entity [[#Entity]]
abstract class Classifier [[#Classifier]] #white {
}
abstract class PropertyRestrictionAxiom [[#PropertyRestrictionAxiom]]
hide PropertyRestrictionAxiom members
Classifier -up-|> Type [[#Type]]
Classifier *- -> "*" PropertyRestrictionAxiom : ownedPropertyRestrictions
class Concept [[#Concept]] #white {
	enumeratedInstances : ConceptInstance [*]
}
Concept -up-|> Entity [[#Entity]]
abstract class Entity [[#Entity]] #white {
}
abstract class RelationRestrictionAxiom [[#RelationRestrictionAxiom]]
hide RelationRestrictionAxiom members
class KeyAxiom [[#KeyAxiom]]
hide KeyAxiom members
Entity -up-|> Classifier [[#Classifier]]
Entity *- -> "*" RelationRestrictionAxiom : ownedRelationRestrictions
Entity *- -> "*" KeyAxiom : ownedKeys
class EnumeratedScalar [[#EnumeratedScalar]] #white {
}
abstract class Literal [[#Literal]]
hide Literal members
EnumeratedScalar -up-|> Scalar [[#Scalar]]
EnumeratedScalar *- -> "*" Literal : literals
class FacetedScalar [[#FacetedScalar]] #white {
	length : UnsignedInteger
	minLength : UnsignedInteger
	maxLength : UnsignedInteger
	pattern : String
	language : String
}
abstract class Literal [[#Literal]]
hide Literal members
abstract class Literal [[#Literal]]
hide Literal members
abstract class Literal [[#Literal]]
hide Literal members
abstract class Literal [[#Literal]]
hide Literal members
FacetedScalar -up-|> Scalar [[#Scalar]]
FacetedScalar *- -> "0..1" Literal : minInclusive
FacetedScalar *- -> "0..1" Literal : minExclusive
FacetedScalar *- -> "0..1" Literal : maxInclusive
FacetedScalar *- -> "0..1" Literal : maxExclusive
class RelationEntity [[#RelationEntity]] #white {
	functional : Boolean
	inverseFunctional : Boolean
	symmetric : Boolean
	asymmetric : Boolean
	reflexive : Boolean
	irreflexive : Boolean
	transitive : Boolean
	source : Entity [1]
	target : Entity [1]
}
class ForwardRelation [[#ForwardRelation]]
hide ForwardRelation members
class ReverseRelation [[#ReverseRelation]]
hide ReverseRelation members
RelationEntity -up-|> Entity [[#Entity]]
RelationEntity *- -> "0..1" ForwardRelation : forwardRelation
RelationEntity *- -> "0..1" ReverseRelation : reverseRelation
abstract class Scalar [[#Scalar]] #white {
}
Scalar -up-|> Type [[#Type]]
class Structure [[#Structure]] #white {
}
Structure -up-|> Classifier [[#Classifier]]
abstract class Type [[#Type]] #white {
}
abstract class SpecializableTerm [[#SpecializableTerm]]
hide SpecializableTerm members
Type -up-|> SpecializableTerm [[#SpecializableTerm]]
@enduml

PlantUML version 1.2019.00(Sun Jan 13 15:46:42 UTC 2019)
(GPL source distribution)
Java Runtime: OpenJDK Runtime Environment
JVM: OpenJDK 64-Bit Server VM
Java Version: 11.0.2+9
Operating System: Linux
OS Version: 4.15.0-1098-gcp
Default Encoding: UTF-8
Language: en
Country: US
--></g></svg>
