<?xml version="1.0" encoding="UTF-8" standalone="no"?><svg xmlns="http://www.w3.org/2000/svg" xmlns:xlink="http://www.w3.org/1999/xlink" contentStyleType="text/css" height="690px" preserveAspectRatio="none" style="width:971px;height:690px;background:#FFFFFF;" version="1.1" viewBox="0 0 971 690" width="971px" zoomAndPan="magnify"><defs/><g><!--MD5=[b9ff1853f78609902ad604bbec434fb1]
class BinaryPredicate--><a href="#BinaryPredicate" target="_top" title="#BinaryPredicate" xlink:actuate="onRequest" xlink:href="#BinaryPredicate" xlink:show="new" xlink:title="#BinaryPredicate" xlink:type="simple"><g ><rect codeLine="6" fill="#FFFFFF" height="88.8906"  rx="2.5" ry="2.5" style="stroke:#000000;stroke-width:0.5;" width="241" x="354" y="351"/><ellipse cx="416.75" cy="367" fill="#A9DCDF" rx="11" ry="11" style="stroke:#181818;stroke-width:1.0;"/><path d="M416.8594,362.3438 L415.7031,367.4219 L418.0313,367.4219 L416.8594,362.3438 Z M415.375,360.1094 L418.3594,360.1094 L421.7188,372.5 L419.2656,372.5 L418.5,369.4375 L415.2188,369.4375 L414.4688,372.5 L412.0313,372.5 L415.375,360.1094 Z " fill="#000000"/><text fill="#000000" font-family="sans-serif" font-size="14" font-style="italic" lengthAdjust="spacing" textLength="107" x="437.25" y="371.8467">BinaryPredicate</text><line style="stroke:#000000;stroke-width:0.5;" x1="355" x2="594" y1="383" y2="383"/><text fill="#000000" font-family="sans-serif" font-size="14" lengthAdjust="spacing" textLength="88" x="360" y="399.9951">variable1 : ID</text><text fill="#000000" font-family="sans-serif" font-size="14" lengthAdjust="spacing" textLength="88" x="360" y="416.292">variable2 : ID</text><text fill="#000000" font-family="sans-serif" font-size="14" lengthAdjust="spacing" textLength="229" x="360" y="432.5889">instance2 : NamedInstance [0..1]</text></g></a><!--MD5=[e6dc55dd324d6a8c189f3ada02b144fc]
class Predicate--><a href="#Predicate" target="_top" title="#Predicate" xlink:actuate="onRequest" xlink:href="#Predicate" xlink:show="new" xlink:title="#Predicate" xlink:type="simple"><g ><rect codeLine="22" fill="#FFFFFF" height="72.5938"  rx="2.5" ry="2.5" style="stroke:#000000;stroke-width:0.5;" width="211" x="122" y="217"/><ellipse cx="190.75" cy="233" fill="#A9DCDF" rx="11" ry="11" style="stroke:#181818;stroke-width:1.0;"/><path d="M190.8594,228.3438 L189.7031,233.4219 L192.0313,233.4219 L190.8594,228.3438 Z M189.375,226.1094 L192.3594,226.1094 L195.7188,238.5 L193.2656,238.5 L192.5,235.4375 L189.2188,235.4375 L188.4688,238.5 L186.0313,238.5 L189.375,226.1094 Z " fill="#000000"/><text fill="#000000" font-family="sans-serif" font-size="14" font-style="italic" lengthAdjust="spacing" textLength="65" x="211.25" y="237.8467">Predicate</text><line style="stroke:#000000;stroke-width:0.5;" x1="123" x2="332" y1="249" y2="249"/><text fill="#000000" font-family="sans-serif" font-size="14" lengthAdjust="spacing" textLength="195" x="128" y="265.9951">antecedentRule : Rule [0..1]</text><text fill="#000000" font-family="sans-serif" font-size="14" lengthAdjust="spacing" textLength="199" x="128" y="282.292">consequentRule : Rule [0..1]</text></g></a><!--MD5=[4084a945bf768861338b464a55575a8f]
class DifferentFromPredicate--><a href="#DifferentFromPredicate" target="_top" title="#DifferentFromPredicate" xlink:actuate="onRequest" xlink:href="#DifferentFromPredicate" xlink:show="new" xlink:title="#DifferentFromPredicate" xlink:type="simple"><g ><rect codeLine="12" fill="#FFFFFF" height="40"  rx="2.5" ry="2.5" style="stroke:#000000;stroke-width:0.5;" width="191" x="173" y="517.5"/><ellipse cx="188" cy="533.5" fill="#ADD1B2" rx="11" ry="11" style="stroke:#181818;stroke-width:1.0;"/><path d="M190.9688,539.1406 Q190.3906,539.4375 189.75,539.5781 Q189.1094,539.7344 188.4063,539.7344 Q185.9063,539.7344 184.5781,538.0938 Q183.2656,536.4375 183.2656,533.3125 Q183.2656,530.1875 184.5781,528.5313 Q185.9063,526.875 188.4063,526.875 Q189.1094,526.875 189.75,527.0313 Q190.4063,527.1875 190.9688,527.4844 L190.9688,530.2031 Q190.3438,529.625 189.75,529.3594 Q189.1563,529.0781 188.5313,529.0781 Q187.1875,529.0781 186.5,530.1563 Q185.8125,531.2188 185.8125,533.3125 Q185.8125,535.4063 186.5,536.4844 Q187.1875,537.5469 188.5313,537.5469 Q189.1563,537.5469 189.75,537.2813 Q190.3438,537 190.9688,536.4219 L190.9688,539.1406 Z " fill="#000000"/><text fill="#000000" font-family="sans-serif" font-size="14" lengthAdjust="spacing" textLength="159" x="202" y="538.3467">DifferentFromPredicate</text><line style="stroke:#000000;stroke-width:0.5;" x1="174" x2="363" y1="549.5" y2="549.5"/></g></a><!--MD5=[ee4d54a206632be50588e423c0129942]
class FeaturePredicate--><a href="#FeaturePredicate" target="_top" title="#FeaturePredicate" xlink:actuate="onRequest" xlink:href="#FeaturePredicate" xlink:show="new" xlink:title="#FeaturePredicate" xlink:type="simple"><g ><rect codeLine="15" fill="#FFFFFF" height="56.2969"  rx="2.5" ry="2.5" style="stroke:#000000;stroke-width:0.5;" width="150" x="399.5" y="509.5"/><ellipse cx="414.5" cy="525.5" fill="#ADD1B2" rx="11" ry="11" style="stroke:#181818;stroke-width:1.0;"/><path d="M417.4688,531.1406 Q416.8906,531.4375 416.25,531.5781 Q415.6094,531.7344 414.9063,531.7344 Q412.4063,531.7344 411.0781,530.0938 Q409.7656,528.4375 409.7656,525.3125 Q409.7656,522.1875 411.0781,520.5313 Q412.4063,518.875 414.9063,518.875 Q415.6094,518.875 416.25,519.0313 Q416.9063,519.1875 417.4688,519.4844 L417.4688,522.2031 Q416.8438,521.625 416.25,521.3594 Q415.6563,521.0781 415.0313,521.0781 Q413.6875,521.0781 413,522.1563 Q412.3125,523.2188 412.3125,525.3125 Q412.3125,527.4063 413,528.4844 Q413.6875,529.5469 415.0313,529.5469 Q415.6563,529.5469 416.25,529.2813 Q416.8438,529 417.4688,528.4219 L417.4688,531.1406 Z " fill="#000000"/><text fill="#000000" font-family="sans-serif" font-size="14" lengthAdjust="spacing" textLength="118" x="428.5" y="530.3467">FeaturePredicate</text><line style="stroke:#000000;stroke-width:0.5;" x1="400.5" x2="548.5" y1="541.5" y2="541.5"/><text fill="#000000" font-family="sans-serif" font-size="14" lengthAdjust="spacing" textLength="138" x="405.5" y="558.4951">feature : Feature [1]</text></g></a><!--MD5=[27bfdb9e128171e0e365013b6b91e809]
class Literal--><a href="#Literal" target="_top" title="#Literal" xlink:actuate="onRequest" xlink:href="#Literal" xlink:show="new" xlink:title="#Literal" xlink:type="simple"><g ><rect codeLine="18" fill="#D3D3D3" height="32"  rx="2.5" ry="2.5" style="stroke:#000000;stroke-width:0.5;" width="72" x="438.5" y="651"/><ellipse cx="453.5" cy="667" fill="#A9DCDF" rx="11" ry="11" style="stroke:#181818;stroke-width:1.0;"/><path d="M453.6094,662.3438 L452.4531,667.4219 L454.7813,667.4219 L453.6094,662.3438 Z M452.125,660.1094 L455.1094,660.1094 L458.4688,672.5 L456.0156,672.5 L455.25,669.4375 L451.9688,669.4375 L451.2188,672.5 L448.7813,672.5 L452.125,660.1094 Z " fill="#000000"/><text fill="#000000" font-family="sans-serif" font-size="14" font-style="italic" lengthAdjust="spacing" textLength="40" x="467.5" y="671.8467">Literal</text></g></a><!--MD5=[95174e42ee347a14b6cb78d6855f19b5]
class Element--><a href="#Element" target="_top" title="#Element" xlink:actuate="onRequest" xlink:href="#Element" xlink:show="new" xlink:title="#Element" xlink:type="simple"><g ><rect codeLine="26" fill="#D3D3D3" height="32"  rx="2.5" ry="2.5" style="stroke:#000000;stroke-width:0.5;" width="89" x="125" y="104"/><ellipse cx="140" cy="120" fill="#A9DCDF" rx="11" ry="11" style="stroke:#181818;stroke-width:1.0;"/><path d="M140.1094,115.3438 L138.9531,120.4219 L141.2813,120.4219 L140.1094,115.3438 Z M138.625,113.1094 L141.6094,113.1094 L144.9688,125.5 L142.5156,125.5 L141.75,122.4375 L138.4688,122.4375 L137.7188,125.5 L135.2813,125.5 L138.625,113.1094 Z " fill="#000000"/><text fill="#000000" font-family="sans-serif" font-size="14" font-style="italic" lengthAdjust="spacing" textLength="57" x="154" y="124.8467">Element</text></g></a><!--MD5=[1c3df032f1e179fd58fe5ee127543537]
class RelationEntityPredicate--><a href="#RelationEntityPredicate" target="_top" title="#RelationEntityPredicate" xlink:actuate="onRequest" xlink:href="#RelationEntityPredicate" xlink:show="new" xlink:title="#RelationEntityPredicate" xlink:type="simple"><g ><rect codeLine="29" fill="#FFFFFF" height="72.5938"  rx="2.5" ry="2.5" style="stroke:#000000;stroke-width:0.5;" width="191" x="585" y="501"/><ellipse cx="600" cy="517" fill="#ADD1B2" rx="11" ry="11" style="stroke:#181818;stroke-width:1.0;"/><path d="M602.9688,522.6406 Q602.3906,522.9375 601.75,523.0781 Q601.1094,523.2344 600.4063,523.2344 Q597.9063,523.2344 596.5781,521.5938 Q595.2656,519.9375 595.2656,516.8125 Q595.2656,513.6875 596.5781,512.0313 Q597.9063,510.375 600.4063,510.375 Q601.1094,510.375 601.75,510.5313 Q602.4063,510.6875 602.9688,510.9844 L602.9688,513.7031 Q602.3438,513.125 601.75,512.8594 Q601.1563,512.5781 600.5313,512.5781 Q599.1875,512.5781 598.5,513.6563 Q597.8125,514.7188 597.8125,516.8125 Q597.8125,518.9063 598.5,519.9844 Q599.1875,521.0469 600.5313,521.0469 Q601.1563,521.0469 601.75,520.7813 Q602.3438,520.5 602.9688,519.9219 L602.9688,522.6406 Z " fill="#000000"/><text fill="#000000" font-family="sans-serif" font-size="14" lengthAdjust="spacing" textLength="159" x="614" y="521.8467">RelationEntityPredicate</text><line style="stroke:#000000;stroke-width:0.5;" x1="586" x2="775" y1="533" y2="533"/><text fill="#000000" font-family="sans-serif" font-size="14" lengthAdjust="spacing" textLength="119" x="591" y="549.9951">entityVariable : ID</text><text fill="#000000" font-family="sans-serif" font-size="14" lengthAdjust="spacing" textLength="168" x="591" y="566.292">entity : RelationEntity [1]</text></g></a><!--MD5=[4cf87534c235239d37db4adfd136fff4]
class Rule--><a href="#Rule" target="_top" title="#Rule" xlink:actuate="onRequest" xlink:href="#Rule" xlink:show="new" xlink:title="#Rule" xlink:type="simple"><g ><rect codeLine="34" fill="#FFFFFF" height="40"  rx="2.5" ry="2.5" style="stroke:#000000;stroke-width:0.5;" width="63" x="280" y="100"/><ellipse cx="295" cy="116" fill="#ADD1B2" rx="11" ry="11" style="stroke:#181818;stroke-width:1.0;"/><path d="M297.9688,121.6406 Q297.3906,121.9375 296.75,122.0781 Q296.1094,122.2344 295.4063,122.2344 Q292.9063,122.2344 291.5781,120.5938 Q290.2656,118.9375 290.2656,115.8125 Q290.2656,112.6875 291.5781,111.0313 Q292.9063,109.375 295.4063,109.375 Q296.1094,109.375 296.75,109.5313 Q297.4063,109.6875 297.9688,109.9844 L297.9688,112.7031 Q297.3438,112.125 296.75,111.8594 Q296.1563,111.5781 295.5313,111.5781 Q294.1875,111.5781 293.5,112.6563 Q292.8125,113.7188 292.8125,115.8125 Q292.8125,117.9063 293.5,118.9844 Q294.1875,120.0469 295.5313,120.0469 Q296.1563,120.0469 296.75,119.7813 Q297.3438,119.5 297.9688,118.9219 L297.9688,121.6406 Z " fill="#000000"/><text fill="#000000" font-family="sans-serif" font-size="14" lengthAdjust="spacing" textLength="31" x="309" y="120.8467">Rule</text><line style="stroke:#000000;stroke-width:0.5;" x1="281" x2="342" y1="132" y2="132"/></g></a><!--MD5=[f58fd777f29c17413488bea9e7cfcca3]
class Member--><a href="#Member" target="_top" title="#Member" xlink:actuate="onRequest" xlink:href="#Member" xlink:show="new" xlink:title="#Member" xlink:type="simple"><g ><rect codeLine="36" fill="#D3D3D3" height="32"  rx="2.5" ry="2.5" style="stroke:#000000;stroke-width:0.5;" width="89" x="351" y="7"/><ellipse cx="366" cy="23" fill="#A9DCDF" rx="11" ry="11" style="stroke:#181818;stroke-width:1.0;"/><path d="M366.1094,18.3438 L364.9531,23.4219 L367.2813,23.4219 L366.1094,18.3438 Z M364.625,16.1094 L367.6094,16.1094 L370.9688,28.5 L368.5156,28.5 L367.75,25.4375 L364.4688,25.4375 L363.7188,28.5 L361.2813,28.5 L364.625,16.1094 Z " fill="#000000"/><text fill="#000000" font-family="sans-serif" font-size="14" font-style="italic" lengthAdjust="spacing" textLength="57" x="380" y="27.8467">Member</text></g></a><!--MD5=[46b33d4aeab8075ab5c21e75f4258a8a]
class VocabularyStatement--><a href="#VocabularyStatement" target="_top" title="#VocabularyStatement" xlink:actuate="onRequest" xlink:href="#VocabularyStatement" xlink:show="new" xlink:title="#VocabularyStatement" xlink:type="simple"><g ><rect codeLine="38" fill="#D3D3D3" height="32"  rx="2.5" ry="2.5" style="stroke:#000000;stroke-width:0.5;" width="179" x="137" y="7"/><ellipse cx="152" cy="23" fill="#A9DCDF" rx="11" ry="11" style="stroke:#181818;stroke-width:1.0;"/><path d="M152.1094,18.3438 L150.9531,23.4219 L153.2813,23.4219 L152.1094,18.3438 Z M150.625,16.1094 L153.6094,16.1094 L156.9688,28.5 L154.5156,28.5 L153.75,25.4375 L150.4688,25.4375 L149.7188,28.5 L147.2813,28.5 L150.625,16.1094 Z " fill="#000000"/><text fill="#000000" font-family="sans-serif" font-size="14" font-style="italic" lengthAdjust="spacing" textLength="147" x="166" y="27.8467">VocabularyStatement</text></g></a><!--MD5=[a387b7f4f3cb4648bc07cd2bebd47195]
class SameAsPredicate--><a href="#SameAsPredicate" target="_top" title="#SameAsPredicate" xlink:actuate="onRequest" xlink:href="#SameAsPredicate" xlink:show="new" xlink:title="#SameAsPredicate" xlink:type="simple"><g ><rect codeLine="44" fill="#FFFFFF" height="40"  rx="2.5" ry="2.5" style="stroke:#000000;stroke-width:0.5;" width="153" x="811" y="517.5"/><ellipse cx="826" cy="533.5" fill="#ADD1B2" rx="11" ry="11" style="stroke:#181818;stroke-width:1.0;"/><path d="M828.9688,539.1406 Q828.3906,539.4375 827.75,539.5781 Q827.1094,539.7344 826.4063,539.7344 Q823.9063,539.7344 822.5781,538.0938 Q821.2656,536.4375 821.2656,533.3125 Q821.2656,530.1875 822.5781,528.5313 Q823.9063,526.875 826.4063,526.875 Q827.1094,526.875 827.75,527.0313 Q828.4063,527.1875 828.9688,527.4844 L828.9688,530.2031 Q828.3438,529.625 827.75,529.3594 Q827.1563,529.0781 826.5313,529.0781 Q825.1875,529.0781 824.5,530.1563 Q823.8125,531.2188 823.8125,533.3125 Q823.8125,535.4063 824.5,536.4844 Q825.1875,537.5469 826.5313,537.5469 Q827.1563,537.5469 827.75,537.2813 Q828.3438,537 828.9688,536.4219 L828.9688,539.1406 Z " fill="#000000"/><text fill="#000000" font-family="sans-serif" font-size="14" lengthAdjust="spacing" textLength="121" x="840" y="538.3467">SameAsPredicate</text><line style="stroke:#000000;stroke-width:0.5;" x1="812" x2="963" y1="549.5" y2="549.5"/></g></a><!--MD5=[54edce0496c0a7342325ac262226e3d4]
class TypePredicate--><a href="#TypePredicate" target="_top" title="#TypePredicate" xlink:actuate="onRequest" xlink:href="#TypePredicate" xlink:show="new" xlink:title="#TypePredicate" xlink:type="simple"><g ><rect codeLine="47" fill="#FFFFFF" height="56.2969"  rx="2.5" ry="2.5" style="stroke:#000000;stroke-width:0.5;" width="131" x="7" y="509.5"/><ellipse cx="22" cy="525.5" fill="#ADD1B2" rx="11" ry="11" style="stroke:#181818;stroke-width:1.0;"/><path d="M24.9688,531.1406 Q24.3906,531.4375 23.75,531.5781 Q23.1094,531.7344 22.4063,531.7344 Q19.9063,531.7344 18.5781,530.0938 Q17.2656,528.4375 17.2656,525.3125 Q17.2656,522.1875 18.5781,520.5313 Q19.9063,518.875 22.4063,518.875 Q23.1094,518.875 23.75,519.0313 Q24.4063,519.1875 24.9688,519.4844 L24.9688,522.2031 Q24.3438,521.625 23.75,521.3594 Q23.1563,521.0781 22.5313,521.0781 Q21.1875,521.0781 20.5,522.1563 Q19.8125,523.2188 19.8125,525.3125 Q19.8125,527.4063 20.5,528.4844 Q21.1875,529.5469 22.5313,529.5469 Q23.1563,529.5469 23.75,529.2813 Q24.3438,529 24.9688,528.4219 L24.9688,531.1406 Z " fill="#000000"/><text fill="#000000" font-family="sans-serif" font-size="14" lengthAdjust="spacing" textLength="99" x="36" y="530.3467">TypePredicate</text><line style="stroke:#000000;stroke-width:0.5;" x1="8" x2="137" y1="541.5" y2="541.5"/><text fill="#000000" font-family="sans-serif" font-size="14" lengthAdjust="spacing" textLength="100" x="13" y="558.4951">type : Type [1]</text></g></a><!--MD5=[8e1e58185eca2dd70554585cd90beb2c]
class UnaryPredicate--><a href="#UnaryPredicate" target="_top" title="#UnaryPredicate" xlink:actuate="onRequest" xlink:href="#UnaryPredicate" xlink:show="new" xlink:title="#UnaryPredicate" xlink:type="simple"><g ><rect codeLine="51" fill="#FFFFFF" height="56.2969"  rx="2.5" ry="2.5" style="stroke:#000000;stroke-width:0.5;" width="136" x="49.5" y="367.5"/><ellipse cx="64.5" cy="383.5" fill="#A9DCDF" rx="11" ry="11" style="stroke:#181818;stroke-width:1.0;"/><path d="M64.6094,378.8438 L63.4531,383.9219 L65.7813,383.9219 L64.6094,378.8438 Z M63.125,376.6094 L66.1094,376.6094 L69.4688,389 L67.0156,389 L66.25,385.9375 L62.9688,385.9375 L62.2188,389 L59.7813,389 L63.125,376.6094 Z " fill="#000000"/><text fill="#000000" font-family="sans-serif" font-size="14" font-style="italic" lengthAdjust="spacing" textLength="104" x="78.5" y="388.3467">UnaryPredicate</text><line style="stroke:#000000;stroke-width:0.5;" x1="50.5" x2="184.5" y1="399.5" y2="399.5"/><text fill="#000000" font-family="sans-serif" font-size="14" lengthAdjust="spacing" textLength="79" x="55.5" y="416.4951">variable : ID</text></g></a><!--MD5=[0ddc261016437ee0d46b1dd5d49c4791]
reverse link Predicate to BinaryPredicate--><g ><a href="#Predicate" target="_top" title="#Predicate" xlink:actuate="onRequest" xlink:href="#Predicate" xlink:show="new" xlink:title="#Predicate" xlink:type="simple"><path codeLine="11" d="M307.551,299.873 C336.359,316.202 368.783,334.579 397.34,350.766 " fill="none"  style="stroke:#000000;stroke-width:1.0;"/><polygon fill="none" points="304.096,305.961,290.148,290.009,310.999,293.781,304.096,305.961" style="stroke:#000000;stroke-width:1.0;"/></a></g><!--MD5=[447570e958721c250e3c3f24e0d25c2b]
reverse link BinaryPredicate to DifferentFromPredicate--><g ><a href="#BinaryPredicate" target="_top" title="#BinaryPredicate" xlink:actuate="onRequest" xlink:href="#BinaryPredicate" xlink:show="new" xlink:title="#BinaryPredicate" xlink:type="simple"><path codeLine="14" d="M393.462,451.574 C359.219,474.846 321.58,500.426 296.653,517.367 " fill="none"  style="stroke:#000000;stroke-width:1.0;"/><polygon fill="none" points="389.973,445.482,410.45,440.029,397.843,457.061,389.973,445.482" style="stroke:#000000;stroke-width:1.0;"/></a></g><!--MD5=[1a349ea91a19b999f0a80e8da19d5419]
reverse link BinaryPredicate to FeaturePredicate--><g ><a href="#BinaryPredicate" target="_top" title="#BinaryPredicate" xlink:actuate="onRequest" xlink:href="#BinaryPredicate" xlink:show="new" xlink:title="#BinaryPredicate" xlink:type="simple"><path codeLine="20" d="M474.5,460.18 C474.5,477.45 474.5,495.238 474.5,509.291 " fill="none"  style="stroke:#000000;stroke-width:1.0;"/><polygon fill="none" points="467.5,460.029,474.5,440.029,481.5,460.029,467.5,460.029" style="stroke:#000000;stroke-width:1.0;"/></a></g><!--MD5=[a17fa7aecfbc7ff673f1c37c00433991]
link FeaturePredicate to Literal--><g ><path codeLine="21" d="M474.5,577.539 C474.5,577.539 474.5,620.4981 474.5,637.8068 " fill="none"  style="stroke:#000000;stroke-width:1.0;"/><polygon fill="#000000" points="474.5,650.9521,478.5,641.9521,474.5,645.9521,470.5,641.9521,474.5,650.9521" style="stroke:#000000;stroke-width:1.0;"/><line style="stroke:#000000;stroke-width:1.0;" x1="474.5" x2="474.5" y1="645.9521" y2="637.9521"/><polygon fill="#000000" points="474.5,565.539,470.5,571.539,474.5,577.539,478.5,571.539,474.5,565.539" style="stroke:#000000;stroke-width:1.0;"/><text fill="#000000" font-family="sans-serif" font-size="13" lengthAdjust="spacing" textLength="43" x="475.5" y="617.0669">literal2</text><text fill="#000000" font-family="sans-serif" font-size="13" lengthAdjust="spacing" textLength="24" x="446.375" y="639.9472">0..1</text></g><!--MD5=[04d44e60fc8375349d1e94c1982da030]
reverse link Element to Predicate--><g ><a href="#Element" target="_top" title="#Element" xlink:actuate="onRequest" xlink:href="#Element" xlink:show="new" xlink:title="#Element" xlink:type="simple"><path codeLine="28" d="M179.667,155.412 C183.059,165.717 187.105,176.947 191.5,187 C195.814,196.868 201.115,207.223 206.31,216.711 " fill="none"  style="stroke:#000000;stroke-width:1.0;"/><polygon fill="none" points="172.957,157.408,173.723,136.232,186.33,153.264,172.957,157.408" style="stroke:#000000;stroke-width:1.0;"/></a></g><!--MD5=[279cbee654e85cfdd74e0a15cad3e12e]
reverse link BinaryPredicate to RelationEntityPredicate--><g ><a href="#BinaryPredicate" target="_top" title="#BinaryPredicate" xlink:actuate="onRequest" xlink:href="#BinaryPredicate" xlink:show="new" xlink:title="#BinaryPredicate" xlink:type="simple"><path codeLine="33" d="M555.191,451.339 C579.743,468.024 606.071,485.917 628.226,500.974 " fill="none"  style="stroke:#000000;stroke-width:1.0;"/><polygon fill="none" points="551.157,457.061,538.55,440.029,559.027,445.482,551.157,457.061" style="stroke:#000000;stroke-width:1.0;"/></a></g><!--MD5=[d8cc31e7d8dc502422c1b16832e67f43]
reverse link Member to Rule--><g ><a href="#Member" target="_top" title="#Member" xlink:actuate="onRequest" xlink:href="#Member" xlink:show="new" xlink:title="#Member" xlink:type="simple"><path codeLine="40" d="M368.446,54.597 C355.3,69.464 339.909,86.871 328.443,99.838 " fill="none"  style="stroke:#000000;stroke-width:1.0;"/><polygon fill="none" points="363.512,49.61,382.004,39.263,374,58.883,363.512,49.61" style="stroke:#000000;stroke-width:1.0;"/></a></g><!--MD5=[cf479669aab18b4fcdc3e34ad176fbca]
reverse link VocabularyStatement to Rule--><g ><a href="#VocabularyStatement" target="_top" title="#VocabularyStatement" xlink:actuate="onRequest" xlink:href="#VocabularyStatement" xlink:show="new" xlink:title="#VocabularyStatement" xlink:type="simple"><path codeLine="41" d="M253.876,54.597 C267.178,69.464 282.753,86.871 294.355,99.838 " fill="none"  style="stroke:#000000;stroke-width:1.0;"/><polygon fill="none" points="248.276,58.836,240.157,39.263,258.709,49.501,248.276,58.836" style="stroke:#000000;stroke-width:1.0;"/></a></g><!--MD5=[ab1c88882a2580c60e50c07622a0df35]
link Rule to Predicate--><g ><path codeLine="42" d="M268.8256,134.3743 C268.8256,134.3743 233.98,153.78 224.5,170 C218.678,179.961 216.814,191.815 216.995,203.387 " fill="none"  style="stroke:#000000;stroke-width:1.0;"/><polygon fill="#000000" points="218.031,216.711,221.3207,207.4278,217.6431,211.7261,213.3448,208.0485,218.031,216.711" style="stroke:#000000;stroke-width:1.0;"/><line style="stroke:#000000;stroke-width:1.0;" x1="217.6431" x2="217.023" y1="211.7261" y2="203.75"/><polygon fill="#000000" points="279.915,129.789,272.8419,128.3852,268.8256,134.3743,275.8987,135.7781,279.915,129.789" style="stroke:#000000;stroke-width:1.0;"/><text fill="#000000" font-family="sans-serif" font-size="13" lengthAdjust="spacing" textLength="73" x="225.5" y="183.0669">antecedent</text><text fill="#000000" font-family="sans-serif" font-size="13" lengthAdjust="spacing" textLength="7" x="208.7209" y="205.9369">*</text></g><!--MD5=[ab1c88882a2580c60e50c07622a0df35]
link Rule to Predicate--><g ><path codeLine="43" d="M312.3052,151.997 C312.3052,151.997 308.924,176.832 303.5,187 C299.626,194.262 294.594,201.074 288.961,207.356 " fill="none"  style="stroke:#000000;stroke-width:1.0;"/><polygon fill="#000000" points="279.698,216.778,288.8598,213.164,283.2032,213.2124,283.1548,207.5557,279.698,216.778" style="stroke:#000000;stroke-width:1.0;"/><line style="stroke:#000000;stroke-width:1.0;" x1="283.2032" x2="288.812" y1="213.2124" y2="207.508"/><polygon fill="#000000" points="312.743,140.005,308.5268,145.8551,312.3052,151.997,316.5214,146.1469,312.743,140.005" style="stroke:#000000;stroke-width:1.0;"/><text fill="#000000" font-family="sans-serif" font-size="13" lengthAdjust="spacing" textLength="75" x="311.5" y="183.0669">consequent</text><text fill="#000000" font-family="sans-serif" font-size="13" lengthAdjust="spacing" textLength="7" x="281.3723" y="206.0159">*</text></g><!--MD5=[619925213454816b6b3ce783caf9de77]
reverse link BinaryPredicate to SameAsPredicate--><g ><a href="#BinaryPredicate" target="_top" title="#BinaryPredicate" xlink:actuate="onRequest" xlink:href="#BinaryPredicate" xlink:show="new" xlink:title="#BinaryPredicate" xlink:type="simple"><path codeLine="46" d="M614.705,440.939 C670.53,459.021 735.237,480.466 793.5,501 C808.143,506.161 823.966,512.024 838.378,517.477 " fill="none"  style="stroke:#000000;stroke-width:1.0;"/><polygon fill="none" points="612.236,447.497,595.355,434.69,616.538,434.175,612.236,447.497" style="stroke:#000000;stroke-width:1.0;"/></a></g><!--MD5=[2d398bd96da0c59639053732b5d8f0e6]
reverse link UnaryPredicate to TypePredicate--><g ><a href="#UnaryPredicate" target="_top" title="#UnaryPredicate" xlink:actuate="onRequest" xlink:href="#UnaryPredicate" xlink:show="new" xlink:title="#UnaryPredicate" xlink:type="simple"><path codeLine="50" d="M102.5222,443.098 C95.4665,465.049 87.2957,490.469 81.2611,509.243 " fill="none"  style="stroke:#000000;stroke-width:1.0;"/><polygon fill="none" points="95.9323,440.724,108.717,423.826,109.261,445.008,95.9323,440.724" style="stroke:#000000;stroke-width:1.0;"/></a></g><!--MD5=[19eb4b0a14bef516a99f05db176da890]
reverse link Predicate to UnaryPredicate--><g ><a href="#Predicate" target="_top" title="#Predicate" xlink:actuate="onRequest" xlink:href="#Predicate" xlink:show="new" xlink:title="#Predicate" xlink:type="simple"><path codeLine="54" d="M186.906,306.165 C170.621,326.891 152.524,349.924 138.893,367.273 " fill="none"  style="stroke:#000000;stroke-width:1.0;"/><polygon fill="none" points="181.597,301.592,199.458,290.19,192.606,310.241,181.597,301.592" style="stroke:#000000;stroke-width:1.0;"/></a></g><!--MD5=[a2dbd923ce7f9d0efa7fb27632d94be8]
@startuml
skinparam classBackgroundColor LightGray
skinparam classBorderColor Black
skinparam enumBorderColor Black
skinparam ArrowColor Black
hide methods
abstract class BinaryPredicate [[#BinaryPredicate]] #white {
	variable1 : ID
	variable2 : ID
	instance2 : NamedInstance [0..1]
}
BinaryPredicate -up-|> Predicate [[#Predicate]]
class DifferentFromPredicate [[#DifferentFromPredicate]] #white {
}
DifferentFromPredicate -up-|> BinaryPredicate [[#BinaryPredicate]]
class FeaturePredicate [[#FeaturePredicate]] #white {
	feature : Feature [1]
}
abstract class Literal [[#Literal]]
hide Literal members
FeaturePredicate -up-|> BinaryPredicate [[#BinaryPredicate]]
FeaturePredicate *- -> "0..1" Literal : literal2
abstract class Predicate [[#Predicate]] #white {
	antecedentRule : Rule [0..1]
	consequentRule : Rule [0..1]
}
abstract class Element [[#Element]]
hide Element members
Predicate -up-|> Element [[#Element]]
class RelationEntityPredicate [[#RelationEntityPredicate]] #white {
	entityVariable : ID
	entity : RelationEntity [1]
}
RelationEntityPredicate -up-|> BinaryPredicate [[#BinaryPredicate]]
class Rule [[#Rule]] #white {
}
abstract class Member [[#Member]]
hide Member members
abstract class VocabularyStatement [[#VocabularyStatement]]
hide VocabularyStatement members
Rule -up-|> Member [[#Member]]
Rule -up-|> VocabularyStatement [[#VocabularyStatement]]
Rule *- -> "*" Predicate : antecedent
Rule *- -> "*" Predicate : consequent
class SameAsPredicate [[#SameAsPredicate]] #white {
}
SameAsPredicate -up-|> BinaryPredicate [[#BinaryPredicate]]
class TypePredicate [[#TypePredicate]] #white {
	type : Type [1]
}
TypePredicate -up-|> UnaryPredicate [[#UnaryPredicate]]
abstract class UnaryPredicate [[#UnaryPredicate]] #white {
	variable : ID
}
UnaryPredicate -up-|> Predicate [[#Predicate]]
@enduml

PlantUML version 1.2022.12(Sun Oct 23 18:12:26 UTC 2022)
(GPL source distribution)
Java Runtime: OpenJDK Runtime Environment
JVM: OpenJDK 64-Bit Server VM
Default Encoding: UTF-8
Language: en
Country: US
--></g></svg>
