<?xml version="1.0" encoding="UTF-8" standalone="no"?><svg xmlns="http://www.w3.org/2000/svg" xmlns:xlink="http://www.w3.org/1999/xlink" contentStyleType="text/css" height="572px" preserveAspectRatio="none" style="width:1371px;height:572px;background:#FFFFFF;" version="1.1" viewBox="0 0 1371 572" width="1371px" zoomAndPan="magnify"><defs/><g><!--MD5=[030fb27d31e47a9081912f52ec8aa49a]
class Assertion--><a href="#Assertion" target="_top" title="#Assertion" xlink:actuate="onRequest" xlink:href="#Assertion" xlink:show="new" xlink:title="#Assertion" xlink:type="simple"><g ><rect codeLine="6" fill="#FFFFFF" height="40"  rx="2.5" ry="2.5" style="stroke:#000000;stroke-width:0.5;" width="97" x="717.5" y="100"/><ellipse cx="732.5" cy="116" fill="#A9DCDF" rx="11" ry="11" style="stroke:#181818;stroke-width:1.0;"/><path d="M732.6094,111.3438 L731.4531,116.4219 L733.7813,116.4219 L732.6094,111.3438 Z M731.125,109.1094 L734.1094,109.1094 L737.4688,121.5 L735.0156,121.5 L734.25,118.4375 L730.9688,118.4375 L730.2188,121.5 L727.7813,121.5 L731.125,109.1094 Z " fill="#000000"/><text fill="#000000" font-family="sans-serif" font-size="14" font-style="italic" lengthAdjust="spacing" textLength="65" x="746.5" y="120.8467">Assertion</text><line style="stroke:#000000;stroke-width:0.5;" x1="718.5" x2="813.5" y1="132" y2="132"/></g></a><!--MD5=[95174e42ee347a14b6cb78d6855f19b5]
class Element--><a href="#Element" target="_top" title="#Element" xlink:actuate="onRequest" xlink:href="#Element" xlink:show="new" xlink:title="#Element" xlink:type="simple"><g ><rect codeLine="8" fill="#D3D3D3" height="32"  rx="2.5" ry="2.5" style="stroke:#000000;stroke-width:0.5;" width="89" x="721.5" y="7"/><ellipse cx="736.5" cy="23" fill="#A9DCDF" rx="11" ry="11" style="stroke:#181818;stroke-width:1.0;"/><path d="M736.6094,18.3438 L735.4531,23.4219 L737.7813,23.4219 L736.6094,18.3438 Z M735.125,16.1094 L738.1094,16.1094 L741.4688,28.5 L739.0156,28.5 L738.25,25.4375 L734.9688,25.4375 L734.2188,28.5 L731.7813,28.5 L735.125,16.1094 Z " fill="#000000"/><text fill="#000000" font-family="sans-serif" font-size="14" font-style="italic" lengthAdjust="spacing" textLength="57" x="750.5" y="27.8467">Element</text></g></a><!--MD5=[03541eacc58da9eb05859a474e5e3193]
class ConceptTypeAssertion--><a href="#ConceptTypeAssertion" target="_top" title="#ConceptTypeAssertion" xlink:actuate="onRequest" xlink:href="#ConceptTypeAssertion" xlink:show="new" xlink:title="#ConceptTypeAssertion" xlink:type="simple"><g ><rect codeLine="11" fill="#FFFFFF" height="88.8906"  rx="2.5" ry="2.5" style="stroke:#000000;stroke-width:0.5;" width="377" x="577.5" y="367"/><ellipse cx="682.75" cy="383" fill="#ADD1B2" rx="11" ry="11" style="stroke:#181818;stroke-width:1.0;"/><path d="M685.7188,388.6406 Q685.1406,388.9375 684.5,389.0781 Q683.8594,389.2344 683.1563,389.2344 Q680.6563,389.2344 679.3281,387.5938 Q678.0156,385.9375 678.0156,382.8125 Q678.0156,379.6875 679.3281,378.0313 Q680.6563,376.375 683.1563,376.375 Q683.8594,376.375 684.5,376.5313 Q685.1563,376.6875 685.7188,376.9844 L685.7188,379.7031 Q685.0938,379.125 684.5,378.8594 Q683.9063,378.5781 683.2813,378.5781 Q681.9375,378.5781 681.25,379.6563 Q680.5625,380.7188 680.5625,382.8125 Q680.5625,384.9063 681.25,385.9844 Q681.9375,387.0469 683.2813,387.0469 Q683.9063,387.0469 684.5,386.7813 Q685.0938,386.5 685.7188,385.9219 L685.7188,388.6406 Z " fill="#000000"/><text fill="#000000" font-family="sans-serif" font-size="14" lengthAdjust="spacing" textLength="158" x="703.25" y="387.8467">ConceptTypeAssertion</text><line style="stroke:#000000;stroke-width:0.5;" x1="578.5" x2="953.5" y1="399" y2="399"/><text fill="#000000" font-family="sans-serif" font-size="14" lengthAdjust="spacing" textLength="125" x="583.5" y="415.9951">type : Concept [1]</text><text fill="#000000" font-family="sans-serif" font-size="14" lengthAdjust="spacing" textLength="280" x="583.5" y="432.292">owningInstance : ConceptInstance [0..1]</text><text fill="#000000" font-family="sans-serif" font-size="14" lengthAdjust="spacing" textLength="365" x="583.5" y="448.5889">owningReference : ConceptInstanceReference [0..1]</text></g></a><!--MD5=[6a2c911c5e68a24d9d0c71b69ce0a399]
class TypeAssertion--><a href="#TypeAssertion" target="_top" title="#TypeAssertion" xlink:actuate="onRequest" xlink:href="#TypeAssertion" xlink:show="new" xlink:title="#TypeAssertion" xlink:type="simple"><g ><rect codeLine="49" fill="#FFFFFF" height="40"  rx="2.5" ry="2.5" style="stroke:#000000;stroke-width:0.5;" width="131" x="700.5" y="233.5"/><ellipse cx="715.5" cy="249.5" fill="#A9DCDF" rx="11" ry="11" style="stroke:#181818;stroke-width:1.0;"/><path d="M715.6094,244.8438 L714.4531,249.9219 L716.7813,249.9219 L715.6094,244.8438 Z M714.125,242.6094 L717.1094,242.6094 L720.4688,255 L718.0156,255 L717.25,251.9375 L713.9688,251.9375 L713.2188,255 L710.7813,255 L714.125,242.6094 Z " fill="#000000"/><text fill="#000000" font-family="sans-serif" font-size="14" font-style="italic" lengthAdjust="spacing" textLength="99" x="729.5" y="254.3467">TypeAssertion</text><line style="stroke:#000000;stroke-width:0.5;" x1="701.5" x2="830.5" y1="265.5" y2="265.5"/></g></a><!--MD5=[1d4c83110fab86e623c5cd99c66ce333]
class LinkAssertion--><a href="#LinkAssertion" target="_top" title="#LinkAssertion" xlink:actuate="onRequest" xlink:href="#LinkAssertion" xlink:show="new" xlink:title="#LinkAssertion" xlink:type="simple"><g ><rect codeLine="17" fill="#FFFFFF" height="105.1875"  rx="2.5" ry="2.5" style="stroke:#000000;stroke-width:0.5;" width="367" x="866.5" y="201"/><ellipse cx="999.75" cy="217" fill="#ADD1B2" rx="11" ry="11" style="stroke:#181818;stroke-width:1.0;"/><path d="M1002.7188,222.6406 Q1002.1406,222.9375 1001.5,223.0781 Q1000.8594,223.2344 1000.1563,223.2344 Q997.6563,223.2344 996.3281,221.5938 Q995.0156,219.9375 995.0156,216.8125 Q995.0156,213.6875 996.3281,212.0313 Q997.6563,210.375 1000.1563,210.375 Q1000.8594,210.375 1001.5,210.5313 Q1002.1563,210.6875 1002.7188,210.9844 L1002.7188,213.7031 Q1002.0938,213.125 1001.5,212.8594 Q1000.9063,212.5781 1000.2813,212.5781 Q998.9375,212.5781 998.25,213.6563 Q997.5625,214.7188 997.5625,216.8125 Q997.5625,218.9063 998.25,219.9844 Q998.9375,221.0469 1000.2813,221.0469 Q1000.9063,221.0469 1001.5,220.7813 Q1002.0938,220.5 1002.7188,219.9219 L1002.7188,222.6406 Z " fill="#000000"/><text fill="#000000" font-family="sans-serif" font-size="14" lengthAdjust="spacing" textLength="92" x="1020.25" y="221.8467">LinkAssertion</text><line style="stroke:#000000;stroke-width:0.5;" x1="867.5" x2="1232.5" y1="233" y2="233"/><text fill="#000000" font-family="sans-serif" font-size="14" lengthAdjust="spacing" textLength="143" x="872.5" y="249.9951">relation : Relation [1]</text><text fill="#000000" font-family="sans-serif" font-size="14" lengthAdjust="spacing" textLength="185" x="872.5" y="266.292">target : NamedInstance [1]</text><text fill="#000000" font-family="sans-serif" font-size="14" lengthAdjust="spacing" textLength="270" x="872.5" y="282.5889">owningInstance : NamedInstance [0..1]</text><text fill="#000000" font-family="sans-serif" font-size="14" lengthAdjust="spacing" textLength="355" x="872.5" y="298.8857">owningReference : NamedInstanceReference [0..1]</text></g></a><!--MD5=[6d0a02ee44a7895dbe334527783d800c]
class PropertyValueAssertion--><a href="#PropertyValueAssertion" target="_top" title="#PropertyValueAssertion" xlink:actuate="onRequest" xlink:href="#PropertyValueAssertion" xlink:show="new" xlink:title="#PropertyValueAssertion" xlink:type="simple"><g ><rect codeLine="24" fill="#FFFFFF" height="72.5938"  rx="2.5" ry="2.5" style="stroke:#000000;stroke-width:0.5;" width="367" x="225.5" y="217"/><ellipse cx="324.25" cy="233" fill="#A9DCDF" rx="11" ry="11" style="stroke:#181818;stroke-width:1.0;"/><path d="M324.3594,228.3438 L323.2031,233.4219 L325.5313,233.4219 L324.3594,228.3438 Z M322.875,226.1094 L325.8594,226.1094 L329.2188,238.5 L326.7656,238.5 L326,235.4375 L322.7188,235.4375 L321.9688,238.5 L319.5313,238.5 L322.875,226.1094 Z " fill="#000000"/><text fill="#000000" font-family="sans-serif" font-size="14" font-style="italic" lengthAdjust="spacing" textLength="161" x="344.75" y="237.8467">PropertyValueAssertion</text><line style="stroke:#000000;stroke-width:0.5;" x1="226.5" x2="591.5" y1="249" y2="249"/><text fill="#000000" font-family="sans-serif" font-size="14" lengthAdjust="spacing" textLength="221" x="231.5" y="265.9951">owningInstance : Instance [0..1]</text><text fill="#000000" font-family="sans-serif" font-size="14" lengthAdjust="spacing" textLength="355" x="231.5" y="282.292">owningReference : NamedInstanceReference [0..1]</text></g></a><!--MD5=[e53970aaa929ddb260a07d7f00a7515f]
class RelationTypeAssertion--><a href="#RelationTypeAssertion" target="_top" title="#RelationTypeAssertion" xlink:actuate="onRequest" xlink:href="#RelationTypeAssertion" xlink:show="new" xlink:title="#RelationTypeAssertion" xlink:type="simple"><g ><rect codeLine="29" fill="#FFFFFF" height="88.8906"  rx="2.5" ry="2.5" style="stroke:#000000;stroke-width:0.5;" width="374" x="990" y="367"/><ellipse cx="1095.25" cy="383" fill="#ADD1B2" rx="11" ry="11" style="stroke:#181818;stroke-width:1.0;"/><path d="M1098.2188,388.6406 Q1097.6406,388.9375 1097,389.0781 Q1096.3594,389.2344 1095.6563,389.2344 Q1093.1563,389.2344 1091.8281,387.5938 Q1090.5156,385.9375 1090.5156,382.8125 Q1090.5156,379.6875 1091.8281,378.0313 Q1093.1563,376.375 1095.6563,376.375 Q1096.3594,376.375 1097,376.5313 Q1097.6563,376.6875 1098.2188,376.9844 L1098.2188,379.7031 Q1097.5938,379.125 1097,378.8594 Q1096.4063,378.5781 1095.7813,378.5781 Q1094.4375,378.5781 1093.75,379.6563 Q1093.0625,380.7188 1093.0625,382.8125 Q1093.0625,384.9063 1093.75,385.9844 Q1094.4375,387.0469 1095.7813,387.0469 Q1096.4063,387.0469 1097,386.7813 Q1097.5938,386.5 1098.2188,385.9219 L1098.2188,388.6406 Z " fill="#000000"/><text fill="#000000" font-family="sans-serif" font-size="14" lengthAdjust="spacing" textLength="155" x="1115.75" y="387.8467">RelationTypeAssertion</text><line style="stroke:#000000;stroke-width:0.5;" x1="991" x2="1363" y1="399" y2="399"/><text fill="#000000" font-family="sans-serif" font-size="14" lengthAdjust="spacing" textLength="160" x="996" y="415.9951">type : RelationEntity [1]</text><text fill="#000000" font-family="sans-serif" font-size="14" lengthAdjust="spacing" textLength="277" x="996" y="432.292">owningInstance : RelationInstance [0..1]</text><text fill="#000000" font-family="sans-serif" font-size="14" lengthAdjust="spacing" textLength="362" x="996" y="448.5889">owningReference : RelationInstanceReference [0..1]</text></g></a><!--MD5=[f112e0b3b537e6061967eedae98c0c2e]
class ScalarPropertyValueAssertion--><a href="#ScalarPropertyValueAssertion" target="_top" title="#ScalarPropertyValueAssertion" xlink:actuate="onRequest" xlink:href="#ScalarPropertyValueAssertion" xlink:show="new" xlink:title="#ScalarPropertyValueAssertion" xlink:type="simple"><g ><rect codeLine="35" fill="#FFFFFF" height="56.2969"  rx="2.5" ry="2.5" style="stroke:#000000;stroke-width:0.5;" width="234" x="7" y="383.5"/><ellipse cx="22" cy="399.5" fill="#ADD1B2" rx="11" ry="11" style="stroke:#181818;stroke-width:1.0;"/><path d="M24.9688,405.1406 Q24.3906,405.4375 23.75,405.5781 Q23.1094,405.7344 22.4063,405.7344 Q19.9063,405.7344 18.5781,404.0938 Q17.2656,402.4375 17.2656,399.3125 Q17.2656,396.1875 18.5781,394.5313 Q19.9063,392.875 22.4063,392.875 Q23.1094,392.875 23.75,393.0313 Q24.4063,393.1875 24.9688,393.4844 L24.9688,396.2031 Q24.3438,395.625 23.75,395.3594 Q23.1563,395.0781 22.5313,395.0781 Q21.1875,395.0781 20.5,396.1563 Q19.8125,397.2188 19.8125,399.3125 Q19.8125,401.4063 20.5,402.4844 Q21.1875,403.5469 22.5313,403.5469 Q23.1563,403.5469 23.75,403.2813 Q24.3438,403 24.9688,402.4219 L24.9688,405.1406 Z " fill="#000000"/><text fill="#000000" font-family="sans-serif" font-size="14" lengthAdjust="spacing" textLength="202" x="36" y="404.3467">ScalarPropertyValueAssertion</text><line style="stroke:#000000;stroke-width:0.5;" x1="8" x2="240" y1="415.5" y2="415.5"/><text fill="#000000" font-family="sans-serif" font-size="14" lengthAdjust="spacing" textLength="193" x="13" y="432.4951">property : ScalarProperty [1]</text></g></a><!--MD5=[27bfdb9e128171e0e365013b6b91e809]
class Literal--><a href="#Literal" target="_top" title="#Literal" xlink:actuate="onRequest" xlink:href="#Literal" xlink:show="new" xlink:title="#Literal" xlink:type="simple"><g ><rect codeLine="38" fill="#D3D3D3" height="32"  rx="2.5" ry="2.5" style="stroke:#000000;stroke-width:0.5;" width="72" x="88" y="533"/><ellipse cx="103" cy="549" fill="#A9DCDF" rx="11" ry="11" style="stroke:#181818;stroke-width:1.0;"/><path d="M103.1094,544.3438 L101.9531,549.4219 L104.2813,549.4219 L103.1094,544.3438 Z M101.625,542.1094 L104.6094,542.1094 L107.9688,554.5 L105.5156,554.5 L104.75,551.4375 L101.4688,551.4375 L100.7188,554.5 L98.2813,554.5 L101.625,542.1094 Z " fill="#000000"/><text fill="#000000" font-family="sans-serif" font-size="14" font-style="italic" lengthAdjust="spacing" textLength="40" x="117" y="553.8467">Literal</text></g></a><!--MD5=[c4b3938e5ca35726e799e7db740de0c3]
class StructuredPropertyValueAssertion--><a href="#StructuredPropertyValueAssertion" target="_top" title="#StructuredPropertyValueAssertion" xlink:actuate="onRequest" xlink:href="#StructuredPropertyValueAssertion" xlink:show="new" xlink:title="#StructuredPropertyValueAssertion" xlink:type="simple"><g ><rect codeLine="42" fill="#FFFFFF" height="56.2969"  rx="2.5" ry="2.5" style="stroke:#000000;stroke-width:0.5;" width="266" x="276" y="383.5"/><ellipse cx="291" cy="399.5" fill="#ADD1B2" rx="11" ry="11" style="stroke:#181818;stroke-width:1.0;"/><path d="M293.9688,405.1406 Q293.3906,405.4375 292.75,405.5781 Q292.1094,405.7344 291.4063,405.7344 Q288.9063,405.7344 287.5781,404.0938 Q286.2656,402.4375 286.2656,399.3125 Q286.2656,396.1875 287.5781,394.5313 Q288.9063,392.875 291.4063,392.875 Q292.1094,392.875 292.75,393.0313 Q293.4063,393.1875 293.9688,393.4844 L293.9688,396.2031 Q293.3438,395.625 292.75,395.3594 Q292.1563,395.0781 291.5313,395.0781 Q290.1875,395.0781 289.5,396.1563 Q288.8125,397.2188 288.8125,399.3125 Q288.8125,401.4063 289.5,402.4844 Q290.1875,403.5469 291.5313,403.5469 Q292.1563,403.5469 292.75,403.2813 Q293.3438,403 293.9688,402.4219 L293.9688,405.1406 Z " fill="#000000"/><text fill="#000000" font-family="sans-serif" font-size="14" lengthAdjust="spacing" textLength="234" x="305" y="404.3467">StructuredPropertyValueAssertion</text><line style="stroke:#000000;stroke-width:0.5;" x1="277" x2="541" y1="415.5" y2="415.5"/><text fill="#000000" font-family="sans-serif" font-size="14" lengthAdjust="spacing" textLength="225" x="282" y="432.4951">property : StructuredProperty [1]</text></g></a><!--MD5=[0b2f13c70971adaa910dfa4227793f6d]
class StructureInstance--><a href="#StructureInstance" target="_top" title="#StructureInstance" xlink:actuate="onRequest" xlink:href="#StructureInstance" xlink:show="new" xlink:title="#StructureInstance" xlink:type="simple"><g ><rect codeLine="45" fill="#D3D3D3" height="32"  rx="2.5" ry="2.5" style="stroke:#000000;stroke-width:0.5;" width="155" x="331.5" y="533"/><ellipse cx="346.5" cy="549" fill="#ADD1B2" rx="11" ry="11" style="stroke:#181818;stroke-width:1.0;"/><path d="M349.4688,554.6406 Q348.8906,554.9375 348.25,555.0781 Q347.6094,555.2344 346.9063,555.2344 Q344.4063,555.2344 343.0781,553.5938 Q341.7656,551.9375 341.7656,548.8125 Q341.7656,545.6875 343.0781,544.0313 Q344.4063,542.375 346.9063,542.375 Q347.6094,542.375 348.25,542.5313 Q348.9063,542.6875 349.4688,542.9844 L349.4688,545.7031 Q348.8438,545.125 348.25,544.8594 Q347.6563,544.5781 347.0313,544.5781 Q345.6875,544.5781 345,545.6563 Q344.3125,546.7188 344.3125,548.8125 Q344.3125,550.9063 345,551.9844 Q345.6875,553.0469 347.0313,553.0469 Q347.6563,553.0469 348.25,552.7813 Q348.8438,552.5 349.4688,551.9219 L349.4688,554.6406 Z " fill="#000000"/><text fill="#000000" font-family="sans-serif" font-size="14" lengthAdjust="spacing" textLength="123" x="360.5" y="553.8467">StructureInstance</text></g></a><!--MD5=[ef2e0c1f69ec21ea6cab836a8d1181ec]
reverse link Element to Assertion--><g ><a href="#Element" target="_top" title="#Element" xlink:actuate="onRequest" xlink:href="#Element" xlink:show="new" xlink:title="#Element" xlink:type="simple"><path codeLine="10" d="M766,59.472 C766,73.156 766,88.266 766,99.838 " fill="none"  style="stroke:#000000;stroke-width:1.0;"/><polygon fill="none" points="759,59.263,766,39.263,773,59.263,759,59.263" style="stroke:#000000;stroke-width:1.0;"/></a></g><!--MD5=[a6cdc3f0de8c5dc6fac62f71204a3729]
reverse link TypeAssertion to ConceptTypeAssertion--><g ><a href="#TypeAssertion" target="_top" title="#TypeAssertion" xlink:actuate="onRequest" xlink:href="#TypeAssertion" xlink:show="new" xlink:title="#TypeAssertion" xlink:type="simple"><path codeLine="16" d="M766,293.651 C766,315.971 766,343.988 766,366.993 " fill="none"  style="stroke:#000000;stroke-width:1.0;"/><polygon fill="none" points="759,293.629,766,273.629,773,293.629,759,293.629" style="stroke:#000000;stroke-width:1.0;"/></a></g><!--MD5=[4ac9169be823904853a2f2778576ef81]
reverse link Assertion to LinkAssertion--><g ><a href="#Assertion" target="_top" title="#Assertion" xlink:actuate="onRequest" xlink:href="#Assertion" xlink:show="new" xlink:title="#Assertion" xlink:type="simple"><path codeLine="23" d="M825.481,148.542 C858.29,163.733 900.1,183.092 938.724,200.976 " fill="none"  style="stroke:#000000;stroke-width:1.0;"/><polygon fill="none" points="822.504,154.877,807.296,140.121,828.386,142.173,822.504,154.877" style="stroke:#000000;stroke-width:1.0;"/></a></g><!--MD5=[d91ba29cdf7da7802e291c76a41de8f9]
reverse link Assertion to PropertyValueAssertion--><g ><a href="#Assertion" target="_top" title="#Assertion" xlink:actuate="onRequest" xlink:href="#Assertion" xlink:show="new" xlink:title="#Assertion" xlink:type="simple"><path codeLine="28" d="M698.503,145.863 C643.976,165.947 566.534,194.473 505.465,216.968 " fill="none"  style="stroke:#000000;stroke-width:1.0;"/><polygon fill="none" points="696.295,139.216,717.482,138.872,701.134,152.353,696.295,139.216" style="stroke:#000000;stroke-width:1.0;"/></a></g><!--MD5=[d54c070a0ddb9ff8ee16b12c7260d520]
reverse link TypeAssertion to RelationTypeAssertion--><g ><a href="#TypeAssertion" target="_top" title="#TypeAssertion" xlink:actuate="onRequest" xlink:href="#TypeAssertion" xlink:show="new" xlink:title="#TypeAssertion" xlink:type="simple"><path codeLine="34" d="M809.961,284.573 C822.256,292.202 835.859,299.943 849,306 C900.834,329.891 959.641,350.5 1013.01,366.95 " fill="none"  style="stroke:#000000;stroke-width:1.0;"/><polygon fill="none" points="806.096,290.41,793.087,273.684,813.687,278.647,806.096,290.41" style="stroke:#000000;stroke-width:1.0;"/></a></g><!--MD5=[41aa5f6d8eb0d0462f9f73c0e8f193db]
reverse link PropertyValueAssertion to ScalarPropertyValueAssertion--><g ><a href="#PropertyValueAssertion" target="_top" title="#PropertyValueAssertion" xlink:actuate="onRequest" xlink:href="#PropertyValueAssertion" xlink:show="new" xlink:title="#PropertyValueAssertion" xlink:type="simple"><path codeLine="40" d="M326.346,299.742 C276.906,326.804 215.72,360.295 173.653,383.322 " fill="none"  style="stroke:#000000;stroke-width:1.0;"/><polygon fill="none" points="323.068,293.557,343.972,290.094,329.79,305.837,323.068,293.557" style="stroke:#000000;stroke-width:1.0;"/></a></g><!--MD5=[d5e7ae81595b3457088c2a7c356581bc]
link ScalarPropertyValueAssertion to Literal--><g ><path codeLine="41" d="M124,451.595 C124,451.595 124,500.3417 124,519.6892 " fill="none"  style="stroke:#000000;stroke-width:1.0;"/><polygon fill="#000000" points="124,532.7372,128,523.7372,124,527.7372,120,523.7372,124,532.7372" style="stroke:#000000;stroke-width:1.0;"/><line style="stroke:#000000;stroke-width:1.0;" x1="124" x2="124" y1="527.7372" y2="519.7373"/><polygon fill="#000000" points="124,439.595,120,445.595,124,451.595,128,445.595,124,439.595" style="stroke:#000000;stroke-width:1.0;"/><text fill="#000000" font-family="sans-serif" font-size="13" lengthAdjust="spacing" textLength="34" x="125" y="499.0669">value</text><text fill="#000000" font-family="sans-serif" font-size="13" lengthAdjust="spacing" textLength="8" x="114.675" y="521.9547">1</text></g><!--MD5=[ce2dfd09488c60cd4b021c77a5009632]
reverse link PropertyValueAssertion to StructuredPropertyValueAssertion--><g ><a href="#PropertyValueAssertion" target="_top" title="#PropertyValueAssertion" xlink:actuate="onRequest" xlink:href="#PropertyValueAssertion" xlink:show="new" xlink:title="#PropertyValueAssertion" xlink:type="simple"><path codeLine="47" d="M409,310.468 C409,335.174 409,363.092 409,383.144 " fill="none"  style="stroke:#000000;stroke-width:1.0;"/><polygon fill="none" points="402,310.29,409,290.29,416,310.29,402,310.29" style="stroke:#000000;stroke-width:1.0;"/></a></g><!--MD5=[5fa95a8b119786501f890d8fbf183573]
link StructuredPropertyValueAssertion to StructureInstance--><g ><path codeLine="48" d="M409,451.595 C409,451.595 409,500.3417 409,519.6892 " fill="none"  style="stroke:#000000;stroke-width:1.0;"/><polygon fill="#000000" points="409,532.7372,413,523.7372,409,527.7372,405,523.7372,409,532.7372" style="stroke:#000000;stroke-width:1.0;"/><line style="stroke:#000000;stroke-width:1.0;" x1="409" x2="409" y1="527.7372" y2="519.7373"/><polygon fill="#000000" points="409,439.595,405,445.595,409,451.595,413,445.595,409,439.595" style="stroke:#000000;stroke-width:1.0;"/><text fill="#000000" font-family="sans-serif" font-size="13" lengthAdjust="spacing" textLength="34" x="410" y="499.0669">value</text><text fill="#000000" font-family="sans-serif" font-size="13" lengthAdjust="spacing" textLength="8" x="399.675" y="521.9547">1</text></g><!--MD5=[43de62fc2bf8b8f04ff79b2bdd651525]
reverse link Assertion to TypeAssertion--><g ><a href="#Assertion" target="_top" title="#Assertion" xlink:actuate="onRequest" xlink:href="#Assertion" xlink:show="new" xlink:title="#Assertion" xlink:type="simple"><path codeLine="51" d="M766,160.214 C766,184.366 766,214.259 766,233.356 " fill="none"  style="stroke:#000000;stroke-width:1.0;"/><polygon fill="none" points="759,160.121,766,140.121,773,160.121,759,160.121" style="stroke:#000000;stroke-width:1.0;"/></a></g><!--MD5=[72e79a172a47322eaab37a80fd7d74f0]
@startuml
skinparam classBackgroundColor LightGray
skinparam classBorderColor Black
skinparam enumBorderColor Black
skinparam ArrowColor Black
hide methods
abstract class Assertion [[#Assertion]] #white {
}
abstract class Element [[#Element]]
hide Element members
Assertion -up-|> Element [[#Element]]
class ConceptTypeAssertion [[#ConceptTypeAssertion]] #white {
	type : Concept [1]
	owningInstance : ConceptInstance [0..1]
	owningReference : ConceptInstanceReference [0..1]
}
ConceptTypeAssertion -up-|> TypeAssertion [[#TypeAssertion]]
class LinkAssertion [[#LinkAssertion]] #white {
	relation : Relation [1]
	target : NamedInstance [1]
	owningInstance : NamedInstance [0..1]
	owningReference : NamedInstanceReference [0..1]
}
LinkAssertion -up-|> Assertion [[#Assertion]]
abstract class PropertyValueAssertion [[#PropertyValueAssertion]] #white {
	owningInstance : Instance [0..1]
	owningReference : NamedInstanceReference [0..1]
}
PropertyValueAssertion -up-|> Assertion [[#Assertion]]
class RelationTypeAssertion [[#RelationTypeAssertion]] #white {
	type : RelationEntity [1]
	owningInstance : RelationInstance [0..1]
	owningReference : RelationInstanceReference [0..1]
}
RelationTypeAssertion -up-|> TypeAssertion [[#TypeAssertion]]
class ScalarPropertyValueAssertion [[#ScalarPropertyValueAssertion]] #white {
	property : ScalarProperty [1]
}
abstract class Literal [[#Literal]]
hide Literal members
ScalarPropertyValueAssertion -up-|> PropertyValueAssertion [[#PropertyValueAssertion]]
ScalarPropertyValueAssertion *- -> "1" Literal : value
class StructuredPropertyValueAssertion [[#StructuredPropertyValueAssertion]] #white {
	property : StructuredProperty [1]
}
class StructureInstance [[#StructureInstance]]
hide StructureInstance members
StructuredPropertyValueAssertion -up-|> PropertyValueAssertion [[#PropertyValueAssertion]]
StructuredPropertyValueAssertion *- -> "1" StructureInstance : value
abstract class TypeAssertion [[#TypeAssertion]] #white {
}
TypeAssertion -up-|> Assertion [[#Assertion]]
@enduml

PlantUML version 1.2022.12(Sun Oct 23 18:12:26 UTC 2022)
(GPL source distribution)
Java Runtime: OpenJDK Runtime Environment
JVM: OpenJDK 64-Bit Server VM
Default Encoding: UTF-8
Language: en
Country: US
--></g></svg>
