<?xml version="1.0" encoding="UTF-8" standalone="no"?><svg xmlns="http://www.w3.org/2000/svg" xmlns:xlink="http://www.w3.org/1999/xlink" contentScriptType="application/ecmascript" contentStyleType="text/css" height="289px" preserveAspectRatio="none" style="width:745px;height:289px;" version="1.1" viewBox="0 0 745 289" width="745px" zoomAndPan="magnify"><defs><filter height="300%" id="f1guo6wfn87pmn" width="300%" x="-1" y="-1"><feGaussianBlur result="blurOut" stdDeviation="2.0"/><feColorMatrix in="blurOut" result="blurOut2" type="matrix" values="0 0 0 0 0 0 0 0 0 0 0 0 0 0 0 0 0 0 .4 0"/><feOffset dx="4.0" dy="4.0" in="blurOut2" result="blurOut3"/><feBlend in="SourceGraphic" in2="blurOut3" mode="normal"/></filter></defs><g><!--class BooleanLiteral--><a target="_top" xlink:actuate="onRequest" xlink:href="#BooleanLiteral" xlink:show="new" xlink:title="#BooleanLiteral" xlink:type="simple"><rect fill="#FFFFFF" filter="url(#f1guo6wfn87pmn)" height="52.8047"  style="stroke: #000000; stroke-width: 1.5;" width="121" x="6" y="212.5"/><rect fill="#FFFFFF" height="32" style="stroke: #000000; stroke-width: 1.5;" width="121" x="6" y="212.5"/><ellipse cx="21" cy="228.5" fill="#ADD1B2" rx="11" ry="11" style="stroke: #000000; stroke-width: 1.0;"/><path d="M23.9688,234.1406 Q23.3906,234.4375 22.75,234.5781 Q22.1094,234.7344 21.4063,234.7344 Q18.9063,234.7344 17.5781,233.0938 Q16.2656,231.4375 16.2656,228.3125 Q16.2656,225.1875 17.5781,223.5313 Q18.9063,221.875 21.4063,221.875 Q22.1094,221.875 22.75,222.0313 Q23.4063,222.1875 23.9688,222.4844 L23.9688,225.2031 Q23.3438,224.625 22.75,224.3594 Q22.1563,224.0781 21.5313,224.0781 Q20.1875,224.0781 19.5,225.1563 Q18.8125,226.2188 18.8125,228.3125 Q18.8125,230.4063 19.5,231.4844 Q20.1875,232.5469 21.5313,232.5469 Q22.1563,232.5469 22.75,232.2813 Q23.3438,232 23.9688,231.4219 L23.9688,234.1406 Z "/><text fill="#000000" font-family="sans-serif" font-size="12" lengthAdjust="spacingAndGlyphs" textLength="89" x="35" y="232.6543">BooleanLiteral</text><line style="stroke: #000000; stroke-width: 1.5;" x1="7" x2="126" y1="244.5" y2="244.5"/><text fill="#000000" font-family="sans-serif" font-size="11" lengthAdjust="spacingAndGlyphs" textLength="88" x="12" y="258.7104">value : Boolean</text></a><!--class Literal--><a target="_top" xlink:actuate="onRequest" xlink:href="#Literal" xlink:show="new" xlink:title="#Literal" xlink:type="simple"><rect fill="#FFFFFF" filter="url(#f1guo6wfn87pmn)" height="40"  style="stroke: #000000; stroke-width: 1.5;" width="70" x="338.5" y="100"/><rect fill="#FFFFFF" height="32" style="stroke: #000000; stroke-width: 1.5;" width="70" x="338.5" y="100"/><ellipse cx="353.5" cy="116" fill="#A9DCDF" rx="11" ry="11" style="stroke: #000000; stroke-width: 1.0;"/><path d="M353.6094,111.3438 L352.4531,116.4219 L354.7813,116.4219 L353.6094,111.3438 Z M352.125,109.1094 L355.1094,109.1094 L358.4688,121.5 L356.0156,121.5 L355.25,118.4375 L351.9688,118.4375 L351.2188,121.5 L348.7813,121.5 L352.125,109.1094 Z "/><text fill="#000000" font-family="sans-serif" font-size="12" font-style="italic" lengthAdjust="spacingAndGlyphs" textLength="38" x="367.5" y="120.1543">Literal</text><line style="stroke: #000000; stroke-width: 1.5;" x1="339.5" x2="407.5" y1="132" y2="132"/></a><!--class DecimalLiteral--><a target="_top" xlink:actuate="onRequest" xlink:href="#DecimalLiteral" xlink:show="new" xlink:title="#DecimalLiteral" xlink:type="simple"><rect fill="#FFFFFF" filter="url(#f1guo6wfn87pmn)" height="52.8047"  style="stroke: #000000; stroke-width: 1.5;" width="119" x="162" y="212.5"/><rect fill="#FFFFFF" height="32" style="stroke: #000000; stroke-width: 1.5;" width="119" x="162" y="212.5"/><ellipse cx="177" cy="228.5" fill="#ADD1B2" rx="11" ry="11" style="stroke: #000000; stroke-width: 1.0;"/><path d="M179.9688,234.1406 Q179.3906,234.4375 178.75,234.5781 Q178.1094,234.7344 177.4063,234.7344 Q174.9063,234.7344 173.5781,233.0938 Q172.2656,231.4375 172.2656,228.3125 Q172.2656,225.1875 173.5781,223.5313 Q174.9063,221.875 177.4063,221.875 Q178.1094,221.875 178.75,222.0313 Q179.4063,222.1875 179.9688,222.4844 L179.9688,225.2031 Q179.3438,224.625 178.75,224.3594 Q178.1563,224.0781 177.5313,224.0781 Q176.1875,224.0781 175.5,225.1563 Q174.8125,226.2188 174.8125,228.3125 Q174.8125,230.4063 175.5,231.4844 Q176.1875,232.5469 177.5313,232.5469 Q178.1563,232.5469 178.75,232.2813 Q179.3438,232 179.9688,231.4219 L179.9688,234.1406 Z "/><text fill="#000000" font-family="sans-serif" font-size="12" lengthAdjust="spacingAndGlyphs" textLength="87" x="191" y="232.6543">DecimalLiteral</text><line style="stroke: #000000; stroke-width: 1.5;" x1="163" x2="280" y1="244.5" y2="244.5"/><text fill="#000000" font-family="sans-serif" font-size="11" lengthAdjust="spacingAndGlyphs" textLength="87" x="168" y="258.7104">value : Decimal</text></a><!--class DoubleLiteral--><a target="_top" xlink:actuate="onRequest" xlink:href="#DoubleLiteral" xlink:show="new" xlink:title="#DoubleLiteral" xlink:type="simple"><rect fill="#FFFFFF" filter="url(#f1guo6wfn87pmn)" height="52.8047"  style="stroke: #000000; stroke-width: 1.5;" width="114" x="316.5" y="212.5"/><rect fill="#FFFFFF" height="32" style="stroke: #000000; stroke-width: 1.5;" width="114" x="316.5" y="212.5"/><ellipse cx="331.5" cy="228.5" fill="#ADD1B2" rx="11" ry="11" style="stroke: #000000; stroke-width: 1.0;"/><path d="M334.4688,234.1406 Q333.8906,234.4375 333.25,234.5781 Q332.6094,234.7344 331.9063,234.7344 Q329.4063,234.7344 328.0781,233.0938 Q326.7656,231.4375 326.7656,228.3125 Q326.7656,225.1875 328.0781,223.5313 Q329.4063,221.875 331.9063,221.875 Q332.6094,221.875 333.25,222.0313 Q333.9063,222.1875 334.4688,222.4844 L334.4688,225.2031 Q333.8438,224.625 333.25,224.3594 Q332.6563,224.0781 332.0313,224.0781 Q330.6875,224.0781 330,225.1563 Q329.3125,226.2188 329.3125,228.3125 Q329.3125,230.4063 330,231.4844 Q330.6875,232.5469 332.0313,232.5469 Q332.6563,232.5469 333.25,232.2813 Q333.8438,232 334.4688,231.4219 L334.4688,234.1406 Z "/><text fill="#000000" font-family="sans-serif" font-size="12" lengthAdjust="spacingAndGlyphs" textLength="82" x="345.5" y="232.6543">DoubleLiteral</text><line style="stroke: #000000; stroke-width: 1.5;" x1="317.5" x2="429.5" y1="244.5" y2="244.5"/><text fill="#000000" font-family="sans-serif" font-size="11" lengthAdjust="spacingAndGlyphs" textLength="81" x="322.5" y="258.7104">value : Double</text></a><!--class IntegerLiteral--><a target="_top" xlink:actuate="onRequest" xlink:href="#IntegerLiteral" xlink:show="new" xlink:title="#IntegerLiteral" xlink:type="simple"><rect fill="#FFFFFF" filter="url(#f1guo6wfn87pmn)" height="52.8047"  style="stroke: #000000; stroke-width: 1.5;" width="115" x="466" y="212.5"/><rect fill="#FFFFFF" height="32" style="stroke: #000000; stroke-width: 1.5;" width="115" x="466" y="212.5"/><ellipse cx="481" cy="228.5" fill="#ADD1B2" rx="11" ry="11" style="stroke: #000000; stroke-width: 1.0;"/><path d="M483.9688,234.1406 Q483.3906,234.4375 482.75,234.5781 Q482.1094,234.7344 481.4063,234.7344 Q478.9063,234.7344 477.5781,233.0938 Q476.2656,231.4375 476.2656,228.3125 Q476.2656,225.1875 477.5781,223.5313 Q478.9063,221.875 481.4063,221.875 Q482.1094,221.875 482.75,222.0313 Q483.4063,222.1875 483.9688,222.4844 L483.9688,225.2031 Q483.3438,224.625 482.75,224.3594 Q482.1563,224.0781 481.5313,224.0781 Q480.1875,224.0781 479.5,225.1563 Q478.8125,226.2188 478.8125,228.3125 Q478.8125,230.4063 479.5,231.4844 Q480.1875,232.5469 481.5313,232.5469 Q482.1563,232.5469 482.75,232.2813 Q483.3438,232 483.9688,231.4219 L483.9688,234.1406 Z "/><text fill="#000000" font-family="sans-serif" font-size="12" lengthAdjust="spacingAndGlyphs" textLength="83" x="495" y="232.6543">IntegerLiteral</text><line style="stroke: #000000; stroke-width: 1.5;" x1="467" x2="580" y1="244.5" y2="244.5"/><text fill="#000000" font-family="sans-serif" font-size="11" lengthAdjust="spacingAndGlyphs" textLength="82" x="472" y="258.7104">value : Integer</text></a><!--class Element--><a target="_top" xlink:actuate="onRequest" xlink:href="#Element" xlink:show="new" xlink:title="#Element" xlink:type="simple"><rect fill="#D3D3D3" filter="url(#f1guo6wfn87pmn)" height="32"  style="stroke: #000000; stroke-width: 1.5;" width="83" x="332" y="8"/><ellipse cx="347" cy="24" fill="#A9DCDF" rx="11" ry="11" style="stroke: #000000; stroke-width: 1.0;"/><path d="M347.1094,19.3438 L345.9531,24.4219 L348.2813,24.4219 L347.1094,19.3438 Z M345.625,17.1094 L348.6094,17.1094 L351.9688,29.5 L349.5156,29.5 L348.75,26.4375 L345.4688,26.4375 L344.7188,29.5 L342.2813,29.5 L345.625,17.1094 Z "/><text fill="#000000" font-family="sans-serif" font-size="12" font-style="italic" lengthAdjust="spacingAndGlyphs" textLength="51" x="361" y="28.1543">Element</text></a><!--class QuotedLiteral--><a target="_top" xlink:actuate="onRequest" xlink:href="#QuotedLiteral" xlink:show="new" xlink:title="#QuotedLiteral" xlink:type="simple"><rect fill="#FFFFFF" filter="url(#f1guo6wfn87pmn)" height="78.4141"  style="stroke: #000000; stroke-width: 1.5;" width="118" x="616.5" y="200"/><rect fill="#FFFFFF" height="32" style="stroke: #000000; stroke-width: 1.5;" width="118" x="616.5" y="200"/><ellipse cx="632.4" cy="216" fill="#ADD1B2" rx="11" ry="11" style="stroke: #000000; stroke-width: 1.0;"/><path d="M635.3688,221.6406 Q634.7906,221.9375 634.15,222.0781 Q633.5094,222.2344 632.8063,222.2344 Q630.3063,222.2344 628.9781,220.5938 Q627.6656,218.9375 627.6656,215.8125 Q627.6656,212.6875 628.9781,211.0313 Q630.3063,209.375 632.8063,209.375 Q633.5094,209.375 634.15,209.5313 Q634.8063,209.6875 635.3688,209.9844 L635.3688,212.7031 Q634.7438,212.125 634.15,211.8594 Q633.5563,211.5781 632.9313,211.5781 Q631.5875,211.5781 630.9,212.6563 Q630.2125,213.7188 630.2125,215.8125 Q630.2125,217.9063 630.9,218.9844 Q631.5875,220.0469 632.9313,220.0469 Q633.5563,220.0469 634.15,219.7813 Q634.7438,219.5 635.3688,218.9219 L635.3688,221.6406 Z "/><text fill="#000000" font-family="sans-serif" font-size="12" lengthAdjust="spacingAndGlyphs" textLength="84" x="646.6" y="220.1543">QuotedLiteral</text><line style="stroke: #000000; stroke-width: 1.5;" x1="617.5" x2="733.5" y1="232" y2="232"/><text fill="#000000" font-family="sans-serif" font-size="11" lengthAdjust="spacingAndGlyphs" textLength="76" x="622.5" y="246.2104">value : String</text><text fill="#000000" font-family="sans-serif" font-size="11" lengthAdjust="spacingAndGlyphs" textLength="91" x="622.5" y="259.0151">langTag : String</text><text fill="#000000" font-family="sans-serif" font-size="11" lengthAdjust="spacingAndGlyphs" textLength="106" x="622.5" y="271.8198">type : Scalar [0..1]</text></a><!--link Literal to BooleanLiteral--><a target="_top" xlink:actuate="onRequest" xlink:href="#Literal" xlink:show="new" xlink:title="#Literal" xlink:type="simple"><path d="M319.264,137.661 C272.423,152.535 203.222,175.672 144.5,200 C135.454,203.7475 125.974,208.0418 116.862,212.3636 " fill="none"  style="stroke: #000000; stroke-width: 1.0;"/><polygon fill="none" points="317.305,130.94,338.483,131.624,321.5,144.296,317.305,130.94" style="stroke: #000000; stroke-width: 1.0;"/></a><!--link Literal to DecimalLiteral--><a target="_top" xlink:actuate="onRequest" xlink:href="#Literal" xlink:show="new" xlink:title="#Literal" xlink:type="simple"><path d="M332.647,152.446 C308.26,171.217 277.682,194.7545 254.775,212.3871 " fill="none"  style="stroke: #000000; stroke-width: 1.0;"/><polygon fill="none" points="328.622,146.711,348.74,140.058,337.161,157.805,328.622,146.711" style="stroke: #000000; stroke-width: 1.0;"/></a><!--link Literal to DoubleLiteral--><a target="_top" xlink:actuate="onRequest" xlink:href="#Literal" xlink:show="new" xlink:title="#Literal" xlink:type="simple"><path d="M373.5,160.299 C373.5,177.477 373.5,197.1396 373.5,212.3871 " fill="none"  style="stroke: #000000; stroke-width: 1.0;"/><polygon fill="none" points="366.5,160.059,373.5,140.058,380.5,160.058,366.5,160.059" style="stroke: #000000; stroke-width: 1.0;"/></a><!--link Literal to IntegerLiteral--><a target="_top" xlink:actuate="onRequest" xlink:href="#Literal" xlink:show="new" xlink:title="#Literal" xlink:type="simple"><path d="M413.815,152.446 C437.881,171.217 468.057,194.7545 490.663,212.3871 " fill="none"  style="stroke: #000000; stroke-width: 1.0;"/><polygon fill="none" points="409.399,157.879,397.934,140.058,418.009,146.84,409.399,157.879" style="stroke: #000000; stroke-width: 1.0;"/></a><!--link Element to Literal--><a target="_top" xlink:actuate="onRequest" xlink:href="#Element" xlink:show="new" xlink:title="#Element" xlink:type="simple"><path d="M373.5,60.445 C373.5,73.76 373.5,88.394 373.5,99.701 " fill="none"  style="stroke: #000000; stroke-width: 1.0;"/><polygon fill="none" points="366.5,60.103,373.5,40.103,380.5,60.103,366.5,60.103" style="stroke: #000000; stroke-width: 1.0;"/></a><!--link Literal to QuotedLiteral--><a target="_top" xlink:actuate="onRequest" xlink:href="#Literal" xlink:show="new" xlink:title="#Literal" xlink:type="simple"><path d="M427.905,138.057 C473.912,152.966 541.283,175.94 598.5,200 C604.272,202.4269 610.222,205.0804 616.137,207.8206 " fill="none"  style="stroke: #000000; stroke-width: 1.0;"/><polygon fill="none" points="425.594,144.667,408.685,131.896,429.868,131.336,425.594,144.667" style="stroke: #000000; stroke-width: 1.0;"/></a><!--
@startuml
skinparam classBackgroundColor LightGray
skinparam classBorderColor Black
skinparam enumBorderColor Black
skinparam ArrowColor Black
hide methods
class BooleanLiteral [[#BooleanLiteral]] #white {
	value : Boolean
}
BooleanLiteral -up-|> Literal [[#Literal]]
class DecimalLiteral [[#DecimalLiteral]] #white {
	value : Decimal
}
DecimalLiteral -up-|> Literal [[#Literal]]
class DoubleLiteral [[#DoubleLiteral]] #white {
	value : Double
}
DoubleLiteral -up-|> Literal [[#Literal]]
class IntegerLiteral [[#IntegerLiteral]] #white {
	value : Integer
}
IntegerLiteral -up-|> Literal [[#Literal]]
abstract class Literal [[#Literal]] #white {
}
abstract class Element [[#Element]]
hide Element members
Literal -up-|> Element [[#Element]]
class QuotedLiteral [[#QuotedLiteral]] #white {
	value : String
	langTag : String
	type : Scalar [0..1]
}
QuotedLiteral -up-|> Literal [[#Literal]]
@enduml

PlantUML version 1.2019.00(Sun Jan 13 15:46:42 UTC 2019)
(GPL source distribution)
Java Runtime: OpenJDK Runtime Environment
JVM: OpenJDK 64-Bit Server VM
Java Version: 11.0.2+9
Operating System: Linux
OS Version: 4.15.0-1098-gcp
Default Encoding: UTF-8
Language: en
Country: US
--></g></svg>
