<?xml version="1.0" encoding="UTF-8" standalone="no"?><svg xmlns="http://www.w3.org/2000/svg" xmlns:xlink="http://www.w3.org/1999/xlink" contentScriptType="application/ecmascript" contentStyleType="text/css" height="559px" preserveAspectRatio="none" style="width:944px;height:559px;" version="1.1" viewBox="0 0 944 559" width="944px" zoomAndPan="magnify"><defs><filter height="300%" id="fiv9xtpowppyo" width="300%" x="-1" y="-1"><feGaussianBlur result="blurOut" stdDeviation="2.0"/><feColorMatrix in="blurOut" result="blurOut2" type="matrix" values="0 0 0 0 0 0 0 0 0 0 0 0 0 0 0 0 0 0 .4 0"/><feOffset dx="4.0" dy="4.0" in="blurOut2" result="blurOut3"/><feBlend in="SourceGraphic" in2="blurOut3" mode="normal"/></filter></defs><g><!--class ConceptInstance--><a target="_top" xlink:actuate="onRequest" xlink:href="#ConceptInstance" xlink:show="new" xlink:title="#ConceptInstance" xlink:type="simple"><rect fill="#FFFFFF" filter="url(#fiv9xtpowppyo)" height="40"  style="stroke: #000000; stroke-width: 1.5;" width="138" x="23" y="386"/><rect fill="#FFFFFF" height="32" style="stroke: #000000; stroke-width: 1.5;" width="138" x="23" y="386"/><ellipse cx="38" cy="402" fill="#ADD1B2" rx="11" ry="11" style="stroke: #000000; stroke-width: 1.0;"/><path d="M40.9688,407.6406 Q40.3906,407.9375 39.75,408.0781 Q39.1094,408.2344 38.4063,408.2344 Q35.9063,408.2344 34.5781,406.5938 Q33.2656,404.9375 33.2656,401.8125 Q33.2656,398.6875 34.5781,397.0313 Q35.9063,395.375 38.4063,395.375 Q39.1094,395.375 39.75,395.5313 Q40.4063,395.6875 40.9688,395.9844 L40.9688,398.7031 Q40.3438,398.125 39.75,397.8594 Q39.1563,397.5781 38.5313,397.5781 Q37.1875,397.5781 36.5,398.6563 Q35.8125,399.7188 35.8125,401.8125 Q35.8125,403.9063 36.5,404.9844 Q37.1875,406.0469 38.5313,406.0469 Q39.1563,406.0469 39.75,405.7813 Q40.3438,405.5 40.9688,404.9219 L40.9688,407.6406 Z "/><text fill="#000000" font-family="sans-serif" font-size="12" lengthAdjust="spacingAndGlyphs" textLength="106" x="52" y="406.1543">ConceptInstance</text><line style="stroke: #000000; stroke-width: 1.5;" x1="24" x2="160" y1="418" y2="418"/></a><!--class ConceptTypeAssertion--><a target="_top" xlink:actuate="onRequest" xlink:href="#ConceptTypeAssertion" xlink:show="new" xlink:title="#ConceptTypeAssertion" xlink:type="simple"><rect fill="#D3D3D3" filter="url(#fiv9xtpowppyo)" height="32"  style="stroke: #000000; stroke-width: 1.5;" width="172" x="6" y="516"/><ellipse cx="21" cy="532" fill="#ADD1B2" rx="11" ry="11" style="stroke: #000000; stroke-width: 1.0;"/><path d="M23.9688,537.6406 Q23.3906,537.9375 22.75,538.0781 Q22.1094,538.2344 21.4063,538.2344 Q18.9063,538.2344 17.5781,536.5938 Q16.2656,534.9375 16.2656,531.8125 Q16.2656,528.6875 17.5781,527.0313 Q18.9063,525.375 21.4063,525.375 Q22.1094,525.375 22.75,525.5313 Q23.4063,525.6875 23.9688,525.9844 L23.9688,528.7031 Q23.3438,528.125 22.75,527.8594 Q22.1563,527.5781 21.5313,527.5781 Q20.1875,527.5781 19.5,528.6563 Q18.8125,529.7188 18.8125,531.8125 Q18.8125,533.9063 19.5,534.9844 Q20.1875,536.0469 21.5313,536.0469 Q22.1563,536.0469 22.75,535.7813 Q23.3438,535.5 23.9688,534.9219 L23.9688,537.6406 Z "/><text fill="#000000" font-family="sans-serif" font-size="12" lengthAdjust="spacingAndGlyphs" textLength="140" x="35" y="536.1543">ConceptTypeAssertion</text></a><!--class NamedInstance--><a target="_top" xlink:actuate="onRequest" xlink:href="#NamedInstance" xlink:show="new" xlink:title="#NamedInstance" xlink:type="simple"><rect fill="#FFFFFF" filter="url(#fiv9xtpowppyo)" height="40"  style="stroke: #000000; stroke-width: 1.5;" width="130" x="189" y="237"/><rect fill="#FFFFFF" height="32" style="stroke: #000000; stroke-width: 1.5;" width="130" x="189" y="237"/><ellipse cx="204" cy="253" fill="#A9DCDF" rx="11" ry="11" style="stroke: #000000; stroke-width: 1.0;"/><path d="M204.1094,248.3438 L202.9531,253.4219 L205.2813,253.4219 L204.1094,248.3438 Z M202.625,246.1094 L205.6094,246.1094 L208.9688,258.5 L206.5156,258.5 L205.75,255.4375 L202.4688,255.4375 L201.7188,258.5 L199.2813,258.5 L202.625,246.1094 Z "/><text fill="#000000" font-family="sans-serif" font-size="12" font-style="italic" lengthAdjust="spacingAndGlyphs" textLength="98" x="218" y="257.1543">NamedInstance</text><line style="stroke: #000000; stroke-width: 1.5;" x1="190" x2="318" y1="269" y2="269"/></a><!--class Instance--><a target="_top" xlink:actuate="onRequest" xlink:href="#Instance" xlink:show="new" xlink:title="#Instance" xlink:type="simple"><rect fill="#FFFFFF" filter="url(#fiv9xtpowppyo)" height="40"  style="stroke: #000000; stroke-width: 1.5;" width="86" x="401" y="101"/><rect fill="#FFFFFF" height="32" style="stroke: #000000; stroke-width: 1.5;" width="86" x="401" y="101"/><ellipse cx="416" cy="117" fill="#A9DCDF" rx="11" ry="11" style="stroke: #000000; stroke-width: 1.0;"/><path d="M416.1094,112.3438 L414.9531,117.4219 L417.2813,117.4219 L416.1094,112.3438 Z M414.625,110.1094 L417.6094,110.1094 L420.9688,122.5 L418.5156,122.5 L417.75,119.4375 L414.4688,119.4375 L413.7188,122.5 L411.2813,122.5 L414.625,110.1094 Z "/><text fill="#000000" font-family="sans-serif" font-size="12" font-style="italic" lengthAdjust="spacingAndGlyphs" textLength="54" x="430" y="121.1543">Instance</text><line style="stroke: #000000; stroke-width: 1.5;" x1="402" x2="486" y1="133" y2="133"/></a><!--class Element--><a target="_top" xlink:actuate="onRequest" xlink:href="#Element" xlink:show="new" xlink:title="#Element" xlink:type="simple"><rect fill="#D3D3D3" filter="url(#fiv9xtpowppyo)" height="32"  style="stroke: #000000; stroke-width: 1.5;" width="83" x="402.5" y="8"/><ellipse cx="417.5" cy="24" fill="#A9DCDF" rx="11" ry="11" style="stroke: #000000; stroke-width: 1.0;"/><path d="M417.6094,19.3438 L416.4531,24.4219 L418.7813,24.4219 L417.6094,19.3438 Z M416.125,17.1094 L419.1094,17.1094 L422.4688,29.5 L420.0156,29.5 L419.25,26.4375 L415.9688,26.4375 L415.2188,29.5 L412.7813,29.5 L416.125,17.1094 Z "/><text fill="#000000" font-family="sans-serif" font-size="12" font-style="italic" lengthAdjust="spacingAndGlyphs" textLength="51" x="431.5" y="28.1543">Element</text></a><!--class PropertyValueAssertion--><a target="_top" xlink:actuate="onRequest" xlink:href="#PropertyValueAssertion" xlink:show="new" xlink:title="#PropertyValueAssertion" xlink:type="simple"><rect fill="#D3D3D3" filter="url(#fiv9xtpowppyo)" height="32"  style="stroke: #000000; stroke-width: 1.5;" width="179" x="354.5" y="241"/><ellipse cx="369.5" cy="257" fill="#A9DCDF" rx="11" ry="11" style="stroke: #000000; stroke-width: 1.0;"/><path d="M369.6094,252.3438 L368.4531,257.4219 L370.7813,257.4219 L369.6094,252.3438 Z M368.125,250.1094 L371.1094,250.1094 L374.4688,262.5 L372.0156,262.5 L371.25,259.4375 L367.9688,259.4375 L367.2188,262.5 L364.7813,262.5 L368.125,250.1094 Z "/><text fill="#000000" font-family="sans-serif" font-size="12" font-style="italic" lengthAdjust="spacingAndGlyphs" textLength="147" x="383.5" y="261.1543">PropertyValueAssertion</text></a><!--class Member--><a target="_top" xlink:actuate="onRequest" xlink:href="#Member" xlink:show="new" xlink:title="#Member" xlink:type="simple"><rect fill="#D3D3D3" filter="url(#fiv9xtpowppyo)" height="32"  style="stroke: #000000; stroke-width: 1.5;" width="82" x="249" y="105"/><ellipse cx="264" cy="121" fill="#A9DCDF" rx="11" ry="11" style="stroke: #000000; stroke-width: 1.0;"/><path d="M264.1094,116.3438 L262.9531,121.4219 L265.2813,121.4219 L264.1094,116.3438 Z M262.625,114.1094 L265.6094,114.1094 L268.9688,126.5 L266.5156,126.5 L265.75,123.4375 L262.4688,123.4375 L261.7188,126.5 L259.2813,126.5 L262.625,114.1094 Z "/><text fill="#000000" font-family="sans-serif" font-size="12" font-style="italic" lengthAdjust="spacingAndGlyphs" textLength="50" x="278" y="125.1543">Member</text></a><!--class DescriptionStatement--><a target="_top" xlink:actuate="onRequest" xlink:href="#DescriptionStatement" xlink:show="new" xlink:title="#DescriptionStatement" xlink:type="simple"><rect fill="#D3D3D3" filter="url(#fiv9xtpowppyo)" height="32"  style="stroke: #000000; stroke-width: 1.5;" width="169" x="44.5" y="105"/><ellipse cx="59.5" cy="121" fill="#A9DCDF" rx="11" ry="11" style="stroke: #000000; stroke-width: 1.0;"/><path d="M59.6094,116.3438 L58.4531,121.4219 L60.7813,121.4219 L59.6094,116.3438 Z M58.125,114.1094 L61.1094,114.1094 L64.4688,126.5 L62.0156,126.5 L61.25,123.4375 L57.9688,123.4375 L57.2188,126.5 L54.7813,126.5 L58.125,114.1094 Z "/><text fill="#000000" font-family="sans-serif" font-size="12" font-style="italic" lengthAdjust="spacingAndGlyphs" textLength="137" x="73.5" y="125.1543">DescriptionStatement</text></a><!--class LinkAssertion--><a target="_top" xlink:actuate="onRequest" xlink:href="#LinkAssertion" xlink:show="new" xlink:title="#LinkAssertion" xlink:type="simple"><rect fill="#D3D3D3" filter="url(#fiv9xtpowppyo)" height="32"  style="stroke: #000000; stroke-width: 1.5;" width="115" x="196.5" y="390"/><ellipse cx="211.5" cy="406" fill="#ADD1B2" rx="11" ry="11" style="stroke: #000000; stroke-width: 1.0;"/><path d="M214.4688,411.6406 Q213.8906,411.9375 213.25,412.0781 Q212.6094,412.2344 211.9063,412.2344 Q209.4063,412.2344 208.0781,410.5938 Q206.7656,408.9375 206.7656,405.8125 Q206.7656,402.6875 208.0781,401.0313 Q209.4063,399.375 211.9063,399.375 Q212.6094,399.375 213.25,399.5313 Q213.9063,399.6875 214.4688,399.9844 L214.4688,402.7031 Q213.8438,402.125 213.25,401.8594 Q212.6563,401.5781 212.0313,401.5781 Q210.6875,401.5781 210,402.6563 Q209.3125,403.7188 209.3125,405.8125 Q209.3125,407.9063 210,408.9844 Q210.6875,410.0469 212.0313,410.0469 Q212.6563,410.0469 213.25,409.7813 Q213.8438,409.5 214.4688,408.9219 L214.4688,411.6406 Z "/><text fill="#000000" font-family="sans-serif" font-size="12" lengthAdjust="spacingAndGlyphs" textLength="83" x="225.5" y="410.1543">LinkAssertion</text></a><!--class RelationInstance--><a target="_top" xlink:actuate="onRequest" xlink:href="#RelationInstance" xlink:show="new" xlink:title="#RelationInstance" xlink:type="simple"><rect fill="#FFFFFF" filter="url(#fiv9xtpowppyo)" height="65.6094"  style="stroke: #000000; stroke-width: 1.5;" width="176" x="346" y="373"/><rect fill="#FFFFFF" height="32" style="stroke: #000000; stroke-width: 1.5;" width="176" x="346" y="373"/><ellipse cx="378.55" cy="389" fill="#ADD1B2" rx="11" ry="11" style="stroke: #000000; stroke-width: 1.0;"/><path d="M381.5188,394.6406 Q380.9406,394.9375 380.3,395.0781 Q379.6594,395.2344 378.9563,395.2344 Q376.4563,395.2344 375.1281,393.5938 Q373.8156,391.9375 373.8156,388.8125 Q373.8156,385.6875 375.1281,384.0313 Q376.4563,382.375 378.9563,382.375 Q379.6594,382.375 380.3,382.5313 Q380.9563,382.6875 381.5188,382.9844 L381.5188,385.7031 Q380.8938,385.125 380.3,384.8594 Q379.7063,384.5781 379.0813,384.5781 Q377.7375,384.5781 377.05,385.6563 Q376.3625,386.7188 376.3625,388.8125 Q376.3625,390.9063 377.05,391.9844 Q377.7375,393.0469 379.0813,393.0469 Q379.7063,393.0469 380.3,392.7813 Q380.8938,392.5 381.5188,391.9219 L381.5188,394.6406 Z "/><text fill="#000000" font-family="sans-serif" font-size="12" lengthAdjust="spacingAndGlyphs" textLength="105" x="396.45" y="393.1543">RelationInstance</text><line style="stroke: #000000; stroke-width: 1.5;" x1="347" x2="521" y1="405" y2="405"/><text fill="#000000" font-family="sans-serif" font-size="11" lengthAdjust="spacingAndGlyphs" textLength="164" x="352" y="419.2104">sources : NamedInstance [*]</text><text fill="#000000" font-family="sans-serif" font-size="11" lengthAdjust="spacingAndGlyphs" textLength="159" x="352" y="432.0151">targets : NamedInstance [*]</text></a><!--class RelationTypeAssertion--><a target="_top" xlink:actuate="onRequest" xlink:href="#RelationTypeAssertion" xlink:show="new" xlink:title="#RelationTypeAssertion" xlink:type="simple"><rect fill="#D3D3D3" filter="url(#fiv9xtpowppyo)" height="32"  style="stroke: #000000; stroke-width: 1.5;" width="171" x="348.5" y="516"/><ellipse cx="363.5" cy="532" fill="#ADD1B2" rx="11" ry="11" style="stroke: #000000; stroke-width: 1.0;"/><path d="M366.4688,537.6406 Q365.8906,537.9375 365.25,538.0781 Q364.6094,538.2344 363.9063,538.2344 Q361.4063,538.2344 360.0781,536.5938 Q358.7656,534.9375 358.7656,531.8125 Q358.7656,528.6875 360.0781,527.0313 Q361.4063,525.375 363.9063,525.375 Q364.6094,525.375 365.25,525.5313 Q365.9063,525.6875 366.4688,525.9844 L366.4688,528.7031 Q365.8438,528.125 365.25,527.8594 Q364.6563,527.5781 364.0313,527.5781 Q362.6875,527.5781 362,528.6563 Q361.3125,529.7188 361.3125,531.8125 Q361.3125,533.9063 362,534.9844 Q362.6875,536.0469 364.0313,536.0469 Q364.6563,536.0469 365.25,535.7813 Q365.8438,535.5 366.4688,534.9219 L366.4688,537.6406 Z "/><text fill="#000000" font-family="sans-serif" font-size="12" lengthAdjust="spacingAndGlyphs" textLength="139" x="377.5" y="536.1543">RelationTypeAssertion</text></a><!--class StructureInstance--><a target="_top" xlink:actuate="onRequest" xlink:href="#StructureInstance" xlink:show="new" xlink:title="#StructureInstance" xlink:type="simple"><rect fill="#FFFFFF" filter="url(#fiv9xtpowppyo)" height="78.4141"  style="stroke: #000000; stroke-width: 1.5;" width="365" x="568.5" y="218"/><rect fill="#FFFFFF" height="32" style="stroke: #000000; stroke-width: 1.5;" width="365" x="568.5" y="218"/><ellipse cx="690.25" cy="234" fill="#ADD1B2" rx="11" ry="11" style="stroke: #000000; stroke-width: 1.0;"/><path d="M693.2188,239.6406 Q692.6406,239.9375 692,240.0781 Q691.3594,240.2344 690.6563,240.2344 Q688.1563,240.2344 686.8281,238.5938 Q685.5156,236.9375 685.5156,233.8125 Q685.5156,230.6875 686.8281,229.0313 Q688.1563,227.375 690.6563,227.375 Q691.3594,227.375 692,227.5313 Q692.6563,227.6875 693.2188,227.9844 L693.2188,230.7031 Q692.5938,230.125 692,229.8594 Q691.4063,229.5781 690.7813,229.5781 Q689.4375,229.5781 688.75,230.6563 Q688.0625,231.7188 688.0625,233.8125 Q688.0625,235.9063 688.75,236.9844 Q689.4375,238.0469 690.7813,238.0469 Q691.4063,238.0469 692,237.7813 Q692.5938,237.5 693.2188,236.9219 L693.2188,239.6406 Z "/><text fill="#000000" font-family="sans-serif" font-size="12" lengthAdjust="spacingAndGlyphs" textLength="113" x="710.75" y="238.1543">StructureInstance</text><line style="stroke: #000000; stroke-width: 1.5;" x1="569.5" x2="932.5" y1="250" y2="250"/><text fill="#000000" font-family="sans-serif" font-size="11" lengthAdjust="spacingAndGlyphs" textLength="108" x="574.5" y="264.2104">type : Structure [1]</text><text fill="#000000" font-family="sans-serif" font-size="11" lengthAdjust="spacingAndGlyphs" textLength="353" x="574.5" y="277.0151">owningAxiom : StructuredPropertyValueRestrictionAxiom [0..1]</text><text fill="#000000" font-family="sans-serif" font-size="11" lengthAdjust="spacingAndGlyphs" textLength="333" x="574.5" y="289.8198">owningAssertion : StructuredPropertyValueAssertion [0..1]</text></a><!--link NamedInstance to ConceptInstance--><a target="_top" xlink:actuate="onRequest" xlink:href="#NamedInstance" xlink:show="new" xlink:title="#NamedInstance" xlink:type="simple"><path d="M217.859,290.794 C185.695,319.981 139.746,361.675 113.184,385.778 " fill="none"  style="stroke: #000000; stroke-width: 1.0;"/><polygon fill="none" points="213.306,285.474,232.821,277.218,222.714,295.841,213.306,285.474" style="stroke: #000000; stroke-width: 1.0;"/></a><!--link ConceptInstance to ConceptTypeAssertion--><path d="M92,439.203 C92,458.9302 92,483.9377 92,502.868 " fill="none"  style="stroke: #000000; stroke-width: 1.0;"/><polygon fill="#000000" points="92,515.9713,96,506.9713,92,510.9713,88,506.9713,92,515.9713" style="stroke: #000000; stroke-width: 1.0;"/><line style="stroke: #000000; stroke-width: 1.0;" x1="92" x2="92.0001" y1="510.9713" y2="502.9713"/><polygon fill="#000000" points="92,426.103,88,432.103,92,438.103,96,432.103,92,426.103" style="stroke: #000000; stroke-width: 1.0;"/><text fill="#000000" font-family="sans-serif" font-size="13" lengthAdjust="spacingAndGlyphs" textLength="78" x="93" y="482.0669">ownedTypes</text><text fill="#000000" font-family="sans-serif" font-size="13" lengthAdjust="spacingAndGlyphs" textLength="7" x="83.7969" y="504.973">*</text><!--link Element to Instance--><a target="_top" xlink:actuate="onRequest" xlink:href="#Element" xlink:show="new" xlink:title="#Element" xlink:type="simple"><path d="M444,60.472 C444,74.156 444,89.266 444,100.838 " fill="none"  style="stroke: #000000; stroke-width: 1.0;"/><polygon fill="none" points="437,60.263,444,40.263,451,60.263,437,60.263" style="stroke: #000000; stroke-width: 1.0;"/></a><!--link Instance to PropertyValueAssertion--><path d="M444,154.459 C444,176.913 444,206.491 444,227.928 " fill="none"  style="stroke: #000000; stroke-width: 1.0;"/><polygon fill="#000000" points="444,240.982,448,231.982,444,235.982,440,231.982,444,240.982" style="stroke: #000000; stroke-width: 1.0;"/><line style="stroke: #000000; stroke-width: 1.0;" x1="444" x2="444" y1="235.982" y2="227.982"/><polygon fill="#000000" points="444,141.199,440,147.199,444,153.199,448,147.199,444,141.199" style="stroke: #000000; stroke-width: 1.0;"/><text fill="#000000" font-family="sans-serif" font-size="13" lengthAdjust="spacingAndGlyphs" textLength="138" x="445" y="184.0669">ownedPropertyValues</text><text fill="#000000" font-family="sans-serif" font-size="13" lengthAdjust="spacingAndGlyphs" textLength="7" x="435.7969" y="229.9874">*</text><!--link Member to NamedInstance--><a target="_top" xlink:actuate="onRequest" xlink:href="#Member" xlink:show="new" xlink:title="#Member" xlink:type="simple"><path d="M280.724,156.527 C273.858,182.086 264.757,215.961 259.144,236.853 " fill="none"  style="stroke: #000000; stroke-width: 1.0;"/><polygon fill="none" points="273.991,154.61,285.94,137.111,287.511,158.242,273.991,154.61" style="stroke: #000000; stroke-width: 1.0;"/></a><!--link Instance to NamedInstance--><a target="_top" xlink:actuate="onRequest" xlink:href="#Instance" xlink:show="new" xlink:title="#Instance" xlink:type="simple"><path d="M400.074,152.98 C363.369,178.866 312.19,214.961 281.172,236.837 " fill="none"  style="stroke: #000000; stroke-width: 1.0;"/><polygon fill="none" points="396.399,147.005,416.778,141.199,404.468,158.446,396.399,147.005" style="stroke: #000000; stroke-width: 1.0;"/></a><!--link DescriptionStatement to NamedInstance--><a target="_top" xlink:actuate="onRequest" xlink:href="#DescriptionStatement" xlink:show="new" xlink:title="#DescriptionStatement" xlink:type="simple"><path d="M156.983,151.998 C181.195,177.953 215.475,214.702 236.139,236.853 " fill="none"  style="stroke: #000000; stroke-width: 1.0;"/><polygon fill="none" points="151.62,156.511,143.096,137.111,161.857,146.961,151.62,156.511" style="stroke: #000000; stroke-width: 1.0;"/></a><!--link NamedInstance to LinkAssertion--><path d="M254,290.272 C254,316.1 254,351.967 254,376.689 " fill="none"  style="stroke: #000000; stroke-width: 1.0;"/><polygon fill="#000000" points="254,389.796,258,380.796,254,384.796,250,380.796,254,389.796" style="stroke: #000000; stroke-width: 1.0;"/><line style="stroke: #000000; stroke-width: 1.0;" x1="254" x2="254" y1="384.796" y2="376.796"/><polygon fill="#000000" points="254,277.218,250,283.218,254,289.218,258,283.218,254,277.218" style="stroke: #000000; stroke-width: 1.0;"/><text fill="#000000" font-family="sans-serif" font-size="13" lengthAdjust="spacingAndGlyphs" textLength="73" x="255" y="339.0669">ownedLinks</text><text fill="#000000" font-family="sans-serif" font-size="13" lengthAdjust="spacingAndGlyphs" textLength="7" x="245.8406" y="379.0329">*</text><!--link NamedInstance to RelationInstance--><a target="_top" xlink:actuate="onRequest" xlink:href="#NamedInstance" xlink:show="new" xlink:title="#NamedInstance" xlink:type="simple"><path d="M293.345,290.132 C323.386,314.665 364.592,348.317 394.637,372.854 " fill="none"  style="stroke: #000000; stroke-width: 1.0;"/><polygon fill="none" points="288.595,295.29,277.532,277.218,297.45,284.447,288.595,295.29" style="stroke: #000000; stroke-width: 1.0;"/></a><!--link RelationInstance to RelationTypeAssertion--><path d="M434,452.2873 C434,469.0284 434,487.5264 434,502.3815 " fill="none"  style="stroke: #000000; stroke-width: 1.0;"/><polygon fill="#000000" points="434,515.8223,438,506.8223,434,510.8223,430,506.8223,434,515.8223" style="stroke: #000000; stroke-width: 1.0;"/><line style="stroke: #000000; stroke-width: 1.0;" x1="434" x2="434" y1="510.8223" y2="502.8224"/><polygon fill="#000000" points="434,439.256,430,445.256,434,451.256,438,445.256,434,439.256" style="stroke: #000000; stroke-width: 1.0;"/><text fill="#000000" font-family="sans-serif" font-size="13" lengthAdjust="spacingAndGlyphs" textLength="78" x="435" y="482.0669">ownedTypes</text><text fill="#000000" font-family="sans-serif" font-size="13" lengthAdjust="spacingAndGlyphs" textLength="7" x="425.8406" y="505.068">*</text><!--link Instance to StructureInstance--><a target="_top" xlink:actuate="onRequest" xlink:href="#Instance" xlink:show="new" xlink:title="#Instance" xlink:type="simple"><path d="M506.542,140.094 C533.259,148.491 564.548,159.221 592,171 C623.641,184.577 657.447,202.18 685.716,217.842 " fill="none"  style="stroke: #000000; stroke-width: 1.0;"/><polygon fill="none" points="504.215,146.703,487.143,134.15,508.316,133.317,504.215,146.703" style="stroke: #000000; stroke-width: 1.0;"/></a><!--
@startuml
skinparam classBackgroundColor LightGray
skinparam classBorderColor Black
skinparam enumBorderColor Black
skinparam ArrowColor Black
hide methods
class ConceptInstance [[#ConceptInstance]] #white {
}
class ConceptTypeAssertion [[#ConceptTypeAssertion]]
hide ConceptTypeAssertion members
ConceptInstance -up-|> NamedInstance [[#NamedInstance]]
ConceptInstance *- -> "*" ConceptTypeAssertion : ownedTypes
abstract class Instance [[#Instance]] #white {
}
abstract class Element [[#Element]]
hide Element members
abstract class PropertyValueAssertion [[#PropertyValueAssertion]]
hide PropertyValueAssertion members
Instance -up-|> Element [[#Element]]
Instance *- -> "*" PropertyValueAssertion : ownedPropertyValues
abstract class NamedInstance [[#NamedInstance]] #white {
}
abstract class Member [[#Member]]
hide Member members
abstract class DescriptionStatement [[#DescriptionStatement]]
hide DescriptionStatement members
class LinkAssertion [[#LinkAssertion]]
hide LinkAssertion members
NamedInstance -up-|> Member [[#Member]]
NamedInstance -up-|> Instance [[#Instance]]
NamedInstance -up-|> DescriptionStatement [[#DescriptionStatement]]
NamedInstance *- -> "*" LinkAssertion : ownedLinks
class RelationInstance [[#RelationInstance]] #white {
	sources : NamedInstance [*]
	targets : NamedInstance [*]
}
class RelationTypeAssertion [[#RelationTypeAssertion]]
hide RelationTypeAssertion members
RelationInstance -up-|> NamedInstance [[#NamedInstance]]
RelationInstance *- -> "*" RelationTypeAssertion : ownedTypes
class StructureInstance [[#StructureInstance]] #white {
	type : Structure [1]
	owningAxiom : StructuredPropertyValueRestrictionAxiom [0..1]
	owningAssertion : StructuredPropertyValueAssertion [0..1]
}
StructureInstance -up-|> Instance [[#Instance]]
@enduml

PlantUML version 1.2019.00(Sun Jan 13 15:46:42 UTC 2019)
(GPL source distribution)
Java Runtime: OpenJDK Runtime Environment
JVM: OpenJDK 64-Bit Server VM
Java Version: 11.0.2+9
Operating System: Linux
OS Version: 4.15.0-1077-gcp
Default Encoding: UTF-8
Language: en
Country: US
--></g></svg>
