<?xml version="1.0" encoding="UTF-8" standalone="no"?><svg xmlns="http://www.w3.org/2000/svg" xmlns:xlink="http://www.w3.org/1999/xlink" contentStyleType="text/css" height="559px" preserveAspectRatio="none" style="width:1024px;height:559px;background:#FFFFFF;" version="1.1" viewBox="0 0 1024 559" width="1024px" zoomAndPan="magnify"><defs/><g><!--MD5=[7be4accb63ef2d7032b8e65d0d7d84e2]
class AnnotationProperty--><a href="#AnnotationProperty" target="_top" title="#AnnotationProperty" xlink:actuate="onRequest" xlink:href="#AnnotationProperty" xlink:show="new" xlink:title="#AnnotationProperty" xlink:type="simple"><g ><rect codeLine="6" fill="#FFFFFF" height="40"  rx="2.5" ry="2.5" style="stroke:#000000;stroke-width:0.5;" width="165" x="401" y="488.5"/><ellipse cx="416" cy="504.5" fill="#ADD1B2" rx="11" ry="11" style="stroke:#181818;stroke-width:1.0;"/><path d="M418.9688,510.1406 Q418.3906,510.4375 417.75,510.5781 Q417.1094,510.7344 416.4063,510.7344 Q413.9063,510.7344 412.5781,509.0938 Q411.2656,507.4375 411.2656,504.3125 Q411.2656,501.1875 412.5781,499.5313 Q413.9063,497.875 416.4063,497.875 Q417.1094,497.875 417.75,498.0313 Q418.4063,498.1875 418.9688,498.4844 L418.9688,501.2031 Q418.3438,500.625 417.75,500.3594 Q417.1563,500.0781 416.5313,500.0781 Q415.1875,500.0781 414.5,501.1563 Q413.8125,502.2188 413.8125,504.3125 Q413.8125,506.4063 414.5,507.4844 Q415.1875,508.5469 416.5313,508.5469 Q417.1563,508.5469 417.75,508.2813 Q418.3438,508 418.9688,507.4219 L418.9688,510.1406 Z " fill="#000000"/><text fill="#000000" font-family="sans-serif" font-size="14" lengthAdjust="spacing" textLength="133" x="430" y="509.3467">AnnotationProperty</text><line style="stroke:#000000;stroke-width:0.5;" x1="402" x2="565" y1="520.5" y2="520.5"/></g></a><!--MD5=[a052ffd04a2a5cd2f202acb632be8a32]
class SpecializableTerm--><a href="#SpecializableTerm" target="_top" title="#SpecializableTerm" xlink:actuate="onRequest" xlink:href="#SpecializableTerm" xlink:show="new" xlink:title="#SpecializableTerm" xlink:type="simple"><g ><rect codeLine="51" fill="#D3D3D3" height="32"  rx="2.5" ry="2.5" style="stroke:#000000;stroke-width:0.5;" width="157" x="223" y="360"/><ellipse cx="238" cy="376" fill="#A9DCDF" rx="11" ry="11" style="stroke:#181818;stroke-width:1.0;"/><path d="M238.1094,371.3438 L236.9531,376.4219 L239.2813,376.4219 L238.1094,371.3438 Z M236.625,369.1094 L239.6094,369.1094 L242.9688,381.5 L240.5156,381.5 L239.75,378.4375 L236.4688,378.4375 L235.7188,381.5 L233.2813,381.5 L236.625,369.1094 Z " fill="#000000"/><text fill="#000000" font-family="sans-serif" font-size="14" font-style="italic" lengthAdjust="spacing" textLength="125" x="252" y="380.8467">SpecializableTerm</text></g></a><!--MD5=[6b626634f3bb0842bebd5e499c80b711]
class Property--><a href="#Property" target="_top" title="#Property" xlink:actuate="onRequest" xlink:href="#Property" xlink:show="new" xlink:title="#Property" xlink:type="simple"><g ><rect codeLine="21" fill="#FFFFFF" height="40"  rx="2.5" ry="2.5" style="stroke:#000000;stroke-width:0.5;" width="90" x="421.5" y="223.5"/><ellipse cx="436.5" cy="239.5" fill="#A9DCDF" rx="11" ry="11" style="stroke:#181818;stroke-width:1.0;"/><path d="M436.6094,234.8438 L435.4531,239.9219 L437.7813,239.9219 L436.6094,234.8438 Z M435.125,232.6094 L438.1094,232.6094 L441.4688,245 L439.0156,245 L438.25,241.9375 L434.9688,241.9375 L434.2188,245 L431.7813,245 L435.125,232.6094 Z " fill="#000000"/><text fill="#000000" font-family="sans-serif" font-size="14" font-style="italic" lengthAdjust="spacing" textLength="58" x="450.5" y="244.3467">Property</text><line style="stroke:#000000;stroke-width:0.5;" x1="422.5" x2="510.5" y1="255.5" y2="255.5"/></g></a><!--MD5=[82c53a10f238a1092cf5f0b044477708]
class Feature--><a href="#Feature" target="_top" title="#Feature" xlink:actuate="onRequest" xlink:href="#Feature" xlink:show="new" xlink:title="#Feature" xlink:type="simple"><g ><rect codeLine="12" fill="#FFFFFF" height="40"  rx="2.5" ry="2.5" style="stroke:#000000;stroke-width:0.5;" width="85" x="508" y="99"/><ellipse cx="523" cy="115" fill="#A9DCDF" rx="11" ry="11" style="stroke:#181818;stroke-width:1.0;"/><path d="M523.1094,110.3438 L521.9531,115.4219 L524.2813,115.4219 L523.1094,110.3438 Z M521.625,108.1094 L524.6094,108.1094 L527.9688,120.5 L525.5156,120.5 L524.75,117.4375 L521.4688,117.4375 L520.7188,120.5 L518.2813,120.5 L521.625,108.1094 Z " fill="#000000"/><text fill="#000000" font-family="sans-serif" font-size="14" font-style="italic" lengthAdjust="spacing" textLength="53" x="537" y="119.8467">Feature</text><line style="stroke:#000000;stroke-width:0.5;" x1="509" x2="592" y1="131" y2="131"/></g></a><!--MD5=[9d35236b92952560f647498cf8a29acb]
class Term--><a href="#Term" target="_top" title="#Term" xlink:actuate="onRequest" xlink:href="#Term" xlink:show="new" xlink:title="#Term" xlink:type="simple"><g ><rect codeLine="14" fill="#D3D3D3" height="32"  rx="2.5" ry="2.5" style="stroke:#000000;stroke-width:0.5;" width="68" x="516.5" y="7"/><ellipse cx="531.5" cy="23" fill="#A9DCDF" rx="11" ry="11" style="stroke:#181818;stroke-width:1.0;"/><path d="M531.6094,18.3438 L530.4531,23.4219 L532.7813,23.4219 L531.6094,18.3438 Z M530.125,16.1094 L533.1094,16.1094 L536.4688,28.5 L534.0156,28.5 L533.25,25.4375 L529.9688,25.4375 L529.2188,28.5 L526.7813,28.5 L530.125,16.1094 Z " fill="#000000"/><text fill="#000000" font-family="sans-serif" font-size="14" font-style="italic" lengthAdjust="spacing" textLength="36" x="545.5" y="27.8467">Term</text></g></a><!--MD5=[dc339a869eaac90210cd41e61d476bcb]
class ForwardRelation--><a href="#ForwardRelation" target="_top" title="#ForwardRelation" xlink:actuate="onRequest" xlink:href="#ForwardRelation" xlink:show="new" xlink:title="#ForwardRelation" xlink:type="simple"><g ><rect codeLine="17" fill="#FFFFFF" height="56.2969"  rx="2.5" ry="2.5" style="stroke:#000000;stroke-width:0.5;" width="231" x="786" y="348"/><ellipse cx="841.75" cy="364" fill="#ADD1B2" rx="11" ry="11" style="stroke:#181818;stroke-width:1.0;"/><path d="M844.7188,369.6406 Q844.1406,369.9375 843.5,370.0781 Q842.8594,370.2344 842.1563,370.2344 Q839.6563,370.2344 838.3281,368.5938 Q837.0156,366.9375 837.0156,363.8125 Q837.0156,360.6875 838.3281,359.0313 Q839.6563,357.375 842.1563,357.375 Q842.8594,357.375 843.5,357.5313 Q844.1563,357.6875 844.7188,357.9844 L844.7188,360.7031 Q844.0938,360.125 843.5,359.8594 Q842.9063,359.5781 842.2813,359.5781 Q840.9375,359.5781 840.25,360.6563 Q839.5625,361.7188 839.5625,363.8125 Q839.5625,365.9063 840.25,366.9844 Q840.9375,368.0469 842.2813,368.0469 Q842.9063,368.0469 843.5,367.7813 Q844.0938,367.5 844.7188,366.9219 L844.7188,369.6406 Z " fill="#000000"/><text fill="#000000" font-family="sans-serif" font-size="14" lengthAdjust="spacing" textLength="111" x="862.25" y="368.8467">ForwardRelation</text><line style="stroke:#000000;stroke-width:0.5;" x1="787" x2="1016" y1="380" y2="380"/><text fill="#000000" font-family="sans-serif" font-size="14" lengthAdjust="spacing" textLength="219" x="792" y="396.9951">relationEntity : RelationEntity [1]</text></g></a><!--MD5=[534474e9f05b14d7c70186ae077f30e0]
class Relation--><a href="#Relation" target="_top" title="#Relation" xlink:actuate="onRequest" xlink:href="#Relation" xlink:show="new" xlink:title="#Relation" xlink:type="simple"><g ><rect codeLine="24" fill="#FFFFFF" height="88.8906"  rx="2.5" ry="2.5" style="stroke:#000000;stroke-width:0.5;" width="171" x="550" y="199"/><ellipse cx="603.25" cy="215" fill="#A9DCDF" rx="11" ry="11" style="stroke:#181818;stroke-width:1.0;"/><path d="M603.3594,210.3438 L602.2031,215.4219 L604.5313,215.4219 L603.3594,210.3438 Z M601.875,208.1094 L604.8594,208.1094 L608.2188,220.5 L605.7656,220.5 L605,217.4375 L601.7188,217.4375 L600.9688,220.5 L598.5313,220.5 L601.875,208.1094 Z " fill="#000000"/><text fill="#000000" font-family="sans-serif" font-size="14" font-style="italic" lengthAdjust="spacing" textLength="56" x="623.75" y="219.8467">Relation</text><line style="stroke:#000000;stroke-width:0.5;" x1="551" x2="720" y1="231" y2="231"/><text fill="#000000" font-family="sans-serif" font-size="14" lengthAdjust="spacing" textLength="125" x="556" y="247.9951">domain : Entity [1]</text><text fill="#000000" font-family="sans-serif" font-size="14" lengthAdjust="spacing" textLength="114" x="556" y="264.292">range : Entity [1]</text><text fill="#000000" font-family="sans-serif" font-size="14" lengthAdjust="spacing" textLength="159" x="556" y="280.5889">inverse : Relation [0..1]</text></g></a><!--MD5=[ea8230de58a0a355a330f3be22216fed]
class ReverseRelation--><a href="#ReverseRelation" target="_top" title="#ReverseRelation" xlink:actuate="onRequest" xlink:href="#ReverseRelation" xlink:show="new" xlink:title="#ReverseRelation" xlink:type="simple"><g ><rect codeLine="30" fill="#FFFFFF" height="56.2969"  rx="2.5" ry="2.5" style="stroke:#000000;stroke-width:0.5;" width="231" x="520" y="348"/><ellipse cx="574.75" cy="364" fill="#ADD1B2" rx="11" ry="11" style="stroke:#181818;stroke-width:1.0;"/><path d="M577.7188,369.6406 Q577.1406,369.9375 576.5,370.0781 Q575.8594,370.2344 575.1563,370.2344 Q572.6563,370.2344 571.3281,368.5938 Q570.0156,366.9375 570.0156,363.8125 Q570.0156,360.6875 571.3281,359.0313 Q572.6563,357.375 575.1563,357.375 Q575.8594,357.375 576.5,357.5313 Q577.1563,357.6875 577.7188,357.9844 L577.7188,360.7031 Q577.0938,360.125 576.5,359.8594 Q575.9063,359.5781 575.2813,359.5781 Q573.9375,359.5781 573.25,360.6563 Q572.5625,361.7188 572.5625,363.8125 Q572.5625,365.9063 573.25,366.9844 Q573.9375,368.0469 575.2813,368.0469 Q575.9063,368.0469 576.5,367.7813 Q577.0938,367.5 577.7188,366.9219 L577.7188,369.6406 Z " fill="#000000"/><text fill="#000000" font-family="sans-serif" font-size="14" lengthAdjust="spacing" textLength="113" x="595.25" y="368.8467">ReverseRelation</text><line style="stroke:#000000;stroke-width:0.5;" x1="521" x2="750" y1="380" y2="380"/><text fill="#000000" font-family="sans-serif" font-size="14" lengthAdjust="spacing" textLength="219" x="526" y="396.9951">relationEntity : RelationEntity [1]</text></g></a><!--MD5=[45b96a1d30d0a9ca347644650f99c7e5]
class ScalarProperty--><a href="#ScalarProperty" target="_top" title="#ScalarProperty" xlink:actuate="onRequest" xlink:href="#ScalarProperty" xlink:show="new" xlink:title="#ScalarProperty" xlink:type="simple"><g ><rect codeLine="34" fill="#FFFFFF" height="88.8906"  rx="2.5" ry="2.5" style="stroke:#000000;stroke-width:0.5;" width="160" x="205.5" y="464"/><ellipse cx="233.55" cy="480" fill="#ADD1B2" rx="11" ry="11" style="stroke:#181818;stroke-width:1.0;"/><path d="M236.5188,485.6406 Q235.9406,485.9375 235.3,486.0781 Q234.6594,486.2344 233.9563,486.2344 Q231.4563,486.2344 230.1281,484.5938 Q228.8156,482.9375 228.8156,479.8125 Q228.8156,476.6875 230.1281,475.0313 Q231.4563,473.375 233.9563,473.375 Q234.6594,473.375 235.3,473.5313 Q235.9563,473.6875 236.5188,473.9844 L236.5188,476.7031 Q235.8938,476.125 235.3,475.8594 Q234.7063,475.5781 234.0813,475.5781 Q232.7375,475.5781 232.05,476.6563 Q231.3625,477.7188 231.3625,479.8125 Q231.3625,481.9063 232.05,482.9844 Q232.7375,484.0469 234.0813,484.0469 Q234.7063,484.0469 235.3,483.7813 Q235.8938,483.5 236.5188,482.9219 L236.5188,485.6406 Z " fill="#000000"/><text fill="#000000" font-family="sans-serif" font-size="14" lengthAdjust="spacing" textLength="99" x="250.45" y="484.8467">ScalarProperty</text><line style="stroke:#000000;stroke-width:0.5;" x1="206.5" x2="364.5" y1="496" y2="496"/><text fill="#000000" font-family="sans-serif" font-size="14" lengthAdjust="spacing" textLength="137" x="211.5" y="512.9951">functional : Boolean</text><text fill="#000000" font-family="sans-serif" font-size="14" lengthAdjust="spacing" textLength="148" x="211.5" y="529.292">domain : Classifier [1]</text><text fill="#000000" font-family="sans-serif" font-size="14" lengthAdjust="spacing" textLength="117" x="211.5" y="545.5889">range : Scalar [1]</text></g></a><!--MD5=[20d34aacf7daeed7e68fc4fc3bb2a664]
class SemanticProperty--><a href="#SemanticProperty" target="_top" title="#SemanticProperty" xlink:actuate="onRequest" xlink:href="#SemanticProperty" xlink:show="new" xlink:title="#SemanticProperty" xlink:type="simple"><g ><rect codeLine="43" fill="#FFFFFF" height="40"  rx="2.5" ry="2.5" style="stroke:#000000;stroke-width:0.5;" width="154" x="33.5" y="356"/><ellipse cx="48.5" cy="372" fill="#A9DCDF" rx="11" ry="11" style="stroke:#181818;stroke-width:1.0;"/><path d="M48.6094,367.3438 L47.4531,372.4219 L49.7813,372.4219 L48.6094,367.3438 Z M47.125,365.1094 L50.1094,365.1094 L53.4688,377.5 L51.0156,377.5 L50.25,374.4375 L46.9688,374.4375 L46.2188,377.5 L43.7813,377.5 L47.125,365.1094 Z " fill="#000000"/><text fill="#000000" font-family="sans-serif" font-size="14" font-style="italic" lengthAdjust="spacing" textLength="122" x="62.5" y="376.8467">SemanticProperty</text><line style="stroke:#000000;stroke-width:0.5;" x1="34.5" x2="186.5" y1="388" y2="388"/></g></a><!--MD5=[a52628c9fc4849a00ea2b39db6a19908]
class StructuredProperty--><a href="#StructuredProperty" target="_top" title="#StructuredProperty" xlink:actuate="onRequest" xlink:href="#StructuredProperty" xlink:show="new" xlink:title="#StructuredProperty" xlink:type="simple"><g ><rect codeLine="46" fill="#FFFFFF" height="88.8906"  rx="2.5" ry="2.5" style="stroke:#000000;stroke-width:0.5;" width="163" x="7" y="464"/><ellipse cx="22" cy="480" fill="#ADD1B2" rx="11" ry="11" style="stroke:#181818;stroke-width:1.0;"/><path d="M24.9688,485.6406 Q24.3906,485.9375 23.75,486.0781 Q23.1094,486.2344 22.4063,486.2344 Q19.9063,486.2344 18.5781,484.5938 Q17.2656,482.9375 17.2656,479.8125 Q17.2656,476.6875 18.5781,475.0313 Q19.9063,473.375 22.4063,473.375 Q23.1094,473.375 23.75,473.5313 Q24.4063,473.6875 24.9688,473.9844 L24.9688,476.7031 Q24.3438,476.125 23.75,475.8594 Q23.1563,475.5781 22.5313,475.5781 Q21.1875,475.5781 20.5,476.6563 Q19.8125,477.7188 19.8125,479.8125 Q19.8125,481.9063 20.5,482.9844 Q21.1875,484.0469 22.5313,484.0469 Q23.1563,484.0469 23.75,483.7813 Q24.3438,483.5 24.9688,482.9219 L24.9688,485.6406 Z " fill="#000000"/><text fill="#000000" font-family="sans-serif" font-size="14" lengthAdjust="spacing" textLength="131" x="36" y="484.8467">StructuredProperty</text><line style="stroke:#000000;stroke-width:0.5;" x1="8" x2="169" y1="496" y2="496"/><text fill="#000000" font-family="sans-serif" font-size="14" lengthAdjust="spacing" textLength="137" x="13" y="512.9951">functional : Boolean</text><text fill="#000000" font-family="sans-serif" font-size="14" lengthAdjust="spacing" textLength="148" x="13" y="529.292">domain : Classifier [1]</text><text fill="#000000" font-family="sans-serif" font-size="14" lengthAdjust="spacing" textLength="140" x="13" y="545.5889">range : Structure [1]</text></g></a><!--MD5=[9ca33dceb5124b5179fd36b85121669a]
reverse link Property to AnnotationProperty--><g ><a href="#Property" target="_top" title="#Property" xlink:actuate="onRequest" xlink:href="#Property" xlink:show="new" xlink:title="#Property" xlink:type="simple"><path codeLine="10" d="M469.051,283.969 C472.763,341.389 479.509,445.758 482.271,488.4873 " fill="none"  style="stroke:#000000;stroke-width:1.0;"/><polygon fill="none" points="462.055,284.249,467.75,263.839,476.026,283.346,462.055,284.249" style="stroke:#000000;stroke-width:1.0;"/></a></g><!--MD5=[c643e1fe002076601e64bbf3b72ec0e8]
reverse link SpecializableTerm to AnnotationProperty--><g ><a href="#SpecializableTerm" target="_top" title="#SpecializableTerm" xlink:actuate="onRequest" xlink:href="#SpecializableTerm" xlink:show="new" xlink:title="#SpecializableTerm" xlink:type="simple"><path codeLine="11" d="M339.421,404.191 C374.527,429.363 425.836,466.153 456.811,488.3631 " fill="none"  style="stroke:#000000;stroke-width:1.0;"/><polygon fill="none" points="334.908,409.569,322.734,392.225,343.066,398.191,334.908,409.569" style="stroke:#000000;stroke-width:1.0;"/></a></g><!--MD5=[4f89f4a032fb508fbd00151b89225849]
reverse link Term to Feature--><g ><a href="#Term" target="_top" title="#Term" xlink:actuate="onRequest" xlink:href="#Term" xlink:show="new" xlink:title="#Term" xlink:type="simple"><path codeLine="16" d="M550.5,59.445 C550.5,72.76 550.5,87.394 550.5,98.701 " fill="none"  style="stroke:#000000;stroke-width:1.0;"/><polygon fill="none" points="543.5,59.103,550.5,39.103,557.5,59.103,543.5,59.103" style="stroke:#000000;stroke-width:1.0;"/></a></g><!--MD5=[0144dad999ab1ae304821156dde88b31]
reverse link Relation to ForwardRelation--><g ><a href="#Relation" target="_top" title="#Relation" xlink:actuate="onRequest" xlink:href="#Relation" xlink:show="new" xlink:title="#Relation" xlink:type="simple"><path codeLine="20" d="M739.285,295.417 C775.74,313.302 815.275,332.698 846.188,347.864 " fill="none"  style="stroke:#000000;stroke-width:1.0;"/><polygon fill="none" points="736.001,301.603,721.128,286.509,742.167,289.034,736.001,301.603" style="stroke:#000000;stroke-width:1.0;"/></a></g><!--MD5=[91446fb58b2b0d3da6338498ad8a61d4]
reverse link Feature to Property--><g ><a href="#Feature" target="_top" title="#Feature" xlink:actuate="onRequest" xlink:href="#Feature" xlink:show="new" xlink:title="#Feature" xlink:type="simple"><path codeLine="23" d="M525.954,155.797 C510.773,177.936 491.891,205.472 479.533,223.494 " fill="none"  style="stroke:#000000;stroke-width:1.0;"/><polygon fill="none" points="520.291,151.677,537.375,139.141,531.837,159.594,520.291,151.677" style="stroke:#000000;stroke-width:1.0;"/></a></g><!--MD5=[5707ed6d2cada5e0581e36a343230ef4]
reverse link Feature to Relation--><g ><a href="#Feature" target="_top" title="#Feature" xlink:actuate="onRequest" xlink:href="#Feature" xlink:show="new" xlink:title="#Feature" xlink:type="simple"><path codeLine="29" d="M575.439,155.942 C584.771,169.39 595.472,184.813 605.233,198.88 " fill="none"  style="stroke:#000000;stroke-width:1.0;"/><polygon fill="none" points="569.432,159.563,563.781,139.141,580.934,151.582,569.432,159.563" style="stroke:#000000;stroke-width:1.0;"/></a></g><!--MD5=[8e166518ce0842b397bd379aaa80c727]
reverse link Relation to ReverseRelation--><g ><a href="#Relation" target="_top" title="#Relation" xlink:actuate="onRequest" xlink:href="#Relation" xlink:show="new" xlink:title="#Relation" xlink:type="simple"><path codeLine="33" d="M635.5,308.357 C635.5,322.278 635.5,336.284 635.5,347.838 " fill="none"  style="stroke:#000000;stroke-width:1.0;"/><polygon fill="none" points="628.5,308.318,635.5,288.318,642.5,308.318,628.5,308.318" style="stroke:#000000;stroke-width:1.0;"/></a></g><!--MD5=[96429e18abd7f227097678cc9428ca0e]
reverse link SemanticProperty to ScalarProperty--><g ><a href="#SemanticProperty" target="_top" title="#SemanticProperty" xlink:actuate="onRequest" xlink:href="#SemanticProperty" xlink:show="new" xlink:title="#SemanticProperty" xlink:type="simple"><path codeLine="41" d="M152.516,408.332 C174.818,424.963 202.58,445.666 226.961,463.8469 " fill="none"  style="stroke:#000000;stroke-width:1.0;"/><polygon fill="none" points="148.17,413.823,136.322,396.256,156.539,402.6,148.17,413.823" style="stroke:#000000;stroke-width:1.0;"/></a></g><!--MD5=[bd5dd8ccf5ba429806698c4cd5d08c64]
reverse link SpecializableTerm to ScalarProperty--><g ><a href="#SpecializableTerm" target="_top" title="#SpecializableTerm" xlink:actuate="onRequest" xlink:href="#SpecializableTerm" xlink:show="new" xlink:title="#SpecializableTerm" xlink:type="simple"><path codeLine="42" d="M297.189,412.161 C295.236,428.093 292.907,447.09 290.843,463.9178 " fill="none"  style="stroke:#000000;stroke-width:1.0;"/><polygon fill="none" points="290.251,411.225,299.633,392.225,304.147,412.929,290.251,411.225" style="stroke:#000000;stroke-width:1.0;"/></a></g><!--MD5=[4e47519bbeba0530445417ce65e8f778]
reverse link Property to SemanticProperty--><g ><a href="#Property" target="_top" title="#Property" xlink:actuate="onRequest" xlink:href="#Property" xlink:show="new" xlink:title="#Property" xlink:type="simple"><path codeLine="45" d="M402.288,268.038 C333.597,293.219 225.979,332.668 162.425,355.966 " fill="none"  style="stroke:#000000;stroke-width:1.0;"/><polygon fill="none" points="400.225,261.339,421.412,261.028,405.044,274.484,400.225,261.339" style="stroke:#000000;stroke-width:1.0;"/></a></g><!--MD5=[7f6baec6d71bc68f5b24ca314e99a90f]
reverse link SemanticProperty to StructuredProperty--><g ><a href="#SemanticProperty" target="_top" title="#SemanticProperty" xlink:actuate="onRequest" xlink:href="#SemanticProperty" xlink:show="new" xlink:title="#SemanticProperty" xlink:type="simple"><path codeLine="53" d="M103.8895,416.212 C101.3583,431.227 98.4561,448.442 95.8591,463.8469 " fill="none"  style="stroke:#000000;stroke-width:1.0;"/><polygon fill="none" points="97.0264,414.814,107.254,396.256,110.832,417.141,97.0264,414.814" style="stroke:#000000;stroke-width:1.0;"/></a></g><!--MD5=[33cbb523e179d3a4947853603ac600bb]
reverse link SpecializableTerm to StructuredProperty--><g ><a href="#SpecializableTerm" target="_top" title="#SpecializableTerm" xlink:actuate="onRequest" xlink:href="#SpecializableTerm" xlink:show="new" xlink:title="#SpecializableTerm" xlink:type="simple"><path codeLine="54" d="M259.534,402.712 C231.088,420.14 192.783,443.608 159.634,463.9178 " fill="none"  style="stroke:#000000;stroke-width:1.0;"/><polygon fill="none" points="255.939,396.705,276.649,392.225,263.253,408.643,255.939,396.705" style="stroke:#000000;stroke-width:1.0;"/></a></g><!--MD5=[1e0a0a71b39d1999064d9ffadacd5c0c]
@startuml
skinparam classBackgroundColor LightGray
skinparam classBorderColor Black
skinparam enumBorderColor Black
skinparam ArrowColor Black
hide methods
class AnnotationProperty [[#AnnotationProperty]] #white {
}
abstract class SpecializableTerm [[#SpecializableTerm]]
hide SpecializableTerm members
AnnotationProperty -up-|> Property [[#Property]]
AnnotationProperty -up-|> SpecializableTerm [[#SpecializableTerm]]
abstract class Feature [[#Feature]] #white {
}
abstract class Term [[#Term]]
hide Term members
Feature -up-|> Term [[#Term]]
class ForwardRelation [[#ForwardRelation]] #white {
	relationEntity : RelationEntity [1]
}
ForwardRelation -up-|> Relation [[#Relation]]
abstract class Property [[#Property]] #white {
}
Property -up-|> Feature [[#Feature]]
abstract class Relation [[#Relation]] #white {
	domain : Entity [1]
	range : Entity [1]
	inverse : Relation [0..1]
}
Relation -up-|> Feature [[#Feature]]
class ReverseRelation [[#ReverseRelation]] #white {
	relationEntity : RelationEntity [1]
}
ReverseRelation -up-|> Relation [[#Relation]]
class ScalarProperty [[#ScalarProperty]] #white {
	functional : Boolean
	domain : Classifier [1]
	range : Scalar [1]
}
abstract class SpecializableTerm [[#SpecializableTerm]]
hide SpecializableTerm members
ScalarProperty -up-|> SemanticProperty [[#SemanticProperty]]
ScalarProperty -up-|> SpecializableTerm [[#SpecializableTerm]]
abstract class SemanticProperty [[#SemanticProperty]] #white {
}
SemanticProperty -up-|> Property [[#Property]]
class StructuredProperty [[#StructuredProperty]] #white {
	functional : Boolean
	domain : Classifier [1]
	range : Structure [1]
}
abstract class SpecializableTerm [[#SpecializableTerm]]
hide SpecializableTerm members
StructuredProperty -up-|> SemanticProperty [[#SemanticProperty]]
StructuredProperty -up-|> SpecializableTerm [[#SpecializableTerm]]
@enduml

PlantUML version 1.2022.12(Sun Oct 23 18:12:26 UTC 2022)
(GPL source distribution)
Java Runtime: OpenJDK Runtime Environment
JVM: OpenJDK 64-Bit Server VM
Default Encoding: UTF-8
Language: en
Country: US
--></g></svg>
