<?xml version="1.0" encoding="UTF-8" standalone="no"?><svg xmlns="http://www.w3.org/2000/svg" xmlns:xlink="http://www.w3.org/1999/xlink" contentStyleType="text/css" height="406px" preserveAspectRatio="none" style="width:649px;height:406px;background:#FFFFFF;" version="1.1" viewBox="0 0 649 406" width="649px" zoomAndPan="magnify"><defs/><g><!--MD5=[030fb27d31e47a9081912f52ec8aa49a]
class Assertion--><a href="#Assertion" target="_top" title="#Assertion" xlink:actuate="onRequest" xlink:href="#Assertion" xlink:show="new" xlink:title="#Assertion" xlink:type="simple"><g ><rect codeLine="6" fill="#FFFFFF" height="40"  rx="2.5" ry="2.5" style="stroke:#000000;stroke-width:0.5;" width="97" x="368.5" y="100"/><ellipse cx="383.5" cy="116" fill="#A9DCDF" rx="11" ry="11" style="stroke:#181818;stroke-width:1.0;"/><path d="M383.6094,111.3438 L382.4531,116.4219 L384.7813,116.4219 L383.6094,111.3438 Z M382.125,109.1094 L385.1094,109.1094 L388.4688,121.5 L386.0156,121.5 L385.25,118.4375 L381.9688,118.4375 L381.2188,121.5 L378.7813,121.5 L382.125,109.1094 Z " fill="#000000"/><text fill="#000000" font-family="sans-serif" font-size="14" font-style="italic" lengthAdjust="spacing" textLength="65" x="397.5" y="120.8467">Assertion</text><line style="stroke:#000000;stroke-width:0.5;" x1="369.5" x2="464.5" y1="132" y2="132"/></g></a><!--MD5=[95174e42ee347a14b6cb78d6855f19b5]
class Element--><a href="#Element" target="_top" title="#Element" xlink:actuate="onRequest" xlink:href="#Element" xlink:show="new" xlink:title="#Element" xlink:type="simple"><g ><rect codeLine="8" fill="#D3D3D3" height="32"  rx="2.5" ry="2.5" style="stroke:#000000;stroke-width:0.5;" width="89" x="372.5" y="7"/><ellipse cx="387.5" cy="23" fill="#A9DCDF" rx="11" ry="11" style="stroke:#181818;stroke-width:1.0;"/><path d="M387.6094,18.3438 L386.4531,23.4219 L388.7813,23.4219 L387.6094,18.3438 Z M386.125,16.1094 L389.1094,16.1094 L392.4688,28.5 L390.0156,28.5 L389.25,25.4375 L385.9688,25.4375 L385.2188,28.5 L382.7813,28.5 L386.125,16.1094 Z " fill="#000000"/><text fill="#000000" font-family="sans-serif" font-size="14" font-style="italic" lengthAdjust="spacing" textLength="57" x="401.5" y="27.8467">Element</text></g></a><!--MD5=[6d0a02ee44a7895dbe334527783d800c]
class PropertyValueAssertion--><a href="#PropertyValueAssertion" target="_top" title="#PropertyValueAssertion" xlink:actuate="onRequest" xlink:href="#PropertyValueAssertion" xlink:show="new" xlink:title="#PropertyValueAssertion" xlink:type="simple"><g ><rect codeLine="11" fill="#FFFFFF" height="88.8906"  rx="2.5" ry="2.5" style="stroke:#000000;stroke-width:0.5;" width="318" x="7" y="201"/><ellipse cx="81.25" cy="217" fill="#ADD1B2" rx="11" ry="11" style="stroke:#181818;stroke-width:1.0;"/><path d="M84.2188,222.6406 Q83.6406,222.9375 83,223.0781 Q82.3594,223.2344 81.6563,223.2344 Q79.1563,223.2344 77.8281,221.5938 Q76.5156,219.9375 76.5156,216.8125 Q76.5156,213.6875 77.8281,212.0313 Q79.1563,210.375 81.6563,210.375 Q82.3594,210.375 83,210.5313 Q83.6563,210.6875 84.2188,210.9844 L84.2188,213.7031 Q83.5938,213.125 83,212.8594 Q82.4063,212.5781 81.7813,212.5781 Q80.4375,212.5781 79.75,213.6563 Q79.0625,214.7188 79.0625,216.8125 Q79.0625,218.9063 79.75,219.9844 Q80.4375,221.0469 81.7813,221.0469 Q82.4063,221.0469 83,220.7813 Q83.5938,220.5 84.2188,219.9219 L84.2188,222.6406 Z " fill="#000000"/><text fill="#000000" font-family="sans-serif" font-size="14" lengthAdjust="spacing" textLength="161" x="101.75" y="221.8467">PropertyValueAssertion</text><line style="stroke:#000000;stroke-width:0.5;" x1="8" x2="324" y1="233" y2="233"/><text fill="#000000" font-family="sans-serif" font-size="14" lengthAdjust="spacing" textLength="216" x="13" y="249.9951">property : SemanticProperty [1]</text><text fill="#000000" font-family="sans-serif" font-size="14" lengthAdjust="spacing" textLength="306" x="13" y="266.292">namedInstanceValue : NamedInstance [0..1]</text><text fill="#000000" font-family="sans-serif" font-size="14" lengthAdjust="spacing" textLength="221" x="13" y="282.5889">owningInstance : Instance [0..1]</text></g></a><!--MD5=[27bfdb9e128171e0e365013b6b91e809]
class Literal--><a href="#Literal" target="_top" title="#Literal" xlink:actuate="onRequest" xlink:href="#Literal" xlink:show="new" xlink:title="#Literal" xlink:type="simple"><g ><rect codeLine="16" fill="#D3D3D3" height="32"  rx="2.5" ry="2.5" style="stroke:#000000;stroke-width:0.5;" width="72" x="56" y="367"/><ellipse cx="71" cy="383" fill="#A9DCDF" rx="11" ry="11" style="stroke:#181818;stroke-width:1.0;"/><path d="M71.1094,378.3438 L69.9531,383.4219 L72.2812,383.4219 L71.1094,378.3438 Z M69.625,376.1094 L72.6094,376.1094 L75.9687,388.5 L73.5156,388.5 L72.75,385.4375 L69.4687,385.4375 L68.7187,388.5 L66.2812,388.5 L69.625,376.1094 Z " fill="#000000"/><text fill="#000000" font-family="sans-serif" font-size="14" font-style="italic" lengthAdjust="spacing" textLength="40" x="85" y="387.8467">Literal</text></g></a><!--MD5=[0b2f13c70971adaa910dfa4227793f6d]
class StructureInstance--><a href="#StructureInstance" target="_top" title="#StructureInstance" xlink:actuate="onRequest" xlink:href="#StructureInstance" xlink:show="new" xlink:title="#StructureInstance" xlink:type="simple"><g ><rect codeLine="18" fill="#D3D3D3" height="32"  rx="2.5" ry="2.5" style="stroke:#000000;stroke-width:0.5;" width="155" x="163.5" y="367"/><ellipse cx="178.5" cy="383" fill="#ADD1B2" rx="11" ry="11" style="stroke:#181818;stroke-width:1.0;"/><path d="M181.4687,388.6406 Q180.8906,388.9375 180.25,389.0781 Q179.6094,389.2344 178.9062,389.2344 Q176.4062,389.2344 175.0781,387.5938 Q173.7656,385.9375 173.7656,382.8125 Q173.7656,379.6875 175.0781,378.0313 Q176.4062,376.375 178.9062,376.375 Q179.6094,376.375 180.25,376.5313 Q180.9062,376.6875 181.4687,376.9844 L181.4687,379.7031 Q180.8437,379.125 180.25,378.8594 Q179.6562,378.5781 179.0312,378.5781 Q177.6875,378.5781 177,379.6563 Q176.3125,380.7188 176.3125,382.8125 Q176.3125,384.9063 177,385.9844 Q177.6875,387.0469 179.0312,387.0469 Q179.6562,387.0469 180.25,386.7813 Q180.8437,386.5 181.4687,385.9219 L181.4687,388.6406 Z " fill="#000000"/><text fill="#000000" font-family="sans-serif" font-size="14" lengthAdjust="spacing" textLength="123" x="192.5" y="387.8467">StructureInstance</text></g></a><!--MD5=[6a2c911c5e68a24d9d0c71b69ce0a399]
class TypeAssertion--><a href="#TypeAssertion" target="_top" title="#TypeAssertion" xlink:actuate="onRequest" xlink:href="#TypeAssertion" xlink:show="new" xlink:title="#TypeAssertion" xlink:type="simple"><g ><rect codeLine="23" fill="#FFFFFF" height="72.5938"  rx="2.5" ry="2.5" style="stroke:#000000;stroke-width:0.5;" width="282" x="360" y="209"/><ellipse cx="447.25" cy="225" fill="#ADD1B2" rx="11" ry="11" style="stroke:#181818;stroke-width:1.0;"/><path d="M450.2188,230.6406 Q449.6406,230.9375 449,231.0781 Q448.3594,231.2344 447.6563,231.2344 Q445.1563,231.2344 443.8281,229.5938 Q442.5156,227.9375 442.5156,224.8125 Q442.5156,221.6875 443.8281,220.0313 Q445.1563,218.375 447.6563,218.375 Q448.3594,218.375 449,218.5313 Q449.6563,218.6875 450.2188,218.9844 L450.2188,221.7031 Q449.5938,221.125 449,220.8594 Q448.4063,220.5781 447.7813,220.5781 Q446.4375,220.5781 445.75,221.6563 Q445.0625,222.7188 445.0625,224.8125 Q445.0625,226.9063 445.75,227.9844 Q446.4375,229.0469 447.7813,229.0469 Q448.4063,229.0469 449,228.7813 Q449.5938,228.5 450.2188,227.9219 L450.2188,230.6406 Z " fill="#000000"/><text fill="#000000" font-family="sans-serif" font-size="14" lengthAdjust="spacing" textLength="99" x="467.75" y="229.8467">TypeAssertion</text><line style="stroke:#000000;stroke-width:0.5;" x1="361" x2="641" y1="241" y2="241"/><text fill="#000000" font-family="sans-serif" font-size="14" lengthAdjust="spacing" textLength="104" x="366" y="257.9951">type : Entity [1]</text><text fill="#000000" font-family="sans-serif" font-size="14" lengthAdjust="spacing" textLength="270" x="366" y="274.292">owningInstance : NamedInstance [0..1]</text></g></a><!--MD5=[ef2e0c1f69ec21ea6cab836a8d1181ec]
reverse link Element to Assertion--><g ><a href="#Element" target="_top" title="#Element" xlink:actuate="onRequest" xlink:href="#Element" xlink:show="new" xlink:title="#Element" xlink:type="simple"><path codeLine="10" d="M417,59.472 C417,73.156 417,88.266 417,99.838 " fill="none"  style="stroke:#000000;stroke-width:1.0;"/><polygon fill="none" points="410,59.263,417,39.263,424,59.263,410,59.263" style="stroke:#000000;stroke-width:1.0;"/></a></g><!--MD5=[d91ba29cdf7da7802e291c76a41de8f9]
reverse link Assertion to PropertyValueAssertion--><g ><a href="#Assertion" target="_top" title="#Assertion" xlink:actuate="onRequest" xlink:href="#Assertion" xlink:show="new" xlink:title="#Assertion" xlink:type="simple"><path codeLine="20" d="M360.073,149.01 C328.879,164.358 289.528,183.72 254.428,200.991 " fill="none"  style="stroke:#000000;stroke-width:1.0;"/><polygon fill="none" points="357.296,142.575,378.331,140.026,363.476,155.137,357.296,142.575" style="stroke:#000000;stroke-width:1.0;"/></a></g><!--MD5=[27eb9e685ef96ce9cfe604451bf94f11]
link PropertyValueAssertion to Literal--><g ><path codeLine="21" d="M135.5364,300.8322 C135.5364,300.8322 128.196,314.1363 125,320 C118.751,331.4664 111.955,344.1895 106.1638,355.1111 " fill="none"  style="stroke:#000000;stroke-width:1.0;"/><polygon fill="#000000" points="99.9194,366.9215,107.6624,360.8349,102.2565,362.5013,100.5901,357.0955,99.9194,366.9215" style="stroke:#000000;stroke-width:1.0;"/><line style="stroke:#000000;stroke-width:1.0;" x1="102.2565" x2="105.9957" y1="362.5013" y2="355.429"/><polygon fill="#000000" points="141.36,290.34,134.9508,293.6449,135.5364,300.8322,141.9456,297.5273,141.36,290.34" style="stroke:#000000;stroke-width:1.0;"/><text fill="#000000" font-family="sans-serif" font-size="13" lengthAdjust="spacing" textLength="71" x="126" y="333.0669">literalValue</text><text fill="#000000" font-family="sans-serif" font-size="13" lengthAdjust="spacing" textLength="24" x="74.5167" y="355.9061">0..1</text></g><!--MD5=[d31670ef7b3a4fcb3209a66b7bad9195]
link PropertyValueAssertion to StructureInstance--><g ><path codeLine="22" d="M195.9541,300.6181 C195.9541,300.6181 217.603,339.7292 226.088,355.0591 " fill="none"  style="stroke:#000000;stroke-width:1.0;"/><polygon fill="#000000" points="232.567,366.7649,231.7083,356.9535,230.1457,362.3903,224.7089,360.8276,232.567,366.7649" style="stroke:#000000;stroke-width:1.0;"/><line style="stroke:#000000;stroke-width:1.0;" x1="230.1457" x2="226.272" y1="362.3903" y2="355.391"/><polygon fill="#000000" points="190.143,290.119,189.5489,297.3056,195.9541,300.6181,196.5483,293.4315,190.143,290.119" style="stroke:#000000;stroke-width:1.0;"/><text fill="#000000" font-family="sans-serif" font-size="13" lengthAdjust="spacing" textLength="148" x="216" y="333.0669">structureInstanceValue</text><text fill="#000000" font-family="sans-serif" font-size="13" lengthAdjust="spacing" textLength="24" x="201.7986" y="355.9915">0..1</text></g><!--MD5=[43de62fc2bf8b8f04ff79b2bdd651525]
reverse link Assertion to TypeAssertion--><g ><a href="#Assertion" target="_top" title="#Assertion" xlink:actuate="onRequest" xlink:href="#Assertion" xlink:show="new" xlink:title="#Assertion" xlink:type="simple"><path codeLine="27" d="M441.234,156.629 C452.375,173.01 465.562,192.397 476.71,208.788 " fill="none"  style="stroke:#000000;stroke-width:1.0;"/><polygon fill="none" points="435.401,160.5,429.941,140.026,446.977,152.627,435.401,160.5" style="stroke:#000000;stroke-width:1.0;"/></a></g><!--MD5=[6a1724a69e8e7419146cb3a85b9173d2]
@startuml
skinparam classBackgroundColor LightGray
skinparam classBorderColor Black
skinparam enumBorderColor Black
skinparam ArrowColor Black
hide methods
abstract class Assertion [[#Assertion]] #white {
}
abstract class Element [[#Element]]
hide Element members
Assertion -up-|> Element [[#Element]]
class PropertyValueAssertion [[#PropertyValueAssertion]] #white {
	property : SemanticProperty [1]
	namedInstanceValue : NamedInstance [0..1]
	owningInstance : Instance [0..1]
}
abstract class Literal [[#Literal]]
hide Literal members
class StructureInstance [[#StructureInstance]]
hide StructureInstance members
PropertyValueAssertion -up-|> Assertion [[#Assertion]]
PropertyValueAssertion *- -> "0..1" Literal : literalValue
PropertyValueAssertion *- -> "0..1" StructureInstance : structureInstanceValue
class TypeAssertion [[#TypeAssertion]] #white {
	type : Entity [1]
	owningInstance : NamedInstance [0..1]
}
TypeAssertion -up-|> Assertion [[#Assertion]]
@enduml

PlantUML version 1.2022.12(Sun Oct 23 18:12:26 UTC 2022)
(GPL source distribution)
Java Runtime: OpenJDK Runtime Environment
JVM: OpenJDK 64-Bit Server VM
Default Encoding: UTF-8
Language: en
Country: US
--></g></svg>
