<?xml version="1.0" encoding="UTF-8" standalone="no"?><svg xmlns="http://www.w3.org/2000/svg" xmlns:xlink="http://www.w3.org/1999/xlink" contentStyleType="text/css" height="826px" preserveAspectRatio="none" style="width:1898px;height:826px;background:#FFFFFF;" version="1.1" viewBox="0 0 1898 826" width="1898px" zoomAndPan="magnify"><defs/><g><!--MD5=[933631b9c018df9838023b813acf8529]
class Axiom--><a href="#Axiom" target="_top" title="#Axiom" xlink:actuate="onRequest" xlink:href="#Axiom" xlink:show="new" xlink:title="#Axiom" xlink:type="simple"><g ><rect codeLine="6" fill="#FFFFFF" height="40"  rx="2.5" ry="2.5" style="stroke:#000000;stroke-width:0.5;" width="73" x="1025" y="100"/><ellipse cx="1040" cy="116" fill="#A9DCDF" rx="11" ry="11" style="stroke:#181818;stroke-width:1.0;"/><path d="M1040.1094,111.3438 L1038.9531,116.4219 L1041.2813,116.4219 L1040.1094,111.3438 Z M1038.625,109.1094 L1041.6094,109.1094 L1044.9688,121.5 L1042.5156,121.5 L1041.75,118.4375 L1038.4688,118.4375 L1037.7188,121.5 L1035.2813,121.5 L1038.625,109.1094 Z " fill="#000000"/><text fill="#000000" font-family="sans-serif" font-size="14" font-style="italic" lengthAdjust="spacing" textLength="41" x="1054" y="120.8467">Axiom</text><line style="stroke:#000000;stroke-width:0.5;" x1="1026" x2="1097" y1="132" y2="132"/></g></a><!--MD5=[95174e42ee347a14b6cb78d6855f19b5]
class Element--><a href="#Element" target="_top" title="#Element" xlink:actuate="onRequest" xlink:href="#Element" xlink:show="new" xlink:title="#Element" xlink:type="simple"><g ><rect codeLine="8" fill="#D3D3D3" height="32"  rx="2.5" ry="2.5" style="stroke:#000000;stroke-width:0.5;" width="89" x="1017" y="7"/><ellipse cx="1032" cy="23" fill="#A9DCDF" rx="11" ry="11" style="stroke:#181818;stroke-width:1.0;"/><path d="M1032.1094,18.3438 L1030.9531,23.4219 L1033.2813,23.4219 L1032.1094,18.3438 Z M1030.625,16.1094 L1033.6094,16.1094 L1036.9688,28.5 L1034.5156,28.5 L1033.75,25.4375 L1030.4688,25.4375 L1029.7188,28.5 L1027.2813,28.5 L1030.625,16.1094 Z " fill="#000000"/><text fill="#000000" font-family="sans-serif" font-size="14" font-style="italic" lengthAdjust="spacing" textLength="57" x="1046" y="27.8467">Element</text></g></a><!--MD5=[eb168ca87557bdcc21e383782124da33]
class ClassifierEquivalenceAxiom--><a href="#ClassifierEquivalenceAxiom" target="_top" title="#ClassifierEquivalenceAxiom" xlink:actuate="onRequest" xlink:href="#ClassifierEquivalenceAxiom" xlink:show="new" xlink:title="#ClassifierEquivalenceAxiom" xlink:type="simple"><g ><rect codeLine="11" fill="#FFFFFF" height="72.5938"  rx="2.5" ry="2.5" style="stroke:#000000;stroke-width:0.5;" width="237" x="352" y="201"/><ellipse cx="376" cy="217" fill="#ADD1B2" rx="11" ry="11" style="stroke:#181818;stroke-width:1.0;"/><path d="M378.9688,222.6406 Q378.3906,222.9375 377.75,223.0781 Q377.1094,223.2344 376.4063,223.2344 Q373.9063,223.2344 372.5781,221.5938 Q371.2656,219.9375 371.2656,216.8125 Q371.2656,213.6875 372.5781,212.0313 Q373.9063,210.375 376.4063,210.375 Q377.1094,210.375 377.75,210.5313 Q378.4063,210.6875 378.9688,210.9844 L378.9688,213.7031 Q378.3438,213.125 377.75,212.8594 Q377.1563,212.5781 376.5313,212.5781 Q375.1875,212.5781 374.5,213.6563 Q373.8125,214.7188 373.8125,216.8125 Q373.8125,218.9063 374.5,219.9844 Q375.1875,221.0469 376.5313,221.0469 Q377.1563,221.0469 377.75,220.7813 Q378.3438,220.5 378.9688,219.9219 L378.9688,222.6406 Z " fill="#000000"/><text fill="#000000" font-family="sans-serif" font-size="14" lengthAdjust="spacing" textLength="185" x="392" y="221.8467">ClassifierEquivalenceAxiom</text><line style="stroke:#000000;stroke-width:0.5;" x1="353" x2="588" y1="233" y2="233"/><text fill="#000000" font-family="sans-serif" font-size="14" lengthAdjust="spacing" textLength="204" x="358" y="249.9951">superClassifiers : Classifier [*]</text><text fill="#000000" font-family="sans-serif" font-size="14" lengthAdjust="spacing" textLength="225" x="358" y="266.292">owningClassifier : Classifier [0..1]</text></g></a><!--MD5=[25b87728d4df6106c58eefd79f338c2d]
class PropertyRestrictionAxiom--><a href="#PropertyRestrictionAxiom" target="_top" title="#PropertyRestrictionAxiom" xlink:actuate="onRequest" xlink:href="#PropertyRestrictionAxiom" xlink:show="new" xlink:title="#PropertyRestrictionAxiom" xlink:type="simple"><g ><rect codeLine="50" fill="#FFFFFF" height="88.8906"  rx="2.5" ry="2.5" style="stroke:#000000;stroke-width:0.5;" width="341" x="282" y="390"/><ellipse cx="361.75" cy="406" fill="#A9DCDF" rx="11" ry="11" style="stroke:#181818;stroke-width:1.0;"/><path d="M361.8594,401.3438 L360.7031,406.4219 L363.0313,406.4219 L361.8594,401.3438 Z M360.375,399.1094 L363.3594,399.1094 L366.7188,411.5 L364.2656,411.5 L363.5,408.4375 L360.2188,408.4375 L359.4688,411.5 L357.0313,411.5 L360.375,399.1094 Z " fill="#000000"/><text fill="#000000" font-family="sans-serif" font-size="14" font-style="italic" lengthAdjust="spacing" textLength="173" x="382.25" y="410.8467">PropertyRestrictionAxiom</text><line style="stroke:#000000;stroke-width:0.5;" x1="283" x2="622" y1="422" y2="422"/><text fill="#000000" font-family="sans-serif" font-size="14" lengthAdjust="spacing" textLength="216" x="288" y="438.9951">property : SemanticProperty [1]</text><text fill="#000000" font-family="sans-serif" font-size="14" lengthAdjust="spacing" textLength="225" x="288" y="455.292">owningClassifier : Classifier [0..1]</text><text fill="#000000" font-family="sans-serif" font-size="14" lengthAdjust="spacing" textLength="329" x="288" y="471.5889">owningAxiom : ClassifierEquivalenceAxiom [0..1]</text></g></a><!--MD5=[7053e9859f017afcc95161742056f1ac]
class InstanceEnumerationAxiom--><a href="#InstanceEnumerationAxiom" target="_top" title="#InstanceEnumerationAxiom" xlink:actuate="onRequest" xlink:href="#InstanceEnumerationAxiom" xlink:show="new" xlink:title="#InstanceEnumerationAxiom" xlink:type="simple"><g ><rect codeLine="17" fill="#FFFFFF" height="72.5938"  rx="2.5" ry="2.5" style="stroke:#000000;stroke-width:0.5;" width="233" x="624" y="201"/><ellipse cx="644.85" cy="217" fill="#ADD1B2" rx="11" ry="11" style="stroke:#181818;stroke-width:1.0;"/><path d="M647.8188,222.6406 Q647.2406,222.9375 646.6,223.0781 Q645.9594,223.2344 645.2563,223.2344 Q642.7563,223.2344 641.4281,221.5938 Q640.1156,219.9375 640.1156,216.8125 Q640.1156,213.6875 641.4281,212.0313 Q642.7563,210.375 645.2563,210.375 Q645.9594,210.375 646.6,210.5313 Q647.2563,210.6875 647.8188,210.9844 L647.8188,213.7031 Q647.1938,213.125 646.6,212.8594 Q646.0063,212.5781 645.3813,212.5781 Q644.0375,212.5781 643.35,213.6563 Q642.6625,214.7188 642.6625,216.8125 Q642.6625,218.9063 643.35,219.9844 Q644.0375,221.0469 645.3813,221.0469 Q646.0063,221.0469 646.6,220.7813 Q647.1938,220.5 647.8188,219.9219 L647.8188,222.6406 Z " fill="#000000"/><text fill="#000000" font-family="sans-serif" font-size="14" lengthAdjust="spacing" textLength="188" x="660.15" y="221.8467">InstanceEnumerationAxiom</text><line style="stroke:#000000;stroke-width:0.5;" x1="625" x2="856" y1="233" y2="233"/><text fill="#000000" font-family="sans-serif" font-size="14" lengthAdjust="spacing" textLength="219" x="630" y="249.9951">instances : ConceptInstance [*]</text><text fill="#000000" font-family="sans-serif" font-size="14" lengthAdjust="spacing" textLength="221" x="630" y="266.292">owningConcept : Concept [0..1]</text></g></a><!--MD5=[0a55d74c0dcca380b5c4c14816504637]
class KeyAxiom--><a href="#KeyAxiom" target="_top" title="#KeyAxiom" xlink:actuate="onRequest" xlink:href="#KeyAxiom" xlink:show="new" xlink:title="#KeyAxiom" xlink:type="simple"><g ><rect codeLine="22" fill="#FFFFFF" height="72.5938"  rx="2.5" ry="2.5" style="stroke:#000000;stroke-width:0.5;" width="191" x="892" y="201"/><ellipse cx="950.25" cy="217" fill="#ADD1B2" rx="11" ry="11" style="stroke:#181818;stroke-width:1.0;"/><path d="M953.2188,222.6406 Q952.6406,222.9375 952,223.0781 Q951.3594,223.2344 950.6563,223.2344 Q948.1563,223.2344 946.8281,221.5938 Q945.5156,219.9375 945.5156,216.8125 Q945.5156,213.6875 946.8281,212.0313 Q948.1563,210.375 950.6563,210.375 Q951.3594,210.375 952,210.5313 Q952.6563,210.6875 953.2188,210.9844 L953.2188,213.7031 Q952.5938,213.125 952,212.8594 Q951.4063,212.5781 950.7813,212.5781 Q949.4375,212.5781 948.75,213.6563 Q948.0625,214.7188 948.0625,216.8125 Q948.0625,218.9063 948.75,219.9844 Q949.4375,221.0469 950.7813,221.0469 Q951.4063,221.0469 952,220.7813 Q952.5938,220.5 953.2188,219.9219 L953.2188,222.6406 Z " fill="#000000"/><text fill="#000000" font-family="sans-serif" font-size="14" lengthAdjust="spacing" textLength="66" x="970.75" y="221.8467">KeyAxiom</text><line style="stroke:#000000;stroke-width:0.5;" x1="893" x2="1082" y1="233" y2="233"/><text fill="#000000" font-family="sans-serif" font-size="14" lengthAdjust="spacing" textLength="163" x="898" y="249.9951">properties : Property [*]</text><text fill="#000000" font-family="sans-serif" font-size="14" lengthAdjust="spacing" textLength="179" x="898" y="266.292">owningEntity : Entity [0..1]</text></g></a><!--MD5=[057f9d7a88870fc2e31e05f3f4c4c4bc]
class LiteralEnumerationAxiom--><a href="#LiteralEnumerationAxiom" target="_top" title="#LiteralEnumerationAxiom" xlink:actuate="onRequest" xlink:href="#LiteralEnumerationAxiom" xlink:show="new" xlink:title="#LiteralEnumerationAxiom" xlink:type="simple"><g ><rect codeLine="27" fill="#FFFFFF" height="56.2969"  rx="2.5" ry="2.5" style="stroke:#000000;stroke-width:0.5;" width="201" x="1067" y="304"/><ellipse cx="1082" cy="320" fill="#ADD1B2" rx="11" ry="11" style="stroke:#181818;stroke-width:1.0;"/><path d="M1084.9688,325.6406 Q1084.3906,325.9375 1083.75,326.0781 Q1083.1094,326.2344 1082.4063,326.2344 Q1079.9063,326.2344 1078.5781,324.5938 Q1077.2656,322.9375 1077.2656,319.8125 Q1077.2656,316.6875 1078.5781,315.0313 Q1079.9063,313.375 1082.4063,313.375 Q1083.1094,313.375 1083.75,313.5313 Q1084.4063,313.6875 1084.9688,313.9844 L1084.9688,316.7031 Q1084.3438,316.125 1083.75,315.8594 Q1083.1563,315.5781 1082.5313,315.5781 Q1081.1875,315.5781 1080.5,316.6563 Q1079.8125,317.7188 1079.8125,319.8125 Q1079.8125,321.9063 1080.5,322.9844 Q1081.1875,324.0469 1082.5313,324.0469 Q1083.1563,324.0469 1083.75,323.7813 Q1084.3438,323.5 1084.9688,322.9219 L1084.9688,325.6406 Z " fill="#000000"/><text fill="#000000" font-family="sans-serif" font-size="14" lengthAdjust="spacing" textLength="169" x="1096" y="324.8467">LiteralEnumerationAxiom</text><line style="stroke:#000000;stroke-width:0.5;" x1="1068" x2="1267" y1="336" y2="336"/><text fill="#000000" font-family="sans-serif" font-size="14" lengthAdjust="spacing" textLength="185" x="1073" y="352.9951">owningScalar : Scalar [0..1]</text></g></a><!--MD5=[27bfdb9e128171e0e365013b6b91e809]
class Literal--><a href="#Literal" target="_top" title="#Literal" xlink:actuate="onRequest" xlink:href="#Literal" xlink:show="new" xlink:title="#Literal" xlink:type="simple"><g ><rect codeLine="84" fill="#D3D3D3" height="32"  rx="2.5" ry="2.5" style="stroke:#000000;stroke-width:0.5;" width="72" x="1311.5" y="787"/><ellipse cx="1326.5" cy="803" fill="#A9DCDF" rx="11" ry="11" style="stroke:#181818;stroke-width:1.0;"/><path d="M1326.6094,798.3438 L1325.4531,803.4219 L1327.7813,803.4219 L1326.6094,798.3438 Z M1325.125,796.1094 L1328.1094,796.1094 L1331.4688,808.5 L1329.0156,808.5 L1328.25,805.4375 L1324.9688,805.4375 L1324.2188,808.5 L1321.7813,808.5 L1325.125,796.1094 Z " fill="#000000"/><text fill="#000000" font-family="sans-serif" font-size="14" font-style="italic" lengthAdjust="spacing" textLength="40" x="1340.5" y="807.8467">Literal</text></g></a><!--MD5=[d817457a9d1713272c72227650144688]
class PropertyCardinalityRestrictionAxiom--><a href="#PropertyCardinalityRestrictionAxiom" target="_top" title="#PropertyCardinalityRestrictionAxiom" xlink:actuate="onRequest" xlink:href="#PropertyCardinalityRestrictionAxiom" xlink:show="new" xlink:title="#PropertyCardinalityRestrictionAxiom" xlink:type="simple"><g ><rect codeLine="34" fill="#FFFFFF" height="88.8906"  rx="2.5" ry="2.5" style="stroke:#000000;stroke-width:0.5;" width="275" x="7" y="588.5"/><ellipse cx="22" cy="604.5" fill="#ADD1B2" rx="11" ry="11" style="stroke:#181818;stroke-width:1.0;"/><path d="M24.9688,610.1406 Q24.3906,610.4375 23.75,610.5781 Q23.1094,610.7344 22.4063,610.7344 Q19.9063,610.7344 18.5781,609.0938 Q17.2656,607.4375 17.2656,604.3125 Q17.2656,601.1875 18.5781,599.5313 Q19.9063,597.875 22.4063,597.875 Q23.1094,597.875 23.75,598.0313 Q24.4063,598.1875 24.9688,598.4844 L24.9688,601.2031 Q24.3438,600.625 23.75,600.3594 Q23.1563,600.0781 22.5313,600.0781 Q21.1875,600.0781 20.5,601.1563 Q19.8125,602.2188 19.8125,604.3125 Q19.8125,606.4063 20.5,607.4844 Q21.1875,608.5469 22.5313,608.5469 Q23.1563,608.5469 23.75,608.2813 Q24.3438,608 24.9688,607.4219 L24.9688,610.1406 Z " fill="#000000"/><text fill="#000000" font-family="sans-serif" font-size="14" lengthAdjust="spacing" textLength="243" x="36" y="609.3467">PropertyCardinalityRestrictionAxiom</text><line style="stroke:#000000;stroke-width:0.5;" x1="8" x2="281" y1="620.5" y2="620.5"/><text fill="#000000" font-family="sans-serif" font-size="14" lengthAdjust="spacing" textLength="216" x="13" y="637.4951">kind : CardinalityRestrictionKind</text><text fill="#000000" font-family="sans-serif" font-size="14" lengthAdjust="spacing" textLength="164" x="13" y="653.792">cardinality : UnsignedInt</text><text fill="#000000" font-family="sans-serif" font-size="14" lengthAdjust="spacing" textLength="127" x="13" y="670.0889">range : Type [0..1]</text></g></a><!--MD5=[3d3bd59ea0a44b396c2f2874e7c2babf]
class PropertyEquivalenceAxiom--><a href="#PropertyEquivalenceAxiom" target="_top" title="#PropertyEquivalenceAxiom" xlink:actuate="onRequest" xlink:href="#PropertyEquivalenceAxiom" xlink:show="new" xlink:title="#PropertyEquivalenceAxiom" xlink:type="simple"><g ><rect codeLine="40" fill="#FFFFFF" height="72.5938"  rx="2.5" ry="2.5" style="stroke:#000000;stroke-width:0.5;" width="320" x="1189.5" y="201"/><ellipse cx="1254.25" cy="217" fill="#ADD1B2" rx="11" ry="11" style="stroke:#181818;stroke-width:1.0;"/><path d="M1257.2188,222.6406 Q1256.6406,222.9375 1256,223.0781 Q1255.3594,223.2344 1254.6563,223.2344 Q1252.1563,223.2344 1250.8281,221.5938 Q1249.5156,219.9375 1249.5156,216.8125 Q1249.5156,213.6875 1250.8281,212.0313 Q1252.1563,210.375 1254.6563,210.375 Q1255.3594,210.375 1256,210.5313 Q1256.6563,210.6875 1257.2188,210.9844 L1257.2188,213.7031 Q1256.5938,213.125 1256,212.8594 Q1255.4063,212.5781 1254.7813,212.5781 Q1253.4375,212.5781 1252.75,213.6563 Q1252.0625,214.7188 1252.0625,216.8125 Q1252.0625,218.9063 1252.75,219.9844 Q1253.4375,221.0469 1254.7813,221.0469 Q1255.4063,221.0469 1256,220.7813 Q1256.5938,220.5 1257.2188,219.9219 L1257.2188,222.6406 Z " fill="#000000"/><text fill="#000000" font-family="sans-serif" font-size="14" lengthAdjust="spacing" textLength="182" x="1274.75" y="221.8467">PropertyEquivalenceAxiom</text><line style="stroke:#000000;stroke-width:0.5;" x1="1190.5" x2="1508.5" y1="233" y2="233"/><text fill="#000000" font-family="sans-serif" font-size="14" lengthAdjust="spacing" textLength="192" x="1195.5" y="249.9951">superProperty : Property [1]</text><text fill="#000000" font-family="sans-serif" font-size="14" lengthAdjust="spacing" textLength="308" x="1195.5" y="266.292">owningProperty : SpecializableProperty [0..1]</text></g></a><!--MD5=[ccdccacb705d7eb7eb8105ac89c1ca74]
class PropertyRangeRestrictionAxiom--><a href="#PropertyRangeRestrictionAxiom" target="_top" title="#PropertyRangeRestrictionAxiom" xlink:actuate="onRequest" xlink:href="#PropertyRangeRestrictionAxiom" xlink:show="new" xlink:title="#PropertyRangeRestrictionAxiom" xlink:type="simple"><g ><rect codeLine="45" fill="#FFFFFF" height="72.5938"  rx="2.5" ry="2.5" style="stroke:#000000;stroke-width:0.5;" width="250" x="317.5" y="596.5"/><ellipse cx="332.5" cy="612.5" fill="#ADD1B2" rx="11" ry="11" style="stroke:#181818;stroke-width:1.0;"/><path d="M335.4688,618.1406 Q334.8906,618.4375 334.25,618.5781 Q333.6094,618.7344 332.9063,618.7344 Q330.4063,618.7344 329.0781,617.0938 Q327.7656,615.4375 327.7656,612.3125 Q327.7656,609.1875 329.0781,607.5313 Q330.4063,605.875 332.9063,605.875 Q333.6094,605.875 334.25,606.0313 Q334.9063,606.1875 335.4688,606.4844 L335.4688,609.2031 Q334.8438,608.625 334.25,608.3594 Q333.6563,608.0781 333.0313,608.0781 Q331.6875,608.0781 331,609.1563 Q330.3125,610.2188 330.3125,612.3125 Q330.3125,614.4063 331,615.4844 Q331.6875,616.5469 333.0313,616.5469 Q333.6563,616.5469 334.25,616.2813 Q334.8438,616 335.4688,615.4219 L335.4688,618.1406 Z " fill="#000000"/><text fill="#000000" font-family="sans-serif" font-size="14" lengthAdjust="spacing" textLength="218" x="346.5" y="617.3467">PropertyRangeRestrictionAxiom</text><line style="stroke:#000000;stroke-width:0.5;" x1="318.5" x2="566.5" y1="628.5" y2="628.5"/><text fill="#000000" font-family="sans-serif" font-size="14" lengthAdjust="spacing" textLength="191" x="323.5" y="645.4951">kind : RangeRestrictionKind</text><text fill="#000000" font-family="sans-serif" font-size="14" lengthAdjust="spacing" textLength="110" x="323.5" y="661.792">range : Type [1]</text></g></a><!--MD5=[62585f66664c8ddc29fc71e2be9c5329]
class PropertySelfRestrictionAxiom--><a href="#PropertySelfRestrictionAxiom" target="_top" title="#PropertySelfRestrictionAxiom" xlink:actuate="onRequest" xlink:href="#PropertySelfRestrictionAxiom" xlink:show="new" xlink:title="#PropertySelfRestrictionAxiom" xlink:type="simple"><g ><rect codeLine="56" fill="#FFFFFF" height="40"  rx="2.5" ry="2.5" style="stroke:#000000;stroke-width:0.5;" width="230" x="602.5" y="613"/><ellipse cx="617.5" cy="629" fill="#ADD1B2" rx="11" ry="11" style="stroke:#181818;stroke-width:1.0;"/><path d="M620.4688,634.6406 Q619.8906,634.9375 619.25,635.0781 Q618.6094,635.2344 617.9063,635.2344 Q615.4063,635.2344 614.0781,633.5938 Q612.7656,631.9375 612.7656,628.8125 Q612.7656,625.6875 614.0781,624.0313 Q615.4063,622.375 617.9063,622.375 Q618.6094,622.375 619.25,622.5313 Q619.9063,622.6875 620.4688,622.9844 L620.4688,625.7031 Q619.8438,625.125 619.25,624.8594 Q618.6563,624.5781 618.0313,624.5781 Q616.6875,624.5781 616,625.6563 Q615.3125,626.7188 615.3125,628.8125 Q615.3125,630.9063 616,631.9844 Q616.6875,633.0469 618.0313,633.0469 Q618.6563,633.0469 619.25,632.7813 Q619.8438,632.5 620.4688,631.9219 L620.4688,634.6406 Z " fill="#000000"/><text fill="#000000" font-family="sans-serif" font-size="14" lengthAdjust="spacing" textLength="198" x="631.5" y="633.8467">PropertySelfRestrictionAxiom</text><line style="stroke:#000000;stroke-width:0.5;" x1="603.5" x2="831.5" y1="645" y2="645"/></g></a><!--MD5=[6971744da560ac96034acd2fabffa029]
class PropertyValueRestrictionAxiom--><a href="#PropertyValueRestrictionAxiom" target="_top" title="#PropertyValueRestrictionAxiom" xlink:actuate="onRequest" xlink:href="#PropertyValueRestrictionAxiom" xlink:show="new" xlink:title="#PropertyValueRestrictionAxiom" xlink:type="simple"><g ><rect codeLine="59" fill="#FFFFFF" height="56.2969"  rx="2.5" ry="2.5" style="stroke:#000000;stroke-width:0.5;" width="287" x="868" y="605"/><ellipse cx="902.8" cy="621" fill="#ADD1B2" rx="11" ry="11" style="stroke:#181818;stroke-width:1.0;"/><path d="M905.7688,626.6406 Q905.1906,626.9375 904.55,627.0781 Q903.9094,627.2344 903.2063,627.2344 Q900.7063,627.2344 899.3781,625.5938 Q898.0656,623.9375 898.0656,620.8125 Q898.0656,617.6875 899.3781,616.0313 Q900.7063,614.375 903.2063,614.375 Q903.9094,614.375 904.55,614.5313 Q905.2063,614.6875 905.7688,614.9844 L905.7688,617.7031 Q905.1438,617.125 904.55,616.8594 Q903.9563,616.5781 903.3313,616.5781 Q901.9875,616.5781 901.3,617.6563 Q900.6125,618.7188 900.6125,620.8125 Q900.6125,622.9063 901.3,623.9844 Q901.9875,625.0469 903.3313,625.0469 Q903.9563,625.0469 904.55,624.7813 Q905.1438,624.5 905.7688,623.9219 L905.7688,626.6406 Z " fill="#000000"/><text fill="#000000" font-family="sans-serif" font-size="14" lengthAdjust="spacing" textLength="211" x="921.2" y="625.8467">PropertyValueRestrictionAxiom</text><line style="stroke:#000000;stroke-width:0.5;" x1="869" x2="1154" y1="637" y2="637"/><text fill="#000000" font-family="sans-serif" font-size="14" lengthAdjust="spacing" textLength="275" x="874" y="653.9951">referencedValue : NamedInstance [0..1]</text></g></a><!--MD5=[0b2f13c70971adaa910dfa4227793f6d]
class StructureInstance--><a href="#StructureInstance" target="_top" title="#StructureInstance" xlink:actuate="onRequest" xlink:href="#StructureInstance" xlink:show="new" xlink:title="#StructureInstance" xlink:type="simple"><g ><rect codeLine="64" fill="#D3D3D3" height="32"  rx="2.5" ry="2.5" style="stroke:#000000;stroke-width:0.5;" width="155" x="915" y="787"/><ellipse cx="930" cy="803" fill="#ADD1B2" rx="11" ry="11" style="stroke:#181818;stroke-width:1.0;"/><path d="M932.9688,808.6406 Q932.3906,808.9375 931.75,809.0781 Q931.1094,809.2344 930.4063,809.2344 Q927.9063,809.2344 926.5781,807.5938 Q925.2656,805.9375 925.2656,802.8125 Q925.2656,799.6875 926.5781,798.0313 Q927.9063,796.375 930.4063,796.375 Q931.1094,796.375 931.75,796.5313 Q932.4063,796.6875 932.9688,796.9844 L932.9688,799.7031 Q932.3438,799.125 931.75,798.8594 Q931.1563,798.5781 930.5313,798.5781 Q929.1875,798.5781 928.5,799.6563 Q927.8125,800.7188 927.8125,802.8125 Q927.8125,804.9063 928.5,805.9844 Q929.1875,807.0469 930.5313,807.0469 Q931.1563,807.0469 931.75,806.7813 Q932.3438,806.5 932.9688,805.9219 L932.9688,808.6406 Z " fill="#000000"/><text fill="#000000" font-family="sans-serif" font-size="14" lengthAdjust="spacing" textLength="123" x="944" y="807.8467">StructureInstance</text></g></a><!--MD5=[4c14c02cf9649986ab1ef46b3e75319d]
class ScalarEquivalenceAxiom--><a href="#ScalarEquivalenceAxiom" target="_top" title="#ScalarEquivalenceAxiom" xlink:actuate="onRequest" xlink:href="#ScalarEquivalenceAxiom" xlink:show="new" xlink:title="#ScalarEquivalenceAxiom" xlink:type="simple"><g ><rect codeLine="69" fill="#FFFFFF" height="154.0781"  rx="2.5" ry="2.5" style="stroke:#000000;stroke-width:0.5;" width="216" x="1423.5" y="556"/><ellipse cx="1447.05" cy="572" fill="#ADD1B2" rx="11" ry="11" style="stroke:#181818;stroke-width:1.0;"/><path d="M1450.0188,577.6406 Q1449.4406,577.9375 1448.8,578.0781 Q1448.1594,578.2344 1447.4563,578.2344 Q1444.9563,578.2344 1443.6281,576.5938 Q1442.3156,574.9375 1442.3156,571.8125 Q1442.3156,568.6875 1443.6281,567.0313 Q1444.9563,565.375 1447.4563,565.375 Q1448.1594,565.375 1448.8,565.5313 Q1449.4563,565.6875 1450.0188,565.9844 L1450.0188,568.7031 Q1449.3938,568.125 1448.8,567.8594 Q1448.2063,567.5781 1447.5813,567.5781 Q1446.2375,567.5781 1445.55,568.6563 Q1444.8625,569.7188 1444.8625,571.8125 Q1444.8625,573.9063 1445.55,574.9844 Q1446.2375,576.0469 1447.5813,576.0469 Q1448.2063,576.0469 1448.8,575.7813 Q1449.3938,575.5 1450.0188,574.9219 L1450.0188,577.6406 Z " fill="#000000"/><text fill="#000000" font-family="sans-serif" font-size="14" lengthAdjust="spacing" textLength="165" x="1462.95" y="576.8467">ScalarEquivalenceAxiom</text><line style="stroke:#000000;stroke-width:0.5;" x1="1424.5" x2="1638.5" y1="588" y2="588"/><text fill="#000000" font-family="sans-serif" font-size="14" lengthAdjust="spacing" textLength="172" x="1429.5" y="604.9951">length : UnsignedInteger</text><text fill="#000000" font-family="sans-serif" font-size="14" lengthAdjust="spacing" textLength="201" x="1429.5" y="621.292">minLength : UnsignedInteger</text><text fill="#000000" font-family="sans-serif" font-size="14" lengthAdjust="spacing" textLength="204" x="1429.5" y="637.5889">maxLength : UnsignedInteger</text><text fill="#000000" font-family="sans-serif" font-size="14" lengthAdjust="spacing" textLength="103" x="1429.5" y="653.8857">pattern : String</text><text fill="#000000" font-family="sans-serif" font-size="14" lengthAdjust="spacing" textLength="117" x="1429.5" y="670.1826">language : String</text><text fill="#000000" font-family="sans-serif" font-size="14" lengthAdjust="spacing" textLength="158" x="1429.5" y="686.4795">superScalar : Scalar [1]</text><text fill="#000000" font-family="sans-serif" font-size="14" lengthAdjust="spacing" textLength="168" x="1429.5" y="702.7764">owningScalar : Scalar [1]</text></g></a><!--MD5=[49d093cbf59b0406cd053b3862e288a5]
class SpecializationAxiom--><a href="#SpecializationAxiom" target="_top" title="#SpecializationAxiom" xlink:actuate="onRequest" xlink:href="#SpecializationAxiom" xlink:show="new" xlink:title="#SpecializationAxiom" xlink:type="simple"><g ><rect codeLine="91" fill="#FFFFFF" height="72.5938"  rx="2.5" ry="2.5" style="stroke:#000000;stroke-width:0.5;" width="276" x="1615.5" y="201"/><ellipse cx="1681.75" cy="217" fill="#ADD1B2" rx="11" ry="11" style="stroke:#181818;stroke-width:1.0;"/><path d="M1684.7188,222.6406 Q1684.1406,222.9375 1683.5,223.0781 Q1682.8594,223.2344 1682.1563,223.2344 Q1679.6563,223.2344 1678.3281,221.5938 Q1677.0156,219.9375 1677.0156,216.8125 Q1677.0156,213.6875 1678.3281,212.0313 Q1679.6563,210.375 1682.1563,210.375 Q1682.8594,210.375 1683.5,210.5313 Q1684.1563,210.6875 1684.7188,210.9844 L1684.7188,213.7031 Q1684.0938,213.125 1683.5,212.8594 Q1682.9063,212.5781 1682.2813,212.5781 Q1680.9375,212.5781 1680.25,213.6563 Q1679.5625,214.7188 1679.5625,216.8125 Q1679.5625,218.9063 1680.25,219.9844 Q1680.9375,221.0469 1682.2813,221.0469 Q1682.9063,221.0469 1683.5,220.7813 Q1684.0938,220.5 1684.7188,219.9219 L1684.7188,222.6406 Z " fill="#000000"/><text fill="#000000" font-family="sans-serif" font-size="14" lengthAdjust="spacing" textLength="135" x="1702.25" y="221.8467">SpecializationAxiom</text><line style="stroke:#000000;stroke-width:0.5;" x1="1616.5" x2="1890.5" y1="233" y2="233"/><text fill="#000000" font-family="sans-serif" font-size="14" lengthAdjust="spacing" textLength="148" x="1621.5" y="249.9951">superTerm : Term [1]</text><text fill="#000000" font-family="sans-serif" font-size="14" lengthAdjust="spacing" textLength="264" x="1621.5" y="266.292">owningTerm : SpecializableTerm [0..1]</text></g></a><!--MD5=[60a40ed32fa69684f202dbeff1831f58]
reverse link Element to Axiom--><g ><a href="#Element" target="_top" title="#Element" xlink:actuate="onRequest" xlink:href="#Element" xlink:show="new" xlink:title="#Element" xlink:type="simple"><path codeLine="10" d="M1061.5,59.472 C1061.5,73.156 1061.5,88.266 1061.5,99.838 " fill="none"  style="stroke:#000000;stroke-width:1.0;"/><polygon fill="none" points="1054.5,59.263,1061.5,39.263,1068.5,59.263,1054.5,59.263" style="stroke:#000000;stroke-width:1.0;"/></a></g><!--MD5=[11797dd9387cc50d26347965bde334fc]
reverse link Axiom to ClassifierEquivalenceAxiom--><g ><a href="#Axiom" target="_top" title="#Axiom" xlink:actuate="onRequest" xlink:href="#Axiom" xlink:show="new" xlink:title="#Axiom" xlink:type="simple"><path codeLine="15" d="M1004.893,129.437 C918.555,142.646 748.966,169.935 606.5,201 C600.778,202.248 594.933,203.573 589.04,204.952 " fill="none"  style="stroke:#000000;stroke-width:1.0;"/><polygon fill="none" points="1003.912,122.506,1024.74,126.425,1006.013,136.347,1003.912,122.506" style="stroke:#000000;stroke-width:1.0;"/></a></g><!--MD5=[bfca1a3baa4b378a49264b6f66f2e03f]
link ClassifierEquivalenceAxiom to PropertyRestrictionAxiom--><g ><path codeLine="16" d="M466.0965,286.2152 C466.0965,286.2152 460.342,348.547 457.733,376.81 " fill="none"  style="stroke:#000000;stroke-width:1.0;"/><polygon fill="#000000" points="456.537,389.769,461.3479,381.1751,456.9969,384.7902,453.3818,380.4392,456.537,389.769" style="stroke:#000000;stroke-width:1.0;"/><line style="stroke:#000000;stroke-width:1.0;" x1="456.9969" x2="457.7315" y1="384.7902" y2="376.8235"/><polygon fill="#000000" points="467.199,274.266,462.6647,279.8731,466.0965,286.2152,470.6308,280.6081,467.199,274.266" style="stroke:#000000;stroke-width:1.0;"/><text fill="#000000" font-family="sans-serif" font-size="13" lengthAdjust="spacing" textLength="169" x="465.5" y="336.5669">ownedPropertyRestrictions</text><text fill="#000000" font-family="sans-serif" font-size="13" lengthAdjust="spacing" textLength="7" x="449.6192" y="378.8566">*</text></g><!--MD5=[f5c8843dc1394acb79f1bf597197709c]
reverse link Axiom to InstanceEnumerationAxiom--><g ><a href="#Axiom" target="_top" title="#Axiom" xlink:actuate="onRequest" xlink:href="#Axiom" xlink:show="new" xlink:title="#Axiom" xlink:type="simple"><path codeLine="21" d="M1006.097,140.935 C960.293,157.415 894.111,181.229 839.272,200.961 " fill="none"  style="stroke:#000000;stroke-width:1.0;"/><polygon fill="none" points="1003.801,134.322,1024.99,134.137,1008.54,147.495,1003.801,134.322" style="stroke:#000000;stroke-width:1.0;"/></a></g><!--MD5=[eb361380e1040471db2e2ab61001b1b4]
reverse link Axiom to KeyAxiom--><g ><a href="#Axiom" target="_top" title="#Axiom" xlink:actuate="onRequest" xlink:href="#Axiom" xlink:show="new" xlink:title="#Axiom" xlink:type="simple"><path codeLine="26" d="M1038.21,157.347 C1029.37,171.141 1019.32,186.834 1010.51,200.588 " fill="none"  style="stroke:#000000;stroke-width:1.0;"/><polygon fill="none" points="1032.6,153.136,1049.28,140.072,1044.39,160.689,1032.6,153.136" style="stroke:#000000;stroke-width:1.0;"/></a></g><!--MD5=[a9e1e0e2f42d938c2be6a331bdaf587b]
reverse link Axiom to LiteralEnumerationAxiom--><g ><a href="#Axiom" target="_top" title="#Axiom" xlink:actuate="onRequest" xlink:href="#Axiom" xlink:show="new" xlink:title="#Axiom" xlink:type="simple"><path codeLine="32" d="M1080.16,157.958 C1101.2,199.645 1134.93,266.465 1153.72,303.696 " fill="none"  style="stroke:#000000;stroke-width:1.0;"/><polygon fill="none" points="1073.86,161.015,1071.09,140.006,1086.36,154.707,1073.86,161.015" style="stroke:#000000;stroke-width:1.0;"/></a></g><!--MD5=[3dc80dd7426a3486e3e566afdb166295]
link LiteralEnumerationAxiom to Literal--><g ><path codeLine="33" d="M1167.7055,372.0108 C1167.7055,372.0108 1185.66,637.709 1273.5,757 C1280.43,766.4129 1289.98,774.2587 1299.91,780.6212 " fill="none"  style="stroke:#000000;stroke-width:1.0;"/><polygon fill="#000000" points="1311.17,787.1788,1305.406,779.1928,1306.8494,784.6624,1301.3798,786.1058,1311.17,787.1788" style="stroke:#000000;stroke-width:1.0;"/><line style="stroke:#000000;stroke-width:1.0;" x1="1306.8494" x2="1299.94" y1="784.6624" y2="780.6368"/><polygon fill="#000000" points="1167.43,360.014,1163.5688,366.1043,1167.7055,372.0108,1171.5667,365.9206,1167.43,360.014" style="stroke:#000000;stroke-width:1.0;"/><text fill="#000000" font-family="sans-serif" font-size="13" lengthAdjust="spacing" textLength="42" x="1185.5" y="522.0669">literals</text><text fill="#000000" font-family="sans-serif" font-size="13" lengthAdjust="spacing" textLength="7" x="1296.5774" y="779.8127">*</text></g><!--MD5=[304d9960a207f43507984fde9eb4a07a]
reverse link PropertyRestrictionAxiom to PropertyCardinalityRestrictionAxiom--><g ><a href="#PropertyRestrictionAxiom" target="_top" title="#PropertyRestrictionAxiom" xlink:actuate="onRequest" xlink:href="#PropertyRestrictionAxiom" xlink:show="new" xlink:title="#PropertyRestrictionAxiom" xlink:type="simple"><path codeLine="39" d="M367.135,489.962 C318.517,520.979 258.425,559.318 212.93,588.343 " fill="none"  style="stroke:#000000;stroke-width:1.0;"/><polygon fill="none" points="363.519,483.965,384.145,479.11,371.049,495.768,363.519,483.965" style="stroke:#000000;stroke-width:1.0;"/></a></g><!--MD5=[c258636d6cf927f5c7dc1c3a08ae1a69]
reverse link Axiom to PropertyEquivalenceAxiom--><g ><a href="#Axiom" target="_top" title="#Axiom" xlink:actuate="onRequest" xlink:href="#Axiom" xlink:show="new" xlink:title="#Axiom" xlink:type="simple"><path codeLine="44" d="M1116.9,143.219 C1157.61,159.544 1213.77,182.066 1260.7,200.889 " fill="none"  style="stroke:#000000;stroke-width:1.0;"/><polygon fill="none" points="1114.23,149.687,1098.27,135.745,1119.44,136.693,1114.23,149.687" style="stroke:#000000;stroke-width:1.0;"/></a></g><!--MD5=[fd1dbe85a6665e28abff481311c2efe1]
reverse link PropertyRestrictionAxiom to PropertyRangeRestrictionAxiom--><g ><a href="#PropertyRestrictionAxiom" target="_top" title="#PropertyRestrictionAxiom" xlink:actuate="onRequest" xlink:href="#PropertyRestrictionAxiom" xlink:show="new" xlink:title="#PropertyRestrictionAxiom" xlink:type="simple"><path codeLine="49" d="M449.254,499.288 C447.615,531.496 445.688,569.363 444.312,596.387 " fill="none"  style="stroke:#000000;stroke-width:1.0;"/><polygon fill="none" points="442.273,498.728,450.281,479.11,456.255,499.44,442.273,498.728" style="stroke:#000000;stroke-width:1.0;"/></a></g><!--MD5=[c2d6bbbeb47b40fd345ead60b09f5f57]
reverse link Axiom to PropertyRestrictionAxiom--><g ><a href="#Axiom" target="_top" title="#Axiom" xlink:actuate="onRequest" xlink:href="#Axiom" xlink:show="new" xlink:title="#Axiom" xlink:type="simple"><path codeLine="55" d="M1004.545,122.984 C841.045,129.26 379.05,151.278 334.5,201 C283.904,257.469 350.034,339.577 401.803,389.599 " fill="none"  style="stroke:#000000;stroke-width:1.0;"/><polygon fill="none" points="1004.45,115.983,1024.7,122.233,1004.972,129.973,1004.45,115.983" style="stroke:#000000;stroke-width:1.0;"/></a></g><!--MD5=[3e7bf632a918a7dad8a96d095c5b1b7f]
reverse link PropertyRestrictionAxiom to PropertySelfRestrictionAxiom--><g ><a href="#PropertyRestrictionAxiom" target="_top" title="#PropertyRestrictionAxiom" xlink:actuate="onRequest" xlink:href="#PropertyRestrictionAxiom" xlink:show="new" xlink:title="#PropertyRestrictionAxiom" xlink:type="simple"><path codeLine="58" d="M527.458,491.082 C582.541,531.926 654.09,584.981 691.737,612.896 " fill="none"  style="stroke:#000000;stroke-width:1.0;"/><polygon fill="none" points="523.208,496.645,511.312,479.11,531.547,485.399,523.208,496.645" style="stroke:#000000;stroke-width:1.0;"/></a></g><!--MD5=[9b0c3aec31c25eeb262c16b44bbdd98d]
reverse link PropertyRestrictionAxiom to PropertyValueRestrictionAxiom--><g ><a href="#PropertyRestrictionAxiom" target="_top" title="#PropertyRestrictionAxiom" xlink:actuate="onRequest" xlink:href="#PropertyRestrictionAxiom" xlink:show="new" xlink:title="#PropertyRestrictionAxiom" xlink:type="simple"><path codeLine="66" d="M634.517,484.769 C702.69,504.778 780.35,529.444 849.5,556 C886.766,570.312 927.438,589.405 958.706,604.873 " fill="none"  style="stroke:#000000;stroke-width:1.0;"/><polygon fill="none" points="632.338,491.425,615.09,479.117,636.249,477.982,632.338,491.425" style="stroke:#000000;stroke-width:1.0;"/></a></g><!--MD5=[97e4875f2d4c649a8796b95087d4eb07]
link PropertyValueRestrictionAxiom to Literal--><g ><path codeLine="67" d="M1037.2546,670.708 C1037.2546,670.708 1092.81,736.2554 1130.5,757 C1183.15,785.9833 1252.35,796.3508 1298.29,800.0296 " fill="none"  style="stroke:#000000;stroke-width:1.0;"/><polygon fill="#000000" points="1311.47,800.9524,1302.7736,796.3294,1306.4824,800.6008,1302.211,804.3096,1311.47,800.9524" style="stroke:#000000;stroke-width:1.0;"/><line style="stroke:#000000;stroke-width:1.0;" x1="1306.4824" x2="1298.5" y1="800.6008" y2="800.0441"/><polygon fill="#000000" points="1030.02,661.134,1030.446,668.3325,1037.2546,670.708,1036.8286,663.5095,1030.02,661.134" style="stroke:#000000;stroke-width:1.0;"/><text fill="#000000" font-family="sans-serif" font-size="13" lengthAdjust="spacing" textLength="71" x="1131.5" y="753.0669">literalValue</text><text fill="#000000" font-family="sans-serif" font-size="13" lengthAdjust="spacing" textLength="24" x="1279.515" y="813.9333">0..1</text></g><!--MD5=[c1e47a51e5355b53fc058c2b29002372]
link PropertyValueRestrictionAxiom to StructureInstance--><g ><path codeLine="68" d="M1001.4495,672.8819 C1001.4495,672.8819 991.762,717.973 989.5,740 C988.728,747.516 989.249,749.4486 989.5,757 C989.674,762.2382 989.963,767.8137 990.293,773.192 " fill="none"  style="stroke:#000000;stroke-width:1.0;"/><polygon fill="#000000" points="991.219,786.6007,994.5898,777.3466,990.8747,781.6126,986.6088,777.8975,991.219,786.6007" style="stroke:#000000;stroke-width:1.0;"/><line style="stroke:#000000;stroke-width:1.0;" x1="990.8747" x2="990.3235" y1="781.6126" y2="773.6316"/><polygon fill="#000000" points="1004.249,661.213,998.9596,666.1143,1001.4495,672.8819,1006.7389,667.9806,1004.249,661.213" style="stroke:#000000;stroke-width:1.0;"/><text fill="#000000" font-family="sans-serif" font-size="13" lengthAdjust="spacing" textLength="99" x="990.5" y="753.0669">containedValue</text><text fill="#000000" font-family="sans-serif" font-size="13" lengthAdjust="spacing" textLength="24" x="962.9857" y="776.0709">0..1</text></g><!--MD5=[81fa3b63767af6aa4510e0c4f78ec48e]
reverse link Axiom to ScalarEquivalenceAxiom--><g ><a href="#Axiom" target="_top" title="#Axiom" xlink:actuate="onRequest" xlink:href="#Axiom" xlink:show="new" xlink:title="#Axiom" xlink:type="simple"><path codeLine="86" d="M1118.54,122.086 C1230.91,125.554 1474.57,140.088 1526.5,201 C1610.25,299.227 1583.4,460.771 1556.98,555.703 " fill="none"  style="stroke:#000000;stroke-width:1.0;"/><polygon fill="none" points="1118.03,129.075,1098.22,121.537,1118.4,115.08,1118.03,129.075" style="stroke:#000000;stroke-width:1.0;"/></a></g><!--MD5=[d7a8db7388e8f702f547af9cdb7e9165]
link ScalarEquivalenceAxiom to Literal--><g ><path codeLine="87" d="M1411.9921,655.57 C1411.9921,655.57 1312.96,696.811 1284.5,740 C1274.76,754.7833 1286.59,768.8346 1302.54,779.811 " fill="none"  style="stroke:#000000;stroke-width:1.0;"/><polygon fill="#000000" points="1314.01,786.8899,1308.4518,778.7593,1309.755,784.264,1304.2504,785.5673,1314.01,786.8899" style="stroke:#000000;stroke-width:1.0;"/><line style="stroke:#000000;stroke-width:1.0;" x1="1309.755" x2="1302.95" y1="784.264" y2="780.0661"/><polygon fill="#000000" points="1423.48,652.102,1416.58,650.0067,1411.9921,655.57,1418.892,657.6653,1423.48,652.102" style="stroke:#000000;stroke-width:1.0;"/><text fill="#000000" font-family="sans-serif" font-size="13" lengthAdjust="spacing" textLength="78" x="1285.5" y="753.0669">minInclusive</text><text fill="#000000" font-family="sans-serif" font-size="13" lengthAdjust="spacing" textLength="24" x="1306.6228" y="775.8636">0..1</text></g><!--MD5=[d7a8db7388e8f702f547af9cdb7e9165]
link ScalarEquivalenceAxiom to Literal--><g ><path codeLine="88" d="M1428.3214,718.1295 C1428.3214,718.1295 1411.81,733.0336 1404.5,740 C1392.26,751.6632 1379.46,765.4366 1369.09,777.0357 " fill="none"  style="stroke:#000000;stroke-width:1.0;"/><polygon fill="#000000" points="1360.34,786.9537,1369.2919,782.8472,1363.6462,783.2029,1363.2905,777.5572,1360.34,786.9537" style="stroke:#000000;stroke-width:1.0;"/><line style="stroke:#000000;stroke-width:1.0;" x1="1363.6462" x2="1368.935" y1="783.2029" y2="777.2054"/><polygon fill="#000000" points="1437.33,710.202,1430.1832,711.1629,1428.3214,718.1295,1435.4682,717.1686,1437.33,710.202" style="stroke:#000000;stroke-width:1.0;"/><text fill="#000000" font-family="sans-serif" font-size="13" lengthAdjust="spacing" textLength="82" x="1405.5" y="753.0669">minExclusive</text><text fill="#000000" font-family="sans-serif" font-size="13" lengthAdjust="spacing" textLength="24" x="1368.8787" y="775.9494">0..1</text></g><!--MD5=[d7a8db7388e8f702f547af9cdb7e9165]
link ScalarEquivalenceAxiom to Literal--><g ><path codeLine="89" d="M1515.4065,721.4512 C1515.4065,721.4512 1502.19,747.3663 1492.5,757 C1467.18,782.1686 1428.06,793.3013 1396.83,798.2051 " fill="none"  style="stroke:#000000;stroke-width:1.0;"/><polygon fill="#000000" points="1383.55,799.9982,1393.005,802.7555,1388.5049,799.3279,1391.9325,794.8277,1383.55,799.9982" style="stroke:#000000;stroke-width:1.0;"/><line style="stroke:#000000;stroke-width:1.0;" x1="1388.5049" x2="1396.44" y1="799.3279" y2="798.258"/><polygon fill="#000000" points="1519.68,710.238,1513.8055,714.4201,1515.4065,721.4512,1521.281,717.2691,1519.68,710.238" style="stroke:#000000;stroke-width:1.0;"/><text fill="#000000" font-family="sans-serif" font-size="13" lengthAdjust="spacing" textLength="82" x="1506.5" y="753.0669">maxInclusive</text><text fill="#000000" font-family="sans-serif" font-size="13" lengthAdjust="spacing" textLength="24" x="1391.5083" y="795.3367">0..1</text></g><!--MD5=[d7a8db7388e8f702f547af9cdb7e9165]
link ScalarEquivalenceAxiom to Literal--><g ><path codeLine="90" d="M1604.9549,721.6675 C1604.9549,721.6675 1606.21,746.5819 1597.5,757 C1572.48,786.9282 1462.64,796.9824 1397.17,800.3383 " fill="none"  style="stroke:#000000;stroke-width:1.0;"/><polygon fill="#000000" points="1383.92,800.9574,1393.099,804.5277,1388.9144,800.7211,1392.7209,796.5366,1383.92,800.9574" style="stroke:#000000;stroke-width:1.0;"/><line style="stroke:#000000;stroke-width:1.0;" x1="1388.9144" x2="1396.905" y1="800.7211" y2="800.3506"/><polygon fill="#000000" points="1601.17,710.28,1599.2666,717.2354,1604.9549,721.6675,1606.8583,714.7121,1601.17,710.28" style="stroke:#000000;stroke-width:1.0;"/><text fill="#000000" font-family="sans-serif" font-size="13" lengthAdjust="spacing" textLength="86" x="1606.5" y="753.0669">maxExclusive</text><text fill="#000000" font-family="sans-serif" font-size="13" lengthAdjust="spacing" textLength="24" x="1391.6369" y="813.9047">0..1</text></g><!--MD5=[6200944b45b450c6ffd88b96877326e9]
reverse link Axiom to SpecializationAxiom--><g ><a href="#Axiom" target="_top" title="#Axiom" xlink:actuate="onRequest" xlink:href="#Axiom" xlink:show="new" xlink:title="#Axiom" xlink:type="simple"><path codeLine="95" d="M1118.44,120.925 C1216.05,121.98 1421.01,129.382 1588.5,170 C1618.82,177.352 1650.89,189.253 1678.62,200.971 " fill="none"  style="stroke:#000000;stroke-width:1.0;"/><polygon fill="none" points="1118.15,127.923,1098.2,120.783,1118.25,113.923,1118.15,127.923" style="stroke:#000000;stroke-width:1.0;"/></a></g><!--MD5=[535e7cda4c2716dbbc536b78737df686]
@startuml
skinparam classBackgroundColor LightGray
skinparam classBorderColor Black
skinparam enumBorderColor Black
skinparam ArrowColor Black
hide methods
abstract class Axiom [[#Axiom]] #white {
}
abstract class Element [[#Element]]
hide Element members
Axiom -up-|> Element [[#Element]]
class ClassifierEquivalenceAxiom [[#ClassifierEquivalenceAxiom]] #white {
	superClassifiers : Classifier [*]
	owningClassifier : Classifier [0..1]
}
ClassifierEquivalenceAxiom -up-|> Axiom [[#Axiom]]
ClassifierEquivalenceAxiom *- -> "*" PropertyRestrictionAxiom : ownedPropertyRestrictions
class InstanceEnumerationAxiom [[#InstanceEnumerationAxiom]] #white {
	instances : ConceptInstance [*]
	owningConcept : Concept [0..1]
}
InstanceEnumerationAxiom -up-|> Axiom [[#Axiom]]
class KeyAxiom [[#KeyAxiom]] #white {
	properties : Property [*]
	owningEntity : Entity [0..1]
}
KeyAxiom -up-|> Axiom [[#Axiom]]
class LiteralEnumerationAxiom [[#LiteralEnumerationAxiom]] #white {
	owningScalar : Scalar [0..1]
}
abstract class Literal [[#Literal]]
hide Literal members
LiteralEnumerationAxiom -up-|> Axiom [[#Axiom]]
LiteralEnumerationAxiom *- -> "*" Literal : literals
class PropertyCardinalityRestrictionAxiom [[#PropertyCardinalityRestrictionAxiom]] #white {
	kind : CardinalityRestrictionKind
	cardinality : UnsignedInt
	range : Type [0..1]
}
PropertyCardinalityRestrictionAxiom -up-|> PropertyRestrictionAxiom [[#PropertyRestrictionAxiom]]
class PropertyEquivalenceAxiom [[#PropertyEquivalenceAxiom]] #white {
	superProperty : Property [1]
	owningProperty : SpecializableProperty [0..1]
}
PropertyEquivalenceAxiom -up-|> Axiom [[#Axiom]]
class PropertyRangeRestrictionAxiom [[#PropertyRangeRestrictionAxiom]] #white {
	kind : RangeRestrictionKind
	range : Type [1]
}
PropertyRangeRestrictionAxiom -up-|> PropertyRestrictionAxiom [[#PropertyRestrictionAxiom]]
abstract class PropertyRestrictionAxiom [[#PropertyRestrictionAxiom]] #white {
	property : SemanticProperty [1]
	owningClassifier : Classifier [0..1]
	owningAxiom : ClassifierEquivalenceAxiom [0..1]
}
PropertyRestrictionAxiom -up-|> Axiom [[#Axiom]]
class PropertySelfRestrictionAxiom [[#PropertySelfRestrictionAxiom]] #white {
}
PropertySelfRestrictionAxiom -up-|> PropertyRestrictionAxiom [[#PropertyRestrictionAxiom]]
class PropertyValueRestrictionAxiom [[#PropertyValueRestrictionAxiom]] #white {
	referencedValue : NamedInstance [0..1]
}
abstract class Literal [[#Literal]]
hide Literal members
class StructureInstance [[#StructureInstance]]
hide StructureInstance members
PropertyValueRestrictionAxiom -up-|> PropertyRestrictionAxiom [[#PropertyRestrictionAxiom]]
PropertyValueRestrictionAxiom *- -> "0..1" Literal : literalValue
PropertyValueRestrictionAxiom *- -> "0..1" StructureInstance : containedValue
class ScalarEquivalenceAxiom [[#ScalarEquivalenceAxiom]] #white {
	length : UnsignedInteger
	minLength : UnsignedInteger
	maxLength : UnsignedInteger
	pattern : String
	language : String
	superScalar : Scalar [1]
	owningScalar : Scalar [1]
}
abstract class Literal [[#Literal]]
hide Literal members
abstract class Literal [[#Literal]]
hide Literal members
abstract class Literal [[#Literal]]
hide Literal members
abstract class Literal [[#Literal]]
hide Literal members
ScalarEquivalenceAxiom -up-|> Axiom [[#Axiom]]
ScalarEquivalenceAxiom *- -> "0..1" Literal : minInclusive
ScalarEquivalenceAxiom *- -> "0..1" Literal : minExclusive
ScalarEquivalenceAxiom *- -> "0..1" Literal : maxInclusive
ScalarEquivalenceAxiom *- -> "0..1" Literal : maxExclusive
class SpecializationAxiom [[#SpecializationAxiom]] #white {
	superTerm : Term [1]
	owningTerm : SpecializableTerm [0..1]
}
SpecializationAxiom -up-|> Axiom [[#Axiom]]
@enduml

PlantUML version 1.2022.12(Sun Oct 23 18:12:26 UTC 2022)
(GPL source distribution)
Java Runtime: OpenJDK Runtime Environment
JVM: OpenJDK 64-Bit Server VM
Default Encoding: UTF-8
Language: en
Country: US
--></g></svg>
