<?xml version="1.0" encoding="UTF-8" standalone="no"?><svg xmlns="http://www.w3.org/2000/svg" xmlns:xlink="http://www.w3.org/1999/xlink" contentScriptType="application/ecmascript" contentStyleType="text/css" height="484px" preserveAspectRatio="none" style="width:1153px;height:484px;" version="1.1" viewBox="0 0 1153 484" width="1153px" zoomAndPan="magnify"><defs><filter height="300%" id="f1rrz0krgu3zpr" width="300%" x="-1" y="-1"><feGaussianBlur result="blurOut" stdDeviation="2.0"/><feColorMatrix in="blurOut" result="blurOut2" type="matrix" values="0 0 0 0 0 0 0 0 0 0 0 0 0 0 0 0 0 0 .4 0"/><feOffset dx="4.0" dy="4.0" in="blurOut2" result="blurOut3"/><feBlend in="SourceGraphic" in2="blurOut3" mode="normal"/></filter></defs><g><!--class Description--><a target="_top" xlink:actuate="onRequest" xlink:href="#Description" xlink:show="new" xlink:title="#Description" xlink:type="simple"><rect fill="#FFFFFF" filter="url(#f1rrz0krgu3zpr)" height="40"  style="stroke: #000000; stroke-width: 1.5;" width="103" x="724" y="202"/><rect fill="#FFFFFF" height="32" style="stroke: #000000; stroke-width: 1.5;" width="103" x="724" y="202"/><ellipse cx="739" cy="218" fill="#ADD1B2" rx="11" ry="11" style="stroke: #000000; stroke-width: 1.0;"/><path d="M741.9688,223.6406 Q741.3906,223.9375 740.75,224.0781 Q740.1094,224.2344 739.4063,224.2344 Q736.9063,224.2344 735.5781,222.5938 Q734.2656,220.9375 734.2656,217.8125 Q734.2656,214.6875 735.5781,213.0313 Q736.9063,211.375 739.4063,211.375 Q740.1094,211.375 740.75,211.5313 Q741.4063,211.6875 741.9688,211.9844 L741.9688,214.7031 Q741.3438,214.125 740.75,213.8594 Q740.1563,213.5781 739.5313,213.5781 Q738.1875,213.5781 737.5,214.6563 Q736.8125,215.7188 736.8125,217.8125 Q736.8125,219.9063 737.5,220.9844 Q738.1875,222.0469 739.5313,222.0469 Q740.1563,222.0469 740.75,221.7813 Q741.3438,221.5 741.9688,220.9219 L741.9688,223.6406 Z "/><text fill="#000000" font-family="sans-serif" font-size="12" lengthAdjust="spacingAndGlyphs" textLength="71" x="753" y="222.1543">Description</text><line style="stroke: #000000; stroke-width: 1.5;" x1="725" x2="826" y1="234" y2="234"/></a><!--class DescriptionBox--><a target="_top" xlink:actuate="onRequest" xlink:href="#DescriptionBox" xlink:show="new" xlink:title="#DescriptionBox" xlink:type="simple"><rect fill="#FFFFFF" filter="url(#f1rrz0krgu3zpr)" height="40"  style="stroke: #000000; stroke-width: 1.5;" width="125" x="509" y="101"/><rect fill="#FFFFFF" height="32" style="stroke: #000000; stroke-width: 1.5;" width="125" x="509" y="101"/><ellipse cx="524" cy="117" fill="#A9DCDF" rx="11" ry="11" style="stroke: #000000; stroke-width: 1.0;"/><path d="M524.1094,112.3438 L522.9531,117.4219 L525.2813,117.4219 L524.1094,112.3438 Z M522.625,110.1094 L525.6094,110.1094 L528.9688,122.5 L526.5156,122.5 L525.75,119.4375 L522.4688,119.4375 L521.7188,122.5 L519.2813,122.5 L522.625,110.1094 Z "/><text fill="#000000" font-family="sans-serif" font-size="12" font-style="italic" lengthAdjust="spacingAndGlyphs" textLength="93" x="538" y="121.1543">DescriptionBox</text><line style="stroke: #000000; stroke-width: 1.5;" x1="510" x2="633" y1="133" y2="133"/></a><!--class DescriptionImport--><a target="_top" xlink:actuate="onRequest" xlink:href="#DescriptionImport" xlink:show="new" xlink:title="#DescriptionImport" xlink:type="simple"><rect fill="#FFFFFF" filter="url(#f1rrz0krgu3zpr)" height="52.8047"  style="stroke: #000000; stroke-width: 1.5;" width="211" x="672" y="319"/><rect fill="#FFFFFF" height="32" style="stroke: #000000; stroke-width: 1.5;" width="211" x="672" y="319"/><ellipse cx="717.75" cy="335" fill="#A9DCDF" rx="11" ry="11" style="stroke: #000000; stroke-width: 1.0;"/><path d="M717.8594,330.3438 L716.7031,335.4219 L719.0313,335.4219 L717.8594,330.3438 Z M716.375,328.1094 L719.3594,328.1094 L722.7188,340.5 L720.2656,340.5 L719.5,337.4375 L716.2188,337.4375 L715.4688,340.5 L713.0313,340.5 L716.375,328.1094 Z "/><text fill="#000000" font-family="sans-serif" font-size="12" font-style="italic" lengthAdjust="spacingAndGlyphs" textLength="111" x="738.25" y="339.1543">DescriptionImport</text><line style="stroke: #000000; stroke-width: 1.5;" x1="673" x2="882" y1="351" y2="351"/><text fill="#000000" font-family="sans-serif" font-size="11" lengthAdjust="spacingAndGlyphs" textLength="199" x="678" y="365.2104">owningDescription : Description [1]</text></a><!--class DescriptionStatement--><a target="_top" xlink:actuate="onRequest" xlink:href="#DescriptionStatement" xlink:show="new" xlink:title="#DescriptionStatement" xlink:type="simple"><rect fill="#FFFFFF" filter="url(#f1rrz0krgu3zpr)" height="52.8047"  style="stroke: #000000; stroke-width: 1.5;" width="211" x="931" y="319"/><rect fill="#FFFFFF" height="32" style="stroke: #000000; stroke-width: 1.5;" width="211" x="931" y="319"/><ellipse cx="964.9" cy="335" fill="#A9DCDF" rx="11" ry="11" style="stroke: #000000; stroke-width: 1.0;"/><path d="M965.0094,330.3438 L963.8531,335.4219 L966.1813,335.4219 L965.0094,330.3438 Z M963.525,328.1094 L966.5094,328.1094 L969.8688,340.5 L967.4156,340.5 L966.65,337.4375 L963.3688,337.4375 L962.6188,340.5 L960.1813,340.5 L963.525,328.1094 Z "/><text fill="#000000" font-family="sans-serif" font-size="12" font-style="italic" lengthAdjust="spacingAndGlyphs" textLength="137" x="983.1" y="339.1543">DescriptionStatement</text><line style="stroke: #000000; stroke-width: 1.5;" x1="932" x2="1141" y1="351" y2="351"/><text fill="#000000" font-family="sans-serif" font-size="11" lengthAdjust="spacingAndGlyphs" textLength="199" x="937" y="365.2104">owningDescription : Description [1]</text></a><!--class Ontology--><a target="_top" xlink:actuate="onRequest" xlink:href="#Ontology" xlink:show="new" xlink:title="#Ontology" xlink:type="simple"><rect fill="#D3D3D3" filter="url(#f1rrz0krgu3zpr)" height="32"  style="stroke: #000000; stroke-width: 1.5;" width="87" x="528" y="8"/><ellipse cx="543" cy="24" fill="#A9DCDF" rx="11" ry="11" style="stroke: #000000; stroke-width: 1.0;"/><path d="M543.1094,19.3438 L541.9531,24.4219 L544.2813,24.4219 L543.1094,19.3438 Z M541.625,17.1094 L544.6094,17.1094 L547.9688,29.5 L545.5156,29.5 L544.75,26.4375 L541.4688,26.4375 L540.7188,29.5 L538.2813,29.5 L541.625,17.1094 Z "/><text fill="#000000" font-family="sans-serif" font-size="12" font-style="italic" lengthAdjust="spacingAndGlyphs" textLength="55" x="557" y="28.1543">Ontology</text></a><!--class DescriptionBundle--><a target="_top" xlink:actuate="onRequest" xlink:href="#DescriptionBundle" xlink:show="new" xlink:title="#DescriptionBundle" xlink:type="simple"><rect fill="#FFFFFF" filter="url(#f1rrz0krgu3zpr)" height="40"  style="stroke: #000000; stroke-width: 1.5;" width="146" x="422.5" y="202"/><rect fill="#FFFFFF" height="32" style="stroke: #000000; stroke-width: 1.5;" width="146" x="422.5" y="202"/><ellipse cx="437.5" cy="218" fill="#ADD1B2" rx="11" ry="11" style="stroke: #000000; stroke-width: 1.0;"/><path d="M440.4688,223.6406 Q439.8906,223.9375 439.25,224.0781 Q438.6094,224.2344 437.9063,224.2344 Q435.4063,224.2344 434.0781,222.5938 Q432.7656,220.9375 432.7656,217.8125 Q432.7656,214.6875 434.0781,213.0313 Q435.4063,211.375 437.9063,211.375 Q438.6094,211.375 439.25,211.5313 Q439.9063,211.6875 440.4688,211.9844 L440.4688,214.7031 Q439.8438,214.125 439.25,213.8594 Q438.6563,213.5781 438.0313,213.5781 Q436.6875,213.5781 436,214.6563 Q435.3125,215.7188 435.3125,217.8125 Q435.3125,219.9063 436,220.9844 Q436.6875,222.0469 438.0313,222.0469 Q438.6563,222.0469 439.25,221.7813 Q439.8438,221.5 440.4688,220.9219 L440.4688,223.6406 Z "/><text fill="#000000" font-family="sans-serif" font-size="12" lengthAdjust="spacingAndGlyphs" textLength="114" x="451.5" y="222.1543">DescriptionBundle</text><line style="stroke: #000000; stroke-width: 1.5;" x1="423.5" x2="567.5" y1="234" y2="234"/></a><!--class DescriptionBundleImport--><a target="_top" xlink:actuate="onRequest" xlink:href="#DescriptionBundleImport" xlink:show="new" xlink:title="#DescriptionBundleImport" xlink:type="simple"><rect fill="#FFFFFF" filter="url(#f1rrz0krgu3zpr)" height="52.8047"  style="stroke: #000000; stroke-width: 1.5;" width="289" x="348" y="319"/><rect fill="#FFFFFF" height="32" style="stroke: #000000; stroke-width: 1.5;" width="289" x="348" y="319"/><ellipse cx="411.25" cy="335" fill="#A9DCDF" rx="11" ry="11" style="stroke: #000000; stroke-width: 1.0;"/><path d="M411.3594,330.3438 L410.2031,335.4219 L412.5313,335.4219 L411.3594,330.3438 Z M409.875,328.1094 L412.8594,328.1094 L416.2188,340.5 L413.7656,340.5 L413,337.4375 L409.7188,337.4375 L408.9688,340.5 L406.5313,340.5 L409.875,328.1094 Z "/><text fill="#000000" font-family="sans-serif" font-size="12" font-style="italic" lengthAdjust="spacingAndGlyphs" textLength="154" x="431.75" y="339.1543">DescriptionBundleImport</text><line style="stroke: #000000; stroke-width: 1.5;" x1="349" x2="636" y1="351" y2="351"/><text fill="#000000" font-family="sans-serif" font-size="11" lengthAdjust="spacingAndGlyphs" textLength="277" x="354" y="365.2104">owningDescriptionBundle : DescriptionBundle [1]</text></a><!--class DescriptionBundleExtension--><a target="_top" xlink:actuate="onRequest" xlink:href="#DescriptionBundleExtension" xlink:show="new" xlink:title="#DescriptionBundleExtension" xlink:type="simple"><rect fill="#FFFFFF" filter="url(#f1rrz0krgu3zpr)" height="40"  style="stroke: #000000; stroke-width: 1.5;" width="207" x="6" y="433"/><rect fill="#FFFFFF" height="32" style="stroke: #000000; stroke-width: 1.5;" width="207" x="6" y="433"/><ellipse cx="21" cy="449" fill="#ADD1B2" rx="11" ry="11" style="stroke: #000000; stroke-width: 1.0;"/><path d="M23.9688,454.6406 Q23.3906,454.9375 22.75,455.0781 Q22.1094,455.2344 21.4063,455.2344 Q18.9063,455.2344 17.5781,453.5938 Q16.2656,451.9375 16.2656,448.8125 Q16.2656,445.6875 17.5781,444.0313 Q18.9063,442.375 21.4063,442.375 Q22.1094,442.375 22.75,442.5313 Q23.4063,442.6875 23.9688,442.9844 L23.9688,445.7031 Q23.3438,445.125 22.75,444.8594 Q22.1563,444.5781 21.5313,444.5781 Q20.1875,444.5781 19.5,445.6563 Q18.8125,446.7188 18.8125,448.8125 Q18.8125,450.9063 19.5,451.9844 Q20.1875,453.0469 21.5313,453.0469 Q22.1563,453.0469 22.75,452.7813 Q23.3438,452.5 23.9688,451.9219 L23.9688,454.6406 Z "/><text fill="#000000" font-family="sans-serif" font-size="12" lengthAdjust="spacingAndGlyphs" textLength="175" x="35" y="453.1543">DescriptionBundleExtension</text><line style="stroke: #000000; stroke-width: 1.5;" x1="7" x2="212" y1="465" y2="465"/></a><!--class Import--><a target="_top" xlink:actuate="onRequest" xlink:href="#Import" xlink:show="new" xlink:title="#Import" xlink:type="simple"><rect fill="#D3D3D3" filter="url(#f1rrz0krgu3zpr)" height="32"  style="stroke: #000000; stroke-width: 1.5;" width="72" x="612.5" y="206"/><ellipse cx="627.5" cy="222" fill="#A9DCDF" rx="11" ry="11" style="stroke: #000000; stroke-width: 1.0;"/><path d="M627.6094,217.3438 L626.4531,222.4219 L628.7813,222.4219 L627.6094,217.3438 Z M626.125,215.1094 L629.1094,215.1094 L632.4688,227.5 L630.0156,227.5 L629.25,224.4375 L625.9688,224.4375 L625.2188,227.5 L622.7813,227.5 L626.125,215.1094 Z "/><text fill="#000000" font-family="sans-serif" font-size="12" font-style="italic" lengthAdjust="spacingAndGlyphs" textLength="40" x="641.5" y="226.1543">Import</text></a><!--class DescriptionBundleInclusion--><a target="_top" xlink:actuate="onRequest" xlink:href="#DescriptionBundleInclusion" xlink:show="new" xlink:title="#DescriptionBundleInclusion" xlink:type="simple"><rect fill="#FFFFFF" filter="url(#f1rrz0krgu3zpr)" height="40"  style="stroke: #000000; stroke-width: 1.5;" width="201" x="248" y="433"/><rect fill="#FFFFFF" height="32" style="stroke: #000000; stroke-width: 1.5;" width="201" x="248" y="433"/><ellipse cx="263" cy="449" fill="#ADD1B2" rx="11" ry="11" style="stroke: #000000; stroke-width: 1.0;"/><path d="M265.9688,454.6406 Q265.3906,454.9375 264.75,455.0781 Q264.1094,455.2344 263.4063,455.2344 Q260.9063,455.2344 259.5781,453.5938 Q258.2656,451.9375 258.2656,448.8125 Q258.2656,445.6875 259.5781,444.0313 Q260.9063,442.375 263.4063,442.375 Q264.1094,442.375 264.75,442.5313 Q265.4063,442.6875 265.9688,442.9844 L265.9688,445.7031 Q265.3438,445.125 264.75,444.8594 Q264.1563,444.5781 263.5313,444.5781 Q262.1875,444.5781 261.5,445.6563 Q260.8125,446.7188 260.8125,448.8125 Q260.8125,450.9063 261.5,451.9844 Q262.1875,453.0469 263.5313,453.0469 Q264.1563,453.0469 264.75,452.7813 Q265.3438,452.5 265.9688,451.9219 L265.9688,454.6406 Z "/><text fill="#000000" font-family="sans-serif" font-size="12" lengthAdjust="spacingAndGlyphs" textLength="169" x="277" y="453.1543">DescriptionBundleInclusion</text><line style="stroke: #000000; stroke-width: 1.5;" x1="249" x2="448" y1="465" y2="465"/></a><!--class DescriptionBundleUsage--><a target="_top" xlink:actuate="onRequest" xlink:href="#DescriptionBundleUsage" xlink:show="new" xlink:title="#DescriptionBundleUsage" xlink:type="simple"><rect fill="#FFFFFF" filter="url(#f1rrz0krgu3zpr)" height="40"  style="stroke: #000000; stroke-width: 1.5;" width="186" x="484.5" y="433"/><rect fill="#FFFFFF" height="32" style="stroke: #000000; stroke-width: 1.5;" width="186" x="484.5" y="433"/><ellipse cx="499.5" cy="449" fill="#ADD1B2" rx="11" ry="11" style="stroke: #000000; stroke-width: 1.0;"/><path d="M502.4688,454.6406 Q501.8906,454.9375 501.25,455.0781 Q500.6094,455.2344 499.9063,455.2344 Q497.4063,455.2344 496.0781,453.5938 Q494.7656,451.9375 494.7656,448.8125 Q494.7656,445.6875 496.0781,444.0313 Q497.4063,442.375 499.9063,442.375 Q500.6094,442.375 501.25,442.5313 Q501.9063,442.6875 502.4688,442.9844 L502.4688,445.7031 Q501.8438,445.125 501.25,444.8594 Q500.6563,444.5781 500.0313,444.5781 Q498.6875,444.5781 498,445.6563 Q497.3125,446.7188 497.3125,448.8125 Q497.3125,450.9063 498,451.9844 Q498.6875,453.0469 500.0313,453.0469 Q500.6563,453.0469 501.25,452.7813 Q501.8438,452.5 502.4688,451.9219 L502.4688,454.6406 Z "/><text fill="#000000" font-family="sans-serif" font-size="12" lengthAdjust="spacingAndGlyphs" textLength="154" x="513.5" y="453.1543">DescriptionBundleUsage</text><line style="stroke: #000000; stroke-width: 1.5;" x1="485.5" x2="669.5" y1="465" y2="465"/></a><!--class DescriptionExtension--><a target="_top" xlink:actuate="onRequest" xlink:href="#DescriptionExtension" xlink:show="new" xlink:title="#DescriptionExtension" xlink:type="simple"><rect fill="#FFFFFF" filter="url(#f1rrz0krgu3zpr)" height="40"  style="stroke: #000000; stroke-width: 1.5;" width="164" x="884.5" y="433"/><rect fill="#FFFFFF" height="32" style="stroke: #000000; stroke-width: 1.5;" width="164" x="884.5" y="433"/><ellipse cx="899.5" cy="449" fill="#ADD1B2" rx="11" ry="11" style="stroke: #000000; stroke-width: 1.0;"/><path d="M902.4688,454.6406 Q901.8906,454.9375 901.25,455.0781 Q900.6094,455.2344 899.9063,455.2344 Q897.4063,455.2344 896.0781,453.5938 Q894.7656,451.9375 894.7656,448.8125 Q894.7656,445.6875 896.0781,444.0313 Q897.4063,442.375 899.9063,442.375 Q900.6094,442.375 901.25,442.5313 Q901.9063,442.6875 902.4688,442.9844 L902.4688,445.7031 Q901.8438,445.125 901.25,444.8594 Q900.6563,444.5781 900.0313,444.5781 Q898.6875,444.5781 898,445.6563 Q897.3125,446.7188 897.3125,448.8125 Q897.3125,450.9063 898,451.9844 Q898.6875,453.0469 900.0313,453.0469 Q900.6563,453.0469 901.25,452.7813 Q901.8438,452.5 902.4688,451.9219 L902.4688,454.6406 Z "/><text fill="#000000" font-family="sans-serif" font-size="12" lengthAdjust="spacingAndGlyphs" textLength="132" x="913.5" y="453.1543">DescriptionExtension</text><line style="stroke: #000000; stroke-width: 1.5;" x1="885.5" x2="1047.5" y1="465" y2="465"/></a><!--class Statement--><a target="_top" xlink:actuate="onRequest" xlink:href="#Statement" xlink:show="new" xlink:title="#Statement" xlink:type="simple"><rect fill="#D3D3D3" filter="url(#f1rrz0krgu3zpr)" height="32"  style="stroke: #000000; stroke-width: 1.5;" width="98" x="1000.5" y="206"/><ellipse cx="1015.5" cy="222" fill="#A9DCDF" rx="11" ry="11" style="stroke: #000000; stroke-width: 1.0;"/><path d="M1015.6094,217.3438 L1014.4531,222.4219 L1016.7813,222.4219 L1015.6094,217.3438 Z M1014.125,215.1094 L1017.1094,215.1094 L1020.4688,227.5 L1018.0156,227.5 L1017.25,224.4375 L1013.9688,224.4375 L1013.2188,227.5 L1010.7813,227.5 L1014.125,215.1094 Z "/><text fill="#000000" font-family="sans-serif" font-size="12" font-style="italic" lengthAdjust="spacingAndGlyphs" textLength="66" x="1029.5" y="226.1543">Statement</text></a><!--class DescriptionUsage--><a target="_top" xlink:actuate="onRequest" xlink:href="#DescriptionUsage" xlink:show="new" xlink:title="#DescriptionUsage" xlink:type="simple"><rect fill="#FFFFFF" filter="url(#f1rrz0krgu3zpr)" height="40"  style="stroke: #000000; stroke-width: 1.5;" width="143" x="706" y="433"/><rect fill="#FFFFFF" height="32" style="stroke: #000000; stroke-width: 1.5;" width="143" x="706" y="433"/><ellipse cx="721" cy="449" fill="#ADD1B2" rx="11" ry="11" style="stroke: #000000; stroke-width: 1.0;"/><path d="M723.9688,454.6406 Q723.3906,454.9375 722.75,455.0781 Q722.1094,455.2344 721.4063,455.2344 Q718.9063,455.2344 717.5781,453.5938 Q716.2656,451.9375 716.2656,448.8125 Q716.2656,445.6875 717.5781,444.0313 Q718.9063,442.375 721.4063,442.375 Q722.1094,442.375 722.75,442.5313 Q723.4063,442.6875 723.9688,442.9844 L723.9688,445.7031 Q723.3438,445.125 722.75,444.8594 Q722.1563,444.5781 721.5313,444.5781 Q720.1875,444.5781 719.5,445.6563 Q718.8125,446.7188 718.8125,448.8125 Q718.8125,450.9063 719.5,451.9844 Q720.1875,453.0469 721.5313,453.0469 Q722.1563,453.0469 722.75,452.7813 Q723.3438,452.5 723.9688,451.9219 L723.9688,454.6406 Z "/><text fill="#000000" font-family="sans-serif" font-size="12" lengthAdjust="spacingAndGlyphs" textLength="111" x="735" y="453.1543">DescriptionUsage</text><line style="stroke: #000000; stroke-width: 1.5;" x1="707" x2="848" y1="465" y2="465"/></a><!--link DescriptionBox to Description--><a target="_top" xlink:actuate="onRequest" xlink:href="#DescriptionBox" xlink:show="new" xlink:title="#DescriptionBox" xlink:type="simple"><path d="M628.889,149.851 C663.177,166.49 705.84,187.195 736.287,201.97 " fill="none"  style="stroke: #000000; stroke-width: 1.0;"/><polygon fill="none" points="625.77,156.118,610.833,141.088,631.883,143.523,625.77,156.118" style="stroke: #000000; stroke-width: 1.0;"/></a><!--link Description to DescriptionImport--><path d="M773.242,255.291 C772.933,260.861 772.665,266.596 772.5,272 C772.269,279.552 772.161,281.452 772.5,289 C772.74,294.338 773.109,299.957 773.541,305.486 " fill="none"  style="stroke: #000000; stroke-width: 1.0;"/><polygon fill="#000000" points="774.703,318.835,777.9066,309.5217,774.269,313.8539,769.9368,310.2162,774.703,318.835" style="stroke: #000000; stroke-width: 1.0;"/><line style="stroke: #000000; stroke-width: 1.0;" x1="774.269" x2="773.575" y1="313.8539" y2="305.884"/><polygon fill="#000000" points="774.061,242.069,769.6981,247.8105,773.3198,254.0461,777.6828,248.3046,774.061,242.069" style="stroke: #000000; stroke-width: 1.0;"/><text fill="#000000" font-family="sans-serif" font-size="13" lengthAdjust="spacingAndGlyphs" textLength="90" x="773.5" y="285.0669">ownedImports</text><text fill="#000000" font-family="sans-serif" font-size="13" lengthAdjust="spacingAndGlyphs" textLength="7" x="766.2468" y="308.0392">*</text><!--link Description to DescriptionStatement--><path d="M828.28,247.775 C854.748,260.182 887.306,275.416 916.5,289 C933.498,296.909 951.864,305.42 968.996,313.345 " fill="none"  style="stroke: #000000; stroke-width: 1.0;"/><polygon fill="#000000" points="981.215,318.995,974.7253,311.5867,976.6768,316.8962,971.3672,318.8478,981.215,318.995" style="stroke: #000000; stroke-width: 1.0;"/><line style="stroke: #000000; stroke-width: 1.0;" x1="976.6768" x2="969.415" y1="316.8962" y2="313.539"/><polygon fill="#000000" points="816.2,242.111,819.9344,248.2798,827.065,247.2053,823.3306,241.0365,816.2,242.111" style="stroke: #000000; stroke-width: 1.0;"/><text fill="#000000" font-family="sans-serif" font-size="13" lengthAdjust="spacingAndGlyphs" textLength="117" x="917.5" y="285.0669">ownedStatements</text><text fill="#000000" font-family="sans-serif" font-size="13" lengthAdjust="spacingAndGlyphs" textLength="7" x="959.8862" y="307.8132">*</text><!--link Ontology to DescriptionBox--><a target="_top" xlink:actuate="onRequest" xlink:href="#Ontology" xlink:show="new" xlink:title="#Ontology" xlink:type="simple"><path d="M571.5,60.472 C571.5,74.156 571.5,89.266 571.5,100.838 " fill="none"  style="stroke: #000000; stroke-width: 1.0;"/><polygon fill="none" points="564.5,60.263,571.5,40.263,578.5,60.263,564.5,60.263" style="stroke: #000000; stroke-width: 1.0;"/></a><!--link DescriptionBox to DescriptionBundle--><a target="_top" xlink:actuate="onRequest" xlink:href="#DescriptionBox" xlink:show="new" xlink:title="#DescriptionBox" xlink:type="simple"><path d="M544.637,156.992 C533.019,172.127 519.876,189.247 510.109,201.97 " fill="none"  style="stroke: #000000; stroke-width: 1.0;"/><polygon fill="none" points="539.115,152.69,556.846,141.088,550.22,161.215,539.115,152.69" style="stroke: #000000; stroke-width: 1.0;"/></a><!--link DescriptionBundle to DescriptionBundleImport--><path d="M494.701,255.364 C494.32,270.779 493.862,289.341 493.462,305.526 " fill="none"  style="stroke: #000000; stroke-width: 1.0;"/><polygon fill="#000000" points="493.13,318.998,497.3513,310.0997,493.2536,313.9995,489.3538,309.9018,493.13,318.998" style="stroke: #000000; stroke-width: 1.0;"/><line style="stroke: #000000; stroke-width: 1.0;" x1="493.2536" x2="493.4505" y1="313.9995" y2="306.0025"/><polygon fill="#000000" points="495.025,242.252,490.8785,248.1517,494.7296,254.2484,498.8761,248.3486,495.025,242.252" style="stroke: #000000; stroke-width: 1.0;"/><text fill="#000000" font-family="sans-serif" font-size="13" lengthAdjust="spacingAndGlyphs" textLength="90" x="495.5" y="285.0669">ownedImports</text><text fill="#000000" font-family="sans-serif" font-size="13" lengthAdjust="spacingAndGlyphs" textLength="7" x="485.4304" y="307.8169">*</text><!--link DescriptionBundleImport to DescriptionBundleExtension--><a target="_top" xlink:actuate="onRequest" xlink:href="#DescriptionBundleImport" xlink:show="new" xlink:title="#DescriptionBundleImport" xlink:type="simple"><path d="M380.467,377.3602 C315.103,395.3651 234.724,417.5061 178.554,432.9787 " fill="none"  style="stroke: #000000; stroke-width: 1.0;"/><polygon fill="none" points="378.646,370.601,399.786,372.039,382.364,384.0987,378.646,370.601" style="stroke: #000000; stroke-width: 1.0;"/></a><!--link Import to DescriptionBundleImport--><a target="_top" xlink:actuate="onRequest" xlink:href="#Import" xlink:show="new" xlink:title="#Import" xlink:type="simple"><path d="M626.777,254.476 C617.691,266.219 606.463,279.092 594.5,289 C580.759,300.38 564.328,310.525 548.71,318.928 " fill="none"  style="stroke: #000000; stroke-width: 1.0;"/><polygon fill="none" points="621.306,250.097,638.739,238.051,632.623,258.339,621.306,250.097" style="stroke: #000000; stroke-width: 1.0;"/></a><!--link DescriptionBundleImport to DescriptionBundleInclusion--><a target="_top" xlink:actuate="onRequest" xlink:href="#DescriptionBundleImport" xlink:show="new" xlink:title="#DescriptionBundleImport" xlink:type="simple"><path d="M441.445,383.9048 C418.781,400.5095 393.084,419.3362 374.463,432.9787 " fill="none"  style="stroke: #000000; stroke-width: 1.0;"/><polygon fill="none" points="437.371,378.2119,457.642,372.039,445.645,389.5053,437.371,378.2119" style="stroke: #000000; stroke-width: 1.0;"/></a><!--link DescriptionBundleImport to DescriptionBundleUsage--><a target="_top" xlink:actuate="onRequest" xlink:href="#DescriptionBundleImport" xlink:show="new" xlink:title="#DescriptionBundleImport" xlink:type="simple"><path d="M525.998,388.0773 C538.502,403.5963 552.095,420.4675 562.175,432.9787 " fill="none"  style="stroke: #000000; stroke-width: 1.0;"/><polygon fill="none" points="520.173,392.0045,513.076,372.039,531.075,383.221,520.173,392.0045" style="stroke: #000000; stroke-width: 1.0;"/></a><!--link DescriptionImport to DescriptionExtension--><a target="_top" xlink:actuate="onRequest" xlink:href="#DescriptionImport" xlink:show="new" xlink:title="#DescriptionImport" xlink:type="simple"><path d="M841.046,381.9714 C871.61,399.0322 907.03,418.8038 932.424,432.9787 " fill="none"  style="stroke: #000000; stroke-width: 1.0;"/><polygon fill="none" points="837.303,387.899,823.252,372.039,844.127,375.6746,837.303,387.899" style="stroke: #000000; stroke-width: 1.0;"/></a><!--link Import to DescriptionImport--><a target="_top" xlink:actuate="onRequest" xlink:href="#Import" xlink:show="new" xlink:title="#Import" xlink:type="simple"><path d="M679.192,251.908 C700.848,272.304 729.591,299.376 750.4,318.975 " fill="none"  style="stroke: #000000; stroke-width: 1.0;"/><polygon fill="none" points="674.337,256.951,664.577,238.142,683.936,246.759,674.337,256.951" style="stroke: #000000; stroke-width: 1.0;"/></a><!--link Statement to DescriptionStatement--><a target="_top" xlink:actuate="onRequest" xlink:href="#Statement" xlink:show="new" xlink:title="#Statement" xlink:type="simple"><path d="M1045.7,258.498 C1043.64,277.747 1041.14,301.111 1039.27,318.626 " fill="none"  style="stroke: #000000; stroke-width: 1.0;"/><polygon fill="none" points="1038.77,257.53,1047.85,238.388,1052.69,259.019,1038.77,257.53" style="stroke: #000000; stroke-width: 1.0;"/></a><!--link DescriptionImport to DescriptionUsage--><a target="_top" xlink:actuate="onRequest" xlink:href="#DescriptionImport" xlink:show="new" xlink:title="#DescriptionImport" xlink:type="simple"><path d="M777.5,392.0655 C777.5,406.4364 777.5,421.5323 777.5,432.9787 " fill="none"  style="stroke: #000000; stroke-width: 1.0;"/><polygon fill="none" points="770.5,392.0386,777.5,372.039,784.5,392.0386,770.5,392.0386" style="stroke: #000000; stroke-width: 1.0;"/></a><!--
@startuml
skinparam classBackgroundColor LightGray
skinparam classBorderColor Black
skinparam enumBorderColor Black
skinparam ArrowColor Black
hide methods
class Description [[#Description]] #white {
}
Description -up-|> DescriptionBox [[#DescriptionBox]]
Description *- -> "*" DescriptionImport : ownedImports
Description *- -> "*" DescriptionStatement : ownedStatements
abstract class DescriptionBox [[#DescriptionBox]] #white {
}
abstract class Ontology [[#Ontology]]
hide Ontology members
DescriptionBox -up-|> Ontology [[#Ontology]]
class DescriptionBundle [[#DescriptionBundle]] #white {
}
DescriptionBundle -up-|> DescriptionBox [[#DescriptionBox]]
DescriptionBundle *- -> "*" DescriptionBundleImport : ownedImports
class DescriptionBundleExtension [[#DescriptionBundleExtension]] #white {
}
DescriptionBundleExtension -up-|> DescriptionBundleImport [[#DescriptionBundleImport]]
abstract class DescriptionBundleImport [[#DescriptionBundleImport]] #white {
	owningDescriptionBundle : DescriptionBundle [1]
}
abstract class Import [[#Import]]
hide Import members
DescriptionBundleImport -up-|> Import [[#Import]]
class DescriptionBundleInclusion [[#DescriptionBundleInclusion]] #white {
}
DescriptionBundleInclusion -up-|> DescriptionBundleImport [[#DescriptionBundleImport]]
class DescriptionBundleUsage [[#DescriptionBundleUsage]] #white {
}
DescriptionBundleUsage -up-|> DescriptionBundleImport [[#DescriptionBundleImport]]
class DescriptionExtension [[#DescriptionExtension]] #white {
}
DescriptionExtension -up-|> DescriptionImport [[#DescriptionImport]]
abstract class DescriptionImport [[#DescriptionImport]] #white {
	owningDescription : Description [1]
}
abstract class Import [[#Import]]
hide Import members
DescriptionImport -up-|> Import [[#Import]]
abstract class DescriptionStatement [[#DescriptionStatement]] #white {
	owningDescription : Description [1]
}
abstract class Statement [[#Statement]]
hide Statement members
DescriptionStatement -up-|> Statement [[#Statement]]
class DescriptionUsage [[#DescriptionUsage]] #white {
}
DescriptionUsage -up-|> DescriptionImport [[#DescriptionImport]]
@enduml

PlantUML version 1.2019.00(Sun Jan 13 15:46:42 UTC 2019)
(GPL source distribution)
Java Runtime: OpenJDK Runtime Environment
JVM: OpenJDK 64-Bit Server VM
Java Version: 11.0.2+9
Operating System: Linux
OS Version: 4.15.0-1098-gcp
Default Encoding: UTF-8
Language: en
Country: US
--></g></svg>
