<?xml version="1.0" encoding="UTF-8" standalone="no"?><svg xmlns="http://www.w3.org/2000/svg" xmlns:xlink="http://www.w3.org/1999/xlink" contentStyleType="text/css" height="826px" preserveAspectRatio="none" style="width:1946px;height:826px;background:#FFFFFF;" version="1.1" viewBox="0 0 1946 826" width="1946px" zoomAndPan="magnify"><defs/><g><!--MD5=[933631b9c018df9838023b813acf8529]
class Axiom--><a href="#Axiom" target="_top" title="#Axiom" xlink:actuate="onRequest" xlink:href="#Axiom" xlink:show="new" xlink:title="#Axiom" xlink:type="simple"><g ><rect codeLine="6" fill="#FFFFFF" height="40"  rx="2.5" ry="2.5" style="stroke:#000000;stroke-width:0.5;" width="73" x="1073" y="100"/><ellipse cx="1088" cy="116" fill="#A9DCDF" rx="11" ry="11" style="stroke:#181818;stroke-width:1.0;"/><path d="M1088.1094,111.3438 L1086.9531,116.4219 L1089.2813,116.4219 L1088.1094,111.3438 Z M1086.625,109.1094 L1089.6094,109.1094 L1092.9688,121.5 L1090.5156,121.5 L1089.75,118.4375 L1086.4688,118.4375 L1085.7188,121.5 L1083.2813,121.5 L1086.625,109.1094 Z " fill="#000000"/><text fill="#000000" font-family="sans-serif" font-size="14" font-style="italic" lengthAdjust="spacing" textLength="41" x="1102" y="120.8467">Axiom</text><line style="stroke:#000000;stroke-width:0.5;" x1="1074" x2="1145" y1="132" y2="132"/></g></a><!--MD5=[95174e42ee347a14b6cb78d6855f19b5]
class Element--><a href="#Element" target="_top" title="#Element" xlink:actuate="onRequest" xlink:href="#Element" xlink:show="new" xlink:title="#Element" xlink:type="simple"><g ><rect codeLine="8" fill="#D3D3D3" height="32"  rx="2.5" ry="2.5" style="stroke:#000000;stroke-width:0.5;" width="89" x="1065" y="7"/><ellipse cx="1080" cy="23" fill="#A9DCDF" rx="11" ry="11" style="stroke:#181818;stroke-width:1.0;"/><path d="M1080.1094,18.3438 L1078.9531,23.4219 L1081.2813,23.4219 L1080.1094,18.3438 Z M1078.625,16.1094 L1081.6094,16.1094 L1084.9688,28.5 L1082.5156,28.5 L1081.75,25.4375 L1078.4688,25.4375 L1077.7188,28.5 L1075.2813,28.5 L1078.625,16.1094 Z " fill="#000000"/><text fill="#000000" font-family="sans-serif" font-size="14" font-style="italic" lengthAdjust="spacing" textLength="57" x="1094" y="27.8467">Element</text></g></a><!--MD5=[eb168ca87557bdcc21e383782124da33]
class ClassifierEquivalenceAxiom--><a href="#ClassifierEquivalenceAxiom" target="_top" title="#ClassifierEquivalenceAxiom" xlink:actuate="onRequest" xlink:href="#ClassifierEquivalenceAxiom" xlink:show="new" xlink:title="#ClassifierEquivalenceAxiom" xlink:type="simple"><g ><rect codeLine="11" fill="#FFFFFF" height="72.5938"  rx="2.5" ry="2.5" style="stroke:#000000;stroke-width:0.5;" width="237" x="400" y="201"/><ellipse cx="424" cy="217" fill="#ADD1B2" rx="11" ry="11" style="stroke:#181818;stroke-width:1.0;"/><path d="M426.9688,222.6406 Q426.3906,222.9375 425.75,223.0781 Q425.1094,223.2344 424.4063,223.2344 Q421.9063,223.2344 420.5781,221.5938 Q419.2656,219.9375 419.2656,216.8125 Q419.2656,213.6875 420.5781,212.0313 Q421.9063,210.375 424.4063,210.375 Q425.1094,210.375 425.75,210.5313 Q426.4063,210.6875 426.9688,210.9844 L426.9688,213.7031 Q426.3438,213.125 425.75,212.8594 Q425.1563,212.5781 424.5313,212.5781 Q423.1875,212.5781 422.5,213.6563 Q421.8125,214.7188 421.8125,216.8125 Q421.8125,218.9063 422.5,219.9844 Q423.1875,221.0469 424.5313,221.0469 Q425.1563,221.0469 425.75,220.7813 Q426.3438,220.5 426.9688,219.9219 L426.9688,222.6406 Z " fill="#000000"/><text fill="#000000" font-family="sans-serif" font-size="14" lengthAdjust="spacing" textLength="185" x="440" y="221.8467">ClassifierEquivalenceAxiom</text><line style="stroke:#000000;stroke-width:0.5;" x1="401" x2="636" y1="233" y2="233"/><text fill="#000000" font-family="sans-serif" font-size="14" lengthAdjust="spacing" textLength="204" x="406" y="249.9951">superClassifiers : Classifier [*]</text><text fill="#000000" font-family="sans-serif" font-size="14" lengthAdjust="spacing" textLength="225" x="406" y="266.292">owningClassifier : Classifier [0..1]</text></g></a><!--MD5=[25b87728d4df6106c58eefd79f338c2d]
class PropertyRestrictionAxiom--><a href="#PropertyRestrictionAxiom" target="_top" title="#PropertyRestrictionAxiom" xlink:actuate="onRequest" xlink:href="#PropertyRestrictionAxiom" xlink:show="new" xlink:title="#PropertyRestrictionAxiom" xlink:type="simple"><g ><rect codeLine="50" fill="#FFFFFF" height="88.8906"  rx="2.5" ry="2.5" style="stroke:#000000;stroke-width:0.5;" width="341" x="290" y="390"/><ellipse cx="369.75" cy="406" fill="#A9DCDF" rx="11" ry="11" style="stroke:#181818;stroke-width:1.0;"/><path d="M369.8594,401.3438 L368.7031,406.4219 L371.0313,406.4219 L369.8594,401.3438 Z M368.375,399.1094 L371.3594,399.1094 L374.7188,411.5 L372.2656,411.5 L371.5,408.4375 L368.2188,408.4375 L367.4688,411.5 L365.0313,411.5 L368.375,399.1094 Z " fill="#000000"/><text fill="#000000" font-family="sans-serif" font-size="14" font-style="italic" lengthAdjust="spacing" textLength="173" x="390.25" y="410.8467">PropertyRestrictionAxiom</text><line style="stroke:#000000;stroke-width:0.5;" x1="291" x2="630" y1="422" y2="422"/><text fill="#000000" font-family="sans-serif" font-size="14" lengthAdjust="spacing" textLength="216" x="296" y="438.9951">property : SemanticProperty [1]</text><text fill="#000000" font-family="sans-serif" font-size="14" lengthAdjust="spacing" textLength="225" x="296" y="455.292">owningClassifier : Classifier [0..1]</text><text fill="#000000" font-family="sans-serif" font-size="14" lengthAdjust="spacing" textLength="329" x="296" y="471.5889">owningAxiom : ClassifierEquivalenceAxiom [0..1]</text></g></a><!--MD5=[7053e9859f017afcc95161742056f1ac]
class InstanceEnumerationAxiom--><a href="#InstanceEnumerationAxiom" target="_top" title="#InstanceEnumerationAxiom" xlink:actuate="onRequest" xlink:href="#InstanceEnumerationAxiom" xlink:show="new" xlink:title="#InstanceEnumerationAxiom" xlink:type="simple"><g ><rect codeLine="17" fill="#FFFFFF" height="72.5938"  rx="2.5" ry="2.5" style="stroke:#000000;stroke-width:0.5;" width="233" x="672" y="201"/><ellipse cx="692.85" cy="217" fill="#ADD1B2" rx="11" ry="11" style="stroke:#181818;stroke-width:1.0;"/><path d="M695.8188,222.6406 Q695.2406,222.9375 694.6,223.0781 Q693.9594,223.2344 693.2563,223.2344 Q690.7563,223.2344 689.4281,221.5938 Q688.1156,219.9375 688.1156,216.8125 Q688.1156,213.6875 689.4281,212.0313 Q690.7563,210.375 693.2563,210.375 Q693.9594,210.375 694.6,210.5313 Q695.2563,210.6875 695.8188,210.9844 L695.8188,213.7031 Q695.1938,213.125 694.6,212.8594 Q694.0063,212.5781 693.3813,212.5781 Q692.0375,212.5781 691.35,213.6563 Q690.6625,214.7188 690.6625,216.8125 Q690.6625,218.9063 691.35,219.9844 Q692.0375,221.0469 693.3813,221.0469 Q694.0063,221.0469 694.6,220.7813 Q695.1938,220.5 695.8188,219.9219 L695.8188,222.6406 Z " fill="#000000"/><text fill="#000000" font-family="sans-serif" font-size="14" lengthAdjust="spacing" textLength="188" x="708.15" y="221.8467">InstanceEnumerationAxiom</text><line style="stroke:#000000;stroke-width:0.5;" x1="673" x2="904" y1="233" y2="233"/><text fill="#000000" font-family="sans-serif" font-size="14" lengthAdjust="spacing" textLength="219" x="678" y="249.9951">instances : ConceptInstance [*]</text><text fill="#000000" font-family="sans-serif" font-size="14" lengthAdjust="spacing" textLength="221" x="678" y="266.292">owningConcept : Concept [0..1]</text></g></a><!--MD5=[0a55d74c0dcca380b5c4c14816504637]
class KeyAxiom--><a href="#KeyAxiom" target="_top" title="#KeyAxiom" xlink:actuate="onRequest" xlink:href="#KeyAxiom" xlink:show="new" xlink:title="#KeyAxiom" xlink:type="simple"><g ><rect codeLine="22" fill="#FFFFFF" height="72.5938"  rx="2.5" ry="2.5" style="stroke:#000000;stroke-width:0.5;" width="191" x="940" y="201"/><ellipse cx="998.25" cy="217" fill="#ADD1B2" rx="11" ry="11" style="stroke:#181818;stroke-width:1.0;"/><path d="M1001.2188,222.6406 Q1000.6406,222.9375 1000,223.0781 Q999.3594,223.2344 998.6563,223.2344 Q996.1563,223.2344 994.8281,221.5938 Q993.5156,219.9375 993.5156,216.8125 Q993.5156,213.6875 994.8281,212.0313 Q996.1563,210.375 998.6563,210.375 Q999.3594,210.375 1000,210.5313 Q1000.6563,210.6875 1001.2188,210.9844 L1001.2188,213.7031 Q1000.5938,213.125 1000,212.8594 Q999.4063,212.5781 998.7813,212.5781 Q997.4375,212.5781 996.75,213.6563 Q996.0625,214.7188 996.0625,216.8125 Q996.0625,218.9063 996.75,219.9844 Q997.4375,221.0469 998.7813,221.0469 Q999.4063,221.0469 1000,220.7813 Q1000.5938,220.5 1001.2188,219.9219 L1001.2188,222.6406 Z " fill="#000000"/><text fill="#000000" font-family="sans-serif" font-size="14" lengthAdjust="spacing" textLength="66" x="1018.75" y="221.8467">KeyAxiom</text><line style="stroke:#000000;stroke-width:0.5;" x1="941" x2="1130" y1="233" y2="233"/><text fill="#000000" font-family="sans-serif" font-size="14" lengthAdjust="spacing" textLength="163" x="946" y="249.9951">properties : Property [*]</text><text fill="#000000" font-family="sans-serif" font-size="14" lengthAdjust="spacing" textLength="179" x="946" y="266.292">owningEntity : Entity [0..1]</text></g></a><!--MD5=[057f9d7a88870fc2e31e05f3f4c4c4bc]
class LiteralEnumerationAxiom--><a href="#LiteralEnumerationAxiom" target="_top" title="#LiteralEnumerationAxiom" xlink:actuate="onRequest" xlink:href="#LiteralEnumerationAxiom" xlink:show="new" xlink:title="#LiteralEnumerationAxiom" xlink:type="simple"><g ><rect codeLine="27" fill="#FFFFFF" height="56.2969"  rx="2.5" ry="2.5" style="stroke:#000000;stroke-width:0.5;" width="201" x="1115" y="304"/><ellipse cx="1130" cy="320" fill="#ADD1B2" rx="11" ry="11" style="stroke:#181818;stroke-width:1.0;"/><path d="M1132.9688,325.6406 Q1132.3906,325.9375 1131.75,326.0781 Q1131.1094,326.2344 1130.4063,326.2344 Q1127.9063,326.2344 1126.5781,324.5938 Q1125.2656,322.9375 1125.2656,319.8125 Q1125.2656,316.6875 1126.5781,315.0313 Q1127.9063,313.375 1130.4063,313.375 Q1131.1094,313.375 1131.75,313.5313 Q1132.4063,313.6875 1132.9688,313.9844 L1132.9688,316.7031 Q1132.3438,316.125 1131.75,315.8594 Q1131.1563,315.5781 1130.5313,315.5781 Q1129.1875,315.5781 1128.5,316.6563 Q1127.8125,317.7188 1127.8125,319.8125 Q1127.8125,321.9063 1128.5,322.9844 Q1129.1875,324.0469 1130.5313,324.0469 Q1131.1563,324.0469 1131.75,323.7813 Q1132.3438,323.5 1132.9688,322.9219 L1132.9688,325.6406 Z " fill="#000000"/><text fill="#000000" font-family="sans-serif" font-size="14" lengthAdjust="spacing" textLength="169" x="1144" y="324.8467">LiteralEnumerationAxiom</text><line style="stroke:#000000;stroke-width:0.5;" x1="1116" x2="1315" y1="336" y2="336"/><text fill="#000000" font-family="sans-serif" font-size="14" lengthAdjust="spacing" textLength="185" x="1121" y="352.9951">owningScalar : Scalar [0..1]</text></g></a><!--MD5=[27bfdb9e128171e0e365013b6b91e809]
class Literal--><a href="#Literal" target="_top" title="#Literal" xlink:actuate="onRequest" xlink:href="#Literal" xlink:show="new" xlink:title="#Literal" xlink:type="simple"><g ><rect codeLine="84" fill="#D3D3D3" height="32"  rx="2.5" ry="2.5" style="stroke:#000000;stroke-width:0.5;" width="72" x="1359.5" y="787"/><ellipse cx="1374.5" cy="803" fill="#A9DCDF" rx="11" ry="11" style="stroke:#181818;stroke-width:1.0;"/><path d="M1374.6094,798.3438 L1373.4531,803.4219 L1375.7813,803.4219 L1374.6094,798.3438 Z M1373.125,796.1094 L1376.1094,796.1094 L1379.4688,808.5 L1377.0156,808.5 L1376.25,805.4375 L1372.9688,805.4375 L1372.2188,808.5 L1369.7813,808.5 L1373.125,796.1094 Z " fill="#000000"/><text fill="#000000" font-family="sans-serif" font-size="14" font-style="italic" lengthAdjust="spacing" textLength="40" x="1388.5" y="807.8467">Literal</text></g></a><!--MD5=[d817457a9d1713272c72227650144688]
class PropertyCardinalityRestrictionAxiom--><a href="#PropertyCardinalityRestrictionAxiom" target="_top" title="#PropertyCardinalityRestrictionAxiom" xlink:actuate="onRequest" xlink:href="#PropertyCardinalityRestrictionAxiom" xlink:show="new" xlink:title="#PropertyCardinalityRestrictionAxiom" xlink:type="simple"><g ><rect codeLine="34" fill="#FFFFFF" height="88.8906"  rx="2.5" ry="2.5" style="stroke:#000000;stroke-width:0.5;" width="275" x="7" y="588.5"/><ellipse cx="22" cy="604.5" fill="#ADD1B2" rx="11" ry="11" style="stroke:#181818;stroke-width:1.0;"/><path d="M24.9688,610.1406 Q24.3906,610.4375 23.75,610.5781 Q23.1094,610.7344 22.4063,610.7344 Q19.9063,610.7344 18.5781,609.0938 Q17.2656,607.4375 17.2656,604.3125 Q17.2656,601.1875 18.5781,599.5313 Q19.9063,597.875 22.4063,597.875 Q23.1094,597.875 23.75,598.0313 Q24.4063,598.1875 24.9688,598.4844 L24.9688,601.2031 Q24.3438,600.625 23.75,600.3594 Q23.1563,600.0781 22.5313,600.0781 Q21.1875,600.0781 20.5,601.1563 Q19.8125,602.2188 19.8125,604.3125 Q19.8125,606.4063 20.5,607.4844 Q21.1875,608.5469 22.5313,608.5469 Q23.1563,608.5469 23.75,608.2813 Q24.3438,608 24.9688,607.4219 L24.9688,610.1406 Z " fill="#000000"/><text fill="#000000" font-family="sans-serif" font-size="14" lengthAdjust="spacing" textLength="243" x="36" y="609.3467">PropertyCardinalityRestrictionAxiom</text><line style="stroke:#000000;stroke-width:0.5;" x1="8" x2="281" y1="620.5" y2="620.5"/><text fill="#000000" font-family="sans-serif" font-size="14" lengthAdjust="spacing" textLength="216" x="13" y="637.4951">kind : CardinalityRestrictionKind</text><text fill="#000000" font-family="sans-serif" font-size="14" lengthAdjust="spacing" textLength="164" x="13" y="653.792">cardinality : UnsignedInt</text><text fill="#000000" font-family="sans-serif" font-size="14" lengthAdjust="spacing" textLength="127" x="13" y="670.0889">range : Type [0..1]</text></g></a><!--MD5=[3d3bd59ea0a44b396c2f2874e7c2babf]
class PropertyEquivalenceAxiom--><a href="#PropertyEquivalenceAxiom" target="_top" title="#PropertyEquivalenceAxiom" xlink:actuate="onRequest" xlink:href="#PropertyEquivalenceAxiom" xlink:show="new" xlink:title="#PropertyEquivalenceAxiom" xlink:type="simple"><g ><rect codeLine="40" fill="#FFFFFF" height="72.5938"  rx="2.5" ry="2.5" style="stroke:#000000;stroke-width:0.5;" width="320" x="1237.5" y="201"/><ellipse cx="1302.25" cy="217" fill="#ADD1B2" rx="11" ry="11" style="stroke:#181818;stroke-width:1.0;"/><path d="M1305.2188,222.6406 Q1304.6406,222.9375 1304,223.0781 Q1303.3594,223.2344 1302.6563,223.2344 Q1300.1563,223.2344 1298.8281,221.5938 Q1297.5156,219.9375 1297.5156,216.8125 Q1297.5156,213.6875 1298.8281,212.0313 Q1300.1563,210.375 1302.6563,210.375 Q1303.3594,210.375 1304,210.5313 Q1304.6563,210.6875 1305.2188,210.9844 L1305.2188,213.7031 Q1304.5938,213.125 1304,212.8594 Q1303.4063,212.5781 1302.7813,212.5781 Q1301.4375,212.5781 1300.75,213.6563 Q1300.0625,214.7188 1300.0625,216.8125 Q1300.0625,218.9063 1300.75,219.9844 Q1301.4375,221.0469 1302.7813,221.0469 Q1303.4063,221.0469 1304,220.7813 Q1304.5938,220.5 1305.2188,219.9219 L1305.2188,222.6406 Z " fill="#000000"/><text fill="#000000" font-family="sans-serif" font-size="14" lengthAdjust="spacing" textLength="182" x="1322.75" y="221.8467">PropertyEquivalenceAxiom</text><line style="stroke:#000000;stroke-width:0.5;" x1="1238.5" x2="1556.5" y1="233" y2="233"/><text fill="#000000" font-family="sans-serif" font-size="14" lengthAdjust="spacing" textLength="192" x="1243.5" y="249.9951">superProperty : Property [1]</text><text fill="#000000" font-family="sans-serif" font-size="14" lengthAdjust="spacing" textLength="308" x="1243.5" y="266.292">owningProperty : SpecializableProperty [0..1]</text></g></a><!--MD5=[ccdccacb705d7eb7eb8105ac89c1ca74]
class PropertyRangeRestrictionAxiom--><a href="#PropertyRangeRestrictionAxiom" target="_top" title="#PropertyRangeRestrictionAxiom" xlink:actuate="onRequest" xlink:href="#PropertyRangeRestrictionAxiom" xlink:show="new" xlink:title="#PropertyRangeRestrictionAxiom" xlink:type="simple"><g ><rect codeLine="45" fill="#FFFFFF" height="72.5938"  rx="2.5" ry="2.5" style="stroke:#000000;stroke-width:0.5;" width="250" x="317.5" y="596.5"/><ellipse cx="332.5" cy="612.5" fill="#ADD1B2" rx="11" ry="11" style="stroke:#181818;stroke-width:1.0;"/><path d="M335.4688,618.1406 Q334.8906,618.4375 334.25,618.5781 Q333.6094,618.7344 332.9063,618.7344 Q330.4063,618.7344 329.0781,617.0938 Q327.7656,615.4375 327.7656,612.3125 Q327.7656,609.1875 329.0781,607.5313 Q330.4063,605.875 332.9063,605.875 Q333.6094,605.875 334.25,606.0313 Q334.9063,606.1875 335.4688,606.4844 L335.4688,609.2031 Q334.8438,608.625 334.25,608.3594 Q333.6563,608.0781 333.0313,608.0781 Q331.6875,608.0781 331,609.1563 Q330.3125,610.2188 330.3125,612.3125 Q330.3125,614.4063 331,615.4844 Q331.6875,616.5469 333.0313,616.5469 Q333.6563,616.5469 334.25,616.2813 Q334.8438,616 335.4688,615.4219 L335.4688,618.1406 Z " fill="#000000"/><text fill="#000000" font-family="sans-serif" font-size="14" lengthAdjust="spacing" textLength="218" x="346.5" y="617.3467">PropertyRangeRestrictionAxiom</text><line style="stroke:#000000;stroke-width:0.5;" x1="318.5" x2="566.5" y1="628.5" y2="628.5"/><text fill="#000000" font-family="sans-serif" font-size="14" lengthAdjust="spacing" textLength="191" x="323.5" y="645.4951">kind : RangeRestrictionKind</text><text fill="#000000" font-family="sans-serif" font-size="14" lengthAdjust="spacing" textLength="110" x="323.5" y="661.792">range : Type [1]</text></g></a><!--MD5=[62585f66664c8ddc29fc71e2be9c5329]
class PropertySelfRestrictionAxiom--><a href="#PropertySelfRestrictionAxiom" target="_top" title="#PropertySelfRestrictionAxiom" xlink:actuate="onRequest" xlink:href="#PropertySelfRestrictionAxiom" xlink:show="new" xlink:title="#PropertySelfRestrictionAxiom" xlink:type="simple"><g ><rect codeLine="56" fill="#FFFFFF" height="40"  rx="2.5" ry="2.5" style="stroke:#000000;stroke-width:0.5;" width="230" x="602.5" y="613"/><ellipse cx="617.5" cy="629" fill="#ADD1B2" rx="11" ry="11" style="stroke:#181818;stroke-width:1.0;"/><path d="M620.4688,634.6406 Q619.8906,634.9375 619.25,635.0781 Q618.6094,635.2344 617.9063,635.2344 Q615.4063,635.2344 614.0781,633.5938 Q612.7656,631.9375 612.7656,628.8125 Q612.7656,625.6875 614.0781,624.0313 Q615.4063,622.375 617.9063,622.375 Q618.6094,622.375 619.25,622.5313 Q619.9063,622.6875 620.4688,622.9844 L620.4688,625.7031 Q619.8438,625.125 619.25,624.8594 Q618.6563,624.5781 618.0313,624.5781 Q616.6875,624.5781 616,625.6563 Q615.3125,626.7188 615.3125,628.8125 Q615.3125,630.9063 616,631.9844 Q616.6875,633.0469 618.0313,633.0469 Q618.6563,633.0469 619.25,632.7813 Q619.8438,632.5 620.4688,631.9219 L620.4688,634.6406 Z " fill="#000000"/><text fill="#000000" font-family="sans-serif" font-size="14" lengthAdjust="spacing" textLength="198" x="631.5" y="633.8467">PropertySelfRestrictionAxiom</text><line style="stroke:#000000;stroke-width:0.5;" x1="603.5" x2="831.5" y1="645" y2="645"/></g></a><!--MD5=[6971744da560ac96034acd2fabffa029]
class PropertyValueRestrictionAxiom--><a href="#PropertyValueRestrictionAxiom" target="_top" title="#PropertyValueRestrictionAxiom" xlink:actuate="onRequest" xlink:href="#PropertyValueRestrictionAxiom" xlink:show="new" xlink:title="#PropertyValueRestrictionAxiom" xlink:type="simple"><g ><rect codeLine="59" fill="#FFFFFF" height="56.2969"  rx="2.5" ry="2.5" style="stroke:#000000;stroke-width:0.5;" width="318" x="867.5" y="605"/><ellipse cx="916.75" cy="621" fill="#ADD1B2" rx="11" ry="11" style="stroke:#181818;stroke-width:1.0;"/><path d="M919.7188,626.6406 Q919.1406,626.9375 918.5,627.0781 Q917.8594,627.2344 917.1563,627.2344 Q914.6563,627.2344 913.3281,625.5938 Q912.0156,623.9375 912.0156,620.8125 Q912.0156,617.6875 913.3281,616.0313 Q914.6563,614.375 917.1563,614.375 Q917.8594,614.375 918.5,614.5313 Q919.1563,614.6875 919.7188,614.9844 L919.7188,617.7031 Q919.0938,617.125 918.5,616.8594 Q917.9063,616.5781 917.2813,616.5781 Q915.9375,616.5781 915.25,617.6563 Q914.5625,618.7188 914.5625,620.8125 Q914.5625,622.9063 915.25,623.9844 Q915.9375,625.0469 917.2813,625.0469 Q917.9063,625.0469 918.5,624.7813 Q919.0938,624.5 919.7188,623.9219 L919.7188,626.6406 Z " fill="#000000"/><text fill="#000000" font-family="sans-serif" font-size="14" lengthAdjust="spacing" textLength="211" x="937.25" y="625.8467">PropertyValueRestrictionAxiom</text><line style="stroke:#000000;stroke-width:0.5;" x1="868.5" x2="1184.5" y1="637" y2="637"/><text fill="#000000" font-family="sans-serif" font-size="14" lengthAdjust="spacing" textLength="306" x="873.5" y="653.9951">namedInstanceValue : NamedInstance [0..1]</text></g></a><!--MD5=[0b2f13c70971adaa910dfa4227793f6d]
class StructureInstance--><a href="#StructureInstance" target="_top" title="#StructureInstance" xlink:actuate="onRequest" xlink:href="#StructureInstance" xlink:show="new" xlink:title="#StructureInstance" xlink:type="simple"><g ><rect codeLine="64" fill="#D3D3D3" height="32"  rx="2.5" ry="2.5" style="stroke:#000000;stroke-width:0.5;" width="155" x="914" y="787"/><ellipse cx="929" cy="803" fill="#ADD1B2" rx="11" ry="11" style="stroke:#181818;stroke-width:1.0;"/><path d="M931.9688,808.6406 Q931.3906,808.9375 930.75,809.0781 Q930.1094,809.2344 929.4063,809.2344 Q926.9063,809.2344 925.5781,807.5938 Q924.2656,805.9375 924.2656,802.8125 Q924.2656,799.6875 925.5781,798.0313 Q926.9063,796.375 929.4063,796.375 Q930.1094,796.375 930.75,796.5313 Q931.4063,796.6875 931.9688,796.9844 L931.9688,799.7031 Q931.3438,799.125 930.75,798.8594 Q930.1563,798.5781 929.5313,798.5781 Q928.1875,798.5781 927.5,799.6563 Q926.8125,800.7188 926.8125,802.8125 Q926.8125,804.9063 927.5,805.9844 Q928.1875,807.0469 929.5313,807.0469 Q930.1563,807.0469 930.75,806.7813 Q931.3438,806.5 931.9688,805.9219 L931.9688,808.6406 Z " fill="#000000"/><text fill="#000000" font-family="sans-serif" font-size="14" lengthAdjust="spacing" textLength="123" x="943" y="807.8467">StructureInstance</text></g></a><!--MD5=[4c14c02cf9649986ab1ef46b3e75319d]
class ScalarEquivalenceAxiom--><a href="#ScalarEquivalenceAxiom" target="_top" title="#ScalarEquivalenceAxiom" xlink:actuate="onRequest" xlink:href="#ScalarEquivalenceAxiom" xlink:show="new" xlink:title="#ScalarEquivalenceAxiom" xlink:type="simple"><g ><rect codeLine="69" fill="#FFFFFF" height="154.0781"  rx="2.5" ry="2.5" style="stroke:#000000;stroke-width:0.5;" width="216" x="1471.5" y="556"/><ellipse cx="1495.05" cy="572" fill="#ADD1B2" rx="11" ry="11" style="stroke:#181818;stroke-width:1.0;"/><path d="M1498.0188,577.6406 Q1497.4406,577.9375 1496.8,578.0781 Q1496.1594,578.2344 1495.4563,578.2344 Q1492.9563,578.2344 1491.6281,576.5938 Q1490.3156,574.9375 1490.3156,571.8125 Q1490.3156,568.6875 1491.6281,567.0313 Q1492.9563,565.375 1495.4563,565.375 Q1496.1594,565.375 1496.8,565.5313 Q1497.4563,565.6875 1498.0188,565.9844 L1498.0188,568.7031 Q1497.3938,568.125 1496.8,567.8594 Q1496.2063,567.5781 1495.5813,567.5781 Q1494.2375,567.5781 1493.55,568.6563 Q1492.8625,569.7188 1492.8625,571.8125 Q1492.8625,573.9063 1493.55,574.9844 Q1494.2375,576.0469 1495.5813,576.0469 Q1496.2063,576.0469 1496.8,575.7813 Q1497.3938,575.5 1498.0188,574.9219 L1498.0188,577.6406 Z " fill="#000000"/><text fill="#000000" font-family="sans-serif" font-size="14" lengthAdjust="spacing" textLength="165" x="1510.95" y="576.8467">ScalarEquivalenceAxiom</text><line style="stroke:#000000;stroke-width:0.5;" x1="1472.5" x2="1686.5" y1="588" y2="588"/><text fill="#000000" font-family="sans-serif" font-size="14" lengthAdjust="spacing" textLength="172" x="1477.5" y="604.9951">length : UnsignedInteger</text><text fill="#000000" font-family="sans-serif" font-size="14" lengthAdjust="spacing" textLength="201" x="1477.5" y="621.292">minLength : UnsignedInteger</text><text fill="#000000" font-family="sans-serif" font-size="14" lengthAdjust="spacing" textLength="204" x="1477.5" y="637.5889">maxLength : UnsignedInteger</text><text fill="#000000" font-family="sans-serif" font-size="14" lengthAdjust="spacing" textLength="103" x="1477.5" y="653.8857">pattern : String</text><text fill="#000000" font-family="sans-serif" font-size="14" lengthAdjust="spacing" textLength="117" x="1477.5" y="670.1826">language : String</text><text fill="#000000" font-family="sans-serif" font-size="14" lengthAdjust="spacing" textLength="158" x="1477.5" y="686.4795">superScalar : Scalar [1]</text><text fill="#000000" font-family="sans-serif" font-size="14" lengthAdjust="spacing" textLength="168" x="1477.5" y="702.7764">owningScalar : Scalar [1]</text></g></a><!--MD5=[49d093cbf59b0406cd053b3862e288a5]
class SpecializationAxiom--><a href="#SpecializationAxiom" target="_top" title="#SpecializationAxiom" xlink:actuate="onRequest" xlink:href="#SpecializationAxiom" xlink:show="new" xlink:title="#SpecializationAxiom" xlink:type="simple"><g ><rect codeLine="91" fill="#FFFFFF" height="72.5938"  rx="2.5" ry="2.5" style="stroke:#000000;stroke-width:0.5;" width="276" x="1663.5" y="201"/><ellipse cx="1729.75" cy="217" fill="#ADD1B2" rx="11" ry="11" style="stroke:#181818;stroke-width:1.0;"/><path d="M1732.7188,222.6406 Q1732.1406,222.9375 1731.5,223.0781 Q1730.8594,223.2344 1730.1563,223.2344 Q1727.6563,223.2344 1726.3281,221.5938 Q1725.0156,219.9375 1725.0156,216.8125 Q1725.0156,213.6875 1726.3281,212.0313 Q1727.6563,210.375 1730.1563,210.375 Q1730.8594,210.375 1731.5,210.5313 Q1732.1563,210.6875 1732.7188,210.9844 L1732.7188,213.7031 Q1732.0938,213.125 1731.5,212.8594 Q1730.9063,212.5781 1730.2813,212.5781 Q1728.9375,212.5781 1728.25,213.6563 Q1727.5625,214.7188 1727.5625,216.8125 Q1727.5625,218.9063 1728.25,219.9844 Q1728.9375,221.0469 1730.2813,221.0469 Q1730.9063,221.0469 1731.5,220.7813 Q1732.0938,220.5 1732.7188,219.9219 L1732.7188,222.6406 Z " fill="#000000"/><text fill="#000000" font-family="sans-serif" font-size="14" lengthAdjust="spacing" textLength="135" x="1750.25" y="221.8467">SpecializationAxiom</text><line style="stroke:#000000;stroke-width:0.5;" x1="1664.5" x2="1938.5" y1="233" y2="233"/><text fill="#000000" font-family="sans-serif" font-size="14" lengthAdjust="spacing" textLength="148" x="1669.5" y="249.9951">superTerm : Term [1]</text><text fill="#000000" font-family="sans-serif" font-size="14" lengthAdjust="spacing" textLength="264" x="1669.5" y="266.292">owningTerm : SpecializableTerm [0..1]</text></g></a><!--MD5=[60a40ed32fa69684f202dbeff1831f58]
reverse link Element to Axiom--><g ><a href="#Element" target="_top" title="#Element" xlink:actuate="onRequest" xlink:href="#Element" xlink:show="new" xlink:title="#Element" xlink:type="simple"><path codeLine="10" d="M1109.5,59.472 C1109.5,73.156 1109.5,88.266 1109.5,99.838 " fill="none"  style="stroke:#000000;stroke-width:1.0;"/><polygon fill="none" points="1102.5,59.263,1109.5,39.263,1116.5,59.263,1102.5,59.263" style="stroke:#000000;stroke-width:1.0;"/></a></g><!--MD5=[11797dd9387cc50d26347965bde334fc]
reverse link Axiom to ClassifierEquivalenceAxiom--><g ><a href="#Axiom" target="_top" title="#Axiom" xlink:actuate="onRequest" xlink:href="#Axiom" xlink:show="new" xlink:title="#Axiom" xlink:type="simple"><path codeLine="15" d="M1052.89,129.437 C966.555,142.646 796.966,169.935 654.5,201 C648.778,202.248 642.933,203.573 637.04,204.952 " fill="none"  style="stroke:#000000;stroke-width:1.0;"/><polygon fill="none" points="1051.91,122.506,1072.74,126.425,1054.01,136.347,1051.91,122.506" style="stroke:#000000;stroke-width:1.0;"/></a></g><!--MD5=[bfca1a3baa4b378a49264b6f66f2e03f]
link ClassifierEquivalenceAxiom to PropertyRestrictionAxiom--><g ><path codeLine="16" d="M504.4403,285.7678 C504.4403,285.7678 485.734,348.66 477.265,377.135 " fill="none"  style="stroke:#000000;stroke-width:1.0;"/><polygon fill="#000000" points="473.507,389.769,479.9064,382.2825,474.9322,384.9764,472.2383,380.0022,473.507,389.769" style="stroke:#000000;stroke-width:1.0;"/><line style="stroke:#000000;stroke-width:1.0;" x1="474.9322" x2="477.2135" y1="384.9764" y2="377.308"/><polygon fill="#000000" points="507.862,274.266,502.3172,278.8764,504.4403,285.7678,509.9851,281.1575,507.862,274.266" style="stroke:#000000;stroke-width:1.0;"/><text fill="#000000" font-family="sans-serif" font-size="13" lengthAdjust="spacing" textLength="169" x="499.5" y="336.5669">ownedPropertyRestrictions</text><text fill="#000000" font-family="sans-serif" font-size="13" lengthAdjust="spacing" textLength="7" x="467.9628" y="378.8566">*</text></g><!--MD5=[f5c8843dc1394acb79f1bf597197709c]
reverse link Axiom to InstanceEnumerationAxiom--><g ><a href="#Axiom" target="_top" title="#Axiom" xlink:actuate="onRequest" xlink:href="#Axiom" xlink:show="new" xlink:title="#Axiom" xlink:type="simple"><path codeLine="21" d="M1054.1,140.935 C1008.29,157.415 942.111,181.229 887.272,200.961 " fill="none"  style="stroke:#000000;stroke-width:1.0;"/><polygon fill="none" points="1051.8,134.322,1072.99,134.137,1056.54,147.495,1051.8,134.322" style="stroke:#000000;stroke-width:1.0;"/></a></g><!--MD5=[eb361380e1040471db2e2ab61001b1b4]
reverse link Axiom to KeyAxiom--><g ><a href="#Axiom" target="_top" title="#Axiom" xlink:actuate="onRequest" xlink:href="#Axiom" xlink:show="new" xlink:title="#Axiom" xlink:type="simple"><path codeLine="26" d="M1086.21,157.347 C1077.37,171.141 1067.32,186.834 1058.51,200.588 " fill="none"  style="stroke:#000000;stroke-width:1.0;"/><polygon fill="none" points="1080.6,153.136,1097.28,140.072,1092.39,160.689,1080.6,153.136" style="stroke:#000000;stroke-width:1.0;"/></a></g><!--MD5=[a9e1e0e2f42d938c2be6a331bdaf587b]
reverse link Axiom to LiteralEnumerationAxiom--><g ><a href="#Axiom" target="_top" title="#Axiom" xlink:actuate="onRequest" xlink:href="#Axiom" xlink:show="new" xlink:title="#Axiom" xlink:type="simple"><path codeLine="32" d="M1128.16,157.958 C1149.2,199.645 1182.93,266.465 1201.72,303.696 " fill="none"  style="stroke:#000000;stroke-width:1.0;"/><polygon fill="none" points="1121.86,161.015,1119.09,140.006,1134.36,154.707,1121.86,161.015" style="stroke:#000000;stroke-width:1.0;"/></a></g><!--MD5=[3dc80dd7426a3486e3e566afdb166295]
link LiteralEnumerationAxiom to Literal--><g ><path codeLine="33" d="M1215.7055,372.0108 C1215.7055,372.0108 1233.66,637.709 1321.5,757 C1328.43,766.4129 1337.98,774.2587 1347.91,780.6212 " fill="none"  style="stroke:#000000;stroke-width:1.0;"/><polygon fill="#000000" points="1359.17,787.1788,1353.406,779.1928,1354.8494,784.6624,1349.3798,786.1058,1359.17,787.1788" style="stroke:#000000;stroke-width:1.0;"/><line style="stroke:#000000;stroke-width:1.0;" x1="1354.8494" x2="1347.94" y1="784.6624" y2="780.6368"/><polygon fill="#000000" points="1215.43,360.014,1211.5688,366.1043,1215.7055,372.0108,1219.5667,365.9206,1215.43,360.014" style="stroke:#000000;stroke-width:1.0;"/><text fill="#000000" font-family="sans-serif" font-size="13" lengthAdjust="spacing" textLength="42" x="1233.5" y="522.0669">literals</text><text fill="#000000" font-family="sans-serif" font-size="13" lengthAdjust="spacing" textLength="7" x="1344.5774" y="779.8127">*</text></g><!--MD5=[304d9960a207f43507984fde9eb4a07a]
reverse link PropertyRestrictionAxiom to PropertyCardinalityRestrictionAxiom--><g ><a href="#PropertyRestrictionAxiom" target="_top" title="#PropertyRestrictionAxiom" xlink:actuate="onRequest" xlink:href="#PropertyRestrictionAxiom" xlink:show="new" xlink:title="#PropertyRestrictionAxiom" xlink:type="simple"><path codeLine="39" d="M373.245,489.758 C323.307,520.812 261.486,559.254 214.707,588.343 " fill="none"  style="stroke:#000000;stroke-width:1.0;"/><polygon fill="none" points="369.689,483.727,390.369,479.11,377.082,495.615,369.689,483.727" style="stroke:#000000;stroke-width:1.0;"/></a></g><!--MD5=[c258636d6cf927f5c7dc1c3a08ae1a69]
reverse link Axiom to PropertyEquivalenceAxiom--><g ><a href="#Axiom" target="_top" title="#Axiom" xlink:actuate="onRequest" xlink:href="#Axiom" xlink:show="new" xlink:title="#Axiom" xlink:type="simple"><path codeLine="44" d="M1164.9,143.219 C1205.61,159.544 1261.77,182.066 1308.7,200.889 " fill="none"  style="stroke:#000000;stroke-width:1.0;"/><polygon fill="none" points="1162.23,149.687,1146.27,135.745,1167.44,136.693,1162.23,149.687" style="stroke:#000000;stroke-width:1.0;"/></a></g><!--MD5=[fd1dbe85a6665e28abff481311c2efe1]
reverse link PropertyRestrictionAxiom to PropertyRangeRestrictionAxiom--><g ><a href="#PropertyRestrictionAxiom" target="_top" title="#PropertyRestrictionAxiom" xlink:actuate="onRequest" xlink:href="#PropertyRestrictionAxiom" xlink:show="new" xlink:title="#PropertyRestrictionAxiom" xlink:type="simple"><path codeLine="49" d="M454.657,499.288 C451.706,531.496 448.238,569.363 445.762,596.387 " fill="none"  style="stroke:#000000;stroke-width:1.0;"/><polygon fill="none" points="447.71,498.388,456.505,479.11,461.652,499.665,447.71,498.388" style="stroke:#000000;stroke-width:1.0;"/></a></g><!--MD5=[c2d6bbbeb47b40fd345ead60b09f5f57]
reverse link Axiom to PropertyRestrictionAxiom--><g ><a href="#Axiom" target="_top" title="#Axiom" xlink:actuate="onRequest" xlink:href="#Axiom" xlink:show="new" xlink:title="#Axiom" xlink:type="simple"><path codeLine="55" d="M1052.54,122.984 C889.045,129.26 427.05,151.278 382.5,201 C334.485,254.589 383.858,338.748 422.961,389.762 " fill="none"  style="stroke:#000000;stroke-width:1.0;"/><polygon fill="none" points="1052.45,115.983,1072.7,122.233,1052.97,129.973,1052.45,115.983" style="stroke:#000000;stroke-width:1.0;"/></a></g><!--MD5=[3e7bf632a918a7dad8a96d095c5b1b7f]
reverse link PropertyRestrictionAxiom to PropertySelfRestrictionAxiom--><g ><a href="#PropertyRestrictionAxiom" target="_top" title="#PropertyRestrictionAxiom" xlink:actuate="onRequest" xlink:href="#PropertyRestrictionAxiom" xlink:show="new" xlink:title="#PropertyRestrictionAxiom" xlink:type="simple"><path codeLine="58" d="M533.54,491.346 C586.913,532.155 656.083,585.041 692.514,612.896 " fill="none"  style="stroke:#000000;stroke-width:1.0;"/><polygon fill="none" points="529.173,496.818,517.537,479.11,537.676,485.697,529.173,496.818" style="stroke:#000000;stroke-width:1.0;"/></a></g><!--MD5=[9b0c3aec31c25eeb262c16b44bbdd98d]
reverse link PropertyRestrictionAxiom to PropertyValueRestrictionAxiom--><g ><a href="#PropertyRestrictionAxiom" target="_top" title="#PropertyRestrictionAxiom" xlink:actuate="onRequest" xlink:href="#PropertyRestrictionAxiom" xlink:show="new" xlink:title="#PropertyRestrictionAxiom" xlink:type="simple"><path codeLine="66" d="M633.479,484.825 C701.366,505.289 779.61,530.252 849.5,556 C889.51,570.74 933.571,589.65 967.724,604.919 " fill="none"  style="stroke:#000000;stroke-width:1.0;"/><polygon fill="none" points="631.31,491.483,614.16,479.038,635.327,478.072,631.31,491.483" style="stroke:#000000;stroke-width:1.0;"/></a></g><!--MD5=[97e4875f2d4c649a8796b95087d4eb07]
link PropertyValueRestrictionAxiom to Literal--><g ><path codeLine="67" d="M1060.322,669.4423 C1060.322,669.4423 1133.49,735.6797 1178.5,757 C1232.5,782.581 1300.84,793.6857 1346.25,798.4637 " fill="none"  style="stroke:#000000;stroke-width:1.0;"/><polygon fill="#000000" points="1359.28,799.727,1350.709,794.8754,1354.3034,799.2435,1349.9354,802.8379,1359.28,799.727" style="stroke:#000000;stroke-width:1.0;"/><line style="stroke:#000000;stroke-width:1.0;" x1="1354.3034" x2="1346.34" y1="799.2435" y2="798.4723"/><polygon fill="#000000" points="1051.79,661.004,1053.2432,668.0672,1060.322,669.4423,1058.8688,662.3792,1051.79,661.004" style="stroke:#000000;stroke-width:1.0;"/><text fill="#000000" font-family="sans-serif" font-size="13" lengthAdjust="spacing" textLength="71" x="1179.5" y="753.0669">literalValue</text><text fill="#000000" font-family="sans-serif" font-size="13" lengthAdjust="spacing" textLength="24" x="1327.5949" y="812.4782">0..1</text></g><!--MD5=[c1e47a51e5355b53fc058c2b29002372]
link PropertyValueRestrictionAxiom to StructureInstance--><g ><path codeLine="68" d="M1009.1851,672.2609 C1009.1851,672.2609 992.455,717.248 988.5,740 C987.206,747.4439 988.249,749.4486 988.5,757 C988.674,762.2382 988.963,767.8137 989.293,773.192 " fill="none"  style="stroke:#000000;stroke-width:1.0;"/><polygon fill="#000000" points="990.219,786.6007,993.5898,777.3466,989.8747,781.6126,985.6088,777.8975,990.219,786.6007" style="stroke:#000000;stroke-width:1.0;"/><line style="stroke:#000000;stroke-width:1.0;" x1="989.8747" x2="989.3235" y1="781.6126" y2="773.6316"/><polygon fill="#000000" points="1013.81,661.188,1007.8066,665.1828,1009.1851,672.2609,1015.1885,668.2661,1013.81,661.188" style="stroke:#000000;stroke-width:1.0;"/><text fill="#000000" font-family="sans-serif" font-size="13" lengthAdjust="spacing" textLength="148" x="989.5" y="753.0669">structureInstanceValue</text><text fill="#000000" font-family="sans-serif" font-size="13" lengthAdjust="spacing" textLength="24" x="961.9857" y="776.0709">0..1</text></g><!--MD5=[81fa3b63767af6aa4510e0c4f78ec48e]
reverse link Axiom to ScalarEquivalenceAxiom--><g ><a href="#Axiom" target="_top" title="#Axiom" xlink:actuate="onRequest" xlink:href="#Axiom" xlink:show="new" xlink:title="#Axiom" xlink:type="simple"><path codeLine="86" d="M1166.54,122.086 C1278.91,125.554 1522.57,140.088 1574.5,201 C1658.25,299.227 1631.4,460.771 1604.98,555.703 " fill="none"  style="stroke:#000000;stroke-width:1.0;"/><polygon fill="none" points="1166.03,129.075,1146.22,121.537,1166.4,115.08,1166.03,129.075" style="stroke:#000000;stroke-width:1.0;"/></a></g><!--MD5=[d7a8db7388e8f702f547af9cdb7e9165]
link ScalarEquivalenceAxiom to Literal--><g ><path codeLine="87" d="M1459.9921,655.57 C1459.9921,655.57 1360.96,696.811 1332.5,740 C1322.76,754.7833 1334.59,768.8346 1350.54,779.811 " fill="none"  style="stroke:#000000;stroke-width:1.0;"/><polygon fill="#000000" points="1362.01,786.8899,1356.4518,778.7593,1357.755,784.264,1352.2504,785.5673,1362.01,786.8899" style="stroke:#000000;stroke-width:1.0;"/><line style="stroke:#000000;stroke-width:1.0;" x1="1357.755" x2="1350.95" y1="784.264" y2="780.0661"/><polygon fill="#000000" points="1471.48,652.102,1464.58,650.0067,1459.9921,655.57,1466.892,657.6653,1471.48,652.102" style="stroke:#000000;stroke-width:1.0;"/><text fill="#000000" font-family="sans-serif" font-size="13" lengthAdjust="spacing" textLength="78" x="1333.5" y="753.0669">minInclusive</text><text fill="#000000" font-family="sans-serif" font-size="13" lengthAdjust="spacing" textLength="24" x="1354.6228" y="775.8636">0..1</text></g><!--MD5=[d7a8db7388e8f702f547af9cdb7e9165]
link ScalarEquivalenceAxiom to Literal--><g ><path codeLine="88" d="M1476.3214,718.1295 C1476.3214,718.1295 1459.81,733.0336 1452.5,740 C1440.26,751.6632 1427.46,765.4366 1417.09,777.0357 " fill="none"  style="stroke:#000000;stroke-width:1.0;"/><polygon fill="#000000" points="1408.34,786.9537,1417.2919,782.8472,1411.6462,783.2029,1411.2905,777.5572,1408.34,786.9537" style="stroke:#000000;stroke-width:1.0;"/><line style="stroke:#000000;stroke-width:1.0;" x1="1411.6462" x2="1416.935" y1="783.2029" y2="777.2054"/><polygon fill="#000000" points="1485.33,710.202,1478.1832,711.1629,1476.3214,718.1295,1483.4682,717.1686,1485.33,710.202" style="stroke:#000000;stroke-width:1.0;"/><text fill="#000000" font-family="sans-serif" font-size="13" lengthAdjust="spacing" textLength="82" x="1453.5" y="753.0669">minExclusive</text><text fill="#000000" font-family="sans-serif" font-size="13" lengthAdjust="spacing" textLength="24" x="1416.8787" y="775.9494">0..1</text></g><!--MD5=[d7a8db7388e8f702f547af9cdb7e9165]
link ScalarEquivalenceAxiom to Literal--><g ><path codeLine="89" d="M1563.4065,721.4512 C1563.4065,721.4512 1550.19,747.3663 1540.5,757 C1515.18,782.1686 1476.06,793.3013 1444.83,798.2051 " fill="none"  style="stroke:#000000;stroke-width:1.0;"/><polygon fill="#000000" points="1431.55,799.9982,1441.005,802.7555,1436.5049,799.3279,1439.9325,794.8277,1431.55,799.9982" style="stroke:#000000;stroke-width:1.0;"/><line style="stroke:#000000;stroke-width:1.0;" x1="1436.5049" x2="1444.44" y1="799.3279" y2="798.258"/><polygon fill="#000000" points="1567.68,710.238,1561.8055,714.4201,1563.4065,721.4512,1569.281,717.2691,1567.68,710.238" style="stroke:#000000;stroke-width:1.0;"/><text fill="#000000" font-family="sans-serif" font-size="13" lengthAdjust="spacing" textLength="82" x="1554.5" y="753.0669">maxInclusive</text><text fill="#000000" font-family="sans-serif" font-size="13" lengthAdjust="spacing" textLength="24" x="1439.5083" y="795.3367">0..1</text></g><!--MD5=[d7a8db7388e8f702f547af9cdb7e9165]
link ScalarEquivalenceAxiom to Literal--><g ><path codeLine="90" d="M1652.9549,721.6675 C1652.9549,721.6675 1654.21,746.5819 1645.5,757 C1620.48,786.9282 1510.64,796.9824 1445.17,800.3383 " fill="none"  style="stroke:#000000;stroke-width:1.0;"/><polygon fill="#000000" points="1431.92,800.9574,1441.099,804.5277,1436.9144,800.7211,1440.7209,796.5366,1431.92,800.9574" style="stroke:#000000;stroke-width:1.0;"/><line style="stroke:#000000;stroke-width:1.0;" x1="1436.9144" x2="1444.905" y1="800.7211" y2="800.3506"/><polygon fill="#000000" points="1649.17,710.28,1647.2666,717.2354,1652.9549,721.6675,1654.8583,714.7121,1649.17,710.28" style="stroke:#000000;stroke-width:1.0;"/><text fill="#000000" font-family="sans-serif" font-size="13" lengthAdjust="spacing" textLength="86" x="1654.5" y="753.0669">maxExclusive</text><text fill="#000000" font-family="sans-serif" font-size="13" lengthAdjust="spacing" textLength="24" x="1439.6369" y="813.9047">0..1</text></g><!--MD5=[6200944b45b450c6ffd88b96877326e9]
reverse link Axiom to SpecializationAxiom--><g ><a href="#Axiom" target="_top" title="#Axiom" xlink:actuate="onRequest" xlink:href="#Axiom" xlink:show="new" xlink:title="#Axiom" xlink:type="simple"><path codeLine="95" d="M1166.44,120.925 C1264.05,121.98 1469.01,129.382 1636.5,170 C1666.82,177.352 1698.89,189.253 1726.62,200.971 " fill="none"  style="stroke:#000000;stroke-width:1.0;"/><polygon fill="none" points="1166.15,127.923,1146.2,120.783,1166.25,113.923,1166.15,127.923" style="stroke:#000000;stroke-width:1.0;"/></a></g><!--MD5=[a434d1c745a7e6b14d9361764404672c]
@startuml
skinparam classBackgroundColor LightGray
skinparam classBorderColor Black
skinparam enumBorderColor Black
skinparam ArrowColor Black
hide methods
abstract class Axiom [[#Axiom]] #white {
}
abstract class Element [[#Element]]
hide Element members
Axiom -up-|> Element [[#Element]]
class ClassifierEquivalenceAxiom [[#ClassifierEquivalenceAxiom]] #white {
	superClassifiers : Classifier [*]
	owningClassifier : Classifier [0..1]
}
ClassifierEquivalenceAxiom -up-|> Axiom [[#Axiom]]
ClassifierEquivalenceAxiom *- -> "*" PropertyRestrictionAxiom : ownedPropertyRestrictions
class InstanceEnumerationAxiom [[#InstanceEnumerationAxiom]] #white {
	instances : ConceptInstance [*]
	owningConcept : Concept [0..1]
}
InstanceEnumerationAxiom -up-|> Axiom [[#Axiom]]
class KeyAxiom [[#KeyAxiom]] #white {
	properties : Property [*]
	owningEntity : Entity [0..1]
}
KeyAxiom -up-|> Axiom [[#Axiom]]
class LiteralEnumerationAxiom [[#LiteralEnumerationAxiom]] #white {
	owningScalar : Scalar [0..1]
}
abstract class Literal [[#Literal]]
hide Literal members
LiteralEnumerationAxiom -up-|> Axiom [[#Axiom]]
LiteralEnumerationAxiom *- -> "*" Literal : literals
class PropertyCardinalityRestrictionAxiom [[#PropertyCardinalityRestrictionAxiom]] #white {
	kind : CardinalityRestrictionKind
	cardinality : UnsignedInt
	range : Type [0..1]
}
PropertyCardinalityRestrictionAxiom -up-|> PropertyRestrictionAxiom [[#PropertyRestrictionAxiom]]
class PropertyEquivalenceAxiom [[#PropertyEquivalenceAxiom]] #white {
	superProperty : Property [1]
	owningProperty : SpecializableProperty [0..1]
}
PropertyEquivalenceAxiom -up-|> Axiom [[#Axiom]]
class PropertyRangeRestrictionAxiom [[#PropertyRangeRestrictionAxiom]] #white {
	kind : RangeRestrictionKind
	range : Type [1]
}
PropertyRangeRestrictionAxiom -up-|> PropertyRestrictionAxiom [[#PropertyRestrictionAxiom]]
abstract class PropertyRestrictionAxiom [[#PropertyRestrictionAxiom]] #white {
	property : SemanticProperty [1]
	owningClassifier : Classifier [0..1]
	owningAxiom : ClassifierEquivalenceAxiom [0..1]
}
PropertyRestrictionAxiom -up-|> Axiom [[#Axiom]]
class PropertySelfRestrictionAxiom [[#PropertySelfRestrictionAxiom]] #white {
}
PropertySelfRestrictionAxiom -up-|> PropertyRestrictionAxiom [[#PropertyRestrictionAxiom]]
class PropertyValueRestrictionAxiom [[#PropertyValueRestrictionAxiom]] #white {
	namedInstanceValue : NamedInstance [0..1]
}
abstract class Literal [[#Literal]]
hide Literal members
class StructureInstance [[#StructureInstance]]
hide StructureInstance members
PropertyValueRestrictionAxiom -up-|> PropertyRestrictionAxiom [[#PropertyRestrictionAxiom]]
PropertyValueRestrictionAxiom *- -> "0..1" Literal : literalValue
PropertyValueRestrictionAxiom *- -> "0..1" StructureInstance : structureInstanceValue
class ScalarEquivalenceAxiom [[#ScalarEquivalenceAxiom]] #white {
	length : UnsignedInteger
	minLength : UnsignedInteger
	maxLength : UnsignedInteger
	pattern : String
	language : String
	superScalar : Scalar [1]
	owningScalar : Scalar [1]
}
abstract class Literal [[#Literal]]
hide Literal members
abstract class Literal [[#Literal]]
hide Literal members
abstract class Literal [[#Literal]]
hide Literal members
abstract class Literal [[#Literal]]
hide Literal members
ScalarEquivalenceAxiom -up-|> Axiom [[#Axiom]]
ScalarEquivalenceAxiom *- -> "0..1" Literal : minInclusive
ScalarEquivalenceAxiom *- -> "0..1" Literal : minExclusive
ScalarEquivalenceAxiom *- -> "0..1" Literal : maxInclusive
ScalarEquivalenceAxiom *- -> "0..1" Literal : maxExclusive
class SpecializationAxiom [[#SpecializationAxiom]] #white {
	superTerm : Term [1]
	owningTerm : SpecializableTerm [0..1]
}
SpecializationAxiom -up-|> Axiom [[#Axiom]]
@enduml

PlantUML version 1.2022.12(Sun Oct 23 18:12:26 UTC 2022)
(GPL source distribution)
Java Runtime: OpenJDK Runtime Environment
JVM: OpenJDK 64-Bit Server VM
Default Encoding: UTF-8
Language: en
Country: US
--></g></svg>
