<?xml version="1.0" encoding="UTF-8" standalone="no"?><svg xmlns="http://www.w3.org/2000/svg" xmlns:xlink="http://www.w3.org/1999/xlink" contentStyleType="text/css" height="556px" preserveAspectRatio="none" style="width:1252px;height:556px;background:#FFFFFF;" version="1.1" viewBox="0 0 1252 556" width="1252px" zoomAndPan="magnify"><defs/><g><!--MD5=[ef7aeb3cbdbc76daa05bef4975edfba0]
class Argument--><a href="#Argument" target="_top" title="#Argument" xlink:actuate="onRequest" xlink:href="#Argument" xlink:show="new" xlink:title="#Argument" xlink:type="simple"><g ><rect codeLine="6" fill="#FFFFFF" height="72.5938"  rx="2.5" ry="2.5" style="stroke:#000000;stroke-width:0.5;" width="232" x="1013.5" y="367"/><ellipse cx="1091.25" cy="383" fill="#ADD1B2" rx="11" ry="11" style="stroke:#181818;stroke-width:1.0;"/><path d="M1094.2188,388.6406 Q1093.6406,388.9375 1093,389.0781 Q1092.3594,389.2344 1091.6563,389.2344 Q1089.1563,389.2344 1087.8281,387.5938 Q1086.5156,385.9375 1086.5156,382.8125 Q1086.5156,379.6875 1087.8281,378.0313 Q1089.1563,376.375 1091.6563,376.375 Q1092.3594,376.375 1093,376.5313 Q1093.6563,376.6875 1094.2188,376.9844 L1094.2188,379.7031 Q1093.5938,379.125 1093,378.8594 Q1092.4063,378.5781 1091.7813,378.5781 Q1090.4375,378.5781 1089.75,379.6563 Q1089.0625,380.7188 1089.0625,382.8125 Q1089.0625,384.9063 1089.75,385.9844 Q1090.4375,387.0469 1091.7813,387.0469 Q1092.4063,387.0469 1093,386.7813 Q1093.5938,386.5 1094.2188,385.9219 L1094.2188,388.6406 Z " fill="#000000"/><text fill="#000000" font-family="sans-serif" font-size="14" lengthAdjust="spacing" textLength="68" x="1111.75" y="387.8467">Argument</text><line style="stroke:#000000;stroke-width:0.5;" x1="1014.5" x2="1244.5" y1="399" y2="399"/><text fill="#000000" font-family="sans-serif" font-size="14" lengthAdjust="spacing" textLength="79" x="1019.5" y="415.9951">variable : ID</text><text fill="#000000" font-family="sans-serif" font-size="14" lengthAdjust="spacing" textLength="220" x="1019.5" y="432.292">instance : NamedInstance [0..1]</text></g></a><!--MD5=[95174e42ee347a14b6cb78d6855f19b5]
class Element--><a href="#Element" target="_top" title="#Element" xlink:actuate="onRequest" xlink:href="#Element" xlink:show="new" xlink:title="#Element" xlink:type="simple"><g ><rect codeLine="33" fill="#D3D3D3" height="32"  rx="2.5" ry="2.5" style="stroke:#000000;stroke-width:0.5;" width="89" x="1122" y="7"/><ellipse cx="1137" cy="23" fill="#A9DCDF" rx="11" ry="11" style="stroke:#181818;stroke-width:1.0;"/><path d="M1137.1094,18.3438 L1135.9531,23.4219 L1138.2813,23.4219 L1137.1094,18.3438 Z M1135.625,16.1094 L1138.6094,16.1094 L1141.9688,28.5 L1139.5156,28.5 L1138.75,25.4375 L1135.4688,25.4375 L1134.7188,28.5 L1132.2813,28.5 L1135.625,16.1094 Z " fill="#000000"/><text fill="#000000" font-family="sans-serif" font-size="14" font-style="italic" lengthAdjust="spacing" textLength="57" x="1151" y="27.8467">Element</text></g></a><!--MD5=[27bfdb9e128171e0e365013b6b91e809]
class Literal--><a href="#Literal" target="_top" title="#Literal" xlink:actuate="onRequest" xlink:href="#Literal" xlink:show="new" xlink:title="#Literal" xlink:type="simple"><g ><rect codeLine="12" fill="#D3D3D3" height="32"  rx="2.5" ry="2.5" style="stroke:#000000;stroke-width:0.5;" width="72" x="1093.5" y="517"/><ellipse cx="1108.5" cy="533" fill="#A9DCDF" rx="11" ry="11" style="stroke:#181818;stroke-width:1.0;"/><path d="M1108.6094,528.3438 L1107.4531,533.4219 L1109.7813,533.4219 L1108.6094,528.3438 Z M1107.125,526.1094 L1110.1094,526.1094 L1113.4688,538.5 L1111.0156,538.5 L1110.25,535.4375 L1106.9688,535.4375 L1106.2188,538.5 L1103.7813,538.5 L1107.125,526.1094 Z " fill="#000000"/><text fill="#000000" font-family="sans-serif" font-size="14" font-style="italic" lengthAdjust="spacing" textLength="40" x="1122.5" y="537.8467">Literal</text></g></a><!--MD5=[b9ff1853f78609902ad604bbec434fb1]
class BinaryPredicate--><a href="#BinaryPredicate" target="_top" title="#BinaryPredicate" xlink:actuate="onRequest" xlink:href="#BinaryPredicate" xlink:show="new" xlink:title="#BinaryPredicate" xlink:type="simple"><g ><rect codeLine="16" fill="#FFFFFF" height="40"  rx="2.5" ry="2.5" style="stroke:#000000;stroke-width:0.5;" width="139" x="784" y="242"/><ellipse cx="799" cy="258" fill="#A9DCDF" rx="11" ry="11" style="stroke:#181818;stroke-width:1.0;"/><path d="M799.1094,253.3438 L797.9531,258.4219 L800.2813,258.4219 L799.1094,253.3438 Z M797.625,251.1094 L800.6094,251.1094 L803.9688,263.5 L801.5156,263.5 L800.75,260.4375 L797.4688,260.4375 L796.7188,263.5 L794.2813,263.5 L797.625,251.1094 Z " fill="#000000"/><text fill="#000000" font-family="sans-serif" font-size="14" font-style="italic" lengthAdjust="spacing" textLength="107" x="813" y="262.8467">BinaryPredicate</text><line style="stroke:#000000;stroke-width:0.5;" x1="785" x2="922" y1="274" y2="274"/></g></a><!--MD5=[e6dc55dd324d6a8c189f3ada02b144fc]
class Predicate--><a href="#Predicate" target="_top" title="#Predicate" xlink:actuate="onRequest" xlink:href="#Predicate" xlink:show="new" xlink:title="#Predicate" xlink:type="simple"><g ><rect codeLine="29" fill="#FFFFFF" height="72.5938"  rx="2.5" ry="2.5" style="stroke:#000000;stroke-width:0.5;" width="211" x="903" y="100"/><ellipse cx="971.75" cy="116" fill="#A9DCDF" rx="11" ry="11" style="stroke:#181818;stroke-width:1.0;"/><path d="M971.8594,111.3438 L970.7031,116.4219 L973.0313,116.4219 L971.8594,111.3438 Z M970.375,109.1094 L973.3594,109.1094 L976.7188,121.5 L974.2656,121.5 L973.5,118.4375 L970.2188,118.4375 L969.4688,121.5 L967.0313,121.5 L970.375,109.1094 Z " fill="#000000"/><text fill="#000000" font-family="sans-serif" font-size="14" font-style="italic" lengthAdjust="spacing" textLength="65" x="992.25" y="120.8467">Predicate</text><line style="stroke:#000000;stroke-width:0.5;" x1="904" x2="1113" y1="132" y2="132"/><text fill="#000000" font-family="sans-serif" font-size="14" lengthAdjust="spacing" textLength="195" x="909" y="148.9951">antecedentRule : Rule [0..1]</text><text fill="#000000" font-family="sans-serif" font-size="14" lengthAdjust="spacing" textLength="199" x="909" y="165.292">consequentRule : Rule [0..1]</text></g></a><!--MD5=[95437459332e826dde99529f842e22de]
class BuiltInPredicate--><a href="#BuiltInPredicate" target="_top" title="#BuiltInPredicate" xlink:actuate="onRequest" xlink:href="#BuiltInPredicate" xlink:show="new" xlink:title="#BuiltInPredicate" xlink:type="simple"><g ><rect codeLine="21" fill="#FFFFFF" height="56.2969"  rx="2.5" ry="2.5" style="stroke:#000000;stroke-width:0.5;" width="139" x="1022" y="234"/><ellipse cx="1037" cy="250" fill="#ADD1B2" rx="11" ry="11" style="stroke:#181818;stroke-width:1.0;"/><path d="M1039.9688,255.6406 Q1039.3906,255.9375 1038.75,256.0781 Q1038.1094,256.2344 1037.4063,256.2344 Q1034.9063,256.2344 1033.5781,254.5938 Q1032.2656,252.9375 1032.2656,249.8125 Q1032.2656,246.6875 1033.5781,245.0313 Q1034.9063,243.375 1037.4063,243.375 Q1038.1094,243.375 1038.75,243.5313 Q1039.4063,243.6875 1039.9688,243.9844 L1039.9688,246.7031 Q1039.3438,246.125 1038.75,245.8594 Q1038.1563,245.5781 1037.5313,245.5781 Q1036.1875,245.5781 1035.5,246.6563 Q1034.8125,247.7188 1034.8125,249.8125 Q1034.8125,251.9063 1035.5,252.9844 Q1036.1875,254.0469 1037.5313,254.0469 Q1038.1563,254.0469 1038.75,253.7813 Q1039.3438,253.5 1039.9688,252.9219 L1039.9688,255.6406 Z " fill="#000000"/><text fill="#000000" font-family="sans-serif" font-size="14" lengthAdjust="spacing" textLength="107" x="1051" y="254.8467">BuiltInPredicate</text><line style="stroke:#000000;stroke-width:0.5;" x1="1023" x2="1160" y1="266" y2="266"/><text fill="#000000" font-family="sans-serif" font-size="14" lengthAdjust="spacing" textLength="119" x="1028" y="282.9951">builtIn : BuiltIn [1]</text></g></a><!--MD5=[4084a945bf768861338b464a55575a8f]
class DifferentFromPredicate--><a href="#DifferentFromPredicate" target="_top" title="#DifferentFromPredicate" xlink:actuate="onRequest" xlink:href="#DifferentFromPredicate" xlink:show="new" xlink:title="#DifferentFromPredicate" xlink:type="simple"><g ><rect codeLine="26" fill="#FFFFFF" height="40"  rx="2.5" ry="2.5" style="stroke:#000000;stroke-width:0.5;" width="191" x="399" y="383.5"/><ellipse cx="414" cy="399.5" fill="#ADD1B2" rx="11" ry="11" style="stroke:#181818;stroke-width:1.0;"/><path d="M416.9688,405.1406 Q416.3906,405.4375 415.75,405.5781 Q415.1094,405.7344 414.4063,405.7344 Q411.9063,405.7344 410.5781,404.0938 Q409.2656,402.4375 409.2656,399.3125 Q409.2656,396.1875 410.5781,394.5313 Q411.9063,392.875 414.4063,392.875 Q415.1094,392.875 415.75,393.0313 Q416.4063,393.1875 416.9688,393.4844 L416.9688,396.2031 Q416.3438,395.625 415.75,395.3594 Q415.1563,395.0781 414.5313,395.0781 Q413.1875,395.0781 412.5,396.1563 Q411.8125,397.2188 411.8125,399.3125 Q411.8125,401.4063 412.5,402.4844 Q413.1875,403.5469 414.5313,403.5469 Q415.1563,403.5469 415.75,403.2813 Q416.3438,403 416.9688,402.4219 L416.9688,405.1406 Z " fill="#000000"/><text fill="#000000" font-family="sans-serif" font-size="14" lengthAdjust="spacing" textLength="159" x="428" y="404.3467">DifferentFromPredicate</text><line style="stroke:#000000;stroke-width:0.5;" x1="400" x2="589" y1="415.5" y2="415.5"/></g></a><!--MD5=[2b35c6292d8b86c89d6cbf01359b8028]
class PropertyPredicate--><a href="#PropertyPredicate" target="_top" title="#PropertyPredicate" xlink:actuate="onRequest" xlink:href="#PropertyPredicate" xlink:show="new" xlink:title="#PropertyPredicate" xlink:type="simple"><g ><rect codeLine="36" fill="#FFFFFF" height="56.2969"  rx="2.5" ry="2.5" style="stroke:#000000;stroke-width:0.5;" width="164" x="625.5" y="375.5"/><ellipse cx="644.55" cy="391.5" fill="#ADD1B2" rx="11" ry="11" style="stroke:#181818;stroke-width:1.0;"/><path d="M647.5188,397.1406 Q646.9406,397.4375 646.3,397.5781 Q645.6594,397.7344 644.9563,397.7344 Q642.4563,397.7344 641.1281,396.0938 Q639.8156,394.4375 639.8156,391.3125 Q639.8156,388.1875 641.1281,386.5313 Q642.4563,384.875 644.9563,384.875 Q645.6594,384.875 646.3,385.0313 Q646.9563,385.1875 647.5188,385.4844 L647.5188,388.2031 Q646.8938,387.625 646.3,387.3594 Q645.7063,387.0781 645.0813,387.0781 Q643.7375,387.0781 643.05,388.1563 Q642.3625,389.2188 642.3625,391.3125 Q642.3625,393.4063 643.05,394.4844 Q643.7375,395.5469 645.0813,395.5469 Q645.7063,395.5469 646.3,395.2813 Q646.8938,395 647.5188,394.4219 L647.5188,397.1406 Z " fill="#000000"/><text fill="#000000" font-family="sans-serif" font-size="14" lengthAdjust="spacing" textLength="123" x="659.45" y="396.3467">PropertyPredicate</text><line style="stroke:#000000;stroke-width:0.5;" x1="626.5" x2="788.5" y1="407.5" y2="407.5"/><text fill="#000000" font-family="sans-serif" font-size="14" lengthAdjust="spacing" textLength="152" x="631.5" y="424.4951">property : Property [1]</text></g></a><!--MD5=[1c3df032f1e179fd58fe5ee127543537]
class RelationEntityPredicate--><a href="#RelationEntityPredicate" target="_top" title="#RelationEntityPredicate" xlink:actuate="onRequest" xlink:href="#RelationEntityPredicate" xlink:show="new" xlink:title="#RelationEntityPredicate" xlink:type="simple"><g ><rect codeLine="40" fill="#FFFFFF" height="56.2969"  rx="2.5" ry="2.5" style="stroke:#000000;stroke-width:0.5;" width="191" x="173" y="375.5"/><ellipse cx="188" cy="391.5" fill="#ADD1B2" rx="11" ry="11" style="stroke:#181818;stroke-width:1.0;"/><path d="M190.9688,397.1406 Q190.3906,397.4375 189.75,397.5781 Q189.1094,397.7344 188.4063,397.7344 Q185.9063,397.7344 184.5781,396.0938 Q183.2656,394.4375 183.2656,391.3125 Q183.2656,388.1875 184.5781,386.5313 Q185.9063,384.875 188.4063,384.875 Q189.1094,384.875 189.75,385.0313 Q190.4063,385.1875 190.9688,385.4844 L190.9688,388.2031 Q190.3438,387.625 189.75,387.3594 Q189.1563,387.0781 188.5313,387.0781 Q187.1875,387.0781 186.5,388.1563 Q185.8125,389.2188 185.8125,391.3125 Q185.8125,393.4063 186.5,394.4844 Q187.1875,395.5469 188.5313,395.5469 Q189.1563,395.5469 189.75,395.2813 Q190.3438,395 190.9688,394.4219 L190.9688,397.1406 Z " fill="#000000"/><text fill="#000000" font-family="sans-serif" font-size="14" lengthAdjust="spacing" textLength="159" x="202" y="396.3467">RelationEntityPredicate</text><line style="stroke:#000000;stroke-width:0.5;" x1="174" x2="363" y1="407.5" y2="407.5"/><text fill="#000000" font-family="sans-serif" font-size="14" lengthAdjust="spacing" textLength="160" x="179" y="424.4951">type : RelationEntity [1]</text></g></a><!--MD5=[8e1e58185eca2dd70554585cd90beb2c]
class UnaryPredicate--><a href="#UnaryPredicate" target="_top" title="#UnaryPredicate" xlink:actuate="onRequest" xlink:href="#UnaryPredicate" xlink:show="new" xlink:title="#UnaryPredicate" xlink:type="simple"><g ><rect codeLine="52" fill="#FFFFFF" height="40"  rx="2.5" ry="2.5" style="stroke:#000000;stroke-width:0.5;" width="136" x="359.5" y="242"/><ellipse cx="374.5" cy="258" fill="#A9DCDF" rx="11" ry="11" style="stroke:#181818;stroke-width:1.0;"/><path d="M374.6094,253.3438 L373.4531,258.4219 L375.7813,258.4219 L374.6094,253.3438 Z M373.125,251.1094 L376.1094,251.1094 L379.4688,263.5 L377.0156,263.5 L376.25,260.4375 L372.9688,260.4375 L372.2188,263.5 L369.7813,263.5 L373.125,251.1094 Z " fill="#000000"/><text fill="#000000" font-family="sans-serif" font-size="14" font-style="italic" lengthAdjust="spacing" textLength="104" x="388.5" y="262.8467">UnaryPredicate</text><line style="stroke:#000000;stroke-width:0.5;" x1="360.5" x2="494.5" y1="274" y2="274"/></g></a><!--MD5=[a387b7f4f3cb4648bc07cd2bebd47195]
class SameAsPredicate--><a href="#SameAsPredicate" target="_top" title="#SameAsPredicate" xlink:actuate="onRequest" xlink:href="#SameAsPredicate" xlink:show="new" xlink:title="#SameAsPredicate" xlink:type="simple"><g ><rect codeLine="45" fill="#FFFFFF" height="40"  rx="2.5" ry="2.5" style="stroke:#000000;stroke-width:0.5;" width="153" x="825" y="383.5"/><ellipse cx="840" cy="399.5" fill="#ADD1B2" rx="11" ry="11" style="stroke:#181818;stroke-width:1.0;"/><path d="M842.9688,405.1406 Q842.3906,405.4375 841.75,405.5781 Q841.1094,405.7344 840.4063,405.7344 Q837.9063,405.7344 836.5781,404.0938 Q835.2656,402.4375 835.2656,399.3125 Q835.2656,396.1875 836.5781,394.5313 Q837.9063,392.875 840.4063,392.875 Q841.1094,392.875 841.75,393.0313 Q842.4063,393.1875 842.9688,393.4844 L842.9688,396.2031 Q842.3438,395.625 841.75,395.3594 Q841.1563,395.0781 840.5313,395.0781 Q839.1875,395.0781 838.5,396.1563 Q837.8125,397.2188 837.8125,399.3125 Q837.8125,401.4063 838.5,402.4844 Q839.1875,403.5469 840.5313,403.5469 Q841.1563,403.5469 841.75,403.2813 Q842.3438,403 842.9688,402.4219 L842.9688,405.1406 Z " fill="#000000"/><text fill="#000000" font-family="sans-serif" font-size="14" lengthAdjust="spacing" textLength="121" x="854" y="404.3467">SameAsPredicate</text><line style="stroke:#000000;stroke-width:0.5;" x1="826" x2="977" y1="415.5" y2="415.5"/></g></a><!--MD5=[54edce0496c0a7342325ac262226e3d4]
class TypePredicate--><a href="#TypePredicate" target="_top" title="#TypePredicate" xlink:actuate="onRequest" xlink:href="#TypePredicate" xlink:show="new" xlink:title="#TypePredicate" xlink:type="simple"><g ><rect codeLine="48" fill="#FFFFFF" height="56.2969"  rx="2.5" ry="2.5" style="stroke:#000000;stroke-width:0.5;" width="131" x="7" y="375.5"/><ellipse cx="22" cy="391.5" fill="#ADD1B2" rx="11" ry="11" style="stroke:#181818;stroke-width:1.0;"/><path d="M24.9688,397.1406 Q24.3906,397.4375 23.75,397.5781 Q23.1094,397.7344 22.4063,397.7344 Q19.9063,397.7344 18.5781,396.0938 Q17.2656,394.4375 17.2656,391.3125 Q17.2656,388.1875 18.5781,386.5313 Q19.9063,384.875 22.4063,384.875 Q23.1094,384.875 23.75,385.0313 Q24.4063,385.1875 24.9688,385.4844 L24.9688,388.2031 Q24.3438,387.625 23.75,387.3594 Q23.1563,387.0781 22.5313,387.0781 Q21.1875,387.0781 20.5,388.1563 Q19.8125,389.2188 19.8125,391.3125 Q19.8125,393.4063 20.5,394.4844 Q21.1875,395.5469 22.5313,395.5469 Q23.1563,395.5469 23.75,395.2813 Q24.3438,395 24.9688,394.4219 L24.9688,397.1406 Z " fill="#000000"/><text fill="#000000" font-family="sans-serif" font-size="14" lengthAdjust="spacing" textLength="99" x="36" y="396.3467">TypePredicate</text><line style="stroke:#000000;stroke-width:0.5;" x1="8" x2="137" y1="407.5" y2="407.5"/><text fill="#000000" font-family="sans-serif" font-size="14" lengthAdjust="spacing" textLength="100" x="13" y="424.4951">type : Type [1]</text></g></a><!--MD5=[d63405fbd0b26157f0cce9a85af9b6b9]
reverse link Element to Argument--><g ><a href="#Element" target="_top" title="#Element" xlink:actuate="onRequest" xlink:href="#Element" xlink:show="new" xlink:title="#Element" xlink:type="simple"><path codeLine="14" d="M1179.01,58.018 C1198.69,117.156 1230.89,241.713 1192.5,337 C1188.14,347.83 1181.03,357.872 1173.14,366.676 " fill="none"  style="stroke:#000000;stroke-width:1.0;"/><polygon fill="none" points="1172.38,60.248,1172.37,39.058,1185.59,55.618,1172.38,60.248" style="stroke:#000000;stroke-width:1.0;"/></a></g><!--MD5=[2467744890ba728f212deba9da78ff49]
link Argument to Literal--><g ><path codeLine="15" d="M1129.5,452.016 C1129.5,452.016 1129.5,488.8276 1129.5,503.6175 " fill="none"  style="stroke:#000000;stroke-width:1.0;"/><polygon fill="#000000" points="1129.5,516.9756,1133.5,507.9756,1129.5,511.9756,1125.5,507.9756,1129.5,516.9756" style="stroke:#000000;stroke-width:1.0;"/><line style="stroke:#000000;stroke-width:1.0;" x1="1129.5" x2="1129.5" y1="511.9756" y2="503.9757"/><polygon fill="#000000" points="1129.5,440.016,1125.5,446.016,1129.5,452.016,1133.5,446.016,1129.5,440.016" style="stroke:#000000;stroke-width:1.0;"/><text fill="#000000" font-family="sans-serif" font-size="13" lengthAdjust="spacing" textLength="35" x="1130.5" y="483.0669">literal</text><text fill="#000000" font-family="sans-serif" font-size="13" lengthAdjust="spacing" textLength="24" x="1101.375" y="505.9788">0..1</text></g><!--MD5=[0ddc261016437ee0d46b1dd5d49c4791]
reverse link Predicate to BinaryPredicate--><g ><a href="#Predicate" target="_top" title="#Predicate" xlink:actuate="onRequest" xlink:href="#Predicate" xlink:show="new" xlink:title="#Predicate" xlink:type="simple"><path codeLine="18" d="M947.967,185.731 C923.38,205.321 896.398,226.82 877.589,241.807 " fill="none"  style="stroke:#000000;stroke-width:1.0;"/><polygon fill="none" points="943.663,180.21,963.668,173.221,952.388,191.159,943.663,180.21" style="stroke:#000000;stroke-width:1.0;"/></a></g><!--MD5=[9a38f67bcc70493671fa6b182e1da530]
link BinaryPredicate to Argument--><g ><path codeLine="19" d="M912.2005,286.6795 C912.2005,286.6795 962.333,308.408 985.5,320 C1009.97,332.243 1036.1,346.754 1059.29,360.167 " fill="none"  style="stroke:#000000;stroke-width:1.0;"/><polygon fill="#000000" points="1070.77,366.854,1065.0064,358.8677,1066.4495,364.3374,1060.9798,365.7805,1070.77,366.854" style="stroke:#000000;stroke-width:1.0;"/><line style="stroke:#000000;stroke-width:1.0;" x1="1066.4495" x2="1059.53" y1="364.3374" y2="360.3105"/><polygon fill="#000000" points="901.132,282.044,905.1211,288.0513,912.2005,286.6795,908.2114,280.6722,901.132,282.044" style="stroke:#000000;stroke-width:1.0;"/><text fill="#000000" font-family="sans-serif" font-size="13" lengthAdjust="spacing" textLength="71" x="1019.5" y="333.0669">argument1</text><text fill="#000000" font-family="sans-serif" font-size="13" lengthAdjust="spacing" textLength="8" x="1051.2042" y="355.8312">1</text></g><!--MD5=[9a38f67bcc70493671fa6b182e1da530]
link BinaryPredicate to Argument--><g ><path codeLine="20" d="M867.7543,292.7454 C867.7543,292.7454 889.28,326.012 904.5,337 C909.127,340.341 952.941,353.341 1000.694,366.89 " fill="none"  style="stroke:#000000;stroke-width:1.0;"/><polygon fill="#000000" points="1013.23,370.434,1005.6578,364.1362,1008.4186,369.0736,1003.4812,371.8344,1013.23,370.434" style="stroke:#000000;stroke-width:1.0;"/><line style="stroke:#000000;stroke-width:1.0;" x1="1008.4186" x2="1000.721" y1="369.0736" y2="366.8975"/><polygon fill="#000000" points="862.059,282.183,861.3858,289.3626,867.7543,292.7454,868.4274,285.5658,862.059,282.183" style="stroke:#000000;stroke-width:1.0;"/><text fill="#000000" font-family="sans-serif" font-size="13" lengthAdjust="spacing" textLength="71" x="905.5" y="333.0669">argument2</text><text fill="#000000" font-family="sans-serif" font-size="13" lengthAdjust="spacing" textLength="8" x="997.5252" y="364.9194">1</text></g><!--MD5=[1acebcaf86d7c7cdf0096e09f3ae8b44]
reverse link Predicate to BuiltInPredicate--><g ><a href="#Predicate" target="_top" title="#Predicate" xlink:actuate="onRequest" xlink:href="#Predicate" xlink:show="new" xlink:title="#Predicate" xlink:type="simple"><path codeLine="24" d="M1043.68,189.853 C1053.9,205.056 1064.64,221.037 1073.35,233.993 " fill="none"  style="stroke:#000000;stroke-width:1.0;"/><polygon fill="none" points="1037.85,193.725,1032.51,173.221,1049.47,185.916,1037.85,193.725" style="stroke:#000000;stroke-width:1.0;"/></a></g><!--MD5=[6257c5504d07b3cf350a9479c5e68374]
link BuiltInPredicate to Argument--><g ><path codeLine="25" d="M1102.0743,301.806 C1102.0743,301.806 1111.72,337.238 1116.27,353.946 " fill="none"  style="stroke:#000000;stroke-width:1.0;"/><polygon fill="#000000" points="1119.8,366.878,1121.2936,357.1431,1118.4857,362.0538,1113.5749,359.2459,1119.8,366.878" style="stroke:#000000;stroke-width:1.0;"/><line style="stroke:#000000;stroke-width:1.0;" x1="1118.4857" x2="1116.38" y1="362.0538" y2="354.335"/><polygon fill="#000000" points="1098.92,290.228,1096.6378,297.0684,1102.0743,301.806,1104.3565,294.9656,1098.92,290.228" style="stroke:#000000;stroke-width:1.0;"/><text fill="#000000" font-family="sans-serif" font-size="13" lengthAdjust="spacing" textLength="70" x="1113.5" y="333.0669">arguments</text><text fill="#000000" font-family="sans-serif" font-size="13" lengthAdjust="spacing" textLength="7" x="1110.3663" y="355.8596">*</text></g><!--MD5=[447570e958721c250e3c3f24e0d25c2b]
reverse link BinaryPredicate to DifferentFromPredicate--><g ><a href="#BinaryPredicate" target="_top" title="#BinaryPredicate" xlink:actuate="onRequest" xlink:href="#BinaryPredicate" xlink:show="new" xlink:title="#BinaryPredicate" xlink:type="simple"><path codeLine="28" d="M785.511,289.419 C714.944,316.84 606.301,359.057 543.646,383.403 " fill="none"  style="stroke:#000000;stroke-width:1.0;"/><polygon fill="none" points="783.158,282.824,804.335,282.104,788.229,295.873,783.158,282.824" style="stroke:#000000;stroke-width:1.0;"/></a></g><!--MD5=[04d44e60fc8375349d1e94c1982da030]
reverse link Element to Predicate--><g ><a href="#Element" target="_top" title="#Element" xlink:actuate="onRequest" xlink:href="#Element" xlink:show="new" xlink:title="#Element" xlink:type="simple"><path codeLine="35" d="M1128.77,50.628 C1107.88,65.371 1081.63,83.892 1058.99,99.867 " fill="none"  style="stroke:#000000;stroke-width:1.0;"/><polygon fill="none" points="1124.81,44.85,1145.19,39.037,1132.89,56.288,1124.81,44.85" style="stroke:#000000;stroke-width:1.0;"/></a></g><!--MD5=[14691f43f7e0b14e387935444826896f]
reverse link BinaryPredicate to PropertyPredicate--><g ><a href="#BinaryPredicate" target="_top" title="#BinaryPredicate" xlink:actuate="onRequest" xlink:href="#BinaryPredicate" xlink:show="new" xlink:title="#BinaryPredicate" xlink:type="simple"><path codeLine="39" d="M766.223,291.05 C752.446,298.648 739.479,308.158 729.5,320 C716.509,335.416 711.112,357.736 708.906,375.274 " fill="none"  style="stroke:#000000;stroke-width:1.0;"/><polygon fill="none" points="763.57,284.557,784.62,282.129,769.679,297.154,763.57,284.557" style="stroke:#000000;stroke-width:1.0;"/></a></g><!--MD5=[c76a16a83bfb6d0f814e60ebf44d6aa3]
reverse link UnaryPredicate to RelationEntityPredicate--><g ><a href="#UnaryPredicate" target="_top" title="#UnaryPredicate" xlink:actuate="onRequest" xlink:href="#UnaryPredicate" xlink:show="new" xlink:title="#UnaryPredicate" xlink:type="simple"><path codeLine="43" d="M390.364,295.581 C362.778,319.784 325.578,352.422 299.562,375.248 " fill="none"  style="stroke:#000000;stroke-width:1.0;"/><polygon fill="none" points="386.075,290.033,405.725,282.104,395.308,300.556,386.075,290.033" style="stroke:#000000;stroke-width:1.0;"/></a></g><!--MD5=[279cbee654e85cfdd74e0a15cad3e12e]
reverse link BinaryPredicate to RelationEntityPredicate--><g ><a href="#BinaryPredicate" target="_top" title="#BinaryPredicate" xlink:actuate="onRequest" xlink:href="#BinaryPredicate" xlink:show="new" xlink:title="#BinaryPredicate" xlink:type="simple"><path codeLine="44" d="M764.163,280.258 C668.824,299.239 513.634,331.76 381.5,367 C371.764,369.597 361.616,372.5 351.569,375.497 " fill="none"  style="stroke:#000000;stroke-width:1.0;"/><polygon fill="none" points="762.881,273.376,783.859,276.36,765.599,287.109,762.881,273.376" style="stroke:#000000;stroke-width:1.0;"/></a></g><!--MD5=[619925213454816b6b3ce783caf9de77]
reverse link BinaryPredicate to SameAsPredicate--><g ><a href="#BinaryPredicate" target="_top" title="#BinaryPredicate" xlink:actuate="onRequest" xlink:href="#BinaryPredicate" xlink:show="new" xlink:title="#BinaryPredicate" xlink:type="simple"><path codeLine="47" d="M864.262,301.573 C867.652,313.041 871.547,325.588 875.5,337 C880.986,352.838 888.046,370.483 893.425,383.465 " fill="none"  style="stroke:#000000;stroke-width:1.0;"/><polygon fill="none" points="857.435,303.16,858.648,282.005,870.892,299.299,857.435,303.16" style="stroke:#000000;stroke-width:1.0;"/></a></g><!--MD5=[2d398bd96da0c59639053732b5d8f0e6]
reverse link UnaryPredicate to TypePredicate--><g ><a href="#UnaryPredicate" target="_top" title="#UnaryPredicate" xlink:actuate="onRequest" xlink:href="#UnaryPredicate" xlink:show="new" xlink:title="#UnaryPredicate" xlink:type="simple"><path codeLine="51" d="M357.063,289.072 C301.975,309.67 223.574,339.44 155.5,367 C148.818,369.705 141.857,372.585 134.933,375.488 " fill="none"  style="stroke:#000000;stroke-width:1.0;"/><polygon fill="none" points="354.695,282.484,375.88,282.054,359.587,295.602,354.695,282.484" style="stroke:#000000;stroke-width:1.0;"/></a></g><!--MD5=[19eb4b0a14bef516a99f05db176da890]
reverse link Predicate to UnaryPredicate--><g ><a href="#Predicate" target="_top" title="#Predicate" xlink:actuate="onRequest" xlink:href="#Predicate" xlink:show="new" xlink:title="#Predicate" xlink:type="simple"><path codeLine="54" d="M883.282,164.117 C764.509,189.364 590.491,226.354 495.518,246.542 " fill="none"  style="stroke:#000000;stroke-width:1.0;"/><polygon fill="none" points="881.93,157.248,902.948,159.937,884.841,170.942,881.93,157.248" style="stroke:#000000;stroke-width:1.0;"/></a></g><!--MD5=[461a770a64fbde406d296e38f07bf76b]
link UnaryPredicate to Argument--><g ><path codeLine="55" d="M507.3397,278.8617 C507.3397,278.8617 708.668,318.114 814.5,337 C894.774,351.325 915.777,349.873 995.5,367 C997.246,367.375 999.004,367.758 1000.771,368.149 " fill="none"  style="stroke:#000000;stroke-width:1.0;"/><polygon fill="#000000" points="1013.45,371.036,1005.5624,365.138,1008.5747,369.9261,1003.7866,372.9384,1013.45,371.036" style="stroke:#000000;stroke-width:1.0;"/><line style="stroke:#000000;stroke-width:1.0;" x1="1008.5747" x2="1000.777" y1="369.9261" y2="368.1505"/><polygon fill="#000000" points="495.566,276.542,500.6796,281.6264,507.3397,278.8617,502.2261,273.7773,495.566,276.542" style="stroke:#000000;stroke-width:1.0;"/><text fill="#000000" font-family="sans-serif" font-size="13" lengthAdjust="spacing" textLength="63" x="815.5" y="333.0669">argument</text><text fill="#000000" font-family="sans-serif" font-size="13" lengthAdjust="spacing" textLength="8" x="997.3873" y="381.4437">1</text></g><!--MD5=[1c619ebe6bec59a296b257f72c561c67]
@startuml
skinparam classBackgroundColor LightGray
skinparam classBorderColor Black
skinparam enumBorderColor Black
skinparam ArrowColor Black
hide methods
class Argument [[#Argument]] #white {
	variable : ID
	instance : NamedInstance [0..1]
}
abstract class Element [[#Element]]
hide Element members
abstract class Literal [[#Literal]]
hide Literal members
Argument -up-|> Element [[#Element]]
Argument *- -> "0..1" Literal : literal
abstract class BinaryPredicate [[#BinaryPredicate]] #white {
}
BinaryPredicate -up-|> Predicate [[#Predicate]]
BinaryPredicate *- -> "1" Argument : argument1
BinaryPredicate *- -> "1" Argument : argument2
class BuiltInPredicate [[#BuiltInPredicate]] #white {
	builtIn : BuiltIn [1]
}
BuiltInPredicate -up-|> Predicate [[#Predicate]]
BuiltInPredicate *- -> "*" Argument : arguments
class DifferentFromPredicate [[#DifferentFromPredicate]] #white {
}
DifferentFromPredicate -up-|> BinaryPredicate [[#BinaryPredicate]]
abstract class Predicate [[#Predicate]] #white {
	antecedentRule : Rule [0..1]
	consequentRule : Rule [0..1]
}
abstract class Element [[#Element]]
hide Element members
Predicate -up-|> Element [[#Element]]
class PropertyPredicate [[#PropertyPredicate]] #white {
	property : Property [1]
}
PropertyPredicate -up-|> BinaryPredicate [[#BinaryPredicate]]
class RelationEntityPredicate [[#RelationEntityPredicate]] #white {
	type : RelationEntity [1]
}
RelationEntityPredicate -up-|> UnaryPredicate [[#UnaryPredicate]]
RelationEntityPredicate -up-|> BinaryPredicate [[#BinaryPredicate]]
class SameAsPredicate [[#SameAsPredicate]] #white {
}
SameAsPredicate -up-|> BinaryPredicate [[#BinaryPredicate]]
class TypePredicate [[#TypePredicate]] #white {
	type : Type [1]
}
TypePredicate -up-|> UnaryPredicate [[#UnaryPredicate]]
abstract class UnaryPredicate [[#UnaryPredicate]] #white {
}
UnaryPredicate -up-|> Predicate [[#Predicate]]
UnaryPredicate *- -> "1" Argument : argument
@enduml

PlantUML version 1.2022.12(Sun Oct 23 18:12:26 UTC 2022)
(GPL source distribution)
Java Runtime: OpenJDK Runtime Environment
JVM: OpenJDK 64-Bit Server VM
Default Encoding: UTF-8
Language: en
Country: US
--></g></svg>
