<?xml version="1.0" encoding="UTF-8" standalone="no"?><svg xmlns="http://www.w3.org/2000/svg" xmlns:xlink="http://www.w3.org/1999/xlink" contentStyleType="text/css" height="482px" preserveAspectRatio="none" style="width:1254px;height:482px;background:#FFFFFF;" version="1.1" viewBox="0 0 1254 482" width="1254px" zoomAndPan="magnify"><defs/><g><!--MD5=[009695af4e54f3bba8a9c60dca3e1c94]
class Description--><a href="#Description" target="_top" title="#Description" xlink:actuate="onRequest" xlink:href="#Description" xlink:show="new" xlink:title="#Description" xlink:type="simple"><g ><rect codeLine="6" fill="#FFFFFF" height="40"  rx="2.5" ry="2.5" style="stroke:#000000;stroke-width:0.5;" width="110" x="776.5" y="201"/><ellipse cx="791.5" cy="217" fill="#ADD1B2" rx="11" ry="11" style="stroke:#181818;stroke-width:1.0;"/><path d="M793.9731,223.1431 Q793.3921,223.4419 792.7529,223.5913 Q792.1138,223.7407 791.4082,223.7407 Q788.9014,223.7407 787.5815,222.0889 Q786.2617,220.437 786.2617,217.3159 Q786.2617,214.1865 787.5815,212.5347 Q788.9014,210.8828 791.4082,210.8828 Q792.1138,210.8828 792.7612,211.0322 Q793.4087,211.1816 793.9731,211.4805 L793.9731,214.2031 Q793.3423,213.6221 792.7488,213.3523 Q792.1553,213.0825 791.5244,213.0825 Q790.1797,213.0825 789.4949,214.1492 Q788.8101,215.2158 788.8101,217.3159 Q788.8101,219.4077 789.4949,220.4744 Q790.1797,221.541 791.5244,221.541 Q792.1553,221.541 792.7488,221.2712 Q793.3423,221.0015 793.9731,220.4204 Z " fill="#000000"/><text fill="#000000" font-family="sans-serif" font-size="14" lengthAdjust="spacing" textLength="78" x="805.5" y="222.291">Description</text><line style="stroke:#000000;stroke-width:0.5;" x1="777.5" x2="885.5" y1="233" y2="233"/></g></a><!--MD5=[52626754adfadc2fc4fd887a7e4d2521]
class DescriptionBox--><a href="#DescriptionBox" target="_top" title="#DescriptionBox" xlink:actuate="onRequest" xlink:href="#DescriptionBox" xlink:show="new" xlink:title="#DescriptionBox" xlink:type="simple"><g ><rect codeLine="11" fill="#FFFFFF" height="40"  rx="2.5" ry="2.5" style="stroke:#000000;stroke-width:0.5;" width="136" x="601.5" y="100"/><ellipse cx="616.5" cy="116" fill="#A9DCDF" rx="11" ry="11" style="stroke:#181818;stroke-width:1.0;"/><path d="M616.3633,111.3481 L615.2095,116.4199 L617.5254,116.4199 Z M614.8691,109.1069 L617.8657,109.1069 L621.2109,121.5 L618.7622,121.5 L617.9985,118.437 L614.7197,118.437 L613.9727,121.5 L611.5239,121.5 Z " fill="#000000"/><text fill="#000000" font-family="sans-serif" font-size="14" font-style="italic" lengthAdjust="spacing" textLength="104" x="630.5" y="121.291">DescriptionBox</text><line style="stroke:#000000;stroke-width:0.5;" x1="602.5" x2="736.5" y1="132" y2="132"/></g></a><!--MD5=[edd8e7ace77c2d16a83e6fb3fb424911]
class DescriptionImport--><a href="#DescriptionImport" target="_top" title="#DescriptionImport" xlink:actuate="onRequest" xlink:href="#DescriptionImport" xlink:show="new" xlink:title="#DescriptionImport" xlink:type="simple"><g ><rect codeLine="38" fill="#FFFFFF" height="56.4883"  rx="2.5" ry="2.5" style="stroke:#000000;stroke-width:0.5;" width="254" x="704.5" y="318"/><ellipse cx="765.25" cy="334" fill="#A9DCDF" rx="11" ry="11" style="stroke:#181818;stroke-width:1.0;"/><path d="M765.1133,329.3481 L763.9595,334.4199 L766.2754,334.4199 Z M763.6191,327.1069 L766.6157,327.1069 L769.9609,339.5 L767.5122,339.5 L766.7485,336.437 L763.4697,336.437 L762.7227,339.5 L760.2739,339.5 Z " fill="#000000"/><text fill="#000000" font-family="sans-serif" font-size="14" font-style="italic" lengthAdjust="spacing" textLength="124" x="785.75" y="339.291">DescriptionImport</text><line style="stroke:#000000;stroke-width:0.5;" x1="705.5" x2="957.5" y1="350" y2="350"/><text fill="#000000" font-family="sans-serif" font-size="14" lengthAdjust="spacing" textLength="242" x="710.5" y="367.5352">owningDescription : Description [1]</text></g></a><!--MD5=[7fd9f8b5a256c0fcfd7e466c0d831b0f]
class DescriptionStatement--><a href="#DescriptionStatement" target="_top" title="#DescriptionStatement" xlink:actuate="onRequest" xlink:href="#DescriptionStatement" xlink:show="new" xlink:title="#DescriptionStatement" xlink:type="simple"><g ><rect codeLine="44" fill="#FFFFFF" height="56.4883"  rx="2.5" ry="2.5" style="stroke:#000000;stroke-width:0.5;" width="254" x="993.5" y="318"/><ellipse cx="1042.75" cy="334" fill="#A9DCDF" rx="11" ry="11" style="stroke:#181818;stroke-width:1.0;"/><path d="M1042.6133,329.3481 L1041.4595,334.4199 L1043.7754,334.4199 Z M1041.1191,327.1069 L1044.1157,327.1069 L1047.4609,339.5 L1045.0122,339.5 L1044.2485,336.437 L1040.9697,336.437 L1040.2227,339.5 L1037.7739,339.5 Z " fill="#000000"/><text fill="#000000" font-family="sans-serif" font-size="14" font-style="italic" lengthAdjust="spacing" textLength="147" x="1063.25" y="339.291">DescriptionStatement</text><line style="stroke:#000000;stroke-width:0.5;" x1="994.5" x2="1246.5" y1="350" y2="350"/><text fill="#000000" font-family="sans-serif" font-size="14" lengthAdjust="spacing" textLength="242" x="999.5" y="367.5352">owningDescription : Description [1]</text></g></a><!--MD5=[5dfd8d6a6d713da886d1ef2bfe78f203]
class Ontology--><a href="#Ontology" target="_top" title="#Ontology" xlink:actuate="onRequest" xlink:href="#Ontology" xlink:show="new" xlink:title="#Ontology" xlink:type="simple"><g ><rect codeLine="13" fill="#D3D3D3" height="32"  rx="2.5" ry="2.5" style="stroke:#000000;stroke-width:0.5;" width="95" x="622" y="7"/><ellipse cx="637" cy="23" fill="#A9DCDF" rx="11" ry="11" style="stroke:#181818;stroke-width:1.0;"/><path d="M636.8633,18.3481 L635.7095,23.4199 L638.0254,23.4199 Z M635.3691,16.1069 L638.3657,16.1069 L641.7109,28.5 L639.2622,28.5 L638.4985,25.437 L635.2197,25.437 L634.4727,28.5 L632.0239,28.5 Z " fill="#000000"/><text fill="#000000" font-family="sans-serif" font-size="14" font-style="italic" lengthAdjust="spacing" textLength="63" x="651" y="28.291">Ontology</text></g></a><!--MD5=[da45f90597a77104ad17006f885f436f]
class DescriptionBundle--><a href="#DescriptionBundle" target="_top" title="#DescriptionBundle" xlink:actuate="onRequest" xlink:href="#DescriptionBundle" xlink:show="new" xlink:title="#DescriptionBundle" xlink:type="simple"><g ><rect codeLine="16" fill="#FFFFFF" height="40"  rx="2.5" ry="2.5" style="stroke:#000000;stroke-width:0.5;" width="157" x="451" y="201"/><ellipse cx="466" cy="217" fill="#ADD1B2" rx="11" ry="11" style="stroke:#181818;stroke-width:1.0;"/><path d="M468.4731,223.1431 Q467.8921,223.4419 467.2529,223.5913 Q466.6138,223.7407 465.9082,223.7407 Q463.4014,223.7407 462.0815,222.0889 Q460.7617,220.437 460.7617,217.3159 Q460.7617,214.1865 462.0815,212.5347 Q463.4014,210.8828 465.9082,210.8828 Q466.6138,210.8828 467.2612,211.0322 Q467.9087,211.1816 468.4731,211.4805 L468.4731,214.2031 Q467.8423,213.6221 467.2488,213.3523 Q466.6553,213.0825 466.0244,213.0825 Q464.6797,213.0825 463.9949,214.1492 Q463.3101,215.2158 463.3101,217.3159 Q463.3101,219.4077 463.9949,220.4744 Q464.6797,221.541 466.0244,221.541 Q466.6553,221.541 467.2488,221.2712 Q467.8423,221.0015 468.4731,220.4204 Z " fill="#000000"/><text fill="#000000" font-family="sans-serif" font-size="14" lengthAdjust="spacing" textLength="125" x="480" y="222.291">DescriptionBundle</text><line style="stroke:#000000;stroke-width:0.5;" x1="452" x2="607" y1="233" y2="233"/></g></a><!--MD5=[214a82b9c60b6cf276533fc0baf6259d]
class DescriptionBundleImport--><a href="#DescriptionBundleImport" target="_top" title="#DescriptionBundleImport" xlink:actuate="onRequest" xlink:href="#DescriptionBundleImport" xlink:show="new" xlink:title="#DescriptionBundleImport" xlink:type="simple"><g ><rect codeLine="23" fill="#FFFFFF" height="56.4883"  rx="2.5" ry="2.5" style="stroke:#000000;stroke-width:0.5;" width="348" x="321.5" y="318"/><ellipse cx="405.75" cy="334" fill="#A9DCDF" rx="11" ry="11" style="stroke:#181818;stroke-width:1.0;"/><path d="M405.6133,329.3481 L404.4595,334.4199 L406.7754,334.4199 Z M404.1191,327.1069 L407.1157,327.1069 L410.4609,339.5 L408.0122,339.5 L407.2485,336.437 L403.9697,336.437 L403.2227,339.5 L400.7739,339.5 Z " fill="#000000"/><text fill="#000000" font-family="sans-serif" font-size="14" font-style="italic" lengthAdjust="spacing" textLength="171" x="426.25" y="339.291">DescriptionBundleImport</text><line style="stroke:#000000;stroke-width:0.5;" x1="322.5" x2="668.5" y1="350" y2="350"/><text fill="#000000" font-family="sans-serif" font-size="14" lengthAdjust="spacing" textLength="336" x="327.5" y="367.5352">owningDescriptionBundle : DescriptionBundle [1]</text></g></a><!--MD5=[66733139f2a191cb8c59912d009bbcd1]
class DescriptionBundleExtension--><a href="#DescriptionBundleExtension" target="_top" title="#DescriptionBundleExtension" xlink:actuate="onRequest" xlink:href="#DescriptionBundleExtension" xlink:show="new" xlink:title="#DescriptionBundleExtension" xlink:type="simple"><g ><rect codeLine="20" fill="#FFFFFF" height="40"  rx="2.5" ry="2.5" style="stroke:#000000;stroke-width:0.5;" width="225" x="7" y="435"/><ellipse cx="22" cy="451" fill="#ADD1B2" rx="11" ry="11" style="stroke:#181818;stroke-width:1.0;"/><path d="M24.4731,457.1431 Q23.8921,457.4419 23.2529,457.5913 Q22.6138,457.7407 21.9082,457.7407 Q19.4014,457.7407 18.0815,456.0889 Q16.7617,454.437 16.7617,451.3159 Q16.7617,448.1865 18.0815,446.5347 Q19.4014,444.8828 21.9082,444.8828 Q22.6138,444.8828 23.2612,445.0322 Q23.9087,445.1816 24.4731,445.4805 L24.4731,448.2031 Q23.8423,447.6221 23.2488,447.3523 Q22.6553,447.0825 22.0244,447.0825 Q20.6797,447.0825 19.9949,448.1492 Q19.3101,449.2158 19.3101,451.3159 Q19.3101,453.4077 19.9949,454.4744 Q20.6797,455.541 22.0244,455.541 Q22.6553,455.541 23.2488,455.2712 Q23.8423,455.0015 24.4731,454.4204 Z " fill="#000000"/><text fill="#000000" font-family="sans-serif" font-size="14" lengthAdjust="spacing" textLength="193" x="36" y="456.291">DescriptionBundleExtension</text><line style="stroke:#000000;stroke-width:0.5;" x1="8" x2="231" y1="467" y2="467"/></g></a><!--MD5=[f9bb3094b6d6f786926c56d9e97ecd1b]
class Import--><a href="#Import" target="_top" title="#Import" xlink:actuate="onRequest" xlink:href="#Import" xlink:show="new" xlink:title="#Import" xlink:type="simple"><g ><rect codeLine="41" fill="#D3D3D3" height="32"  rx="2.5" ry="2.5" style="stroke:#000000;stroke-width:0.5;" width="78" x="656.5" y="205"/><ellipse cx="671.5" cy="221" fill="#A9DCDF" rx="11" ry="11" style="stroke:#181818;stroke-width:1.0;"/><path d="M671.3633,216.3481 L670.2095,221.4199 L672.5254,221.4199 Z M669.8691,214.1069 L672.8657,214.1069 L676.2109,226.5 L673.7622,226.5 L672.9985,223.437 L669.7197,223.437 L668.9727,226.5 L666.5239,226.5 Z " fill="#000000"/><text fill="#000000" font-family="sans-serif" font-size="14" font-style="italic" lengthAdjust="spacing" textLength="46" x="685.5" y="226.291">Import</text></g></a><!--MD5=[9cffe0dc5bfb9b15c40233ae4d18410a]
class DescriptionBundleInclusion--><a href="#DescriptionBundleInclusion" target="_top" title="#DescriptionBundleInclusion" xlink:actuate="onRequest" xlink:href="#DescriptionBundleInclusion" xlink:show="new" xlink:title="#DescriptionBundleInclusion" xlink:type="simple"><g ><rect codeLine="29" fill="#FFFFFF" height="40"  rx="2.5" ry="2.5" style="stroke:#000000;stroke-width:0.5;" width="219" x="267" y="435"/><ellipse cx="282" cy="451" fill="#ADD1B2" rx="11" ry="11" style="stroke:#181818;stroke-width:1.0;"/><path d="M284.4731,457.1431 Q283.8921,457.4419 283.2529,457.5913 Q282.6138,457.7407 281.9082,457.7407 Q279.4014,457.7407 278.0815,456.0889 Q276.7617,454.437 276.7617,451.3159 Q276.7617,448.1865 278.0815,446.5347 Q279.4014,444.8828 281.9082,444.8828 Q282.6138,444.8828 283.2612,445.0322 Q283.9087,445.1816 284.4731,445.4805 L284.4731,448.2031 Q283.8423,447.6221 283.2488,447.3523 Q282.6553,447.0825 282.0244,447.0825 Q280.6797,447.0825 279.9949,448.1492 Q279.3101,449.2158 279.3101,451.3159 Q279.3101,453.4077 279.9949,454.4744 Q280.6797,455.541 282.0244,455.541 Q282.6553,455.541 283.2488,455.2712 Q283.8423,455.0015 284.4731,454.4204 Z " fill="#000000"/><text fill="#000000" font-family="sans-serif" font-size="14" lengthAdjust="spacing" textLength="187" x="296" y="456.291">DescriptionBundleInclusion</text><line style="stroke:#000000;stroke-width:0.5;" x1="268" x2="485" y1="467" y2="467"/></g></a><!--MD5=[d3de6ad09cf9fa8a4a16a313d2fdb19d]
class DescriptionBundleUsage--><a href="#DescriptionBundleUsage" target="_top" title="#DescriptionBundleUsage" xlink:actuate="onRequest" xlink:href="#DescriptionBundleUsage" xlink:show="new" xlink:title="#DescriptionBundleUsage" xlink:type="simple"><g ><rect codeLine="32" fill="#FFFFFF" height="40"  rx="2.5" ry="2.5" style="stroke:#000000;stroke-width:0.5;" width="199" x="521" y="435"/><ellipse cx="536" cy="451" fill="#ADD1B2" rx="11" ry="11" style="stroke:#181818;stroke-width:1.0;"/><path d="M538.4731,457.1431 Q537.8921,457.4419 537.2529,457.5913 Q536.6138,457.7407 535.9082,457.7407 Q533.4014,457.7407 532.0815,456.0889 Q530.7617,454.437 530.7617,451.3159 Q530.7617,448.1865 532.0815,446.5347 Q533.4014,444.8828 535.9082,444.8828 Q536.6138,444.8828 537.2612,445.0322 Q537.9087,445.1816 538.4731,445.4805 L538.4731,448.2031 Q537.8423,447.6221 537.2488,447.3523 Q536.6553,447.0825 536.0244,447.0825 Q534.6797,447.0825 533.9949,448.1492 Q533.3101,449.2158 533.3101,451.3159 Q533.3101,453.4077 533.9949,454.4744 Q534.6797,455.541 536.0244,455.541 Q536.6553,455.541 537.2488,455.2712 Q537.8423,455.0015 538.4731,454.4204 Z " fill="#000000"/><text fill="#000000" font-family="sans-serif" font-size="14" lengthAdjust="spacing" textLength="167" x="550" y="456.291">DescriptionBundleUsage</text><line style="stroke:#000000;stroke-width:0.5;" x1="522" x2="719" y1="467" y2="467"/></g></a><!--MD5=[547386089b95f1c4a52e3a3d61b6c1ea]
class DescriptionExtension--><a href="#DescriptionExtension" target="_top" title="#DescriptionExtension" xlink:actuate="onRequest" xlink:href="#DescriptionExtension" xlink:show="new" xlink:title="#DescriptionExtension" xlink:type="simple"><g ><rect codeLine="35" fill="#FFFFFF" height="40"  rx="2.5" ry="2.5" style="stroke:#000000;stroke-width:0.5;" width="178" x="942.5" y="435"/><ellipse cx="957.5" cy="451" fill="#ADD1B2" rx="11" ry="11" style="stroke:#181818;stroke-width:1.0;"/><path d="M959.9731,457.1431 Q959.3921,457.4419 958.7529,457.5913 Q958.1138,457.7407 957.4082,457.7407 Q954.9014,457.7407 953.5815,456.0889 Q952.2617,454.437 952.2617,451.3159 Q952.2617,448.1865 953.5815,446.5347 Q954.9014,444.8828 957.4082,444.8828 Q958.1138,444.8828 958.7612,445.0322 Q959.4087,445.1816 959.9731,445.4805 L959.9731,448.2031 Q959.3423,447.6221 958.7488,447.3523 Q958.1553,447.0825 957.5244,447.0825 Q956.1797,447.0825 955.4949,448.1492 Q954.8101,449.2158 954.8101,451.3159 Q954.8101,453.4077 955.4949,454.4744 Q956.1797,455.541 957.5244,455.541 Q958.1553,455.541 958.7488,455.2712 Q959.3423,455.0015 959.9731,454.4204 Z " fill="#000000"/><text fill="#000000" font-family="sans-serif" font-size="14" lengthAdjust="spacing" textLength="146" x="971.5" y="456.291">DescriptionExtension</text><line style="stroke:#000000;stroke-width:0.5;" x1="943.5" x2="1119.5" y1="467" y2="467"/></g></a><!--MD5=[a61a298976b7d1d94498f45c2ebfa10b]
class Statement--><a href="#Statement" target="_top" title="#Statement" xlink:actuate="onRequest" xlink:href="#Statement" xlink:show="new" xlink:title="#Statement" xlink:type="simple"><g ><rect codeLine="47" fill="#D3D3D3" height="32"  rx="2.5" ry="2.5" style="stroke:#000000;stroke-width:0.5;" width="101" x="1070" y="205"/><ellipse cx="1085" cy="221" fill="#A9DCDF" rx="11" ry="11" style="stroke:#181818;stroke-width:1.0;"/><path d="M1084.8633,216.3481 L1083.7095,221.4199 L1086.0254,221.4199 Z M1083.3691,214.1069 L1086.3657,214.1069 L1089.7109,226.5 L1087.2622,226.5 L1086.4985,223.437 L1083.2197,223.437 L1082.4727,226.5 L1080.0239,226.5 Z " fill="#000000"/><text fill="#000000" font-family="sans-serif" font-size="14" font-style="italic" lengthAdjust="spacing" textLength="69" x="1099" y="226.291">Statement</text></g></a><!--MD5=[f6924a600582a5f10e9a3566907d052a]
class DescriptionUsage--><a href="#DescriptionUsage" target="_top" title="#DescriptionUsage" xlink:actuate="onRequest" xlink:href="#DescriptionUsage" xlink:show="new" xlink:title="#DescriptionUsage" xlink:type="simple"><g ><rect codeLine="50" fill="#FFFFFF" height="40"  rx="2.5" ry="2.5" style="stroke:#000000;stroke-width:0.5;" width="152" x="755.5" y="435"/><ellipse cx="770.5" cy="451" fill="#ADD1B2" rx="11" ry="11" style="stroke:#181818;stroke-width:1.0;"/><path d="M772.9731,457.1431 Q772.3921,457.4419 771.7529,457.5913 Q771.1138,457.7407 770.4082,457.7407 Q767.9014,457.7407 766.5815,456.0889 Q765.2617,454.437 765.2617,451.3159 Q765.2617,448.1865 766.5815,446.5347 Q767.9014,444.8828 770.4082,444.8828 Q771.1138,444.8828 771.7612,445.0322 Q772.4087,445.1816 772.9731,445.4805 L772.9731,448.2031 Q772.3423,447.6221 771.7488,447.3523 Q771.1553,447.0825 770.5244,447.0825 Q769.1797,447.0825 768.4949,448.1492 Q767.8101,449.2158 767.8101,451.3159 Q767.8101,453.4077 768.4949,454.4744 Q769.1797,455.541 770.5244,455.541 Q771.1553,455.541 771.7488,455.2712 Q772.3423,455.0015 772.9731,454.4204 Z " fill="#000000"/><text fill="#000000" font-family="sans-serif" font-size="14" lengthAdjust="spacing" textLength="120" x="784.5" y="456.291">DescriptionUsage</text><line style="stroke:#000000;stroke-width:0.5;" x1="756.5" x2="906.5" y1="467" y2="467"/></g></a><!--MD5=[a5925c5904e6bc1bf7b47a3a5f1bad8b]
reverse link DescriptionBox to Description--><g ><a href="#DescriptionBox" target="_top" title="#DescriptionBox" xlink:actuate="onRequest" xlink:href="#DescriptionBox" xlink:show="new" xlink:title="#DescriptionBox" xlink:type="simple"><path codeLine="8" d="M719.1,151.31 C745.32,167.34 776.74,186.54 799.68,200.56 " fill="none"  style="stroke:#000000;stroke-width:1.0;"/><polygon fill="none" points="715.83,157.51,702.41,141.11,723.13,145.57,715.83,157.51" style="stroke:#000000;stroke-width:1.0;"/></a></g><!--MD5=[47f394ceef0558c27e1069633c7afa27]
link Description to DescriptionImport--><g ><path codeLine="9" d="M831.5,255 C831.5,255 831.5,288.16 831.5,303.68 " fill="none"  style="stroke:#000000;stroke-width:1.0;"/><polygon fill="#000000" points="831.5,316.31,835.5,307.31,831.5,311.31,827.5,307.31,831.5,316.31" style="stroke:#000000;stroke-width:1.0;"/><line style="stroke:#000000;stroke-width:1.0;" x1="831.5" x2="831.5" y1="311.31" y2="303.31"/><polygon fill="#000000" points="831.5,243,827.5,249,831.5,255,835.5,249,831.5,243" style="stroke:#000000;stroke-width:1.0;"/><text fill="#000000" font-family="sans-serif" font-size="13" lengthAdjust="spacing" textLength="90" x="832.5" y="284.5684">ownedImports</text><text fill="#000000" font-family="sans-serif" font-size="13" lengthAdjust="spacing" textLength="6" x="824.8063" y="307.1291">*</text></g><!--MD5=[fdb1f87bf0b55aa31d8e3a604ce6b3f0]
link Description to DescriptionStatement--><g ><path codeLine="10" d="M889.7327,246.7768 C889.7327,246.7768 995.1,291.63 1042.97,312 " fill="none"  style="stroke:#000000;stroke-width:1.0;"/><polygon fill="#000000" points="1054.72,317.01,1048.0036,309.8065,1050.1189,315.053,1044.8724,317.1683,1054.72,317.01" style="stroke:#000000;stroke-width:1.0;"/><line style="stroke:#000000;stroke-width:1.0;" x1="1050.1189" x2="1042.76" y1="315.053" y2="311.915"/><polygon fill="#000000" points="878.69,242.08,882.6457,248.1093,889.7327,246.7768,885.7769,240.7475,878.69,242.08" style="stroke:#000000;stroke-width:1.0;"/><text fill="#000000" font-family="sans-serif" font-size="13" lengthAdjust="spacing" textLength="111" x="986.5" y="284.5684">ownedStatements</text><text fill="#000000" font-family="sans-serif" font-size="13" lengthAdjust="spacing" textLength="6" x="1035.3806" y="307.2958">*</text></g><!--MD5=[0cd670a1fe76cb89dd8ccbe96135179c]
reverse link Ontology to DescriptionBox--><g ><a href="#Ontology" target="_top" title="#Ontology" xlink:actuate="onRequest" xlink:href="#Ontology" xlink:show="new" xlink:title="#Ontology" xlink:type="simple"><path codeLine="15" d="M669.5,60.46 C669.5,73.88 669.5,88.54 669.5,99.84 " fill="none"  style="stroke:#000000;stroke-width:1.0;"/><polygon fill="none" points="662.5,60.78,669.5,40.78,676.5,60.78,662.5,60.78" style="stroke:#000000;stroke-width:1.0;"/></a></g><!--MD5=[e0dd647b598b88418debe210a3694f0a]
reverse link DescriptionBox to DescriptionBundle--><g ><a href="#DescriptionBox" target="_top" title="#DescriptionBox" xlink:actuate="onRequest" xlink:href="#DescriptionBox" xlink:show="new" xlink:title="#DescriptionBox" xlink:type="simple"><path codeLine="18" d="M624.92,152.53 C602.52,168.36 576.11,187.04 556.76,200.73 " fill="none"  style="stroke:#000000;stroke-width:1.0;"/><polygon fill="none" points="620.57,147.03,640.94,141.2,628.65,158.46,620.57,147.03" style="stroke:#000000;stroke-width:1.0;"/></a></g><!--MD5=[bccaad88c152566bda14efe4f7096b37]
link DescriptionBundle to DescriptionBundleImport--><g ><path codeLine="19" d="M520.518,254.5177 C520.518,254.5177 511.2,288.21 506.83,304.02 " fill="none"  style="stroke:#000000;stroke-width:1.0;"/><polygon fill="#000000" points="503.41,316.37,509.6599,308.7582,504.74,311.5501,501.9481,306.6302,503.41,316.37" style="stroke:#000000;stroke-width:1.0;"/><line style="stroke:#000000;stroke-width:1.0;" x1="504.74" x2="506.875" y1="311.5501" y2="303.84"/><polygon fill="#000000" points="523.71,242.95,518.2581,247.6698,520.518,254.5177,525.9699,249.7978,523.71,242.95" style="stroke:#000000;stroke-width:1.0;"/><text fill="#000000" font-family="sans-serif" font-size="13" lengthAdjust="spacing" textLength="90" x="517.5" y="284.5684">ownedImports</text><text fill="#000000" font-family="sans-serif" font-size="13" lengthAdjust="spacing" textLength="6" x="498.0529" y="307.1291">*</text></g><!--MD5=[d8d4d7e7356c5632f3a1c9716de64390]
reverse link DescriptionBundleImport to DescriptionBundleExtension--><g ><a href="#DescriptionBundleImport" target="_top" title="#DescriptionBundleImport" xlink:actuate="onRequest" xlink:href="#DescriptionBundleImport" xlink:show="new" xlink:title="#DescriptionBundleImport" xlink:type="simple"><path codeLine="22" d="M378.47,380.3 C315.93,398.1 241.11,419.39 188.01,434.51 " fill="none"  style="stroke:#000000;stroke-width:1.0;"/><polygon fill="none" points="376.55,373.57,397.7,374.83,380.38,387.04,376.55,373.57" style="stroke:#000000;stroke-width:1.0;"/></a></g><!--MD5=[027a23f855dc475fef4402920116c096]
reverse link Import to DescriptionBundleImport--><g ><a href="#Import" target="_top" title="#Import" xlink:actuate="onRequest" xlink:href="#Import" xlink:show="new" xlink:title="#Import" xlink:type="simple"><path codeLine="28" d="M663.77,251.7 C649.89,263.83 633.02,277.45 616.5,288 C599.37,298.93 579.82,309.05 561.5,317.63 " fill="none"  style="stroke:#000000;stroke-width:1.0;"/><polygon fill="none" points="658.86,246.71,678.39,238.49,668.24,257.09,658.86,246.71" style="stroke:#000000;stroke-width:1.0;"/></a></g><!--MD5=[e889fdd99604899c85f92135b296213a]
reverse link DescriptionBundleImport to DescriptionBundleInclusion--><g ><a href="#DescriptionBundleImport" target="_top" title="#DescriptionBundleImport" xlink:actuate="onRequest" xlink:href="#DescriptionBundleImport" xlink:show="new" xlink:title="#DescriptionBundleImport" xlink:type="simple"><path codeLine="31" d="M449.31,388.53 C431.69,404.37 412.43,421.69 398.14,434.54 " fill="none"  style="stroke:#000000;stroke-width:1.0;"/><polygon fill="none" points="444.49,383.46,464.04,375.29,453.85,393.87,444.49,383.46" style="stroke:#000000;stroke-width:1.0;"/></a></g><!--MD5=[6e8308c6fbcbdd1503c2b83cc64358d0]
reverse link DescriptionBundleImport to DescriptionBundleUsage--><g ><a href="#DescriptionBundleImport" target="_top" title="#DescriptionBundleImport" xlink:actuate="onRequest" xlink:href="#DescriptionBundleImport" xlink:show="new" xlink:title="#DescriptionBundleImport" xlink:type="simple"><path codeLine="34" d="M543.45,388.04 C562.11,404.02 582.61,421.56 597.76,434.54 " fill="none"  style="stroke:#000000;stroke-width:1.0;"/><polygon fill="none" points="539.16,393.59,528.52,375.26,548.26,382.95,539.16,393.59" style="stroke:#000000;stroke-width:1.0;"/></a></g><!--MD5=[ac146dd61a90783172f5e721998e55e1]
reverse link DescriptionImport to DescriptionExtension--><g ><a href="#DescriptionImport" target="_top" title="#DescriptionImport" xlink:actuate="onRequest" xlink:href="#DescriptionImport" xlink:show="new" xlink:title="#DescriptionImport" xlink:type="simple"><path codeLine="37" d="M901.7,384.56 C933.26,401.44 969.18,420.66 995.22,434.59 " fill="none"  style="stroke:#000000;stroke-width:1.0;"/><polygon fill="none" points="898.41,390.74,884.08,375.13,905.02,378.39,898.41,390.74" style="stroke:#000000;stroke-width:1.0;"/></a></g><!--MD5=[d6cd55840b605cf5d787ac04f8bdd807]
reverse link Import to DescriptionImport--><g ><a href="#Import" target="_top" title="#Import" xlink:actuate="onRequest" xlink:href="#Import" xlink:show="new" xlink:title="#Import" xlink:type="simple"><path codeLine="43" d="M728.14,251.52 C750.31,271.57 779.42,297.9 801.1,317.51 " fill="none"  style="stroke:#000000;stroke-width:1.0;"/><polygon fill="none" points="723.71,256.95,713.57,238.34,733.1,246.57,723.71,256.95" style="stroke:#000000;stroke-width:1.0;"/></a></g><!--MD5=[6720aec0acdbf85df6c6dcdb77875b90]
reverse link Statement to DescriptionStatement--><g ><a href="#Statement" target="_top" title="#Statement" xlink:actuate="onRequest" xlink:href="#Statement" xlink:show="new" xlink:title="#Statement" xlink:type="simple"><path codeLine="49" d="M1120.5,258.63 C1120.5,277.6 1120.5,300.35 1120.5,317.75 " fill="none"  style="stroke:#000000;stroke-width:1.0;"/><polygon fill="none" points="1113.5,258.84,1120.5,238.84,1127.5,258.84,1113.5,258.84" style="stroke:#000000;stroke-width:1.0;"/></a></g><!--MD5=[d1bd84c97d1c771e71f3312336267320]
reverse link DescriptionImport to DescriptionUsage--><g ><a href="#DescriptionImport" target="_top" title="#DescriptionImport" xlink:actuate="onRequest" xlink:href="#DescriptionImport" xlink:show="new" xlink:title="#DescriptionImport" xlink:type="simple"><path codeLine="52" d="M831.5,395.68 C831.5,409.43 831.5,423.6 831.5,434.54 " fill="none"  style="stroke:#000000;stroke-width:1.0;"/><polygon fill="none" points="824.5,395.79,831.5,375.79,838.5,395.79,824.5,395.79" style="stroke:#000000;stroke-width:1.0;"/></a></g><!--MD5=[f6c597bf6f8537995ca112c192cc6810]
@startuml
skinparam classBackgroundColor LightGray
skinparam classBorderColor Black
skinparam enumBorderColor Black
skinparam ArrowColor Black
hide methods
class Description [[#Description]] #white {
}
Description -up-|> DescriptionBox [[#DescriptionBox]]
Description *- -> "*" DescriptionImport : ownedImports
Description *- -> "*" DescriptionStatement : ownedStatements
abstract class DescriptionBox [[#DescriptionBox]] #white {
}
abstract class Ontology [[#Ontology]]
hide Ontology members
DescriptionBox -up-|> Ontology [[#Ontology]]
class DescriptionBundle [[#DescriptionBundle]] #white {
}
DescriptionBundle -up-|> DescriptionBox [[#DescriptionBox]]
DescriptionBundle *- -> "*" DescriptionBundleImport : ownedImports
class DescriptionBundleExtension [[#DescriptionBundleExtension]] #white {
}
DescriptionBundleExtension -up-|> DescriptionBundleImport [[#DescriptionBundleImport]]
abstract class DescriptionBundleImport [[#DescriptionBundleImport]] #white {
	owningDescriptionBundle : DescriptionBundle [1]
}
abstract class Import [[#Import]]
hide Import members
DescriptionBundleImport -up-|> Import [[#Import]]
class DescriptionBundleInclusion [[#DescriptionBundleInclusion]] #white {
}
DescriptionBundleInclusion -up-|> DescriptionBundleImport [[#DescriptionBundleImport]]
class DescriptionBundleUsage [[#DescriptionBundleUsage]] #white {
}
DescriptionBundleUsage -up-|> DescriptionBundleImport [[#DescriptionBundleImport]]
class DescriptionExtension [[#DescriptionExtension]] #white {
}
DescriptionExtension -up-|> DescriptionImport [[#DescriptionImport]]
abstract class DescriptionImport [[#DescriptionImport]] #white {
	owningDescription : Description [1]
}
abstract class Import [[#Import]]
hide Import members
DescriptionImport -up-|> Import [[#Import]]
abstract class DescriptionStatement [[#DescriptionStatement]] #white {
	owningDescription : Description [1]
}
abstract class Statement [[#Statement]]
hide Statement members
DescriptionStatement -up-|> Statement [[#Statement]]
class DescriptionUsage [[#DescriptionUsage]] #white {
}
DescriptionUsage -up-|> DescriptionImport [[#DescriptionImport]]
@enduml

PlantUML version 1.2022.12(Sun Oct 23 11:12:26 PDT 2022)
(GPL source distribution)
Java Runtime: OpenJDK Runtime Environment
JVM: OpenJDK 64-Bit Server VM
Default Encoding: UTF-8
Language: en
Country: US
--></g></svg>
