<?xml version="1.0" encoding="UTF-8" standalone="no"?><svg xmlns="http://www.w3.org/2000/svg" xmlns:xlink="http://www.w3.org/1999/xlink" contentStyleType="text/css" height="520px" preserveAspectRatio="none" style="width:810px;height:520px;background:#FFFFFF;" version="1.1" viewBox="0 0 810 520" width="810px" zoomAndPan="magnify"><defs/><g><!--MD5=[e1c3715559a2edda762ca815942f74af]
class AnnotatedElement--><a href="#AnnotatedElement" target="_top" title="#AnnotatedElement" xlink:actuate="onRequest" xlink:href="#AnnotatedElement" xlink:show="new" xlink:title="#AnnotatedElement" xlink:type="simple"><g ><rect codeLine="6" fill="#FFFFFF" height="40"  rx="2.5" ry="2.5" style="stroke:#000000;stroke-width:0.5;" width="159" x="288" y="141"/><ellipse cx="303" cy="157" fill="#A9DCDF" rx="11" ry="11" style="stroke:#181818;stroke-width:1.0;"/><path d="M302.8633,152.3481 L301.7095,157.4199 L304.0254,157.4199 Z M301.3691,150.1069 L304.3657,150.1069 L307.7109,162.5 L305.2622,162.5 L304.4985,159.437 L301.2197,159.437 L300.4727,162.5 L298.0239,162.5 Z " fill="#000000"/><text fill="#000000" font-family="sans-serif" font-size="14" font-style="italic" lengthAdjust="spacing" textLength="127" x="317" y="162.291">AnnotatedElement</text><line style="stroke:#000000;stroke-width:0.5;" x1="289" x2="446" y1="173" y2="173"/></g></a><!--MD5=[95174e42ee347a14b6cb78d6855f19b5]
class Element--><a href="#Element" target="_top" title="#Element" xlink:actuate="onRequest" xlink:href="#Element" xlink:show="new" xlink:title="#Element" xlink:type="simple"><g ><rect codeLine="20" fill="#FFFFFF" height="40"  rx="2.5" ry="2.5" style="stroke:#000000;stroke-width:0.5;" width="87" x="324" y="23.5"/><ellipse cx="339" cy="39.5" fill="#A9DCDF" rx="11" ry="11" style="stroke:#181818;stroke-width:1.0;"/><path d="M338.8633,34.8481 L337.7095,39.9199 L340.0254,39.9199 Z M337.3691,32.6069 L340.3657,32.6069 L343.7109,45 L341.2622,45 L340.4985,41.937 L337.2197,41.937 L336.4727,45 L334.0239,45 Z " fill="#000000"/><text fill="#000000" font-family="sans-serif" font-size="14" font-style="italic" lengthAdjust="spacing" textLength="55" x="353" y="44.791">Element</text><line style="stroke:#000000;stroke-width:0.5;" x1="325" x2="410" y1="55.5" y2="55.5"/></g></a><!--MD5=[faebc81c07309c527f2fda51bf6b78ab]
class Annotation--><a href="#Annotation" target="_top" title="#Annotation" xlink:actuate="onRequest" xlink:href="#Annotation" xlink:show="new" xlink:title="#Annotation" xlink:type="simple"><g ><rect codeLine="10" fill="#FFFFFF" height="105.9531"  rx="2.5" ry="2.5" style="stroke:#000000;stroke-width:0.5;" width="297" x="7" y="258"/><ellipse cx="112.75" cy="274" fill="#ADD1B2" rx="11" ry="11" style="stroke:#181818;stroke-width:1.0;"/><path d="M115.2231,280.1431 Q114.6421,280.4419 114.0029,280.5913 Q113.3638,280.7407 112.6582,280.7407 Q110.1514,280.7407 108.8315,279.0889 Q107.5117,277.437 107.5117,274.3159 Q107.5117,271.1865 108.8315,269.5347 Q110.1514,267.8828 112.6582,267.8828 Q113.3638,267.8828 114.0112,268.0322 Q114.6587,268.1816 115.2231,268.4805 L115.2231,271.2031 Q114.5923,270.6221 113.9988,270.3523 Q113.4053,270.0825 112.7744,270.0825 Q111.4297,270.0825 110.7449,271.1492 Q110.0601,272.2158 110.0601,274.3159 Q110.0601,276.4077 110.7449,277.4744 Q111.4297,278.541 112.7744,278.541 Q113.4053,278.541 113.9988,278.2712 Q114.5923,278.0015 115.2231,277.4204 Z " fill="#000000"/><text fill="#000000" font-family="sans-serif" font-size="14" lengthAdjust="spacing" textLength="77" x="133.25" y="279.291">Annotation</text><line style="stroke:#000000;stroke-width:0.5;" x1="8" x2="303" y1="290" y2="290"/><text fill="#000000" font-family="sans-serif" font-size="14" lengthAdjust="spacing" textLength="229" x="13" y="307.5352">property : AnnotationProperty [1]</text><text fill="#000000" font-family="sans-serif" font-size="14" lengthAdjust="spacing" textLength="211" x="13" y="324.0234">referenceValue : Member [0..1]</text><text fill="#000000" font-family="sans-serif" font-size="14" lengthAdjust="spacing" textLength="285" x="13" y="340.5117">owningElement : AnnotatedElement [0..1]</text><text fill="#000000" font-family="sans-serif" font-size="14" lengthAdjust="spacing" textLength="239" x="13" y="357">owningReference : Reference [0..1]</text></g></a><!--MD5=[27bfdb9e128171e0e365013b6b91e809]
class Literal--><a href="#Literal" target="_top" title="#Literal" xlink:actuate="onRequest" xlink:href="#Literal" xlink:show="new" xlink:title="#Literal" xlink:type="simple"><g ><rect codeLine="16" fill="#D3D3D3" height="32"  rx="2.5" ry="2.5" style="stroke:#000000;stroke-width:0.5;" width="74" x="118.5" y="461.5"/><ellipse cx="133.5" cy="477.5" fill="#A9DCDF" rx="11" ry="11" style="stroke:#181818;stroke-width:1.0;"/><path d="M133.3633,472.8481 L132.2095,477.9199 L134.5254,477.9199 Z M131.8691,470.6069 L134.8657,470.6069 L138.2109,483 L135.7622,483 L134.9985,479.937 L131.7197,479.937 L130.9727,483 L128.5239,483 Z " fill="#000000"/><text fill="#000000" font-family="sans-serif" font-size="14" font-style="italic" lengthAdjust="spacing" textLength="42" x="147.5" y="482.791">Literal</text></g></a><!--MD5=[251ec3a4a9cd3bf00caf27dd200c2db9]
class IdentifiedElement--><a href="#IdentifiedElement" target="_top" title="#IdentifiedElement" xlink:actuate="onRequest" xlink:href="#IdentifiedElement" xlink:show="new" xlink:title="#IdentifiedElement" xlink:type="simple"><g ><rect codeLine="22" fill="#FFFFFF" height="40"  rx="2.5" ry="2.5" style="stroke:#000000;stroke-width:0.5;" width="152" x="553.5" y="291"/><ellipse cx="568.5" cy="307" fill="#A9DCDF" rx="11" ry="11" style="stroke:#181818;stroke-width:1.0;"/><path d="M568.3633,302.3481 L567.2095,307.4199 L569.5254,307.4199 Z M566.8691,300.1069 L569.8657,300.1069 L573.2109,312.5 L570.7622,312.5 L569.9985,309.437 L566.7197,309.437 L565.9727,312.5 L563.5239,312.5 Z " fill="#000000"/><text fill="#000000" font-family="sans-serif" font-size="14" font-style="italic" lengthAdjust="spacing" textLength="120" x="582.5" y="312.291">IdentifiedElement</text><line style="stroke:#000000;stroke-width:0.5;" x1="554.5" x2="704.5" y1="323" y2="323"/></g></a><!--MD5=[f9bb3094b6d6f786926c56d9e97ecd1b]
class Import--><a href="#Import" target="_top" title="#Import" xlink:actuate="onRequest" xlink:href="#Import" xlink:show="new" xlink:title="#Import" xlink:type="simple"><g ><rect codeLine="25" fill="#FFFFFF" height="72.9766"  rx="2.5" ry="2.5" style="stroke:#000000;stroke-width:0.5;" width="179" x="339" y="274.5"/><ellipse cx="401.25" cy="290.5" fill="#A9DCDF" rx="11" ry="11" style="stroke:#181818;stroke-width:1.0;"/><path d="M401.1133,285.8481 L399.9595,290.9199 L402.2754,290.9199 Z M399.6191,283.6069 L402.6157,283.6069 L405.9609,296 L403.5122,296 L402.7485,292.937 L399.4697,292.937 L398.7227,296 L396.2739,296 Z " fill="#000000"/><text fill="#000000" font-family="sans-serif" font-size="14" font-style="italic" lengthAdjust="spacing" textLength="46" x="421.75" y="295.791">Import</text><line style="stroke:#000000;stroke-width:0.5;" x1="340" x2="517" y1="306.5" y2="306.5"/><text fill="#000000" font-family="sans-serif" font-size="14" lengthAdjust="spacing" textLength="167" x="345" y="324.0352">namespace : Namespace</text><text fill="#000000" font-family="sans-serif" font-size="14" lengthAdjust="spacing" textLength="67" x="345" y="340.5234">prefix : ID</text></g></a><!--MD5=[f58fd777f29c17413488bea9e7cfcca3]
class Member--><a href="#Member" target="_top" title="#Member" xlink:actuate="onRequest" xlink:href="#Member" xlink:show="new" xlink:title="#Member" xlink:type="simple"><g ><rect codeLine="30" fill="#FFFFFF" height="56.4883"  rx="2.5" ry="2.5" style="stroke:#000000;stroke-width:0.5;" width="88" x="500.5" y="449.5"/><ellipse cx="515.5" cy="465.5" fill="#A9DCDF" rx="11" ry="11" style="stroke:#181818;stroke-width:1.0;"/><path d="M515.3633,460.8481 L514.2095,465.9199 L516.5254,465.9199 Z M513.8691,458.6069 L516.8657,458.6069 L520.2109,471 L517.7622,471 L516.9985,467.937 L513.7197,467.937 L512.9727,471 L510.5239,471 Z " fill="#000000"/><text fill="#000000" font-family="sans-serif" font-size="14" font-style="italic" lengthAdjust="spacing" textLength="56" x="529.5" y="470.791">Member</text><line style="stroke:#000000;stroke-width:0.5;" x1="501.5" x2="587.5" y1="481.5" y2="481.5"/><text fill="#000000" font-family="sans-serif" font-size="14" lengthAdjust="spacing" textLength="64" x="506.5" y="499.0352">name : ID</text></g></a><!--MD5=[5dfd8d6a6d713da886d1ef2bfe78f203]
class Ontology--><a href="#Ontology" target="_top" title="#Ontology" xlink:actuate="onRequest" xlink:href="#Ontology" xlink:show="new" xlink:title="#Ontology" xlink:type="simple"><g ><rect codeLine="34" fill="#FFFFFF" height="72.9766"  rx="2.5" ry="2.5" style="stroke:#000000;stroke-width:0.5;" width="179" x="624" y="441"/><ellipse cx="677.75" cy="457" fill="#A9DCDF" rx="11" ry="11" style="stroke:#181818;stroke-width:1.0;"/><path d="M677.6133,452.3481 L676.4595,457.4199 L678.7754,457.4199 Z M676.1191,450.1069 L679.1157,450.1069 L682.4609,462.5 L680.0122,462.5 L679.2485,459.437 L675.9697,459.437 L675.2227,462.5 L672.7739,462.5 Z " fill="#000000"/><text fill="#000000" font-family="sans-serif" font-size="14" font-style="italic" lengthAdjust="spacing" textLength="63" x="698.25" y="462.291">Ontology</text><line style="stroke:#000000;stroke-width:0.5;" x1="625" x2="802" y1="473" y2="473"/><text fill="#000000" font-family="sans-serif" font-size="14" lengthAdjust="spacing" textLength="167" x="630" y="490.5352">namespace : Namespace</text><text fill="#000000" font-family="sans-serif" font-size="14" lengthAdjust="spacing" textLength="67" x="630" y="507.0234">prefix : ID</text></g></a><!--MD5=[4cdd8bb3602eda9dc01b2a794c230a31]
class SeparatorKind--><a href="#SeparatorKind" target="_top" title="#SeparatorKind" xlink:actuate="onRequest" xlink:href="#SeparatorKind" xlink:show="new" xlink:title="#SeparatorKind" xlink:type="simple"><g ><rect codeLine="39" fill="#FFFFFF" height="72.9766"  rx="2.5" ry="2.5" style="stroke:#000000;stroke-width:0.5;" width="130" x="446.5" y="7"/><ellipse cx="461.5" cy="23" fill="#EB937F" rx="11" ry="11" style="stroke:#181818;stroke-width:1.0;"/><path d="M465.1143,29.5 L457.3945,29.5 L457.3945,17.1069 L465.1143,17.1069 L465.1143,19.2651 L459.8433,19.2651 L459.8433,21.938 L464.6162,21.938 L464.6162,24.0962 L459.8433,24.0962 L459.8433,27.3418 L465.1143,27.3418 Z " fill="#000000"/><text fill="#000000" font-family="sans-serif" font-size="14" lengthAdjust="spacing" textLength="98" x="475.5" y="28.291">SeparatorKind</text><line style="stroke:#000000;stroke-width:0.5;" x1="447.5" x2="575.5" y1="39" y2="39"/><text fill="#000000" font-family="sans-serif" font-size="14" lengthAdjust="spacing" textLength="33" x="452.5" y="56.5352">hash</text><text fill="#000000" font-family="sans-serif" font-size="14" lengthAdjust="spacing" textLength="35" x="452.5" y="73.0234">slash</text></g></a><!--MD5=[a61a298976b7d1d94498f45c2ebfa10b]
class Statement--><a href="#Statement" target="_top" title="#Statement" xlink:actuate="onRequest" xlink:href="#Statement" xlink:show="new" xlink:title="#Statement" xlink:type="simple"><g ><rect codeLine="43" fill="#FFFFFF" height="40"  rx="2.5" ry="2.5" style="stroke:#000000;stroke-width:0.5;" width="101" x="482" y="141"/><ellipse cx="497" cy="157" fill="#A9DCDF" rx="11" ry="11" style="stroke:#181818;stroke-width:1.0;"/><path d="M496.8633,152.3481 L495.7095,157.4199 L498.0254,157.4199 Z M495.3691,150.1069 L498.3657,150.1069 L501.7109,162.5 L499.2622,162.5 L498.4985,159.437 L495.2197,159.437 L494.4727,162.5 L492.0239,162.5 Z " fill="#000000"/><text fill="#000000" font-family="sans-serif" font-size="14" font-style="italic" lengthAdjust="spacing" textLength="69" x="511" y="162.291">Statement</text><line style="stroke:#000000;stroke-width:0.5;" x1="483" x2="582" y1="173" y2="173"/></g></a><!--MD5=[6464c0f69c9d0adfe5795e9b9606172c]
reverse link Element to AnnotatedElement--><g ><a href="#Element" target="_top" title="#Element" xlink:actuate="onRequest" xlink:href="#Element" xlink:show="new" xlink:title="#Element" xlink:type="simple"><path codeLine="8" d="M367.5,85.22 C367.5,104.04 367.5,125.51 367.5,140.6 " fill="none"  style="stroke:#000000;stroke-width:1.0;"/><polygon fill="none" points="360.5,85.35,367.5,65.35,374.5,85.35,360.5,85.35" style="stroke:#000000;stroke-width:1.0;"/></a></g><!--MD5=[a26c1273de1504270c63108c3ad05cea]
link AnnotatedElement to Annotation--><g ><path codeLine="9" d="M309.1014,187.3529 C309.1014,187.3529 280.16,202.53 267.5,211 C251.19,221.92 234.73,235.03 219.65,248.08 " fill="none"  style="stroke:#000000;stroke-width:1.0;"/><polygon fill="#000000" points="210.07,256.54,219.4666,253.5898,213.821,253.2339,214.1768,247.5882,210.07,256.54" style="stroke:#000000;stroke-width:1.0;"/><line style="stroke:#000000;stroke-width:1.0;" x1="213.821" x2="219.81" y1="253.2339" y2="247.935"/><polygon fill="#000000" points="319.91,182.14,312.7681,181.1436,309.1014,187.3529,316.2434,188.3493,319.91,182.14" style="stroke:#000000;stroke-width:1.0;"/><text fill="#000000" font-family="sans-serif" font-size="13" lengthAdjust="spacing" textLength="118" x="268.5" y="224.5684">ownedAnnotations</text><text fill="#000000" font-family="sans-serif" font-size="13" lengthAdjust="spacing" textLength="6" x="209.3913" y="247.3208">*</text></g><!--MD5=[f0832d5e213e87fee8a27a129e7e5340]
reverse link Element to Annotation--><g ><a href="#Element" target="_top" title="#Element" xlink:actuate="onRequest" xlink:href="#Element" xlink:show="new" xlink:title="#Element" xlink:type="simple"><path codeLine="18" d="M330.25,78.33 C311.46,96.18 288.83,118.92 270.5,141 C239.79,178 209.37,223.18 187.54,257.51 " fill="none"  style="stroke:#000000;stroke-width:1.0;"/><polygon fill="none" points="325.38,73.31,344.78,64.79,334.93,83.55,325.38,73.31" style="stroke:#000000;stroke-width:1.0;"/></a></g><!--MD5=[f90a4d10888fc5da8aefdcfb02bff89f]
link Annotation to Literal--><g ><path codeLine="19" d="M155.5,377.56 C155.5,377.56 155.5,427.76 155.5,446.9 " fill="none"  style="stroke:#000000;stroke-width:1.0;"/><polygon fill="#000000" points="155.5,459.73,159.5,450.73,155.5,454.73,151.5,450.73,155.5,459.73" style="stroke:#000000;stroke-width:1.0;"/><line style="stroke:#000000;stroke-width:1.0;" x1="155.5" x2="155.5" y1="454.73" y2="446.73"/><polygon fill="#000000" points="155.5,365.56,151.5,371.56,155.5,377.56,159.5,371.56,155.5,365.56" style="stroke:#000000;stroke-width:1.0;"/><text fill="#000000" font-family="sans-serif" font-size="13" lengthAdjust="spacing" textLength="33" x="156.5" y="407.5684">value</text><text fill="#000000" font-family="sans-serif" font-size="13" lengthAdjust="spacing" textLength="24" x="127.375" y="450.7077">0..1</text></g><!--MD5=[1f417f60d64e01ad5046b156431c9cf6]
reverse link AnnotatedElement to IdentifiedElement--><g ><a href="#AnnotatedElement" target="_top" title="#AnnotatedElement" xlink:actuate="onRequest" xlink:href="#AnnotatedElement" xlink:show="new" xlink:title="#AnnotatedElement" xlink:type="simple"><path codeLine="24" d="M420.34,191.85 C472.5,221.31 550.71,265.49 595.24,290.65 " fill="none"  style="stroke:#000000;stroke-width:1.0;"/><polygon fill="none" points="417.04,198.02,403.07,182.09,423.93,185.83,417.04,198.02" style="stroke:#000000;stroke-width:1.0;"/></a></g><!--MD5=[753d190af89447a56cb0bca0c0b20fd3]
reverse link AnnotatedElement to Import--><g ><a href="#AnnotatedElement" target="_top" title="#AnnotatedElement" xlink:actuate="onRequest" xlink:href="#AnnotatedElement" xlink:show="new" xlink:title="#AnnotatedElement" xlink:type="simple"><path codeLine="29" d="M389.86,199.4 C391.87,203.26 393.79,207.18 395.5,211 C404.6,231.34 412.57,254.99 418.4,274.07 " fill="none"  style="stroke:#000000;stroke-width:1.0;"/><polygon fill="none" points="384.01,203.28,380.32,182.41,396.22,196.42,384.01,203.28" style="stroke:#000000;stroke-width:1.0;"/></a></g><!--MD5=[33752fb4a47bbfc919e466094f723143]
reverse link IdentifiedElement to Member--><g ><a href="#IdentifiedElement" target="_top" title="#IdentifiedElement" xlink:actuate="onRequest" xlink:href="#IdentifiedElement" xlink:show="new" xlink:title="#IdentifiedElement" xlink:type="simple"><path codeLine="33" d="M609.84,350.06 C594.15,380.4 572.57,422.17 558.58,449.25 " fill="none"  style="stroke:#000000;stroke-width:1.0;"/><polygon fill="none" points="603.49,347.09,618.89,332.54,615.93,353.52,603.49,347.09" style="stroke:#000000;stroke-width:1.0;"/></a></g><!--MD5=[fd3ff5f198460cf7758d1240200908b0]
reverse link IdentifiedElement to Ontology--><g ><a href="#IdentifiedElement" target="_top" title="#IdentifiedElement" xlink:actuate="onRequest" xlink:href="#IdentifiedElement" xlink:show="new" xlink:title="#IdentifiedElement" xlink:type="simple"><path codeLine="38" d="M648.88,349.96 C662.83,377.27 681.53,413.88 695.22,440.7 " fill="none"  style="stroke:#000000;stroke-width:1.0;"/><polygon fill="none" points="642.85,353.54,639.99,332.54,655.32,347.17,642.85,353.54" style="stroke:#000000;stroke-width:1.0;"/></a></g><!--MD5=[74cc68ff81e9898842fdff0d8733f894]
reverse link Element to Statement--><g ><a href="#Element" target="_top" title="#Element" xlink:actuate="onRequest" xlink:href="#Element" xlink:show="new" xlink:title="#Element" xlink:type="simple"><path codeLine="45" d="M412.67,76.12 C442.14,96.75 479.66,123.01 504.79,140.6 " fill="none"  style="stroke:#000000;stroke-width:1.0;"/><polygon fill="none" points="408.73,81.9,396.36,64.7,416.76,70.43,408.73,81.9" style="stroke:#000000;stroke-width:1.0;"/></a></g><!--MD5=[d7852ff9fdc0569e91967669b54a2087]
@startuml
skinparam classBackgroundColor LightGray
skinparam classBorderColor Black
skinparam enumBorderColor Black
skinparam ArrowColor Black
hide methods
abstract class AnnotatedElement [[#AnnotatedElement]] #white {
}
AnnotatedElement -up-|> Element [[#Element]]
AnnotatedElement *- -> "*" Annotation : ownedAnnotations
class Annotation [[#Annotation]] #white {
	property : AnnotationProperty [1]
	referenceValue : Member [0..1]
	owningElement : AnnotatedElement [0..1]
	owningReference : Reference [0..1]
}
abstract class Literal [[#Literal]]
hide Literal members
Annotation -up-|> Element [[#Element]]
Annotation *- -> "0..1" Literal : value
abstract class Element [[#Element]] #white {
}
abstract class IdentifiedElement [[#IdentifiedElement]] #white {
}
IdentifiedElement -up-|> AnnotatedElement [[#AnnotatedElement]]
abstract class Import [[#Import]] #white {
	namespace : Namespace
	prefix : ID
}
Import -up-|> AnnotatedElement [[#AnnotatedElement]]
abstract class Member [[#Member]] #white {
	name : ID
}
Member -up-|> IdentifiedElement [[#IdentifiedElement]]
abstract class Ontology [[#Ontology]] #white {
	namespace : Namespace
	prefix : ID
}
Ontology -up-|> IdentifiedElement [[#IdentifiedElement]]
enum SeparatorKind [[#SeparatorKind]] #white {
	hash
	slash
}
abstract class Statement [[#Statement]] #white {
}
Statement -up-|> Element [[#Element]]
@enduml

PlantUML version 1.2022.12(Sun Oct 23 11:12:26 PDT 2022)
(GPL source distribution)
Java Runtime: OpenJDK Runtime Environment
JVM: OpenJDK 64-Bit Server VM
Default Encoding: UTF-8
Language: en
Country: US
--></g></svg>
