<?xml version="1.0" encoding="UTF-8" standalone="no"?><svg xmlns="http://www.w3.org/2000/svg" xmlns:xlink="http://www.w3.org/1999/xlink" contentStyleType="text/css" height="560px" preserveAspectRatio="none" style="width:1027px;height:560px;background:#FFFFFF;" version="1.1" viewBox="0 0 1027 560" width="1027px" zoomAndPan="magnify"><defs/><g><!--MD5=[7be4accb63ef2d7032b8e65d0d7d84e2]
class AnnotationProperty--><a href="#AnnotationProperty" target="_top" title="#AnnotationProperty" xlink:actuate="onRequest" xlink:href="#AnnotationProperty" xlink:show="new" xlink:title="#AnnotationProperty" xlink:type="simple"><g ><rect codeLine="6" fill="#FFFFFF" height="40"  rx="2.5" ry="2.5" style="stroke:#000000;stroke-width:0.5;" width="167" x="401.5" y="488.5"/><ellipse cx="416.5" cy="504.5" fill="#ADD1B2" rx="11" ry="11" style="stroke:#181818;stroke-width:1.0;"/><path d="M418.9731,510.6431 Q418.3921,510.9419 417.7529,511.0913 Q417.1138,511.2407 416.4082,511.2407 Q413.9014,511.2407 412.5815,509.5889 Q411.2617,507.937 411.2617,504.8159 Q411.2617,501.6865 412.5815,500.0347 Q413.9014,498.3828 416.4082,498.3828 Q417.1138,498.3828 417.7612,498.5322 Q418.4087,498.6816 418.9731,498.9805 L418.9731,501.7031 Q418.3423,501.1221 417.7488,500.8523 Q417.1553,500.5825 416.5244,500.5825 Q415.1797,500.5825 414.4949,501.6492 Q413.8101,502.7158 413.8101,504.8159 Q413.8101,506.9077 414.4949,507.9744 Q415.1797,509.041 416.5244,509.041 Q417.1553,509.041 417.7488,508.7712 Q418.3423,508.5015 418.9731,507.9204 Z " fill="#000000"/><text fill="#000000" font-family="sans-serif" font-size="14" lengthAdjust="spacing" textLength="135" x="430.5" y="509.791">AnnotationProperty</text><line style="stroke:#000000;stroke-width:0.5;" x1="402.5" x2="567.5" y1="520.5" y2="520.5"/></g></a><!--MD5=[a052ffd04a2a5cd2f202acb632be8a32]
class SpecializableTerm--><a href="#SpecializableTerm" target="_top" title="#SpecializableTerm" xlink:actuate="onRequest" xlink:href="#SpecializableTerm" xlink:show="new" xlink:title="#SpecializableTerm" xlink:type="simple"><g ><rect codeLine="51" fill="#D3D3D3" height="32"  rx="2.5" ry="2.5" style="stroke:#000000;stroke-width:0.5;" width="157" x="223.5" y="360"/><ellipse cx="238.5" cy="376" fill="#A9DCDF" rx="11" ry="11" style="stroke:#181818;stroke-width:1.0;"/><path d="M238.3633,371.3481 L237.2095,376.4199 L239.5254,376.4199 Z M236.8691,369.1069 L239.8657,369.1069 L243.2109,381.5 L240.7622,381.5 L239.9985,378.437 L236.7197,378.437 L235.9727,381.5 L233.5239,381.5 Z " fill="#000000"/><text fill="#000000" font-family="sans-serif" font-size="14" font-style="italic" lengthAdjust="spacing" textLength="125" x="252.5" y="381.291">SpecializableTerm</text></g></a><!--MD5=[6b626634f3bb0842bebd5e499c80b711]
class Property--><a href="#Property" target="_top" title="#Property" xlink:actuate="onRequest" xlink:href="#Property" xlink:show="new" xlink:title="#Property" xlink:type="simple"><g ><rect codeLine="21" fill="#FFFFFF" height="40"  rx="2.5" ry="2.5" style="stroke:#000000;stroke-width:0.5;" width="90" x="423" y="223.5"/><ellipse cx="438" cy="239.5" fill="#A9DCDF" rx="11" ry="11" style="stroke:#181818;stroke-width:1.0;"/><path d="M437.8633,234.8481 L436.7095,239.9199 L439.0254,239.9199 Z M436.3691,232.6069 L439.3657,232.6069 L442.7109,245 L440.2622,245 L439.4985,241.937 L436.2197,241.937 L435.4727,245 L433.0239,245 Z " fill="#000000"/><text fill="#000000" font-family="sans-serif" font-size="14" font-style="italic" lengthAdjust="spacing" textLength="58" x="452" y="244.791">Property</text><line style="stroke:#000000;stroke-width:0.5;" x1="424" x2="512" y1="255.5" y2="255.5"/></g></a><!--MD5=[82c53a10f238a1092cf5f0b044477708]
class Feature--><a href="#Feature" target="_top" title="#Feature" xlink:actuate="onRequest" xlink:href="#Feature" xlink:show="new" xlink:title="#Feature" xlink:type="simple"><g ><rect codeLine="12" fill="#FFFFFF" height="40"  rx="2.5" ry="2.5" style="stroke:#000000;stroke-width:0.5;" width="84" x="510" y="99"/><ellipse cx="525" cy="115" fill="#A9DCDF" rx="11" ry="11" style="stroke:#181818;stroke-width:1.0;"/><path d="M524.8633,110.3481 L523.7095,115.4199 L526.0254,115.4199 Z M523.3691,108.1069 L526.3657,108.1069 L529.7109,120.5 L527.2622,120.5 L526.4985,117.437 L523.2197,117.437 L522.4727,120.5 L520.0239,120.5 Z " fill="#000000"/><text fill="#000000" font-family="sans-serif" font-size="14" font-style="italic" lengthAdjust="spacing" textLength="52" x="539" y="120.291">Feature</text><line style="stroke:#000000;stroke-width:0.5;" x1="511" x2="593" y1="131" y2="131"/></g></a><!--MD5=[9d35236b92952560f647498cf8a29acb]
class Term--><a href="#Term" target="_top" title="#Term" xlink:actuate="onRequest" xlink:href="#Term" xlink:show="new" xlink:title="#Term" xlink:type="simple"><g ><rect codeLine="14" fill="#D3D3D3" height="32"  rx="2.5" ry="2.5" style="stroke:#000000;stroke-width:0.5;" width="68" x="518" y="7"/><ellipse cx="533" cy="23" fill="#A9DCDF" rx="11" ry="11" style="stroke:#181818;stroke-width:1.0;"/><path d="M532.8633,18.3481 L531.7095,23.4199 L534.0254,23.4199 Z M531.3691,16.1069 L534.3657,16.1069 L537.7109,28.5 L535.2622,28.5 L534.4985,25.437 L531.2197,25.437 L530.4727,28.5 L528.0239,28.5 Z " fill="#000000"/><text fill="#000000" font-family="sans-serif" font-size="14" font-style="italic" lengthAdjust="spacing" textLength="36" x="547" y="28.291">Term</text></g></a><!--MD5=[dc339a869eaac90210cd41e61d476bcb]
class ForwardRelation--><a href="#ForwardRelation" target="_top" title="#ForwardRelation" xlink:actuate="onRequest" xlink:href="#ForwardRelation" xlink:show="new" xlink:title="#ForwardRelation" xlink:type="simple"><g ><rect codeLine="17" fill="#FFFFFF" height="56.4883"  rx="2.5" ry="2.5" style="stroke:#000000;stroke-width:0.5;" width="232" x="788" y="348"/><ellipse cx="843.25" cy="364" fill="#ADD1B2" rx="11" ry="11" style="stroke:#181818;stroke-width:1.0;"/><path d="M845.7231,370.1431 Q845.1421,370.4419 844.5029,370.5913 Q843.8638,370.7407 843.1582,370.7407 Q840.6514,370.7407 839.3315,369.0889 Q838.0117,367.437 838.0117,364.3159 Q838.0117,361.1865 839.3315,359.5347 Q840.6514,357.8828 843.1582,357.8828 Q843.8638,357.8828 844.5112,358.0322 Q845.1587,358.1816 845.7231,358.4805 L845.7231,361.2031 Q845.0923,360.6221 844.4988,360.3523 Q843.9053,360.0825 843.2744,360.0825 Q841.9297,360.0825 841.2449,361.1492 Q840.5601,362.2158 840.5601,364.3159 Q840.5601,366.4077 841.2449,367.4744 Q841.9297,368.541 843.2744,368.541 Q843.9053,368.541 844.4988,368.2712 Q845.0923,368.0015 845.7231,367.4204 Z " fill="#000000"/><text fill="#000000" font-family="sans-serif" font-size="14" lengthAdjust="spacing" textLength="113" x="863.75" y="369.291">ForwardRelation</text><line style="stroke:#000000;stroke-width:0.5;" x1="789" x2="1019" y1="380" y2="380"/><text fill="#000000" font-family="sans-serif" font-size="14" lengthAdjust="spacing" textLength="220" x="794" y="397.5352">relationEntity : RelationEntity [1]</text></g></a><!--MD5=[534474e9f05b14d7c70186ae077f30e0]
class Relation--><a href="#Relation" target="_top" title="#Relation" xlink:actuate="onRequest" xlink:href="#Relation" xlink:show="new" xlink:title="#Relation" xlink:type="simple"><g ><rect codeLine="24" fill="#FFFFFF" height="89.4648"  rx="2.5" ry="2.5" style="stroke:#000000;stroke-width:0.5;" width="169" x="552.5" y="199"/><ellipse cx="604.75" cy="215" fill="#A9DCDF" rx="11" ry="11" style="stroke:#181818;stroke-width:1.0;"/><path d="M604.6133,210.3481 L603.4595,215.4199 L605.7754,215.4199 Z M603.1191,208.1069 L606.1157,208.1069 L609.4609,220.5 L607.0122,220.5 L606.2485,217.437 L602.9697,217.437 L602.2227,220.5 L599.7739,220.5 Z " fill="#000000"/><text fill="#000000" font-family="sans-serif" font-size="14" font-style="italic" lengthAdjust="spacing" textLength="56" x="625.25" y="220.291">Relation</text><line style="stroke:#000000;stroke-width:0.5;" x1="553.5" x2="720.5" y1="231" y2="231"/><text fill="#000000" font-family="sans-serif" font-size="14" lengthAdjust="spacing" textLength="125" x="558.5" y="248.5352">domain : Entity [1]</text><text fill="#000000" font-family="sans-serif" font-size="14" lengthAdjust="spacing" textLength="113" x="558.5" y="265.0234">range : Entity [1]</text><text fill="#000000" font-family="sans-serif" font-size="14" lengthAdjust="spacing" textLength="157" x="558.5" y="281.5117">inverse : Relation [0..1]</text></g></a><!--MD5=[ea8230de58a0a355a330f3be22216fed]
class ReverseRelation--><a href="#ReverseRelation" target="_top" title="#ReverseRelation" xlink:actuate="onRequest" xlink:href="#ReverseRelation" xlink:show="new" xlink:title="#ReverseRelation" xlink:type="simple"><g ><rect codeLine="30" fill="#FFFFFF" height="56.4883"  rx="2.5" ry="2.5" style="stroke:#000000;stroke-width:0.5;" width="232" x="521" y="348"/><ellipse cx="578.25" cy="364" fill="#ADD1B2" rx="11" ry="11" style="stroke:#181818;stroke-width:1.0;"/><path d="M580.7231,370.1431 Q580.1421,370.4419 579.5029,370.5913 Q578.8638,370.7407 578.1582,370.7407 Q575.6514,370.7407 574.3315,369.0889 Q573.0117,367.437 573.0117,364.3159 Q573.0117,361.1865 574.3315,359.5347 Q575.6514,357.8828 578.1582,357.8828 Q578.8638,357.8828 579.5112,358.0322 Q580.1587,358.1816 580.7231,358.4805 L580.7231,361.2031 Q580.0923,360.6221 579.4988,360.3523 Q578.9053,360.0825 578.2744,360.0825 Q576.9297,360.0825 576.2449,361.1492 Q575.5601,362.2158 575.5601,364.3159 Q575.5601,366.4077 576.2449,367.4744 Q576.9297,368.541 578.2744,368.541 Q578.9053,368.541 579.4988,368.2712 Q580.0923,368.0015 580.7231,367.4204 Z " fill="#000000"/><text fill="#000000" font-family="sans-serif" font-size="14" lengthAdjust="spacing" textLength="109" x="598.75" y="369.291">ReverseRelation</text><line style="stroke:#000000;stroke-width:0.5;" x1="522" x2="752" y1="380" y2="380"/><text fill="#000000" font-family="sans-serif" font-size="14" lengthAdjust="spacing" textLength="220" x="527" y="397.5352">relationEntity : RelationEntity [1]</text></g></a><!--MD5=[45b96a1d30d0a9ca347644650f99c7e5]
class ScalarProperty--><a href="#ScalarProperty" target="_top" title="#ScalarProperty" xlink:actuate="onRequest" xlink:href="#ScalarProperty" xlink:show="new" xlink:title="#ScalarProperty" xlink:type="simple"><g ><rect codeLine="34" fill="#FFFFFF" height="89.4648"  rx="2.5" ry="2.5" style="stroke:#000000;stroke-width:0.5;" width="162" x="204" y="464"/><ellipse cx="232.95" cy="480" fill="#ADD1B2" rx="11" ry="11" style="stroke:#181818;stroke-width:1.0;"/><path d="M235.4231,486.1431 Q234.8421,486.4419 234.2029,486.5913 Q233.5638,486.7407 232.8582,486.7407 Q230.3514,486.7407 229.0315,485.0889 Q227.7117,483.437 227.7117,480.3159 Q227.7117,477.1865 229.0315,475.5347 Q230.3514,473.8828 232.8582,473.8828 Q233.5638,473.8828 234.2112,474.0322 Q234.8587,474.1816 235.4231,474.4805 L235.4231,477.2031 Q234.7923,476.6221 234.1988,476.3523 Q233.6053,476.0825 232.9744,476.0825 Q231.6297,476.0825 230.9449,477.1492 Q230.2601,478.2158 230.2601,480.3159 Q230.2601,482.4077 230.9449,483.4744 Q231.6297,484.541 232.9744,484.541 Q233.6053,484.541 234.1988,484.2712 Q234.7923,484.0015 235.4231,483.4204 Z " fill="#000000"/><text fill="#000000" font-family="sans-serif" font-size="14" lengthAdjust="spacing" textLength="99" x="250.05" y="485.291">ScalarProperty</text><line style="stroke:#000000;stroke-width:0.5;" x1="205" x2="365" y1="496" y2="496"/><text fill="#000000" font-family="sans-serif" font-size="14" lengthAdjust="spacing" textLength="136" x="210" y="513.5352">functional : Boolean</text><text fill="#000000" font-family="sans-serif" font-size="14" lengthAdjust="spacing" textLength="150" x="210" y="530.0234">domain : Classifier [1]</text><text fill="#000000" font-family="sans-serif" font-size="14" lengthAdjust="spacing" textLength="116" x="210" y="546.5117">range : Scalar [1]</text></g></a><!--MD5=[20d34aacf7daeed7e68fc4fc3bb2a664]
class SemanticProperty--><a href="#SemanticProperty" target="_top" title="#SemanticProperty" xlink:actuate="onRequest" xlink:href="#SemanticProperty" xlink:show="new" xlink:title="#SemanticProperty" xlink:type="simple"><g ><rect codeLine="43" fill="#FFFFFF" height="40"  rx="2.5" ry="2.5" style="stroke:#000000;stroke-width:0.5;" width="152" x="36" y="356"/><ellipse cx="51" cy="372" fill="#A9DCDF" rx="11" ry="11" style="stroke:#181818;stroke-width:1.0;"/><path d="M50.8633,367.3481 L49.7095,372.4199 L52.0254,372.4199 Z M49.3691,365.1069 L52.3657,365.1069 L55.7109,377.5 L53.2622,377.5 L52.4985,374.437 L49.2197,374.437 L48.4727,377.5 L46.0239,377.5 Z " fill="#000000"/><text fill="#000000" font-family="sans-serif" font-size="14" font-style="italic" lengthAdjust="spacing" textLength="120" x="65" y="377.291">SemanticProperty</text><line style="stroke:#000000;stroke-width:0.5;" x1="37" x2="187" y1="388" y2="388"/></g></a><!--MD5=[a52628c9fc4849a00ea2b39db6a19908]
class StructuredProperty--><a href="#StructuredProperty" target="_top" title="#StructuredProperty" xlink:actuate="onRequest" xlink:href="#StructuredProperty" xlink:show="new" xlink:title="#StructuredProperty" xlink:type="simple"><g ><rect codeLine="46" fill="#FFFFFF" height="89.4648"  rx="2.5" ry="2.5" style="stroke:#000000;stroke-width:0.5;" width="162" x="7" y="464"/><ellipse cx="22" cy="480" fill="#ADD1B2" rx="11" ry="11" style="stroke:#181818;stroke-width:1.0;"/><path d="M24.4731,486.1431 Q23.8921,486.4419 23.2529,486.5913 Q22.6138,486.7407 21.9082,486.7407 Q19.4014,486.7407 18.0815,485.0889 Q16.7617,483.437 16.7617,480.3159 Q16.7617,477.1865 18.0815,475.5347 Q19.4014,473.8828 21.9082,473.8828 Q22.6138,473.8828 23.2612,474.0322 Q23.9087,474.1816 24.4731,474.4805 L24.4731,477.2031 Q23.8423,476.6221 23.2488,476.3523 Q22.6553,476.0825 22.0244,476.0825 Q20.6797,476.0825 19.9949,477.1492 Q19.3101,478.2158 19.3101,480.3159 Q19.3101,482.4077 19.9949,483.4744 Q20.6797,484.541 22.0244,484.541 Q22.6553,484.541 23.2488,484.2712 Q23.8423,484.0015 24.4731,483.4204 Z " fill="#000000"/><text fill="#000000" font-family="sans-serif" font-size="14" lengthAdjust="spacing" textLength="130" x="36" y="485.291">StructuredProperty</text><line style="stroke:#000000;stroke-width:0.5;" x1="8" x2="168" y1="496" y2="496"/><text fill="#000000" font-family="sans-serif" font-size="14" lengthAdjust="spacing" textLength="136" x="13" y="513.5352">functional : Boolean</text><text fill="#000000" font-family="sans-serif" font-size="14" lengthAdjust="spacing" textLength="150" x="13" y="530.0234">domain : Classifier [1]</text><text fill="#000000" font-family="sans-serif" font-size="14" lengthAdjust="spacing" textLength="138" x="13" y="546.5117">range : Structure [1]</text></g></a><!--MD5=[9ca33dceb5124b5179fd36b85121669a]
reverse link Property to AnnotationProperty--><g ><a href="#Property" target="_top" title="#Property" xlink:actuate="onRequest" xlink:href="#Property" xlink:show="new" xlink:title="#Property" xlink:type="simple"><path codeLine="10" d="M470.62,285.06 C474.34,342.54 480.99,445.45 483.75,488.13 " fill="none"  style="stroke:#000000;stroke-width:1.0;"/><polygon fill="none" points="463.65,285.76,469.35,265.35,477.62,284.86,463.65,285.76" style="stroke:#000000;stroke-width:1.0;"/></a></g><!--MD5=[c643e1fe002076601e64bbf3b72ec0e8]
reverse link SpecializableTerm to AnnotationProperty--><g ><a href="#SpecializableTerm" target="_top" title="#SpecializableTerm" xlink:actuate="onRequest" xlink:href="#SpecializableTerm" xlink:show="new" xlink:title="#SpecializableTerm" xlink:type="simple"><path codeLine="11" d="M340.91,404.75 C376,429.77 426.7,465.93 457.67,488.01 " fill="none"  style="stroke:#000000;stroke-width:1.0;"/><polygon fill="none" points="337.16,410.67,324.94,393.36,345.29,399.27,337.16,410.67" style="stroke:#000000;stroke-width:1.0;"/></a></g><!--MD5=[4f89f4a032fb508fbd00151b89225849]
reverse link Term to Feature--><g ><a href="#Term" target="_top" title="#Term" xlink:actuate="onRequest" xlink:href="#Term" xlink:show="new" xlink:title="#Term" xlink:type="simple"><path codeLine="16" d="M552,60.42 C552,73.47 552,87.67 552,98.7 " fill="none"  style="stroke:#000000;stroke-width:1.0;"/><polygon fill="none" points="545,60.62,552,40.62,559,60.62,545,60.62" style="stroke:#000000;stroke-width:1.0;"/></a></g><!--MD5=[0144dad999ab1ae304821156dde88b31]
reverse link Relation to ForwardRelation--><g ><a href="#Relation" target="_top" title="#Relation" xlink:actuate="onRequest" xlink:href="#Relation" xlink:show="new" xlink:title="#Relation" xlink:type="simple"><path codeLine="20" d="M741.12,295.39 C777.55,313.19 817.04,332.5 848.02,347.64 " fill="none"  style="stroke:#000000;stroke-width:1.0;"/><polygon fill="none" points="738.1,301.71,723.21,286.63,744.25,289.13,738.1,301.71" style="stroke:#000000;stroke-width:1.0;"/></a></g><!--MD5=[91446fb58b2b0d3da6338498ad8a61d4]
reverse link Feature to Property--><g ><a href="#Feature" target="_top" title="#Feature" xlink:actuate="onRequest" xlink:href="#Feature" xlink:show="new" xlink:title="#Feature" xlink:type="simple"><path codeLine="23" d="M526.66,156.96 C511.7,178.77 493.39,205.47 481.25,223.18 " fill="none"  style="stroke:#000000;stroke-width:1.0;"/><polygon fill="none" points="520.75,153.19,537.83,140.66,532.3,161.11,520.75,153.19" style="stroke:#000000;stroke-width:1.0;"/></a></g><!--MD5=[5707ed6d2cada5e0581e36a343230ef4]
reverse link Feature to Relation--><g ><a href="#Feature" target="_top" title="#Feature" xlink:actuate="onRequest" xlink:href="#Feature" xlink:show="new" xlink:title="#Feature" xlink:type="simple"><path codeLine="29" d="M577.66,156.98 C586.75,170.07 597.06,184.93 606.5,198.55 " fill="none"  style="stroke:#000000;stroke-width:1.0;"/><polygon fill="none" points="571.98,161.08,566.33,140.65,583.48,153.1,571.98,161.08" style="stroke:#000000;stroke-width:1.0;"/></a></g><!--MD5=[8e166518ce0842b397bd379aaa80c727]
reverse link Relation to ReverseRelation--><g ><a href="#Relation" target="_top" title="#Relation" xlink:actuate="onRequest" xlink:href="#Relation" xlink:show="new" xlink:title="#Relation" xlink:type="simple"><path codeLine="33" d="M637,309.81 C637,323.25 637,336.69 637,347.84 " fill="none"  style="stroke:#000000;stroke-width:1.0;"/><polygon fill="none" points="630,309.83,637,289.83,644,309.83,630,309.83" style="stroke:#000000;stroke-width:1.0;"/></a></g><!--MD5=[96429e18abd7f227097678cc9428ca0e]
reverse link SemanticProperty to ScalarProperty--><g ><a href="#SemanticProperty" target="_top" title="#SemanticProperty" xlink:actuate="onRequest" xlink:href="#SemanticProperty" xlink:show="new" xlink:title="#SemanticProperty" xlink:type="simple"><path codeLine="41" d="M154.44,409.02 C176.22,425.44 203.08,445.71 226.77,463.57 " fill="none"  style="stroke:#000000;stroke-width:1.0;"/><polygon fill="none" points="150.49,414.8,138.74,397.17,158.92,403.62,150.49,414.8" style="stroke:#000000;stroke-width:1.0;"/></a></g><!--MD5=[bd5dd8ccf5ba429806698c4cd5d08c64]
reverse link SpecializableTerm to ScalarProperty--><g ><a href="#SpecializableTerm" target="_top" title="#SpecializableTerm" xlink:actuate="onRequest" xlink:href="#SpecializableTerm" xlink:show="new" xlink:title="#SpecializableTerm" xlink:type="simple"><path codeLine="42" d="M297.23,413.64 C295.21,429.14 292.84,447.32 290.73,463.53 " fill="none"  style="stroke:#000000;stroke-width:1.0;"/><polygon fill="none" points="290.26,412.91,299.79,393.98,304.15,414.72,290.26,412.91" style="stroke:#000000;stroke-width:1.0;"/></a></g><!--MD5=[4e47519bbeba0530445417ce65e8f778]
reverse link Property to SemanticProperty--><g ><a href="#Property" target="_top" title="#Property" xlink:actuate="onRequest" xlink:href="#Property" xlink:show="new" xlink:title="#Property" xlink:type="simple"><path codeLine="45" d="M402.63,268.46 C334.28,293.52 228.32,332.36 164.99,355.57 " fill="none"  style="stroke:#000000;stroke-width:1.0;"/><polygon fill="none" points="399.94,261.99,421.13,261.68,404.76,275.14,399.94,261.99" style="stroke:#000000;stroke-width:1.0;"/></a></g><!--MD5=[7f6baec6d71bc68f5b24ca314e99a90f]
reverse link SemanticProperty to StructuredProperty--><g ><a href="#SemanticProperty" target="_top" title="#SemanticProperty" xlink:actuate="onRequest" xlink:href="#SemanticProperty" xlink:show="new" xlink:title="#SemanticProperty" xlink:type="simple"><path codeLine="53" d="M104.61,417.17 C101.91,431.87 98.84,448.56 96.08,463.57 " fill="none"  style="stroke:#000000;stroke-width:1.0;"/><polygon fill="none" points="97.68,416.15,108.18,397.74,111.45,418.68,97.68,416.15" style="stroke:#000000;stroke-width:1.0;"/></a></g><!--MD5=[33cbb523e179d3a4947853603ac600bb]
reverse link SpecializableTerm to StructuredProperty--><g ><a href="#SpecializableTerm" target="_top" title="#SpecializableTerm" xlink:actuate="onRequest" xlink:href="#SpecializableTerm" xlink:show="new" xlink:title="#SpecializableTerm" xlink:type="simple"><path codeLine="54" d="M258.29,403.65 C230.07,420.86 192.67,443.67 160.11,463.53 " fill="none"  style="stroke:#000000;stroke-width:1.0;"/><polygon fill="none" points="254.6,397.71,275.32,393.27,261.89,409.66,254.6,397.71" style="stroke:#000000;stroke-width:1.0;"/></a></g><!--MD5=[09c2232f03bbb5ddab306ccc42bc9b50]
@startuml
skinparam classBackgroundColor LightGray
skinparam classBorderColor Black
skinparam enumBorderColor Black
skinparam ArrowColor Black
hide methods
class AnnotationProperty [[#AnnotationProperty]] #white {
}
abstract class SpecializableTerm [[#SpecializableTerm]]
hide SpecializableTerm members
AnnotationProperty -up-|> Property [[#Property]]
AnnotationProperty -up-|> SpecializableTerm [[#SpecializableTerm]]
abstract class Feature [[#Feature]] #white {
}
abstract class Term [[#Term]]
hide Term members
Feature -up-|> Term [[#Term]]
class ForwardRelation [[#ForwardRelation]] #white {
	relationEntity : RelationEntity [1]
}
ForwardRelation -up-|> Relation [[#Relation]]
abstract class Property [[#Property]] #white {
}
Property -up-|> Feature [[#Feature]]
abstract class Relation [[#Relation]] #white {
	domain : Entity [1]
	range : Entity [1]
	inverse : Relation [0..1]
}
Relation -up-|> Feature [[#Feature]]
class ReverseRelation [[#ReverseRelation]] #white {
	relationEntity : RelationEntity [1]
}
ReverseRelation -up-|> Relation [[#Relation]]
class ScalarProperty [[#ScalarProperty]] #white {
	functional : Boolean
	domain : Classifier [1]
	range : Scalar [1]
}
abstract class SpecializableTerm [[#SpecializableTerm]]
hide SpecializableTerm members
ScalarProperty -up-|> SemanticProperty [[#SemanticProperty]]
ScalarProperty -up-|> SpecializableTerm [[#SpecializableTerm]]
abstract class SemanticProperty [[#SemanticProperty]] #white {
}
SemanticProperty -up-|> Property [[#Property]]
class StructuredProperty [[#StructuredProperty]] #white {
	functional : Boolean
	domain : Classifier [1]
	range : Structure [1]
}
abstract class SpecializableTerm [[#SpecializableTerm]]
hide SpecializableTerm members
StructuredProperty -up-|> SemanticProperty [[#SemanticProperty]]
StructuredProperty -up-|> SpecializableTerm [[#SpecializableTerm]]
@enduml

PlantUML version 1.2022.12(Sun Oct 23 11:12:26 PDT 2022)
(GPL source distribution)
Java Runtime: OpenJDK Runtime Environment
JVM: OpenJDK 64-Bit Server VM
Default Encoding: UTF-8
Language: en
Country: US
--></g></svg>
