<?xml version="1.0" encoding="UTF-8" standalone="no"?><svg xmlns="http://www.w3.org/2000/svg" xmlns:xlink="http://www.w3.org/1999/xlink" contentStyleType="text/css" height="573px" preserveAspectRatio="none" style="width:1348px;height:573px;background:#FFFFFF;" version="1.1" viewBox="0 0 1348 573" width="1348px" zoomAndPan="magnify"><defs/><g><!--MD5=[030fb27d31e47a9081912f52ec8aa49a]
class Assertion--><a href="#Assertion" target="_top" title="#Assertion" xlink:actuate="onRequest" xlink:href="#Assertion" xlink:show="new" xlink:title="#Assertion" xlink:type="simple"><g ><rect codeLine="6" fill="#FFFFFF" height="40"  rx="2.5" ry="2.5" style="stroke:#000000;stroke-width:0.5;" width="97" x="710.5" y="100"/><ellipse cx="725.5" cy="116" fill="#A9DCDF" rx="11" ry="11" style="stroke:#181818;stroke-width:1.0;"/><path d="M725.3633,111.3481 L724.2095,116.4199 L726.5254,116.4199 Z M723.8691,109.1069 L726.8657,109.1069 L730.2109,121.5 L727.7622,121.5 L726.9985,118.437 L723.7197,118.437 L722.9727,121.5 L720.5239,121.5 Z " fill="#000000"/><text fill="#000000" font-family="sans-serif" font-size="14" font-style="italic" lengthAdjust="spacing" textLength="65" x="739.5" y="121.291">Assertion</text><line style="stroke:#000000;stroke-width:0.5;" x1="711.5" x2="806.5" y1="132" y2="132"/></g></a><!--MD5=[95174e42ee347a14b6cb78d6855f19b5]
class Element--><a href="#Element" target="_top" title="#Element" xlink:actuate="onRequest" xlink:href="#Element" xlink:show="new" xlink:title="#Element" xlink:type="simple"><g ><rect codeLine="8" fill="#D3D3D3" height="32"  rx="2.5" ry="2.5" style="stroke:#000000;stroke-width:0.5;" width="87" x="715.5" y="7"/><ellipse cx="730.5" cy="23" fill="#A9DCDF" rx="11" ry="11" style="stroke:#181818;stroke-width:1.0;"/><path d="M730.3633,18.3481 L729.2095,23.4199 L731.5254,23.4199 Z M728.8691,16.1069 L731.8657,16.1069 L735.2109,28.5 L732.7622,28.5 L731.9985,25.437 L728.7197,25.437 L727.9727,28.5 L725.5239,28.5 Z " fill="#000000"/><text fill="#000000" font-family="sans-serif" font-size="14" font-style="italic" lengthAdjust="spacing" textLength="55" x="744.5" y="28.291">Element</text></g></a><!--MD5=[03541eacc58da9eb05859a474e5e3193]
class ConceptTypeAssertion--><a href="#ConceptTypeAssertion" target="_top" title="#ConceptTypeAssertion" xlink:actuate="onRequest" xlink:href="#ConceptTypeAssertion" xlink:show="new" xlink:title="#ConceptTypeAssertion" xlink:type="simple"><g ><rect codeLine="11" fill="#FFFFFF" height="89.4648"  rx="2.5" ry="2.5" style="stroke:#000000;stroke-width:0.5;" width="365" x="576.5" y="368"/><ellipse cx="677.25" cy="384" fill="#ADD1B2" rx="11" ry="11" style="stroke:#181818;stroke-width:1.0;"/><path d="M679.7231,390.1431 Q679.1421,390.4419 678.5029,390.5913 Q677.8638,390.7407 677.1582,390.7407 Q674.6514,390.7407 673.3315,389.0889 Q672.0117,387.437 672.0117,384.3159 Q672.0117,381.1865 673.3315,379.5347 Q674.6514,377.8828 677.1582,377.8828 Q677.8638,377.8828 678.5112,378.0322 Q679.1587,378.1816 679.7231,378.4805 L679.7231,381.2031 Q679.0923,380.6221 678.4988,380.3523 Q677.9053,380.0825 677.2744,380.0825 Q675.9297,380.0825 675.2449,381.1492 Q674.5601,382.2158 674.5601,384.3159 Q674.5601,386.4077 675.2449,387.4744 Q675.9297,388.541 677.2744,388.541 Q677.9053,388.541 678.4988,388.2712 Q679.0923,388.0015 679.7231,387.4204 Z " fill="#000000"/><text fill="#000000" font-family="sans-serif" font-size="14" lengthAdjust="spacing" textLength="155" x="697.75" y="389.291">ConceptTypeAssertion</text><line style="stroke:#000000;stroke-width:0.5;" x1="577.5" x2="940.5" y1="400" y2="400"/><text fill="#000000" font-family="sans-serif" font-size="14" lengthAdjust="spacing" textLength="121" x="582.5" y="417.5352">type : Concept [1]</text><text fill="#000000" font-family="sans-serif" font-size="14" lengthAdjust="spacing" textLength="274" x="582.5" y="434.0234">owningInstance : ConceptInstance [0..1]</text><text fill="#000000" font-family="sans-serif" font-size="14" lengthAdjust="spacing" textLength="353" x="582.5" y="450.5117">owningReference : ConceptInstanceReference [0..1]</text></g></a><!--MD5=[6a2c911c5e68a24d9d0c71b69ce0a399]
class TypeAssertion--><a href="#TypeAssertion" target="_top" title="#TypeAssertion" xlink:actuate="onRequest" xlink:href="#TypeAssertion" xlink:show="new" xlink:title="#TypeAssertion" xlink:type="simple"><g ><rect codeLine="49" fill="#FFFFFF" height="40"  rx="2.5" ry="2.5" style="stroke:#000000;stroke-width:0.5;" width="130" x="694" y="234"/><ellipse cx="709" cy="250" fill="#A9DCDF" rx="11" ry="11" style="stroke:#181818;stroke-width:1.0;"/><path d="M708.8633,245.3481 L707.7095,250.4199 L710.0254,250.4199 Z M707.3691,243.1069 L710.3657,243.1069 L713.7109,255.5 L711.2622,255.5 L710.4985,252.437 L707.2197,252.437 L706.4727,255.5 L704.0239,255.5 Z " fill="#000000"/><text fill="#000000" font-family="sans-serif" font-size="14" font-style="italic" lengthAdjust="spacing" textLength="98" x="723" y="255.291">TypeAssertion</text><line style="stroke:#000000;stroke-width:0.5;" x1="695" x2="823" y1="266" y2="266"/></g></a><!--MD5=[1d4c83110fab86e623c5cd99c66ce333]
class LinkAssertion--><a href="#LinkAssertion" target="_top" title="#LinkAssertion" xlink:actuate="onRequest" xlink:href="#LinkAssertion" xlink:show="new" xlink:title="#LinkAssertion" xlink:type="simple"><g ><rect codeLine="17" fill="#FFFFFF" height="105.9531"  rx="2.5" ry="2.5" style="stroke:#000000;stroke-width:0.5;" width="356" x="859" y="201"/><ellipse cx="986.25" cy="217" fill="#ADD1B2" rx="11" ry="11" style="stroke:#181818;stroke-width:1.0;"/><path d="M988.7231,223.1431 Q988.1421,223.4419 987.5029,223.5913 Q986.8638,223.7407 986.1582,223.7407 Q983.6514,223.7407 982.3315,222.0889 Q981.0117,220.437 981.0117,217.3159 Q981.0117,214.1865 982.3315,212.5347 Q983.6514,210.8828 986.1582,210.8828 Q986.8638,210.8828 987.5112,211.0322 Q988.1587,211.1816 988.7231,211.4805 L988.7231,214.2031 Q988.0923,213.6221 987.4988,213.3523 Q986.9053,213.0825 986.2744,213.0825 Q984.9297,213.0825 984.2449,214.1492 Q983.5601,215.2158 983.5601,217.3159 Q983.5601,219.4077 984.2449,220.4744 Q984.9297,221.541 986.2744,221.541 Q986.9053,221.541 987.4988,221.2712 Q988.0923,221.0015 988.7231,220.4204 Z " fill="#000000"/><text fill="#000000" font-family="sans-serif" font-size="14" lengthAdjust="spacing" textLength="93" x="1006.75" y="222.291">LinkAssertion</text><line style="stroke:#000000;stroke-width:0.5;" x1="860" x2="1214" y1="233" y2="233"/><text fill="#000000" font-family="sans-serif" font-size="14" lengthAdjust="spacing" textLength="144" x="865" y="250.5352">relation : Relation [1]</text><text fill="#000000" font-family="sans-serif" font-size="14" lengthAdjust="spacing" textLength="181" x="865" y="267.0234">target : NamedInstance [1]</text><text fill="#000000" font-family="sans-serif" font-size="14" lengthAdjust="spacing" textLength="265" x="865" y="283.5117">owningInstance : NamedInstance [0..1]</text><text fill="#000000" font-family="sans-serif" font-size="14" lengthAdjust="spacing" textLength="344" x="865" y="300">owningReference : NamedInstanceReference [0..1]</text></g></a><!--MD5=[6d0a02ee44a7895dbe334527783d800c]
class PropertyValueAssertion--><a href="#PropertyValueAssertion" target="_top" title="#PropertyValueAssertion" xlink:actuate="onRequest" xlink:href="#PropertyValueAssertion" xlink:show="new" xlink:title="#PropertyValueAssertion" xlink:type="simple"><g ><rect codeLine="24" fill="#FFFFFF" height="72.9766"  rx="2.5" ry="2.5" style="stroke:#000000;stroke-width:0.5;" width="356" x="231" y="217.5"/><ellipse cx="324.25" cy="233.5" fill="#A9DCDF" rx="11" ry="11" style="stroke:#181818;stroke-width:1.0;"/><path d="M324.1133,228.8481 L322.9595,233.9199 L325.2754,233.9199 Z M322.6191,226.6069 L325.6157,226.6069 L328.9609,239 L326.5122,239 L325.7485,235.937 L322.4697,235.937 L321.7227,239 L319.2739,239 Z " fill="#000000"/><text fill="#000000" font-family="sans-serif" font-size="14" font-style="italic" lengthAdjust="spacing" textLength="161" x="344.75" y="238.791">PropertyValueAssertion</text><line style="stroke:#000000;stroke-width:0.5;" x1="232" x2="586" y1="249.5" y2="249.5"/><text fill="#000000" font-family="sans-serif" font-size="14" lengthAdjust="spacing" textLength="217" x="237" y="267.0352">owningInstance : Instance [0..1]</text><text fill="#000000" font-family="sans-serif" font-size="14" lengthAdjust="spacing" textLength="344" x="237" y="283.5234">owningReference : NamedInstanceReference [0..1]</text></g></a><!--MD5=[e53970aaa929ddb260a07d7f00a7515f]
class RelationTypeAssertion--><a href="#RelationTypeAssertion" target="_top" title="#RelationTypeAssertion" xlink:actuate="onRequest" xlink:href="#RelationTypeAssertion" xlink:show="new" xlink:title="#RelationTypeAssertion" xlink:type="simple"><g ><rect codeLine="29" fill="#FFFFFF" height="89.4648"  rx="2.5" ry="2.5" style="stroke:#000000;stroke-width:0.5;" width="364" x="977" y="368"/><ellipse cx="1077.75" cy="384" fill="#ADD1B2" rx="11" ry="11" style="stroke:#181818;stroke-width:1.0;"/><path d="M1080.2231,390.1431 Q1079.6421,390.4419 1079.0029,390.5913 Q1078.3638,390.7407 1077.6582,390.7407 Q1075.1514,390.7407 1073.8315,389.0889 Q1072.5117,387.437 1072.5117,384.3159 Q1072.5117,381.1865 1073.8315,379.5347 Q1075.1514,377.8828 1077.6582,377.8828 Q1078.3638,377.8828 1079.0112,378.0322 Q1079.6587,378.1816 1080.2231,378.4805 L1080.2231,381.2031 Q1079.5923,380.6221 1078.9988,380.3523 Q1078.4053,380.0825 1077.7744,380.0825 Q1076.4297,380.0825 1075.7449,381.1492 Q1075.0601,382.2158 1075.0601,384.3159 Q1075.0601,386.4077 1075.7449,387.4744 Q1076.4297,388.541 1077.7744,388.541 Q1078.4053,388.541 1078.9988,388.2712 Q1079.5923,388.0015 1080.2231,387.4204 Z " fill="#000000"/><text fill="#000000" font-family="sans-serif" font-size="14" lengthAdjust="spacing" textLength="154" x="1098.25" y="389.291">RelationTypeAssertion</text><line style="stroke:#000000;stroke-width:0.5;" x1="978" x2="1340" y1="400" y2="400"/><text fill="#000000" font-family="sans-serif" font-size="14" lengthAdjust="spacing" textLength="158" x="983" y="417.5352">type : RelationEntity [1]</text><text fill="#000000" font-family="sans-serif" font-size="14" lengthAdjust="spacing" textLength="273" x="983" y="434.0234">owningInstance : RelationInstance [0..1]</text><text fill="#000000" font-family="sans-serif" font-size="14" lengthAdjust="spacing" textLength="352" x="983" y="450.5117">owningReference : RelationInstanceReference [0..1]</text></g></a><!--MD5=[f112e0b3b537e6061967eedae98c0c2e]
class ScalarPropertyValueAssertion--><a href="#ScalarPropertyValueAssertion" target="_top" title="#ScalarPropertyValueAssertion" xlink:actuate="onRequest" xlink:href="#ScalarPropertyValueAssertion" xlink:show="new" xlink:title="#ScalarPropertyValueAssertion" xlink:type="simple"><g ><rect codeLine="35" fill="#FFFFFF" height="56.4883"  rx="2.5" ry="2.5" style="stroke:#000000;stroke-width:0.5;" width="234" x="7" y="384.5"/><ellipse cx="22" cy="400.5" fill="#ADD1B2" rx="11" ry="11" style="stroke:#181818;stroke-width:1.0;"/><path d="M24.4731,406.6431 Q23.8921,406.9419 23.2529,407.0913 Q22.6138,407.2407 21.9082,407.2407 Q19.4014,407.2407 18.0815,405.5889 Q16.7617,403.937 16.7617,400.8159 Q16.7617,397.6865 18.0815,396.0347 Q19.4014,394.3828 21.9082,394.3828 Q22.6138,394.3828 23.2612,394.5322 Q23.9087,394.6816 24.4731,394.9805 L24.4731,397.7031 Q23.8423,397.1221 23.2488,396.8523 Q22.6553,396.5825 22.0244,396.5825 Q20.6797,396.5825 19.9949,397.6492 Q19.3101,398.7158 19.3101,400.8159 Q19.3101,402.9077 19.9949,403.9744 Q20.6797,405.041 22.0244,405.041 Q22.6553,405.041 23.2488,404.7712 Q23.8423,404.5015 24.4731,403.9204 Z " fill="#000000"/><text fill="#000000" font-family="sans-serif" font-size="14" lengthAdjust="spacing" textLength="202" x="36" y="405.791">ScalarPropertyValueAssertion</text><line style="stroke:#000000;stroke-width:0.5;" x1="8" x2="240" y1="416.5" y2="416.5"/><text fill="#000000" font-family="sans-serif" font-size="14" lengthAdjust="spacing" textLength="193" x="13" y="434.0352">property : ScalarProperty [1]</text></g></a><!--MD5=[27bfdb9e128171e0e365013b6b91e809]
class Literal--><a href="#Literal" target="_top" title="#Literal" xlink:actuate="onRequest" xlink:href="#Literal" xlink:show="new" xlink:title="#Literal" xlink:type="simple"><g ><rect codeLine="38" fill="#D3D3D3" height="32"  rx="2.5" ry="2.5" style="stroke:#000000;stroke-width:0.5;" width="74" x="87" y="534"/><ellipse cx="102" cy="550" fill="#A9DCDF" rx="11" ry="11" style="stroke:#181818;stroke-width:1.0;"/><path d="M101.8633,545.3481 L100.7095,550.4199 L103.0254,550.4199 Z M100.3691,543.1069 L103.3657,543.1069 L106.7109,555.5 L104.2622,555.5 L103.4985,552.437 L100.2197,552.437 L99.4727,555.5 L97.0239,555.5 Z " fill="#000000"/><text fill="#000000" font-family="sans-serif" font-size="14" font-style="italic" lengthAdjust="spacing" textLength="42" x="116" y="555.291">Literal</text></g></a><!--MD5=[c4b3938e5ca35726e799e7db740de0c3]
class StructuredPropertyValueAssertion--><a href="#StructuredPropertyValueAssertion" target="_top" title="#StructuredPropertyValueAssertion" xlink:actuate="onRequest" xlink:href="#StructuredPropertyValueAssertion" xlink:show="new" xlink:title="#StructuredPropertyValueAssertion" xlink:type="simple"><g ><rect codeLine="42" fill="#FFFFFF" height="56.4883"  rx="2.5" ry="2.5" style="stroke:#000000;stroke-width:0.5;" width="265" x="276.5" y="384.5"/><ellipse cx="291.5" cy="400.5" fill="#ADD1B2" rx="11" ry="11" style="stroke:#181818;stroke-width:1.0;"/><path d="M293.9731,406.6431 Q293.3921,406.9419 292.7529,407.0913 Q292.1138,407.2407 291.4082,407.2407 Q288.9014,407.2407 287.5815,405.5889 Q286.2617,403.937 286.2617,400.8159 Q286.2617,397.6865 287.5815,396.0347 Q288.9014,394.3828 291.4082,394.3828 Q292.1138,394.3828 292.7612,394.5322 Q293.4087,394.6816 293.9731,394.9805 L293.9731,397.7031 Q293.3423,397.1221 292.7488,396.8523 Q292.1553,396.5825 291.5244,396.5825 Q290.1797,396.5825 289.4949,397.6492 Q288.8101,398.7158 288.8101,400.8159 Q288.8101,402.9077 289.4949,403.9744 Q290.1797,405.041 291.5244,405.041 Q292.1553,405.041 292.7488,404.7712 Q293.3423,404.5015 293.9731,403.9204 Z " fill="#000000"/><text fill="#000000" font-family="sans-serif" font-size="14" lengthAdjust="spacing" textLength="233" x="305.5" y="405.791">StructuredPropertyValueAssertion</text><line style="stroke:#000000;stroke-width:0.5;" x1="277.5" x2="540.5" y1="416.5" y2="416.5"/><text fill="#000000" font-family="sans-serif" font-size="14" lengthAdjust="spacing" textLength="224" x="282.5" y="434.0352">property : StructuredProperty [1]</text></g></a><!--MD5=[0b2f13c70971adaa910dfa4227793f6d]
class StructureInstance--><a href="#StructureInstance" target="_top" title="#StructureInstance" xlink:actuate="onRequest" xlink:href="#StructureInstance" xlink:show="new" xlink:title="#StructureInstance" xlink:type="simple"><g ><rect codeLine="45" fill="#D3D3D3" height="32"  rx="2.5" ry="2.5" style="stroke:#000000;stroke-width:0.5;" width="152" x="333" y="534"/><ellipse cx="348" cy="550" fill="#ADD1B2" rx="11" ry="11" style="stroke:#181818;stroke-width:1.0;"/><path d="M350.4731,556.1431 Q349.8921,556.4419 349.2529,556.5913 Q348.6138,556.7407 347.9082,556.7407 Q345.4014,556.7407 344.0815,555.0889 Q342.7617,553.437 342.7617,550.3159 Q342.7617,547.1865 344.0815,545.5347 Q345.4014,543.8828 347.9082,543.8828 Q348.6138,543.8828 349.2612,544.0322 Q349.9087,544.1816 350.4731,544.4805 L350.4731,547.2031 Q349.8423,546.6221 349.2488,546.3523 Q348.6553,546.0825 348.0244,546.0825 Q346.6797,546.0825 345.9949,547.1492 Q345.3101,548.2158 345.3101,550.3159 Q345.3101,552.4077 345.9949,553.4744 Q346.6797,554.541 348.0244,554.541 Q348.6553,554.541 349.2488,554.2712 Q349.8423,554.0015 350.4731,553.4204 Z " fill="#000000"/><text fill="#000000" font-family="sans-serif" font-size="14" lengthAdjust="spacing" textLength="120" x="362" y="555.291">StructureInstance</text></g></a><!--MD5=[ef2e0c1f69ec21ea6cab836a8d1181ec]
reverse link Element to Assertion--><g ><a href="#Element" target="_top" title="#Element" xlink:actuate="onRequest" xlink:href="#Element" xlink:show="new" xlink:title="#Element" xlink:type="simple"><path codeLine="10" d="M759,60.46 C759,73.88 759,88.54 759,99.84 " fill="none"  style="stroke:#000000;stroke-width:1.0;"/><polygon fill="none" points="752,60.78,759,40.78,766,60.78,752,60.78" style="stroke:#000000;stroke-width:1.0;"/></a></g><!--MD5=[a6cdc3f0de8c5dc6fac62f71204a3729]
reverse link TypeAssertion to ConceptTypeAssertion--><g ><a href="#TypeAssertion" target="_top" title="#TypeAssertion" xlink:actuate="onRequest" xlink:href="#TypeAssertion" xlink:show="new" xlink:title="#TypeAssertion" xlink:type="simple"><path codeLine="16" d="M759,295.6 C759,317.66 759,344.96 759,367.53 " fill="none"  style="stroke:#000000;stroke-width:1.0;"/><polygon fill="none" points="752,295.7,759,275.7,766,295.7,752,295.7" style="stroke:#000000;stroke-width:1.0;"/></a></g><!--MD5=[4ac9169be823904853a2f2778576ef81]
reverse link Assertion to LinkAssertion--><g ><a href="#Assertion" target="_top" title="#Assertion" xlink:actuate="onRequest" xlink:href="#Assertion" xlink:show="new" xlink:title="#Assertion" xlink:type="simple"><path codeLine="23" d="M819.39,149.67 C850.77,164.58 890.13,183.26 926.71,200.63 " fill="none"  style="stroke:#000000;stroke-width:1.0;"/><polygon fill="none" points="816.45,156.03,801.39,141.13,822.46,143.38,816.45,156.03" style="stroke:#000000;stroke-width:1.0;"/></a></g><!--MD5=[d91ba29cdf7da7802e291c76a41de8f9]
reverse link Assertion to PropertyValueAssertion--><g ><a href="#Assertion" target="_top" title="#Assertion" xlink:actuate="onRequest" xlink:href="#Assertion" xlink:show="new" xlink:title="#Assertion" xlink:type="simple"><path codeLine="28" d="M690.4,146.87 C637.33,166.89 563.22,194.84 504.37,217.03 " fill="none"  style="stroke:#000000;stroke-width:1.0;"/><polygon fill="none" points="687.73,140.4,708.92,139.89,692.67,153.5,687.73,140.4" style="stroke:#000000;stroke-width:1.0;"/></a></g><!--MD5=[d54c070a0ddb9ff8ee16b12c7260d520]
reverse link TypeAssertion to RelationTypeAssertion--><g ><a href="#TypeAssertion" target="_top" title="#TypeAssertion" xlink:actuate="onRequest" xlink:href="#TypeAssertion" xlink:show="new" xlink:title="#TypeAssertion" xlink:type="simple"><path codeLine="34" d="M803.83,285.83 C815.9,293.36 829.17,300.98 842,307 C892.09,330.52 948.92,351.04 1000.5,367.52 " fill="none"  style="stroke:#000000;stroke-width:1.0;"/><polygon fill="none" points="800.32,291.9,787.37,275.14,807.95,280.16,800.32,291.9" style="stroke:#000000;stroke-width:1.0;"/></a></g><!--MD5=[41aa5f6d8eb0d0462f9f73c0e8f193db]
reverse link PropertyValueAssertion to ScalarPropertyValueAssertion--><g ><a href="#PropertyValueAssertion" target="_top" title="#PropertyValueAssertion" xlink:actuate="onRequest" xlink:href="#PropertyValueAssertion" xlink:show="new" xlink:title="#PropertyValueAssertion" xlink:type="simple"><path codeLine="40" d="M325.07,301.09 C275.99,328.04 215.67,361.16 173.98,384.06 " fill="none"  style="stroke:#000000;stroke-width:1.0;"/><polygon fill="none" points="321.39,295.12,342.29,291.63,328.13,307.4,321.39,295.12" style="stroke:#000000;stroke-width:1.0;"/></a></g><!--MD5=[d5e7ae81595b3457088c2a7c356581bc]
link ScalarPropertyValueAssertion to Literal--><g ><path codeLine="41" d="M124,454.43 C124,454.43 124,500.59 124,519.34 " fill="none"  style="stroke:#000000;stroke-width:1.0;"/><polygon fill="#000000" points="124,532.3,128,523.3,124,527.3,120,523.3,124,532.3" style="stroke:#000000;stroke-width:1.0;"/><line style="stroke:#000000;stroke-width:1.0;" x1="124" x2="124" y1="527.3" y2="519.3"/><polygon fill="#000000" points="124,442.43,120,448.43,124,454.43,128,448.43,124,442.43" style="stroke:#000000;stroke-width:1.0;"/><text fill="#000000" font-family="sans-serif" font-size="13" lengthAdjust="spacing" textLength="33" x="125" y="500.5684">value</text><text fill="#000000" font-family="sans-serif" font-size="13" lengthAdjust="spacing" textLength="8" x="114.625" y="523.2883">1</text></g><!--MD5=[ce2dfd09488c60cd4b021c77a5009632]
reverse link PropertyValueAssertion to StructuredPropertyValueAssertion--><g ><a href="#PropertyValueAssertion" target="_top" title="#PropertyValueAssertion" xlink:actuate="onRequest" xlink:href="#PropertyValueAssertion" xlink:show="new" xlink:title="#PropertyValueAssertion" xlink:type="simple"><path codeLine="47" d="M409,312.27 C409,336.78 409,364.24 409,384.06 " fill="none"  style="stroke:#000000;stroke-width:1.0;"/><polygon fill="none" points="402,312.42,409,292.42,416,312.42,402,312.42" style="stroke:#000000;stroke-width:1.0;"/></a></g><!--MD5=[5fa95a8b119786501f890d8fbf183573]
link StructuredPropertyValueAssertion to StructureInstance--><g ><path codeLine="48" d="M409,454.43 C409,454.43 409,500.59 409,519.34 " fill="none"  style="stroke:#000000;stroke-width:1.0;"/><polygon fill="#000000" points="409,532.3,413,523.3,409,527.3,405,523.3,409,532.3" style="stroke:#000000;stroke-width:1.0;"/><line style="stroke:#000000;stroke-width:1.0;" x1="409" x2="409" y1="527.3" y2="519.3"/><polygon fill="#000000" points="409,442.43,405,448.43,409,454.43,413,448.43,409,442.43" style="stroke:#000000;stroke-width:1.0;"/><text fill="#000000" font-family="sans-serif" font-size="13" lengthAdjust="spacing" textLength="33" x="410" y="500.5684">value</text><text fill="#000000" font-family="sans-serif" font-size="13" lengthAdjust="spacing" textLength="8" x="399.625" y="523.2883">1</text></g><!--MD5=[43de62fc2bf8b8f04ff79b2bdd651525]
reverse link Assertion to TypeAssertion--><g ><a href="#Assertion" target="_top" title="#Assertion" xlink:actuate="onRequest" xlink:href="#Assertion" xlink:show="new" xlink:title="#Assertion" xlink:type="simple"><path codeLine="51" d="M759,161.78 C759,185.8 759,215.08 759,233.87 " fill="none"  style="stroke:#000000;stroke-width:1.0;"/><polygon fill="none" points="752,161.99,759,141.99,766,161.99,752,161.99" style="stroke:#000000;stroke-width:1.0;"/></a></g><!--MD5=[17e66ef1f997264b6fdd075c5c1b06b3]
@startuml
skinparam classBackgroundColor LightGray
skinparam classBorderColor Black
skinparam enumBorderColor Black
skinparam ArrowColor Black
hide methods
abstract class Assertion [[#Assertion]] #white {
}
abstract class Element [[#Element]]
hide Element members
Assertion -up-|> Element [[#Element]]
class ConceptTypeAssertion [[#ConceptTypeAssertion]] #white {
	type : Concept [1]
	owningInstance : ConceptInstance [0..1]
	owningReference : ConceptInstanceReference [0..1]
}
ConceptTypeAssertion -up-|> TypeAssertion [[#TypeAssertion]]
class LinkAssertion [[#LinkAssertion]] #white {
	relation : Relation [1]
	target : NamedInstance [1]
	owningInstance : NamedInstance [0..1]
	owningReference : NamedInstanceReference [0..1]
}
LinkAssertion -up-|> Assertion [[#Assertion]]
abstract class PropertyValueAssertion [[#PropertyValueAssertion]] #white {
	owningInstance : Instance [0..1]
	owningReference : NamedInstanceReference [0..1]
}
PropertyValueAssertion -up-|> Assertion [[#Assertion]]
class RelationTypeAssertion [[#RelationTypeAssertion]] #white {
	type : RelationEntity [1]
	owningInstance : RelationInstance [0..1]
	owningReference : RelationInstanceReference [0..1]
}
RelationTypeAssertion -up-|> TypeAssertion [[#TypeAssertion]]
class ScalarPropertyValueAssertion [[#ScalarPropertyValueAssertion]] #white {
	property : ScalarProperty [1]
}
abstract class Literal [[#Literal]]
hide Literal members
ScalarPropertyValueAssertion -up-|> PropertyValueAssertion [[#PropertyValueAssertion]]
ScalarPropertyValueAssertion *- -> "1" Literal : value
class StructuredPropertyValueAssertion [[#StructuredPropertyValueAssertion]] #white {
	property : StructuredProperty [1]
}
class StructureInstance [[#StructureInstance]]
hide StructureInstance members
StructuredPropertyValueAssertion -up-|> PropertyValueAssertion [[#PropertyValueAssertion]]
StructuredPropertyValueAssertion *- -> "1" StructureInstance : value
abstract class TypeAssertion [[#TypeAssertion]] #white {
}
TypeAssertion -up-|> Assertion [[#Assertion]]
@enduml

PlantUML version 1.2022.12(Sun Oct 23 11:12:26 PDT 2022)
(GPL source distribution)
Java Runtime: OpenJDK Runtime Environment
JVM: OpenJDK 64-Bit Server VM
Default Encoding: UTF-8
Language: en
Country: US
--></g></svg>
