<?xml version="1.0" encoding="UTF-8" standalone="no"?><svg xmlns="http://www.w3.org/2000/svg" xmlns:xlink="http://www.w3.org/1999/xlink" contentStyleType="text/css" height="591px" preserveAspectRatio="none" style="width:1204px;height:591px;background:#FFFFFF;" version="1.1" viewBox="0 0 1204 591" width="1204px" zoomAndPan="magnify"><defs/><g><!--MD5=[a052ffd04a2a5cd2f202acb632be8a32]
class SpecializableTerm--><a href="#SpecializableTerm" target="_top" title="#SpecializableTerm" xlink:actuate="onRequest" xlink:href="#SpecializableTerm" xlink:show="new" xlink:title="#SpecializableTerm" xlink:type="simple"><g ><rect codeLine="6" fill="#FFFFFF" height="40"  rx="2.5" ry="2.5" style="stroke:#000000;stroke-width:0.5;" width="157" x="58.5" y="435"/><ellipse cx="73.5" cy="451" fill="#A9DCDF" rx="11" ry="11" style="stroke:#181818;stroke-width:1.0;"/><path d="M73.3633,446.3481 L72.2095,451.4199 L74.5254,451.4199 Z M71.8691,444.1069 L74.8657,444.1069 L78.2109,456.5 L75.7622,456.5 L74.9985,453.437 L71.7197,453.437 L70.9727,456.5 L68.5239,456.5 Z " fill="#000000"/><text fill="#000000" font-family="sans-serif" font-size="14" font-style="italic" lengthAdjust="spacing" textLength="125" x="87.5" y="456.291">SpecializableTerm</text><line style="stroke:#000000;stroke-width:0.5;" x1="59.5" x2="214.5" y1="467" y2="467"/></g></a><!--MD5=[49d093cbf59b0406cd053b3862e288a5]
class SpecializationAxiom--><a href="#SpecializationAxiom" target="_top" title="#SpecializationAxiom" xlink:actuate="onRequest" xlink:href="#SpecializationAxiom" xlink:show="new" xlink:title="#SpecializationAxiom" xlink:type="simple"><g ><rect codeLine="8" fill="#D3D3D3" height="32"  rx="2.5" ry="2.5" style="stroke:#000000;stroke-width:0.5;" width="172" x="51" y="552"/><ellipse cx="66" cy="568" fill="#ADD1B2" rx="11" ry="11" style="stroke:#181818;stroke-width:1.0;"/><path d="M68.4731,574.1431 Q67.8921,574.4419 67.2529,574.5913 Q66.6138,574.7407 65.9082,574.7407 Q63.4014,574.7407 62.0815,573.0889 Q60.7617,571.437 60.7617,568.3159 Q60.7617,565.1865 62.0815,563.5347 Q63.4014,561.8828 65.9082,561.8828 Q66.6138,561.8828 67.2612,562.0322 Q67.9087,562.1816 68.4731,562.4805 L68.4731,565.2031 Q67.8423,564.6221 67.2488,564.3523 Q66.6553,564.0825 66.0244,564.0825 Q64.6797,564.0825 63.9949,565.1492 Q63.3101,566.2158 63.3101,568.3159 Q63.3101,570.4077 63.9949,571.4744 Q64.6797,572.541 66.0244,572.541 Q66.6553,572.541 67.2488,572.2712 Q67.8423,572.0015 68.4731,571.4204 Z " fill="#000000"/><text fill="#000000" font-family="sans-serif" font-size="14" lengthAdjust="spacing" textLength="140" x="80" y="573.291">SpecializationAxiom</text></g></a><!--MD5=[9d35236b92952560f647498cf8a29acb]
class Term--><a href="#Term" target="_top" title="#Term" xlink:actuate="onRequest" xlink:href="#Term" xlink:show="new" xlink:title="#Term" xlink:type="simple"><g ><rect codeLine="13" fill="#FFFFFF" height="40"  rx="2.5" ry="2.5" style="stroke:#000000;stroke-width:0.5;" width="68" x="17" y="326"/><ellipse cx="32" cy="342" fill="#A9DCDF" rx="11" ry="11" style="stroke:#181818;stroke-width:1.0;"/><path d="M31.8633,337.3481 L30.7095,342.4199 L33.0254,342.4199 Z M30.3691,335.1069 L33.3657,335.1069 L36.7109,347.5 L34.2622,347.5 L33.4985,344.437 L30.2197,344.437 L29.4727,347.5 L27.0239,347.5 Z " fill="#000000"/><text fill="#000000" font-family="sans-serif" font-size="14" font-style="italic" lengthAdjust="spacing" textLength="36" x="46" y="347.291">Term</text><line style="stroke:#000000;stroke-width:0.5;" x1="18" x2="84" y1="358" y2="358"/></g></a><!--MD5=[46b33d4aeab8075ab5c21e75f4258a8a]
class VocabularyStatement--><a href="#VocabularyStatement" target="_top" title="#VocabularyStatement" xlink:actuate="onRequest" xlink:href="#VocabularyStatement" xlink:show="new" xlink:title="#VocabularyStatement" xlink:type="simple"><g ><rect codeLine="53" fill="#FFFFFF" height="56.4883"  rx="2.5" ry="2.5" style="stroke:#000000;stroke-width:0.5;" width="250" x="120" y="318"/><ellipse cx="168.25" cy="334" fill="#A9DCDF" rx="11" ry="11" style="stroke:#181818;stroke-width:1.0;"/><path d="M168.1133,329.3481 L166.9595,334.4199 L169.2754,334.4199 Z M166.6191,327.1069 L169.6157,327.1069 L172.9609,339.5 L170.5122,339.5 L169.7485,336.437 L166.4697,336.437 L165.7227,339.5 L163.2739,339.5 Z " fill="#000000"/><text fill="#000000" font-family="sans-serif" font-size="14" font-style="italic" lengthAdjust="spacing" textLength="145" x="188.75" y="339.291">VocabularyStatement</text><line style="stroke:#000000;stroke-width:0.5;" x1="121" x2="369" y1="350" y2="350"/><text fill="#000000" font-family="sans-serif" font-size="14" lengthAdjust="spacing" textLength="238" x="126" y="367.5352">owningVocabulary : Vocabulary [1]</text></g></a><!--MD5=[f58fd777f29c17413488bea9e7cfcca3]
class Member--><a href="#Member" target="_top" title="#Member" xlink:actuate="onRequest" xlink:href="#Member" xlink:show="new" xlink:title="#Member" xlink:type="simple"><g ><rect codeLine="15" fill="#D3D3D3" height="32"  rx="2.5" ry="2.5" style="stroke:#000000;stroke-width:0.5;" width="88" x="7" y="205"/><ellipse cx="22" cy="221" fill="#A9DCDF" rx="11" ry="11" style="stroke:#181818;stroke-width:1.0;"/><path d="M21.8633,216.3481 L20.7095,221.4199 L23.0254,221.4199 Z M20.3691,214.1069 L23.3657,214.1069 L26.7109,226.5 L24.2622,226.5 L23.4985,223.437 L20.2197,223.437 L19.4727,226.5 L17.0239,226.5 Z " fill="#000000"/><text fill="#000000" font-family="sans-serif" font-size="14" font-style="italic" lengthAdjust="spacing" textLength="56" x="36" y="226.291">Member</text></g></a><!--MD5=[ab582a0c263dba417ad352e606b068fa]
class Vocabulary--><a href="#Vocabulary" target="_top" title="#Vocabulary" xlink:actuate="onRequest" xlink:href="#Vocabulary" xlink:show="new" xlink:title="#Vocabulary" xlink:type="simple"><g ><rect codeLine="18" fill="#FFFFFF" height="40"  rx="2.5" ry="2.5" style="stroke:#000000;stroke-width:0.5;" width="108" x="476" y="201"/><ellipse cx="491" cy="217" fill="#ADD1B2" rx="11" ry="11" style="stroke:#181818;stroke-width:1.0;"/><path d="M493.4731,223.1431 Q492.8921,223.4419 492.2529,223.5913 Q491.6138,223.7407 490.9082,223.7407 Q488.4014,223.7407 487.0815,222.0889 Q485.7617,220.437 485.7617,217.3159 Q485.7617,214.1865 487.0815,212.5347 Q488.4014,210.8828 490.9082,210.8828 Q491.6138,210.8828 492.2612,211.0322 Q492.9087,211.1816 493.4731,211.4805 L493.4731,214.2031 Q492.8423,213.6221 492.2488,213.3523 Q491.6553,213.0825 491.0244,213.0825 Q489.6797,213.0825 488.9949,214.1492 Q488.3101,215.2158 488.3101,217.3159 Q488.3101,219.4077 488.9949,220.4744 Q489.6797,221.541 491.0244,221.541 Q491.6553,221.541 492.2488,221.2712 Q492.8423,221.0015 493.4731,220.4204 Z " fill="#000000"/><text fill="#000000" font-family="sans-serif" font-size="14" lengthAdjust="spacing" textLength="76" x="505" y="222.291">Vocabulary</text><line style="stroke:#000000;stroke-width:0.5;" x1="477" x2="583" y1="233" y2="233"/></g></a><!--MD5=[0f49be9f658c00ab935f824507f874ad]
class VocabularyBox--><a href="#VocabularyBox" target="_top" title="#VocabularyBox" xlink:actuate="onRequest" xlink:href="#VocabularyBox" xlink:show="new" xlink:title="#VocabularyBox" xlink:type="simple"><g ><rect codeLine="23" fill="#FFFFFF" height="40"  rx="2.5" ry="2.5" style="stroke:#000000;stroke-width:0.5;" width="134" x="602" y="100"/><ellipse cx="617" cy="116" fill="#A9DCDF" rx="11" ry="11" style="stroke:#181818;stroke-width:1.0;"/><path d="M616.8633,111.3481 L615.7095,116.4199 L618.0254,116.4199 Z M615.3691,109.1069 L618.3657,109.1069 L621.7109,121.5 L619.2622,121.5 L618.4985,118.437 L615.2197,118.437 L614.4727,121.5 L612.0239,121.5 Z " fill="#000000"/><text fill="#000000" font-family="sans-serif" font-size="14" font-style="italic" lengthAdjust="spacing" textLength="102" x="631" y="121.291">VocabularyBox</text><line style="stroke:#000000;stroke-width:0.5;" x1="603" x2="735" y1="132" y2="132"/></g></a><!--MD5=[e571556472849cfda0260818fbf7c861]
class VocabularyImport--><a href="#VocabularyImport" target="_top" title="#VocabularyImport" xlink:actuate="onRequest" xlink:href="#VocabularyImport" xlink:show="new" xlink:title="#VocabularyImport" xlink:type="simple"><g ><rect codeLine="47" fill="#FFFFFF" height="56.4883"  rx="2.5" ry="2.5" style="stroke:#000000;stroke-width:0.5;" width="250" x="405" y="318"/><ellipse cx="464.75" cy="334" fill="#A9DCDF" rx="11" ry="11" style="stroke:#181818;stroke-width:1.0;"/><path d="M464.6133,329.3481 L463.4595,334.4199 L465.7754,334.4199 Z M463.1191,327.1069 L466.1157,327.1069 L469.4609,339.5 L467.0122,339.5 L466.2485,336.437 L462.9697,336.437 L462.2227,339.5 L459.7739,339.5 Z " fill="#000000"/><text fill="#000000" font-family="sans-serif" font-size="14" font-style="italic" lengthAdjust="spacing" textLength="122" x="485.25" y="339.291">VocabularyImport</text><line style="stroke:#000000;stroke-width:0.5;" x1="406" x2="654" y1="350" y2="350"/><text fill="#000000" font-family="sans-serif" font-size="14" lengthAdjust="spacing" textLength="238" x="411" y="367.5352">owningVocabulary : Vocabulary [1]</text></g></a><!--MD5=[5dfd8d6a6d713da886d1ef2bfe78f203]
class Ontology--><a href="#Ontology" target="_top" title="#Ontology" xlink:actuate="onRequest" xlink:href="#Ontology" xlink:show="new" xlink:title="#Ontology" xlink:type="simple"><g ><rect codeLine="25" fill="#D3D3D3" height="32"  rx="2.5" ry="2.5" style="stroke:#000000;stroke-width:0.5;" width="95" x="621.5" y="7"/><ellipse cx="636.5" cy="23" fill="#A9DCDF" rx="11" ry="11" style="stroke:#181818;stroke-width:1.0;"/><path d="M636.3633,18.3481 L635.2095,23.4199 L637.5254,23.4199 Z M634.8691,16.1069 L637.8657,16.1069 L641.2109,28.5 L638.7622,28.5 L637.9985,25.437 L634.7197,25.437 L633.9727,28.5 L631.5239,28.5 Z " fill="#000000"/><text fill="#000000" font-family="sans-serif" font-size="14" font-style="italic" lengthAdjust="spacing" textLength="63" x="650.5" y="28.291">Ontology</text></g></a><!--MD5=[8cf9371877d66c1a415dc25868b96f9f]
class VocabularyBundle--><a href="#VocabularyBundle" target="_top" title="#VocabularyBundle" xlink:actuate="onRequest" xlink:href="#VocabularyBundle" xlink:show="new" xlink:title="#VocabularyBundle" xlink:type="simple"><g ><rect codeLine="28" fill="#FFFFFF" height="40"  rx="2.5" ry="2.5" style="stroke:#000000;stroke-width:0.5;" width="155" x="771.5" y="201"/><ellipse cx="786.5" cy="217" fill="#ADD1B2" rx="11" ry="11" style="stroke:#181818;stroke-width:1.0;"/><path d="M788.9731,223.1431 Q788.3921,223.4419 787.7529,223.5913 Q787.1138,223.7407 786.4082,223.7407 Q783.9014,223.7407 782.5815,222.0889 Q781.2617,220.437 781.2617,217.3159 Q781.2617,214.1865 782.5815,212.5347 Q783.9014,210.8828 786.4082,210.8828 Q787.1138,210.8828 787.7612,211.0322 Q788.4087,211.1816 788.9731,211.4805 L788.9731,214.2031 Q788.3423,213.6221 787.7488,213.3523 Q787.1553,213.0825 786.5244,213.0825 Q785.1797,213.0825 784.4949,214.1492 Q783.8101,215.2158 783.8101,217.3159 Q783.8101,219.4077 784.4949,220.4744 Q785.1797,221.541 786.5244,221.541 Q787.1553,221.541 787.7488,221.2712 Q788.3423,221.0015 788.9731,220.4204 Z " fill="#000000"/><text fill="#000000" font-family="sans-serif" font-size="14" lengthAdjust="spacing" textLength="123" x="800.5" y="222.291">VocabularyBundle</text><line style="stroke:#000000;stroke-width:0.5;" x1="772.5" x2="925.5" y1="233" y2="233"/></g></a><!--MD5=[2e11a0adb7101f23b90ae3be70031f43]
class VocabularyBundleImport--><a href="#VocabularyBundleImport" target="_top" title="#VocabularyBundleImport" xlink:actuate="onRequest" xlink:href="#VocabularyBundleImport" xlink:show="new" xlink:title="#VocabularyBundleImport" xlink:type="simple"><g ><rect codeLine="35" fill="#FFFFFF" height="56.4883"  rx="2.5" ry="2.5" style="stroke:#000000;stroke-width:0.5;" width="344" x="690" y="318"/><ellipse cx="773.25" cy="334" fill="#A9DCDF" rx="11" ry="11" style="stroke:#181818;stroke-width:1.0;"/><path d="M773.1133,329.3481 L771.9595,334.4199 L774.2754,334.4199 Z M771.6191,327.1069 L774.6157,327.1069 L777.9609,339.5 L775.5122,339.5 L774.7485,336.437 L771.4697,336.437 L770.7227,339.5 L768.2739,339.5 Z " fill="#000000"/><text fill="#000000" font-family="sans-serif" font-size="14" font-style="italic" lengthAdjust="spacing" textLength="169" x="793.75" y="339.291">VocabularyBundleImport</text><line style="stroke:#000000;stroke-width:0.5;" x1="691" x2="1033" y1="350" y2="350"/><text fill="#000000" font-family="sans-serif" font-size="14" lengthAdjust="spacing" textLength="332" x="696" y="367.5352">owningVocabularyBundle : VocabularyBundle [1]</text></g></a><!--MD5=[5fd6cdbf89670d36b1d17af87789ebe1]
class VocabularyBundleExtension--><a href="#VocabularyBundleExtension" target="_top" title="#VocabularyBundleExtension" xlink:actuate="onRequest" xlink:href="#VocabularyBundleExtension" xlink:show="new" xlink:title="#VocabularyBundleExtension" xlink:type="simple"><g ><rect codeLine="32" fill="#FFFFFF" height="40"  rx="2.5" ry="2.5" style="stroke:#000000;stroke-width:0.5;" width="223" x="722.5" y="435"/><ellipse cx="737.5" cy="451" fill="#ADD1B2" rx="11" ry="11" style="stroke:#181818;stroke-width:1.0;"/><path d="M739.9731,457.1431 Q739.3921,457.4419 738.7529,457.5913 Q738.1138,457.7407 737.4082,457.7407 Q734.9014,457.7407 733.5815,456.0889 Q732.2617,454.437 732.2617,451.3159 Q732.2617,448.1865 733.5815,446.5347 Q734.9014,444.8828 737.4082,444.8828 Q738.1138,444.8828 738.7612,445.0322 Q739.4087,445.1816 739.9731,445.4805 L739.9731,448.2031 Q739.3423,447.6221 738.7488,447.3523 Q738.1553,447.0825 737.5244,447.0825 Q736.1797,447.0825 735.4949,448.1492 Q734.8101,449.2158 734.8101,451.3159 Q734.8101,453.4077 735.4949,454.4744 Q736.1797,455.541 737.5244,455.541 Q738.1553,455.541 738.7488,455.2712 Q739.3423,455.0015 739.9731,454.4204 Z " fill="#000000"/><text fill="#000000" font-family="sans-serif" font-size="14" lengthAdjust="spacing" textLength="191" x="751.5" y="456.291">VocabularyBundleExtension</text><line style="stroke:#000000;stroke-width:0.5;" x1="723.5" x2="944.5" y1="467" y2="467"/></g></a><!--MD5=[f9bb3094b6d6f786926c56d9e97ecd1b]
class Import--><a href="#Import" target="_top" title="#Import" xlink:actuate="onRequest" xlink:href="#Import" xlink:show="new" xlink:title="#Import" xlink:type="simple"><g ><rect codeLine="50" fill="#D3D3D3" height="32"  rx="2.5" ry="2.5" style="stroke:#000000;stroke-width:0.5;" width="78" x="645" y="205"/><ellipse cx="660" cy="221" fill="#A9DCDF" rx="11" ry="11" style="stroke:#181818;stroke-width:1.0;"/><path d="M659.8633,216.3481 L658.7095,221.4199 L661.0254,221.4199 Z M658.3691,214.1069 L661.3657,214.1069 L664.7109,226.5 L662.2622,226.5 L661.4985,223.437 L658.2197,223.437 L657.4727,226.5 L655.0239,226.5 Z " fill="#000000"/><text fill="#000000" font-family="sans-serif" font-size="14" font-style="italic" lengthAdjust="spacing" textLength="46" x="674" y="226.291">Import</text></g></a><!--MD5=[a64de5d712c2b150f0cb0e9f0cd43aa9]
class VocabularyBundleInclusion--><a href="#VocabularyBundleInclusion" target="_top" title="#VocabularyBundleInclusion" xlink:actuate="onRequest" xlink:href="#VocabularyBundleInclusion" xlink:show="new" xlink:title="#VocabularyBundleInclusion" xlink:type="simple"><g ><rect codeLine="41" fill="#FFFFFF" height="40"  rx="2.5" ry="2.5" style="stroke:#000000;stroke-width:0.5;" width="217" x="980.5" y="435"/><ellipse cx="995.5" cy="451" fill="#ADD1B2" rx="11" ry="11" style="stroke:#181818;stroke-width:1.0;"/><path d="M997.9731,457.1431 Q997.3921,457.4419 996.7529,457.5913 Q996.1138,457.7407 995.4082,457.7407 Q992.9014,457.7407 991.5815,456.0889 Q990.2617,454.437 990.2617,451.3159 Q990.2617,448.1865 991.5815,446.5347 Q992.9014,444.8828 995.4082,444.8828 Q996.1138,444.8828 996.7612,445.0322 Q997.4087,445.1816 997.9731,445.4805 L997.9731,448.2031 Q997.3423,447.6221 996.7488,447.3523 Q996.1553,447.0825 995.5244,447.0825 Q994.1797,447.0825 993.4949,448.1492 Q992.8101,449.2158 992.8101,451.3159 Q992.8101,453.4077 993.4949,454.4744 Q994.1797,455.541 995.5244,455.541 Q996.1553,455.541 996.7488,455.2712 Q997.3423,455.0015 997.9731,454.4204 Z " fill="#000000"/><text fill="#000000" font-family="sans-serif" font-size="14" lengthAdjust="spacing" textLength="185" x="1009.5" y="456.291">VocabularyBundleInclusion</text><line style="stroke:#000000;stroke-width:0.5;" x1="981.5" x2="1196.5" y1="467" y2="467"/></g></a><!--MD5=[b0a024bb8234520a7a1e0e07e807f3fe]
class VocabularyExtension--><a href="#VocabularyExtension" target="_top" title="#VocabularyExtension" xlink:actuate="onRequest" xlink:href="#VocabularyExtension" xlink:show="new" xlink:title="#VocabularyExtension" xlink:type="simple"><g ><rect codeLine="44" fill="#FFFFFF" height="40"  rx="2.5" ry="2.5" style="stroke:#000000;stroke-width:0.5;" width="176" x="271" y="435"/><ellipse cx="286" cy="451" fill="#ADD1B2" rx="11" ry="11" style="stroke:#181818;stroke-width:1.0;"/><path d="M288.4731,457.1431 Q287.8921,457.4419 287.2529,457.5913 Q286.6138,457.7407 285.9082,457.7407 Q283.4014,457.7407 282.0815,456.0889 Q280.7617,454.437 280.7617,451.3159 Q280.7617,448.1865 282.0815,446.5347 Q283.4014,444.8828 285.9082,444.8828 Q286.6138,444.8828 287.2612,445.0322 Q287.9087,445.1816 288.4731,445.4805 L288.4731,448.2031 Q287.8423,447.6221 287.2488,447.3523 Q286.6553,447.0825 286.0244,447.0825 Q284.6797,447.0825 283.9949,448.1492 Q283.3101,449.2158 283.3101,451.3159 Q283.3101,453.4077 283.9949,454.4744 Q284.6797,455.541 286.0244,455.541 Q286.6553,455.541 287.2488,455.2712 Q287.8423,455.0015 288.4731,454.4204 Z " fill="#000000"/><text fill="#000000" font-family="sans-serif" font-size="14" lengthAdjust="spacing" textLength="144" x="300" y="456.291">VocabularyExtension</text><line style="stroke:#000000;stroke-width:0.5;" x1="272" x2="446" y1="467" y2="467"/></g></a><!--MD5=[a61a298976b7d1d94498f45c2ebfa10b]
class Statement--><a href="#Statement" target="_top" title="#Statement" xlink:actuate="onRequest" xlink:href="#Statement" xlink:show="new" xlink:title="#Statement" xlink:type="simple"><g ><rect codeLine="56" fill="#D3D3D3" height="32"  rx="2.5" ry="2.5" style="stroke:#000000;stroke-width:0.5;" width="101" x="194.5" y="205"/><ellipse cx="209.5" cy="221" fill="#A9DCDF" rx="11" ry="11" style="stroke:#181818;stroke-width:1.0;"/><path d="M209.3633,216.3481 L208.2095,221.4199 L210.5254,221.4199 Z M207.8691,214.1069 L210.8657,214.1069 L214.2109,226.5 L211.7622,226.5 L210.9985,223.437 L207.7197,223.437 L206.9727,226.5 L204.5239,226.5 Z " fill="#000000"/><text fill="#000000" font-family="sans-serif" font-size="14" font-style="italic" lengthAdjust="spacing" textLength="69" x="223.5" y="226.291">Statement</text></g></a><!--MD5=[dd23831f4bb658e8bc4f7bd01d6b23b2]
class VocabularyUsage--><a href="#VocabularyUsage" target="_top" title="#VocabularyUsage" xlink:actuate="onRequest" xlink:href="#VocabularyUsage" xlink:show="new" xlink:title="#VocabularyUsage" xlink:type="simple"><g ><rect codeLine="59" fill="#FFFFFF" height="40"  rx="2.5" ry="2.5" style="stroke:#000000;stroke-width:0.5;" width="150" x="482" y="435"/><ellipse cx="497" cy="451" fill="#ADD1B2" rx="11" ry="11" style="stroke:#181818;stroke-width:1.0;"/><path d="M499.4731,457.1431 Q498.8921,457.4419 498.2529,457.5913 Q497.6138,457.7407 496.9082,457.7407 Q494.4014,457.7407 493.0815,456.0889 Q491.7617,454.437 491.7617,451.3159 Q491.7617,448.1865 493.0815,446.5347 Q494.4014,444.8828 496.9082,444.8828 Q497.6138,444.8828 498.2612,445.0322 Q498.9087,445.1816 499.4731,445.4805 L499.4731,448.2031 Q498.8423,447.6221 498.2488,447.3523 Q497.6553,447.0825 497.0244,447.0825 Q495.6797,447.0825 494.9949,448.1492 Q494.3101,449.2158 494.3101,451.3159 Q494.3101,453.4077 494.9949,454.4744 Q495.6797,455.541 497.0244,455.541 Q497.6553,455.541 498.2488,455.2712 Q498.8423,455.0015 499.4731,454.4204 Z " fill="#000000"/><text fill="#000000" font-family="sans-serif" font-size="14" lengthAdjust="spacing" textLength="118" x="511" y="456.291">VocabularyUsage</text><line style="stroke:#000000;stroke-width:0.5;" x1="483" x2="631" y1="467" y2="467"/></g></a><!--MD5=[f83c79fdcfeccc30c38a0f5cc5abac9f]
reverse link Term to SpecializableTerm--><g ><a href="#Term" target="_top" title="#Term" xlink:actuate="onRequest" xlink:href="#Term" xlink:show="new" xlink:title="#Term" xlink:type="simple"><path codeLine="10" d="M79.79,382.82 C93.72,400.15 109.88,420.26 121.47,434.68 " fill="none"  style="stroke:#000000;stroke-width:1.0;"/><polygon fill="none" points="74.4,387.28,67.32,367.31,85.31,378.51,74.4,387.28" style="stroke:#000000;stroke-width:1.0;"/></a></g><!--MD5=[3a394553e41c56186e904c7876230c86]
reverse link VocabularyStatement to SpecializableTerm--><g ><a href="#VocabularyStatement" target="_top" title="#VocabularyStatement" xlink:actuate="onRequest" xlink:href="#VocabularyStatement" xlink:show="new" xlink:title="#VocabularyStatement" xlink:type="simple"><path codeLine="11" d="M202.34,389.26 C186.55,404.91 169.41,421.89 156.64,434.54 " fill="none"  style="stroke:#000000;stroke-width:1.0;"/><polygon fill="none" points="197.26,384.45,216.39,375.34,207.11,394.39,197.26,384.45" style="stroke:#000000;stroke-width:1.0;"/></a></g><!--MD5=[7e6c035b3f4251f797e941c36a905dbb]
link SpecializableTerm to SpecializationAxiom--><g ><path codeLine="12" d="M137,488.85 C137,488.85 137,522.67 137,537.36 " fill="none"  style="stroke:#000000;stroke-width:1.0;"/><polygon fill="#000000" points="137,550.29,141,541.29,137,545.29,133,541.29,137,550.29" style="stroke:#000000;stroke-width:1.0;"/><line style="stroke:#000000;stroke-width:1.0;" x1="137" x2="137" y1="545.29" y2="537.29"/><polygon fill="#000000" points="137,476.85,133,482.85,137,488.85,141,482.85,137,476.85" style="stroke:#000000;stroke-width:1.0;"/><text fill="#000000" font-family="sans-serif" font-size="13" lengthAdjust="spacing" textLength="135" x="138" y="518.5684">ownedSpecializations</text><text fill="#000000" font-family="sans-serif" font-size="13" lengthAdjust="spacing" textLength="6" x="129.9688" y="541.2883">*</text></g><!--MD5=[f13e2b06bf613d5c613839e9fe0ad995]
reverse link Member to Term--><g ><a href="#Member" target="_top" title="#Member" xlink:actuate="onRequest" xlink:href="#Member" xlink:show="new" xlink:title="#Member" xlink:type="simple"><path codeLine="17" d="M51,258.58 C51,280.67 51,307.91 51,325.83 " fill="none"  style="stroke:#000000;stroke-width:1.0;"/><polygon fill="none" points="44,258.84,51,238.84,58,258.84,44,258.84" style="stroke:#000000;stroke-width:1.0;"/></a></g><!--MD5=[07a3c0786011b367d59d74536f7d35d9]
reverse link VocabularyBox to Vocabulary--><g ><a href="#VocabularyBox" target="_top" title="#VocabularyBox" xlink:actuate="onRequest" xlink:href="#VocabularyBox" xlink:show="new" xlink:title="#VocabularyBox" xlink:type="simple"><path codeLine="20" d="M624.4,152.76 C602.24,168.55 576.18,187.11 557.06,200.73 " fill="none"  style="stroke:#000000;stroke-width:1.0;"/><polygon fill="none" points="620.29,147.1,640.64,141.2,628.41,158.51,620.29,147.1" style="stroke:#000000;stroke-width:1.0;"/></a></g><!--MD5=[d1e03325b53959b6b20bff880ece1658]
link Vocabulary to VocabularyImport--><g ><path codeLine="21" d="M530,255 C530,255 530,288.16 530,303.68 " fill="none"  style="stroke:#000000;stroke-width:1.0;"/><polygon fill="#000000" points="530,316.31,534,307.31,530,311.31,526,307.31,530,316.31" style="stroke:#000000;stroke-width:1.0;"/><line style="stroke:#000000;stroke-width:1.0;" x1="530" x2="530" y1="311.31" y2="303.31"/><polygon fill="#000000" points="530,243,526,249,530,255,534,249,530,243" style="stroke:#000000;stroke-width:1.0;"/><text fill="#000000" font-family="sans-serif" font-size="13" lengthAdjust="spacing" textLength="90" x="531" y="284.5684">ownedImports</text><text fill="#000000" font-family="sans-serif" font-size="13" lengthAdjust="spacing" textLength="6" x="523.3063" y="307.1291">*</text></g><!--MD5=[5fd362096feee36f689bde7d201d2fc0]
link Vocabulary to VocabularyStatement--><g ><path codeLine="22" d="M468.1247,246.5126 C468.1247,246.5126 427.86,262.93 409,271 C378.88,283.89 345.91,298.64 317.48,311.56 " fill="none"  style="stroke:#000000;stroke-width:1.0;"/><polygon fill="#000000" points="305.72,316.92,315.5685,316.831,310.2705,314.8481,312.2534,309.5501,305.72,316.92" style="stroke:#000000;stroke-width:1.0;"/><line style="stroke:#000000;stroke-width:1.0;" x1="310.2705" x2="317.555" y1="314.8481" y2="311.53"/><polygon fill="#000000" points="479.26,242.04,472.2015,240.5645,468.1247,246.5126,475.1832,247.9881,479.26,242.04" style="stroke:#000000;stroke-width:1.0;"/><text fill="#000000" font-family="sans-serif" font-size="13" lengthAdjust="spacing" textLength="111" x="410" y="284.5684">ownedStatements</text><text fill="#000000" font-family="sans-serif" font-size="13" lengthAdjust="spacing" textLength="6" x="310.6766" y="307.2349">*</text></g><!--MD5=[9fab926d12550e574a05f3c5f21106f2]
reverse link Ontology to VocabularyBox--><g ><a href="#Ontology" target="_top" title="#Ontology" xlink:actuate="onRequest" xlink:href="#Ontology" xlink:show="new" xlink:title="#Ontology" xlink:type="simple"><path codeLine="27" d="M669,60.46 C669,73.88 669,88.54 669,99.84 " fill="none"  style="stroke:#000000;stroke-width:1.0;"/><polygon fill="none" points="662,60.78,669,40.78,676,60.78,662,60.78" style="stroke:#000000;stroke-width:1.0;"/></a></g><!--MD5=[0837a957dbe50439da5037fe5f454964]
reverse link VocabularyBox to VocabularyBundle--><g ><a href="#VocabularyBox" target="_top" title="#VocabularyBox" xlink:actuate="onRequest" xlink:href="#VocabularyBox" xlink:show="new" xlink:title="#VocabularyBox" xlink:type="simple"><path codeLine="30" d="M722.84,150.61 C752.23,166.78 787.78,186.33 813.65,200.56 " fill="none"  style="stroke:#000000;stroke-width:1.0;"/><polygon fill="none" points="719.61,156.82,705.46,141.05,726.36,144.56,719.61,156.82" style="stroke:#000000;stroke-width:1.0;"/></a></g><!--MD5=[21b34113fa968d0472a3e5ba34569129]
link VocabularyBundle to VocabularyBundleImport--><g ><path codeLine="31" d="M852.4858,254.9231 C852.4858,254.9231 855.98,288 857.63,303.61 " fill="none"  style="stroke:#000000;stroke-width:1.0;"/><polygon fill="#000000" points="858.97,316.32,861.9983,306.9483,858.4426,311.3479,854.0429,307.7922,858.97,316.32" style="stroke:#000000;stroke-width:1.0;"/><line style="stroke:#000000;stroke-width:1.0;" x1="858.4426" x2="857.605" y1="311.3479" y2="303.39"/><polygon fill="#000000" points="851.22,242.99,847.8752,249.3785,852.4858,254.9231,855.8306,248.5346,851.22,242.99" style="stroke:#000000;stroke-width:1.0;"/><text fill="#000000" font-family="sans-serif" font-size="13" lengthAdjust="spacing" textLength="90" x="856" y="284.5684">ownedImports</text><text fill="#000000" font-family="sans-serif" font-size="13" lengthAdjust="spacing" textLength="6" x="851.7726" y="307.1291">*</text></g><!--MD5=[6a92d34bdb17d0d95b5b1444bb78ffab]
reverse link VocabularyBundleImport to VocabularyBundleExtension--><g ><a href="#VocabularyBundleImport" target="_top" title="#VocabularyBundleImport" xlink:actuate="onRequest" xlink:href="#VocabularyBundleImport" xlink:show="new" xlink:title="#VocabularyBundleImport" xlink:type="simple"><path codeLine="34" d="M849.52,394.68 C845.84,408.74 842.02,423.34 839.09,434.54 " fill="none"  style="stroke:#000000;stroke-width:1.0;"/><polygon fill="none" points="842.64,393.32,854.48,375.74,856.19,396.86,842.64,393.32" style="stroke:#000000;stroke-width:1.0;"/></a></g><!--MD5=[31d93693dbead445cc7f4b425b28a109]
reverse link Import to VocabularyBundleImport--><g ><a href="#Import" target="_top" title="#Import" xlink:actuate="onRequest" xlink:href="#Import" xlink:show="new" xlink:title="#Import" xlink:type="simple"><path codeLine="40" d="M723.75,249.47 C753.09,269.74 792.86,297.22 822.21,317.51 " fill="none"  style="stroke:#000000;stroke-width:1.0;"/><polygon fill="none" points="719.9,255.32,707.43,238.19,727.86,243.8,719.9,255.32" style="stroke:#000000;stroke-width:1.0;"/></a></g><!--MD5=[db345fdf578c9de3dfbf7c256025a166]
reverse link VocabularyBundleImport to VocabularyBundleInclusion--><g ><a href="#VocabularyBundleImport" target="_top" title="#VocabularyBundleImport" xlink:actuate="onRequest" xlink:href="#VocabularyBundleImport" xlink:show="new" xlink:title="#VocabularyBundleImport" xlink:type="simple"><path codeLine="43" d="M939.41,383.49 C975.77,400.63 1017.64,420.36 1047.82,434.59 " fill="none"  style="stroke:#000000;stroke-width:1.0;"/><polygon fill="none" points="936.64,389.92,921.53,375.06,942.61,377.26,936.64,389.92" style="stroke:#000000;stroke-width:1.0;"/></a></g><!--MD5=[774d8d5b07a2d42df1238e136ecdb29f]
reverse link VocabularyImport to VocabularyExtension--><g ><a href="#VocabularyImport" target="_top" title="#VocabularyImport" xlink:actuate="onRequest" xlink:href="#VocabularyImport" xlink:show="new" xlink:title="#VocabularyImport" xlink:type="simple"><path codeLine="46" d="M468.27,385.62 C441.74,402.23 411.89,420.9 390.1,434.54 " fill="none"  style="stroke:#000000;stroke-width:1.0;"/><polygon fill="none" points="464.46,379.76,485.12,375.08,471.88,391.62,464.46,379.76" style="stroke:#000000;stroke-width:1.0;"/></a></g><!--MD5=[bbb6a7f82eb1345995682b83f81baea6]
reverse link Import to VocabularyImport--><g ><a href="#Import" target="_top" title="#Import" xlink:actuate="onRequest" xlink:href="#Import" xlink:show="new" xlink:title="#Import" xlink:type="simple"><path codeLine="52" d="M661.36,254.4 C652.41,265.84 641.51,278.27 630,288 C616.95,299.03 601.46,309.05 586.62,317.5 " fill="none"  style="stroke:#000000;stroke-width:1.0;"/><polygon fill="none" points="655.59,250.42,673.09,238.47,666.87,258.72,655.59,250.42" style="stroke:#000000;stroke-width:1.0;"/></a></g><!--MD5=[1d790de18f6b975fd50101ef59182638]
reverse link Statement to VocabularyStatement--><g ><a href="#Statement" target="_top" title="#Statement" xlink:actuate="onRequest" xlink:href="#Statement" xlink:show="new" xlink:title="#Statement" xlink:type="simple"><path codeLine="58" d="M245,258.63 C245,277.6 245,300.35 245,317.75 " fill="none"  style="stroke:#000000;stroke-width:1.0;"/><polygon fill="none" points="238,258.84,245,238.84,252,258.84,238,258.84" style="stroke:#000000;stroke-width:1.0;"/></a></g><!--MD5=[55e7e8c37a2891829af606906175f308]
reverse link VocabularyImport to VocabularyUsage--><g ><a href="#VocabularyImport" target="_top" title="#VocabularyImport" xlink:actuate="onRequest" xlink:href="#VocabularyImport" xlink:show="new" xlink:title="#VocabularyImport" xlink:type="simple"><path codeLine="61" d="M542.03,394.68 C545.58,408.74 549.26,423.34 552.09,434.54 " fill="none"  style="stroke:#000000;stroke-width:1.0;"/><polygon fill="none" points="535.36,396.85,537.25,375.75,548.93,393.42,535.36,396.85" style="stroke:#000000;stroke-width:1.0;"/></a></g><!--MD5=[e92de036c66349f10c8d356185e9535f]
@startuml
skinparam classBackgroundColor LightGray
skinparam classBorderColor Black
skinparam enumBorderColor Black
skinparam ArrowColor Black
hide methods
abstract class SpecializableTerm [[#SpecializableTerm]] #white {
}
class SpecializationAxiom [[#SpecializationAxiom]]
hide SpecializationAxiom members
SpecializableTerm -up-|> Term [[#Term]]
SpecializableTerm -up-|> VocabularyStatement [[#VocabularyStatement]]
SpecializableTerm *- -> "*" SpecializationAxiom : ownedSpecializations
abstract class Term [[#Term]] #white {
}
abstract class Member [[#Member]]
hide Member members
Term -up-|> Member [[#Member]]
class Vocabulary [[#Vocabulary]] #white {
}
Vocabulary -up-|> VocabularyBox [[#VocabularyBox]]
Vocabulary *- -> "*" VocabularyImport : ownedImports
Vocabulary *- -> "*" VocabularyStatement : ownedStatements
abstract class VocabularyBox [[#VocabularyBox]] #white {
}
abstract class Ontology [[#Ontology]]
hide Ontology members
VocabularyBox -up-|> Ontology [[#Ontology]]
class VocabularyBundle [[#VocabularyBundle]] #white {
}
VocabularyBundle -up-|> VocabularyBox [[#VocabularyBox]]
VocabularyBundle *- -> "*" VocabularyBundleImport : ownedImports
class VocabularyBundleExtension [[#VocabularyBundleExtension]] #white {
}
VocabularyBundleExtension -up-|> VocabularyBundleImport [[#VocabularyBundleImport]]
abstract class VocabularyBundleImport [[#VocabularyBundleImport]] #white {
	owningVocabularyBundle : VocabularyBundle [1]
}
abstract class Import [[#Import]]
hide Import members
VocabularyBundleImport -up-|> Import [[#Import]]
class VocabularyBundleInclusion [[#VocabularyBundleInclusion]] #white {
}
VocabularyBundleInclusion -up-|> VocabularyBundleImport [[#VocabularyBundleImport]]
class VocabularyExtension [[#VocabularyExtension]] #white {
}
VocabularyExtension -up-|> VocabularyImport [[#VocabularyImport]]
abstract class VocabularyImport [[#VocabularyImport]] #white {
	owningVocabulary : Vocabulary [1]
}
abstract class Import [[#Import]]
hide Import members
VocabularyImport -up-|> Import [[#Import]]
abstract class VocabularyStatement [[#VocabularyStatement]] #white {
	owningVocabulary : Vocabulary [1]
}
abstract class Statement [[#Statement]]
hide Statement members
VocabularyStatement -up-|> Statement [[#Statement]]
class VocabularyUsage [[#VocabularyUsage]] #white {
}
VocabularyUsage -up-|> VocabularyImport [[#VocabularyImport]]
@enduml

PlantUML version 1.2022.12(Sun Oct 23 11:12:26 PDT 2022)
(GPL source distribution)
Java Runtime: OpenJDK Runtime Environment
JVM: OpenJDK 64-Bit Server VM
Default Encoding: UTF-8
Language: en
Country: US
--></g></svg>
