<?xml version="1.0" encoding="UTF-8" standalone="no"?><svg xmlns="http://www.w3.org/2000/svg" xmlns:xlink="http://www.w3.org/1999/xlink" contentStyleType="text/css" height="690px" preserveAspectRatio="none" style="width:960px;height:690px;background:#FFFFFF;" version="1.1" viewBox="0 0 960 690" width="960px" zoomAndPan="magnify"><defs/><g><!--MD5=[b9ff1853f78609902ad604bbec434fb1]
class BinaryPredicate--><a href="#BinaryPredicate" target="_top" title="#BinaryPredicate" xlink:actuate="onRequest" xlink:href="#BinaryPredicate" xlink:show="new" xlink:title="#BinaryPredicate" xlink:type="simple"><g ><rect codeLine="6" fill="#FFFFFF" height="89.4648"  rx="2.5" ry="2.5" style="stroke:#000000;stroke-width:0.5;" width="235" x="353.5" y="351"/><ellipse cx="414.25" cy="367" fill="#A9DCDF" rx="11" ry="11" style="stroke:#181818;stroke-width:1.0;"/><path d="M414.1133,362.3481 L412.9595,367.4199 L415.2754,367.4199 Z M412.6191,360.1069 L415.6157,360.1069 L418.9609,372.5 L416.5122,372.5 L415.7485,369.437 L412.4697,369.437 L411.7227,372.5 L409.2739,372.5 Z " fill="#000000"/><text fill="#000000" font-family="sans-serif" font-size="14" font-style="italic" lengthAdjust="spacing" textLength="105" x="434.75" y="372.291">BinaryPredicate</text><line style="stroke:#000000;stroke-width:0.5;" x1="354.5" x2="587.5" y1="383" y2="383"/><text fill="#000000" font-family="sans-serif" font-size="14" lengthAdjust="spacing" textLength="89" x="359.5" y="400.5352">variable1 : ID</text><text fill="#000000" font-family="sans-serif" font-size="14" lengthAdjust="spacing" textLength="89" x="359.5" y="417.0234">variable2 : ID</text><text fill="#000000" font-family="sans-serif" font-size="14" lengthAdjust="spacing" textLength="223" x="359.5" y="433.5117">instance2 : NamedInstance [0..1]</text></g></a><!--MD5=[e6dc55dd324d6a8c189f3ada02b144fc]
class Predicate--><a href="#Predicate" target="_top" title="#Predicate" xlink:actuate="onRequest" xlink:href="#Predicate" xlink:show="new" xlink:title="#Predicate" xlink:type="simple"><g ><rect codeLine="22" fill="#FFFFFF" height="72.9766"  rx="2.5" ry="2.5" style="stroke:#000000;stroke-width:0.5;" width="204" x="168" y="217"/><ellipse cx="234.25" cy="233" fill="#A9DCDF" rx="11" ry="11" style="stroke:#181818;stroke-width:1.0;"/><path d="M234.1133,228.3481 L232.9595,233.4199 L235.2754,233.4199 Z M232.6191,226.1069 L235.6157,226.1069 L238.9609,238.5 L236.5122,238.5 L235.7485,235.437 L232.4697,235.437 L231.7227,238.5 L229.2739,238.5 Z " fill="#000000"/><text fill="#000000" font-family="sans-serif" font-size="14" font-style="italic" lengthAdjust="spacing" textLength="63" x="254.75" y="238.291">Predicate</text><line style="stroke:#000000;stroke-width:0.5;" x1="169" x2="371" y1="249" y2="249"/><text fill="#000000" font-family="sans-serif" font-size="14" lengthAdjust="spacing" textLength="188" x="174" y="266.5352">antecedentRule : Rule [0..1]</text><text fill="#000000" font-family="sans-serif" font-size="14" lengthAdjust="spacing" textLength="192" x="174" y="283.0234">consequentRule : Rule [0..1]</text></g></a><!--MD5=[4084a945bf768861338b464a55575a8f]
class DifferentFromPredicate--><a href="#DifferentFromPredicate" target="_top" title="#DifferentFromPredicate" xlink:actuate="onRequest" xlink:href="#DifferentFromPredicate" xlink:show="new" xlink:title="#DifferentFromPredicate" xlink:type="simple"><g ><rect codeLine="12" fill="#FFFFFF" height="40"  rx="2.5" ry="2.5" style="stroke:#000000;stroke-width:0.5;" width="191" x="170.5" y="517.5"/><ellipse cx="185.5" cy="533.5" fill="#ADD1B2" rx="11" ry="11" style="stroke:#181818;stroke-width:1.0;"/><path d="M187.9731,539.6431 Q187.3921,539.9419 186.7529,540.0913 Q186.1138,540.2407 185.4082,540.2407 Q182.9014,540.2407 181.5815,538.5889 Q180.2617,536.937 180.2617,533.8159 Q180.2617,530.6865 181.5815,529.0347 Q182.9014,527.3828 185.4082,527.3828 Q186.1138,527.3828 186.7612,527.5322 Q187.4087,527.6816 187.9731,527.9805 L187.9731,530.7031 Q187.3423,530.1221 186.7488,529.8523 Q186.1553,529.5825 185.5244,529.5825 Q184.1797,529.5825 183.4949,530.6492 Q182.8101,531.7158 182.8101,533.8159 Q182.8101,535.9077 183.4949,536.9744 Q184.1797,538.041 185.5244,538.041 Q186.1553,538.041 186.7488,537.7712 Q187.3423,537.5015 187.9731,536.9204 Z " fill="#000000"/><text fill="#000000" font-family="sans-serif" font-size="14" lengthAdjust="spacing" textLength="159" x="199.5" y="538.791">DifferentFromPredicate</text><line style="stroke:#000000;stroke-width:0.5;" x1="171.5" x2="360.5" y1="549.5" y2="549.5"/></g></a><!--MD5=[ee4d54a206632be50588e423c0129942]
class FeaturePredicate--><a href="#FeaturePredicate" target="_top" title="#FeaturePredicate" xlink:actuate="onRequest" xlink:href="#FeaturePredicate" xlink:show="new" xlink:title="#FeaturePredicate" xlink:type="simple"><g ><rect codeLine="15" fill="#FFFFFF" height="56.4883"  rx="2.5" ry="2.5" style="stroke:#000000;stroke-width:0.5;" width="148" x="397" y="509.5"/><ellipse cx="412.45" cy="525.5" fill="#ADD1B2" rx="11" ry="11" style="stroke:#181818;stroke-width:1.0;"/><path d="M414.9231,531.6431 Q414.3421,531.9419 413.7029,532.0913 Q413.0638,532.2407 412.3582,532.2407 Q409.8514,532.2407 408.5315,530.5889 Q407.2117,528.937 407.2117,525.8159 Q407.2117,522.6865 408.5315,521.0347 Q409.8514,519.3828 412.3582,519.3828 Q413.0638,519.3828 413.7112,519.5322 Q414.3587,519.6816 414.9231,519.9805 L414.9231,522.7031 Q414.2923,522.1221 413.6988,521.8523 Q413.1053,521.5825 412.4744,521.5825 Q411.1297,521.5825 410.4449,522.6492 Q409.7601,523.7158 409.7601,525.8159 Q409.7601,527.9077 410.4449,528.9744 Q411.1297,530.041 412.4744,530.041 Q413.1053,530.041 413.6988,529.7712 Q414.2923,529.5015 414.9231,528.9204 Z " fill="#000000"/><text fill="#000000" font-family="sans-serif" font-size="14" lengthAdjust="spacing" textLength="115" x="426.55" y="530.791">FeaturePredicate</text><line style="stroke:#000000;stroke-width:0.5;" x1="398" x2="544" y1="541.5" y2="541.5"/><text fill="#000000" font-family="sans-serif" font-size="14" lengthAdjust="spacing" textLength="136" x="403" y="559.0352">feature : Feature [1]</text></g></a><!--MD5=[27bfdb9e128171e0e365013b6b91e809]
class Literal--><a href="#Literal" target="_top" title="#Literal" xlink:actuate="onRequest" xlink:href="#Literal" xlink:show="new" xlink:title="#Literal" xlink:type="simple"><g ><rect codeLine="18" fill="#D3D3D3" height="32"  rx="2.5" ry="2.5" style="stroke:#000000;stroke-width:0.5;" width="74" x="434" y="651"/><ellipse cx="449" cy="667" fill="#A9DCDF" rx="11" ry="11" style="stroke:#181818;stroke-width:1.0;"/><path d="M448.8633,662.3481 L447.7095,667.4199 L450.0254,667.4199 Z M447.3691,660.1069 L450.3657,660.1069 L453.7109,672.5 L451.2622,672.5 L450.4985,669.437 L447.2197,669.437 L446.4727,672.5 L444.0239,672.5 Z " fill="#000000"/><text fill="#000000" font-family="sans-serif" font-size="14" font-style="italic" lengthAdjust="spacing" textLength="42" x="463" y="672.291">Literal</text></g></a><!--MD5=[95174e42ee347a14b6cb78d6855f19b5]
class Element--><a href="#Element" target="_top" title="#Element" xlink:actuate="onRequest" xlink:href="#Element" xlink:show="new" xlink:title="#Element" xlink:type="simple"><g ><rect codeLine="26" fill="#D3D3D3" height="32"  rx="2.5" ry="2.5" style="stroke:#000000;stroke-width:0.5;" width="87" x="168.5" y="104"/><ellipse cx="183.5" cy="120" fill="#A9DCDF" rx="11" ry="11" style="stroke:#181818;stroke-width:1.0;"/><path d="M183.3633,115.3481 L182.2095,120.4199 L184.5254,120.4199 Z M181.8691,113.1069 L184.8657,113.1069 L188.2109,125.5 L185.7622,125.5 L184.9985,122.437 L181.7197,122.437 L180.9727,125.5 L178.5239,125.5 Z " fill="#000000"/><text fill="#000000" font-family="sans-serif" font-size="14" font-style="italic" lengthAdjust="spacing" textLength="55" x="197.5" y="125.291">Element</text></g></a><!--MD5=[1c3df032f1e179fd58fe5ee127543537]
class RelationEntityPredicate--><a href="#RelationEntityPredicate" target="_top" title="#RelationEntityPredicate" xlink:actuate="onRequest" xlink:href="#RelationEntityPredicate" xlink:show="new" xlink:title="#RelationEntityPredicate" xlink:type="simple"><g ><rect codeLine="29" fill="#FFFFFF" height="72.9766"  rx="2.5" ry="2.5" style="stroke:#000000;stroke-width:0.5;" width="189" x="580.5" y="501"/><ellipse cx="595.5" cy="517" fill="#ADD1B2" rx="11" ry="11" style="stroke:#181818;stroke-width:1.0;"/><path d="M597.9731,523.1431 Q597.3921,523.4419 596.7529,523.5913 Q596.1138,523.7407 595.4082,523.7407 Q592.9014,523.7407 591.5815,522.0889 Q590.2617,520.437 590.2617,517.3159 Q590.2617,514.1865 591.5815,512.5347 Q592.9014,510.8828 595.4082,510.8828 Q596.1138,510.8828 596.7612,511.0322 Q597.4087,511.1816 597.9731,511.4805 L597.9731,514.2031 Q597.3423,513.6221 596.7488,513.3523 Q596.1553,513.0825 595.5244,513.0825 Q594.1797,513.0825 593.4949,514.1492 Q592.8101,515.2158 592.8101,517.3159 Q592.8101,519.4077 593.4949,520.4744 Q594.1797,521.541 595.5244,521.541 Q596.1553,521.541 596.7488,521.2712 Q597.3423,521.0015 597.9731,520.4204 Z " fill="#000000"/><text fill="#000000" font-family="sans-serif" font-size="14" lengthAdjust="spacing" textLength="157" x="609.5" y="522.291">RelationEntityPredicate</text><line style="stroke:#000000;stroke-width:0.5;" x1="581.5" x2="768.5" y1="533" y2="533"/><text fill="#000000" font-family="sans-serif" font-size="14" lengthAdjust="spacing" textLength="120" x="586.5" y="550.5352">entityVariable : ID</text><text fill="#000000" font-family="sans-serif" font-size="14" lengthAdjust="spacing" textLength="167" x="586.5" y="567.0234">entity : RelationEntity [1]</text></g></a><!--MD5=[4cf87534c235239d37db4adfd136fff4]
class Rule--><a href="#Rule" target="_top" title="#Rule" xlink:actuate="onRequest" xlink:href="#Rule" xlink:show="new" xlink:title="#Rule" xlink:type="simple"><g ><rect codeLine="34" fill="#FFFFFF" height="40"  rx="2.5" ry="2.5" style="stroke:#000000;stroke-width:0.5;" width="62" x="320" y="100"/><ellipse cx="335" cy="116" fill="#ADD1B2" rx="11" ry="11" style="stroke:#181818;stroke-width:1.0;"/><path d="M337.4731,122.1431 Q336.8921,122.4419 336.2529,122.5913 Q335.6138,122.7407 334.9082,122.7407 Q332.4014,122.7407 331.0815,121.0889 Q329.7617,119.437 329.7617,116.3159 Q329.7617,113.1865 331.0815,111.5347 Q332.4014,109.8828 334.9082,109.8828 Q335.6138,109.8828 336.2612,110.0322 Q336.9087,110.1816 337.4731,110.4805 L337.4731,113.2031 Q336.8423,112.6221 336.2488,112.3523 Q335.6553,112.0825 335.0244,112.0825 Q333.6797,112.0825 332.9949,113.1492 Q332.3101,114.2158 332.3101,116.3159 Q332.3101,118.4077 332.9949,119.4744 Q333.6797,120.541 335.0244,120.541 Q335.6553,120.541 336.2488,120.2712 Q336.8423,120.0015 337.4731,119.4204 Z " fill="#000000"/><text fill="#000000" font-family="sans-serif" font-size="14" lengthAdjust="spacing" textLength="30" x="349" y="121.291">Rule</text><line style="stroke:#000000;stroke-width:0.5;" x1="321" x2="381" y1="132" y2="132"/></g></a><!--MD5=[f58fd777f29c17413488bea9e7cfcca3]
class Member--><a href="#Member" target="_top" title="#Member" xlink:actuate="onRequest" xlink:href="#Member" xlink:show="new" xlink:title="#Member" xlink:type="simple"><g ><rect codeLine="36" fill="#D3D3D3" height="32"  rx="2.5" ry="2.5" style="stroke:#000000;stroke-width:0.5;" width="88" x="391" y="7"/><ellipse cx="406" cy="23" fill="#A9DCDF" rx="11" ry="11" style="stroke:#181818;stroke-width:1.0;"/><path d="M405.8633,18.3481 L404.7095,23.4199 L407.0254,23.4199 Z M404.3691,16.1069 L407.3657,16.1069 L410.7109,28.5 L408.2622,28.5 L407.4985,25.437 L404.2197,25.437 L403.4727,28.5 L401.0239,28.5 Z " fill="#000000"/><text fill="#000000" font-family="sans-serif" font-size="14" font-style="italic" lengthAdjust="spacing" textLength="56" x="420" y="28.291">Member</text></g></a><!--MD5=[46b33d4aeab8075ab5c21e75f4258a8a]
class VocabularyStatement--><a href="#VocabularyStatement" target="_top" title="#VocabularyStatement" xlink:actuate="onRequest" xlink:href="#VocabularyStatement" xlink:show="new" xlink:title="#VocabularyStatement" xlink:type="simple"><g ><rect codeLine="38" fill="#D3D3D3" height="32"  rx="2.5" ry="2.5" style="stroke:#000000;stroke-width:0.5;" width="177" x="178.5" y="7"/><ellipse cx="193.5" cy="23" fill="#A9DCDF" rx="11" ry="11" style="stroke:#181818;stroke-width:1.0;"/><path d="M193.3633,18.3481 L192.2095,23.4199 L194.5254,23.4199 Z M191.8691,16.1069 L194.8657,16.1069 L198.2109,28.5 L195.7622,28.5 L194.9985,25.437 L191.7197,25.437 L190.9727,28.5 L188.5239,28.5 Z " fill="#000000"/><text fill="#000000" font-family="sans-serif" font-size="14" font-style="italic" lengthAdjust="spacing" textLength="145" x="207.5" y="28.291">VocabularyStatement</text></g></a><!--MD5=[a387b7f4f3cb4648bc07cd2bebd47195]
class SameAsPredicate--><a href="#SameAsPredicate" target="_top" title="#SameAsPredicate" xlink:actuate="onRequest" xlink:href="#SameAsPredicate" xlink:show="new" xlink:title="#SameAsPredicate" xlink:type="simple"><g ><rect codeLine="44" fill="#FFFFFF" height="40"  rx="2.5" ry="2.5" style="stroke:#000000;stroke-width:0.5;" width="149" x="804.5" y="517.5"/><ellipse cx="819.5" cy="533.5" fill="#ADD1B2" rx="11" ry="11" style="stroke:#181818;stroke-width:1.0;"/><path d="M821.9731,539.6431 Q821.3921,539.9419 820.7529,540.0913 Q820.1138,540.2407 819.4082,540.2407 Q816.9014,540.2407 815.5815,538.5889 Q814.2617,536.937 814.2617,533.8159 Q814.2617,530.6865 815.5815,529.0347 Q816.9014,527.3828 819.4082,527.3828 Q820.1138,527.3828 820.7612,527.5322 Q821.4087,527.6816 821.9731,527.9805 L821.9731,530.7031 Q821.3423,530.1221 820.7488,529.8523 Q820.1553,529.5825 819.5244,529.5825 Q818.1797,529.5825 817.4949,530.6492 Q816.8101,531.7158 816.8101,533.8159 Q816.8101,535.9077 817.4949,536.9744 Q818.1797,538.041 819.5244,538.041 Q820.1553,538.041 820.7488,537.7712 Q821.3423,537.5015 821.9731,536.9204 Z " fill="#000000"/><text fill="#000000" font-family="sans-serif" font-size="14" lengthAdjust="spacing" textLength="117" x="833.5" y="538.791">SameAsPredicate</text><line style="stroke:#000000;stroke-width:0.5;" x1="805.5" x2="952.5" y1="549.5" y2="549.5"/></g></a><!--MD5=[54edce0496c0a7342325ac262226e3d4]
class TypePredicate--><a href="#TypePredicate" target="_top" title="#TypePredicate" xlink:actuate="onRequest" xlink:href="#TypePredicate" xlink:show="new" xlink:title="#TypePredicate" xlink:type="simple"><g ><rect codeLine="47" fill="#FFFFFF" height="56.4883"  rx="2.5" ry="2.5" style="stroke:#000000;stroke-width:0.5;" width="128" x="7" y="509.5"/><ellipse cx="22" cy="525.5" fill="#ADD1B2" rx="11" ry="11" style="stroke:#181818;stroke-width:1.0;"/><path d="M24.4731,531.6431 Q23.8921,531.9419 23.2529,532.0913 Q22.6138,532.2407 21.9082,532.2407 Q19.4014,532.2407 18.0815,530.5889 Q16.7617,528.937 16.7617,525.8159 Q16.7617,522.6865 18.0815,521.0347 Q19.4014,519.3828 21.9082,519.3828 Q22.6138,519.3828 23.2612,519.5322 Q23.9087,519.6816 24.4731,519.9805 L24.4731,522.7031 Q23.8423,522.1221 23.2488,521.8523 Q22.6553,521.5825 22.0244,521.5825 Q20.6797,521.5825 19.9949,522.6492 Q19.3101,523.7158 19.3101,525.8159 Q19.3101,527.9077 19.9949,528.9744 Q20.6797,530.041 22.0244,530.041 Q22.6553,530.041 23.2488,529.7712 Q23.8423,529.5015 24.4731,528.9204 Z " fill="#000000"/><text fill="#000000" font-family="sans-serif" font-size="14" lengthAdjust="spacing" textLength="96" x="36" y="530.791">TypePredicate</text><line style="stroke:#000000;stroke-width:0.5;" x1="8" x2="134" y1="541.5" y2="541.5"/><text fill="#000000" font-family="sans-serif" font-size="14" lengthAdjust="spacing" textLength="97" x="13" y="559.0352">type : Type [1]</text></g></a><!--MD5=[8e1e58185eca2dd70554585cd90beb2c]
class UnaryPredicate--><a href="#UnaryPredicate" target="_top" title="#UnaryPredicate" xlink:actuate="onRequest" xlink:href="#UnaryPredicate" xlink:show="new" xlink:title="#UnaryPredicate" xlink:type="simple"><g ><rect codeLine="51" fill="#FFFFFF" height="56.4883"  rx="2.5" ry="2.5" style="stroke:#000000;stroke-width:0.5;" width="135" x="93.5" y="367.5"/><ellipse cx="108.5" cy="383.5" fill="#A9DCDF" rx="11" ry="11" style="stroke:#181818;stroke-width:1.0;"/><path d="M108.3633,378.8481 L107.2095,383.9199 L109.5254,383.9199 Z M106.8691,376.6069 L109.8657,376.6069 L113.2109,389 L110.7622,389 L109.9985,385.937 L106.7197,385.937 L105.9727,389 L103.5239,389 Z " fill="#000000"/><text fill="#000000" font-family="sans-serif" font-size="14" font-style="italic" lengthAdjust="spacing" textLength="103" x="122.5" y="388.791">UnaryPredicate</text><line style="stroke:#000000;stroke-width:0.5;" x1="94.5" x2="227.5" y1="399.5" y2="399.5"/><text fill="#000000" font-family="sans-serif" font-size="14" lengthAdjust="spacing" textLength="80" x="99.5" y="417.0352">variable : ID</text></g></a><!--MD5=[0ddc261016437ee0d46b1dd5d49c4791]
reverse link Predicate to BinaryPredicate--><g ><a href="#Predicate" target="_top" title="#Predicate" xlink:actuate="onRequest" xlink:href="#Predicate" xlink:show="new" xlink:title="#Predicate" xlink:type="simple"><path codeLine="11" d="M338.91,302.5 C361.36,318.14 386.16,335.41 408.15,350.72 " fill="none"  style="stroke:#000000;stroke-width:1.0;"/><polygon fill="none" points="335.15,308.41,322.74,291.24,343.16,296.92,335.15,308.41" style="stroke:#000000;stroke-width:1.0;"/></a></g><!--MD5=[447570e958721c250e3c3f24e0d25c2b]
reverse link BinaryPredicate to DifferentFromPredicate--><g ><a href="#BinaryPredicate" target="_top" title="#BinaryPredicate" xlink:actuate="onRequest" xlink:href="#BinaryPredicate" xlink:show="new" xlink:title="#BinaryPredicate" xlink:type="simple"><path codeLine="14" d="M389,452.5 C355.46,475.4 318.87,500.39 294.4,517.11 " fill="none"  style="stroke:#000000;stroke-width:1.0;"/><polygon fill="none" points="384.99,446.76,405.45,441.27,392.88,458.33,384.99,446.76" style="stroke:#000000;stroke-width:1.0;"/></a></g><!--MD5=[1a349ea91a19b999f0a80e8da19d5419]
reverse link BinaryPredicate to FeaturePredicate--><g ><a href="#BinaryPredicate" target="_top" title="#BinaryPredicate" xlink:actuate="onRequest" xlink:href="#BinaryPredicate" xlink:show="new" xlink:title="#BinaryPredicate" xlink:type="simple"><path codeLine="20" d="M471,461.78 C471,478.44 471,495.45 471,509.02 " fill="none"  style="stroke:#000000;stroke-width:1.0;"/><polygon fill="none" points="464,461.93,471,441.93,478,461.93,464,461.93" style="stroke:#000000;stroke-width:1.0;"/></a></g><!--MD5=[a17fa7aecfbc7ff673f1c37c00433991]
link FeaturePredicate to Literal--><g ><path codeLine="21" d="M471,579.37 C471,579.37 471,619.55 471,636.25 " fill="none"  style="stroke:#000000;stroke-width:1.0;"/><polygon fill="#000000" points="471,649.16,475,640.16,471,644.16,467,640.16,471,649.16" style="stroke:#000000;stroke-width:1.0;"/><line style="stroke:#000000;stroke-width:1.0;" x1="471" x2="471" y1="644.16" y2="636.16"/><polygon fill="#000000" points="471,567.37,467,573.37,471,579.37,475,573.37,471,567.37" style="stroke:#000000;stroke-width:1.0;"/><text fill="#000000" font-family="sans-serif" font-size="13" lengthAdjust="spacing" textLength="44" x="472" y="617.5684">literal2</text><text fill="#000000" font-family="sans-serif" font-size="13" lengthAdjust="spacing" textLength="24" x="443.025" y="640.3961">0..1</text></g><!--MD5=[04d44e60fc8375349d1e94c1982da030]
reverse link Element to Predicate--><g ><a href="#Element" target="_top" title="#Element" xlink:actuate="onRequest" xlink:href="#Element" xlink:show="new" xlink:title="#Element" xlink:type="simple"><path codeLine="28" d="M222.64,156.83 C225.93,166.74 229.81,177.41 234,187 C238.31,196.87 243.62,207.22 248.81,216.71 " fill="none"  style="stroke:#000000;stroke-width:1.0;"/><polygon fill="none" points="216.02,159.12,216.75,137.94,229.38,154.96,216.02,159.12" style="stroke:#000000;stroke-width:1.0;"/></a></g><!--MD5=[279cbee654e85cfdd74e0a15cad3e12e]
reverse link BinaryPredicate to RelationEntityPredicate--><g ><a href="#BinaryPredicate" target="_top" title="#BinaryPredicate" xlink:actuate="onRequest" xlink:href="#BinaryPredicate" xlink:show="new" xlink:title="#BinaryPredicate" xlink:type="simple"><path codeLine="33" d="M552.69,452.56 C576.35,468.8 601.53,486.08 622.85,500.71 " fill="none"  style="stroke:#000000;stroke-width:1.0;"/><polygon fill="none" points="548.76,458.36,536.24,441.27,556.69,446.81,548.76,458.36" style="stroke:#000000;stroke-width:1.0;"/></a></g><!--MD5=[d8cc31e7d8dc502422c1b16832e67f43]
reverse link Member to Rule--><g ><a href="#Member" target="_top" title="#Member" xlink:actuate="onRequest" xlink:href="#Member" xlink:show="new" xlink:title="#Member" xlink:type="simple"><path codeLine="40" d="M407.52,55.08 C394.47,69.84 379.29,87.01 367.94,99.84 " fill="none"  style="stroke:#000000;stroke-width:1.0;"/><polygon fill="none" points="402.01,50.74,420.5,40.4,412.5,60.02,402.01,50.74" style="stroke:#000000;stroke-width:1.0;"/></a></g><!--MD5=[cf479669aab18b4fcdc3e34ad176fbca]
reverse link VocabularyStatement to Rule--><g ><a href="#VocabularyStatement" target="_top" title="#VocabularyStatement" xlink:actuate="onRequest" xlink:href="#VocabularyStatement" xlink:show="new" xlink:title="#VocabularyStatement" xlink:type="simple"><path codeLine="41" d="M294.48,55.08 C307.53,69.84 322.71,87.01 334.06,99.84 " fill="none"  style="stroke:#000000;stroke-width:1.0;"/><polygon fill="none" points="289.5,60.02,281.5,40.4,299.99,50.74,289.5,60.02" style="stroke:#000000;stroke-width:1.0;"/></a></g><!--MD5=[ab1c88882a2580c60e50c07622a0df35]
link Rule to Predicate--><g ><path codeLine="42" d="M307.2805,135.8951 C307.2805,135.8951 275.71,154.83 267,170 C261.44,179.68 259.54,191.1 259.59,202.32 " fill="none"  style="stroke:#000000;stroke-width:1.0;"/><polygon fill="#000000" points="260.52,215.26,263.8672,205.9974,260.163,210.2728,255.8876,206.5686,260.52,215.26" style="stroke:#000000;stroke-width:1.0;"/><line style="stroke:#000000;stroke-width:1.0;" x1="260.163" x2="259.59" y1="210.2728" y2="202.295"/><polygon fill="#000000" points="318.25,131.03,311.1435,129.806,307.2805,135.8951,314.3869,137.1191,318.25,131.03" style="stroke:#000000;stroke-width:1.0;"/><text fill="#000000" font-family="sans-serif" font-size="13" lengthAdjust="spacing" textLength="69" x="268" y="183.5684">antecedent</text><text fill="#000000" font-family="sans-serif" font-size="13" lengthAdjust="spacing" textLength="6" x="252.3493" y="206.2142">*</text></g><!--MD5=[ab1c88882a2580c60e50c07622a0df35]
link Rule to Predicate--><g ><path codeLine="43" d="M350.9413,153.7372 C350.9413,153.7372 347.16,177.19 342,187 C338.41,193.82 333.82,200.3 328.68,206.33 " fill="none"  style="stroke:#000000;stroke-width:1.0;"/><polygon fill="#000000" points="320.01,215.57,329.0852,211.7436,323.4312,211.9237,323.251,206.2697,320.01,215.57" style="stroke:#000000;stroke-width:1.0;"/><line style="stroke:#000000;stroke-width:1.0;" x1="323.4312" x2="328.9" y1="211.9237" y2="206.095"/><polygon fill="#000000" points="351.68,141.76,347.3182,147.5024,350.9413,153.7372,355.3031,147.9948,351.68,141.76" style="stroke:#000000;stroke-width:1.0;"/><text fill="#000000" font-family="sans-serif" font-size="13" lengthAdjust="spacing" textLength="73" x="350" y="183.5684">consequent</text><text fill="#000000" font-family="sans-serif" font-size="13" lengthAdjust="spacing" textLength="6" x="321.1584" y="206.3836">*</text></g><!--MD5=[619925213454816b6b3ce783caf9de77]
reverse link BinaryPredicate to SameAsPredicate--><g ><a href="#BinaryPredicate" target="_top" title="#BinaryPredicate" xlink:actuate="onRequest" xlink:href="#BinaryPredicate" xlink:show="new" xlink:title="#BinaryPredicate" xlink:type="simple"><path codeLine="46" d="M609.29,440.61 C664.74,458.72 729.11,480.27 787,501 C801.02,506.02 816.14,511.73 829.99,517.08 " fill="none"  style="stroke:#000000;stroke-width:1.0;"/><polygon fill="none" points="607.19,447.29,590.33,434.44,611.52,433.97,607.19,447.29" style="stroke:#000000;stroke-width:1.0;"/></a></g><!--MD5=[2d398bd96da0c59639053732b5d8f0e6]
reverse link UnaryPredicate to TypePredicate--><g ><a href="#UnaryPredicate" target="_top" title="#UnaryPredicate" xlink:actuate="onRequest" xlink:href="#UnaryPredicate" xlink:show="new" xlink:title="#UnaryPredicate" xlink:type="simple"><path codeLine="50" d="M131.91,441.75 C117.61,464 100.84,490.08 88.52,509.24 " fill="none"  style="stroke:#000000;stroke-width:1.0;"/><polygon fill="none" points="125.91,438.14,142.61,425.1,137.69,445.71,125.91,438.14" style="stroke:#000000;stroke-width:1.0;"/></a></g><!--MD5=[19eb4b0a14bef516a99f05db176da890]
reverse link Predicate to UnaryPredicate--><g ><a href="#Predicate" target="_top" title="#Predicate" xlink:actuate="onRequest" xlink:href="#Predicate" xlink:show="new" xlink:title="#Predicate" xlink:type="simple"><path codeLine="54" d="M229.06,307.09 C213.11,327.57 195.5,350.18 182.2,367.27 " fill="none"  style="stroke:#000000;stroke-width:1.0;"/><polygon fill="none" points="223.47,302.87,241.28,291.38,234.52,311.47,223.47,302.87" style="stroke:#000000;stroke-width:1.0;"/></a></g><!--MD5=[28c1c2d3184d995939fb738df9fbefec]
@startuml
skinparam classBackgroundColor LightGray
skinparam classBorderColor Black
skinparam enumBorderColor Black
skinparam ArrowColor Black
hide methods
abstract class BinaryPredicate [[#BinaryPredicate]] #white {
	variable1 : ID
	variable2 : ID
	instance2 : NamedInstance [0..1]
}
BinaryPredicate -up-|> Predicate [[#Predicate]]
class DifferentFromPredicate [[#DifferentFromPredicate]] #white {
}
DifferentFromPredicate -up-|> BinaryPredicate [[#BinaryPredicate]]
class FeaturePredicate [[#FeaturePredicate]] #white {
	feature : Feature [1]
}
abstract class Literal [[#Literal]]
hide Literal members
FeaturePredicate -up-|> BinaryPredicate [[#BinaryPredicate]]
FeaturePredicate *- -> "0..1" Literal : literal2
abstract class Predicate [[#Predicate]] #white {
	antecedentRule : Rule [0..1]
	consequentRule : Rule [0..1]
}
abstract class Element [[#Element]]
hide Element members
Predicate -up-|> Element [[#Element]]
class RelationEntityPredicate [[#RelationEntityPredicate]] #white {
	entityVariable : ID
	entity : RelationEntity [1]
}
RelationEntityPredicate -up-|> BinaryPredicate [[#BinaryPredicate]]
class Rule [[#Rule]] #white {
}
abstract class Member [[#Member]]
hide Member members
abstract class VocabularyStatement [[#VocabularyStatement]]
hide VocabularyStatement members
Rule -up-|> Member [[#Member]]
Rule -up-|> VocabularyStatement [[#VocabularyStatement]]
Rule *- -> "*" Predicate : antecedent
Rule *- -> "*" Predicate : consequent
class SameAsPredicate [[#SameAsPredicate]] #white {
}
SameAsPredicate -up-|> BinaryPredicate [[#BinaryPredicate]]
class TypePredicate [[#TypePredicate]] #white {
	type : Type [1]
}
TypePredicate -up-|> UnaryPredicate [[#UnaryPredicate]]
abstract class UnaryPredicate [[#UnaryPredicate]] #white {
	variable : ID
}
UnaryPredicate -up-|> Predicate [[#Predicate]]
@enduml

PlantUML version 1.2022.12(Sun Oct 23 11:12:26 PDT 2022)
(GPL source distribution)
Java Runtime: OpenJDK Runtime Environment
JVM: OpenJDK 64-Bit Server VM
Default Encoding: UTF-8
Language: en
Country: US
--></g></svg>
