<?xml version="1.0" encoding="UTF-8"?>
<!DOCTYPE svg PUBLIC "-//W3C//DTD SVG 1.1//EN" "http://www.w3.org/Graphics/SVG/1.1/DTD/svg11.dtd">
<svg xmlns="http://www.w3.org/2000/svg" xmlns:xlink="http://www.w3.org/1999/xlink" version="1.1" width="201px" height="171px" viewBox="-0.5 -0.5 201 171" style="background-color: rgb(255, 255, 255);"><defs><clipPath id="mx-clip-0--1-200-56-0"><rect x="0" y="-1" width="200" height="56"/></clipPath></defs><g><rect x="0" y="0" width="200" height="170" fill="#ffffff" stroke="#000000" pointer-events="all"/><path d="M 0 60 L 200 60" fill="none" stroke="#000000" stroke-miterlimit="10" pointer-events="all"/><path d="M 0 0 M 200 0 M 200 60 M 0 60" fill="none" stroke="#000000" stroke-miterlimit="10" pointer-events="none"/><path d="M 0 0 M 200 0 M 200 60 M 0 60" fill="none" stroke="#000000" stroke-miterlimit="10" pointer-events="none"/><g fill="#000000" font-family="Helvetica" font-weight="bold" clip-path="url(#mx-clip-0--1-200-56-0)" text-anchor="middle" font-size="24px"><text x="99.5" y="50.5">IRI</text></g><path d="M 0 60 M 200 60 M 200 170 M 0 170" fill="none" stroke="#000000" stroke-miterlimit="10" pointer-events="none"/><path d="M 0 60 M 200 60 M 200 170 M 0 170" fill="none" stroke="#000000" stroke-miterlimit="10" pointer-events="none"/><rect x="180" y="60" width="20" height="20" fill="#ffffff" stroke="#000000" stroke-dasharray="3 3" pointer-events="none"/><g fill="#000000" font-family="Helvetica" text-anchor="middle" font-size="12px"><text x="189.5" y="74.5">?</text></g><a xlink:href="#aspect"><rect x="60" y="7" width="80" height="20" fill="none" stroke="none"/><g fill="#000000" font-family="Helvetica" text-anchor="middle" font-size="15px"><text x="99.5" y="23">«Aspect»</text></g></a><a xlink:href="#AnnotationProperty-Syntax"><rect x="5" y="80" width="160" height="20" fill="none" stroke="none"/><g fill="#000000" font-family="Helvetica" font-size="16px"><text x="6.5" y="96.5">AnnotationProperty*</text></g></a><a xlink:href="#ScalarProperty-Syntax"><rect x="5" y="106" width="130" height="20" fill="none" stroke="none"/><g fill="#000000" font-family="Helvetica" font-size="16px"><text x="6.5" y="122.5">ScalarProperty*</text></g></a><a xlink:href="#StructuredProperty-Syntax"><rect x="5" y="133" width="160" height="20" fill="none" stroke="none"/><g fill="#000000" font-family="Helvetica" font-size="16px"><text x="6.5" y="149.5">StructuredProperty*</text></g></a></g></svg>