<?xml version="1.0" encoding="utf-8"?>
<!-- Generator: Adobe Illustrator 23.0.1, SVG Export Plug-In . SVG Version: 6.00 Build 0)  -->
<svg version="1.1" id="Layer_1" xmlns="http://www.w3.org/2000/svg" xmlns:xlink="http://www.w3.org/1999/xlink" x="0px" y="0px"
	 viewBox="0 0 209.6 68.3" style="enable-background:new 0 0 209.6 68.3;" xml:space="preserve">
<style type="text/css">
	.st0{opacity:0.6;fill:#03A9F4;enable-background:new    ;}
	.st1{opacity:0.6;fill:#003D6E;enable-background:new    ;}
	.st2{opacity:0.6;fill:#AC7B00;enable-background:new    ;}
</style>
<path class="st0" d="M75.9,50.9L75.9,50.9c0-4.1,3.3-7.4,7.3-7.4H108c4,0,7.3,3.3,7.3,7.3v0.1c0,4-3.3,7.3-7.3,7.3H83.2
	C79.2,58.2,75.9,54.9,75.9,50.9z"/>
<path class="st1" d="M62.3,58.3L62.3,58.3c-4.1,0-7.4-3.3-7.4-7.3V14c0-4,3.3-7.3,7.3-7.3h0.1c4,0,7.3,3.3,7.3,7.3v37
	C69.6,55,66.3,58.3,62.3,58.3z"/>
<path class="st1" d="M83.4,58.3L83.4,58.3C79.3,58.3,76,55,76,51V14c0-4,3.3-7.3,7.3-7.3h0.1c4,0,7.3,3.3,7.3,7.3v37
	C90.7,55,87.4,58.3,83.4,58.3z"/>
<g>
	<path class="st2" d="M52.3,21.1C46,8.3,30.6,2.9,17.8,9.2C5,15.4-0.4,30.8,5.8,43.6s21.7,18.2,34.5,11.9S58.5,33.9,52.3,21.1z
		 M29.4,44c-6.5,0-11.7-5.2-11.7-11.7s5.2-11.7,11.7-11.7s11.7,5.2,11.7,11.7S35.9,44,29.4,44z"/>
</g>
<path class="st0" d="M79.8,57.2L79.8,57.2c-3.6-2.1-4.8-6.5-2.8-10l21.3-36.9c2-3.5,6.5-4.7,10-2.7h0.1c3.5,2,4.7,6.5,2.7,10
	l-21.3,37C87.8,58,83.3,59.3,79.8,57.2z"/>
<path class="st1" d="M37.5,57.2L37.5,57.2c-3.6-2.1-4.8-6.5-2.8-10L56,10.3c2-3.5,6.5-4.7,10-2.7h0.1c3.5,2,4.7,6.5,2.7,10
	L47.5,54.5C45.5,58,41,59.3,37.5,57.2z"/>
<path class="st1" d="M58.6,57.2L58.6,57.2c-3.6-2.1-4.8-6.5-2.8-10l21.3-36.9c2-3.5,6.5-4.7,10-2.7h0.1c3.5,2,4.7,6.5,2.7,10
	L68.6,54.5C66.6,58,62.1,59.3,58.6,57.2z"/>
<g>
	<path d="M120.9,15.3c0-0.9,0.2-1.7,0.5-2.5s0.9-1.3,1.5-1.7s1.4-0.6,2.2-0.6c1.3,0,2.3,0.4,3.1,1.3c0.8,0.9,1.2,2.1,1.2,3.5v0.2
		c0,0.9-0.2,1.7-0.5,2.5s-0.9,1.3-1.5,1.7c-0.6,0.4-1.4,0.6-2.2,0.6c-1.3,0-2.3-0.4-3.1-1.3s-1.2-2.1-1.2-3.5V15.3z M122,15.6
		c0,1.1,0.3,2.1,0.9,2.8s1.4,1.1,2.3,1.1c0.9,0,1.7-0.4,2.3-1.1c0.6-0.7,0.9-1.7,0.9-2.9v-0.2c0-0.7-0.1-1.4-0.4-2
		c-0.3-0.6-0.6-1.1-1.1-1.4s-1-0.5-1.7-0.5c-0.9,0-1.7,0.4-2.3,1.1s-0.9,1.7-0.9,2.9V15.6z"/>
	<path d="M132.6,10.7l0,1.6c0.4-0.6,0.8-1,1.3-1.3s1.1-0.5,1.8-0.5c1,0,1.8,0.3,2.3,0.9s0.8,1.4,0.8,2.6v6.2h-1V14
		c0-0.8-0.2-1.5-0.5-1.9s-0.9-0.6-1.7-0.6c-0.7,0-1.2,0.2-1.7,0.6s-0.9,1-1.1,1.6v6.5h-1v-9.5H132.6z"/>
	<path d="M143.1,8.3v2.4h2v0.9h-2v6.3c0,0.5,0.1,0.9,0.3,1.2c0.2,0.3,0.5,0.4,1,0.4c0.2,0,0.5,0,0.9-0.1l0,0.9
		c-0.3,0.1-0.7,0.1-1.1,0.1c-0.7,0-1.2-0.2-1.6-0.6s-0.5-1-0.5-1.9v-6.3h-1.7v-0.9h1.7V8.3H143.1z"/>
	<path d="M146.5,15.3c0-0.9,0.2-1.7,0.5-2.5s0.9-1.3,1.5-1.7s1.4-0.6,2.2-0.6c1.3,0,2.3,0.4,3.1,1.3s1.2,2.1,1.2,3.5v0.2
		c0,0.9-0.2,1.7-0.5,2.5s-0.9,1.3-1.5,1.7s-1.4,0.6-2.2,0.6c-1.3,0-2.3-0.4-3.1-1.3s-1.2-2.1-1.2-3.5V15.3z M147.6,15.6
		c0,1.1,0.3,2.1,0.9,2.8s1.4,1.1,2.3,1.1c0.9,0,1.7-0.4,2.3-1.1s0.9-1.7,0.9-2.9v-0.2c0-0.7-0.1-1.4-0.4-2s-0.6-1.1-1.1-1.4
		s-1-0.5-1.7-0.5c-0.9,0-1.7,0.4-2.3,1.1s-0.9,1.7-0.9,2.9V15.6z"/>
	<path d="M158.3,20.2h-1.1V6.7h1.1V20.2z"/>
	<path d="M160.6,15.3c0-0.9,0.2-1.7,0.5-2.5s0.9-1.3,1.5-1.7s1.4-0.6,2.2-0.6c1.3,0,2.3,0.4,3.1,1.3s1.2,2.1,1.2,3.5v0.2
		c0,0.9-0.2,1.7-0.5,2.5s-0.9,1.3-1.5,1.7s-1.4,0.6-2.2,0.6c-1.3,0-2.3-0.4-3.1-1.3s-1.2-2.1-1.2-3.5V15.3z M161.7,15.6
		c0,1.1,0.3,2.1,0.9,2.8s1.4,1.1,2.3,1.1c0.9,0,1.7-0.4,2.3-1.1s0.9-1.7,0.9-2.9v-0.2c0-0.7-0.1-1.4-0.4-2s-0.6-1.1-1.1-1.4
		s-1-0.5-1.7-0.5c-0.9,0-1.7,0.4-2.3,1.1s-0.9,1.7-0.9,2.9V15.6z"/>
	<path d="M170.9,15.4c0-1.5,0.3-2.7,1-3.5s1.6-1.3,2.7-1.3c1.3,0,2.3,0.5,3,1.5l0.1-1.4h1V20c0,1.2-0.3,2.2-1,2.9s-1.6,1.1-2.8,1.1
		c-0.7,0-1.3-0.1-1.9-0.4s-1.1-0.7-1.4-1.2l0.6-0.6c0.7,0.9,1.6,1.4,2.7,1.4c0.9,0,1.6-0.3,2.1-0.8s0.7-1.2,0.8-2.2V19
		c-0.7,0.9-1.7,1.4-2.9,1.4c-1.1,0-2-0.4-2.7-1.3s-1-2.1-1-3.6V15.4z M171.9,15.5c0,1.2,0.2,2.2,0.7,2.9s1.2,1.1,2.1,1.1
		c1.3,0,2.2-0.6,2.8-1.7v-4.4c-0.2-0.6-0.6-1.1-1.1-1.4s-1-0.5-1.7-0.5c-0.9,0-1.6,0.3-2.1,1S171.9,14.2,171.9,15.5z"/>
	<path d="M181.2,7.9c0-0.2,0.1-0.4,0.2-0.5c0.1-0.1,0.3-0.2,0.5-0.2s0.4,0.1,0.5,0.2c0.1,0.1,0.2,0.3,0.2,0.5c0,0.2-0.1,0.4-0.2,0.5
		c-0.1,0.1-0.3,0.2-0.5,0.2s-0.4-0.1-0.5-0.2C181.3,8.3,181.2,8.1,181.2,7.9z M182.4,20.2h-1.1v-9.5h1.1V20.2z"/>
	<path d="M188.8,19.5c0.7,0,1.3-0.2,1.8-0.6s0.8-0.9,0.8-1.6h1c0,0.6-0.2,1.1-0.5,1.6s-0.8,0.9-1.3,1.1s-1.1,0.4-1.8,0.4
		c-1.2,0-2.2-0.4-3-1.3s-1.1-2-1.1-3.5v-0.3c0-0.9,0.2-1.8,0.5-2.5s0.8-1.3,1.4-1.7s1.3-0.6,2.1-0.6c1,0,1.9,0.3,2.6,0.9
		s1,1.4,1.1,2.5h-1c0-0.7-0.3-1.3-0.8-1.8s-1.1-0.7-1.9-0.7c-0.9,0-1.7,0.3-2.2,1s-0.8,1.6-0.8,2.9v0.3c0,1.2,0.3,2.2,0.8,2.8
		S187.9,19.5,188.8,19.5z"/>
	<path d="M200.6,20.2c-0.1-0.3-0.2-0.7-0.2-1.3c-0.4,0.5-0.8,0.9-1.4,1.1s-1.2,0.4-1.8,0.4c-0.9,0-1.7-0.3-2.2-0.8s-0.8-1.2-0.8-1.9
		c0-0.9,0.4-1.7,1.2-2.2c0.8-0.5,1.8-0.8,3.2-0.8h1.9v-1.1c0-0.7-0.2-1.2-0.6-1.6s-1-0.6-1.8-0.6c-0.7,0-1.3,0.2-1.8,0.6
		s-0.7,0.8-0.7,1.4l-1.1,0c0-0.8,0.4-1.4,1.1-2s1.6-0.8,2.6-0.8c1.1,0,1.9,0.3,2.5,0.8s0.9,1.3,0.9,2.2V18c0,0.9,0.1,1.6,0.3,2.1
		v0.1H200.6z M197.3,19.4c0.7,0,1.3-0.2,1.9-0.5s1-0.8,1.2-1.4v-2.1h-1.9c-1,0-1.9,0.2-2.5,0.6c-0.6,0.4-0.9,0.9-0.9,1.5
		c0,0.5,0.2,1,0.6,1.3S196.6,19.4,197.3,19.4z"/>
	<path d="M205.4,20.2h-1.1V6.7h1.1V20.2z"/>
	<path d="M122.5,29.7l0,1.5c0.4-0.6,0.8-1,1.3-1.3s1.1-0.4,1.8-0.4c1.5,0,2.5,0.6,2.9,1.8c0.3-0.6,0.8-1,1.4-1.4s1.2-0.5,1.9-0.5
		c2,0,3.1,1.1,3.1,3.3v6.3h-1.1v-6.3c0-0.8-0.2-1.5-0.5-1.9s-0.9-0.6-1.8-0.6c-0.8,0-1.4,0.3-1.9,0.7s-0.8,1.1-0.9,1.7v6.3h-1.1
		v-6.3c0-0.8-0.2-1.4-0.6-1.8s-1-0.6-1.7-0.6c-0.7,0-1.2,0.2-1.7,0.6s-0.8,0.9-1.1,1.7v6.5h-1.1v-9.5H122.5z"/>
	<path d="M136.9,34.3c0-0.9,0.2-1.7,0.5-2.5c0.4-0.7,0.9-1.3,1.5-1.7s1.4-0.6,2.2-0.6c1.3,0,2.3,0.4,3.1,1.3s1.2,2.1,1.2,3.5v0.2
		c0,0.9-0.2,1.7-0.5,2.5s-0.9,1.3-1.5,1.7s-1.4,0.6-2.2,0.6c-1.3,0-2.3-0.4-3.1-1.3s-1.2-2.1-1.2-3.5V34.3z M137.9,34.6
		c0,1.1,0.3,2.1,0.9,2.8s1.4,1.1,2.3,1.1c0.9,0,1.7-0.4,2.3-1.1s0.9-1.7,0.9-2.9v-0.2c0-0.7-0.1-1.4-0.4-2c-0.3-0.6-0.6-1.1-1.1-1.4
		s-1-0.5-1.7-0.5c-0.9,0-1.7,0.4-2.3,1.1c-0.6,0.7-0.9,1.7-0.9,2.9V34.6z"/>
	<path d="M147.1,34.4c0-1.5,0.3-2.7,1-3.5s1.6-1.3,2.7-1.3c1.3,0,2.3,0.5,2.9,1.5v-5.3h1v13.5h-1l0-1.3c-0.7,1-1.7,1.4-3,1.4
		c-1.1,0-2-0.4-2.6-1.3s-1-2.1-1-3.6V34.4z M148.2,34.5c0,1.2,0.2,2.2,0.7,2.9s1.2,1.1,2.1,1.1c1.3,0,2.2-0.6,2.8-1.7v-4.5
		c-0.5-1.2-1.5-1.9-2.7-1.9c-0.9,0-1.6,0.3-2.1,1C148.4,32.2,148.2,33.2,148.2,34.5z"/>
	<path d="M161.2,39.4c-0.8,0-1.5-0.2-2.2-0.6s-1.2-1-1.5-1.7s-0.5-1.5-0.5-2.4v-0.4c0-0.9,0.2-1.7,0.5-2.5c0.4-0.7,0.8-1.3,1.5-1.7
		s1.3-0.6,2.1-0.6c1.2,0,2.1,0.4,2.7,1.2s1,1.9,1,3.2v0.6H158v0.2c0,1.1,0.3,2,0.9,2.7s1.4,1.1,2.3,1.1c0.6,0,1.1-0.1,1.5-0.3
		s0.8-0.5,1.2-1l0.7,0.5C163.8,38.8,162.7,39.4,161.2,39.4z M161,30.4c-0.8,0-1.5,0.3-2,0.9s-0.9,1.4-1,2.3h5.7v-0.1
		c0-0.9-0.3-1.7-0.8-2.2S161.8,30.4,161,30.4z"/>
	<path d="M168,39.2H167V25.7h1.1V39.2z"/>
	<path d="M170.8,26.9c0-0.2,0.1-0.4,0.2-0.5c0.1-0.1,0.3-0.2,0.5-0.2s0.4,0.1,0.5,0.2c0.1,0.1,0.2,0.3,0.2,0.5s-0.1,0.4-0.2,0.5
		c-0.1,0.1-0.3,0.2-0.5,0.2s-0.4-0.1-0.5-0.2C170.9,27.3,170.8,27.1,170.8,26.9z M172.1,39.2H171v-9.5h1.1V39.2z"/>
	<path d="M175.9,29.7l0,1.6c0.4-0.6,0.8-1,1.3-1.3s1.1-0.5,1.8-0.5c1,0,1.8,0.3,2.3,0.9s0.8,1.4,0.8,2.6v6.2h-1V33
		c0-0.8-0.2-1.5-0.5-1.9s-0.9-0.6-1.7-0.6c-0.7,0-1.2,0.2-1.7,0.6s-0.9,1-1.1,1.6v6.5h-1v-9.5H175.9z"/>
	<path d="M184.4,34.4c0-1.5,0.3-2.7,1-3.5s1.6-1.3,2.7-1.3c1.3,0,2.3,0.5,3,1.5l0.1-1.4h1V39c0,1.2-0.3,2.2-1,2.9s-1.6,1.1-2.8,1.1
		c-0.7,0-1.3-0.1-1.9-0.4s-1.1-0.7-1.4-1.2l0.6-0.6c0.7,0.9,1.6,1.4,2.7,1.4c0.9,0,1.6-0.3,2.1-0.8s0.7-1.2,0.8-2.2V38
		c-0.7,0.9-1.7,1.4-2.9,1.4c-1.1,0-2-0.4-2.7-1.3s-1-2.1-1-3.6V34.4z M185.4,34.5c0,1.2,0.2,2.2,0.7,2.9s1.2,1.1,2.1,1.1
		c1.3,0,2.2-0.6,2.8-1.7v-4.4c-0.2-0.6-0.6-1.1-1.1-1.4s-1-0.5-1.7-0.5c-0.9,0-1.6,0.3-2.1,1C185.7,32.2,185.4,33.2,185.4,34.5z"/>
	<path d="M122.7,58.2h-1.1V44.7h1.1V58.2z"/>
	<path d="M131.5,58.2c-0.1-0.3-0.2-0.7-0.2-1.3c-0.4,0.5-0.8,0.9-1.4,1.1s-1.2,0.4-1.8,0.4c-0.9,0-1.7-0.3-2.2-0.8s-0.8-1.2-0.8-1.9
		c0-0.9,0.4-1.7,1.2-2.2s1.8-0.8,3.2-0.8h1.9v-1.1c0-0.7-0.2-1.2-0.6-1.6s-1-0.6-1.8-0.6c-0.7,0-1.3,0.2-1.8,0.6s-0.7,0.8-0.7,1.4
		l-1.1,0c0-0.8,0.4-1.4,1.1-2s1.6-0.8,2.6-0.8c1.1,0,1.9,0.3,2.5,0.8s0.9,1.3,0.9,2.2V56c0,0.9,0.1,1.6,0.3,2.1v0.1H131.5z
		 M128.2,57.4c0.7,0,1.3-0.2,1.9-0.5s1-0.8,1.2-1.4v-2.1h-1.9c-1,0-1.9,0.2-2.5,0.6s-0.9,0.9-0.9,1.5c0,0.5,0.2,1,0.6,1.3
		S127.6,57.4,128.2,57.4z"/>
	<path d="M136.2,48.7l0,1.6c0.4-0.6,0.8-1,1.3-1.3s1.1-0.5,1.8-0.5c1,0,1.8,0.3,2.3,0.9s0.8,1.4,0.8,2.6v6.2h-1V52
		c0-0.8-0.2-1.5-0.5-1.9s-0.9-0.6-1.7-0.6c-0.7,0-1.2,0.2-1.7,0.6s-0.9,1-1.1,1.6v6.5h-1v-9.5H136.2z"/>
	<path d="M144.6,53.4c0-1.5,0.3-2.7,1-3.5s1.6-1.3,2.7-1.3c1.3,0,2.3,0.5,3,1.5l0.1-1.4h1V58c0,1.2-0.3,2.2-1,2.9s-1.6,1.1-2.8,1.1
		c-0.7,0-1.3-0.1-1.9-0.4s-1.1-0.7-1.4-1.2l0.6-0.6c0.7,0.9,1.6,1.4,2.7,1.4c0.9,0,1.6-0.3,2.1-0.8s0.7-1.2,0.8-2.2V57
		c-0.7,0.9-1.7,1.4-2.9,1.4c-1.1,0-2-0.4-2.7-1.3s-1-2.1-1-3.6V53.4z M145.7,53.5c0,1.2,0.2,2.2,0.7,2.9s1.2,1.1,2.1,1.1
		c1.3,0,2.2-0.6,2.8-1.7v-4.4c-0.2-0.6-0.6-1.1-1.1-1.4s-1-0.5-1.7-0.5c-0.9,0-1.6,0.3-2.1,1S145.7,52.2,145.7,53.5z"/>
	<path d="M161.2,57c-0.6,0.9-1.6,1.4-3,1.4c-1,0-1.8-0.3-2.3-0.9S155,56,155,54.9v-6.2h1v6.1c0,1.8,0.7,2.7,2.2,2.7
		c1.5,0,2.5-0.6,2.9-1.9v-6.9h1.1v9.5h-1L161.2,57z"/>
	<path d="M170.9,58.2c-0.1-0.3-0.2-0.7-0.2-1.3c-0.4,0.5-0.8,0.9-1.4,1.1s-1.2,0.4-1.8,0.4c-0.9,0-1.7-0.3-2.2-0.8s-0.8-1.2-0.8-1.9
		c0-0.9,0.4-1.7,1.2-2.2s1.8-0.8,3.2-0.8h1.9v-1.1c0-0.7-0.2-1.2-0.6-1.6s-1-0.6-1.8-0.6c-0.7,0-1.3,0.2-1.8,0.6s-0.7,0.8-0.7,1.4
		l-1.1,0c0-0.8,0.4-1.4,1.1-2s1.6-0.8,2.6-0.8c1.1,0,1.9,0.3,2.5,0.8s0.9,1.3,0.9,2.2V56c0,0.9,0.1,1.6,0.3,2.1v0.1H170.9z
		 M167.6,57.4c0.7,0,1.3-0.2,1.9-0.5s1-0.8,1.2-1.4v-2.1h-1.9c-1,0-1.9,0.2-2.5,0.6s-0.9,0.9-0.9,1.5c0,0.5,0.2,1,0.6,1.3
		S167,57.4,167.6,57.4z"/>
	<path d="M174.2,53.4c0-1.5,0.3-2.7,1-3.5s1.6-1.3,2.7-1.3c1.3,0,2.3,0.5,3,1.5l0.1-1.4h1V58c0,1.2-0.3,2.2-1,2.9S179.2,62,178,62
		c-0.7,0-1.3-0.1-1.9-0.4s-1.1-0.7-1.4-1.2l0.6-0.6c0.7,0.9,1.6,1.4,2.7,1.4c0.9,0,1.6-0.3,2.1-0.8s0.7-1.2,0.8-2.2V57
		c-0.7,0.9-1.7,1.4-2.9,1.4c-1.1,0-2-0.4-2.7-1.3s-1-2.1-1-3.6V53.4z M175.2,53.5c0,1.2,0.2,2.2,0.7,2.9s1.2,1.1,2.1,1.1
		c1.3,0,2.2-0.6,2.8-1.7v-4.4c-0.2-0.6-0.6-1.1-1.1-1.4s-1-0.5-1.7-0.5c-0.9,0-1.6,0.3-2.1,1S175.2,52.2,175.2,53.5z"/>
	<path d="M188.2,58.4c-0.8,0-1.5-0.2-2.2-0.6s-1.2-1-1.5-1.7s-0.5-1.5-0.5-2.4v-0.4c0-0.9,0.2-1.7,0.5-2.5s0.8-1.3,1.5-1.7
		s1.3-0.6,2.1-0.6c1.2,0,2.1,0.4,2.7,1.2s1,1.9,1,3.2v0.6H185v0.2c0,1.1,0.3,2,0.9,2.7s1.4,1.1,2.3,1.1c0.6,0,1.1-0.1,1.5-0.3
		s0.8-0.5,1.2-1l0.7,0.5C190.8,57.8,189.7,58.4,188.2,58.4z M188.1,49.4c-0.8,0-1.5,0.3-2,0.9s-0.9,1.4-1,2.3h5.7v-0.1
		c0-0.9-0.3-1.7-0.8-2.2S188.9,49.4,188.1,49.4z"/>
</g>
</svg>